<?xml version="1.0" encoding="UTF-8"?>
<svg xmlns="http://www.w3.org/2000/svg" xmlns:xlink="http://www.w3.org/1999/xlink" width="507.054pt" height="136.293pt" viewBox="0 0 507.054 136.293">
<defs>
<g>
<g id="glyph-0-0">
<path d="M 3.0625 -3.765625 C 3.0625 -3.921875 3.0625 -4 2.96875 -4 C 2.921875 -4 2.90625 -4 2.78125 -3.890625 C 2.765625 -3.875 2.6875 -3.796875 2.625 -3.75 C 2.359375 -3.9375 2.078125 -4 1.78125 -4 C 0.59375 -4 0.296875 -3.34375 0.296875 -2.890625 C 0.296875 -2.609375 0.421875 -2.375 0.640625 -2.171875 C 0.9375 -1.90625 1.28125 -1.84375 1.734375 -1.75 C 2.1875 -1.671875 2.34375 -1.640625 2.53125 -1.484375 C 2.625 -1.421875 2.84375 -1.25 2.84375 -0.90625 C 2.84375 -0.125 1.9375 -0.125 1.8125 -0.125 C 0.90625 -0.125 0.671875 -0.890625 0.578125 -1.359375 C 0.546875 -1.453125 0.53125 -1.5 0.421875 -1.5 C 0.296875 -1.5 0.296875 -1.4375 0.296875 -1.28125 L 0.296875 -0.140625 C 0.296875 0.015625 0.296875 0.09375 0.40625 0.09375 C 0.46875 0.09375 0.46875 0.09375 0.640625 -0.078125 C 0.671875 -0.140625 0.765625 -0.25 0.8125 -0.296875 C 1.1875 0.078125 1.59375 0.09375 1.8125 0.09375 C 2.921875 0.09375 3.296875 -0.546875 3.296875 -1.140625 C 3.296875 -1.546875 3.125 -1.78125 2.921875 -1.984375 C 2.625 -2.28125 2.296875 -2.34375 1.640625 -2.46875 C 1.40625 -2.515625 0.765625 -2.625 0.765625 -3.140625 C 0.765625 -3.421875 0.96875 -3.796875 1.78125 -3.796875 C 2.734375 -3.796875 2.796875 -3.0625 2.8125 -2.84375 C 2.828125 -2.734375 2.828125 -2.671875 2.9375 -2.671875 C 3.0625 -2.671875 3.0625 -2.734375 3.0625 -2.90625 Z M 3.0625 -3.765625 "/>
</g>
<g id="glyph-0-1">
<path d="M 1.640625 -3.9375 L 0.359375 -3.84375 L 0.359375 -3.5625 C 0.921875 -3.5625 1.015625 -3.515625 1.015625 -3.078125 L 1.015625 -0.6875 C 1.015625 -0.28125 0.90625 -0.28125 0.328125 -0.28125 L 0.328125 0 C 0.71875 -0.015625 0.90625 -0.03125 1.296875 -0.03125 C 1.453125 -0.03125 1.8125 -0.03125 2.25 0 L 2.25 -0.28125 C 1.671875 -0.28125 1.640625 -0.328125 1.640625 -0.671875 Z M 1.671875 -5.5 C 1.671875 -5.765625 1.453125 -5.984375 1.1875 -5.984375 C 0.90625 -5.984375 0.703125 -5.75 0.703125 -5.5 C 0.703125 -5.234375 0.90625 -5.015625 1.1875 -5.015625 C 1.453125 -5.015625 1.671875 -5.234375 1.671875 -5.5 Z M 1.671875 -5.5 "/>
</g>
<g id="glyph-0-2">
<path d="M 1.65625 -2.3125 C 1.65625 -3.25 2.328125 -3.71875 2.890625 -3.71875 C 3.421875 -3.71875 3.53125 -3.28125 3.53125 -2.75 L 3.53125 -0.6875 C 3.53125 -0.28125 3.4375 -0.28125 2.84375 -0.28125 L 2.84375 0 C 3.265625 -0.015625 3.4375 -0.03125 3.859375 -0.03125 C 4.296875 -0.03125 4.40625 -0.015625 4.875 0 L 4.875 -0.28125 C 4.421875 -0.28125 4.203125 -0.28125 4.1875 -0.546875 L 4.1875 -2.265625 C 4.1875 -3 4.1875 -3.265625 3.9375 -3.578125 C 3.734375 -3.828125 3.40625 -3.9375 2.953125 -3.9375 C 2.125 -3.9375 1.734375 -3.328125 1.609375 -3.078125 L 1.609375 -3.9375 L 0.3125 -3.84375 L 0.3125 -3.5625 C 0.921875 -3.5625 1 -3.5 1 -3.0625 L 1 -0.6875 C 1 -0.28125 0.90625 -0.28125 0.3125 -0.28125 L 0.3125 0 C 0.734375 -0.015625 0.90625 -0.03125 1.328125 -0.03125 C 1.75 -0.03125 1.875 -0.015625 2.34375 0 L 2.34375 -0.28125 C 1.75 -0.28125 1.65625 -0.28125 1.65625 -0.6875 Z M 1.65625 -2.3125 "/>
</g>
<g id="glyph-0-3">
<path d="M 1.109375 -1.59375 C 1.34375 -1.453125 1.609375 -1.328125 2.03125 -1.328125 C 2.875 -1.328125 3.515625 -1.921875 3.515625 -2.625 C 3.515625 -3.0625 3.265625 -3.375 3.15625 -3.5 C 3.5 -3.8125 3.921875 -3.8125 4.03125 -3.8125 C 3.984375 -3.796875 3.921875 -3.75 3.921875 -3.59375 C 3.921875 -3.484375 3.984375 -3.3125 4.1875 -3.3125 C 4.3125 -3.3125 4.453125 -3.40625 4.453125 -3.59375 C 4.453125 -3.765625 4.328125 -4.046875 3.96875 -4.046875 C 3.71875 -4.046875 3.3125 -3.9375 3 -3.625 C 2.75 -3.8125 2.40625 -3.9375 2.03125 -3.9375 C 1.1875 -3.9375 0.546875 -3.34375 0.546875 -2.625 C 0.546875 -2.171875 0.8125 -1.859375 0.953125 -1.71875 C 0.9375 -1.703125 0.6875 -1.390625 0.6875 -0.984375 C 0.6875 -0.671875 0.828125 -0.359375 1.078125 -0.203125 C 0.609375 -0.046875 0.265625 0.28125 0.265625 0.703125 C 0.265625 1.328125 1.140625 1.84375 2.28125 1.84375 C 3.375 1.84375 4.3125 1.359375 4.3125 0.671875 C 4.3125 0.3125 4.15625 -0.078125 3.8125 -0.296875 C 3.3125 -0.609375 2.796875 -0.609375 1.953125 -0.609375 C 1.78125 -0.609375 1.484375 -0.609375 1.421875 -0.625 C 1.15625 -0.671875 0.984375 -0.921875 0.984375 -1.203125 C 0.984375 -1.34375 1.03125 -1.484375 1.109375 -1.59375 Z M 2.03125 -1.5625 C 1.234375 -1.5625 1.234375 -2.4375 1.234375 -2.625 C 1.234375 -2.875 1.25 -3.171875 1.40625 -3.390625 C 1.53125 -3.5625 1.78125 -3.703125 2.03125 -3.703125 C 2.828125 -3.703125 2.828125 -2.84375 2.828125 -2.625 C 2.828125 -2.421875 2.828125 -1.5625 2.03125 -1.5625 Z M 2.4375 -0.046875 C 2.71875 -0.046875 3.8125 -0.03125 3.8125 0.6875 C 3.8125 1.203125 3.125 1.59375 2.296875 1.59375 C 1.421875 1.59375 0.765625 1.171875 0.765625 0.6875 C 0.765625 0.546875 0.84375 -0.046875 1.609375 -0.046875 Z M 2.4375 -0.046875 "/>
</g>
<g id="glyph-0-4">
<path d="M 1.640625 -6.1875 L 0.328125 -6.09375 L 0.328125 -5.8125 C 0.921875 -5.8125 1.015625 -5.75 1.015625 -5.3125 L 1.015625 -0.6875 C 1.015625 -0.28125 0.90625 -0.28125 0.328125 -0.28125 L 0.328125 0 C 0.734375 -0.015625 0.90625 -0.03125 1.328125 -0.03125 C 1.734375 -0.03125 1.890625 -0.015625 2.328125 0 L 2.328125 -0.28125 C 1.734375 -0.28125 1.640625 -0.28125 1.640625 -0.6875 Z M 1.640625 -6.1875 "/>
</g>
<g id="glyph-0-5">
<path d="M 3.5625 -2.046875 C 3.765625 -2.046875 3.8125 -2.046875 3.8125 -2.234375 C 3.8125 -3.15625 3.3125 -4 2.171875 -4 C 1.09375 -4 0.265625 -3.0625 0.265625 -1.96875 C 0.265625 -0.796875 1.203125 0.09375 2.28125 0.09375 C 3.375 0.09375 3.8125 -0.859375 3.8125 -1.0625 C 3.8125 -1.125 3.765625 -1.171875 3.6875 -1.171875 C 3.59375 -1.171875 3.5625 -1.109375 3.5625 -1.078125 C 3.25 -0.171875 2.46875 -0.15625 2.328125 -0.15625 C 1.90625 -0.15625 1.53125 -0.390625 1.328125 -0.703125 C 1.03125 -1.140625 1.03125 -1.671875 1.03125 -2.046875 Z M 1.03125 -2.25 C 1.109375 -3.625 1.921875 -3.78125 2.171875 -3.78125 C 2.65625 -3.78125 3.1875 -3.40625 3.203125 -2.25 Z M 1.03125 -2.25 "/>
</g>
<g id="glyph-0-6">
<path d="M 3.46875 -1.078125 C 3.46875 -0.90625 3.46875 -0.890625 3.34375 -0.703125 C 3.0625 -0.296875 2.65625 -0.125 2.296875 -0.125 C 1.90625 -0.125 1.546875 -0.34375 1.328125 -0.71875 C 1.09375 -1.09375 1.078125 -1.625 1.078125 -1.90625 C 1.078125 -2.328125 1.125 -2.796875 1.359375 -3.15625 C 1.546875 -3.4375 1.921875 -3.71875 2.390625 -3.71875 C 2.765625 -3.71875 3.125 -3.53125 3.359375 -3.1875 C 3.46875 -3.046875 3.46875 -3.046875 3.46875 -2.875 Z M 3.5 -3.421875 C 3.453125 -3.46875 3.046875 -3.9375 2.359375 -3.9375 C 1.265625 -3.9375 0.296875 -3.0625 0.296875 -1.921875 C 0.296875 -0.796875 1.203125 0.09375 2.25 0.09375 C 2.90625 0.09375 3.3125 -0.28125 3.46875 -0.46875 L 3.46875 0.09375 L 4.8125 0 L 4.8125 -0.28125 C 4.21875 -0.28125 4.125 -0.34375 4.125 -0.78125 L 4.125 -6.1875 L 2.8125 -6.09375 L 2.8125 -5.8125 C 3.421875 -5.8125 3.5 -5.75 3.5 -5.3125 Z M 3.5 -3.421875 "/>
</g>
<g id="glyph-0-7">
<path d="M 2.90625 -3.5625 L 2.90625 -3.84375 L 1.609375 -3.84375 L 1.609375 -5.484375 L 1.359375 -5.484375 C 1.34375 -4.734375 1.03125 -3.8125 0.171875 -3.796875 L 0.171875 -3.5625 L 0.953125 -3.5625 L 0.953125 -1.109375 C 0.953125 -0.109375 1.671875 0.09375 2.140625 0.09375 C 2.734375 0.09375 3.046875 -0.46875 3.046875 -1.109375 L 3.046875 -1.609375 L 2.796875 -1.609375 L 2.796875 -1.140625 C 2.796875 -0.46875 2.53125 -0.15625 2.203125 -0.15625 C 1.609375 -0.15625 1.609375 -0.9375 1.609375 -1.09375 L 1.609375 -3.5625 Z M 2.90625 -3.5625 "/>
</g>
<g id="glyph-0-8">
<path d="M 1.59375 -2.046875 C 1.59375 -2.40625 1.6875 -3.71875 2.703125 -3.71875 C 2.6875 -3.703125 2.546875 -3.59375 2.546875 -3.375 C 2.546875 -3.140625 2.734375 -2.984375 2.9375 -2.984375 C 3.125 -2.984375 3.328125 -3.125 3.328125 -3.390625 C 3.328125 -3.671875 3.0625 -3.9375 2.65625 -3.9375 C 2.125 -3.9375 1.75 -3.5625 1.546875 -3.015625 L 1.53125 -3.015625 L 1.53125 -3.9375 L 0.265625 -3.84375 L 0.265625 -3.5625 C 0.875 -3.5625 0.953125 -3.5 0.953125 -3.0625 L 0.953125 -0.6875 C 0.953125 -0.28125 0.859375 -0.28125 0.265625 -0.28125 L 0.265625 0 C 0.734375 -0.015625 0.859375 -0.03125 1.3125 -0.03125 C 1.671875 -0.03125 1.875 -0.015625 2.4375 0 L 2.4375 -0.28125 L 2.265625 -0.28125 C 1.609375 -0.28125 1.59375 -0.375 1.59375 -0.703125 Z M 1.59375 -2.046875 "/>
</g>
<g id="glyph-0-9">
<path d="M 1.609375 -2.84375 C 1.609375 -3.015625 1.609375 -3.03125 1.71875 -3.171875 C 2.015625 -3.578125 2.453125 -3.71875 2.796875 -3.71875 C 3.171875 -3.71875 3.53125 -3.5 3.765625 -3.125 C 4 -2.75 4.015625 -2.21875 4.015625 -1.9375 C 4.015625 -1.515625 3.96875 -1.046875 3.734375 -0.6875 C 3.53125 -0.40625 3.171875 -0.125 2.6875 -0.125 C 2.296875 -0.125 1.953125 -0.34375 1.734375 -0.671875 C 1.609375 -0.859375 1.609375 -0.859375 1.609375 -1.03125 Z M 1.53125 -0.546875 C 1.8125 -0.15625 2.25 0.09375 2.734375 0.09375 C 3.796875 0.09375 4.78125 -0.765625 4.78125 -1.921875 C 4.78125 -3.046875 3.90625 -3.9375 2.828125 -3.9375 C 2.21875 -3.9375 1.796875 -3.625 1.59375 -3.390625 L 1.59375 -6.1875 L 0.265625 -6.09375 L 0.265625 -5.8125 C 0.875 -5.8125 0.953125 -5.75 0.953125 -5.3125 L 0.953125 0 L 1.203125 0 Z M 1.53125 -0.546875 "/>
</g>
<g id="glyph-0-10">
<path d="M 3.53125 -1.484375 C 3.53125 -0.703125 3.09375 -0.125 2.4375 -0.125 C 1.703125 -0.125 1.65625 -0.515625 1.65625 -0.984375 L 1.65625 -3.9375 L 0.3125 -3.84375 L 0.3125 -3.5625 C 1 -3.5625 1 -3.546875 1 -2.75 L 1 -1.40625 C 1 -0.828125 1 -0.453125 1.40625 -0.140625 C 1.671875 0.03125 2.03125 0.09375 2.390625 0.09375 C 2.859375 0.09375 3.296875 -0.109375 3.546875 -0.640625 L 3.5625 -0.640625 L 3.5625 0.09375 L 4.875 0 L 4.875 -0.28125 C 4.28125 -0.28125 4.1875 -0.34375 4.1875 -0.78125 L 4.1875 -3.9375 L 2.84375 -3.84375 L 2.84375 -3.5625 C 3.453125 -3.5625 3.53125 -3.5 3.53125 -3.0625 Z M 3.53125 -1.484375 "/>
</g>
<g id="glyph-0-11">
<path d="M 4.3125 -1.90625 C 4.3125 -3.0625 3.390625 -4 2.296875 -4 C 1.15625 -4 0.265625 -3.046875 0.265625 -1.90625 C 0.265625 -0.78125 1.1875 0.09375 2.28125 0.09375 C 3.421875 0.09375 4.3125 -0.796875 4.3125 -1.90625 Z M 2.296875 -0.15625 C 1.84375 -0.15625 1.46875 -0.375 1.265625 -0.71875 C 1.03125 -1.09375 1.03125 -1.5625 1.03125 -1.984375 C 1.03125 -2.3125 1.03125 -2.8125 1.25 -3.1875 C 1.515625 -3.640625 1.96875 -3.78125 2.28125 -3.78125 C 2.796875 -3.78125 3.15625 -3.484375 3.34375 -3.1875 C 3.546875 -2.8125 3.546875 -2.359375 3.546875 -1.984375 C 3.546875 -1.65625 3.546875 -1.140625 3.328125 -0.734375 C 3.078125 -0.328125 2.671875 -0.15625 2.296875 -0.15625 Z M 2.296875 -0.15625 "/>
</g>
<g id="glyph-0-12">
<path d="M 1.609375 -3.171875 C 1.578125 -3.21875 1.5625 -3.28125 1.5625 -3.34375 C 1.5625 -3.5625 1.875 -3.5625 2.046875 -3.5625 L 2.046875 -3.84375 C 1.671875 -3.828125 1.46875 -3.8125 1.078125 -3.8125 C 0.765625 -3.8125 0.5 -3.8125 0.171875 -3.84375 L 0.171875 -3.5625 C 0.59375 -3.5625 0.765625 -3.5625 0.90625 -3.234375 L 2.203125 -0.078125 C 2.25 0.078125 2.328125 0.09375 2.40625 0.09375 C 2.484375 0.09375 2.5625 0.078125 2.625 -0.078125 L 3.84375 -3 C 4.03125 -3.453125 4.34375 -3.5625 4.640625 -3.5625 L 4.640625 -3.84375 C 4.375 -3.8125 3.984375 -3.8125 3.96875 -3.8125 C 3.71875 -3.8125 3.4375 -3.828125 3.1875 -3.84375 L 3.1875 -3.5625 C 3.4375 -3.546875 3.59375 -3.421875 3.59375 -3.1875 C 3.59375 -3.09375 3.59375 -3.078125 3.546875 -2.984375 L 2.625 -0.734375 Z M 1.609375 -3.171875 "/>
</g>
<g id="glyph-0-13">
<path d="M 3.046875 -0.640625 C 3.09375 -0.265625 3.359375 0.046875 3.734375 0.046875 C 3.96875 0.046875 4.515625 -0.078125 4.515625 -0.796875 L 4.515625 -1.296875 L 4.28125 -1.296875 L 4.28125 -0.796875 C 4.28125 -0.703125 4.28125 -0.265625 3.953125 -0.265625 C 3.625 -0.265625 3.625 -0.6875 3.625 -0.828125 L 3.625 -2.390625 C 3.625 -2.90625 3.625 -3.203125 3.234375 -3.5625 C 2.90625 -3.859375 2.46875 -4 2.03125 -4 C 1.28125 -4 0.65625 -3.625 0.65625 -3.046875 C 0.65625 -2.78125 0.84375 -2.625 1.078125 -2.625 C 1.3125 -2.625 1.484375 -2.796875 1.484375 -3.03125 C 1.484375 -3.421875 1.09375 -3.46875 1.078125 -3.46875 C 1.328125 -3.6875 1.75 -3.78125 2 -3.78125 C 2.46875 -3.78125 2.96875 -3.4375 2.96875 -2.65625 L 2.96875 -2.359375 C 2.484375 -2.34375 1.8125 -2.296875 1.21875 -2 C 0.578125 -1.6875 0.390625 -1.234375 0.390625 -0.875 C 0.390625 -0.140625 1.25 0.09375 1.84375 0.09375 C 2.59375 0.09375 2.921875 -0.390625 3.046875 -0.640625 Z M 2.96875 -1.265625 C 2.96875 -0.390625 2.296875 -0.125 1.90625 -0.125 C 1.484375 -0.125 1.09375 -0.421875 1.09375 -0.875 C 1.09375 -1.46875 1.609375 -2.09375 2.96875 -2.140625 Z M 2.96875 -1.265625 "/>
</g>
<g id="glyph-0-14">
<path d="M 1.59375 -1.9375 L 1.59375 -6.1875 L 0.265625 -6.09375 L 0.265625 -5.8125 C 0.875 -5.8125 0.953125 -5.75 0.953125 -5.3125 L 0.953125 -0.6875 C 0.953125 -0.28125 0.859375 -0.28125 0.265625 -0.28125 L 0.265625 0 C 0.65625 -0.015625 0.890625 -0.03125 1.265625 -0.03125 C 1.625 -0.03125 1.84375 -0.015625 2.25 0 L 2.25 -0.28125 C 1.65625 -0.28125 1.5625 -0.28125 1.5625 -0.6875 L 1.5625 -1.59375 L 2.125 -2.0625 L 3 -0.90625 C 3.140625 -0.703125 3.21875 -0.59375 3.21875 -0.46875 C 3.21875 -0.390625 3.1875 -0.28125 2.90625 -0.28125 L 2.90625 0 C 3.3125 -0.015625 3.53125 -0.03125 3.875 -0.03125 C 4.125 -0.03125 4.421875 -0.03125 4.671875 0 L 4.671875 -0.28125 C 4.375 -0.28125 4.171875 -0.28125 3.84375 -0.71875 L 2.578125 -2.4375 C 3.453125 -3.1875 3.859375 -3.546875 4.46875 -3.5625 L 4.46875 -3.84375 C 4.15625 -3.8125 4.140625 -3.8125 3.8125 -3.8125 C 3.546875 -3.8125 3.3125 -3.828125 2.828125 -3.84375 L 2.828125 -3.5625 C 2.96875 -3.5625 3.0625 -3.5 3.0625 -3.359375 C 3.0625 -3.1875 2.921875 -3.0625 2.84375 -3 Z M 1.59375 -1.9375 "/>
</g>
<g id="glyph-0-15">
<path d="M 3.046875 2.125 C 3.046875 2.078125 3.015625 2.046875 2.96875 1.984375 C 1.8125 0.9375 1.46875 -0.671875 1.46875 -2.234375 C 1.46875 -3.609375 1.734375 -5.296875 2.984375 -6.484375 C 3.03125 -6.515625 3.046875 -6.546875 3.046875 -6.59375 C 3.046875 -6.65625 3 -6.6875 2.9375 -6.6875 C 2.828125 -6.6875 2.03125 -6.046875 1.546875 -5.078125 C 1.109375 -4.21875 0.90625 -3.296875 0.90625 -2.234375 C 0.90625 -1.59375 0.984375 -0.578125 1.46875 0.46875 C 2 1.5625 2.828125 2.21875 2.9375 2.21875 C 3 2.21875 3.046875 2.1875 3.046875 2.125 Z M 3.046875 2.125 "/>
</g>
<g id="glyph-0-16">
<path d="M 2.65625 -2.234375 C 2.65625 -2.96875 2.546875 -3.953125 2.09375 -4.9375 C 1.5625 -6.046875 0.734375 -6.6875 0.625 -6.6875 C 0.53125 -6.6875 0.515625 -6.625 0.515625 -6.59375 C 0.515625 -6.546875 0.53125 -6.515625 0.59375 -6.453125 C 1.109375 -6 2.09375 -4.78125 2.09375 -2.234375 C 2.09375 -0.96875 1.859375 0.8125 0.578125 2.015625 C 0.546875 2.046875 0.515625 2.078125 0.515625 2.125 C 0.515625 2.15625 0.53125 2.21875 0.625 2.21875 C 0.734375 2.21875 1.53125 1.578125 2.015625 0.609375 C 2.4375 -0.25 2.65625 -1.171875 2.65625 -2.234375 Z M 2.65625 -2.234375 "/>
</g>
<g id="glyph-0-17">
<path d="M 5.34375 -6.0625 L 0.34375 -6.0625 L 0.34375 -5.796875 L 0.546875 -5.796875 C 1.234375 -5.796875 1.25 -5.6875 1.25 -5.359375 L 1.25 -0.703125 C 1.25 -0.375 1.234375 -0.28125 0.546875 -0.28125 L 0.34375 -0.28125 L 0.34375 0 C 0.734375 -0.03125 1.296875 -0.03125 1.703125 -0.03125 C 2.0625 -0.03125 2.875 -0.03125 3.1875 0 L 3.1875 -0.28125 L 2.90625 -0.28125 C 2.09375 -0.28125 2.046875 -0.390625 2.046875 -0.71875 L 2.046875 -2.90625 L 2.859375 -2.90625 C 3.71875 -2.90625 3.8125 -2.609375 3.8125 -1.859375 L 4.0625 -1.859375 L 4.0625 -4.21875 L 3.8125 -4.21875 C 3.8125 -3.46875 3.71875 -3.171875 2.859375 -3.171875 L 2.046875 -3.171875 L 2.046875 -5.421875 C 2.046875 -5.734375 2.0625 -5.796875 2.484375 -5.796875 L 3.609375 -5.796875 C 4.984375 -5.796875 5.203125 -5.296875 5.34375 -4.0625 L 5.59375 -4.0625 Z M 5.34375 -6.0625 "/>
</g>
<g id="glyph-0-18">
<path d="M 1.75 -3.359375 C 1.75 -3.625 1.53125 -3.84375 1.265625 -3.84375 C 1 -3.84375 0.78125 -3.625 0.78125 -3.359375 C 0.78125 -3.109375 1 -2.875 1.265625 -2.875 C 1.53125 -2.875 1.75 -3.109375 1.75 -3.359375 Z M 1.75 -0.484375 C 1.75 -0.734375 1.53125 -0.96875 1.265625 -0.96875 C 1 -0.96875 0.78125 -0.734375 0.78125 -0.484375 C 0.78125 -0.21875 1 0 1.265625 0 C 1.53125 0 1.75 -0.21875 1.75 -0.484375 Z M 1.75 -0.484375 "/>
</g>
<g id="glyph-0-19">
<path d="M 2.671875 -3.5625 L 2.671875 -3.84375 L 1.609375 -3.84375 L 1.609375 -4.859375 C 1.609375 -5.671875 2.046875 -6.0625 2.4375 -6.0625 C 2.53125 -6.0625 2.609375 -6.046875 2.703125 -6.015625 C 2.609375 -5.984375 2.46875 -5.875 2.46875 -5.640625 C 2.46875 -5.421875 2.640625 -5.25 2.859375 -5.25 C 3.109375 -5.25 3.265625 -5.421875 3.265625 -5.65625 C 3.265625 -6 2.921875 -6.296875 2.4375 -6.296875 C 1.734375 -6.296875 1.015625 -5.765625 1.015625 -4.875 L 1.015625 -3.84375 L 0.296875 -3.84375 L 0.296875 -3.5625 L 1.015625 -3.5625 L 1.015625 -0.6875 C 1.015625 -0.28125 0.90625 -0.28125 0.328125 -0.28125 L 0.328125 0 C 0.796875 -0.015625 0.90625 -0.03125 1.359375 -0.03125 C 1.71875 -0.03125 1.9375 -0.015625 2.5 0 L 2.5 -0.28125 L 2.3125 -0.28125 C 1.671875 -0.28125 1.640625 -0.375 1.640625 -0.703125 L 1.640625 -3.5625 Z M 2.671875 -3.5625 "/>
</g>
<g id="glyph-0-20">
<path d="M 1.625 -3.15625 C 1.5625 -3.28125 1.5625 -3.3125 1.5625 -3.34375 C 1.5625 -3.5625 1.875 -3.5625 2.0625 -3.5625 L 2.0625 -3.84375 C 1.625 -3.828125 1.453125 -3.8125 1.078125 -3.8125 C 1.046875 -3.8125 0.53125 -3.8125 0.1875 -3.84375 L 0.1875 -3.5625 C 0.59375 -3.5625 0.765625 -3.546875 0.859375 -3.3125 L 2.28125 0 L 2.046875 0.53125 C 1.859375 1 1.59375 1.609375 1.015625 1.609375 C 0.796875 1.609375 0.640625 1.484375 0.609375 1.46875 C 0.6875 1.46875 0.9375 1.390625 0.9375 1.09375 C 0.9375 0.859375 0.765625 0.71875 0.5625 0.71875 C 0.34375 0.71875 0.171875 0.859375 0.171875 1.09375 C 0.171875 1.5 0.546875 1.828125 1.015625 1.828125 C 1.59375 1.828125 1.984375 1.3125 2.1875 0.828125 L 3.8125 -2.953125 C 3.90625 -3.1875 4.0625 -3.546875 4.640625 -3.5625 L 4.640625 -3.84375 C 4.359375 -3.8125 4.078125 -3.8125 3.96875 -3.8125 C 3.71875 -3.8125 3.4375 -3.828125 3.1875 -3.84375 L 3.1875 -3.5625 C 3.59375 -3.546875 3.59375 -3.234375 3.59375 -3.1875 C 3.59375 -3.09375 3.5625 -3 3.53125 -2.9375 L 2.625 -0.8125 Z M 1.625 -3.15625 "/>
</g>
<g id="glyph-0-21">
<path d="M 1.609375 -3 C 1.921875 -3.515625 2.40625 -3.6875 2.78125 -3.6875 C 3.484375 -3.6875 4.015625 -2.890625 4.015625 -1.921875 C 4.015625 -0.90625 3.40625 -0.125 2.6875 -0.125 C 2.28125 -0.125 1.9375 -0.359375 1.734375 -0.671875 C 1.609375 -0.84375 1.609375 -0.859375 1.609375 -1.03125 Z M 1.609375 -0.421875 C 1.84375 -0.203125 2.15625 0.09375 2.734375 0.09375 C 3.796875 0.09375 4.78125 -0.765625 4.78125 -1.921875 C 4.78125 -3.046875 3.90625 -3.9375 2.859375 -3.9375 C 2.375 -3.9375 1.921875 -3.75 1.59375 -3.375 L 1.59375 -3.9375 L 0.265625 -3.84375 L 0.265625 -3.5625 C 0.90625 -3.5625 0.953125 -3.515625 0.953125 -3.125 L 0.953125 1.046875 C 0.953125 1.453125 0.859375 1.453125 0.265625 1.453125 L 0.265625 1.734375 C 0.6875 1.71875 0.859375 1.703125 1.28125 1.703125 C 1.71875 1.703125 1.828125 1.71875 2.296875 1.734375 L 2.296875 1.453125 C 1.71875 1.453125 1.609375 1.453125 1.609375 1.046875 Z M 1.609375 -0.421875 "/>
</g>
<g id="glyph-0-22">
<path d="M 4.8125 -3.3125 L 2.046875 -3.3125 L 2.046875 -5.390625 C 2.046875 -5.71875 2.0625 -5.8125 2.75 -5.8125 L 2.96875 -5.8125 L 2.96875 -6.09375 C 2.5625 -6.0625 2.0625 -6.0625 1.65625 -6.0625 C 1.234375 -6.0625 0.734375 -6.0625 0.34375 -6.09375 L 0.34375 -5.8125 L 0.546875 -5.8125 C 1.234375 -5.8125 1.25 -5.71875 1.25 -5.390625 L 1.25 -0.703125 C 1.25 -0.375 1.234375 -0.28125 0.546875 -0.28125 L 0.34375 -0.28125 L 0.34375 0 C 0.734375 -0.03125 1.234375 -0.03125 1.65625 -0.03125 C 2.0625 -0.03125 2.5625 -0.03125 2.96875 0 L 2.96875 -0.28125 L 2.75 -0.28125 C 2.0625 -0.28125 2.046875 -0.375 2.046875 -0.703125 L 2.046875 -3.03125 L 4.8125 -3.03125 L 4.8125 -0.703125 C 4.8125 -0.375 4.796875 -0.28125 4.109375 -0.28125 L 3.90625 -0.28125 L 3.90625 0 C 4.3125 -0.03125 4.8125 -0.03125 5.21875 -0.03125 C 5.625 -0.03125 6.125 -0.03125 6.53125 0 L 6.53125 -0.28125 L 6.328125 -0.28125 C 5.640625 -0.28125 5.625 -0.375 5.625 -0.703125 L 5.625 -5.390625 C 5.625 -5.71875 5.640625 -5.8125 6.328125 -5.8125 L 6.53125 -5.8125 L 6.53125 -6.09375 C 6.125 -6.0625 5.625 -6.0625 5.21875 -6.0625 C 4.8125 -6.0625 4.3125 -6.0625 3.90625 -6.09375 L 3.90625 -5.8125 L 4.109375 -5.8125 C 4.796875 -5.8125 4.8125 -5.71875 4.8125 -5.390625 Z M 4.8125 -3.3125 "/>
</g>
<g id="glyph-0-23">
<path d="M 3.25 -3.5 C 3.0625 -3.46875 2.875 -3.34375 2.875 -3.09375 C 2.875 -2.859375 3.0625 -2.671875 3.296875 -2.671875 C 3.53125 -2.671875 3.71875 -2.828125 3.71875 -3.109375 C 3.71875 -3.65625 3.09375 -4 2.296875 -4 C 1.15625 -4 0.296875 -3.046875 0.296875 -1.921875 C 0.296875 -0.78125 1.234375 0.09375 2.28125 0.09375 C 3.53125 0.09375 3.8125 -0.984375 3.8125 -1.0625 C 3.8125 -1.171875 3.71875 -1.171875 3.6875 -1.171875 C 3.59375 -1.171875 3.59375 -1.15625 3.53125 -1 C 3.328125 -0.390625 2.828125 -0.15625 2.375 -0.15625 C 1.796875 -0.15625 1.078125 -0.609375 1.078125 -1.9375 C 1.078125 -3.328125 1.78125 -3.75 2.3125 -3.75 C 2.4375 -3.75 2.921875 -3.734375 3.25 -3.5 Z M 3.25 -3.5 "/>
</g>
<g id="glyph-0-24">
<path d="M 1.625 -6.1875 L 0.3125 -6.09375 L 0.3125 -5.8125 C 0.921875 -5.8125 1 -5.75 1 -5.3125 L 1 -0.6875 C 1 -0.28125 0.90625 -0.28125 0.3125 -0.28125 L 0.3125 0 C 0.734375 -0.015625 0.90625 -0.03125 1.328125 -0.03125 C 1.75 -0.03125 1.875 -0.015625 2.34375 0 L 2.34375 -0.28125 C 1.75 -0.28125 1.65625 -0.28125 1.65625 -0.6875 L 1.65625 -2.3125 C 1.65625 -3.25 2.328125 -3.71875 2.890625 -3.71875 C 3.421875 -3.71875 3.53125 -3.28125 3.53125 -2.75 L 3.53125 -0.6875 C 3.53125 -0.28125 3.4375 -0.28125 2.84375 -0.28125 L 2.84375 0 C 3.265625 -0.015625 3.4375 -0.03125 3.859375 -0.03125 C 4.296875 -0.03125 4.40625 -0.015625 4.875 0 L 4.875 -0.28125 C 4.421875 -0.28125 4.203125 -0.28125 4.1875 -0.546875 L 4.1875 -2.265625 C 4.1875 -3 4.1875 -3.265625 3.9375 -3.578125 C 3.734375 -3.828125 3.40625 -3.9375 2.953125 -3.9375 C 2.359375 -3.9375 1.921875 -3.625 1.640625 -3.125 L 1.625 -3.125 Z M 1.625 -6.1875 "/>
</g>
<g id="glyph-0-25">
<path d="M 1.65625 -2.3125 C 1.65625 -3.28125 2.359375 -3.71875 2.890625 -3.71875 C 3.375 -3.71875 3.546875 -3.375 3.546875 -2.75 L 3.546875 -0.6875 C 3.546875 -0.28125 3.4375 -0.28125 2.859375 -0.28125 L 2.859375 0 C 3.28125 -0.015625 3.4375 -0.03125 3.875 -0.03125 C 4.296875 -0.03125 4.421875 -0.015625 4.890625 0 L 4.890625 -0.28125 C 4.296875 -0.28125 4.203125 -0.28125 4.203125 -0.6875 L 4.203125 -2.3125 C 4.203125 -3.28125 4.890625 -3.71875 5.4375 -3.71875 C 5.921875 -3.71875 6.078125 -3.375 6.078125 -2.75 L 6.078125 -0.6875 C 6.078125 -0.28125 5.984375 -0.28125 5.390625 -0.28125 L 5.390625 0 C 5.8125 -0.015625 5.984375 -0.03125 6.421875 -0.03125 C 6.84375 -0.03125 6.953125 -0.015625 7.4375 0 L 7.4375 -0.28125 C 6.984375 -0.28125 6.75 -0.28125 6.75 -0.546875 L 6.75 -2.265625 C 6.75 -3.046875 6.75 -3.296875 6.453125 -3.625 C 6.265625 -3.84375 5.90625 -3.9375 5.5 -3.9375 C 4.859375 -3.9375 4.421875 -3.5625 4.171875 -3.09375 C 4.0625 -3.625 3.703125 -3.9375 2.953125 -3.9375 C 2.234375 -3.9375 1.796875 -3.484375 1.609375 -3.0625 L 1.609375 -3.9375 L 0.3125 -3.84375 L 0.3125 -3.5625 C 0.921875 -3.5625 1 -3.5 1 -3.0625 L 1 -0.6875 C 1 -0.28125 0.90625 -0.28125 0.3125 -0.28125 L 0.3125 0 C 0.734375 -0.015625 0.90625 -0.03125 1.328125 -0.03125 C 1.75 -0.03125 1.875 -0.015625 2.34375 0 L 2.34375 -0.28125 C 1.75 -0.28125 1.65625 -0.28125 1.65625 -0.6875 Z M 1.65625 -2.3125 "/>
</g>
<g id="glyph-0-26">
<path d="M 4.078125 -6.1875 C 4 -6.34375 3.953125 -6.390625 3.8125 -6.390625 C 3.6875 -6.390625 3.625 -6.34375 3.5625 -6.21875 L 0.484375 -0.21875 C 0.453125 -0.140625 0.4375 -0.09375 0.4375 -0.078125 C 0.4375 0 0.5 0 0.640625 0 L 6.984375 0 C 7.125 0 7.1875 0 7.1875 -0.078125 C 7.1875 -0.09375 7.1875 -0.109375 7.140625 -0.203125 Z M 3.515625 -5.5 L 6 -0.6875 L 1.046875 -0.6875 Z M 3.515625 -5.5 "/>
</g>
<g id="glyph-0-27">
<path d="M 6.3125 -2.953125 C 6.4375 -2.953125 6.609375 -2.953125 6.609375 -3.140625 C 6.609375 -3.34375 6.421875 -3.34375 6.28125 -3.34375 L 0.84375 -3.34375 C 0.703125 -3.34375 0.515625 -3.34375 0.515625 -3.140625 C 0.515625 -2.953125 0.6875 -2.953125 0.796875 -2.953125 Z M 6.28125 -1.140625 C 6.421875 -1.140625 6.609375 -1.140625 6.609375 -1.328125 C 6.609375 -1.515625 6.4375 -1.515625 6.3125 -1.515625 L 0.796875 -1.515625 C 0.6875 -1.515625 0.515625 -1.515625 0.515625 -1.328125 C 0.515625 -1.140625 0.703125 -1.140625 0.84375 -1.140625 Z M 6.28125 -1.140625 "/>
</g>
<g id="glyph-0-28">
<path d="M 5.6875 -2.984375 C 5.875 -3.53125 6.25 -3.5625 6.4375 -3.5625 L 6.4375 -3.84375 C 6.078125 -3.8125 6.0625 -3.8125 5.765625 -3.8125 C 5.421875 -3.8125 5.296875 -3.8125 4.9375 -3.84375 L 4.9375 -3.5625 C 5.328125 -3.5625 5.453125 -3.3125 5.453125 -3.140625 C 5.453125 -3.046875 5.4375 -3 5.40625 -2.9375 L 4.578125 -0.703125 L 3.6875 -3.15625 C 3.640625 -3.265625 3.640625 -3.296875 3.640625 -3.3125 C 3.640625 -3.546875 3.921875 -3.5625 4.15625 -3.5625 L 4.15625 -3.84375 C 3.734375 -3.8125 3.375 -3.8125 3.234375 -3.8125 C 2.953125 -3.8125 2.6875 -3.8125 2.40625 -3.84375 L 2.40625 -3.5625 C 2.6875 -3.5625 2.875 -3.5625 2.96875 -3.4375 C 3.046875 -3.34375 3.171875 -2.984375 3.171875 -2.953125 C 3.171875 -2.9375 3.125 -2.84375 3.125 -2.828125 L 2.390625 -0.828125 L 1.546875 -3.140625 C 1.484375 -3.28125 1.484375 -3.296875 1.484375 -3.328125 C 1.484375 -3.5625 1.84375 -3.5625 2 -3.5625 L 2 -3.84375 C 1.59375 -3.828125 1.390625 -3.8125 1.03125 -3.8125 C 0.734375 -3.8125 0.484375 -3.8125 0.171875 -3.84375 L 0.171875 -3.5625 C 0.609375 -3.5625 0.71875 -3.546875 0.828125 -3.25 L 1.984375 -0.09375 C 2.03125 0.015625 2.046875 0.09375 2.1875 0.09375 C 2.3125 0.09375 2.359375 0 2.390625 -0.09375 L 3.296875 -2.59375 L 4.21875 -0.09375 C 4.25 0 4.296875 0.09375 4.421875 0.09375 C 4.5625 0.09375 4.578125 0.015625 4.625 -0.078125 Z M 5.6875 -2.984375 "/>
</g>
<g id="glyph-0-29">
<path d="M 1.625 -0.140625 C 1.625 0.15625 1.625 0.890625 0.953125 1.53125 C 0.90625 1.5625 0.90625 1.609375 0.90625 1.609375 C 0.90625 1.65625 0.96875 1.71875 1.03125 1.71875 C 1.125 1.71875 1.84375 1.03125 1.84375 -0.015625 C 1.84375 -0.640625 1.609375 -0.96875 1.265625 -0.96875 C 0.953125 -0.96875 0.78125 -0.71875 0.78125 -0.484375 C 0.78125 -0.234375 0.953125 0 1.265625 0 C 1.484375 0 1.625 -0.140625 1.625 -0.140625 Z M 1.625 -0.140625 "/>
</g>
<g id="glyph-0-30">
<path d="M 2.03125 -5.453125 C 2.03125 -5.75 2.046875 -5.8125 2.46875 -5.8125 L 3.625 -5.8125 C 4.5 -5.8125 4.859375 -5.125 4.859375 -4.578125 C 4.859375 -3.90625 4.265625 -3.28125 3.421875 -3.28125 L 2.03125 -3.28125 Z M 4.21875 -3.1875 C 5.09375 -3.359375 5.71875 -3.921875 5.71875 -4.578125 C 5.71875 -5.375 4.859375 -6.09375 3.6875 -6.09375 L 0.359375 -6.09375 L 0.359375 -5.8125 L 0.578125 -5.8125 C 1.265625 -5.8125 1.28125 -5.71875 1.28125 -5.390625 L 1.28125 -0.703125 C 1.28125 -0.375 1.265625 -0.28125 0.578125 -0.28125 L 0.359375 -0.28125 L 0.359375 0 L 3.9375 0 C 5.140625 0 5.984375 -0.796875 5.984375 -1.625 C 5.984375 -2.421875 5.203125 -3.078125 4.21875 -3.1875 Z M 2.46875 -0.28125 C 2.046875 -0.28125 2.03125 -0.34375 2.03125 -0.640625 L 2.03125 -3.0625 L 3.71875 -3.0625 C 4.75 -3.0625 5.09375 -2.1875 5.09375 -1.640625 C 5.09375 -0.953125 4.5625 -0.28125 3.640625 -0.28125 Z M 2.46875 -0.28125 "/>
</g>
<g id="glyph-1-0">
<path d="M 1.234375 -0.765625 C 1.421875 -0.984375 1.921875 -1.421875 2.296875 -1.75 C 2.96875 -2.3125 3.171875 -2.5 3.28125 -2.625 C 4.015625 -3.34375 4.25 -3.796875 4.25 -3.84375 C 4.25 -3.859375 4.25 -3.9375 4.140625 -3.9375 C 4.0625 -3.9375 4.046875 -3.921875 4 -3.84375 C 3.875 -3.671875 3.640625 -3.28125 3.34375 -3.28125 C 3.15625 -3.28125 3.046875 -3.375 2.84375 -3.609375 C 2.625 -3.84375 2.453125 -3.9375 2.21875 -3.9375 C 1.53125 -3.9375 1.109375 -3.125 1.109375 -2.90625 C 1.109375 -2.875 1.140625 -2.796875 1.234375 -2.796875 C 1.328125 -2.796875 1.34375 -2.859375 1.359375 -2.875 C 1.53125 -3.3125 2.046875 -3.3125 2.125 -3.3125 C 2.328125 -3.3125 2.546875 -3.25 2.734375 -3.171875 C 3.09375 -3.0625 3.25 -3.0625 3.375 -3.0625 C 3.109375 -2.75 2.609375 -2.3125 2.046875 -1.84375 C 1.59375 -1.453125 1.328125 -1.1875 1.125 -0.984375 C 0.796875 -0.640625 0.390625 -0.09375 0.390625 0 C 0.390625 0.0625 0.4375 0.09375 0.515625 0.09375 C 0.59375 0.09375 0.609375 0.0625 0.65625 0.015625 C 1 -0.53125 1.328125 -0.5625 1.421875 -0.5625 C 1.65625 -0.5625 1.78125 -0.421875 1.96875 -0.203125 C 2.171875 0.03125 2.375 0.09375 2.546875 0.09375 C 3.46875 0.09375 4 -1.046875 4 -1.28125 C 4 -1.359375 3.9375 -1.390625 3.875 -1.390625 C 3.796875 -1.390625 3.78125 -1.328125 3.75 -1.296875 C 3.515625 -0.640625 2.875 -0.53125 2.65625 -0.53125 C 2.484375 -0.53125 2.296875 -0.578125 2.03125 -0.671875 C 1.859375 -0.71875 1.640625 -0.78125 1.453125 -0.78125 C 1.359375 -0.78125 1.28125 -0.765625 1.234375 -0.765625 Z M 1.234375 -0.765625 "/>
</g>
<g id="glyph-1-1">
<path d="M 2.5625 -5.890625 C 2.59375 -6.015625 2.59375 -6.03125 2.59375 -6.0625 C 2.59375 -6.140625 2.546875 -6.1875 2.46875 -6.1875 C 2.34375 -6.1875 1.546875 -6.125 1.375 -6.109375 C 1.28125 -6.09375 1.1875 -6.078125 1.1875 -5.9375 C 1.1875 -5.8125 1.28125 -5.8125 1.421875 -5.8125 C 1.84375 -5.8125 1.84375 -5.75 1.84375 -5.671875 C 1.84375 -5.640625 1.84375 -5.625 1.796875 -5.453125 L 0.53125 -0.328125 C 0.484375 -0.203125 0.484375 -0.1875 0.484375 -0.15625 C 0.484375 -0.015625 0.609375 0.09375 0.765625 0.09375 C 1.0625 0.09375 1.125 -0.15625 1.171875 -0.34375 L 1.59375 -2.03125 C 2.1875 -1.96875 2.65625 -1.734375 2.65625 -1.28125 C 2.65625 -1.234375 2.65625 -1.203125 2.625 -1.0625 C 2.609375 -1.03125 2.59375 -0.90625 2.59375 -0.796875 C 2.59375 -0.28125 2.953125 0.09375 3.4375 0.09375 C 3.78125 0.09375 4 -0.109375 4.15625 -0.359375 C 4.375 -0.703125 4.5 -1.234375 4.5 -1.28125 C 4.5 -1.328125 4.484375 -1.390625 4.390625 -1.390625 C 4.296875 -1.390625 4.28125 -1.34375 4.234375 -1.171875 C 4.109375 -0.71875 3.890625 -0.125 3.46875 -0.125 C 3.21875 -0.125 3.1875 -0.359375 3.1875 -0.546875 C 3.1875 -0.78125 3.234375 -1.015625 3.25 -1.03125 C 3.265625 -1.078125 3.28125 -1.1875 3.28125 -1.296875 C 3.28125 -1.921875 2.625 -2.15625 1.9375 -2.234375 C 2.21875 -2.40625 2.40625 -2.59375 2.6875 -2.875 C 3.15625 -3.34375 3.53125 -3.71875 4 -3.71875 C 4.109375 -3.71875 4.21875 -3.6875 4.296875 -3.609375 C 3.890625 -3.578125 3.796875 -3.25 3.796875 -3.125 C 3.796875 -2.953125 3.921875 -2.796875 4.140625 -2.796875 C 4.34375 -2.796875 4.625 -2.96875 4.625 -3.359375 C 4.625 -3.65625 4.421875 -3.9375 4 -3.9375 C 3.453125 -3.9375 3.015625 -3.5 2.640625 -3.125 C 2.21875 -2.703125 2 -2.484375 1.671875 -2.34375 Z M 2.5625 -5.890625 "/>
</g>
<g id="glyph-1-2">
<path d="M 2.109375 -3.1875 C 2.15625 -3.34375 2.234375 -3.65625 2.234375 -3.6875 C 2.234375 -3.828125 2.125 -3.9375 1.96875 -3.9375 C 1.671875 -3.9375 1.609375 -3.6875 1.59375 -3.59375 L 0.3125 1.46875 C 0.28125 1.59375 0.28125 1.609375 0.28125 1.671875 C 0.28125 1.8125 0.390625 1.921875 0.546875 1.921875 C 0.84375 1.921875 0.90625 1.65625 0.9375 1.53125 L 1.359375 -0.171875 C 1.59375 0.015625 1.953125 0.09375 2.25 0.09375 C 2.5625 0.09375 3 0 3.46875 -0.546875 C 3.5625 -0.078125 3.984375 0.09375 4.296875 0.09375 C 4.546875 0.09375 4.765625 -0.015625 4.96875 -0.390625 C 5.125 -0.6875 5.25 -1.234375 5.25 -1.28125 C 5.25 -1.328125 5.234375 -1.390625 5.140625 -1.390625 C 5.03125 -1.390625 5.015625 -1.34375 4.984375 -1.171875 C 4.796875 -0.390625 4.59375 -0.125 4.3125 -0.125 C 4.09375 -0.125 4.046875 -0.34375 4.046875 -0.53125 C 4.046875 -0.703125 4.09375 -0.890625 4.171875 -1.203125 L 4.390625 -2.109375 L 4.59375 -2.90625 C 4.640625 -3.140625 4.75 -3.546875 4.75 -3.59375 C 4.75 -3.703125 4.671875 -3.84375 4.484375 -3.84375 C 4.1875 -3.84375 4.125 -3.609375 4.0625 -3.359375 L 3.875 -2.609375 C 3.796875 -2.25 3.53125 -1.21875 3.46875 -0.984375 C 3.46875 -0.953125 3.03125 -0.125 2.28125 -0.125 C 1.609375 -0.125 1.609375 -0.75 1.609375 -0.90625 C 1.609375 -1.109375 1.640625 -1.28125 1.734375 -1.6875 Z M 2.109375 -3.1875 "/>
</g>
<g id="glyph-1-3">
<path d="M 1.4375 -0.671875 C 1.359375 -0.359375 1.34375 -0.28125 0.671875 -0.28125 C 0.5 -0.28125 0.40625 -0.28125 0.40625 -0.109375 C 0.40625 0 0.484375 0 0.65625 0 L 3.65625 0 C 5.5625 0 7.34375 -1.890625 7.34375 -3.8125 C 7.34375 -5.046875 6.578125 -6.09375 5.1875 -6.09375 L 2.125 -6.09375 C 1.96875 -6.09375 1.859375 -6.09375 1.859375 -5.9375 C 1.859375 -5.8125 1.9375 -5.8125 2.125 -5.8125 C 2.15625 -5.8125 2.3125 -5.8125 2.46875 -5.796875 C 2.609375 -5.78125 2.671875 -5.765625 2.671875 -5.671875 C 2.671875 -5.625 2.671875 -5.578125 2.640625 -5.484375 Z M 3.40625 -5.46875 C 3.484375 -5.796875 3.5 -5.8125 3.875 -5.8125 L 4.875 -5.8125 C 5.8125 -5.8125 6.546875 -5.296875 6.546875 -4.15625 C 6.546875 -3.625 6.328125 -2.203125 5.625 -1.328125 C 5.21875 -0.8125 4.484375 -0.28125 3.5 -0.28125 L 2.421875 -0.28125 C 2.296875 -0.28125 2.28125 -0.28125 2.25 -0.28125 C 2.15625 -0.296875 2.125 -0.296875 2.125 -0.359375 C 2.125 -0.390625 2.125 -0.40625 2.171875 -0.578125 Z M 3.40625 -5.46875 "/>
</g>
<g id="glyph-1-4">
<path d="M 1.625 -0.140625 C 1.625 0.15625 1.625 0.890625 0.96875 1.515625 C 0.90625 1.5625 0.90625 1.578125 0.90625 1.609375 C 0.90625 1.671875 0.96875 1.71875 1.03125 1.71875 C 1.125 1.71875 1.84375 1.03125 1.84375 -0.015625 C 1.84375 -0.578125 1.65625 -0.96875 1.265625 -0.96875 C 0.96875 -0.96875 0.78125 -0.734375 0.78125 -0.484375 C 0.78125 -0.234375 0.96875 0 1.265625 0 C 1.40625 0 1.53125 -0.046875 1.625 -0.140625 Z M 1.625 -0.140625 "/>
</g>
<g id="glyph-1-5">
<path d="M 2.75 -2.015625 C 2.90625 -2.015625 3.046875 -2.015625 3.046875 -2.171875 C 3.046875 -2.296875 2.9375 -2.296875 2.78125 -2.296875 L 1.296875 -2.296875 C 1.53125 -3.078125 2.046875 -3.5625 2.859375 -3.5625 L 3.140625 -3.5625 C 3.28125 -3.5625 3.4375 -3.5625 3.4375 -3.71875 C 3.4375 -3.84375 3.328125 -3.84375 3.15625 -3.84375 L 2.828125 -3.84375 C 1.71875 -3.84375 0.4375 -3.03125 0.4375 -1.609375 C 0.4375 -0.484375 1.234375 0.09375 2.109375 0.09375 C 2.703125 0.09375 3.3125 -0.265625 3.3125 -0.375 C 3.3125 -0.453125 3.28125 -0.515625 3.21875 -0.515625 C 3.171875 -0.515625 3.171875 -0.515625 3.109375 -0.46875 C 2.8125 -0.28125 2.46875 -0.125 2.125 -0.125 C 1.59375 -0.125 1.125 -0.515625 1.125 -1.28125 C 1.125 -1.421875 1.15625 -1.703125 1.21875 -2.015625 Z M 2.75 -2.015625 "/>
</g>
<g id="glyph-2-0">
<path d="M 2.140625 -3.78125 C 2.140625 -3.953125 2.109375 -3.953125 1.9375 -3.953125 C 1.546875 -3.578125 0.9375 -3.578125 0.71875 -3.578125 L 0.71875 -3.34375 C 0.875 -3.34375 1.265625 -3.34375 1.625 -3.515625 L 1.625 -0.5 C 1.625 -0.3125 1.625 -0.234375 1.015625 -0.234375 L 0.75 -0.234375 L 0.75 0 C 1.078125 -0.03125 1.546875 -0.03125 1.875 -0.03125 C 2.21875 -0.03125 2.671875 -0.03125 3 0 L 3 -0.234375 L 2.75 -0.234375 C 2.140625 -0.234375 2.140625 -0.3125 2.140625 -0.5 Z M 2.140625 -3.78125 "/>
</g>
<g id="glyph-2-1">
<path d="M 3.203125 -1.109375 L 2.984375 -1.109375 C 2.96875 -1.03125 2.90625 -0.640625 2.828125 -0.578125 C 2.78125 -0.53125 2.296875 -0.53125 2.21875 -0.53125 L 1.09375 -0.53125 L 1.859375 -1.15625 C 2.0625 -1.3125 2.59375 -1.703125 2.78125 -1.875 C 2.953125 -2.046875 3.203125 -2.359375 3.203125 -2.78125 C 3.203125 -3.53125 2.53125 -3.953125 1.734375 -3.953125 C 0.96875 -3.953125 0.421875 -3.453125 0.421875 -2.890625 C 0.421875 -2.59375 0.6875 -2.546875 0.75 -2.546875 C 0.90625 -2.546875 1.078125 -2.65625 1.078125 -2.875 C 1.078125 -3 1 -3.203125 0.734375 -3.203125 C 0.875 -3.5 1.234375 -3.734375 1.640625 -3.734375 C 2.265625 -3.734375 2.59375 -3.265625 2.59375 -2.78125 C 2.59375 -2.359375 2.328125 -1.921875 1.90625 -1.546875 L 0.5 -0.25 C 0.4375 -0.1875 0.421875 -0.1875 0.421875 0 L 3.015625 0 Z M 3.203125 -1.109375 "/>
</g>
<g id="glyph-2-2">
<path d="M 1.75 -1.96875 C 2.25 -1.96875 2.59375 -1.640625 2.59375 -1.03125 C 2.59375 -0.375 2.203125 -0.09375 1.765625 -0.09375 C 1.609375 -0.09375 1 -0.125 0.71875 -0.46875 C 0.953125 -0.5 1.046875 -0.65625 1.046875 -0.8125 C 1.046875 -1.015625 0.90625 -1.15625 0.71875 -1.15625 C 0.546875 -1.15625 0.375 -1.046875 0.375 -0.796875 C 0.375 -0.203125 1.03125 0.125 1.78125 0.125 C 2.671875 0.125 3.25 -0.4375 3.25 -1.03125 C 3.25 -1.46875 2.921875 -1.921875 2.21875 -2.09375 C 2.6875 -2.25 3.0625 -2.640625 3.0625 -3.125 C 3.0625 -3.609375 2.5 -3.953125 1.796875 -3.953125 C 1.09375 -3.953125 0.5625 -3.640625 0.5625 -3.15625 C 0.5625 -2.890625 0.765625 -2.828125 0.875 -2.828125 C 1.03125 -2.828125 1.203125 -2.921875 1.203125 -3.140625 C 1.203125 -3.328125 1.0625 -3.421875 0.90625 -3.453125 C 1.1875 -3.765625 1.71875 -3.765625 1.78125 -3.765625 C 2.078125 -3.765625 2.46875 -3.625 2.46875 -3.125 C 2.46875 -2.796875 2.28125 -2.21875 1.6875 -2.1875 C 1.578125 -2.1875 1.421875 -2.171875 1.359375 -2.171875 C 1.296875 -2.171875 1.234375 -2.15625 1.234375 -2.078125 C 1.234375 -1.96875 1.296875 -1.96875 1.40625 -1.96875 Z M 1.75 -1.96875 "/>
</g>
<g id="glyph-2-3">
<path d="M 3.28125 -1.90625 C 3.28125 -2.328125 3.28125 -3.953125 1.8125 -3.953125 C 0.359375 -3.953125 0.359375 -2.328125 0.359375 -1.90625 C 0.359375 -1.46875 0.359375 0.125 1.8125 0.125 C 3.28125 0.125 3.28125 -1.46875 3.28125 -1.90625 Z M 1.8125 -0.0625 C 1.5625 -0.0625 1.15625 -0.1875 1.015625 -0.671875 C 0.921875 -1.03125 0.921875 -1.609375 0.921875 -1.96875 C 0.921875 -2.375 0.921875 -2.828125 1 -3.15625 C 1.15625 -3.6875 1.609375 -3.765625 1.8125 -3.765625 C 2.09375 -3.765625 2.484375 -3.640625 2.609375 -3.1875 C 2.703125 -2.875 2.703125 -2.4375 2.703125 -1.96875 C 2.703125 -1.59375 2.703125 -1 2.609375 -0.65625 C 2.4375 -0.140625 2.015625 -0.0625 1.8125 -0.0625 Z M 1.8125 -0.0625 "/>
</g>
<g id="glyph-3-0">
<path d="M 5 -2.046875 C 5.15625 -2.046875 5.328125 -2.046875 5.328125 -2.234375 C 5.328125 -2.421875 5.171875 -2.421875 5 -2.421875 L 1.15625 -2.421875 C 1.25 -3.53125 2.21875 -4.546875 3.59375 -4.546875 L 5 -4.546875 C 5.15625 -4.546875 5.328125 -4.546875 5.328125 -4.734375 C 5.328125 -4.921875 5.171875 -4.921875 5 -4.921875 L 3.5625 -4.921875 C 2 -4.921875 0.765625 -3.6875 0.765625 -2.234375 C 0.765625 -0.75 2.015625 0.453125 3.5625 0.453125 L 5 0.453125 C 5.15625 0.453125 5.328125 0.453125 5.328125 0.265625 C 5.328125 0.078125 5.171875 0.078125 5 0.078125 L 3.59375 0.078125 C 2.203125 0.078125 1.25 -0.9375 1.15625 -2.046875 Z M 5 -2.046875 "/>
</g>
<g id="glyph-3-1">
<path d="M 1.75 -5.6875 C 1.671875 -3.8125 0.90625 -1.53125 0.375 -0.140625 C 0.28125 0.109375 0.28125 0.125 0.28125 0.140625 C 0.28125 0.203125 0.34375 0.203125 0.375 0.203125 C 0.484375 0.203125 0.796875 0.078125 1 -0.140625 C 1.0625 -0.21875 1.78125 -2.046875 2.25 -4.03125 C 2.5 -5.109375 2.546875 -6.109375 2.546875 -6.15625 C 2.546875 -6.25 2.546875 -6.296875 2.4375 -6.296875 C 2.34375 -6.296875 2.078125 -6.15625 1.90625 -6.0625 C 1.453125 -5.828125 1.125 -5.671875 1.125 -5.515625 C 1.125 -5.46875 1.171875 -5.453125 1.21875 -5.453125 C 1.3125 -5.453125 1.578125 -5.59375 1.75 -5.6875 Z M 6.671875 -1.140625 C 6.671875 -1.203125 6.609375 -1.21875 6.5625 -1.21875 C 6.546875 -1.21875 6.4375 -1.21875 6.265625 -1.109375 C 6.140625 -1.03125 6.125 -0.984375 6.09375 -0.859375 C 5.859375 -0.203125 5.03125 -0.203125 4.984375 -0.203125 C 4.421875 -0.203125 3.859375 -1.15625 3.671875 -1.46875 C 3.125 -2.375 2.75 -3.40625 2.75 -3.8125 C 2.75 -3.953125 2.78125 -4.0625 3.078125 -4.359375 C 3.75 -5 5.34375 -5.890625 5.765625 -5.890625 C 6.0625 -5.890625 6.125 -5.65625 6.125 -5.515625 C 6.125 -5.46875 6.109375 -5.40625 6.109375 -5.375 C 6.109375 -5.3125 6.15625 -5.28125 6.1875 -5.28125 C 6.203125 -5.28125 6.6875 -5.3125 6.6875 -5.765625 C 6.6875 -6.09375 6.453125 -6.296875 6.171875 -6.296875 C 5.40625 -6.296875 3.484375 -5.203125 2.578125 -4.296875 C 2.46875 -4.171875 2.1875 -3.90625 2.1875 -3.578125 C 2.1875 -2.734375 3.53125 0.203125 4.5625 0.203125 C 4.703125 0.203125 5.296875 0.171875 5.890625 -0.1875 C 6.578125 -0.609375 6.671875 -1.09375 6.671875 -1.140625 Z M 6.671875 -1.140625 "/>
</g>
<g id="glyph-3-2">
<path d="M 7.5625 -5.75 C 7.5625 -6.046875 7.234375 -6.09375 6.859375 -6.09375 L 3.28125 -6.09375 C 3.125 -6.09375 2.421875 -6.171875 1.8125 -5.5625 C 1.765625 -5.5 1.703125 -5.421875 1.703125 -5.34375 C 1.703125 -5.3125 1.734375 -5.296875 1.78125 -5.296875 C 2.03125 -5.296875 2.3125 -5.5 2.40625 -5.578125 C 2.515625 -5.59375 2.78125 -5.59375 3.0625 -5.59375 L 3.8125 -5.59375 C 3.59375 -4.453125 3.21875 -3.203125 2.703125 -1.984375 C 2.4375 -1.390625 2 -0.40625 1.84375 -0.21875 C 1.21875 -0.21875 1.046875 -0.625 0.9375 -0.8125 C 0.921875 -0.84375 0.890625 -0.859375 0.859375 -0.859375 C 0.65625 -0.859375 0.15625 -0.59375 0.15625 -0.421875 C 0.15625 -0.390625 0.203125 -0.3125 0.21875 -0.28125 C 0.390625 0.078125 0.796875 0.28125 1.203125 0.28125 C 1.734375 0.28125 2.1875 -0.03125 2.546875 -0.4375 C 2.734375 -0.640625 3.46875 -2.203125 3.625 -2.703125 L 5.390625 -2.703125 C 5.390625 -2.609375 5.40625 -2.625 5.484375 -2.625 C 5.703125 -2.625 6.078125 -2.859375 6.140625 -3 C 6.171875 -3.046875 6.1875 -3.109375 6.1875 -3.15625 C 6.1875 -3.1875 6.1875 -3.203125 6.046875 -3.203125 L 3.8125 -3.203125 C 4 -3.671875 4.421875 -5.171875 4.515625 -5.59375 L 6.296875 -5.59375 C 6.453125 -5.59375 6.796875 -5.578125 6.796875 -5.359375 C 6.796875 -5.28125 6.75 -5.234375 6.875 -5.234375 C 6.984375 -5.234375 7.5625 -5.453125 7.5625 -5.75 Z M 7.5625 -5.75 "/>
</g>
<g id="glyph-3-3">
<path d="M 2.609375 -5.140625 C 2.609375 -5.671875 2.609375 -5.875 2.90625 -6.140625 C 3.078125 -6.296875 3.34375 -6.4375 3.75 -6.46875 C 3.859375 -6.484375 3.921875 -6.484375 3.921875 -6.578125 C 3.921875 -6.6875 3.84375 -6.6875 3.734375 -6.6875 C 2.859375 -6.6875 1.984375 -6.265625 1.96875 -5.5625 L 1.96875 -3.28125 C 1.96875 -2.984375 1.703125 -2.390625 0.765625 -2.34375 C 0.6875 -2.34375 0.65625 -2.28125 0.65625 -2.234375 C 0.65625 -2.125 0.734375 -2.109375 0.8125 -2.109375 C 1.4375 -2.09375 1.859375 -1.734375 1.953125 -1.3125 C 1.96875 -1.234375 1.96875 -1.21875 1.96875 -0.90625 L 1.96875 0.859375 C 1.96875 1.21875 1.96875 1.65625 2.59375 1.96875 C 3.0625 2.21875 3.625 2.234375 3.734375 2.234375 C 3.84375 2.234375 3.921875 2.234375 3.921875 2.109375 C 3.921875 2.015625 3.84375 2 3.796875 2 C 2.96875 1.953125 2.6875 1.5 2.625 1.265625 C 2.609375 1.15625 2.609375 1.140625 2.609375 0.828125 L 2.609375 -0.515625 C 2.609375 -0.78125 2.609375 -1.21875 2.59375 -1.296875 C 2.5 -1.796875 2.0625 -2.09375 1.5625 -2.234375 C 2.609375 -2.53125 2.609375 -3.140625 2.609375 -3.53125 Z M 2.609375 -5.140625 "/>
</g>
<g id="glyph-3-4">
<path d="M 6.171875 -5.421875 C 6.25 -5.453125 6.359375 -5.5 6.359375 -5.625 C 6.359375 -5.734375 6.265625 -5.8125 6.171875 -5.8125 C 6.140625 -5.8125 6.109375 -5.8125 6 -5.765625 L 0.953125 -3.34375 C 0.828125 -3.28125 0.765625 -3.234375 0.765625 -3.125 C 0.765625 -3 0.859375 -2.953125 0.953125 -2.921875 L 5.984375 -0.5 C 6.109375 -0.4375 6.140625 -0.4375 6.15625 -0.4375 C 6.296875 -0.4375 6.359375 -0.5625 6.359375 -0.625 C 6.359375 -0.734375 6.28125 -0.78125 6.1875 -0.828125 L 1.40625 -3.125 Z M 6.015625 1.375 C 6.171875 1.375 6.359375 1.375 6.359375 1.1875 C 6.359375 0.984375 6.15625 0.984375 6.015625 0.984375 L 1.09375 0.984375 C 0.96875 0.984375 0.765625 0.984375 0.765625 1.1875 C 0.765625 1.375 0.953125 1.375 1.09375 1.375 Z M 6.015625 1.375 "/>
</g>
<g id="glyph-3-5">
<path d="M 2.609375 -1.171875 C 2.609375 -1.484375 2.875 -2.0625 3.8125 -2.109375 C 3.890625 -2.125 3.921875 -2.171875 3.921875 -2.234375 C 3.921875 -2.34375 3.84375 -2.34375 3.765625 -2.34375 C 3.140625 -2.375 2.71875 -2.734375 2.625 -3.15625 C 2.609375 -3.234375 2.609375 -3.25 2.609375 -3.5625 L 2.609375 -5.328125 C 2.609375 -5.671875 2.609375 -6.109375 1.984375 -6.4375 C 1.5 -6.671875 0.953125 -6.6875 0.84375 -6.6875 C 0.734375 -6.6875 0.65625 -6.6875 0.65625 -6.578125 C 0.65625 -6.484375 0.734375 -6.46875 0.78125 -6.46875 C 1.609375 -6.421875 1.875 -5.96875 1.9375 -5.734375 C 1.96875 -5.625 1.96875 -5.609375 1.96875 -5.28125 L 1.96875 -3.9375 C 1.96875 -3.6875 1.96875 -3.25 1.984375 -3.171875 C 2.0625 -2.671875 2.5 -2.375 3 -2.234375 C 1.96875 -1.9375 1.96875 -1.328125 1.96875 -0.921875 L 1.96875 0.671875 C 1.96875 1.21875 1.96875 1.421875 1.671875 1.6875 C 1.5 1.84375 1.234375 1.984375 0.828125 2 C 0.71875 2.015625 0.65625 2.015625 0.65625 2.109375 C 0.65625 2.234375 0.734375 2.234375 0.84375 2.234375 C 1.71875 2.234375 2.59375 1.8125 2.609375 1.109375 Z M 2.609375 -1.171875 "/>
</g>
</g>
</defs>
<path fill="none" stroke-width="0.3985" stroke-linecap="butt" stroke-linejoin="miter" stroke="rgb(39.99939%, 39.99939%, 39.99939%)" stroke-opacity="1" stroke-miterlimit="10" d="M 0.000766912 -0.000932522 L 90.907398 -0.000932522 " transform="matrix(0.994839, 0, 0, -0.994839, 16.589081, 92.440479)"/>
<path fill-rule="nonzero" fill="rgb(39.99939%, 39.99939%, 39.99939%)" fill-opacity="1" stroke-width="0.3985" stroke-linecap="butt" stroke-linejoin="miter" stroke="rgb(39.99939%, 39.99939%, 39.99939%)" stroke-opacity="1" stroke-miterlimit="10" d="M 4.64752 -0.000932522 C 4.078175 0.140422 1.569133 0.925725 -0.00147179 1.777778 L -0.00147179 -1.779643 C 1.569133 -0.923663 4.078175 -0.13836 4.64752 -0.000932522 Z M 4.64752 -0.000932522 " transform="matrix(0.994839, 0, 0, -0.994839, 107.028808, 92.440479)"/>
<path fill="none" stroke-width="0.3985" stroke-linecap="butt" stroke-linejoin="miter" stroke="rgb(39.99939%, 39.99939%, 39.99939%)" stroke-opacity="1" stroke-miterlimit="10" d="M 0.000766912 -0.000932522 L 0.000766912 76.734913 " transform="matrix(0.994839, 0, 0, -0.994839, 16.589081, 92.440479)"/>
<path fill-rule="nonzero" fill="rgb(39.99939%, 39.99939%, 39.99939%)" fill-opacity="1" stroke-width="0.3985" stroke-linecap="butt" stroke-linejoin="miter" stroke="rgb(39.99939%, 39.99939%, 39.99939%)" stroke-opacity="1" stroke-miterlimit="10" d="M 4.648445 -0.000766912 C 4.0791 0.140588 1.570058 0.92589 -0.000547 1.777944 L -0.000547 -1.779477 C 1.570058 -0.923497 4.0791 -0.138195 4.648445 -0.000766912 Z M 4.648445 -0.000766912 " transform="matrix(0, -0.994839, -0.994839, 0, 16.589081, 16.101018)"/>
<path fill="none" stroke-width="0.79701" stroke-linecap="butt" stroke-linejoin="miter" stroke="rgb(59.999084%, 59.999084%, 59.999084%)" stroke-opacity="1" stroke-miterlimit="10" d="M 90.711073 41.101807 C 90.711073 59.890172 71.671411 75.11719 48.190862 75.11719 C 24.706387 75.11719 5.670652 59.890172 5.670652 41.101807 C 5.670652 22.317368 24.706387 7.086424 48.190862 7.086424 C 71.671411 7.086424 90.711073 22.317368 90.711073 41.101807 Z M 90.711073 41.101807 " transform="matrix(0.994839, 0, 0, -0.994839, 16.589081, 92.440479)"/>
<g fill="rgb(44.999695%, 44.999695%, 44.999695%)" fill-opacity="1">
<use xlink:href="#glyph-0-0" x="6.12337" y="11.480447"/>
<use xlink:href="#glyph-0-1" x="9.73959" y="11.480447"/>
<use xlink:href="#glyph-0-2" x="12.286287" y="11.480447"/>
<use xlink:href="#glyph-0-3" x="17.37968" y="11.480447"/>
<use xlink:href="#glyph-0-4" x="21.963734" y="11.480447"/>
<use xlink:href="#glyph-0-5" x="24.51043" y="11.480447"/>
</g>
<g fill="rgb(44.999695%, 44.999695%, 44.999695%)" fill-opacity="1">
<use xlink:href="#glyph-0-6" x="31.648317" y="11.480447"/>
</g>
<g fill="rgb(44.999695%, 44.999695%, 44.999695%)" fill-opacity="1">
<use xlink:href="#glyph-0-1" x="36.73279" y="11.480447"/>
<use xlink:href="#glyph-0-0" x="39.279486" y="11.480447"/>
<use xlink:href="#glyph-0-7" x="42.895706" y="11.480447"/>
<use xlink:href="#glyph-0-8" x="46.461082" y="11.480447"/>
<use xlink:href="#glyph-0-1" x="50.046973" y="11.480447"/>
<use xlink:href="#glyph-0-9" x="52.59367" y="11.480447"/>
<use xlink:href="#glyph-0-10" x="57.687063" y="11.480447"/>
<use xlink:href="#glyph-0-7" x="62.780456" y="11.480447"/>
<use xlink:href="#glyph-0-1" x="66.345831" y="11.480447"/>
<use xlink:href="#glyph-0-11" x="68.892528" y="11.480447"/>
<use xlink:href="#glyph-0-2" x="73.476582" y="11.480447"/>
</g>
<g fill="rgb(44.999695%, 44.999695%, 44.999695%)" fill-opacity="1">
<use xlink:href="#glyph-0-11" x="81.629579" y="11.480447"/>
</g>
<g fill="rgb(44.999695%, 44.999695%, 44.999695%)" fill-opacity="1">
<use xlink:href="#glyph-0-12" x="85.954949" y="11.480447"/>
</g>
<g fill="rgb(44.999695%, 44.999695%, 44.999695%)" fill-opacity="1">
<use xlink:href="#glyph-0-5" x="90.543463" y="11.480447"/>
<use xlink:href="#glyph-0-8" x="94.621745" y="11.480447"/>
</g>
<g fill="rgb(44.999695%, 44.999695%, 44.999695%)" fill-opacity="1">
<use xlink:href="#glyph-0-13" x="101.258321" y="11.480447"/>
<use xlink:href="#glyph-0-4" x="105.842375" y="11.480447"/>
<use xlink:href="#glyph-0-4" x="108.389071" y="11.480447"/>
</g>
<g fill="rgb(44.999695%, 44.999695%, 44.999695%)" fill-opacity="1">
<use xlink:href="#glyph-0-7" x="113.995372" y="11.480447"/>
<use xlink:href="#glyph-0-13" x="117.560747" y="11.480447"/>
<use xlink:href="#glyph-0-0" x="122.144801" y="11.480447"/>
<use xlink:href="#glyph-0-14" x="125.761021" y="11.480447"/>
<use xlink:href="#glyph-0-0" x="130.599298" y="11.480447"/>
</g>
<path fill-rule="nonzero" fill="rgb(54.998779%, 54.998779%, 54.998779%)" fill-opacity="1" d="M 41.390625 61.417969 C 41.390625 60.179688 40.386719 59.175781 39.148438 59.175781 C 37.910156 59.175781 36.90625 60.179688 36.90625 61.417969 C 36.90625 62.660156 37.910156 63.664062 39.148438 63.664062 C 40.386719 63.664062 41.390625 62.660156 41.390625 61.417969 Z M 41.390625 61.417969 "/>
<path fill-rule="nonzero" fill="rgb(54.998779%, 54.998779%, 54.998779%)" fill-opacity="1" d="M 52.671875 38.859375 C 52.671875 37.621094 51.667969 36.617188 50.429688 36.617188 C 49.191406 36.617188 48.1875 37.621094 48.1875 38.859375 C 48.1875 40.097656 49.191406 41.101562 50.429688 41.101562 C 51.667969 41.101562 52.671875 40.097656 52.671875 38.859375 Z M 52.671875 38.859375 "/>
<path fill-rule="nonzero" fill="rgb(54.998779%, 54.998779%, 54.998779%)" fill-opacity="1" d="M 63.953125 69.878906 C 63.953125 68.640625 62.949219 67.636719 61.710938 67.636719 C 60.472656 67.636719 59.46875 68.640625 59.46875 69.878906 C 59.46875 71.117188 60.472656 72.121094 61.710938 72.121094 C 62.949219 72.121094 63.953125 71.117188 63.953125 69.878906 Z M 63.953125 69.878906 "/>
<path fill-rule="nonzero" fill="rgb(54.998779%, 54.998779%, 54.998779%)" fill-opacity="1" d="M 75.234375 50.140625 C 75.234375 48.902344 74.230469 47.898438 72.988281 47.898438 C 71.75 47.898438 70.746094 48.902344 70.746094 50.140625 C 70.746094 51.378906 71.75 52.382812 72.988281 52.382812 C 74.230469 52.382812 75.234375 51.378906 75.234375 50.140625 Z M 75.234375 50.140625 "/>
<path fill-rule="nonzero" fill="rgb(54.998779%, 54.998779%, 54.998779%)" fill-opacity="1" d="M 86.511719 36.039062 C 86.511719 34.800781 85.507812 33.796875 84.269531 33.796875 C 83.03125 33.796875 82.027344 34.800781 82.027344 36.039062 C 82.027344 37.277344 83.03125 38.28125 84.269531 38.28125 C 85.507812 38.28125 86.511719 37.277344 86.511719 36.039062 Z M 86.511719 36.039062 "/>
<path fill-rule="nonzero" fill="rgb(54.998779%, 54.998779%, 54.998779%)" fill-opacity="1" d="M 94.972656 61.417969 C 94.972656 60.179688 93.96875 59.175781 92.730469 59.175781 C 91.492188 59.175781 90.488281 60.179688 90.488281 61.417969 C 90.488281 62.660156 91.492188 63.664062 92.730469 63.664062 C 93.96875 63.664062 94.972656 62.660156 94.972656 61.417969 Z M 94.972656 61.417969 "/>
<path fill-rule="nonzero" fill="rgb(54.998779%, 54.998779%, 54.998779%)" fill-opacity="1" d="M 49.851562 52.960938 C 49.851562 51.722656 48.847656 50.71875 47.609375 50.71875 C 46.371094 50.71875 45.367188 51.722656 45.367188 52.960938 C 45.367188 54.199219 46.371094 55.203125 47.609375 55.203125 C 48.847656 55.203125 49.851562 54.199219 49.851562 52.960938 Z M 49.851562 52.960938 "/>
<path fill-rule="nonzero" fill="rgb(54.998779%, 54.998779%, 54.998779%)" fill-opacity="1" d="M 80.871094 67.058594 C 80.871094 65.820312 79.867188 64.816406 78.628906 64.816406 C 77.390625 64.816406 76.386719 65.820312 76.386719 67.058594 C 76.386719 68.300781 77.390625 69.304688 78.628906 69.304688 C 79.867188 69.304688 80.871094 68.300781 80.871094 67.058594 Z M 80.871094 67.058594 "/>
<g fill="rgb(0%, 0%, 0%)" fill-opacity="1">
<use xlink:href="#glyph-0-15" x="30.543693" y="104.977445"/>
<use xlink:href="#glyph-0-13" x="34.109069" y="104.977445"/>
<use xlink:href="#glyph-0-16" x="38.693122" y="104.977445"/>
</g>
<g fill="rgb(0%, 0%, 0%)" fill-opacity="1">
<use xlink:href="#glyph-0-17" x="45.318102" y="104.977445"/>
<use xlink:href="#glyph-0-4" x="51.301723" y="104.977445"/>
<use xlink:href="#glyph-0-13" x="53.84842" y="104.977445"/>
<use xlink:href="#glyph-0-7" x="58.432474" y="104.977445"/>
</g>
<g fill="rgb(0%, 0%, 0%)" fill-opacity="1">
<use xlink:href="#glyph-0-7" x="65.048533" y="104.977445"/>
<use xlink:href="#glyph-0-13" x="68.613908" y="104.977445"/>
<use xlink:href="#glyph-0-0" x="73.197962" y="104.977445"/>
<use xlink:href="#glyph-0-14" x="76.814182" y="104.977445"/>
</g>
<g fill="rgb(0%, 0%, 0%)" fill-opacity="1">
<use xlink:href="#glyph-0-0" x="84.712063" y="104.977445"/>
<use xlink:href="#glyph-0-5" x="88.328283" y="104.977445"/>
<use xlink:href="#glyph-0-7" x="92.406566" y="104.977445"/>
<use xlink:href="#glyph-0-18" x="95.971941" y="104.977445"/>
</g>
<g fill="rgb(0%, 0%, 0%)" fill-opacity="1">
<use xlink:href="#glyph-0-9" x="18.220617" y="115.87989"/>
</g>
<g fill="rgb(0%, 0%, 0%)" fill-opacity="1">
<use xlink:href="#glyph-0-5" x="23.572694" y="115.87989"/>
<use xlink:href="#glyph-0-4" x="27.650977" y="115.87989"/>
<use xlink:href="#glyph-0-1" x="30.197673" y="115.87989"/>
<use xlink:href="#glyph-0-5" x="32.74437" y="115.87989"/>
</g>
<g fill="rgb(0%, 0%, 0%)" fill-opacity="1">
<use xlink:href="#glyph-0-19" x="36.813733" y="115.87989"/>
</g>
<g fill="rgb(0%, 0%, 0%)" fill-opacity="1">
<use xlink:href="#glyph-0-11" x="42.674257" y="115.87989"/>
</g>
<g fill="rgb(0%, 0%, 0%)" fill-opacity="1">
<use xlink:href="#glyph-0-12" x="47.008547" y="115.87989"/>
</g>
<g fill="rgb(0%, 0%, 0%)" fill-opacity="1">
<use xlink:href="#glyph-0-5" x="51.588141" y="115.87989"/>
<use xlink:href="#glyph-0-8" x="55.666423" y="115.87989"/>
</g>
<g fill="rgb(0%, 0%, 0%)" fill-opacity="1">
<use xlink:href="#glyph-0-5" x="62.311919" y="115.87989"/>
<use xlink:href="#glyph-0-12" x="66.390201" y="115.87989"/>
</g>
<g fill="rgb(0%, 0%, 0%)" fill-opacity="1">
<use xlink:href="#glyph-0-5" x="70.969795" y="115.87989"/>
<use xlink:href="#glyph-0-8" x="75.048078" y="115.87989"/>
<use xlink:href="#glyph-0-20" x="78.633969" y="115.87989"/>
</g>
<g fill="rgb(0%, 0%, 0%)" fill-opacity="1">
<use xlink:href="#glyph-0-7" x="86.531851" y="115.87989"/>
<use xlink:href="#glyph-0-13" x="90.097226" y="115.87989"/>
<use xlink:href="#glyph-0-0" x="94.68128" y="115.87989"/>
<use xlink:href="#glyph-0-14" x="98.2975" y="115.87989"/>
</g>
<g fill="rgb(0%, 0%, 0%)" fill-opacity="1">
<use xlink:href="#glyph-1-0" x="106.186461" y="115.87989"/>
</g>
<path fill="none" stroke-width="0.3985" stroke-linecap="butt" stroke-linejoin="miter" stroke="rgb(39.99939%, 39.99939%, 39.99939%)" stroke-opacity="1" stroke-miterlimit="10" d="M 153.071954 -0.000932522 L 249.652396 -0.000932522 " transform="matrix(0.994839, 0, 0, -0.994839, 16.589081, 92.440479)"/>
<path fill-rule="nonzero" fill="rgb(39.99939%, 39.99939%, 39.99939%)" fill-opacity="1" stroke-width="0.3985" stroke-linecap="butt" stroke-linejoin="miter" stroke="rgb(39.99939%, 39.99939%, 39.99939%)" stroke-opacity="1" stroke-miterlimit="10" d="M 4.650218 -0.000932522 C 4.076947 0.140422 1.567905 0.925725 0.00122635 1.777778 L 0.00122635 -1.779643 C 1.567905 -0.923663 4.076947 -0.13836 4.650218 -0.000932522 Z M 4.650218 -0.000932522 " transform="matrix(0.994839, 0, 0, -0.994839, 264.951905, 92.440479)"/>
<path fill="none" stroke-width="0.3985" stroke-linecap="butt" stroke-linejoin="miter" stroke="rgb(39.99939%, 39.99939%, 39.99939%)" stroke-opacity="1" stroke-miterlimit="10" d="M 153.071954 -0.000932522 L 153.071954 76.734913 " transform="matrix(0.994839, 0, 0, -0.994839, 16.589081, 92.440479)"/>
<path fill-rule="nonzero" fill="rgb(39.99939%, 39.99939%, 39.99939%)" fill-opacity="1" stroke-width="0.3985" stroke-linecap="butt" stroke-linejoin="miter" stroke="rgb(39.99939%, 39.99939%, 39.99939%)" stroke-opacity="1" stroke-miterlimit="10" d="M 4.648445 0.00063638 C 4.0791 0.138064 1.570058 0.923367 -0.000547 1.779347 L -0.000547 -1.778074 C 1.570058 -0.926021 4.0791 -0.136792 4.648445 0.00063638 Z M 4.648445 0.00063638 " transform="matrix(0, -0.994839, -0.994839, 0, 168.871727, 16.101018)"/>
<path fill="none" stroke-width="0.79701" stroke-linecap="butt" stroke-linejoin="miter" stroke="rgb(0%, 26.821899%, 41.880798%)" stroke-opacity="1" stroke-miterlimit="10" d="M 189.074152 24.096078 C 189.074152 33.802419 182.473684 41.671151 174.334022 41.671151 C 166.190434 41.671151 159.593892 33.802419 159.593892 24.096078 C 159.593892 14.389738 166.190434 6.521006 174.334022 6.521006 C 182.473684 6.521006 189.074152 14.389738 189.074152 24.096078 Z M 189.074152 24.096078 " transform="matrix(0.994839, 0, 0, -0.994839, 16.589081, 92.440479)"/>
<path fill-rule="nonzero" fill="rgb(0%, 26.821899%, 41.880798%)" fill-opacity="1" d="M 188.035156 75.519531 C 188.035156 74.28125 187.03125 73.277344 185.792969 73.277344 C 184.554688 73.277344 183.550781 74.28125 183.550781 75.519531 C 183.550781 76.757812 184.554688 77.761719 185.792969 77.761719 C 187.03125 77.761719 188.035156 76.757812 188.035156 75.519531 Z M 188.035156 75.519531 "/>
<path fill-rule="nonzero" fill="rgb(0%, 26.821899%, 41.880798%)" fill-opacity="1" d="M 197.90625 64.238281 C 197.90625 63 196.902344 61.996094 195.664062 61.996094 C 194.421875 61.996094 193.417969 63 193.417969 64.238281 C 193.417969 65.480469 194.421875 66.484375 195.664062 66.484375 C 196.902344 66.484375 197.90625 65.480469 197.90625 64.238281 Z M 197.90625 64.238281 "/>
<path fill-rule="nonzero" fill="rgb(0%, 26.821899%, 41.880798%)" fill-opacity="1" d="M 189.445312 60.011719 C 189.445312 58.769531 188.441406 57.765625 187.203125 57.765625 C 185.964844 57.765625 184.960938 58.769531 184.960938 60.011719 C 184.960938 61.25 185.964844 62.253906 187.203125 62.253906 C 188.441406 62.253906 189.445312 61.25 189.445312 60.011719 Z M 189.445312 60.011719 "/>
<g fill="rgb(0%, 26.821899%, 41.880798%)" fill-opacity="1">
<use xlink:href="#glyph-0-3" x="172.570948" y="42.500535"/>
<use xlink:href="#glyph-0-8" x="177.155002" y="42.500535"/>
<use xlink:href="#glyph-0-11" x="180.740893" y="42.500535"/>
<use xlink:href="#glyph-0-10" x="185.324947" y="42.500535"/>
<use xlink:href="#glyph-0-21" x="190.41834" y="42.500535"/>
</g>
<g fill="rgb(0%, 26.821899%, 41.880798%)" fill-opacity="1">
<use xlink:href="#glyph-1-1" x="198.562417" y="42.500535"/>
</g>
<g fill="rgb(0%, 26.821899%, 41.880798%)" fill-opacity="1">
<use xlink:href="#glyph-2-0" x="203.340336" y="43.491395"/>
</g>
<path fill="none" stroke-width="0.79701" stroke-linecap="butt" stroke-linejoin="miter" stroke="rgb(0%, 37.176514%, 27.056885%)" stroke-opacity="1" stroke-miterlimit="10" d="M 225.355133 58.111461 C 225.355133 66.722305 218.37772 73.703645 209.766876 73.703645 C 201.156033 73.703645 194.174693 66.722305 194.174693 58.111461 C 194.174693 49.500618 201.156033 42.519278 209.766876 42.519278 C 218.37772 42.519278 225.355133 49.500618 225.355133 58.111461 Z M 225.355133 58.111461 " transform="matrix(0.994839, 0, 0, -0.994839, 16.589081, 92.440479)"/>
<path fill-rule="nonzero" fill="rgb(0%, 37.176514%, 27.056885%)" fill-opacity="1" d="M 221.875 38.859375 C 221.875 37.621094 220.871094 36.617188 219.632812 36.617188 C 218.394531 36.617188 217.390625 37.621094 217.390625 38.859375 C 217.390625 40.097656 218.394531 41.101562 219.632812 41.101562 C 220.871094 41.101562 221.875 40.097656 221.875 38.859375 Z M 221.875 38.859375 "/>
<path fill-rule="nonzero" fill="rgb(0%, 37.176514%, 27.056885%)" fill-opacity="1" d="M 233.15625 28.988281 C 233.15625 27.75 232.152344 26.746094 230.914062 26.746094 C 229.675781 26.746094 228.667969 27.75 228.667969 28.988281 C 228.667969 30.226562 229.675781 31.230469 230.914062 31.230469 C 232.152344 31.230469 233.15625 30.226562 233.15625 28.988281 Z M 233.15625 28.988281 "/>
<path fill-rule="nonzero" fill="rgb(0%, 37.176514%, 27.056885%)" fill-opacity="1" d="M 230.335938 40.269531 C 230.335938 39.03125 229.332031 38.027344 228.09375 38.027344 C 226.855469 38.027344 225.851562 39.03125 225.851562 40.269531 C 225.851562 41.507812 226.855469 42.511719 228.09375 42.511719 C 229.332031 42.511719 230.335938 41.507812 230.335938 40.269531 Z M 230.335938 40.269531 "/>
<g fill="rgb(0%, 37.176514%, 27.056885%)" fill-opacity="1">
<use xlink:href="#glyph-0-3" x="207.821093" y="11.480447"/>
<use xlink:href="#glyph-0-8" x="212.405147" y="11.480447"/>
<use xlink:href="#glyph-0-11" x="215.991038" y="11.480447"/>
<use xlink:href="#glyph-0-10" x="220.575092" y="11.480447"/>
<use xlink:href="#glyph-0-21" x="225.668485" y="11.480447"/>
</g>
<g fill="rgb(0%, 37.176514%, 27.056885%)" fill-opacity="1">
<use xlink:href="#glyph-1-1" x="233.812562" y="11.480447"/>
</g>
<g fill="rgb(0%, 37.176514%, 27.056885%)" fill-opacity="1">
<use xlink:href="#glyph-2-1" x="238.590481" y="12.471307"/>
</g>
<path fill="none" stroke-width="0.79701" stroke-linecap="butt" stroke-linejoin="miter" stroke="rgb(66.822815%, 29.489136%, 0%)" stroke-opacity="1" stroke-miterlimit="10" d="M 250.869615 24.096078 C 250.869615 33.174177 244.52437 40.536389 236.694903 40.536389 C 228.869363 40.536389 222.524117 33.174177 222.524117 24.096078 C 222.524117 15.014054 228.869363 7.651842 236.694903 7.651842 C 244.52437 7.651842 250.869615 15.014054 250.869615 24.096078 Z M 250.869615 24.096078 " transform="matrix(0.994839, 0, 0, -0.994839, 16.589081, 92.440479)"/>
<path fill-rule="nonzero" fill="rgb(66.822815%, 29.489136%, 0%)" fill-opacity="1" d="M 250.074219 74.109375 C 250.074219 72.871094 249.070312 71.867188 247.832031 71.867188 C 246.59375 71.867188 245.589844 72.871094 245.589844 74.109375 C 245.589844 75.347656 246.59375 76.351562 247.832031 76.351562 C 249.070312 76.351562 250.074219 75.347656 250.074219 74.109375 Z M 250.074219 74.109375 "/>
<path fill-rule="nonzero" fill="rgb(66.822815%, 29.489136%, 0%)" fill-opacity="1" d="M 259.945312 62.828125 C 259.945312 61.589844 258.941406 60.585938 257.703125 60.585938 C 256.464844 60.585938 255.460938 61.589844 255.460938 62.828125 C 255.460938 64.070312 256.464844 65.074219 257.703125 65.074219 C 258.941406 65.074219 259.945312 64.070312 259.945312 62.828125 Z M 259.945312 62.828125 "/>
<path fill-rule="nonzero" fill="rgb(66.822815%, 29.489136%, 0%)" fill-opacity="1" d="M 255.714844 65.648438 C 255.714844 64.410156 254.710938 63.40625 253.472656 63.40625 C 252.234375 63.40625 251.230469 64.410156 251.230469 65.648438 C 251.230469 66.890625 252.234375 67.894531 253.472656 67.894531 C 254.710938 67.894531 255.714844 66.890625 255.714844 65.648438 Z M 255.714844 65.648438 "/>
<g fill="rgb(66.822815%, 29.489136%, 0%)" fill-opacity="1">
<use xlink:href="#glyph-0-3" x="271.071988" y="70.700253"/>
<use xlink:href="#glyph-0-8" x="275.656042" y="70.700253"/>
<use xlink:href="#glyph-0-11" x="279.241933" y="70.700253"/>
<use xlink:href="#glyph-0-10" x="283.825987" y="70.700253"/>
<use xlink:href="#glyph-0-21" x="288.91938" y="70.700253"/>
</g>
<g fill="rgb(66.822815%, 29.489136%, 0%)" fill-opacity="1">
<use xlink:href="#glyph-1-1" x="297.072377" y="70.700253"/>
</g>
<g fill="rgb(66.822815%, 29.489136%, 0%)" fill-opacity="1">
<use xlink:href="#glyph-2-2" x="301.841376" y="71.691113"/>
</g>
<g fill="rgb(0%, 0%, 0%)" fill-opacity="1">
<use xlink:href="#glyph-0-15" x="167.647487" y="104.977445"/>
<use xlink:href="#glyph-0-9" x="171.212863" y="104.977445"/>
<use xlink:href="#glyph-0-16" x="176.306256" y="104.977445"/>
</g>
<g fill="rgb(0%, 0%, 0%)" fill-opacity="1">
<use xlink:href="#glyph-0-22" x="182.931235" y="104.977445"/>
<use xlink:href="#glyph-0-1" x="189.805978" y="104.977445"/>
</g>
<g fill="rgb(0%, 0%, 0%)" fill-opacity="1">
<use xlink:href="#glyph-0-5" x="192.343754" y="104.977445"/>
<use xlink:href="#glyph-0-8" x="196.422037" y="104.977445"/>
<use xlink:href="#glyph-0-13" x="200.007928" y="104.977445"/>
<use xlink:href="#glyph-0-8" x="204.591982" y="104.977445"/>
<use xlink:href="#glyph-0-23" x="208.177874" y="104.977445"/>
</g>
<g fill="rgb(0%, 0%, 0%)" fill-opacity="1">
<use xlink:href="#glyph-0-24" x="212.002825" y="104.977445"/>
<use xlink:href="#glyph-0-1" x="217.096218" y="104.977445"/>
<use xlink:href="#glyph-0-23" x="219.642914" y="104.977445"/>
<use xlink:href="#glyph-0-13" x="223.717629" y="104.977445"/>
<use xlink:href="#glyph-0-4" x="228.301683" y="104.977445"/>
</g>
<g fill="rgb(0%, 0%, 0%)" fill-opacity="1">
<use xlink:href="#glyph-0-3" x="233.899063" y="104.977445"/>
<use xlink:href="#glyph-0-8" x="238.483117" y="104.977445"/>
<use xlink:href="#glyph-0-11" x="242.069008" y="104.977445"/>
<use xlink:href="#glyph-0-10" x="246.653062" y="104.977445"/>
<use xlink:href="#glyph-0-21" x="251.746456" y="104.977445"/>
<use xlink:href="#glyph-0-1" x="256.839849" y="104.977445"/>
<use xlink:href="#glyph-0-2" x="259.386545" y="104.977445"/>
<use xlink:href="#glyph-0-3" x="264.479938" y="104.977445"/>
<use xlink:href="#glyph-0-18" x="269.063992" y="104.977445"/>
</g>
<g fill="rgb(0%, 0%, 0%)" fill-opacity="1">
<use xlink:href="#glyph-0-7" x="148.987284" y="115.87989"/>
<use xlink:href="#glyph-0-13" x="152.55266" y="115.87989"/>
<use xlink:href="#glyph-0-0" x="157.136714" y="115.87989"/>
<use xlink:href="#glyph-0-14" x="160.752933" y="115.87989"/>
<use xlink:href="#glyph-0-0" x="165.591211" y="115.87989"/>
</g>
<g fill="rgb(0%, 0%, 0%)" fill-opacity="1">
<use xlink:href="#glyph-1-0" x="172.267035" y="115.87989"/>
</g>
<g fill="rgb(0%, 0%, 0%)" fill-opacity="1">
<use xlink:href="#glyph-0-23" x="179.965105" y="115.87989"/>
<use xlink:href="#glyph-0-4" x="184.03982" y="115.87989"/>
<use xlink:href="#glyph-0-10" x="186.586517" y="115.87989"/>
<use xlink:href="#glyph-0-0" x="191.67991" y="115.87989"/>
<use xlink:href="#glyph-0-7" x="195.29613" y="115.87989"/>
<use xlink:href="#glyph-0-5" x="198.861505" y="115.87989"/>
<use xlink:href="#glyph-0-8" x="202.939788" y="115.87989"/>
<use xlink:href="#glyph-0-5" x="206.525679" y="115.87989"/>
<use xlink:href="#glyph-0-6" x="210.603962" y="115.87989"/>
</g>
<g fill="rgb(0%, 0%, 0%)" fill-opacity="1">
<use xlink:href="#glyph-0-1" x="218.756959" y="115.87989"/>
<use xlink:href="#glyph-0-2" x="221.303655" y="115.87989"/>
</g>
<g fill="rgb(0%, 0%, 0%)" fill-opacity="1">
<use xlink:href="#glyph-0-7" x="226.138365" y="115.87989"/>
<use xlink:href="#glyph-0-11" x="229.70374" y="115.87989"/>
</g>
<g fill="rgb(0%, 0%, 0%)" fill-opacity="1">
<use xlink:href="#glyph-0-3" x="237.347398" y="115.87989"/>
<use xlink:href="#glyph-0-8" x="241.931452" y="115.87989"/>
<use xlink:href="#glyph-0-11" x="245.517343" y="115.87989"/>
<use xlink:href="#glyph-0-10" x="250.101397" y="115.87989"/>
<use xlink:href="#glyph-0-21" x="255.19479" y="115.87989"/>
<use xlink:href="#glyph-0-0" x="260.288183" y="115.87989"/>
</g>
<g fill="rgb(0%, 0%, 0%)" fill-opacity="1">
<use xlink:href="#glyph-1-1" x="266.955087" y="115.87989"/>
</g>
<g fill="rgb(0%, 0%, 0%)" fill-opacity="1">
<use xlink:href="#glyph-3-0" x="274.538088" y="115.87989"/>
</g>
<g fill="rgb(0%, 0%, 0%)" fill-opacity="1">
<use xlink:href="#glyph-3-1" x="283.201317" y="115.87989"/>
</g>
<path fill="none" stroke-width="0.3985" stroke-linecap="butt" stroke-linejoin="miter" stroke="rgb(39.99939%, 39.99939%, 39.99939%)" stroke-opacity="1" stroke-miterlimit="10" d="M 317.48291 -4.253346 L 385.717855 -4.253346 " transform="matrix(0.994839, 0, 0, -0.994839, 16.589081, 92.440479)"/>
<path fill-rule="nonzero" fill="rgb(39.99939%, 39.99939%, 39.99939%)" fill-opacity="1" stroke-width="0.3985" stroke-linecap="butt" stroke-linejoin="miter" stroke="rgb(39.99939%, 39.99939%, 39.99939%)" stroke-opacity="1" stroke-miterlimit="10" d="M 4.64698 -0.00151621 C 4.077635 0.139838 1.568594 0.925141 0.00191482 1.777194 L 0.00191482 -1.780227 C 1.568594 -0.924247 4.077635 -0.138944 4.64698 -0.00151621 Z M 4.64698 -0.00151621 " transform="matrix(0.994839, 0, 0, -0.994839, 400.314501, 96.670367)"/>
<g fill="rgb(39.99939%, 39.99939%, 39.99939%)" fill-opacity="1">
<use xlink:href="#glyph-0-3" x="413.48325" y="106.18319"/>
<use xlink:href="#glyph-0-8" x="418.067304" y="106.18319"/>
<use xlink:href="#glyph-0-11" x="421.653196" y="106.18319"/>
<use xlink:href="#glyph-0-10" x="426.23725" y="106.18319"/>
<use xlink:href="#glyph-0-21" x="431.330643" y="106.18319"/>
<use xlink:href="#glyph-0-0" x="436.424036" y="106.18319"/>
</g>
<path fill="none" stroke-width="0.3985" stroke-linecap="butt" stroke-linejoin="miter" stroke="rgb(39.99939%, 39.99939%, 39.99939%)" stroke-opacity="1" stroke-miterlimit="10" d="M 317.48291 -4.253346 L 317.48291 63.981598 " transform="matrix(0.994839, 0, 0, -0.994839, 16.589081, 92.440479)"/>
<path fill-rule="nonzero" fill="rgb(39.99939%, 39.99939%, 39.99939%)" fill-opacity="1" stroke-width="0.3985" stroke-linecap="butt" stroke-linejoin="miter" stroke="rgb(39.99939%, 39.99939%, 39.99939%)" stroke-opacity="1" stroke-miterlimit="10" d="M 4.646743 0.00126984 C 4.077399 0.138698 1.568357 0.924 0.00167845 1.77998 L 0.00167845 -1.777441 C 1.568357 -0.925387 4.077399 -0.140085 4.646743 0.00126984 Z M 4.646743 0.00126984 " transform="matrix(0, -0.994839, -0.994839, 0, 332.434857, 28.790732)"/>
<path fill-rule="nonzero" fill="rgb(0%, 26.821899%, 41.880798%)" fill-opacity="1" d="M 340.894531 96.671875 L 340.894531 54.371094 L 354.996094 54.371094 L 354.996094 96.671875 Z M 340.894531 96.671875 "/>
<path fill-rule="nonzero" fill="rgb(0%, 37.176514%, 27.056885%)" fill-opacity="1" d="M 362.046875 96.671875 L 362.046875 76.929688 L 376.144531 76.929688 L 376.144531 96.671875 Z M 362.046875 96.671875 "/>
<path fill-rule="nonzero" fill="rgb(66.822815%, 29.489136%, 0%)" fill-opacity="1" d="M 383.195312 96.671875 L 383.195312 86.800781 L 397.296875 86.800781 L 397.296875 96.671875 Z M 383.195312 96.671875 "/>
<g fill="rgb(0%, 0%, 0%)" fill-opacity="1">
<use xlink:href="#glyph-1-1" x="343.489334" y="107.732155"/>
</g>
<g fill="rgb(0%, 0%, 0%)" fill-opacity="1">
<use xlink:href="#glyph-2-0" x="348.262573" y="108.723015"/>
</g>
<g fill="rgb(0%, 0%, 0%)" fill-opacity="1">
<use xlink:href="#glyph-1-1" x="364.63962" y="107.732155"/>
</g>
<g fill="rgb(0%, 0%, 0%)" fill-opacity="1">
<use xlink:href="#glyph-2-1" x="369.412859" y="108.723015"/>
</g>
<g fill="rgb(0%, 0%, 0%)" fill-opacity="1">
<use xlink:href="#glyph-1-1" x="385.789906" y="107.732155"/>
</g>
<g fill="rgb(0%, 0%, 0%)" fill-opacity="1">
<use xlink:href="#glyph-2-2" x="390.563145" y="108.723015"/>
</g>
<g fill="rgb(29.998779%, 29.998779%, 29.998779%)" fill-opacity="1">
<use xlink:href="#glyph-0-2" x="317.939868" y="18.529879"/>
<use xlink:href="#glyph-0-11" x="323.033261" y="18.529879"/>
<use xlink:href="#glyph-0-25" x="327.617315" y="18.529879"/>
<use xlink:href="#glyph-0-1" x="335.257404" y="18.529879"/>
<use xlink:href="#glyph-0-2" x="337.804101" y="18.529879"/>
<use xlink:href="#glyph-0-13" x="342.897494" y="18.529879"/>
<use xlink:href="#glyph-0-4" x="347.481548" y="18.529879"/>
</g>
<g fill="rgb(29.998779%, 29.998779%, 29.998779%)" fill-opacity="1">
<use xlink:href="#glyph-0-9" x="353.087849" y="18.529879"/>
</g>
<g fill="rgb(29.998779%, 29.998779%, 29.998779%)" fill-opacity="1">
<use xlink:href="#glyph-0-5" x="358.431005" y="18.529879"/>
<use xlink:href="#glyph-0-4" x="362.509288" y="18.529879"/>
<use xlink:href="#glyph-0-1" x="365.055985" y="18.529879"/>
<use xlink:href="#glyph-0-5" x="367.602681" y="18.529879"/>
<use xlink:href="#glyph-0-19" x="371.680964" y="18.529879"/>
</g>
<g fill="rgb(29.998779%, 29.998779%, 29.998779%)" fill-opacity="1">
<use xlink:href="#glyph-1-2" x="377.541488" y="18.529879"/>
</g>
<g fill="rgb(29.998779%, 29.998779%, 29.998779%)" fill-opacity="1">
<use xlink:href="#glyph-2-3" x="383.061061" y="19.520739"/>
</g>
<g fill="rgb(29.998779%, 29.998779%, 29.998779%)" fill-opacity="1">
<use xlink:href="#glyph-3-0" x="389.737428" y="18.529879"/>
</g>
<g fill="rgb(29.998779%, 29.998779%, 29.998779%)" fill-opacity="1">
<use xlink:href="#glyph-0-26" x="398.391737" y="18.529879"/>
<use xlink:href="#glyph-0-15" x="406.031826" y="18.529879"/>
</g>
<g fill="rgb(29.998779%, 29.998779%, 29.998779%)" fill-opacity="1">
<use xlink:href="#glyph-3-1" x="409.597202" y="18.529879"/>
</g>
<g fill="rgb(29.998779%, 29.998779%, 29.998779%)" fill-opacity="1">
<use xlink:href="#glyph-0-16" x="416.672647" y="18.529879"/>
</g>
<path fill="none" stroke-width="0.79701" stroke-linecap="butt" stroke-linejoin="miter" stroke="rgb(39.99939%, 39.99939%, 39.99939%)" stroke-opacity="1" stroke-miterlimit="10" d="M 326.584568 42.519278 L 339.56562 42.519278 " transform="matrix(0.994839, 0, 0, -0.994839, 16.589081, 92.440479)"/>
<path fill="none" stroke-width="0.79701" stroke-linecap="butt" stroke-linejoin="miter" stroke="rgb(39.99939%, 39.99939%, 39.99939%)" stroke-opacity="1" stroke-miterlimit="10" d="M -0.00143187 3.087161 L -0.00143187 -3.089244 " transform="matrix(-0.994839, 0, 0, 0.994839, 341.291544, 50.139708)"/>
<path fill="none" stroke-width="0.79701" stroke-linecap="butt" stroke-linejoin="miter" stroke="rgb(39.99939%, 39.99939%, 39.99939%)" stroke-opacity="1" stroke-miterlimit="10" d="M -0.00123451 3.089244 L -0.00123451 -3.087161 " transform="matrix(0.994839, 0, 0, -0.994839, 354.598884, 50.139708)"/>
<path fill="none" stroke-width="0.79701" stroke-linecap="butt" stroke-linejoin="miter" stroke="rgb(39.99939%, 39.99939%, 39.99939%)" stroke-opacity="1" stroke-miterlimit="10" d="M 347.846636 19.843665 L 360.823762 19.843665 " transform="matrix(0.994839, 0, 0, -0.994839, 16.589081, 92.440479)"/>
<path fill="none" stroke-width="0.79701" stroke-linecap="butt" stroke-linejoin="miter" stroke="rgb(39.99939%, 39.99939%, 39.99939%)" stroke-opacity="1" stroke-miterlimit="10" d="M 0.0005262 3.089611 L 0.0005262 -3.086794 " transform="matrix(-0.994839, 0, 0, 0.994839, 362.44193, 72.699771)"/>
<path fill="none" stroke-width="0.79701" stroke-linecap="butt" stroke-linejoin="miter" stroke="rgb(39.99939%, 39.99939%, 39.99939%)" stroke-opacity="1" stroke-miterlimit="10" d="M 0.000693933 3.086794 L 0.000693933 -3.089611 " transform="matrix(0.994839, 0, 0, -0.994839, 375.74931, 72.699771)"/>
<path fill="none" stroke-width="0.79701" stroke-linecap="butt" stroke-linejoin="miter" stroke="rgb(39.99939%, 39.99939%, 39.99939%)" stroke-opacity="1" stroke-miterlimit="10" d="M 369.104778 9.921366 L 382.08583 9.921366 " transform="matrix(0.994839, 0, 0, -0.994839, 16.589081, 92.440479)"/>
<path fill="none" stroke-width="0.79701" stroke-linecap="butt" stroke-linejoin="miter" stroke="rgb(39.99939%, 39.99939%, 39.99939%)" stroke-opacity="1" stroke-miterlimit="10" d="M -0.00144224 3.09035 L -0.00144224 -3.089982 " transform="matrix(-0.994839, 0, 0, 0.994839, 383.592315, 82.57013)"/>
<path fill="none" stroke-width="0.79701" stroke-linecap="butt" stroke-linejoin="miter" stroke="rgb(39.99939%, 39.99939%, 39.99939%)" stroke-opacity="1" stroke-miterlimit="10" d="M -0.00126414 3.089982 L -0.00126414 -3.09035 " transform="matrix(0.994839, 0, 0, -0.994839, 396.899695, 82.57013)"/>
<g fill="rgb(29.998779%, 29.998779%, 29.998779%)" fill-opacity="1">
<use xlink:href="#glyph-0-13" x="407.842511" y="39.893061"/>
<use xlink:href="#glyph-0-25" x="412.426565" y="39.893061"/>
</g>
<g fill="rgb(29.998779%, 29.998779%, 29.998779%)" fill-opacity="1">
<use xlink:href="#glyph-0-9" x="419.807971" y="39.893061"/>
<use xlink:href="#glyph-0-1" x="424.901364" y="39.893061"/>
<use xlink:href="#glyph-0-3" x="427.448061" y="39.893061"/>
<use xlink:href="#glyph-0-10" x="432.032114" y="39.893061"/>
<use xlink:href="#glyph-0-1" x="437.125508" y="39.893061"/>
<use xlink:href="#glyph-0-7" x="439.672204" y="39.893061"/>
</g>
<g fill="rgb(29.998779%, 29.998779%, 29.998779%)" fill-opacity="1">
<use xlink:href="#glyph-0-20" x="442.987816" y="39.893061"/>
</g>
<g fill="rgb(29.998779%, 29.998779%, 29.998779%)" fill-opacity="1">
<use xlink:href="#glyph-0-0" x="450.876777" y="39.893061"/>
<use xlink:href="#glyph-0-5" x="454.492997" y="39.893061"/>
<use xlink:href="#glyph-0-7" x="458.57128" y="39.893061"/>
</g>
<g fill="rgb(29.998779%, 29.998779%, 29.998779%)" fill-opacity="1">
<use xlink:href="#glyph-3-2" x="407.842511" y="50.794511"/>
</g>
<g fill="rgb(29.998779%, 29.998779%, 29.998779%)" fill-opacity="1">
<use xlink:href="#glyph-0-27" x="417.844651" y="50.794511"/>
</g>
<g fill="rgb(29.998779%, 29.998779%, 29.998779%)" fill-opacity="1">
<use xlink:href="#glyph-3-3" x="427.526558" y="50.794511"/>
</g>
<g fill="rgb(29.998779%, 29.998779%, 29.998779%)" fill-opacity="1">
<use xlink:href="#glyph-1-2" x="432.110611" y="50.794511"/>
</g>
<g fill="rgb(29.998779%, 29.998779%, 29.998779%)" fill-opacity="1">
<use xlink:href="#glyph-0-18" x="440.176191" y="50.794511"/>
</g>
<g fill="rgb(29.998779%, 29.998779%, 29.998779%)" fill-opacity="1">
<use xlink:href="#glyph-1-3" x="445.274045" y="50.794511"/>
</g>
<g fill="rgb(29.998779%, 29.998779%, 29.998779%)" fill-opacity="1">
<use xlink:href="#glyph-0-15" x="453.083617" y="50.794511"/>
</g>
<g fill="rgb(29.998779%, 29.998779%, 29.998779%)" fill-opacity="1">
<use xlink:href="#glyph-1-2" x="456.648992" y="50.794511"/>
<use xlink:href="#glyph-1-4" x="462.172335" y="50.794511"/>
</g>
<g fill="rgb(29.998779%, 29.998779%, 29.998779%)" fill-opacity="1">
<use xlink:href="#glyph-1-2" x="466.253294" y="50.794511"/>
</g>
<g fill="rgb(29.998779%, 29.998779%, 29.998779%)" fill-opacity="1">
<use xlink:href="#glyph-2-3" x="471.772881" y="51.786366"/>
</g>
<g fill="rgb(29.998779%, 29.998779%, 29.998779%)" fill-opacity="1">
<use xlink:href="#glyph-0-16" x="475.90246" y="50.794511"/>
</g>
<g fill="rgb(29.998779%, 29.998779%, 29.998779%)" fill-opacity="1">
<use xlink:href="#glyph-3-4" x="482.010072" y="50.794511"/>
</g>
<g fill="rgb(29.998779%, 29.998779%, 29.998779%)" fill-opacity="1">
<use xlink:href="#glyph-1-5" x="491.691979" y="50.794511"/>
</g>
<g fill="rgb(29.998779%, 29.998779%, 29.998779%)" fill-opacity="1">
<use xlink:href="#glyph-3-5" x="495.40632" y="50.794511"/>
</g>
<g fill="rgb(29.998779%, 29.998779%, 29.998779%)" fill-opacity="1">
<use xlink:href="#glyph-0-28" x="407.842511" y="64.517326"/>
</g>
<g fill="rgb(29.998779%, 29.998779%, 29.998779%)" fill-opacity="1">
<use xlink:href="#glyph-0-11" x="414.205238" y="64.517326"/>
<use xlink:href="#glyph-0-8" x="418.789292" y="64.517326"/>
<use xlink:href="#glyph-0-0" x="422.375184" y="64.517326"/>
<use xlink:href="#glyph-0-7" x="425.991404" y="64.517326"/>
</g>
<g fill="rgb(29.998779%, 29.998779%, 29.998779%)" fill-opacity="1">
<use xlink:href="#glyph-0-23" x="432.616383" y="64.517326"/>
<use xlink:href="#glyph-0-13" x="436.691097" y="64.517326"/>
<use xlink:href="#glyph-0-0" x="441.275151" y="64.517326"/>
<use xlink:href="#glyph-0-5" x="444.891371" y="64.517326"/>
</g>
<g fill="rgb(29.998779%, 29.998779%, 29.998779%)" fill-opacity="1">
<use xlink:href="#glyph-0-7" x="452.029258" y="64.517326"/>
<use xlink:href="#glyph-0-13" x="455.594633" y="64.517326"/>
<use xlink:href="#glyph-0-14" x="460.178687" y="64.517326"/>
</g>
<g fill="rgb(29.998779%, 29.998779%, 29.998779%)" fill-opacity="1">
<use xlink:href="#glyph-0-5" x="464.75828" y="64.517326"/>
<use xlink:href="#glyph-0-2" x="468.836563" y="64.517326"/>
</g>
<g fill="rgb(29.998779%, 29.998779%, 29.998779%)" fill-opacity="1">
<use xlink:href="#glyph-0-11" x="407.842511" y="75.419771"/>
</g>
<g fill="rgb(29.998779%, 29.998779%, 29.998779%)" fill-opacity="1">
<use xlink:href="#glyph-0-12" x="412.167881" y="75.419771"/>
</g>
<g fill="rgb(29.998779%, 29.998779%, 29.998779%)" fill-opacity="1">
<use xlink:href="#glyph-0-5" x="416.756395" y="75.419771"/>
<use xlink:href="#glyph-0-8" x="420.834677" y="75.419771"/>
</g>
<g fill="rgb(29.998779%, 29.998779%, 29.998779%)" fill-opacity="1">
<use xlink:href="#glyph-1-2" x="427.480173" y="75.419771"/>
</g>
<g fill="rgb(29.998779%, 29.998779%, 29.998779%)" fill-opacity="1">
<use xlink:href="#glyph-3-0" x="435.545753" y="75.419771"/>
</g>
<g fill="rgb(29.998779%, 29.998779%, 29.998779%)" fill-opacity="1">
<use xlink:href="#glyph-3-2" x="444.208981" y="75.419771"/>
</g>
<g fill="rgb(29.998779%, 29.998779%, 29.998779%)" fill-opacity="1">
<use xlink:href="#glyph-0-29" x="451.659964" y="75.419771"/>
</g>
<g fill="rgb(29.998779%, 29.998779%, 29.998779%)" fill-opacity="1">
<use xlink:href="#glyph-0-2" x="457.266265" y="75.419771"/>
<use xlink:href="#glyph-0-11" x="462.359658" y="75.419771"/>
<use xlink:href="#glyph-0-7" x="466.943712" y="75.419771"/>
</g>
<g fill="rgb(29.998779%, 29.998779%, 29.998779%)" fill-opacity="1">
<use xlink:href="#glyph-0-11" x="407.842511" y="86.322216"/>
</g>
<g fill="rgb(29.998779%, 29.998779%, 29.998779%)" fill-opacity="1">
<use xlink:href="#glyph-0-12" x="412.167881" y="86.322216"/>
</g>
<g fill="rgb(29.998779%, 29.998779%, 29.998779%)" fill-opacity="1">
<use xlink:href="#glyph-0-5" x="416.756395" y="86.322216"/>
<use xlink:href="#glyph-0-8" x="420.834677" y="86.322216"/>
</g>
<g fill="rgb(29.998779%, 29.998779%, 29.998779%)" fill-opacity="1">
<use xlink:href="#glyph-0-1" x="427.480173" y="86.322216"/>
<use xlink:href="#glyph-0-2" x="430.02687" y="86.322216"/>
<use xlink:href="#glyph-0-6" x="435.120263" y="86.322216"/>
</g>
<g fill="rgb(29.998779%, 29.998779%, 29.998779%)" fill-opacity="1">
<use xlink:href="#glyph-0-1" x="440.204736" y="86.322216"/>
<use xlink:href="#glyph-0-12" x="442.751432" y="86.322216"/>
</g>
<g fill="rgb(29.998779%, 29.998779%, 29.998779%)" fill-opacity="1">
<use xlink:href="#glyph-0-1" x="447.59863" y="86.322216"/>
<use xlink:href="#glyph-0-6" x="450.145327" y="86.322216"/>
</g>
<g fill="rgb(29.998779%, 29.998779%, 29.998779%)" fill-opacity="1">
<use xlink:href="#glyph-0-10" x="455.2298" y="86.322216"/>
<use xlink:href="#glyph-0-13" x="460.323193" y="86.322216"/>
<use xlink:href="#glyph-0-4" x="464.907247" y="86.322216"/>
</g>
<g fill="rgb(29.998779%, 29.998779%, 29.998779%)" fill-opacity="1">
<use xlink:href="#glyph-0-7" x="470.513547" y="86.322216"/>
<use xlink:href="#glyph-0-13" x="474.078922" y="86.322216"/>
<use xlink:href="#glyph-0-0" x="478.662976" y="86.322216"/>
<use xlink:href="#glyph-0-14" x="482.279196" y="86.322216"/>
<use xlink:href="#glyph-0-0" x="487.117474" y="86.322216"/>
</g>
<g fill="rgb(0%, 0%, 0%)" fill-opacity="1">
<use xlink:href="#glyph-0-15" x="342.985945" y="117.667616"/>
<use xlink:href="#glyph-0-23" x="346.55132" y="117.667616"/>
<use xlink:href="#glyph-0-16" x="350.626035" y="117.667616"/>
</g>
<g fill="rgb(0%, 0%, 0%)" fill-opacity="1">
<use xlink:href="#glyph-0-30" x="357.251014" y="117.667616"/>
<use xlink:href="#glyph-0-5" x="363.743975" y="117.667616"/>
<use xlink:href="#glyph-0-4" x="367.822258" y="117.667616"/>
<use xlink:href="#glyph-0-1" x="370.368954" y="117.667616"/>
<use xlink:href="#glyph-0-5" x="372.915651" y="117.667616"/>
<use xlink:href="#glyph-0-19" x="376.993933" y="117.667616"/>
</g>
<g fill="rgb(0%, 0%, 0%)" fill-opacity="1">
<use xlink:href="#glyph-0-11" x="382.845537" y="117.667616"/>
</g>
<g fill="rgb(0%, 0%, 0%)" fill-opacity="1">
<use xlink:href="#glyph-0-12" x="387.179828" y="117.667616"/>
</g>
<g fill="rgb(0%, 0%, 0%)" fill-opacity="1">
<use xlink:href="#glyph-0-5" x="391.759421" y="117.667616"/>
<use xlink:href="#glyph-0-8" x="395.837704" y="117.667616"/>
</g>
<g fill="rgb(0%, 0%, 0%)" fill-opacity="1">
<use xlink:href="#glyph-0-3" x="402.4832" y="117.667616"/>
<use xlink:href="#glyph-0-8" x="407.067253" y="117.667616"/>
<use xlink:href="#glyph-0-11" x="410.653145" y="117.667616"/>
<use xlink:href="#glyph-0-10" x="415.237199" y="117.667616"/>
<use xlink:href="#glyph-0-21" x="420.330592" y="117.667616"/>
<use xlink:href="#glyph-0-0" x="425.423985" y="117.667616"/>
</g>
<g fill="rgb(0%, 0%, 0%)" fill-opacity="1">
<use xlink:href="#glyph-0-28" x="348.420753" y="128.570062"/>
<use xlink:href="#glyph-0-1" x="355.042164" y="128.570062"/>
<use xlink:href="#glyph-0-7" x="357.58886" y="128.570062"/>
<use xlink:href="#glyph-0-24" x="361.154235" y="128.570062"/>
</g>
<g fill="rgb(0%, 0%, 0%)" fill-opacity="1">
<use xlink:href="#glyph-0-13" x="369.307233" y="128.570062"/>
<use xlink:href="#glyph-0-25" x="373.891286" y="128.570062"/>
</g>
<g fill="rgb(0%, 0%, 0%)" fill-opacity="1">
<use xlink:href="#glyph-0-9" x="381.272692" y="128.570062"/>
<use xlink:href="#glyph-0-1" x="386.366086" y="128.570062"/>
<use xlink:href="#glyph-0-3" x="388.912782" y="128.570062"/>
<use xlink:href="#glyph-0-10" x="393.496836" y="128.570062"/>
<use xlink:href="#glyph-0-1" x="398.590229" y="128.570062"/>
<use xlink:href="#glyph-0-7" x="401.136926" y="128.570062"/>
</g>
<g fill="rgb(0%, 0%, 0%)" fill-opacity="1">
<use xlink:href="#glyph-0-20" x="404.443617" y="128.570062"/>
</g>
<g fill="rgb(0%, 0%, 0%)" fill-opacity="1">
<use xlink:href="#glyph-0-0" x="412.341499" y="128.570062"/>
<use xlink:href="#glyph-0-5" x="415.957719" y="128.570062"/>
<use xlink:href="#glyph-0-7" x="420.036001" y="128.570062"/>
</g>
</svg>
