<?xml version="1.0" encoding="UTF-8"?>
<svg xmlns="http://www.w3.org/2000/svg" xmlns:xlink="http://www.w3.org/1999/xlink" width="366.481pt" height="117.087pt" viewBox="0 0 366.481 117.087">
<defs>
<g>
<g id="glyph-0-0">
<path d="M 2.015625 -3.71875 C 1.3125 -3.890625 1.078125 -4.46875 1.078125 -4.859375 C 1.078125 -5.453125 1.5625 -6.015625 2.296875 -6.015625 C 3.453125 -6.015625 3.90625 -5.171875 4.03125 -4.265625 C 4.0625 -4.09375 4.078125 -4.046875 4.171875 -4.046875 C 4.296875 -4.046875 4.296875 -4.109375 4.296875 -4.296875 L 4.296875 -6.015625 C 4.296875 -6.203125 4.296875 -6.265625 4.203125 -6.265625 C 4.140625 -6.265625 4.125 -6.265625 4.0625 -6.15625 C 3.953125 -6 4.03125 -6.109375 3.75 -5.640625 C 3.59375 -5.828125 3.125 -6.265625 2.296875 -6.265625 C 1.25 -6.265625 0.5 -5.453125 0.5 -4.546875 C 0.5 -3.859375 0.921875 -3.4375 0.96875 -3.390625 C 1.375 -3 1.53125 -2.953125 2.59375 -2.703125 C 3.3125 -2.53125 3.390625 -2.515625 3.6875 -2.21875 C 3.6875 -2.203125 3.984375 -1.875 3.984375 -1.34375 C 3.984375 -0.75 3.5625 -0.078125 2.75 -0.078125 C 2.0625 -0.078125 0.828125 -0.359375 0.75 -1.828125 C 0.75 -1.96875 0.75 -2.015625 0.625 -2.015625 C 0.5 -2.015625 0.5 -1.953125 0.5 -1.765625 L 0.5 -0.046875 C 0.5 0.125 0.5 0.203125 0.609375 0.203125 C 0.671875 0.203125 0.6875 0.1875 0.75 0.078125 C 0.859375 -0.078125 0.78125 0.03125 1.0625 -0.421875 C 1.625 0.109375 2.328125 0.203125 2.75 0.203125 C 3.84375 0.203125 4.5625 -0.6875 4.5625 -1.640625 C 4.5625 -2.15625 4.375 -2.546875 4.15625 -2.8125 C 3.78125 -3.296875 3.375 -3.390625 2.796875 -3.53125 Z M 2.015625 -3.71875 "/>
</g>
<g id="glyph-0-1">
<path d="M 3.5625 -2.03125 C 3.75 -2.03125 3.796875 -2.03125 3.796875 -2.21875 C 3.796875 -3.140625 3.296875 -3.984375 2.15625 -3.984375 C 1.09375 -3.984375 0.265625 -3.0625 0.265625 -1.953125 C 0.265625 -0.796875 1.1875 0.09375 2.28125 0.09375 C 3.359375 0.09375 3.796875 -0.859375 3.796875 -1.0625 C 3.796875 -1.125 3.75 -1.171875 3.671875 -1.171875 C 3.578125 -1.171875 3.5625 -1.109375 3.546875 -1.078125 C 3.25 -0.171875 2.453125 -0.15625 2.328125 -0.15625 C 1.890625 -0.15625 1.53125 -0.390625 1.328125 -0.6875 C 1.03125 -1.125 1.015625 -1.65625 1.015625 -2.03125 Z M 1.03125 -2.25 C 1.109375 -3.625 1.90625 -3.765625 2.15625 -3.765625 C 2.65625 -3.765625 3.1875 -3.390625 3.1875 -2.25 Z M 1.03125 -2.25 "/>
</g>
<g id="glyph-0-2">
<path d="M 3.5625 -3.140625 C 3.140625 -3.84375 2.625 -3.921875 2.328125 -3.921875 C 1.265625 -3.921875 0.296875 -3.078125 0.296875 -1.90625 C 0.296875 -0.78125 1.203125 0.09375 2.25 0.09375 C 2.625 0.09375 3.078125 -0.03125 3.453125 -0.53125 L 3.453125 1.046875 C 3.453125 1.453125 3.359375 1.453125 2.78125 1.453125 L 2.78125 1.71875 C 3.1875 1.703125 3.359375 1.703125 3.78125 1.703125 C 4.21875 1.703125 4.328125 1.703125 4.796875 1.71875 L 4.796875 1.453125 C 4.21875 1.453125 4.109375 1.453125 4.109375 1.046875 L 4.109375 -3.921875 L 3.890625 -3.921875 Z M 3.484375 -1.234375 C 3.484375 -1.0625 3.484375 -1.03125 3.359375 -0.796875 C 3.125 -0.40625 2.75 -0.125 2.28125 -0.125 C 1.625 -0.125 1.0625 -0.90625 1.0625 -1.90625 C 1.0625 -2.9375 1.703125 -3.6875 2.375 -3.6875 C 3.078125 -3.6875 3.484375 -2.9375 3.484375 -2.453125 Z M 3.484375 -1.234375 "/>
</g>
<g id="glyph-0-3">
<path d="M 3.515625 -1.484375 C 3.515625 -0.6875 3.078125 -0.125 2.4375 -0.125 C 1.703125 -0.125 1.65625 -0.5 1.65625 -0.984375 L 1.65625 -3.921875 L 0.3125 -3.828125 L 0.3125 -3.5625 C 1 -3.5625 1 -3.53125 1 -2.734375 L 1 -1.40625 C 1 -0.828125 1 -0.453125 1.40625 -0.140625 C 1.65625 0.03125 2.03125 0.09375 2.375 0.09375 C 2.84375 0.09375 3.28125 -0.109375 3.53125 -0.640625 L 3.546875 -0.640625 L 3.546875 0.09375 L 4.859375 0 L 4.859375 -0.28125 C 4.265625 -0.28125 4.171875 -0.34375 4.171875 -0.78125 L 4.171875 -3.921875 L 2.84375 -3.828125 L 2.84375 -3.5625 C 3.4375 -3.5625 3.515625 -3.5 3.515625 -3.0625 Z M 3.515625 -1.484375 "/>
</g>
<g id="glyph-0-4">
<path d="M 1.65625 -2.296875 C 1.65625 -3.25 2.328125 -3.703125 2.875 -3.703125 C 3.40625 -3.703125 3.515625 -3.265625 3.515625 -2.734375 L 3.515625 -0.6875 C 3.515625 -0.28125 3.421875 -0.28125 2.84375 -0.28125 L 2.84375 0 C 3.25 -0.015625 3.421875 -0.03125 3.84375 -0.03125 C 4.28125 -0.03125 4.390625 -0.015625 4.859375 0 L 4.859375 -0.28125 C 4.40625 -0.28125 4.1875 -0.28125 4.171875 -0.546875 L 4.171875 -2.265625 C 4.171875 -3 4.171875 -3.25 3.921875 -3.5625 C 3.71875 -3.8125 3.390625 -3.921875 2.9375 -3.921875 C 2.109375 -3.921875 1.734375 -3.3125 1.609375 -3.0625 L 1.59375 -3.0625 L 1.59375 -3.921875 L 0.3125 -3.828125 L 0.3125 -3.5625 C 0.921875 -3.5625 1 -3.5 1 -3.0625 L 1 -0.6875 C 1 -0.28125 0.890625 -0.28125 0.3125 -0.28125 L 0.3125 0 C 0.734375 -0.015625 0.890625 -0.03125 1.328125 -0.03125 C 1.75 -0.03125 1.859375 -0.015625 2.34375 0 L 2.34375 -0.28125 C 1.75 -0.28125 1.65625 -0.28125 1.65625 -0.6875 Z M 1.65625 -2.296875 "/>
</g>
<g id="glyph-0-5">
<path d="M 2.890625 -3.5625 L 2.890625 -3.828125 L 1.59375 -3.828125 L 1.59375 -5.46875 L 1.34375 -5.46875 C 1.34375 -4.71875 1.03125 -3.8125 0.171875 -3.78125 L 0.171875 -3.5625 L 0.9375 -3.5625 L 0.9375 -1.109375 C 0.9375 -0.109375 1.65625 0.09375 2.140625 0.09375 C 2.734375 0.09375 3.046875 -0.46875 3.046875 -1.109375 L 3.046875 -1.609375 L 2.796875 -1.609375 L 2.796875 -1.125 C 2.796875 -0.46875 2.515625 -0.15625 2.203125 -0.15625 C 1.59375 -0.15625 1.59375 -0.9375 1.59375 -1.09375 L 1.59375 -3.5625 Z M 2.890625 -3.5625 "/>
</g>
<g id="glyph-0-6">
<path d="M 1.640625 -3.921875 L 0.359375 -3.828125 L 0.359375 -3.5625 C 0.921875 -3.5625 1 -3.5 1 -3.0625 L 1 -0.6875 C 1 -0.28125 0.90625 -0.28125 0.3125 -0.28125 L 0.3125 0 C 0.71875 -0.015625 0.90625 -0.03125 1.296875 -0.03125 C 1.4375 -0.03125 1.8125 -0.03125 2.25 0 L 2.25 -0.28125 C 1.671875 -0.28125 1.640625 -0.3125 1.640625 -0.671875 Z M 1.65625 -5.484375 C 1.65625 -5.75 1.453125 -5.953125 1.1875 -5.953125 C 0.90625 -5.953125 0.703125 -5.734375 0.703125 -5.484375 C 0.703125 -5.21875 0.90625 -5 1.1875 -5 C 1.453125 -5 1.65625 -5.203125 1.65625 -5.484375 Z M 1.65625 -5.484375 "/>
</g>
<g id="glyph-0-7">
<path d="M 3.046875 -0.640625 C 3.078125 -0.265625 3.34375 0.046875 3.71875 0.046875 C 3.953125 0.046875 4.5 -0.078125 4.5 -0.796875 L 4.5 -1.296875 L 4.265625 -1.296875 L 4.265625 -0.796875 C 4.265625 -0.703125 4.265625 -0.265625 3.9375 -0.265625 C 3.625 -0.265625 3.625 -0.6875 3.625 -0.828125 L 3.625 -2.375 C 3.625 -2.890625 3.625 -3.1875 3.21875 -3.5625 C 2.890625 -3.84375 2.46875 -3.984375 2.015625 -3.984375 C 1.265625 -3.984375 0.65625 -3.609375 0.65625 -3.046875 C 0.65625 -2.765625 0.828125 -2.609375 1.0625 -2.609375 C 1.3125 -2.609375 1.46875 -2.796875 1.46875 -3.015625 C 1.46875 -3.40625 1.078125 -3.453125 1.078125 -3.453125 C 1.3125 -3.6875 1.75 -3.765625 2 -3.765625 C 2.453125 -3.765625 2.953125 -3.421875 2.953125 -2.640625 L 2.953125 -2.34375 C 2.484375 -2.328125 1.8125 -2.28125 1.21875 -2 C 0.578125 -1.6875 0.375 -1.234375 0.375 -0.875 C 0.375 -0.140625 1.25 0.09375 1.84375 0.09375 C 2.578125 0.09375 2.921875 -0.390625 3.046875 -0.640625 Z M 2.953125 -1.25 C 2.953125 -0.390625 2.296875 -0.125 1.90625 -0.125 C 1.484375 -0.125 1.09375 -0.421875 1.09375 -0.875 C 1.09375 -1.453125 1.59375 -2.078125 2.953125 -2.140625 Z M 2.953125 -1.25 "/>
</g>
<g id="glyph-0-8">
<path d="M 1.640625 -6.171875 L 0.3125 -6.078125 L 0.3125 -5.796875 C 0.921875 -5.796875 1 -5.734375 1 -5.296875 L 1 -0.6875 C 1 -0.28125 0.90625 -0.28125 0.3125 -0.28125 L 0.3125 0 C 0.734375 -0.015625 0.90625 -0.03125 1.3125 -0.03125 C 1.734375 -0.03125 1.890625 -0.015625 2.328125 0 L 2.328125 -0.28125 C 1.734375 -0.28125 1.640625 -0.28125 1.640625 -0.6875 Z M 1.640625 -6.171875 "/>
</g>
<g id="glyph-0-9">
<path d="M 3.453125 -1.0625 C 3.453125 -0.90625 3.453125 -0.875 3.328125 -0.6875 C 3.046875 -0.296875 2.640625 -0.125 2.28125 -0.125 C 1.90625 -0.125 1.546875 -0.34375 1.3125 -0.71875 C 1.078125 -1.09375 1.0625 -1.625 1.0625 -1.90625 C 1.0625 -2.328125 1.125 -2.796875 1.34375 -3.140625 C 1.546875 -3.4375 1.90625 -3.703125 2.375 -3.703125 C 2.75 -3.703125 3.109375 -3.515625 3.359375 -3.1875 C 3.453125 -3.046875 3.453125 -3.03125 3.453125 -2.859375 Z M 3.484375 -3.40625 C 3.4375 -3.453125 3.046875 -3.921875 2.34375 -3.921875 C 1.25 -3.921875 0.296875 -3.0625 0.296875 -1.90625 C 0.296875 -0.796875 1.1875 0.09375 2.25 0.09375 C 2.890625 0.09375 3.296875 -0.28125 3.453125 -0.46875 L 3.453125 0.09375 L 4.796875 0 L 4.796875 -0.28125 C 4.203125 -0.28125 4.109375 -0.34375 4.109375 -0.78125 L 4.109375 -6.171875 L 2.796875 -6.078125 L 2.796875 -5.796875 C 3.40625 -5.796875 3.484375 -5.734375 3.484375 -5.296875 Z M 3.484375 -3.40625 "/>
</g>
<g id="glyph-0-10">
<path d="M 3.234375 -3.5 C 3.046875 -3.453125 2.875 -3.328125 2.875 -3.078125 C 2.875 -2.84375 3.046875 -2.671875 3.28125 -2.671875 C 3.515625 -2.671875 3.703125 -2.8125 3.703125 -3.09375 C 3.703125 -3.640625 3.078125 -3.984375 2.296875 -3.984375 C 1.15625 -3.984375 0.296875 -3.03125 0.296875 -1.921875 C 0.296875 -0.78125 1.234375 0.09375 2.28125 0.09375 C 3.515625 0.09375 3.796875 -0.984375 3.796875 -1.0625 C 3.796875 -1.171875 3.703125 -1.171875 3.671875 -1.171875 C 3.578125 -1.171875 3.578125 -1.140625 3.515625 -1 C 3.3125 -0.375 2.8125 -0.15625 2.359375 -0.15625 C 1.796875 -0.15625 1.0625 -0.609375 1.0625 -1.921875 C 1.0625 -3.3125 1.78125 -3.734375 2.3125 -3.734375 C 2.421875 -3.734375 2.90625 -3.71875 3.234375 -3.5 Z M 3.234375 -3.5 "/>
</g>
<g id="glyph-0-11">
<path d="M 3.0625 -3.75 C 3.0625 -3.90625 3.0625 -3.984375 2.953125 -3.984375 C 2.90625 -3.984375 2.890625 -3.984375 2.78125 -3.875 C 2.75 -3.859375 2.671875 -3.78125 2.625 -3.734375 C 2.34375 -3.921875 2.078125 -3.984375 1.765625 -3.984375 C 0.59375 -3.984375 0.296875 -3.328125 0.296875 -2.875 C 0.296875 -2.59375 0.421875 -2.359375 0.625 -2.171875 C 0.9375 -1.890625 1.265625 -1.828125 1.71875 -1.75 C 2.171875 -1.65625 2.328125 -1.640625 2.53125 -1.484375 C 2.609375 -1.40625 2.84375 -1.25 2.84375 -0.90625 C 2.84375 -0.125 1.9375 -0.125 1.8125 -0.125 C 0.90625 -0.125 0.671875 -0.875 0.5625 -1.359375 C 0.546875 -1.453125 0.53125 -1.5 0.421875 -1.5 C 0.296875 -1.5 0.296875 -1.4375 0.296875 -1.265625 L 0.296875 -0.140625 C 0.296875 0.015625 0.296875 0.09375 0.40625 0.09375 C 0.46875 0.09375 0.46875 0.09375 0.625 -0.078125 C 0.671875 -0.140625 0.765625 -0.25 0.8125 -0.296875 C 1.1875 0.078125 1.59375 0.09375 1.8125 0.09375 C 2.90625 0.09375 3.296875 -0.546875 3.296875 -1.140625 C 3.296875 -1.53125 3.109375 -1.78125 2.921875 -1.984375 C 2.609375 -2.28125 2.296875 -2.34375 1.640625 -2.46875 C 1.40625 -2.5 0.75 -2.625 0.75 -3.125 C 0.75 -3.40625 0.953125 -3.78125 1.765625 -3.78125 C 2.734375 -3.78125 2.796875 -3.046875 2.8125 -2.828125 C 2.8125 -2.71875 2.8125 -2.671875 2.9375 -2.671875 C 3.0625 -2.671875 3.0625 -2.734375 3.0625 -2.890625 Z M 3.0625 -3.75 "/>
</g>
<g id="glyph-0-12">
<path d="M 4.296875 -1.890625 C 4.296875 -3.0625 3.375 -3.984375 2.28125 -3.984375 C 1.15625 -3.984375 0.265625 -3.03125 0.265625 -1.890625 C 0.265625 -0.78125 1.1875 0.09375 2.28125 0.09375 C 3.40625 0.09375 4.296875 -0.796875 4.296875 -1.890625 Z M 2.28125 -0.15625 C 1.84375 -0.15625 1.46875 -0.375 1.265625 -0.71875 C 1.03125 -1.09375 1.015625 -1.5625 1.015625 -1.96875 C 1.015625 -2.296875 1.015625 -2.8125 1.25 -3.171875 C 1.515625 -3.625 1.953125 -3.765625 2.28125 -3.765625 C 2.78125 -3.765625 3.140625 -3.46875 3.328125 -3.171875 C 3.53125 -2.796875 3.53125 -2.34375 3.53125 -1.96875 C 3.53125 -1.640625 3.53125 -1.125 3.3125 -0.734375 C 3.0625 -0.328125 2.65625 -0.15625 2.28125 -0.15625 Z M 2.28125 -0.15625 "/>
</g>
<g id="glyph-0-13">
<path d="M 1.65625 -2.296875 C 1.65625 -3.265625 2.34375 -3.703125 2.875 -3.703125 C 3.375 -3.703125 3.53125 -3.359375 3.53125 -2.734375 L 3.53125 -0.6875 C 3.53125 -0.28125 3.4375 -0.28125 2.84375 -0.28125 L 2.84375 0 C 3.265625 -0.015625 3.4375 -0.03125 3.859375 -0.03125 C 4.28125 -0.03125 4.40625 -0.015625 4.875 0 L 4.875 -0.28125 C 4.28125 -0.28125 4.1875 -0.28125 4.1875 -0.6875 L 4.1875 -2.296875 C 4.1875 -3.265625 4.875 -3.703125 5.421875 -3.703125 C 5.90625 -3.703125 6.0625 -3.359375 6.0625 -2.734375 L 6.0625 -0.6875 C 6.0625 -0.28125 5.96875 -0.28125 5.375 -0.28125 L 5.375 0 C 5.796875 -0.015625 5.96875 -0.03125 6.390625 -0.03125 C 6.8125 -0.03125 6.9375 -0.015625 7.40625 0 L 7.40625 -0.28125 C 6.953125 -0.28125 6.734375 -0.28125 6.71875 -0.546875 L 6.71875 -2.265625 C 6.71875 -3.03125 6.71875 -3.28125 6.421875 -3.609375 C 6.234375 -3.828125 5.890625 -3.921875 5.484375 -3.921875 C 4.84375 -3.921875 4.40625 -3.5625 4.15625 -3.078125 C 4.046875 -3.609375 3.6875 -3.921875 2.9375 -3.921875 C 2.234375 -3.921875 1.796875 -3.46875 1.609375 -3.0625 L 1.59375 -3.0625 L 1.59375 -3.921875 L 0.3125 -3.828125 L 0.3125 -3.5625 C 0.921875 -3.5625 1 -3.5 1 -3.0625 L 1 -0.6875 C 1 -0.28125 0.890625 -0.28125 0.3125 -0.28125 L 0.3125 0 C 0.734375 -0.015625 0.890625 -0.03125 1.328125 -0.03125 C 1.75 -0.03125 1.859375 -0.015625 2.34375 0 L 2.34375 -0.28125 C 1.75 -0.28125 1.65625 -0.28125 1.65625 -0.6875 Z M 1.65625 -2.296875 "/>
</g>
<g id="glyph-0-14">
<path d="M 1.578125 -1.921875 L 1.578125 -6.171875 L 0.265625 -6.078125 L 0.265625 -5.796875 C 0.875 -5.796875 0.953125 -5.734375 0.953125 -5.296875 L 0.953125 -0.6875 C 0.953125 -0.28125 0.859375 -0.28125 0.265625 -0.28125 L 0.265625 0 C 0.65625 -0.015625 0.875 -0.03125 1.25 -0.03125 C 1.625 -0.03125 1.84375 -0.015625 2.234375 0 L 2.234375 -0.28125 C 1.65625 -0.28125 1.5625 -0.28125 1.5625 -0.6875 L 1.5625 -1.578125 L 2.125 -2.0625 L 2.984375 -0.890625 C 3.125 -0.703125 3.203125 -0.59375 3.203125 -0.46875 C 3.203125 -0.375 3.171875 -0.28125 2.890625 -0.28125 L 2.890625 0 C 3.296875 -0.015625 3.515625 -0.03125 3.859375 -0.03125 C 4.109375 -0.03125 4.40625 -0.03125 4.65625 0 L 4.65625 -0.28125 C 4.359375 -0.28125 4.15625 -0.28125 3.828125 -0.71875 L 2.5625 -2.421875 C 3.4375 -3.1875 3.84375 -3.53125 4.453125 -3.5625 L 4.453125 -3.828125 C 4.140625 -3.8125 4.125 -3.8125 3.796875 -3.8125 C 3.53125 -3.8125 3.296875 -3.8125 2.8125 -3.828125 L 2.8125 -3.5625 C 2.953125 -3.546875 3.0625 -3.484375 3.0625 -3.34375 C 3.0625 -3.171875 2.921875 -3.0625 2.84375 -2.984375 Z M 1.578125 -1.921875 "/>
</g>
<g id="glyph-0-15">
<path d="M 1.109375 -1.59375 C 1.328125 -1.453125 1.609375 -1.3125 2.015625 -1.3125 C 2.859375 -1.3125 3.5 -1.921875 3.5 -2.625 C 3.5 -3.0625 3.25 -3.359375 3.140625 -3.484375 C 3.5 -3.8125 3.90625 -3.8125 4.015625 -3.8125 C 3.96875 -3.78125 3.90625 -3.734375 3.90625 -3.578125 C 3.90625 -3.46875 3.96875 -3.3125 4.171875 -3.3125 C 4.296875 -3.3125 4.4375 -3.390625 4.4375 -3.578125 C 4.4375 -3.75 4.3125 -4.03125 3.953125 -4.03125 C 3.703125 -4.03125 3.296875 -3.921875 2.984375 -3.609375 C 2.75 -3.8125 2.40625 -3.921875 2.03125 -3.921875 C 1.1875 -3.921875 0.546875 -3.328125 0.546875 -2.625 C 0.546875 -2.171875 0.8125 -1.84375 0.953125 -1.71875 C 0.9375 -1.703125 0.6875 -1.390625 0.6875 -0.984375 C 0.6875 -0.671875 0.828125 -0.359375 1.0625 -0.203125 C 0.609375 -0.046875 0.265625 0.28125 0.265625 0.6875 C 0.265625 1.328125 1.140625 1.828125 2.28125 1.828125 C 3.375 1.828125 4.296875 1.359375 4.296875 0.671875 C 4.296875 0.3125 4.140625 -0.078125 3.8125 -0.296875 C 3.3125 -0.609375 2.796875 -0.609375 1.953125 -0.609375 C 1.765625 -0.609375 1.484375 -0.609375 1.40625 -0.625 C 1.15625 -0.671875 0.984375 -0.921875 0.984375 -1.203125 C 0.984375 -1.34375 1.03125 -1.46875 1.109375 -1.59375 Z M 2.015625 -1.5625 C 1.234375 -1.5625 1.234375 -2.421875 1.234375 -2.625 C 1.234375 -2.859375 1.25 -3.171875 1.390625 -3.375 C 1.53125 -3.5625 1.765625 -3.6875 2.015625 -3.6875 C 2.8125 -3.6875 2.8125 -2.828125 2.8125 -2.625 C 2.8125 -2.421875 2.8125 -1.5625 2.015625 -1.5625 Z M 2.421875 -0.046875 C 2.71875 -0.046875 3.8125 -0.03125 3.8125 0.6875 C 3.8125 1.1875 3.125 1.59375 2.28125 1.59375 C 1.40625 1.59375 0.75 1.171875 0.75 0.6875 C 0.75 0.546875 0.84375 -0.046875 1.609375 -0.046875 Z M 2.421875 -0.046875 "/>
</g>
<g id="glyph-0-16">
<path d="M 2.046875 -5.375 C 2.046875 -5.6875 2.0625 -5.796875 2.78125 -5.796875 L 3 -5.796875 L 3 -6.078125 C 2.625 -6.046875 2.03125 -6.046875 1.640625 -6.046875 C 1.265625 -6.046875 0.65625 -6.046875 0.296875 -6.078125 L 0.296875 -5.796875 L 0.515625 -5.796875 C 1.234375 -5.796875 1.25 -5.6875 1.25 -5.375 L 1.25 -0.703125 C 1.25 -0.375 1.234375 -0.28125 0.515625 -0.28125 L 0.296875 -0.28125 L 0.296875 0 C 0.65625 -0.03125 1.265625 -0.03125 1.640625 -0.03125 C 2.03125 -0.03125 2.625 -0.03125 3 0 L 3 -0.28125 L 2.78125 -0.28125 C 2.0625 -0.28125 2.046875 -0.375 2.046875 -0.703125 Z M 2.046875 -5.375 "/>
</g>
<g id="glyph-0-17">
<path d="M 1.578125 -2.03125 C 1.578125 -2.40625 1.6875 -3.703125 2.6875 -3.703125 C 2.671875 -3.6875 2.53125 -3.578125 2.53125 -3.375 C 2.53125 -3.125 2.71875 -2.984375 2.921875 -2.984375 C 3.109375 -2.984375 3.3125 -3.109375 3.3125 -3.375 C 3.3125 -3.65625 3.046875 -3.921875 2.65625 -3.921875 C 2.109375 -3.921875 1.75 -3.5625 1.53125 -3 L 1.53125 -3.921875 L 0.265625 -3.828125 L 0.265625 -3.5625 C 0.875 -3.5625 0.953125 -3.5 0.953125 -3.0625 L 0.953125 -0.6875 C 0.953125 -0.28125 0.859375 -0.28125 0.265625 -0.28125 L 0.265625 0 C 0.734375 -0.015625 0.859375 -0.03125 1.3125 -0.03125 C 1.65625 -0.03125 1.875 -0.015625 2.4375 0 L 2.4375 -0.28125 L 2.265625 -0.28125 C 1.609375 -0.28125 1.578125 -0.375 1.578125 -0.703125 Z M 1.578125 -2.03125 "/>
</g>
<g id="glyph-0-18">
<path d="M 2.03125 -3.140625 L 2.03125 -5.4375 C 2.03125 -5.65625 2.046875 -5.75 2.21875 -5.78125 C 2.296875 -5.796875 2.59375 -5.796875 2.78125 -5.796875 C 3.53125 -5.796875 4.671875 -5.796875 4.671875 -4.46875 C 4.671875 -3.703125 4.28125 -3.140625 3.0625 -3.140625 Z M 4.03125 -3.015625 C 4.875 -3.25 5.578125 -3.78125 5.578125 -4.46875 C 5.578125 -5.359375 4.5 -6.078125 3.1875 -6.078125 L 0.359375 -6.078125 L 0.359375 -5.796875 L 0.5625 -5.796875 C 1.25 -5.796875 1.265625 -5.703125 1.265625 -5.375 L 1.265625 -0.703125 C 1.265625 -0.375 1.25 -0.28125 0.5625 -0.28125 L 0.359375 -0.28125 L 0.359375 0 C 0.78125 -0.03125 1.21875 -0.03125 1.640625 -0.03125 C 2.078125 -0.03125 2.515625 -0.03125 2.9375 0 L 2.9375 -0.28125 L 2.734375 -0.28125 C 2.046875 -0.28125 2.03125 -0.375 2.03125 -0.703125 L 2.03125 -2.921875 L 3.109375 -2.921875 C 3.75 -2.921875 4.03125 -2.59375 4.0625 -2.546875 C 4.328125 -2.21875 4.328125 -2.09375 4.328125 -1.453125 C 4.328125 -0.859375 4.328125 -0.46875 4.75 -0.140625 C 5.171875 0.203125 5.703125 0.203125 5.8125 0.203125 C 6.546875 0.203125 6.6875 -0.578125 6.6875 -0.796875 C 6.6875 -0.84375 6.6875 -0.953125 6.5625 -0.953125 C 6.453125 -0.953125 6.453125 -0.875 6.4375 -0.796875 C 6.390625 -0.234375 6.109375 -0.03125 5.84375 -0.03125 C 5.5625 -0.03125 5.453125 -0.203125 5.390625 -0.359375 C 5.3125 -0.546875 5.234375 -1.15625 5.171875 -1.5625 C 5.109375 -2.109375 5.015625 -2.703125 4.03125 -3.015625 Z M 4.03125 -3.015625 "/>
</g>
<g id="glyph-0-19">
<path d="M 2.671875 -3.5625 L 2.671875 -3.828125 L 1.609375 -3.828125 L 1.609375 -4.84375 C 1.609375 -5.640625 2.046875 -6.046875 2.421875 -6.046875 C 2.515625 -6.046875 2.609375 -6.03125 2.6875 -6 C 2.609375 -5.953125 2.46875 -5.84375 2.46875 -5.625 C 2.46875 -5.390625 2.625 -5.234375 2.859375 -5.234375 C 3.09375 -5.234375 3.25 -5.40625 3.25 -5.640625 C 3.25 -5.96875 2.921875 -6.265625 2.421875 -6.265625 C 1.734375 -6.265625 1 -5.75 1 -4.859375 L 1 -3.828125 L 0.296875 -3.828125 L 0.296875 -3.5625 L 1 -3.5625 L 1 -0.6875 C 1 -0.28125 0.90625 -0.28125 0.3125 -0.28125 L 0.3125 0 C 0.796875 -0.015625 0.90625 -0.03125 1.359375 -0.03125 C 1.71875 -0.03125 1.921875 -0.015625 2.484375 0 L 2.484375 -0.28125 L 2.3125 -0.28125 C 1.65625 -0.28125 1.640625 -0.375 1.640625 -0.703125 L 1.640625 -3.5625 Z M 2.671875 -3.5625 "/>
</g>
<g id="glyph-1-0">
<path d="M 0.375 -5.40625 L 0.375 -5.140625 L 0.546875 -5.140625 C 1.15625 -5.140625 1.171875 -5.046875 1.171875 -4.765625 L 1.171875 -0.640625 C 1.171875 -0.34375 1.15625 -0.265625 0.546875 -0.265625 L 0.375 -0.265625 L 0.375 0 L 3.609375 0 C 4.703125 0 5.46875 -0.703125 5.46875 -1.453125 C 5.46875 -2.09375 4.859375 -2.71875 3.875 -2.828125 C 4.734375 -3 5.234375 -3.53125 5.234375 -4.0625 C 5.234375 -4.765625 4.4375 -5.40625 3.390625 -5.40625 Z M 1.84375 -2.921875 L 1.84375 -4.8125 C 1.84375 -5.078125 1.859375 -5.140625 2.234375 -5.140625 L 3.328125 -5.140625 C 4.109375 -5.140625 4.46875 -4.53125 4.46875 -4.0625 C 4.46875 -3.53125 4 -2.921875 3.09375 -2.921875 Z M 2.234375 -0.265625 C 1.859375 -0.265625 1.84375 -0.3125 1.84375 -0.578125 L 1.84375 -2.703125 L 3.453125 -2.703125 C 4.21875 -2.703125 4.671875 -2.078125 4.671875 -1.453125 C 4.671875 -0.8125 4.140625 -0.265625 3.34375 -0.265625 Z M 2.234375 -0.265625 "/>
</g>
<g id="glyph-1-1">
<path d="M 3.265625 -1.796875 C 3.4375 -1.796875 3.484375 -1.796875 3.484375 -1.984375 C 3.484375 -2.6875 3.09375 -3.53125 1.984375 -3.53125 C 1 -3.53125 0.234375 -2.71875 0.234375 -1.734375 C 0.234375 -0.71875 1.09375 0.078125 2.09375 0.078125 C 3.09375 0.078125 3.484375 -0.765625 3.484375 -0.953125 C 3.484375 -0.984375 3.46875 -1.0625 3.359375 -1.0625 C 3.265625 -1.0625 3.25 -1 3.234375 -0.953125 C 2.953125 -0.1875 2.28125 -0.171875 2.140625 -0.171875 C 1.78125 -0.171875 1.421875 -0.328125 1.171875 -0.703125 C 0.9375 -1.0625 0.9375 -1.5625 0.9375 -1.796875 Z M 0.953125 -2.015625 C 1.015625 -3.109375 1.6875 -3.3125 1.984375 -3.3125 C 2.90625 -3.3125 2.9375 -2.1875 2.953125 -2.015625 Z M 0.953125 -2.015625 "/>
</g>
<g id="glyph-1-2">
<path d="M 3.84375 -2.390625 C 3.84375 -3.0625 3.546875 -3.484375 2.71875 -3.484375 C 2.015625 -3.484375 1.65625 -3.046875 1.515625 -2.796875 L 1.5 -2.796875 L 1.5 -5.484375 L 0.328125 -5.40625 L 0.328125 -5.140625 C 0.859375 -5.140625 0.921875 -5.078125 0.921875 -4.703125 L 0.921875 -0.609375 C 0.921875 -0.265625 0.828125 -0.265625 0.328125 -0.265625 L 0.328125 0 C 0.671875 -0.03125 1.015625 -0.03125 1.21875 -0.03125 C 1.453125 -0.03125 1.78125 -0.03125 2.125 0 L 2.125 -0.265625 C 1.625 -0.265625 1.53125 -0.265625 1.53125 -0.609375 L 1.53125 -2.046875 C 1.53125 -2.875 2.15625 -3.265625 2.640625 -3.265625 C 3.125 -3.265625 3.234375 -2.921875 3.234375 -2.421875 L 3.234375 -0.609375 C 3.234375 -0.265625 3.140625 -0.265625 2.640625 -0.265625 L 2.640625 0 C 2.984375 -0.03125 3.328125 -0.03125 3.546875 -0.03125 C 3.765625 -0.03125 4.109375 -0.03125 4.4375 0 L 4.4375 -0.265625 C 3.9375 -0.265625 3.84375 -0.265625 3.84375 -0.609375 Z M 3.84375 -2.390625 "/>
</g>
<g id="glyph-1-3">
<path d="M 3.328125 -2.359375 C 3.328125 -3.125 2.5625 -3.53125 1.84375 -3.53125 C 1.1875 -3.53125 0.609375 -3.265625 0.609375 -2.75 C 0.609375 -2.515625 0.78125 -2.375 0.984375 -2.375 C 1.203125 -2.375 1.359375 -2.53125 1.359375 -2.75 C 1.359375 -2.9375 1.234375 -3.0625 1.0625 -3.109375 C 1.359375 -3.3125 1.78125 -3.3125 1.828125 -3.3125 C 2.28125 -3.3125 2.71875 -3 2.71875 -2.34375 L 2.71875 -2.109375 C 2.265625 -2.078125 1.734375 -2.0625 1.171875 -1.828125 C 0.484375 -1.53125 0.34375 -1.0625 0.34375 -0.8125 C 0.34375 -0.125 1.140625 0.078125 1.6875 0.078125 C 2.265625 0.078125 2.625 -0.25 2.796875 -0.5625 C 2.84375 -0.265625 3.046875 0.046875 3.390625 0.046875 C 3.46875 0.046875 4.140625 0.015625 4.140625 -0.71875 L 4.140625 -1.140625 L 3.890625 -1.140625 L 3.890625 -0.71875 C 3.890625 -0.390625 3.78125 -0.265625 3.609375 -0.265625 C 3.328125 -0.265625 3.328125 -0.625 3.328125 -0.71875 Z M 2.71875 -1.109375 C 2.71875 -0.34375 2.078125 -0.140625 1.75 -0.140625 C 1.34375 -0.140625 1 -0.421875 1 -0.796875 C 1 -1.328125 1.484375 -1.859375 2.71875 -1.890625 Z M 2.71875 -1.109375 "/>
</g>
<g id="glyph-1-4">
<path d="M 3.5 -2.59375 C 3.6875 -3.03125 3.96875 -3.140625 4.25 -3.140625 L 4.25 -3.40625 C 3.984375 -3.390625 3.96875 -3.390625 3.640625 -3.390625 C 3.5625 -3.390625 3.1875 -3.390625 2.953125 -3.40625 L 2.953125 -3.140625 C 3.21875 -3.125 3.296875 -2.953125 3.296875 -2.828125 C 3.296875 -2.75 3.28125 -2.703125 3.25 -2.625 L 2.390625 -0.640625 L 1.46875 -2.78125 C 1.421875 -2.890625 1.421875 -2.9375 1.421875 -2.953125 C 1.421875 -3.140625 1.703125 -3.140625 1.828125 -3.140625 L 1.828125 -3.40625 C 1.5 -3.390625 1.125 -3.390625 0.96875 -3.390625 C 0.8125 -3.390625 0.421875 -3.390625 0.171875 -3.40625 L 0.171875 -3.140625 C 0.65625 -3.140625 0.703125 -3.09375 0.8125 -2.828125 L 2 -0.09375 C 2.0625 0.03125 2.109375 0.078125 2.21875 0.078125 C 2.328125 0.078125 2.375 0.015625 2.421875 -0.078125 Z M 3.5 -2.59375 "/>
</g>
<g id="glyph-1-5">
<path d="M 1.546875 -4.875 C 1.546875 -5.09375 1.359375 -5.3125 1.09375 -5.3125 C 0.875 -5.3125 0.671875 -5.125 0.671875 -4.875 C 0.671875 -4.59375 0.890625 -4.4375 1.09375 -4.4375 C 1.375 -4.4375 1.546875 -4.671875 1.546875 -4.875 Z M 0.359375 -3.40625 L 0.359375 -3.140625 C 0.859375 -3.140625 0.9375 -3.09375 0.9375 -2.703125 L 0.9375 -0.609375 C 0.9375 -0.265625 0.84375 -0.265625 0.328125 -0.265625 L 0.328125 0 C 0.640625 -0.03125 1.078125 -0.03125 1.203125 -0.03125 C 1.296875 -0.03125 1.78125 -0.03125 2.0625 0 L 2.0625 -0.265625 C 1.546875 -0.265625 1.515625 -0.296875 1.515625 -0.609375 L 1.515625 -3.484375 Z M 0.359375 -3.40625 "/>
</g>
<g id="glyph-1-6">
<path d="M 3.953125 -1.6875 C 3.953125 -2.671875 3.140625 -3.53125 2.09375 -3.53125 C 1.046875 -3.53125 0.234375 -2.671875 0.234375 -1.6875 C 0.234375 -0.703125 1.078125 0.078125 2.09375 0.078125 C 3.109375 0.078125 3.953125 -0.703125 3.953125 -1.6875 Z M 2.09375 -0.171875 C 1.671875 -0.171875 1.34375 -0.375 1.15625 -0.640625 C 0.96875 -0.96875 0.9375 -1.359375 0.9375 -1.75 C 0.9375 -2.0625 0.9375 -2.53125 1.1875 -2.875 C 1.390625 -3.140625 1.71875 -3.3125 2.09375 -3.3125 C 2.5 -3.3125 2.84375 -3.109375 3.03125 -2.828125 C 3.234375 -2.5 3.25 -2.078125 3.25 -1.75 C 3.25 -1.390625 3.234375 -0.953125 3.015625 -0.625 C 2.796875 -0.3125 2.4375 -0.171875 2.09375 -0.171875 Z M 2.09375 -0.171875 "/>
</g>
<g id="glyph-1-7">
<path d="M 1.453125 -1.796875 C 1.453125 -2.390625 1.703125 -3.25 2.453125 -3.265625 C 2.40625 -3.234375 2.328125 -3.171875 2.328125 -2.984375 C 2.328125 -2.75 2.515625 -2.625 2.6875 -2.625 C 2.875 -2.625 3.03125 -2.765625 3.03125 -2.984375 C 3.03125 -3.265625 2.78125 -3.484375 2.4375 -3.484375 C 1.921875 -3.484375 1.578125 -3.09375 1.40625 -2.65625 L 1.40625 -3.484375 L 0.28125 -3.40625 L 0.28125 -3.140625 C 0.8125 -3.140625 0.875 -3.078125 0.875 -2.703125 L 0.875 -0.609375 C 0.875 -0.265625 0.78125 -0.265625 0.28125 -0.265625 L 0.28125 0 C 0.578125 -0.03125 1.015625 -0.03125 1.203125 -0.03125 C 1.671875 -0.03125 1.6875 -0.03125 2.203125 0 L 2.203125 -0.265625 L 2.046875 -0.265625 C 1.46875 -0.265625 1.453125 -0.34375 1.453125 -0.625 Z M 1.453125 -1.796875 "/>
</g>
<g id="glyph-1-8">
<path d="M 2.90625 -3.140625 C 2.6875 -3.0625 2.65625 -2.890625 2.65625 -2.796875 C 2.65625 -2.578125 2.8125 -2.421875 3.03125 -2.421875 C 3.234375 -2.421875 3.40625 -2.5625 3.40625 -2.796875 C 3.40625 -3.28125 2.859375 -3.53125 2.125 -3.53125 C 1.015625 -3.53125 0.28125 -2.65625 0.28125 -1.703125 C 0.28125 -0.703125 1.09375 0.078125 2.09375 0.078125 C 3.203125 0.078125 3.484375 -0.859375 3.484375 -0.953125 C 3.484375 -1.046875 3.390625 -1.046875 3.359375 -1.046875 C 3.3125 -1.046875 3.265625 -1.03125 3.234375 -0.953125 C 3.1875 -0.796875 2.96875 -0.171875 2.171875 -0.171875 C 1.6875 -0.171875 0.984375 -0.546875 0.984375 -1.71875 C 0.984375 -2.859375 1.5625 -3.28125 2.140625 -3.28125 C 2.21875 -3.28125 2.625 -3.28125 2.90625 -3.140625 Z M 2.90625 -3.140625 "/>
</g>
<g id="glyph-1-9">
<path d="M 1.515625 -5.484375 L 0.328125 -5.40625 L 0.328125 -5.140625 C 0.875 -5.140625 0.9375 -5.078125 0.9375 -4.703125 L 0.9375 -0.609375 C 0.9375 -0.265625 0.84375 -0.265625 0.328125 -0.265625 L 0.328125 0 C 0.640625 -0.03125 1.078125 -0.03125 1.21875 -0.03125 C 1.375 -0.03125 1.796875 -0.03125 2.109375 0 L 2.109375 -0.265625 C 1.609375 -0.265625 1.515625 -0.265625 1.515625 -0.609375 Z M 1.515625 -5.484375 "/>
</g>
<g id="glyph-1-10">
<path d="M 3.84375 -2.390625 C 3.84375 -3.0625 3.546875 -3.484375 2.71875 -3.484375 C 1.921875 -3.484375 1.578125 -2.921875 1.484375 -2.734375 L 1.46875 -2.734375 L 1.46875 -3.484375 L 0.328125 -3.40625 L 0.328125 -3.140625 C 0.859375 -3.140625 0.921875 -3.078125 0.921875 -2.703125 L 0.921875 -0.609375 C 0.921875 -0.265625 0.828125 -0.265625 0.328125 -0.265625 L 0.328125 0 C 0.671875 -0.03125 1.015625 -0.03125 1.21875 -0.03125 C 1.453125 -0.03125 1.78125 -0.03125 2.125 0 L 2.125 -0.265625 C 1.625 -0.265625 1.53125 -0.265625 1.53125 -0.609375 L 1.53125 -2.046875 C 1.53125 -2.875 2.15625 -3.265625 2.640625 -3.265625 C 3.125 -3.265625 3.234375 -2.921875 3.234375 -2.421875 L 3.234375 -0.609375 C 3.234375 -0.265625 3.140625 -0.265625 2.640625 -0.265625 L 2.640625 0 C 2.984375 -0.03125 3.328125 -0.03125 3.546875 -0.03125 C 3.765625 -0.03125 4.109375 -0.03125 4.4375 0 L 4.4375 -0.265625 C 3.9375 -0.265625 3.84375 -0.265625 3.84375 -0.609375 Z M 3.84375 -2.390625 "/>
</g>
<g id="glyph-1-11">
<path d="M 1.375 -0.546875 C 1.125 -0.5625 0.921875 -0.78125 0.921875 -1.0625 C 0.921875 -1.25 0.96875 -1.328125 1.03125 -1.40625 C 1.359375 -1.203125 1.671875 -1.15625 1.859375 -1.15625 C 2.640625 -1.15625 3.21875 -1.703125 3.21875 -2.328125 C 3.21875 -2.625 3.078125 -2.875 2.890625 -3.078125 C 3 -3.171875 3.265625 -3.34375 3.65625 -3.359375 C 3.625 -3.328125 3.578125 -3.28125 3.578125 -3.15625 C 3.578125 -3.015625 3.6875 -2.921875 3.828125 -2.921875 C 3.9375 -2.921875 4.078125 -2.984375 4.078125 -3.171875 C 4.078125 -3.3125 3.96875 -3.578125 3.625 -3.578125 C 3.484375 -3.578125 3.109375 -3.546875 2.75 -3.203125 C 2.546875 -3.359375 2.234375 -3.484375 1.859375 -3.484375 C 1.078125 -3.484375 0.5 -2.9375 0.5 -2.328125 C 0.5 -1.953125 0.71875 -1.671875 0.875 -1.515625 C 0.703125 -1.328125 0.640625 -1.0625 0.640625 -0.875 C 0.640625 -0.546875 0.796875 -0.3125 0.96875 -0.171875 C 0.5625 -0.0625 0.234375 0.25 0.234375 0.609375 C 0.234375 1.171875 1.046875 1.625 2.09375 1.625 C 3.078125 1.625 3.953125 1.21875 3.953125 0.59375 C 3.953125 0.171875 3.703125 -0.171875 3.4375 -0.296875 C 2.96875 -0.546875 2.578125 -0.546875 1.8125 -0.546875 Z M 1.859375 -1.390625 C 1.125 -1.390625 1.125 -2.15625 1.125 -2.328125 C 1.125 -2.609375 1.171875 -2.828125 1.28125 -2.984375 C 1.421875 -3.15625 1.640625 -3.25 1.859375 -3.25 C 2.59375 -3.25 2.59375 -2.5 2.59375 -2.328125 C 2.59375 -2.03125 2.546875 -1.828125 2.4375 -1.671875 C 2.265625 -1.453125 2.015625 -1.390625 1.859375 -1.390625 Z M 2.234375 -0.03125 C 2.453125 -0.03125 3.484375 -0.03125 3.484375 0.59375 C 3.484375 1.03125 2.875 1.390625 2.09375 1.390625 C 1.296875 1.390625 0.703125 1.03125 0.703125 0.59375 C 0.703125 0.4375 0.828125 -0.03125 1.484375 -0.03125 Z M 2.234375 -0.03125 "/>
</g>
<g id="glyph-1-12">
<path d="M 0.359375 -5.40625 L 0.359375 -5.140625 L 0.53125 -5.140625 C 1.140625 -5.140625 1.15625 -5.046875 1.15625 -4.765625 L 1.15625 -0.640625 C 1.15625 -0.34375 1.140625 -0.265625 0.53125 -0.265625 L 0.359375 -0.265625 L 0.359375 0 L 3.375 0 C 4.796875 0 5.9375 -1.1875 5.9375 -2.65625 C 5.9375 -4.171875 4.78125 -5.40625 3.375 -5.40625 Z M 2.25 -0.265625 C 1.875 -0.265625 1.859375 -0.3125 1.859375 -0.578125 L 1.859375 -4.8125 C 1.859375 -5.078125 1.875 -5.140625 2.25 -5.140625 L 3.15625 -5.140625 C 3.765625 -5.140625 4.28125 -4.890625 4.640625 -4.484375 C 5.140625 -3.890625 5.140625 -3.046875 5.140625 -2.65625 C 5.140625 -2.25 5.140625 -1.484375 4.640625 -0.890625 C 4.359375 -0.5625 3.859375 -0.265625 3.15625 -0.265625 Z M 2.25 -0.265625 "/>
</g>
<g id="glyph-1-13">
<path d="M 3.34375 -5.46875 C 3.3125 -5.578125 3.28125 -5.640625 3.140625 -5.640625 C 3 -5.640625 2.984375 -5.578125 2.9375 -5.46875 L 1.171875 -0.8125 C 1.09375 -0.59375 0.9375 -0.265625 0.28125 -0.265625 L 0.28125 0 C 0.53125 -0.03125 0.953125 -0.03125 1.09375 -0.03125 C 1.359375 -0.03125 1.59375 -0.03125 1.96875 0 L 1.96875 -0.265625 C 1.625 -0.265625 1.421875 -0.421875 1.421875 -0.65625 C 1.421875 -0.71875 1.421875 -0.734375 1.46875 -0.828125 L 1.828125 -1.8125 L 3.984375 -1.8125 L 4.421875 -0.640625 C 4.46875 -0.546875 4.46875 -0.515625 4.46875 -0.5 C 4.46875 -0.265625 4.0625 -0.265625 3.828125 -0.265625 L 3.828125 0 C 4.5 -0.03125 4.515625 -0.03125 4.953125 -0.03125 C 5.40625 -0.03125 5.546875 -0.03125 6 0 L 6 -0.265625 L 5.859375 -0.265625 C 5.375 -0.265625 5.296875 -0.328125 5.1875 -0.578125 Z M 2.90625 -4.65625 L 3.875 -2.078125 L 1.921875 -2.078125 Z M 2.90625 -4.65625 "/>
</g>
<g id="glyph-1-14">
<path d="M 5.234375 -4.609375 C 5.453125 -5.125 5.953125 -5.140625 6.109375 -5.140625 L 6.109375 -5.40625 C 5.875 -5.375 5.484375 -5.375 5.328125 -5.375 C 5.171875 -5.375 4.8125 -5.375 4.453125 -5.40625 L 4.453125 -5.140625 C 4.8125 -5.140625 5 -4.96875 5 -4.75 C 5 -4.6875 4.984375 -4.671875 4.953125 -4.578125 L 3.390625 -0.75 L 1.734375 -4.765625 C 1.703125 -4.84375 1.6875 -4.875 1.6875 -4.90625 C 1.6875 -5.140625 2.109375 -5.140625 2.296875 -5.140625 L 2.296875 -5.40625 C 1.625 -5.375 1.609375 -5.375 1.1875 -5.375 C 0.8125 -5.375 0.578125 -5.375 0.171875 -5.40625 L 0.171875 -5.140625 C 0.640625 -5.140625 0.828125 -5.140625 0.953125 -4.84375 L 2.921875 -0.015625 C 2.984375 0.140625 3.046875 0.171875 3.140625 0.171875 C 3.28125 0.171875 3.3125 0.109375 3.359375 -0.015625 Z M 5.234375 -4.609375 "/>
</g>
<g id="glyph-1-15">
<path d="M 2.640625 -3.40625 L 2.640625 -3.140625 C 3.171875 -3.140625 3.234375 -3.078125 3.234375 -2.703125 L 3.234375 -1.328125 C 3.234375 -0.640625 2.828125 -0.140625 2.234375 -0.140625 C 1.5625 -0.140625 1.53125 -0.484375 1.53125 -0.875 L 1.53125 -3.484375 L 0.328125 -3.40625 L 0.328125 -3.140625 C 0.921875 -3.140625 0.921875 -3.109375 0.921875 -2.40625 L 0.921875 -1.21875 C 0.921875 -0.65625 0.921875 0.078125 2.1875 0.078125 C 2.9375 0.078125 3.21875 -0.484375 3.25 -0.5625 L 3.265625 -0.5625 L 3.265625 0.078125 L 4.4375 0 L 4.4375 -0.265625 C 3.90625 -0.265625 3.84375 -0.3125 3.84375 -0.703125 L 3.84375 -3.484375 Z M 2.640625 -3.40625 "/>
</g>
<g id="glyph-1-16">
<path d="M 2.328125 -1.453125 L 2.328125 -1.953125 L 0.09375 -1.953125 L 0.09375 -1.453125 Z M 2.328125 -1.453125 "/>
</g>
<g id="glyph-1-17">
<path d="M 1.453125 -5.484375 L 0.28125 -5.40625 L 0.28125 -5.140625 C 0.8125 -5.140625 0.875 -5.078125 0.875 -4.703125 L 0.875 0 L 1.125 0 L 1.40625 -0.484375 C 1.59375 -0.21875 1.96875 0.078125 2.5 0.078125 C 3.515625 0.078125 4.375 -0.703125 4.375 -1.703125 C 4.375 -2.703125 3.5625 -3.484375 2.59375 -3.484375 C 1.96875 -3.484375 1.59375 -3.140625 1.453125 -3 Z M 1.484375 -2.5 C 1.484375 -2.65625 1.484375 -2.671875 1.59375 -2.8125 C 1.828125 -3.09375 2.203125 -3.265625 2.546875 -3.265625 C 2.96875 -3.265625 3.265625 -3.015625 3.4375 -2.78125 C 3.5625 -2.5625 3.671875 -2.296875 3.671875 -1.71875 C 3.671875 -1.53125 3.671875 -0.96875 3.390625 -0.59375 C 3.109375 -0.25 2.734375 -0.140625 2.46875 -0.140625 C 2.09375 -0.140625 1.78125 -0.34375 1.578125 -0.640625 C 1.484375 -0.796875 1.484375 -0.8125 1.484375 -0.953125 Z M 1.484375 -2.5 "/>
</g>
<g id="glyph-1-18">
<path d="M 2.8125 -3.328125 C 2.8125 -3.453125 2.8125 -3.53125 2.71875 -3.53125 C 2.671875 -3.53125 2.65625 -3.53125 2.515625 -3.40625 C 2.5 -3.390625 2.4375 -3.328125 2.40625 -3.328125 C 2.40625 -3.328125 2.390625 -3.328125 2.34375 -3.359375 C 2.21875 -3.4375 1.984375 -3.53125 1.625 -3.53125 C 0.515625 -3.53125 0.28125 -2.921875 0.28125 -2.546875 C 0.28125 -2.15625 0.5625 -1.921875 0.59375 -1.890625 C 0.90625 -1.65625 1.09375 -1.625 1.625 -1.53125 C 2 -1.46875 2.59375 -1.359375 2.59375 -0.8125 C 2.59375 -0.5 2.390625 -0.140625 1.671875 -0.140625 C 0.875 -0.140625 0.640625 -0.765625 0.53125 -1.171875 C 0.5 -1.28125 0.5 -1.328125 0.40625 -1.328125 C 0.28125 -1.328125 0.28125 -1.25 0.28125 -1.109375 L 0.28125 -0.125 C 0.28125 0 0.28125 0.078125 0.375 0.078125 C 0.421875 0.078125 0.4375 0.078125 0.578125 -0.078125 C 0.609375 -0.125 0.703125 -0.21875 0.75 -0.265625 C 1.09375 0.0625 1.46875 0.078125 1.671875 0.078125 C 2.6875 0.078125 3.03125 -0.5 3.03125 -1.015625 C 3.03125 -1.40625 2.796875 -1.953125 1.859375 -2.125 C 1.796875 -2.140625 1.359375 -2.21875 1.328125 -2.21875 C 1.078125 -2.28125 0.703125 -2.4375 0.703125 -2.765625 C 0.703125 -3 0.875 -3.328125 1.625 -3.328125 C 2.515625 -3.328125 2.546875 -2.6875 2.5625 -2.453125 C 2.578125 -2.390625 2.625 -2.375 2.6875 -2.375 C 2.8125 -2.375 2.8125 -2.421875 2.8125 -2.578125 Z M 2.8125 -3.328125 "/>
</g>
<g id="glyph-1-19">
<path d="M 2.59375 -5.40625 L 2.59375 -5.140625 C 3.140625 -5.140625 3.203125 -5.078125 3.203125 -4.703125 L 3.203125 -3.03125 C 2.921875 -3.328125 2.546875 -3.484375 2.140625 -3.484375 C 1.15625 -3.484375 0.28125 -2.71875 0.28125 -1.703125 C 0.28125 -0.734375 1.0625 0.078125 2.0625 0.078125 C 2.53125 0.078125 2.921875 -0.140625 3.171875 -0.421875 L 3.171875 0.078125 L 4.375 0 L 4.375 -0.265625 C 3.84375 -0.265625 3.78125 -0.3125 3.78125 -0.703125 L 3.78125 -5.484375 Z M 3.171875 -0.984375 C 3.171875 -0.84375 3.171875 -0.8125 3.0625 -0.640625 C 2.84375 -0.328125 2.46875 -0.140625 2.109375 -0.140625 C 1.734375 -0.140625 1.421875 -0.328125 1.234375 -0.625 C 1.015625 -0.9375 0.984375 -1.328125 0.984375 -1.6875 C 0.984375 -2.15625 1.046875 -2.46875 1.234375 -2.75 C 1.421875 -3.046875 1.78125 -3.265625 2.1875 -3.265625 C 2.5625 -3.265625 2.9375 -3.078125 3.171875 -2.671875 Z M 3.171875 -0.984375 "/>
</g>
<g id="glyph-1-20">
<path d="M 4.34375 -0.0625 C 5.078125 -0.34375 6.0625 -1.25 6.0625 -2.6875 C 6.0625 -4.265625 4.796875 -5.5625 3.265625 -5.5625 C 1.703125 -5.5625 0.46875 -4.265625 0.46875 -2.6875 C 0.46875 -1.078125 1.734375 0.171875 3.265625 0.171875 C 3.515625 0.171875 3.78125 0.125 4.03125 0.0625 C 4.203125 0.859375 4.34375 1.53125 5.078125 1.53125 C 5.890625 1.53125 6.109375 0.515625 6.109375 0.078125 C 6.109375 0 6.109375 -0.109375 6 -0.109375 C 5.890625 -0.109375 5.890625 -0.03125 5.875 0.03125 C 5.828125 0.515625 5.453125 0.71875 5.140625 0.71875 C 4.8125 0.71875 4.59375 0.515625 4.34375 -0.0625 Z M 2.65625 -0.1875 C 1.8125 -0.515625 1.265625 -1.359375 1.265625 -2.6875 C 1.265625 -4.578125 2.375 -5.328125 3.25 -5.328125 C 4.171875 -5.328125 5.25 -4.5625 5.25 -2.6875 C 5.25 -1.6875 4.953125 -0.84375 4.21875 -0.359375 C 3.90625 -1.09375 3.53125 -1.1875 3.265625 -1.1875 C 2.875 -1.1875 2.5625 -0.890625 2.5625 -0.515625 C 2.5625 -0.375 2.625 -0.25 2.65625 -0.1875 Z M 3.96875 -0.234375 C 3.703125 -0.109375 3.46875 -0.078125 3.265625 -0.078125 C 2.859375 -0.078125 2.796875 -0.421875 2.796875 -0.515625 C 2.796875 -0.75 2.96875 -0.96875 3.265625 -0.96875 C 3.65625 -0.96875 3.84375 -0.6875 3.96875 -0.234375 Z M 3.96875 -0.234375 "/>
</g>
<g id="glyph-1-21">
<path d="M 1.484375 -0.125 C 1.484375 0.125 1.484375 0.765625 0.875 1.328125 C 0.859375 1.359375 0.828125 1.375 0.828125 1.421875 C 0.828125 1.484375 0.90625 1.53125 0.9375 1.53125 C 1.046875 1.53125 1.703125 0.921875 1.703125 -0.03125 C 1.703125 -0.46875 1.546875 -0.875 1.15625 -0.875 C 0.90625 -0.875 0.734375 -0.671875 0.734375 -0.4375 C 0.734375 -0.203125 0.890625 0 1.171875 0 C 1.34375 0 1.453125 -0.09375 1.484375 -0.125 Z M 1.484375 -0.125 "/>
</g>
<g id="glyph-1-22">
<path d="M 1.921875 -5.28125 C 1.828125 -5.390625 1.828125 -5.40625 1.671875 -5.40625 L 0.34375 -5.40625 L 0.34375 -5.140625 L 0.5625 -5.140625 C 0.71875 -5.140625 0.78125 -5.140625 0.9375 -5.125 C 1.140625 -5.09375 1.140625 -5.09375 1.140625 -4.9375 L 1.140625 -0.84375 C 1.140625 -0.640625 1.140625 -0.265625 0.34375 -0.265625 L 0.34375 0 C 0.703125 -0.03125 1.078125 -0.03125 1.28125 -0.03125 C 1.484375 -0.03125 1.859375 -0.03125 2.21875 0 L 2.21875 -0.265625 C 1.421875 -0.265625 1.421875 -0.640625 1.421875 -0.84375 L 1.421875 -4.875 L 4.84375 -0.125 C 4.90625 -0.03125 4.921875 0 5 0 C 5.140625 0 5.140625 -0.078125 5.140625 -0.21875 L 5.140625 -4.546875 C 5.140625 -4.765625 5.140625 -5.140625 5.9375 -5.140625 L 5.9375 -5.40625 C 5.578125 -5.375 5.203125 -5.375 5 -5.375 C 4.796875 -5.375 4.421875 -5.375 4.078125 -5.40625 L 4.078125 -5.140625 C 4.875 -5.140625 4.875 -4.765625 4.875 -4.546875 L 4.875 -1.171875 Z M 1.921875 -5.28125 "/>
</g>
<g id="glyph-1-23">
<path d="M 1.890625 -2.46875 L 3.328125 -2.46875 C 4.296875 -2.46875 5.234375 -3.09375 5.234375 -3.921875 C 5.234375 -4.703125 4.40625 -5.40625 3.265625 -5.40625 L 0.359375 -5.40625 L 0.359375 -5.140625 L 0.53125 -5.140625 C 1.140625 -5.140625 1.15625 -5.046875 1.15625 -4.765625 L 1.15625 -0.640625 C 1.15625 -0.34375 1.140625 -0.265625 0.53125 -0.265625 L 0.359375 -0.265625 L 0.359375 0 C 1.03125 -0.03125 1.046875 -0.03125 1.53125 -0.03125 C 2 -0.03125 2.015625 -0.03125 2.6875 0 L 2.6875 -0.265625 L 2.515625 -0.265625 C 1.90625 -0.265625 1.890625 -0.34375 1.890625 -0.640625 Z M 1.859375 -2.703125 L 1.859375 -4.8125 C 1.859375 -5.078125 1.875 -5.140625 2.25 -5.140625 L 3.0625 -5.140625 C 4.421875 -5.140625 4.421875 -4.28125 4.421875 -3.921875 C 4.421875 -3.578125 4.421875 -2.703125 3.0625 -2.703125 Z M 1.859375 -2.703125 "/>
</g>
<g id="glyph-1-24">
<path d="M 3.5 -2.609375 C 3.703125 -3.0625 4 -3.140625 4.25 -3.140625 L 4.25 -3.40625 C 3.984375 -3.390625 3.96875 -3.390625 3.625 -3.390625 C 3.59375 -3.390625 3.171875 -3.390625 2.953125 -3.40625 L 2.953125 -3.140625 C 3.171875 -3.125 3.28125 -3 3.28125 -2.828125 C 3.28125 -2.78125 3.28125 -2.71875 3.234375 -2.625 L 2.390625 -0.71875 L 1.484375 -2.78125 C 1.421875 -2.90625 1.421875 -2.921875 1.421875 -2.953125 C 1.421875 -3.140625 1.671875 -3.140625 1.84375 -3.140625 L 1.84375 -3.40625 C 1.484375 -3.390625 1.140625 -3.390625 0.96875 -3.390625 C 0.8125 -3.390625 0.421875 -3.390625 0.171875 -3.40625 L 0.171875 -3.140625 C 0.578125 -3.140625 0.703125 -3.125 0.828125 -2.828125 L 2.078125 0 C 1.71875 0.84375 1.484375 1.390625 0.9375 1.390625 C 0.734375 1.390625 0.609375 1.296875 0.609375 1.296875 C 0.671875 1.28125 0.84375 1.1875 0.84375 0.96875 C 0.84375 0.75 0.6875 0.625 0.5 0.625 C 0.34375 0.625 0.171875 0.734375 0.171875 0.96875 C 0.171875 1.328125 0.5 1.609375 0.9375 1.609375 C 1.640625 1.609375 2.015625 0.765625 2.046875 0.6875 Z M 3.5 -2.609375 "/>
</g>
<g id="glyph-1-25">
<path d="M 3.75 -2.6875 C 4.359375 -2.84375 5.125 -3.296875 5.125 -3.984375 C 5.125 -4.765625 4.125 -5.40625 2.9375 -5.40625 L 0.359375 -5.40625 L 0.359375 -5.140625 L 0.53125 -5.140625 C 1.140625 -5.140625 1.15625 -5.046875 1.15625 -4.765625 L 1.15625 -0.640625 C 1.15625 -0.34375 1.140625 -0.265625 0.53125 -0.265625 L 0.359375 -0.265625 L 0.359375 0 C 1.03125 -0.03125 1.046875 -0.03125 1.515625 -0.03125 C 1.96875 -0.03125 2 -0.03125 2.671875 0 L 2.671875 -0.265625 L 2.484375 -0.265625 C 1.875 -0.265625 1.859375 -0.34375 1.859375 -0.640625 L 1.859375 -2.59375 L 2.859375 -2.59375 C 3.453125 -2.59375 3.703125 -2.296875 3.765625 -2.234375 C 4 -1.984375 4 -1.828125 4 -1.296875 C 4 -0.796875 4 -0.453125 4.328125 -0.171875 C 4.671875 0.125 5.109375 0.171875 5.34375 0.171875 C 6 0.171875 6.15625 -0.484375 6.15625 -0.71875 C 6.15625 -0.765625 6.15625 -0.875 6.03125 -0.875 C 5.90625 -0.875 5.90625 -0.78125 5.90625 -0.734375 C 5.859375 -0.234375 5.59375 -0.0625 5.375 -0.0625 C 4.9375 -0.0625 4.890625 -0.421875 4.75 -1.421875 C 4.703125 -1.875 4.625 -2.421875 3.75 -2.6875 Z M 2.84375 -2.8125 L 1.859375 -2.8125 L 1.859375 -4.8125 C 1.859375 -5.015625 1.875 -5.109375 2.0625 -5.125 C 2.140625 -5.140625 2.390625 -5.140625 2.546875 -5.140625 C 3.25 -5.140625 4.296875 -5.140625 4.296875 -3.984375 C 4.296875 -3.09375 3.671875 -2.8125 2.84375 -2.8125 Z M 2.84375 -2.8125 "/>
</g>
<g id="glyph-1-26">
<path d="M 5.46875 -2.0625 L 5.21875 -2.0625 C 5.015625 -0.875 4.859375 -0.265625 3.4375 -0.265625 L 2.25 -0.265625 C 1.890625 -0.265625 1.875 -0.3125 1.875 -0.578125 L 1.875 -2.671875 L 2.640625 -2.671875 C 3.421875 -2.671875 3.53125 -2.421875 3.53125 -1.734375 L 3.78125 -1.734375 L 3.78125 -3.84375 L 3.53125 -3.84375 C 3.53125 -3.15625 3.421875 -2.921875 2.640625 -2.921875 L 1.875 -2.921875 L 1.875 -4.796875 C 1.875 -5.0625 1.890625 -5.109375 2.25 -5.109375 L 3.375 -5.109375 C 4.6875 -5.109375 4.859375 -4.640625 5 -3.578125 L 5.234375 -3.578125 L 5.015625 -5.375 L 0.34375 -5.375 L 0.34375 -5.109375 L 0.515625 -5.109375 C 1.125 -5.109375 1.140625 -5.03125 1.140625 -4.734375 L 1.140625 -0.640625 C 1.140625 -0.34375 1.125 -0.265625 0.515625 -0.265625 L 0.34375 -0.265625 L 0.34375 0 L 5.125 0 Z M 5.46875 -2.0625 "/>
</g>
<g id="glyph-1-27">
<path d="M 1.875 -4.765625 C 1.875 -5.0625 1.890625 -5.140625 2.515625 -5.140625 L 2.71875 -5.140625 L 2.71875 -5.40625 C 2.078125 -5.375 2.0625 -5.375 1.515625 -5.375 C 0.953125 -5.375 0.9375 -5.375 0.3125 -5.40625 L 0.3125 -5.140625 L 0.5 -5.140625 C 1.125 -5.140625 1.140625 -5.0625 1.140625 -4.765625 L 1.140625 -0.640625 C 1.140625 -0.34375 1.125 -0.265625 0.5 -0.265625 L 0.3125 -0.265625 L 0.3125 0 C 0.9375 -0.03125 0.953125 -0.03125 1.515625 -0.03125 C 2.0625 -0.03125 2.078125 -0.03125 2.71875 0 L 2.71875 -0.265625 L 2.515625 -0.265625 C 1.890625 -0.265625 1.875 -0.34375 1.875 -0.640625 Z M 1.875 -4.765625 "/>
</g>
<g id="glyph-1-28">
<path d="M 4.890625 -5.375 L 0.34375 -5.375 L 0.34375 -5.109375 L 0.515625 -5.109375 C 1.125 -5.109375 1.140625 -5.03125 1.140625 -4.734375 L 1.140625 -0.640625 C 1.140625 -0.34375 1.125 -0.265625 0.515625 -0.265625 L 0.34375 -0.265625 L 0.34375 0 C 1.015625 -0.03125 1.03125 -0.03125 1.5625 -0.03125 C 1.9375 -0.03125 2.515625 -0.03125 2.875 0 L 2.875 -0.265625 L 2.609375 -0.265625 C 1.875 -0.265625 1.875 -0.375 1.875 -0.640625 L 1.875 -2.5625 L 2.609375 -2.5625 C 3.390625 -2.5625 3.484375 -2.3125 3.484375 -1.640625 L 3.71875 -1.640625 L 3.71875 -3.75 L 3.484375 -3.75 C 3.484375 -3.078125 3.390625 -2.828125 2.609375 -2.828125 L 1.875 -2.828125 L 1.875 -4.796875 C 1.875 -5.0625 1.890625 -5.109375 2.25 -5.109375 L 3.3125 -5.109375 C 4.59375 -5.109375 4.75 -4.625 4.875 -3.578125 L 5.125 -3.578125 Z M 4.890625 -5.375 "/>
</g>
<g id="glyph-1-29">
<path d="M 6.0625 -2.6875 C 6.0625 -4.265625 4.796875 -5.5625 3.265625 -5.5625 C 1.703125 -5.5625 0.46875 -4.265625 0.46875 -2.6875 C 0.46875 -1.0625 1.75 0.171875 3.25 0.171875 C 4.796875 0.171875 6.0625 -1.078125 6.0625 -2.6875 Z M 3.265625 -0.09375 C 2.40625 -0.09375 1.28125 -0.8125 1.28125 -2.796875 C 1.28125 -4.6875 2.4375 -5.328125 3.25 -5.328125 C 4.109375 -5.328125 5.234375 -4.65625 5.234375 -2.796875 C 5.234375 -0.796875 4.09375 -0.09375 3.265625 -0.09375 Z M 3.265625 -0.09375 "/>
</g>
<g id="glyph-1-30">
<path d="M 5.59375 -5.359375 C 5.59375 -5.484375 5.59375 -5.5625 5.484375 -5.5625 C 5.4375 -5.5625 5.421875 -5.5625 5.359375 -5.453125 L 4.953125 -4.875 C 4.671875 -5.171875 4.140625 -5.5625 3.390625 -5.5625 C 1.796875 -5.5625 0.46875 -4.296875 0.46875 -2.703125 C 0.46875 -1.109375 1.78125 0.171875 3.390625 0.171875 C 4.71875 0.171875 5.59375 -0.890625 5.59375 -1.84375 C 5.59375 -1.921875 5.59375 -2 5.46875 -2 C 5.375 -2 5.359375 -1.953125 5.34375 -1.875 C 5.28125 -0.671875 4.296875 -0.09375 3.46875 -0.09375 C 2.796875 -0.09375 1.28125 -0.5 1.28125 -2.703125 C 1.28125 -4.828125 2.71875 -5.3125 3.46875 -5.3125 C 4.203125 -5.3125 5.125 -4.78125 5.328125 -3.421875 C 5.34375 -3.359375 5.34375 -3.296875 5.453125 -3.296875 C 5.59375 -3.296875 5.59375 -3.359375 5.59375 -3.5 Z M 5.59375 -5.359375 "/>
</g>
<g id="glyph-1-31">
<path d="M 1.46875 -3.140625 L 2.65625 -3.140625 L 2.65625 -3.40625 L 1.46875 -3.40625 L 1.46875 -4.859375 L 1.21875 -4.859375 C 1.21875 -4.140625 0.890625 -3.390625 0.15625 -3.375 L 0.15625 -3.140625 L 0.875 -3.140625 L 0.875 -0.984375 C 0.875 -0.0625 1.578125 0.078125 1.9375 0.078125 C 2.46875 0.078125 2.796875 -0.390625 2.796875 -0.984375 L 2.796875 -1.4375 L 2.546875 -1.4375 L 2.546875 -1 C 2.546875 -0.453125 2.296875 -0.171875 2 -0.171875 C 1.46875 -0.171875 1.46875 -0.84375 1.46875 -0.96875 Z M 1.46875 -3.140625 "/>
</g>
<g id="glyph-1-32">
<path d="M 4.1875 -2 L 4.1875 -2.21875 L 0 -2.21875 L 0 -2 Z M 4.1875 -2 "/>
</g>
<g id="glyph-1-33">
<path d="M 2.015625 -5.21875 C 1.9375 -5.375 1.9375 -5.40625 1.71875 -5.40625 L 0.390625 -5.40625 L 0.390625 -5.140625 L 0.5625 -5.140625 C 1.171875 -5.140625 1.1875 -5.046875 1.1875 -4.765625 L 1.1875 -0.84375 C 1.1875 -0.640625 1.1875 -0.265625 0.390625 -0.265625 L 0.390625 0 C 0.75 -0.03125 1.109375 -0.03125 1.328125 -0.03125 C 1.53125 -0.03125 1.890625 -0.03125 2.25 0 L 2.25 -0.265625 C 1.453125 -0.265625 1.453125 -0.640625 1.453125 -0.84375 L 1.453125 -5.046875 L 1.46875 -5.046875 L 3.453125 -0.1875 C 3.5 -0.09375 3.53125 0 3.640625 0 C 3.75 0 3.78125 -0.09375 3.828125 -0.1875 L 5.84375 -5.109375 L 5.84375 -0.640625 C 5.84375 -0.34375 5.828125 -0.265625 5.21875 -0.265625 L 5.046875 -0.265625 L 5.046875 0 C 5.671875 -0.03125 5.6875 -0.03125 6.171875 -0.03125 C 6.65625 -0.03125 6.671875 -0.03125 7.296875 0 L 7.296875 -0.265625 L 7.125 -0.265625 C 6.515625 -0.265625 6.5 -0.34375 6.5 -0.640625 L 6.5 -4.765625 C 6.5 -5.046875 6.515625 -5.140625 7.125 -5.140625 L 7.296875 -5.140625 L 7.296875 -5.40625 L 5.96875 -5.40625 C 5.75 -5.40625 5.734375 -5.375 5.671875 -5.234375 L 3.84375 -0.75 Z M 2.015625 -5.21875 "/>
</g>
<g id="glyph-1-34">
<path d="M 4.890625 -2.0625 L 4.65625 -2.0625 C 4.546875 -1.234375 4.4375 -0.265625 2.984375 -0.265625 L 2.25 -0.265625 C 1.890625 -0.265625 1.875 -0.3125 1.875 -0.578125 L 1.875 -4.75 C 1.875 -5.03125 1.875 -5.140625 2.609375 -5.140625 L 2.875 -5.140625 L 2.875 -5.40625 C 2.515625 -5.375 1.9375 -5.375 1.5625 -5.375 C 1.03125 -5.375 1.015625 -5.375 0.34375 -5.40625 L 0.34375 -5.140625 L 0.515625 -5.140625 C 1.125 -5.140625 1.140625 -5.046875 1.140625 -4.765625 L 1.140625 -0.640625 C 1.140625 -0.34375 1.125 -0.265625 0.515625 -0.265625 L 0.34375 -0.265625 L 0.34375 0 L 4.671875 0 Z M 4.890625 -2.0625 "/>
</g>
<g id="glyph-1-35">
<path d="M 2.078125 1.265625 C 1.578125 1.265625 1.484375 1.265625 1.484375 0.921875 L 1.484375 -0.390625 C 1.84375 0.015625 2.25 0.078125 2.5 0.078125 C 3.515625 0.078125 4.375 -0.703125 4.375 -1.703125 C 4.375 -2.703125 3.578125 -3.484375 2.625 -3.484375 C 2.3125 -3.484375 1.859375 -3.40625 1.453125 -3 L 1.453125 -3.484375 L 0.28125 -3.40625 L 0.28125 -3.140625 C 0.84375 -3.140625 0.875 -3.09375 0.875 -2.765625 L 0.875 0.921875 C 0.875 1.265625 0.78125 1.265625 0.28125 1.265625 L 0.28125 1.53125 C 0.609375 1.515625 0.96875 1.515625 1.171875 1.515625 C 1.40625 1.515625 1.734375 1.515625 2.078125 1.53125 Z M 1.484375 -2.625 C 1.65625 -2.953125 2.0625 -3.234375 2.546875 -3.234375 C 3.15625 -3.234375 3.671875 -2.5625 3.671875 -1.703125 C 3.671875 -0.796875 3.109375 -0.140625 2.46875 -0.140625 C 2.1875 -0.140625 1.828125 -0.265625 1.578125 -0.65625 C 1.484375 -0.796875 1.484375 -0.796875 1.484375 -0.953125 Z M 1.484375 -2.625 "/>
</g>
</g>
<clipPath id="clip-0">
<path clip-rule="nonzero" d="M 1.160156 82 L 55 82 L 55 116.179688 L 1.160156 116.179688 Z M 1.160156 82 "/>
</clipPath>
<clipPath id="clip-1">
<path clip-rule="nonzero" d="M 103 82 L 194 82 L 194 116.179688 L 103 116.179688 Z M 103 82 "/>
</clipPath>
<clipPath id="clip-2">
<path clip-rule="nonzero" d="M 180 82 L 258 82 L 258 116.179688 L 180 116.179688 Z M 180 82 "/>
</clipPath>
<clipPath id="clip-3">
<path clip-rule="nonzero" d="M 283 36 L 364.804688 36 L 364.804688 77 L 283 77 Z M 283 36 "/>
</clipPath>
</defs>
<path fill-rule="nonzero" fill="rgb(94.665527%, 94.665527%, 94.665527%)" fill-opacity="1" stroke-width="0.79701" stroke-linecap="butt" stroke-linejoin="miter" stroke="rgb(33.332825%, 33.332825%, 33.332825%)" stroke-opacity="1" stroke-miterlimit="10" d="M 59.409387 12.048417 L -59.408377 12.048417 C -61.061795 12.048417 -62.39634 10.709936 -62.39634 9.060455 L -62.39634 -9.060219 C -62.39634 -10.7097 -61.061795 -12.048181 -59.408377 -12.048181 L 59.409387 -12.048181 C 61.058869 -12.048181 62.39735 -10.7097 62.39735 -9.060219 L 62.39735 9.060455 C 62.39735 10.709936 61.058869 12.048417 59.409387 12.048417 Z M 59.409387 12.048417 " transform="matrix(0.992263, 0, 0, -0.992263, 145.604968, 14.326289)"/>
<g fill="rgb(0%, 0%, 0%)" fill-opacity="1">
<use xlink:href="#glyph-0-0" x="91.599085" y="16.550942"/>
<use xlink:href="#glyph-0-1" x="96.679286" y="16.550942"/>
<use xlink:href="#glyph-0-2" x="100.747005" y="16.550942"/>
<use xlink:href="#glyph-0-3" x="105.572751" y="16.550942"/>
<use xlink:href="#glyph-0-1" x="110.652952" y="16.550942"/>
<use xlink:href="#glyph-0-4" x="114.720672" y="16.550942"/>
</g>
<g fill="rgb(0%, 0%, 0%)" fill-opacity="1">
<use xlink:href="#glyph-0-5" x="119.542859" y="16.550942"/>
<use xlink:href="#glyph-0-6" x="123.099" y="16.550942"/>
<use xlink:href="#glyph-0-7" x="125.6391" y="16.550942"/>
<use xlink:href="#glyph-0-8" x="130.211281" y="16.550942"/>
</g>
<g fill="rgb(0%, 0%, 0%)" fill-opacity="1">
<use xlink:href="#glyph-0-9" x="135.803061" y="16.550942"/>
<use xlink:href="#glyph-0-1" x="140.883262" y="16.550942"/>
<use xlink:href="#glyph-0-10" x="144.950981" y="16.550942"/>
<use xlink:href="#glyph-0-6" x="149.015142" y="16.550942"/>
<use xlink:href="#glyph-0-11" x="151.555243" y="16.550942"/>
<use xlink:href="#glyph-0-6" x="155.162096" y="16.550942"/>
<use xlink:href="#glyph-0-12" x="157.702197" y="16.550942"/>
<use xlink:href="#glyph-0-4" x="162.274378" y="16.550942"/>
</g>
<g fill="rgb(0%, 0%, 0%)" fill-opacity="1">
<use xlink:href="#glyph-0-13" x="170.397361" y="16.550942"/>
<use xlink:href="#glyph-0-7" x="178.017662" y="16.550942"/>
<use xlink:href="#glyph-0-14" x="182.589843" y="16.550942"/>
<use xlink:href="#glyph-0-6" x="187.415589" y="16.550942"/>
<use xlink:href="#glyph-0-4" x="189.95569" y="16.550942"/>
<use xlink:href="#glyph-0-15" x="195.03589" y="16.550942"/>
</g>
<path fill-rule="nonzero" fill="rgb(91.999817%, 95.574951%, 97.584534%)" fill-opacity="1" stroke-width="0.69739" stroke-linecap="butt" stroke-linejoin="miter" stroke="rgb(0%, 44.706726%, 69.802856%)" stroke-opacity="1" stroke-miterlimit="10" d="M -44.566983 -31.180589 L -125.513603 -31.180589 C -127.16702 -31.180589 -128.505502 -32.51907 -128.505502 -34.168552 L -128.505502 -50.87201 C -128.505502 -52.521491 -127.16702 -53.859972 -125.513603 -53.859972 L -44.566983 -53.859972 C -42.913565 -53.859972 -41.57902 -52.521491 -41.57902 -50.87201 L -41.57902 -34.168552 C -41.57902 -32.51907 -42.913565 -31.180589 -44.566983 -31.180589 Z M -44.566983 -31.180589 " transform="matrix(0.992263, 0, 0, -0.992263, 145.604968, 14.326289)"/>
<g fill="rgb(0%, 0%, 0%)" fill-opacity="1">
<use xlink:href="#glyph-0-16" x="25.017265" y="58.741953"/>
<use xlink:href="#glyph-0-13" x="28.318061" y="58.741953"/>
<use xlink:href="#glyph-0-6" x="35.938362" y="58.741953"/>
<use xlink:href="#glyph-0-5" x="38.478463" y="58.741953"/>
<use xlink:href="#glyph-0-7" x="42.034603" y="58.741953"/>
<use xlink:href="#glyph-0-5" x="46.606784" y="58.741953"/>
<use xlink:href="#glyph-0-6" x="50.162925" y="58.741953"/>
<use xlink:href="#glyph-0-12" x="52.703025" y="58.741953"/>
<use xlink:href="#glyph-0-4" x="57.275206" y="58.741953"/>
</g>
<g fill="rgb(0%, 0%, 0%)" fill-opacity="1">
<use xlink:href="#glyph-0-8" x="65.398189" y="58.741953"/>
<use xlink:href="#glyph-0-1" x="67.93829" y="58.741953"/>
<use xlink:href="#glyph-0-7" x="72.006009" y="58.741953"/>
<use xlink:href="#glyph-0-17" x="76.57819" y="58.741953"/>
<use xlink:href="#glyph-0-4" x="80.154794" y="58.741953"/>
<use xlink:href="#glyph-0-6" x="85.234995" y="58.741953"/>
<use xlink:href="#glyph-0-4" x="87.775095" y="58.741953"/>
<use xlink:href="#glyph-0-15" x="92.855296" y="58.741953"/>
</g>
<path fill-rule="nonzero" fill="rgb(91.999817%, 95.574951%, 97.584534%)" fill-opacity="1" stroke-width="0.69739" stroke-linecap="butt" stroke-linejoin="miter" stroke="rgb(0%, 44.706726%, 69.802856%)" stroke-opacity="1" stroke-miterlimit="10" d="M 124.36903 -31.180589 L 23.034192 -31.180589 C 21.384711 -31.180589 20.04623 -32.51907 20.04623 -34.168552 L 20.04623 -50.87201 C 20.04623 -52.521491 21.384711 -53.859972 23.034192 -53.859972 L 124.36903 -53.859972 C 126.018511 -53.859972 127.356993 -52.521491 127.356993 -50.87201 L 127.356993 -34.168552 C 127.356993 -32.51907 126.018511 -31.180589 124.36903 -31.180589 Z M 124.36903 -31.180589 " transform="matrix(0.992263, 0, 0, -0.992263, 145.604968, 14.326289)"/>
<g fill="rgb(0%, 0%, 0%)" fill-opacity="1">
<use xlink:href="#glyph-0-18" x="172.416898" y="58.741953"/>
<use xlink:href="#glyph-0-1" x="179.147497" y="58.741953"/>
<use xlink:href="#glyph-0-6" x="183.215217" y="58.741953"/>
<use xlink:href="#glyph-0-4" x="185.755317" y="58.741953"/>
<use xlink:href="#glyph-0-19" x="190.835518" y="58.741953"/>
<use xlink:href="#glyph-0-12" x="193.629184" y="58.741953"/>
<use xlink:href="#glyph-0-17" x="198.201365" y="58.741953"/>
<use xlink:href="#glyph-0-10" x="201.777968" y="58.741953"/>
<use xlink:href="#glyph-0-1" x="205.842129" y="58.741953"/>
<use xlink:href="#glyph-0-13" x="209.909849" y="58.741953"/>
<use xlink:href="#glyph-0-1" x="217.53015" y="58.741953"/>
<use xlink:href="#glyph-0-4" x="221.59787" y="58.741953"/>
</g>
<g fill="rgb(0%, 0%, 0%)" fill-opacity="1">
<use xlink:href="#glyph-0-5" x="226.420057" y="58.741953"/>
</g>
<g fill="rgb(0%, 0%, 0%)" fill-opacity="1">
<use xlink:href="#glyph-0-8" x="233.027877" y="58.741953"/>
<use xlink:href="#glyph-0-1" x="235.567977" y="58.741953"/>
<use xlink:href="#glyph-0-7" x="239.635697" y="58.741953"/>
<use xlink:href="#glyph-0-17" x="244.207878" y="58.741953"/>
<use xlink:href="#glyph-0-4" x="247.784482" y="58.741953"/>
<use xlink:href="#glyph-0-6" x="252.864682" y="58.741953"/>
<use xlink:href="#glyph-0-4" x="255.404783" y="58.741953"/>
<use xlink:href="#glyph-0-15" x="260.484984" y="58.741953"/>
</g>
<path fill-rule="nonzero" fill="rgb(100%, 100%, 100%)" fill-opacity="1" d="M 43.90625 90.566406 L 5.410156 90.566406 C 4.316406 90.566406 3.433594 91.453125 3.433594 92.542969 L 3.433594 111.929688 C 3.433594 113.023438 4.316406 113.90625 5.410156 113.90625 L 43.90625 113.90625 C 44.996094 113.90625 45.882812 113.023438 45.882812 111.929688 L 45.882812 92.542969 C 45.882812 91.453125 44.996094 90.566406 43.90625 90.566406 Z M 43.90625 90.566406 "/>
<g clip-path="url(#clip-0)">
<path fill="none" stroke-width="0.59776" stroke-linecap="butt" stroke-linejoin="miter" stroke="rgb(29.998779%, 61.294556%, 78.863525%)" stroke-opacity="1" stroke-miterlimit="10" d="M -102.491726 -76.834609 L -141.287997 -76.834609 C -142.390276 -76.834609 -143.279972 -77.728242 -143.279972 -78.826584 L -143.279972 -98.364473 C -143.279972 -99.466751 -142.390276 -100.356448 -141.287997 -100.356448 L -102.491726 -100.356448 C -101.393384 -100.356448 -100.499751 -99.466751 -100.499751 -98.364473 L -100.499751 -78.826584 C -100.499751 -77.728242 -101.393384 -76.834609 -102.491726 -76.834609 Z M -102.491726 -76.834609 " transform="matrix(0.992263, 0, 0, -0.992263, 145.604968, 14.326289)"/>
</g>
<g fill="rgb(0%, 0%, 0%)" fill-opacity="1">
<use xlink:href="#glyph-1-0" x="8.377019" y="99.517996"/>
<use xlink:href="#glyph-1-1" x="14.324952" y="99.517996"/>
<use xlink:href="#glyph-1-2" x="18.059314" y="99.517996"/>
<use xlink:href="#glyph-1-3" x="22.727662" y="99.517996"/>
</g>
<g fill="rgb(0%, 0%, 0%)" fill-opacity="1">
<use xlink:href="#glyph-1-4" x="26.692159" y="99.517996"/>
<use xlink:href="#glyph-1-5" x="31.127208" y="99.517996"/>
<use xlink:href="#glyph-1-6" x="33.460987" y="99.517996"/>
<use xlink:href="#glyph-1-7" x="37.662737" y="99.517996"/>
</g>
<g fill="rgb(0%, 0%, 0%)" fill-opacity="1">
<use xlink:href="#glyph-1-8" x="11.587981" y="108.909763"/>
<use xlink:href="#glyph-1-9" x="15.322343" y="108.909763"/>
<use xlink:href="#glyph-1-6" x="17.656122" y="108.909763"/>
<use xlink:href="#glyph-1-10" x="21.857872" y="108.909763"/>
<use xlink:href="#glyph-1-5" x="26.52622" y="108.909763"/>
<use xlink:href="#glyph-1-10" x="28.859999" y="108.909763"/>
<use xlink:href="#glyph-1-11" x="33.528347" y="108.909763"/>
</g>
<path fill-rule="nonzero" fill="rgb(100%, 100%, 100%)" fill-opacity="1" stroke-width="0.59776" stroke-linecap="butt" stroke-linejoin="miter" stroke="rgb(29.998779%, 61.294556%, 78.863525%)" stroke-opacity="1" stroke-miterlimit="10" d="M -45.322831 -76.834609 L -79.402925 -76.834609 C -80.505203 -76.834609 -81.3949 -77.728242 -81.3949 -78.826584 L -81.3949 -88.814016 C -81.3949 -89.912358 -80.505203 -90.805991 -79.402925 -90.805991 L -45.322831 -90.805991 C -44.220552 -90.805991 -43.330856 -89.912358 -43.330856 -88.814016 L -43.330856 -78.826584 C -43.330856 -77.728242 -44.220552 -76.834609 -45.322831 -76.834609 Z M -45.322831 -76.834609 " transform="matrix(0.992263, 0, 0, -0.992263, 145.604968, 14.326289)"/>
<g fill="rgb(0%, 0%, 0%)" fill-opacity="1">
<use xlink:href="#glyph-1-12" x="69.782205" y="99.430677"/>
</g>
<g fill="rgb(0%, 0%, 0%)" fill-opacity="1">
<use xlink:href="#glyph-1-13" x="75.959482" y="99.430677"/>
</g>
<g fill="rgb(0%, 0%, 0%)" fill-opacity="1">
<use xlink:href="#glyph-1-11" x="82.260921" y="99.430677"/>
</g>
<g fill="rgb(0%, 0%, 0%)" fill-opacity="1">
<use xlink:href="#glyph-1-11" x="86.454763" y="99.430677"/>
<use xlink:href="#glyph-1-1" x="90.656514" y="99.430677"/>
<use xlink:href="#glyph-1-7" x="94.390876" y="99.430677"/>
</g>
<path fill-rule="nonzero" fill="rgb(100%, 100%, 100%)" fill-opacity="1" d="M 182.949219 90.566406 L 113.886719 90.566406 C 112.792969 90.566406 111.910156 91.453125 111.910156 92.542969 L 111.910156 111.929688 C 111.910156 113.023438 112.792969 113.90625 113.886719 113.90625 L 182.949219 113.90625 C 184.042969 113.90625 184.925781 113.023438 184.925781 111.929688 L 184.925781 92.542969 C 184.925781 91.453125 184.042969 90.566406 182.949219 90.566406 Z M 182.949219 90.566406 "/>
<g clip-path="url(#clip-1)">
<path fill="none" stroke-width="0.59776" stroke-linecap="butt" stroke-linejoin="miter" stroke="rgb(29.998779%, 61.294556%, 78.863525%)" stroke-opacity="1" stroke-miterlimit="10" d="M 37.635447 -76.834609 L -31.965576 -76.834609 C -33.067854 -76.834609 -33.957551 -77.728242 -33.957551 -78.826584 L -33.957551 -98.364473 C -33.957551 -99.466751 -33.067854 -100.356448 -31.965576 -100.356448 L 37.635447 -100.356448 C 38.737726 -100.356448 39.627422 -99.466751 39.627422 -98.364473 L 39.627422 -78.826584 C 39.627422 -77.728242 38.737726 -76.834609 37.635447 -76.834609 Z M 37.635447 -76.834609 " transform="matrix(0.992263, 0, 0, -0.992263, 145.604968, 14.326289)"/>
</g>
<g fill="rgb(0%, 0%, 0%)" fill-opacity="1">
<use xlink:href="#glyph-1-14" x="126.458266" y="99.517004"/>
</g>
<g fill="rgb(0%, 0%, 0%)" fill-opacity="1">
<use xlink:href="#glyph-1-3" x="132.047947" y="99.517004"/>
<use xlink:href="#glyph-1-9" x="136.249697" y="99.517004"/>
<use xlink:href="#glyph-1-15" x="138.583476" y="99.517004"/>
<use xlink:href="#glyph-1-1" x="143.251824" y="99.517004"/>
</g>
<g fill="rgb(0%, 0%, 0%)" fill-opacity="1">
<use xlink:href="#glyph-1-16" x="146.994094" y="99.517004"/>
</g>
<g fill="rgb(0%, 0%, 0%)" fill-opacity="1">
<use xlink:href="#glyph-1-17" x="149.787353" y="99.517004"/>
<use xlink:href="#glyph-1-3" x="154.455701" y="99.517004"/>
<use xlink:href="#glyph-1-18" x="158.657451" y="99.517004"/>
<use xlink:href="#glyph-1-1" x="161.971876" y="99.517004"/>
<use xlink:href="#glyph-1-19" x="165.706238" y="99.517004"/>
</g>
<g fill="rgb(0%, 0%, 0%)" fill-opacity="1">
<use xlink:href="#glyph-1-20" x="116.852171" y="108.908771"/>
<use xlink:href="#glyph-1-16" x="123.3877" y="108.908771"/>
<use xlink:href="#glyph-1-9" x="126.188867" y="108.908771"/>
<use xlink:href="#glyph-1-1" x="128.522646" y="108.908771"/>
<use xlink:href="#glyph-1-3" x="132.257008" y="108.908771"/>
<use xlink:href="#glyph-1-7" x="136.458758" y="108.908771"/>
<use xlink:href="#glyph-1-10" x="139.73364" y="108.908771"/>
<use xlink:href="#glyph-1-5" x="144.401988" y="108.908771"/>
<use xlink:href="#glyph-1-10" x="146.735767" y="108.908771"/>
<use xlink:href="#glyph-1-11" x="151.404115" y="108.908771"/>
<use xlink:href="#glyph-1-21" x="155.605865" y="108.908771"/>
</g>
<g fill="rgb(0%, 0%, 0%)" fill-opacity="1">
<use xlink:href="#glyph-1-12" x="160.739229" y="108.908771"/>
<use xlink:href="#glyph-1-20" x="167.153759" y="108.908771"/>
<use xlink:href="#glyph-1-22" x="173.689288" y="108.908771"/>
</g>
<path fill-rule="nonzero" fill="rgb(100%, 100%, 100%)" fill-opacity="1" d="M 247.066406 90.566406 L 190.40625 90.566406 C 189.3125 90.566406 188.429688 91.453125 188.429688 92.542969 L 188.429688 110.394531 C 188.429688 111.484375 189.3125 112.371094 190.40625 112.371094 L 247.066406 112.371094 C 248.160156 112.371094 249.042969 111.484375 249.042969 110.394531 L 249.042969 92.542969 C 249.042969 91.453125 248.160156 90.566406 247.066406 90.566406 Z M 247.066406 90.566406 "/>
<g clip-path="url(#clip-2)">
<path fill="none" stroke-width="0.59776" stroke-linecap="butt" stroke-linejoin="miter" stroke="rgb(29.998779%, 61.294556%, 78.863525%)" stroke-opacity="1" stroke-miterlimit="10" d="M 102.252596 -76.834609 L 45.150626 -76.834609 C 44.048347 -76.834609 43.158651 -77.728242 43.158651 -78.826584 L 43.158651 -96.817346 C 43.158651 -97.915688 44.048347 -98.809321 45.150626 -98.809321 L 102.252596 -98.809321 C 103.354875 -98.809321 104.244571 -97.915688 104.244571 -96.817346 L 104.244571 -78.826584 C 104.244571 -77.728242 103.354875 -76.834609 102.252596 -76.834609 Z M 102.252596 -76.834609 " transform="matrix(0.992263, 0, 0, -0.992263, 145.604968, 14.326289)"/>
</g>
<g fill="rgb(0%, 0%, 0%)" fill-opacity="1">
<use xlink:href="#glyph-1-23" x="195.781708" y="99.517004"/>
</g>
<g fill="rgb(0%, 0%, 0%)" fill-opacity="1">
<use xlink:href="#glyph-1-6" x="201.259089" y="99.517004"/>
<use xlink:href="#glyph-1-9" x="205.46084" y="99.517004"/>
<use xlink:href="#glyph-1-5" x="207.794618" y="99.517004"/>
</g>
<g fill="rgb(0%, 0%, 0%)" fill-opacity="1">
<use xlink:href="#glyph-1-8" x="210.136305" y="99.517004"/>
<use xlink:href="#glyph-1-24" x="213.870667" y="99.517004"/>
<use xlink:href="#glyph-1-16" x="218.305717" y="99.517004"/>
<use xlink:href="#glyph-1-17" x="221.106884" y="99.517004"/>
</g>
<g fill="rgb(0%, 0%, 0%)" fill-opacity="1">
<use xlink:href="#glyph-1-3" x="225.767323" y="99.517004"/>
<use xlink:href="#glyph-1-18" x="229.969074" y="99.517004"/>
<use xlink:href="#glyph-1-1" x="233.283498" y="99.517004"/>
<use xlink:href="#glyph-1-19" x="237.01786" y="99.517004"/>
</g>
<g fill="rgb(0%, 0%, 0%)" fill-opacity="1">
<use xlink:href="#glyph-1-25" x="193.37051" y="108.908771"/>
<use xlink:href="#glyph-1-26" x="199.551741" y="108.908771"/>
<use xlink:href="#glyph-1-27" x="205.266375" y="108.908771"/>
<use xlink:href="#glyph-1-22" x="208.292141" y="108.908771"/>
<use xlink:href="#glyph-1-28" x="214.585672" y="108.908771"/>
</g>
<g fill="rgb(0%, 0%, 0%)" fill-opacity="1">
<use xlink:href="#glyph-1-29" x="219.837663" y="108.908771"/>
<use xlink:href="#glyph-1-25" x="226.373192" y="108.908771"/>
</g>
<g fill="rgb(0%, 0%, 0%)" fill-opacity="1">
<use xlink:href="#glyph-1-30" x="232.31717" y="108.908771"/>
<use xlink:href="#glyph-1-26" x="238.386102" y="108.908771"/>
</g>
<path fill-rule="nonzero" fill="rgb(100%, 100%, 100%)" fill-opacity="1" stroke-width="0.59776" stroke-linecap="butt" stroke-linejoin="miter" stroke="rgb(29.998779%, 61.294556%, 78.863525%)" stroke-opacity="1" stroke-miterlimit="10" d="M 163.88572 -76.834609 L 113.91313 -76.834609 C 112.810851 -76.834609 111.921155 -77.728242 111.921155 -78.826584 L 111.921155 -87.262952 C 111.921155 -88.365231 112.810851 -89.254927 113.91313 -89.254927 L 163.88572 -89.254927 C 164.984062 -89.254927 165.877695 -88.365231 165.877695 -87.262952 L 165.877695 -78.826584 C 165.877695 -77.728242 164.984062 -76.834609 163.88572 -76.834609 Z M 163.88572 -76.834609 " transform="matrix(0.992263, 0, 0, -0.992263, 145.604968, 14.326289)"/>
<g fill="rgb(0%, 0%, 0%)" fill-opacity="1">
<use xlink:href="#glyph-1-13" x="261.601471" y="99.429685"/>
<use xlink:href="#glyph-1-8" x="267.895002" y="99.429685"/>
<use xlink:href="#glyph-1-31" x="271.629364" y="99.429685"/>
<use xlink:href="#glyph-1-6" x="274.897129" y="99.429685"/>
<use xlink:href="#glyph-1-7" x="279.098879" y="99.429685"/>
<use xlink:href="#glyph-1-32" x="282.373761" y="99.429685"/>
<use xlink:href="#glyph-1-8" x="286.575512" y="99.429685"/>
<use xlink:href="#glyph-1-7" x="290.309874" y="99.429685"/>
<use xlink:href="#glyph-1-5" x="293.584756" y="99.429685"/>
<use xlink:href="#glyph-1-31" x="295.918534" y="99.429685"/>
<use xlink:href="#glyph-1-5" x="299.186299" y="99.429685"/>
<use xlink:href="#glyph-1-8" x="301.520077" y="99.429685"/>
</g>
<path fill-rule="nonzero" fill="rgb(100%, 100%, 100%)" fill-opacity="1" d="M 360.558594 44.847656 L 294.140625 44.847656 C 293.050781 44.847656 292.164062 45.730469 292.164062 46.824219 L 292.164062 66.210938 C 292.164062 67.304688 293.050781 68.1875 294.140625 68.1875 L 360.558594 68.1875 C 361.648438 68.1875 362.535156 67.304688 362.535156 66.210938 L 362.535156 46.824219 C 362.535156 45.730469 361.648438 44.847656 360.558594 44.847656 Z M 360.558594 44.847656 "/>
<g clip-path="url(#clip-3)">
<path fill="none" stroke-width="0.59776" stroke-linecap="butt" stroke-linejoin="miter" stroke="rgb(0%, 61.959839%, 45.095825%)" stroke-opacity="1" stroke-dasharray="2.98883 2.98883" stroke-miterlimit="10" d="M 216.629753 -30.759361 L 149.693882 -30.759361 C 148.59554 -30.759361 147.701907 -31.649058 147.701907 -32.751336 L 147.701907 -52.289225 C 147.701907 -53.391504 148.59554 -54.2812 149.693882 -54.2812 L 216.629753 -54.2812 C 217.728095 -54.2812 218.621728 -53.391504 218.621728 -52.289225 L 218.621728 -32.751336 C 218.621728 -31.649058 217.728095 -30.759361 216.629753 -30.759361 Z M 216.629753 -30.759361 " transform="matrix(0.992263, 0, 0, -0.992263, 145.604968, 14.326289)"/>
</g>
<g fill="rgb(0%, 0%, 0%)" fill-opacity="1">
<use xlink:href="#glyph-1-33" x="297.105623" y="53.797507"/>
<use xlink:href="#glyph-1-6" x="304.799737" y="53.797507"/>
</g>
<g fill="rgb(0%, 0%, 0%)" fill-opacity="1">
<use xlink:href="#glyph-1-19" x="309.230833" y="53.797507"/>
<use xlink:href="#glyph-1-1" x="313.899181" y="53.797507"/>
</g>
<g fill="rgb(0%, 0%, 0%)" fill-opacity="1">
<use xlink:href="#glyph-1-9" x="317.641451" y="53.797507"/>
<use xlink:href="#glyph-1-16" x="319.97523" y="53.797507"/>
<use xlink:href="#glyph-1-17" x="322.776397" y="53.797507"/>
<use xlink:href="#glyph-1-3" x="327.444745" y="53.797507"/>
</g>
<g fill="rgb(0%, 0%, 0%)" fill-opacity="1">
<use xlink:href="#glyph-1-18" x="331.638587" y="53.797507"/>
<use xlink:href="#glyph-1-1" x="334.953011" y="53.797507"/>
</g>
<g fill="rgb(0%, 0%, 0%)" fill-opacity="1">
<use xlink:href="#glyph-1-19" x="338.695281" y="53.797507"/>
</g>
<g fill="rgb(0%, 0%, 0%)" fill-opacity="1">
<use xlink:href="#glyph-1-25" x="346.163215" y="53.797507"/>
<use xlink:href="#glyph-1-34" x="352.344446" y="53.797507"/>
</g>
<g fill="rgb(0%, 0%, 0%)" fill-opacity="1">
<use xlink:href="#glyph-1-35" x="299.169529" y="63.189274"/>
<use xlink:href="#glyph-1-9" x="303.837877" y="63.189274"/>
<use xlink:href="#glyph-1-3" x="306.171656" y="63.189274"/>
<use xlink:href="#glyph-1-10" x="310.373407" y="63.189274"/>
<use xlink:href="#glyph-1-10" x="315.041755" y="63.189274"/>
<use xlink:href="#glyph-1-5" x="319.710103" y="63.189274"/>
<use xlink:href="#glyph-1-10" x="322.043881" y="63.189274"/>
<use xlink:href="#glyph-1-11" x="326.712229" y="63.189274"/>
<use xlink:href="#glyph-1-21" x="330.91398" y="63.189274"/>
</g>
<g fill="rgb(0%, 0%, 0%)" fill-opacity="1">
<use xlink:href="#glyph-1-33" x="336.047344" y="63.189274"/>
<use xlink:href="#glyph-1-23" x="343.741458" y="63.189274"/>
<use xlink:href="#glyph-1-30" x="349.456092" y="63.189274"/>
</g>
<path fill="none" stroke-width="0.59776" stroke-linecap="butt" stroke-linejoin="miter" stroke="rgb(33.332825%, 33.332825%, 33.332825%)" stroke-opacity="1" stroke-miterlimit="10" d="M 0.000505056 -12.445789 L 0.000505056 -22.366297 L -85.040293 -22.366297 L -85.040293 -30.834159 " transform="matrix(0.992263, 0, 0, -0.992263, 145.604968, 14.326289)"/>
<path fill="none" stroke-width="0.59776" stroke-linecap="butt" stroke-linejoin="miter" stroke="rgb(33.332825%, 33.332825%, 33.332825%)" stroke-opacity="1" stroke-miterlimit="10" d="M 0.000505056 -12.445789 L 0.000505056 -22.366297 L 73.703579 -22.366297 L 73.703579 -30.834159 " transform="matrix(0.992263, 0, 0, -0.992263, 145.604968, 14.326289)"/>
<path fill="none" stroke-width="0.59776" stroke-linecap="butt" stroke-linejoin="miter" stroke="rgb(33.332825%, 33.332825%, 33.332825%)" stroke-opacity="1" stroke-miterlimit="10" d="M -85.040293 -54.206403 L -85.040293 -62.713632 L -121.89183 -62.713632 L -121.89183 -76.535419 " transform="matrix(0.992263, 0, 0, -0.992263, 145.604968, 14.326289)"/>
<path fill="none" stroke-width="0.59776" stroke-linecap="butt" stroke-linejoin="miter" stroke="rgb(33.332825%, 33.332825%, 33.332825%)" stroke-opacity="1" stroke-miterlimit="10" d="M -85.040293 -54.206403 L -85.040293 -62.713632 L -62.364846 -62.713632 L -62.364846 -76.535419 " transform="matrix(0.992263, 0, 0, -0.992263, 145.604968, 14.326289)"/>
<path fill="none" stroke-width="0.59776" stroke-linecap="butt" stroke-linejoin="miter" stroke="rgb(33.332825%, 33.332825%, 33.332825%)" stroke-opacity="1" stroke-miterlimit="10" d="M 73.703579 -54.206403 L 73.703579 -62.713632 L 2.834936 -62.713632 L 2.834936 -76.535419 " transform="matrix(0.992263, 0, 0, -0.992263, 145.604968, 14.326289)"/>
<path fill="none" stroke-width="0.59776" stroke-linecap="butt" stroke-linejoin="miter" stroke="rgb(33.332825%, 33.332825%, 33.332825%)" stroke-opacity="1" stroke-miterlimit="10" d="M 73.703579 -54.206403 L 73.703579 -76.535419 " transform="matrix(0.992263, 0, 0, -0.992263, 145.604968, 14.326289)"/>
<path fill="none" stroke-width="0.59776" stroke-linecap="butt" stroke-linejoin="miter" stroke="rgb(33.332825%, 33.332825%, 33.332825%)" stroke-opacity="1" stroke-miterlimit="10" d="M 73.703579 -54.206403 L 73.703579 -62.713632 L 138.899425 -62.713632 L 138.899425 -76.535419 " transform="matrix(0.992263, 0, 0, -0.992263, 145.604968, 14.326289)"/>
<path fill="none" stroke-width="0.59776" stroke-linecap="butt" stroke-linejoin="miter" stroke="rgb(33.332825%, 33.332825%, 33.332825%)" stroke-opacity="1" stroke-dasharray="2.98883 2.98883" stroke-miterlimit="10" d="M 127.703423 -42.518312 L 147.402717 -42.518312 " transform="matrix(0.992263, 0, 0, -0.992263, 145.604968, 14.326289)"/>
</svg>
