<?xml version="1.0" encoding="UTF-8"?>
<svg xmlns="http://www.w3.org/2000/svg" xmlns:xlink="http://www.w3.org/1999/xlink" width="449.432pt" height="139.527pt" viewBox="0 0 449.432 139.527">
<defs>
<g>
<g id="glyph-0-0">
<path d="M 3.234375 1.84375 C 3.234375 1.78125 3.203125 1.765625 3.109375 1.6875 C 2.109375 0.765625 1.75 -0.625 1.75 -1.984375 C 1.75 -3.34375 2.09375 -4.734375 3.09375 -5.625 C 3.21875 -5.75 3.234375 -5.75 3.234375 -5.8125 C 3.234375 -5.890625 3.1875 -5.953125 3.0625 -5.953125 C 2.90625 -5.953125 2.5 -5.59375 2.328125 -5.4375 C 1.34375 -4.453125 0.90625 -3.25 0.90625 -1.984375 C 0.90625 -1.28125 1.046875 -0.3125 1.640625 0.625 C 2.140625 1.40625 2.890625 1.984375 3.0625 1.984375 C 3.1875 1.984375 3.234375 1.921875 3.234375 1.84375 Z M 3.234375 1.84375 "/>
</g>
<g id="glyph-0-1">
<path d="M 3.984375 -2.34375 C 3.984375 -3.0625 3.40625 -3.609375 2.125 -3.609375 C 1.734375 -3.609375 0.59375 -3.609375 0.59375 -2.828125 C 0.59375 -2.46875 0.859375 -2.28125 1.125 -2.28125 C 1.4375 -2.28125 1.671875 -2.515625 1.671875 -2.8125 C 1.671875 -3.078125 1.515625 -3.21875 1.5 -3.21875 C 1.5625 -3.234375 1.796875 -3.28125 2.109375 -3.28125 C 2.734375 -3.28125 3.015625 -2.921875 3.015625 -2.359375 L 3.015625 -2.125 C 1.828125 -2.125 0.28125 -1.859375 0.28125 -0.890625 C 0.28125 -0.21875 1.046875 0.0625 1.90625 0.0625 C 2.71875 0.0625 3.0625 -0.375 3.171875 -0.546875 C 3.171875 -0.296875 3.25 0 4.03125 0 L 4.4375 0 C 4.59375 0 4.71875 0 4.71875 -0.203125 C 4.71875 -0.40625 4.59375 -0.40625 4.484375 -0.40625 C 3.984375 -0.40625 3.984375 -0.484375 3.984375 -0.671875 Z M 3.015625 -1.09375 C 3.015625 -0.28125 2.0625 -0.28125 2.03125 -0.28125 C 1.625 -0.28125 1.25 -0.53125 1.25 -0.90625 C 1.25 -1.453125 1.984375 -1.796875 3.015625 -1.828125 Z M 3.015625 -1.09375 "/>
</g>
<g id="glyph-0-2">
<path d="M 2.859375 -1.984375 C 2.859375 -2.6875 2.71875 -3.65625 2.140625 -4.59375 C 1.640625 -5.375 0.875 -5.953125 0.703125 -5.953125 C 0.578125 -5.953125 0.546875 -5.859375 0.546875 -5.8125 C 0.546875 -5.75 0.578125 -5.71875 0.65625 -5.65625 C 1.671875 -4.734375 2.03125 -3.34375 2.03125 -1.984375 C 2.03125 -0.625 1.6875 0.765625 0.671875 1.65625 C 0.578125 1.75 0.546875 1.78125 0.546875 1.84375 C 0.546875 1.890625 0.578125 1.984375 0.703125 1.984375 C 0.859375 1.984375 1.28125 1.625 1.4375 1.46875 C 2.421875 0.484375 2.859375 -0.71875 2.859375 -1.984375 Z M 2.859375 -1.984375 "/>
</g>
<g id="glyph-0-3">
<path d="M 4.046875 -0.90625 C 4.046875 -1.0625 3.90625 -1.0625 3.8125 -1.0625 C 3.671875 -1.0625 3.640625 -1.0625 3.59375 -0.90625 C 3.359375 -0.390625 2.828125 -0.3125 2.578125 -0.3125 C 1.390625 -0.3125 1.390625 -1.453125 1.390625 -1.796875 C 1.390625 -2.265625 1.421875 -3.234375 2.484375 -3.234375 C 2.546875 -3.234375 2.984375 -3.21875 2.984375 -3.1875 C 2.984375 -3.1875 2.96875 -3.171875 2.953125 -3.140625 C 2.890625 -3.046875 2.859375 -2.921875 2.859375 -2.8125 C 2.859375 -2.5 3.109375 -2.28125 3.390625 -2.28125 C 3.6875 -2.28125 3.921875 -2.5 3.921875 -2.828125 C 3.921875 -3.609375 2.78125 -3.609375 2.453125 -3.609375 C 0.921875 -3.609375 0.328125 -2.65625 0.328125 -1.765625 C 0.328125 -0.78125 1.046875 0.0625 2.421875 0.0625 C 2.78125 0.0625 3.171875 -0.015625 3.5 -0.203125 C 3.921875 -0.46875 4.046875 -0.859375 4.046875 -0.90625 Z M 4.046875 -0.90625 "/>
</g>
<g id="glyph-0-4">
<path d="M 4.59375 -1.734375 C 4.59375 -2.734375 3.875 -3.609375 2.421875 -3.609375 C 0.96875 -3.609375 0.265625 -2.71875 0.265625 -1.734375 C 0.265625 -0.78125 0.96875 0.0625 2.421875 0.0625 C 3.90625 0.0625 4.59375 -0.796875 4.59375 -1.734375 Z M 2.421875 -0.3125 C 1.34375 -0.3125 1.34375 -1.140625 1.34375 -1.828125 C 1.34375 -2.46875 1.34375 -3.28125 2.421875 -3.28125 C 3.515625 -3.28125 3.515625 -2.46875 3.515625 -1.828125 C 3.515625 -1.140625 3.515625 -0.3125 2.421875 -0.3125 Z M 2.421875 -0.3125 "/>
</g>
<g id="glyph-0-5">
<path d="M 4.640625 -2.40625 C 4.640625 -3.375 4.03125 -3.578125 3.328125 -3.578125 C 2.359375 -3.578125 1.9375 -2.9375 1.84375 -2.765625 L 1.828125 -2.765625 L 1.828125 -3.578125 L 0.4375 -3.515625 L 0.4375 -3.109375 C 0.90625 -3.109375 0.96875 -3.109375 0.96875 -2.796875 L 0.96875 -0.40625 L 0.4375 -0.40625 L 0.4375 0 C 0.875 -0.03125 1.15625 -0.03125 1.453125 -0.03125 C 1.765625 -0.03125 2.03125 -0.03125 2.453125 0 L 2.453125 -0.40625 L 1.9375 -0.40625 L 1.9375 -2.015625 C 1.9375 -2.890625 2.703125 -3.25 3.203125 -3.25 C 3.484375 -3.25 3.671875 -3.109375 3.671875 -2.5 L 3.671875 -0.40625 L 3.140625 -0.40625 L 3.140625 0 C 3.578125 -0.03125 3.84375 -0.03125 4.15625 -0.03125 C 4.453125 -0.03125 4.734375 -0.03125 5.15625 0 L 5.15625 -0.40625 L 4.640625 -0.40625 Z M 4.640625 -2.40625 "/>
</g>
<g id="glyph-0-6">
<path d="M 3.265625 -3.359375 C 3.265625 -3.515625 3.265625 -3.609375 3.09375 -3.609375 C 3.03125 -3.609375 3 -3.609375 2.734375 -3.484375 C 2.390625 -3.609375 2.03125 -3.609375 1.890625 -3.609375 C 1.625 -3.609375 0.328125 -3.609375 0.328125 -2.546875 C 0.328125 -2.1875 0.53125 -1.953125 0.734375 -1.8125 C 1.046875 -1.59375 1.390625 -1.53125 1.90625 -1.4375 C 2.296875 -1.375 2.890625 -1.28125 2.890625 -0.84375 C 2.890625 -0.296875 2.1875 -0.28125 1.9375 -0.28125 C 1.140625 -0.28125 0.90625 -0.734375 0.78125 -1.109375 C 0.734375 -1.234375 0.71875 -1.25 0.546875 -1.25 C 0.328125 -1.25 0.328125 -1.1875 0.328125 -1.015625 L 0.328125 -0.1875 C 0.328125 -0.046875 0.328125 0.0625 0.5 0.0625 C 0.578125 0.0625 0.59375 0.0625 0.75 -0.046875 L 0.953125 -0.1875 C 1.359375 0.0625 1.78125 0.0625 1.9375 0.0625 C 2.1875 0.0625 3.5 0.0625 3.5 -1.125 C 3.5 -1.46875 3.34375 -1.703125 3.15625 -1.875 C 2.8125 -2.203125 2.390625 -2.265625 2.09375 -2.3125 C 1.375 -2.421875 0.9375 -2.5 0.9375 -2.84375 C 0.9375 -3.3125 1.703125 -3.3125 1.875 -3.3125 C 2.765625 -3.3125 2.796875 -2.890625 2.8125 -2.671875 C 2.828125 -2.546875 2.9375 -2.546875 3.046875 -2.546875 C 3.25 -2.546875 3.265625 -2.59375 3.265625 -2.78125 Z M 3.265625 -3.359375 "/>
</g>
<g id="glyph-0-7">
<path d="M 1.828125 -3.109375 L 3.078125 -3.109375 L 3.078125 -3.53125 L 1.828125 -3.53125 L 1.828125 -5.046875 L 1.390625 -5.046875 C 1.375 -4.25 0.96875 -3.453125 0.1875 -3.4375 L 0.1875 -3.109375 L 0.859375 -3.109375 L 0.859375 -0.96875 C 0.859375 -0.15625 1.515625 0.0625 2.1875 0.0625 C 2.78125 0.0625 3.234375 -0.34375 3.234375 -0.96875 L 3.234375 -1.375 L 2.78125 -1.375 L 2.78125 -0.984375 C 2.78125 -0.4375 2.484375 -0.3125 2.296875 -0.3125 C 1.84375 -0.3125 1.828125 -0.734375 1.828125 -0.953125 Z M 1.828125 -3.109375 "/>
</g>
<g id="glyph-0-8">
<path d="M 1.8125 -1.703125 C 1.8125 -2.328125 2.0625 -3.21875 2.8125 -3.25 C 2.8125 -3.234375 2.6875 -3.109375 2.6875 -2.890625 C 2.6875 -2.578125 2.921875 -2.359375 3.21875 -2.359375 C 3.515625 -2.359375 3.734375 -2.578125 3.734375 -2.890625 C 3.734375 -3.328125 3.296875 -3.578125 2.828125 -3.578125 C 2.15625 -3.578125 1.828125 -3.03125 1.71875 -2.71875 L 1.703125 -2.734375 L 1.703125 -3.578125 L 0.359375 -3.515625 L 0.359375 -3.109375 C 0.828125 -3.109375 0.890625 -3.109375 0.890625 -2.796875 L 0.890625 -0.40625 L 0.359375 -0.40625 L 0.359375 0 C 0.828125 -0.03125 0.90625 -0.03125 1.375 -0.03125 C 1.828125 -0.03125 1.84375 -0.03125 2.453125 0 L 2.453125 -0.40625 L 1.8125 -0.40625 Z M 1.8125 -1.703125 "/>
</g>
<g id="glyph-0-9">
<path d="M 1.984375 -4.875 C 1.984375 -5.21875 1.703125 -5.515625 1.34375 -5.515625 C 1.015625 -5.515625 0.71875 -5.25 0.71875 -4.875 C 0.71875 -4.515625 1.015625 -4.25 1.34375 -4.25 C 1.703125 -4.25 1.984375 -4.546875 1.984375 -4.875 Z M 0.484375 -3.515625 L 0.484375 -3.109375 C 0.9375 -3.109375 0.984375 -3.109375 0.984375 -2.796875 L 0.984375 -0.40625 L 0.46875 -0.40625 L 0.46875 0 C 0.921875 -0.03125 1.015625 -0.03125 1.4375 -0.03125 C 1.765625 -0.03125 2 -0.03125 2.375 0 L 2.375 -0.40625 L 1.90625 -0.40625 L 1.90625 -3.578125 Z M 0.484375 -3.515625 "/>
</g>
<g id="glyph-0-10">
<path d="M 4.3125 -2.9375 C 4.375 -3.078125 4.390625 -3.109375 4.890625 -3.109375 L 4.890625 -3.53125 C 4.59375 -3.5 4.578125 -3.5 4.234375 -3.5 C 4.171875 -3.5 3.75 -3.5 3.515625 -3.53125 L 3.515625 -3.109375 C 3.53125 -3.109375 3.84375 -3.109375 3.84375 -3.03125 C 3.84375 -3.015625 3.8125 -2.953125 3.796875 -2.921875 L 2.828125 -1.015625 L 1.765625 -3.109375 L 2.140625 -3.109375 L 2.140625 -3.53125 C 1.6875 -3.5 1.515625 -3.5 1.171875 -3.5 C 0.984375 -3.5 0.5625 -3.5 0.234375 -3.53125 L 0.234375 -3.109375 L 0.734375 -3.109375 L 2.3125 0 C 1.984375 0.671875 1.921875 0.75 1.859375 0.828125 C 1.5625 1.21875 1.21875 1.265625 1.09375 1.265625 C 1.03125 1.265625 0.984375 1.25 0.953125 1.234375 C 1.109375 1.140625 1.1875 0.984375 1.1875 0.8125 C 1.1875 0.484375 0.9375 0.3125 0.6875 0.3125 C 0.421875 0.3125 0.1875 0.484375 0.1875 0.8125 C 0.1875 1.234375 0.578125 1.59375 1.09375 1.59375 C 1.859375 1.59375 2.328125 0.921875 2.4375 0.71875 Z M 4.3125 -2.9375 "/>
</g>
<g id="glyph-0-11">
<path d="M 2.375 1.125 L 1.859375 1.125 L 1.859375 -0.296875 C 2.265625 0.015625 2.65625 0.0625 2.9375 0.0625 C 4.234375 0.0625 5.078125 -0.703125 5.078125 -1.765625 C 5.078125 -2.765625 4.359375 -3.578125 3.09375 -3.578125 C 2.640625 -3.578125 2.1875 -3.453125 1.8125 -3.203125 L 1.8125 -3.578125 L 0.359375 -3.515625 L 0.359375 -3.109375 C 0.515625 -3.109375 0.65625 -3.109375 0.75 -3.078125 C 0.890625 -3.0625 0.890625 -2.96875 0.890625 -2.8125 L 0.890625 1.125 L 0.359375 1.125 L 0.359375 1.546875 C 0.796875 1.515625 1.078125 1.515625 1.375 1.515625 C 1.6875 1.515625 1.953125 1.515625 2.375 1.546875 Z M 1.859375 -2.71875 C 2 -2.875 2.390625 -3.203125 2.953125 -3.203125 C 3.578125 -3.203125 4 -2.671875 4 -1.765625 C 4 -0.703125 3.4375 -0.28125 2.859375 -0.28125 C 2.5 -0.28125 2.125 -0.453125 1.859375 -0.84375 Z M 1.859375 -2.71875 "/>
</g>
<g id="glyph-0-12">
<path d="M 3.90625 -1.6875 C 4.078125 -1.6875 4.171875 -1.6875 4.171875 -1.90625 C 4.171875 -2.25 4.09375 -2.78125 3.703125 -3.171875 C 3.25 -3.609375 2.546875 -3.609375 2.359375 -3.609375 C 0.9375 -3.609375 0.265625 -2.734375 0.265625 -1.796875 C 0.265625 -0.765625 1.0625 0.0625 2.46875 0.0625 C 3.875 0.0625 4.171875 -0.796875 4.171875 -0.90625 C 4.171875 -1.078125 4.015625 -1.078125 3.953125 -1.078125 C 3.8125 -1.078125 3.78125 -1.0625 3.71875 -0.921875 C 3.46875 -0.375 2.796875 -0.3125 2.578125 -0.3125 C 1.390625 -0.3125 1.359375 -1.234375 1.34375 -1.6875 Z M 1.34375 -2 C 1.34375 -2.3125 1.375 -3.28125 2.359375 -3.28125 C 3.34375 -3.28125 3.390625 -2.296875 3.390625 -2 Z M 1.34375 -2 "/>
</g>
<g id="glyph-0-13">
<path d="M 1.8125 -5.515625 L 0.359375 -5.4375 L 0.359375 -5.03125 C 0.828125 -5.03125 0.890625 -5.03125 0.890625 -4.71875 L 0.890625 0 L 1.328125 0 L 1.703125 -0.4375 C 2.0625 -0.09375 2.46875 0.0625 2.9375 0.0625 C 4.28125 0.0625 5.078125 -0.734375 5.078125 -1.765625 C 5.078125 -2.8125 4.296875 -3.578125 3.046875 -3.578125 C 2.4375 -3.578125 2.015625 -3.34375 1.8125 -3.21875 Z M 1.859375 -2.734375 C 2 -2.921875 2.40625 -3.25 2.953125 -3.25 C 4 -3.25 4 -2.28125 4 -1.78125 C 4 -1.28125 4 -0.28125 2.859375 -0.28125 C 2.28125 -0.28125 1.9375 -0.71875 1.859375 -0.84375 Z M 1.859375 -2.734375 "/>
</g>
<g id="glyph-0-14">
<path d="M 1.78125 -0.6875 C 1.546875 -0.6875 1.390625 -0.6875 1.265625 -0.796875 C 1.1875 -0.875 1.09375 -0.984375 1.09375 -1.1875 C 1.09375 -1.265625 1.109375 -1.34375 1.15625 -1.40625 C 1.46875 -1.25 1.859375 -1.203125 2.15625 -1.203125 C 3.4375 -1.203125 3.828125 -1.90625 3.828125 -2.390625 C 3.828125 -2.8125 3.5625 -3.09375 3.515625 -3.140625 C 3.734375 -3.25 3.890625 -3.265625 4 -3.28125 C 3.984375 -3.234375 3.96875 -3.15625 3.96875 -3.125 C 3.96875 -2.890625 4.125 -2.734375 4.34375 -2.734375 C 4.5625 -2.734375 4.71875 -2.890625 4.71875 -3.125 C 4.71875 -3.359375 4.546875 -3.640625 4.171875 -3.640625 C 3.859375 -3.640625 3.5 -3.515625 3.265625 -3.328125 C 2.984375 -3.484375 2.65625 -3.578125 2.15625 -3.578125 C 0.875 -3.578125 0.484375 -2.875 0.484375 -2.390625 C 0.484375 -1.9375 0.75 -1.703125 0.890625 -1.578125 C 0.734375 -1.375 0.640625 -1.125 0.640625 -0.859375 C 0.640625 -0.578125 0.75 -0.296875 0.953125 -0.109375 C 0.625 -0.015625 0.265625 0.203125 0.265625 0.59375 C 0.265625 1.015625 0.734375 1.609375 2.421875 1.609375 C 3.921875 1.609375 4.59375 1.125 4.59375 0.5625 C 4.59375 -0.203125 4 -0.453125 3.828125 -0.515625 C 3.390625 -0.6875 2.90625 -0.6875 2.1875 -0.6875 Z M 2.15625 -1.546875 C 1.40625 -1.546875 1.40625 -2.078125 1.40625 -2.390625 C 1.40625 -2.71875 1.40625 -3.234375 2.15625 -3.234375 C 2.90625 -3.234375 2.90625 -2.71875 2.90625 -2.390625 C 2.90625 -2.0625 2.90625 -1.546875 2.15625 -1.546875 Z M 2.65625 0.140625 C 2.890625 0.140625 3.84375 0.140625 3.84375 0.59375 C 3.84375 0.859375 3.515625 1.265625 2.421875 1.265625 C 1.375 1.265625 1.015625 0.875 1.015625 0.578125 C 1.015625 0.140625 1.53125 0.140625 1.640625 0.140625 Z M 2.65625 0.140625 "/>
</g>
<g id="glyph-0-15">
<path d="M 3.0625 -5.4375 L 3.0625 -5.03125 C 3.53125 -5.03125 3.59375 -5.03125 3.59375 -4.71875 L 3.59375 -3.234375 C 3.15625 -3.53125 2.75 -3.578125 2.453125 -3.578125 C 1.109375 -3.578125 0.328125 -2.78125 0.328125 -1.765625 C 0.328125 -0.71875 1.09375 0.0625 2.359375 0.0625 C 2.9375 0.0625 3.328125 -0.171875 3.546875 -0.328125 L 3.546875 0.0625 L 5.03125 0 L 5.03125 -0.40625 C 4.5625 -0.40625 4.515625 -0.40625 4.515625 -0.71875 L 4.515625 -5.515625 Z M 3.546875 -0.875 C 3.171875 -0.359375 2.703125 -0.28125 2.421875 -0.28125 C 1.390625 -0.28125 1.390625 -1.265625 1.390625 -1.734375 C 1.390625 -2.234375 1.390625 -3.25 2.53125 -3.25 C 2.890625 -3.25 3.265625 -3.09375 3.546875 -2.75 Z M 3.546875 -0.875 "/>
</g>
<g id="glyph-0-16">
<path d="M 4.640625 -2.40625 C 4.640625 -3.375 4.03125 -3.578125 3.328125 -3.578125 C 2.5 -3.578125 2.0625 -3.09375 1.890625 -2.84375 L 1.890625 -5.515625 L 0.4375 -5.4375 L 0.4375 -5.03125 C 0.90625 -5.03125 0.96875 -5.03125 0.96875 -4.71875 L 0.96875 -0.40625 L 0.4375 -0.40625 L 0.4375 0 C 0.875 -0.03125 1.15625 -0.03125 1.453125 -0.03125 C 1.765625 -0.03125 2.03125 -0.03125 2.453125 0 L 2.453125 -0.40625 L 1.9375 -0.40625 L 1.9375 -2.015625 C 1.9375 -2.890625 2.703125 -3.25 3.203125 -3.25 C 3.484375 -3.25 3.671875 -3.109375 3.671875 -2.5 L 3.671875 -0.40625 L 3.140625 -0.40625 L 3.140625 0 C 3.578125 -0.03125 3.84375 -0.03125 4.15625 -0.03125 C 4.453125 -0.03125 4.734375 -0.03125 5.15625 0 L 5.15625 -0.40625 L 4.640625 -0.40625 Z M 4.640625 -2.40625 "/>
</g>
<g id="glyph-0-17">
<path d="M 6.484375 -1.78125 L 7.15625 -1.78125 L 7.15625 -2.1875 C 6.5625 -2.171875 6.4375 -2.171875 5.75 -2.171875 C 5.375 -2.171875 4.375 -2.171875 4.078125 -2.1875 L 4.078125 -1.78125 L 5.296875 -1.78125 L 5.296875 -1 C 5.296875 -0.84375 5.296875 -0.609375 4.921875 -0.4375 C 4.625 -0.3125 4.296875 -0.296875 4.15625 -0.296875 C 3.28125 -0.296875 2.703125 -0.609375 2.390625 -0.890625 C 2.0625 -1.234375 1.8125 -1.71875 1.8125 -2.734375 C 1.8125 -3.09375 1.828125 -3.953125 2.3125 -4.484375 C 2.875 -5.09375 3.703125 -5.140625 4.078125 -5.140625 C 4.875 -5.140625 5.75 -4.640625 5.953125 -3.515625 C 5.984375 -3.359375 6.03125 -3.359375 6.21875 -3.359375 C 6.4375 -3.359375 6.484375 -3.359375 6.484375 -3.609375 L 6.484375 -5.3125 C 6.484375 -5.46875 6.484375 -5.5625 6.296875 -5.5625 C 6.234375 -5.5625 6.203125 -5.5625 6.125 -5.484375 L 5.59375 -5.015625 C 5.25 -5.265625 4.734375 -5.5625 3.90625 -5.5625 C 1.75 -5.5625 0.546875 -4.296875 0.546875 -2.71875 C 0.546875 -1.25 1.625 0.109375 3.9375 0.109375 C 4.78125 0.109375 5.34375 -0.0625 5.609375 -0.359375 C 5.828125 -0.1875 6.28125 0 6.34375 0 C 6.484375 0 6.484375 -0.140625 6.484375 -0.25 Z M 6.484375 -1.78125 "/>
</g>
<g id="glyph-0-18">
<path d="M 2.1875 -3.546875 C 1.609375 -3.65625 1.34375 -4.015625 1.34375 -4.359375 C 1.34375 -4.703125 1.59375 -5.1875 2.4375 -5.1875 C 2.625 -5.1875 3.15625 -5.171875 3.578125 -4.84375 C 4.015625 -4.515625 4.109375 -4.015625 4.140625 -3.828125 C 4.15625 -3.671875 4.171875 -3.640625 4.359375 -3.640625 C 4.578125 -3.640625 4.59375 -3.6875 4.59375 -3.875 L 4.59375 -5.3125 C 4.59375 -5.46875 4.59375 -5.5625 4.40625 -5.5625 C 4.3125 -5.5625 4.3125 -5.546875 4.125 -5.359375 L 3.875 -5.125 C 3.515625 -5.390625 3.078125 -5.5625 2.4375 -5.5625 C 1.09375 -5.5625 0.546875 -4.71875 0.546875 -3.953125 C 0.546875 -3.609375 0.65625 -3.28125 0.921875 -2.96875 C 1.328125 -2.5 1.828125 -2.40625 2.1875 -2.328125 L 3.15625 -2.140625 C 3.84375 -2 4.0625 -1.5625 4.0625 -1.21875 C 4.0625 -0.96875 3.9375 -0.296875 2.921875 -0.296875 C 2.546875 -0.296875 1.96875 -0.359375 1.53125 -0.640625 C 1.03125 -0.9375 0.984375 -1.421875 0.984375 -1.6875 C 0.96875 -1.8125 0.84375 -1.8125 0.765625 -1.8125 C 0.546875 -1.8125 0.546875 -1.75 0.546875 -1.5625 L 0.546875 -0.140625 C 0.546875 0.015625 0.546875 0.109375 0.71875 0.109375 C 0.8125 0.109375 0.8125 0.109375 1 -0.078125 L 1.234375 -0.3125 C 1.796875 0.0625 2.53125 0.109375 2.9375 0.109375 C 4.359375 0.109375 4.859375 -0.828125 4.859375 -1.609375 C 4.859375 -2.46875 4.1875 -3.140625 3.390625 -3.296875 Z M 2.1875 -3.546875 "/>
</g>
<g id="glyph-1-0">
<path d="M 6.5625 -5.203125 C 6.609375 -5.296875 6.609375 -5.328125 6.609375 -5.34375 C 6.609375 -5.421875 6.5625 -5.421875 6.40625 -5.421875 L 0.609375 -5.421875 C 0.453125 -5.421875 0.40625 -5.421875 0.40625 -5.34375 C 0.40625 -5.328125 0.40625 -5.296875 0.453125 -5.203125 L 3.265625 0.078125 C 3.328125 0.1875 3.359375 0.25 3.515625 0.25 C 3.65625 0.25 3.6875 0.1875 3.75 0.078125 Z M 1.46875 -4.8125 L 6.046875 -4.8125 L 3.765625 -0.515625 Z M 1.46875 -4.8125 "/>
</g>
<g id="glyph-1-1">
<path d="M 5.6875 -2.625 C 5.78125 -2.671875 5.84375 -2.71875 5.84375 -2.8125 C 5.84375 -2.921875 5.78125 -2.96875 5.6875 -3.015625 L 1.046875 -5.25 C 0.921875 -5.3125 0.890625 -5.3125 0.875 -5.3125 C 0.78125 -5.3125 0.703125 -5.21875 0.703125 -5.125 C 0.703125 -5.03125 0.765625 -4.984375 0.859375 -4.921875 L 5.25 -2.8125 L 0.890625 -0.71875 C 0.765625 -0.65625 0.703125 -0.625 0.703125 -0.515625 C 0.703125 -0.40625 0.78125 -0.328125 0.875 -0.328125 C 0.90625 -0.328125 0.921875 -0.328125 1.03125 -0.375 Z M 5.546875 1.34375 C 5.671875 1.34375 5.84375 1.34375 5.84375 1.171875 C 5.84375 0.984375 5.671875 0.984375 5.546875 0.984375 L 1.015625 0.984375 C 0.875 0.984375 0.703125 0.984375 0.703125 1.171875 C 0.703125 1.34375 0.875 1.34375 1 1.34375 Z M 5.546875 1.34375 "/>
</g>
<g id="glyph-1-2">
<path d="M 5.6875 -4.921875 C 5.78125 -4.984375 5.84375 -5.03125 5.84375 -5.125 C 5.84375 -5.21875 5.765625 -5.3125 5.671875 -5.3125 C 5.65625 -5.3125 5.625 -5.3125 5.53125 -5.265625 L 0.859375 -3.015625 C 0.765625 -2.96875 0.703125 -2.921875 0.703125 -2.8125 C 0.703125 -2.71875 0.765625 -2.671875 0.859375 -2.625 L 5.53125 -0.375 C 5.625 -0.328125 5.640625 -0.328125 5.671875 -0.328125 C 5.765625 -0.328125 5.84375 -0.40625 5.84375 -0.515625 C 5.84375 -0.609375 5.78125 -0.65625 5.6875 -0.703125 L 1.296875 -2.8125 Z M 5.546875 1.34375 C 5.671875 1.34375 5.84375 1.34375 5.84375 1.171875 C 5.84375 0.984375 5.671875 0.984375 5.546875 0.984375 L 1.015625 0.984375 C 0.875 0.984375 0.703125 0.984375 0.703125 1.171875 C 0.703125 1.34375 0.875 1.34375 1 1.34375 Z M 5.546875 1.34375 "/>
</g>
<g id="glyph-1-3">
<path d="M 5.546875 -1.796875 C 5.671875 -1.796875 5.84375 -1.796875 5.84375 -1.984375 C 5.84375 -2.171875 5.671875 -2.171875 5.546875 -2.171875 L 1 -2.171875 C 0.875 -2.171875 0.703125 -2.171875 0.703125 -1.984375 C 0.703125 -1.796875 0.875 -1.796875 1 -1.796875 Z M 5.546875 -1.796875 "/>
</g>
<g id="glyph-1-4">
<path d="M 1.34375 -5.65625 C 1.34375 -5.78125 1.34375 -5.953125 1.171875 -5.953125 C 0.984375 -5.953125 0.984375 -5.78125 0.984375 -5.65625 L 0.984375 1.6875 C 0.984375 1.8125 0.984375 1.984375 1.171875 1.984375 C 1.34375 1.984375 1.34375 1.8125 1.34375 1.6875 Z M 1.34375 -5.65625 "/>
</g>
<g id="glyph-1-5">
<path d="M 3.71875 -1.28125 C 3.5625 -0.78125 3.40625 -0.453125 3.21875 -0.125 C 2.890625 0.453125 2.6875 0.46875 2.40625 0.46875 C 2.1875 0.46875 1.65625 0.4375 1.125 0.15625 C 0.78125 0.1875 0.484375 0.453125 0.484375 0.5625 C 0.484375 0.640625 0.9375 0.796875 1.046875 0.828125 C 1.421875 0.9375 1.734375 0.9375 1.84375 0.9375 C 2.578125 0.9375 3.546875 0.515625 4.109375 -0.78125 C 4.28125 -1.171875 4.390625 -1.5 4.4375 -1.6875 C 4.625 -2.28125 4.765625 -2.828125 4.765625 -2.875 C 4.765625 -2.921875 4.734375 -2.9375 4.6875 -2.9375 C 4.59375 -2.9375 4.421875 -2.875 4.265625 -2.78125 C 4.09375 -2.65625 4.078125 -2.609375 4.03125 -2.4375 C 3.921875 -2.078125 3.421875 -1 2.421875 -1 C 1.578125 -1 1.078125 -1.671875 1.078125 -2.578125 C 1.078125 -3.015625 1.21875 -3.828125 1.8125 -4.5 C 2.234375 -4.984375 2.8125 -5.125 3.375 -5.125 C 3.609375 -5.125 3.84375 -5.09375 3.96875 -5.0625 C 4.109375 -5.015625 4.3125 -4.953125 4.3125 -4.6875 C 4.3125 -4.421875 3.90625 -3.96875 3.890625 -3.9375 C 3.828125 -3.859375 3.796875 -3.828125 3.796875 -3.78125 C 3.796875 -3.78125 3.8125 -3.734375 3.890625 -3.734375 C 3.921875 -3.734375 4.09375 -3.75 4.296875 -3.90625 C 4.53125 -4.0625 5.015625 -4.71875 5.015625 -5.046875 C 5.015625 -5.453125 4.59375 -5.59375 3.9375 -5.59375 C 2.5 -5.59375 1.546875 -4.6875 1.421875 -4.578125 C 0.46875 -3.640625 0.375 -2.625 0.375 -2.21875 C 0.375 -1.265625 0.90625 -0.546875 1.875 -0.546875 C 2.328125 -0.546875 2.9375 -0.6875 3.71875 -1.28125 Z M 3.71875 -1.28125 "/>
</g>
<g id="glyph-2-0">
<path d="M 5.3125 -4.484375 C 5.71875 -5.078125 6.015625 -5.140625 6.328125 -5.15625 C 6.421875 -5.171875 6.453125 -5.25 6.453125 -5.3125 C 6.453125 -5.328125 6.4375 -5.421875 6.34375 -5.421875 C 6.25 -5.421875 6.28125 -5.390625 5.703125 -5.390625 C 5.1875 -5.390625 4.984375 -5.421875 4.9375 -5.421875 C 4.90625 -5.421875 4.78125 -5.421875 4.78125 -5.265625 C 4.78125 -5.171875 4.890625 -5.15625 4.921875 -5.15625 C 5.140625 -5.140625 5.25 -5.0625 5.25 -4.921875 C 5.25 -4.796875 5.171875 -4.6875 5.140625 -4.625 L 2.5625 -0.71875 L 1.890625 -4.796875 C 1.890625 -4.875 1.875 -4.90625 1.875 -4.9375 C 1.875 -5.046875 2 -5.15625 2.40625 -5.15625 C 2.5 -5.15625 2.609375 -5.15625 2.609375 -5.3125 C 2.609375 -5.34375 2.578125 -5.421875 2.46875 -5.421875 C 2.40625 -5.421875 2.09375 -5.40625 2.03125 -5.390625 L 1.53125 -5.390625 C 0.8125 -5.390625 0.703125 -5.421875 0.640625 -5.421875 C 0.609375 -5.421875 0.484375 -5.421875 0.484375 -5.265625 C 0.484375 -5.15625 0.59375 -5.15625 0.703125 -5.15625 C 1.109375 -5.15625 1.125 -5.09375 1.15625 -4.890625 L 1.921875 -0.0625 C 1.953125 0.109375 1.953125 0.171875 2.109375 0.171875 C 2.25 0.171875 2.296875 0.09375 2.34375 0.015625 Z M 5.3125 -4.484375 "/>
</g>
<g id="glyph-2-1">
<path d="M 2.5 -2.890625 L 3.90625 -2.890625 C 4.046875 -2.890625 4.125 -2.890625 4.203125 -2.953125 C 4.296875 -3.046875 4.328125 -3.15625 4.328125 -3.203125 C 4.328125 -3.421875 4.125 -3.421875 4 -3.421875 L 1.59375 -3.421875 C 1.421875 -3.421875 1.125 -3.421875 0.734375 -3.046875 C 0.453125 -2.75 0.234375 -2.390625 0.234375 -2.328125 C 0.234375 -2.265625 0.28125 -2.234375 0.34375 -2.234375 C 0.421875 -2.234375 0.4375 -2.265625 0.484375 -2.328125 C 0.875 -2.890625 1.34375 -2.890625 1.53125 -2.890625 L 2.21875 -2.890625 L 1.53125 -0.703125 C 1.46875 -0.515625 1.375 -0.1875 1.375 -0.15625 C 1.375 0.03125 1.546875 0.09375 1.640625 0.09375 C 1.921875 0.09375 1.96875 -0.1875 2 -0.296875 Z M 2.5 -2.890625 "/>
</g>
<g id="glyph-2-2">
<path d="M 4.359375 -2.890625 C 4.5 -2.890625 4.5625 -2.890625 4.65625 -2.953125 C 4.734375 -3.03125 4.765625 -3.140625 4.765625 -3.203125 C 4.765625 -3.421875 4.578125 -3.421875 4.4375 -3.421875 L 2.484375 -3.421875 C 1.265625 -3.421875 0.328125 -2.171875 0.328125 -1.203125 C 0.328125 -0.421875 0.875 0.078125 1.625 0.078125 C 2.625 0.078125 3.703125 -0.875 3.703125 -2.0625 C 3.703125 -2.5 3.5625 -2.75 3.46875 -2.890625 Z M 1.625 -0.140625 C 1.234375 -0.140625 0.875 -0.40625 0.875 -0.984375 C 0.875 -1.3125 1.078125 -2.890625 2.359375 -2.890625 C 3.125 -2.890625 3.125 -2.3125 3.125 -2.140625 C 3.125 -1.328125 2.5625 -0.140625 1.625 -0.140625 Z M 1.625 -0.140625 "/>
</g>
<g id="glyph-2-3">
<path d="M 4.140625 -2.1875 C 4.171875 -2.3125 4.203125 -2.4375 4.203125 -2.625 C 4.203125 -3.21875 3.78125 -3.5 3.21875 -3.5 C 2.578125 -3.5 2.15625 -3.109375 1.921875 -2.8125 C 1.875 -3.25 1.53125 -3.5 1.125 -3.5 C 0.828125 -3.5 0.640625 -3.3125 0.515625 -3.078125 C 0.328125 -2.71875 0.234375 -2.3125 0.234375 -2.28125 C 0.234375 -2.21875 0.296875 -2.1875 0.359375 -2.1875 C 0.453125 -2.1875 0.46875 -2.21875 0.53125 -2.421875 C 0.625 -2.828125 0.765625 -3.28125 1.09375 -3.28125 C 1.296875 -3.28125 1.34375 -3.09375 1.34375 -2.90625 C 1.34375 -2.765625 1.3125 -2.609375 1.25 -2.34375 C 1.234375 -2.28125 1.109375 -1.8125 1.078125 -1.703125 L 0.78125 -0.515625 C 0.75 -0.390625 0.703125 -0.203125 0.703125 -0.171875 C 0.703125 0.015625 0.859375 0.078125 0.953125 0.078125 C 1.109375 0.078125 1.21875 -0.015625 1.28125 -0.109375 C 1.296875 -0.15625 1.359375 -0.421875 1.40625 -0.59375 L 1.59375 -1.296875 C 1.609375 -1.421875 1.6875 -1.71875 1.71875 -1.84375 C 1.828125 -2.265625 1.828125 -2.28125 2.015625 -2.546875 C 2.265625 -2.921875 2.640625 -3.28125 3.171875 -3.28125 C 3.453125 -3.28125 3.625 -3.109375 3.625 -2.734375 C 3.625 -2.59375 3.5625 -2.296875 3.5625 -2.28125 L 2.671875 1.28125 C 2.640625 1.390625 2.640625 1.4375 2.640625 1.453125 C 2.640625 1.65625 2.796875 1.703125 2.890625 1.703125 C 3.171875 1.703125 3.234375 1.4375 3.25 1.34375 Z M 4.140625 -2.1875 "/>
</g>
<g id="glyph-2-4">
<path d="M 3.9375 -2.921875 C 3.96875 -3.046875 3.96875 -3.09375 3.96875 -3.109375 C 3.96875 -3.28125 3.8125 -3.34375 3.71875 -3.34375 C 3.53125 -3.34375 3.390625 -3.203125 3.359375 -3.046875 C 3.296875 -3.15625 3.0625 -3.5 2.578125 -3.5 C 1.640625 -3.5 0.609375 -2.4375 0.609375 -1.28125 C 0.609375 -0.421875 1.171875 0 1.75 0 C 2.125 0 2.4375 -0.203125 2.703125 -0.421875 L 2.53125 0.28125 C 2.4375 0.625 2.390625 0.84375 2.078125 1.109375 C 1.75 1.390625 1.4375 1.390625 1.25 1.390625 C 1.046875 1.390625 0.859375 1.390625 0.671875 1.34375 C 0.84375 1.25 0.921875 1.09375 0.921875 0.953125 C 0.921875 0.765625 0.78125 0.65625 0.609375 0.65625 C 0.40625 0.65625 0.171875 0.8125 0.171875 1.140625 C 0.171875 1.59375 0.78125 1.625 1.265625 1.625 C 2.390625 1.625 2.953125 1.015625 3.078125 0.53125 Z M 2.859375 -1.046875 C 2.8125 -0.828125 2.640625 -0.671875 2.46875 -0.515625 C 2.390625 -0.453125 2.09375 -0.21875 1.765625 -0.21875 C 1.453125 -0.21875 1.21875 -0.484375 1.21875 -0.953125 C 1.21875 -1.296875 1.421875 -2.15625 1.640625 -2.5625 C 1.890625 -3.015625 2.265625 -3.28125 2.578125 -3.28125 C 3.109375 -3.28125 3.25 -2.6875 3.25 -2.625 L 3.234375 -2.515625 Z M 2.859375 -1.046875 "/>
</g>
<g id="glyph-2-5">
<path d="M 3.6875 -5.625 C 3.734375 -5.734375 3.734375 -5.75 3.734375 -5.765625 C 3.734375 -5.875 3.65625 -5.953125 3.5625 -5.953125 C 3.421875 -5.953125 3.390625 -5.859375 3.359375 -5.78125 L 0.515625 1.65625 C 0.46875 1.765625 0.46875 1.78125 0.46875 1.796875 C 0.46875 1.90625 0.546875 1.984375 0.65625 1.984375 C 0.78125 1.984375 0.8125 1.890625 0.84375 1.8125 Z M 3.6875 -5.625 "/>
</g>
<g id="glyph-2-6">
<path d="M 6.28125 -4.5625 C 6.375 -4.9375 6.5625 -5.140625 7.125 -5.15625 C 7.203125 -5.15625 7.265625 -5.203125 7.265625 -5.3125 C 7.265625 -5.359375 7.234375 -5.421875 7.15625 -5.421875 C 7.09375 -5.421875 6.9375 -5.390625 6.359375 -5.390625 C 5.71875 -5.390625 5.625 -5.421875 5.546875 -5.421875 C 5.421875 -5.421875 5.390625 -5.328125 5.390625 -5.265625 C 5.390625 -5.171875 5.5 -5.15625 5.578125 -5.15625 C 6.0625 -5.140625 6.0625 -4.921875 6.0625 -4.8125 C 6.0625 -4.78125 6.0625 -4.734375 6.03125 -4.609375 L 5.15625 -1.140625 L 3.234375 -5.28125 C 3.171875 -5.421875 3.15625 -5.421875 2.96875 -5.421875 L 1.9375 -5.421875 C 1.796875 -5.421875 1.6875 -5.421875 1.6875 -5.265625 C 1.6875 -5.15625 1.78125 -5.15625 1.953125 -5.15625 C 2.015625 -5.15625 2.25 -5.15625 2.4375 -5.109375 L 1.375 -0.84375 C 1.28125 -0.453125 1.078125 -0.28125 0.546875 -0.265625 C 0.484375 -0.265625 0.390625 -0.25 0.390625 -0.109375 C 0.390625 -0.0625 0.4375 0 0.515625 0 C 0.546875 0 0.734375 -0.03125 1.296875 -0.03125 C 1.921875 -0.03125 2.046875 0 2.125 0 C 2.15625 0 2.265625 0 2.265625 -0.15625 C 2.265625 -0.25 2.1875 -0.265625 2.125 -0.265625 C 1.84375 -0.265625 1.609375 -0.3125 1.609375 -0.59375 C 1.609375 -0.640625 1.625 -0.75 1.625 -0.75 L 2.671875 -4.890625 L 4.875 -0.140625 C 4.9375 -0.015625 4.9375 0 5.03125 0 C 5.140625 0 5.15625 -0.03125 5.1875 -0.171875 Z M 6.28125 -4.5625 "/>
</g>
<g id="glyph-3-0">
<path d="M 2.765625 -2.28125 C 2.6875 -2.265625 2.484375 -2.171875 2.484375 -1.953125 C 2.484375 -1.796875 2.59375 -1.71875 2.71875 -1.71875 C 2.859375 -1.71875 3.0625 -1.828125 3.0625 -2.109375 C 3.0625 -2.5 2.609375 -2.625 2.234375 -2.625 C 1.3125 -2.625 0.453125 -1.828125 0.453125 -1 C 0.453125 -0.4375 0.859375 0.0625 1.625 0.0625 C 2.75 0.0625 3.171875 -0.53125 3.171875 -0.59375 C 3.171875 -0.65625 3.109375 -0.71875 3.0625 -0.71875 C 3.03125 -0.71875 3.03125 -0.71875 2.9375 -0.625 C 2.609375 -0.25 2.0625 -0.140625 1.640625 -0.140625 C 1.140625 -0.140625 0.96875 -0.453125 0.96875 -0.796875 C 0.96875 -0.828125 0.96875 -1.515625 1.390625 -2.015625 C 1.46875 -2.125 1.78125 -2.421875 2.234375 -2.421875 C 2.265625 -2.421875 2.578125 -2.421875 2.765625 -2.28125 Z M 2.765625 -2.28125 "/>
</g>
<g id="glyph-3-1">
<path d="M 1.71875 -1.640625 C 1.734375 -1.703125 1.796875 -1.84375 1.8125 -1.890625 C 1.828125 -1.953125 1.859375 -2 1.859375 -2.109375 C 1.859375 -2.4375 1.5625 -2.625 1.265625 -2.625 C 0.65625 -2.625 0.359375 -1.84375 0.359375 -1.703125 C 0.359375 -1.671875 0.390625 -1.625 0.46875 -1.625 C 0.546875 -1.625 0.578125 -1.65625 0.59375 -1.71875 C 0.75 -2.296875 1.078125 -2.421875 1.234375 -2.421875 C 1.359375 -2.421875 1.40625 -2.34375 1.40625 -2.21875 C 1.40625 -2.09375 1.359375 -2 1.34375 -1.96875 L 1.046875 -1.203125 C 0.96875 -1.03125 0.96875 -1.015625 0.890625 -0.8125 C 0.8125 -0.640625 0.78125 -0.5625 0.78125 -0.453125 C 0.78125 -0.15625 1.0625 0.0625 1.390625 0.0625 C 1.984375 0.0625 2.28125 -0.71875 2.28125 -0.859375 C 2.28125 -0.875 2.28125 -0.9375 2.171875 -0.9375 C 2.09375 -0.9375 2.078125 -0.90625 2.046875 -0.796875 C 1.953125 -0.5 1.703125 -0.140625 1.40625 -0.140625 C 1.296875 -0.140625 1.25 -0.203125 1.25 -0.34375 C 1.25 -0.46875 1.28125 -0.5625 1.359375 -0.75 Z M 1.71875 -1.640625 "/>
</g>
<g id="glyph-4-0">
<path d="M 1.984375 -3.15625 C 1.984375 -3.3125 1.96875 -3.3125 1.796875 -3.3125 C 1.453125 -2.984375 0.890625 -2.984375 0.796875 -2.984375 L 0.703125 -2.984375 L 0.703125 -2.765625 L 0.796875 -2.765625 C 0.90625 -2.765625 1.234375 -2.78125 1.515625 -2.90625 L 1.515625 -0.421875 C 1.515625 -0.265625 1.515625 -0.21875 1 -0.21875 L 0.75 -0.21875 L 0.75 0 C 1.015625 -0.015625 1.453125 -0.015625 1.75 -0.015625 C 2.03125 -0.015625 2.484375 -0.015625 2.75 0 L 2.75 -0.21875 L 2.5 -0.21875 C 1.984375 -0.21875 1.984375 -0.265625 1.984375 -0.421875 Z M 1.984375 -3.15625 "/>
</g>
<g id="glyph-4-1">
<path d="M 2.921875 -0.953125 L 2.71875 -0.953125 C 2.703125 -0.859375 2.65625 -0.5625 2.578125 -0.5 C 2.53125 -0.484375 2.109375 -0.484375 2.046875 -0.484375 L 1.0625 -0.484375 C 1.390625 -0.71875 1.765625 -1 2.0625 -1.203125 C 2.515625 -1.5 2.921875 -1.796875 2.921875 -2.328125 C 2.921875 -2.953125 2.328125 -3.3125 1.609375 -3.3125 C 0.9375 -3.3125 0.453125 -2.921875 0.453125 -2.4375 C 0.453125 -2.171875 0.671875 -2.125 0.734375 -2.125 C 0.875 -2.125 1.03125 -2.21875 1.03125 -2.421875 C 1.03125 -2.609375 0.90625 -2.703125 0.75 -2.71875 C 0.890625 -2.9375 1.171875 -3.09375 1.515625 -3.09375 C 2 -3.09375 2.390625 -2.796875 2.390625 -2.3125 C 2.390625 -1.890625 2.109375 -1.578125 1.71875 -1.25 L 0.515625 -0.234375 C 0.46875 -0.1875 0.453125 -0.1875 0.453125 -0.15625 L 0.453125 0 L 2.765625 0 Z M 2.921875 -0.953125 "/>
</g>
<g id="glyph-4-2">
<path d="M 1.640625 -1.640625 C 2.09375 -1.640625 2.40625 -1.359375 2.40625 -0.875 C 2.40625 -0.359375 2.09375 -0.09375 1.640625 -0.09375 C 1.59375 -0.09375 1 -0.09375 0.75 -0.359375 C 0.953125 -0.375 1.015625 -0.53125 1.015625 -0.65625 C 1.015625 -0.84375 0.875 -0.953125 0.703125 -0.953125 C 0.546875 -0.953125 0.390625 -0.859375 0.390625 -0.640625 C 0.390625 -0.125 0.984375 0.109375 1.65625 0.109375 C 2.46875 0.109375 2.984375 -0.375 2.984375 -0.859375 C 2.984375 -1.265625 2.625 -1.625 2.046875 -1.75 C 2.640625 -1.9375 2.8125 -2.328125 2.8125 -2.59375 C 2.8125 -3 2.296875 -3.3125 1.671875 -3.3125 C 1.0625 -3.3125 0.578125 -3.046875 0.578125 -2.609375 C 0.578125 -2.375 0.765625 -2.3125 0.859375 -2.3125 C 1 -2.3125 1.140625 -2.421875 1.140625 -2.59375 C 1.140625 -2.703125 1.078125 -2.84375 0.90625 -2.875 C 1.109375 -3.109375 1.5625 -3.125 1.65625 -3.125 C 2.015625 -3.125 2.28125 -2.9375 2.28125 -2.59375 C 2.28125 -2.3125 2.09375 -1.859375 1.5625 -1.828125 C 1.4375 -1.828125 1.40625 -1.8125 1.28125 -1.8125 C 1.234375 -1.8125 1.171875 -1.796875 1.171875 -1.734375 C 1.171875 -1.640625 1.21875 -1.640625 1.3125 -1.640625 Z M 1.640625 -1.640625 "/>
</g>
<g id="glyph-4-3">
<path d="M 3.0625 -0.8125 L 3.0625 -1.03125 L 2.4375 -1.03125 L 2.4375 -3.21875 C 2.4375 -3.328125 2.4375 -3.359375 2.3125 -3.359375 C 2.21875 -3.359375 2.203125 -3.359375 2.15625 -3.296875 L 0.3125 -1.03125 L 0.3125 -0.8125 L 1.96875 -0.8125 L 1.96875 -0.421875 C 1.96875 -0.265625 1.96875 -0.21875 1.53125 -0.21875 L 1.359375 -0.21875 L 1.359375 0 C 1.59375 -0.015625 1.921875 -0.015625 2.203125 -0.015625 C 2.5 -0.015625 2.8125 -0.015625 3.046875 0 L 3.046875 -0.21875 L 2.875 -0.21875 C 2.4375 -0.21875 2.4375 -0.265625 2.4375 -0.421875 L 2.4375 -0.8125 Z M 2 -2.828125 L 2 -1.03125 L 0.546875 -1.03125 Z M 2 -2.828125 "/>
</g>
<g id="glyph-5-0">
<path d="M 2.640625 1.984375 C 2.703125 1.984375 2.796875 1.984375 2.796875 1.890625 C 2.796875 1.859375 2.796875 1.84375 2.6875 1.75 C 1.609375 0.71875 1.328125 -0.75 1.328125 -1.984375 C 1.328125 -4.265625 2.28125 -5.34375 2.6875 -5.703125 C 2.796875 -5.8125 2.796875 -5.8125 2.796875 -5.859375 C 2.796875 -5.890625 2.765625 -5.953125 2.6875 -5.953125 C 2.5625 -5.953125 2.171875 -5.546875 2.109375 -5.484375 C 1.046875 -4.359375 0.8125 -2.9375 0.8125 -1.984375 C 0.8125 -0.203125 1.5625 1.21875 2.640625 1.984375 Z M 2.640625 1.984375 "/>
</g>
<g id="glyph-5-1">
<path d="M 2.921875 -3.15625 C 2.703125 -3.078125 2.671875 -2.890625 2.671875 -2.796875 C 2.671875 -2.59375 2.8125 -2.421875 3.046875 -2.421875 C 3.25 -2.421875 3.40625 -2.578125 3.40625 -2.8125 C 3.40625 -3.296875 2.875 -3.546875 2.125 -3.546875 C 1.03125 -3.546875 0.28125 -2.65625 0.28125 -1.71875 C 0.28125 -0.703125 1.109375 0.078125 2.109375 0.078125 C 3.21875 0.078125 3.5 -0.859375 3.5 -0.953125 C 3.5 -1.046875 3.390625 -1.046875 3.375 -1.046875 C 3.3125 -1.046875 3.28125 -1.046875 3.25 -0.953125 C 3.203125 -0.796875 2.96875 -0.171875 2.1875 -0.171875 C 1.6875 -0.171875 0.984375 -0.546875 0.984375 -1.71875 C 0.984375 -2.859375 1.578125 -3.296875 2.15625 -3.296875 C 2.21875 -3.296875 2.640625 -3.296875 2.921875 -3.15625 Z M 2.921875 -3.15625 "/>
</g>
<g id="glyph-5-2">
<path d="M 3.96875 -1.6875 C 3.96875 -2.6875 3.15625 -3.546875 2.109375 -3.546875 C 1.0625 -3.546875 0.234375 -2.6875 0.234375 -1.6875 C 0.234375 -0.703125 1.09375 0.078125 2.109375 0.078125 C 3.125 0.078125 3.96875 -0.703125 3.96875 -1.6875 Z M 2.109375 -0.171875 C 1.671875 -0.171875 1.34375 -0.375 1.171875 -0.65625 C 0.96875 -0.96875 0.9375 -1.359375 0.9375 -1.765625 C 0.9375 -2.0625 0.9375 -2.546875 1.1875 -2.875 C 1.390625 -3.15625 1.734375 -3.3125 2.109375 -3.3125 C 2.515625 -3.3125 2.859375 -3.125 3.046875 -2.84375 C 3.25 -2.515625 3.265625 -2.078125 3.265625 -1.765625 C 3.265625 -1.390625 3.25 -0.953125 3.03125 -0.625 C 2.8125 -0.3125 2.453125 -0.171875 2.109375 -0.171875 Z M 2.109375 -0.171875 "/>
</g>
<g id="glyph-5-3">
<path d="M 1.453125 -1.8125 C 1.453125 -2.40625 1.703125 -3.265625 2.46875 -3.28125 C 2.421875 -3.25 2.34375 -3.1875 2.34375 -3 C 2.34375 -2.75 2.53125 -2.640625 2.6875 -2.640625 C 2.875 -2.640625 3.046875 -2.765625 3.046875 -3 C 3.046875 -3.28125 2.796875 -3.5 2.4375 -3.5 C 1.921875 -3.5 1.578125 -3.109375 1.40625 -2.671875 L 1.40625 -3.5 L 0.28125 -3.40625 L 0.28125 -3.15625 C 0.8125 -3.15625 0.875 -3.09375 0.875 -2.703125 L 0.875 -0.625 C 0.875 -0.265625 0.78125 -0.265625 0.28125 -0.265625 L 0.28125 0 C 0.59375 -0.03125 1.03125 -0.03125 1.21875 -0.03125 C 1.6875 -0.03125 1.703125 -0.03125 2.21875 0 L 2.21875 -0.265625 L 2.0625 -0.265625 C 1.46875 -0.265625 1.453125 -0.34375 1.453125 -0.640625 Z M 1.453125 -1.8125 "/>
</g>
<g id="glyph-5-4">
<path d="M 1.546875 -4.890625 C 1.546875 -5.125 1.359375 -5.328125 1.109375 -5.328125 C 0.875 -5.328125 0.671875 -5.15625 0.671875 -4.890625 C 0.671875 -4.625 0.890625 -4.453125 1.109375 -4.453125 C 1.375 -4.453125 1.546875 -4.6875 1.546875 -4.890625 Z M 0.359375 -3.40625 L 0.359375 -3.15625 C 0.859375 -3.15625 0.9375 -3.109375 0.9375 -2.71875 L 0.9375 -0.625 C 0.9375 -0.265625 0.84375 -0.265625 0.328125 -0.265625 L 0.328125 0 C 0.640625 -0.03125 1.09375 -0.03125 1.203125 -0.03125 C 1.3125 -0.03125 1.78125 -0.03125 2.0625 0 L 2.0625 -0.265625 C 1.546875 -0.265625 1.515625 -0.296875 1.515625 -0.609375 L 1.515625 -3.5 Z M 0.359375 -3.40625 "/>
</g>
<g id="glyph-5-5">
<path d="M 2.609375 -5.421875 L 2.609375 -5.15625 C 3.15625 -5.15625 3.21875 -5.109375 3.21875 -4.71875 L 3.21875 -3.046875 C 2.9375 -3.34375 2.5625 -3.5 2.15625 -3.5 C 1.15625 -3.5 0.28125 -2.734375 0.28125 -1.703125 C 0.28125 -0.734375 1.078125 0.078125 2.078125 0.078125 C 2.546875 0.078125 2.921875 -0.140625 3.1875 -0.421875 L 3.1875 0.078125 L 4.390625 0 L 4.390625 -0.265625 C 3.859375 -0.265625 3.796875 -0.3125 3.796875 -0.703125 L 3.796875 -5.515625 Z M 3.1875 -0.984375 C 3.1875 -0.84375 3.1875 -0.8125 3.078125 -0.65625 C 2.84375 -0.328125 2.484375 -0.140625 2.109375 -0.140625 C 1.75 -0.140625 1.421875 -0.328125 1.234375 -0.625 C 1.03125 -0.9375 0.984375 -1.328125 0.984375 -1.703125 C 0.984375 -2.15625 1.0625 -2.484375 1.234375 -2.765625 C 1.421875 -3.0625 1.78125 -3.28125 2.1875 -3.28125 C 2.578125 -3.28125 2.953125 -3.09375 3.1875 -2.671875 Z M 3.1875 -0.984375 "/>
</g>
<g id="glyph-5-6">
<path d="M 2.390625 -2.15625 L 3.0625 -2.703125 C 3.59375 -3.109375 3.921875 -3.15625 4.125 -3.15625 L 4.125 -3.421875 C 3.921875 -3.390625 3.8125 -3.390625 3.5 -3.390625 C 3.109375 -3.390625 3 -3.40625 2.640625 -3.421875 L 2.640625 -3.15625 C 2.796875 -3.15625 2.828125 -3.046875 2.828125 -3 C 2.828125 -2.828125 2.671875 -2.703125 2.609375 -2.65625 L 1.453125 -1.734375 L 1.453125 -5.515625 L 0.28125 -5.421875 L 0.28125 -5.15625 C 0.8125 -5.15625 0.875 -5.109375 0.875 -4.71875 L 0.875 -0.625 C 0.875 -0.265625 0.78125 -0.265625 0.28125 -0.265625 L 0.28125 0 C 0.59375 -0.03125 1.015625 -0.03125 1.15625 -0.03125 C 1.3125 -0.03125 1.71875 -0.03125 2.03125 0 L 2.03125 -0.265625 C 1.53125 -0.265625 1.421875 -0.265625 1.421875 -0.625 L 1.421875 -1.390625 L 1.96875 -1.8125 C 2 -1.8125 2.203125 -1.546875 2.328125 -1.390625 C 2.4375 -1.21875 2.578125 -1.0625 2.703125 -0.90625 C 2.8125 -0.75 2.96875 -0.546875 2.96875 -0.421875 C 2.96875 -0.28125 2.828125 -0.265625 2.734375 -0.265625 L 2.734375 0 C 3.078125 -0.03125 3.421875 -0.03125 3.5625 -0.03125 C 3.859375 -0.03125 4.03125 -0.03125 4.296875 0 L 4.296875 -0.265625 C 3.96875 -0.265625 3.828125 -0.296875 3.546875 -0.671875 Z M 2.390625 -2.15625 "/>
</g>
<g id="glyph-5-7">
<path d="M 3.28125 -1.8125 C 3.453125 -1.8125 3.5 -1.8125 3.5 -2 C 3.5 -2.703125 3.109375 -3.546875 2 -3.546875 C 1.015625 -3.546875 0.234375 -2.71875 0.234375 -1.734375 C 0.234375 -0.71875 1.09375 0.078125 2.09375 0.078125 C 3.109375 0.078125 3.5 -0.765625 3.5 -0.953125 C 3.5 -0.984375 3.484375 -1.0625 3.375 -1.0625 C 3.28125 -1.0625 3.265625 -1.015625 3.25 -0.953125 C 2.96875 -0.1875 2.28125 -0.171875 2.140625 -0.171875 C 1.78125 -0.171875 1.421875 -0.328125 1.1875 -0.703125 C 0.9375 -1.0625 0.9375 -1.578125 0.9375 -1.8125 Z M 0.953125 -2.015625 C 1.03125 -3.125 1.703125 -3.3125 2 -3.3125 C 2.921875 -3.3125 2.953125 -2.203125 2.953125 -2.015625 Z M 0.953125 -2.015625 "/>
</g>
<g id="glyph-5-8">
<path d="M 2.09375 1.28125 C 1.578125 1.28125 1.484375 1.28125 1.484375 0.921875 L 1.484375 -0.390625 C 1.859375 0.015625 2.265625 0.078125 2.515625 0.078125 C 3.53125 0.078125 4.390625 -0.703125 4.390625 -1.71875 C 4.390625 -2.703125 3.59375 -3.5 2.640625 -3.5 C 2.328125 -3.5 1.859375 -3.421875 1.453125 -3.015625 L 1.453125 -3.5 L 0.28125 -3.40625 L 0.28125 -3.15625 C 0.84375 -3.15625 0.875 -3.109375 0.875 -2.765625 L 0.875 0.921875 C 0.875 1.28125 0.78125 1.28125 0.28125 1.28125 L 0.28125 1.546875 C 0.625 1.515625 0.96875 1.515625 1.1875 1.515625 C 1.40625 1.515625 1.75 1.515625 2.09375 1.546875 Z M 1.484375 -2.640625 C 1.671875 -2.953125 2.0625 -3.25 2.5625 -3.25 C 3.171875 -3.25 3.6875 -2.578125 3.6875 -1.71875 C 3.6875 -0.796875 3.125 -0.140625 2.46875 -0.140625 C 2.203125 -0.140625 1.828125 -0.265625 1.578125 -0.65625 C 1.484375 -0.796875 1.484375 -0.796875 1.484375 -0.953125 Z M 1.484375 -2.640625 "/>
</g>
<g id="glyph-5-9">
<path d="M 3.859375 -2.40625 C 3.859375 -3.078125 3.5625 -3.5 2.71875 -3.5 C 1.9375 -3.5 1.578125 -2.921875 1.484375 -2.734375 L 1.46875 -2.734375 L 1.46875 -3.5 L 0.328125 -3.40625 L 0.328125 -3.15625 C 0.859375 -3.15625 0.921875 -3.09375 0.921875 -2.703125 L 0.921875 -0.625 C 0.921875 -0.265625 0.828125 -0.265625 0.328125 -0.265625 L 0.328125 0 C 0.671875 -0.03125 1.015625 -0.03125 1.234375 -0.03125 C 1.453125 -0.03125 1.796875 -0.03125 2.140625 0 L 2.140625 -0.265625 C 1.625 -0.265625 1.53125 -0.265625 1.53125 -0.625 L 1.53125 -2.0625 C 1.53125 -2.890625 2.171875 -3.28125 2.65625 -3.28125 C 3.140625 -3.28125 3.25 -2.9375 3.25 -2.4375 L 3.25 -0.625 C 3.25 -0.265625 3.15625 -0.265625 2.65625 -0.265625 L 2.65625 0 C 3 -0.03125 3.34375 -0.03125 3.5625 -0.03125 C 3.78125 -0.03125 4.125 -0.03125 4.453125 0 L 4.453125 -0.265625 C 3.953125 -0.265625 3.859375 -0.265625 3.859375 -0.625 Z M 3.859375 -2.40625 "/>
</g>
<g id="glyph-5-10">
<path d="M 1.375 -0.546875 C 1.125 -0.578125 0.921875 -0.78125 0.921875 -1.078125 C 0.921875 -1.265625 0.96875 -1.328125 1.03125 -1.40625 C 1.359375 -1.203125 1.671875 -1.171875 1.859375 -1.171875 C 2.65625 -1.171875 3.234375 -1.71875 3.234375 -2.328125 C 3.234375 -2.640625 3.09375 -2.890625 2.90625 -3.09375 C 3.015625 -3.1875 3.28125 -3.359375 3.671875 -3.359375 C 3.640625 -3.34375 3.59375 -3.296875 3.59375 -3.171875 C 3.59375 -3.03125 3.703125 -2.921875 3.84375 -2.921875 C 3.953125 -2.921875 4.09375 -3 4.09375 -3.1875 C 4.09375 -3.3125 3.984375 -3.59375 3.640625 -3.59375 C 3.5 -3.59375 3.125 -3.5625 2.75 -3.21875 C 2.5625 -3.359375 2.25 -3.5 1.875 -3.5 C 1.09375 -3.5 0.515625 -2.953125 0.515625 -2.328125 C 0.515625 -1.953125 0.71875 -1.6875 0.875 -1.53125 C 0.703125 -1.328125 0.640625 -1.078125 0.640625 -0.875 C 0.640625 -0.5625 0.796875 -0.3125 0.96875 -0.171875 C 0.5625 -0.0625 0.234375 0.25 0.234375 0.609375 C 0.234375 1.1875 1.0625 1.625 2.109375 1.625 C 3.09375 1.625 3.96875 1.21875 3.96875 0.59375 C 3.96875 0.171875 3.71875 -0.171875 3.453125 -0.296875 C 2.984375 -0.546875 2.59375 -0.546875 1.8125 -0.546875 Z M 1.875 -1.390625 C 1.140625 -1.390625 1.140625 -2.15625 1.140625 -2.328125 C 1.140625 -2.625 1.171875 -2.828125 1.296875 -3 C 1.421875 -3.171875 1.65625 -3.265625 1.859375 -3.265625 C 2.609375 -3.265625 2.609375 -2.515625 2.609375 -2.328125 C 2.609375 -2.046875 2.5625 -1.828125 2.4375 -1.671875 C 2.265625 -1.453125 2.015625 -1.390625 1.875 -1.390625 Z M 2.25 -0.03125 C 2.453125 -0.03125 3.5 -0.03125 3.5 0.609375 C 3.5 1.03125 2.890625 1.390625 2.109375 1.390625 C 1.3125 1.390625 0.703125 1.03125 0.703125 0.609375 C 0.703125 0.4375 0.828125 -0.03125 1.484375 -0.03125 Z M 2.25 -0.03125 "/>
</g>
<g id="glyph-5-11">
<path d="M 2.453125 -1.984375 C 2.453125 -2.734375 2.328125 -3.640625 1.828125 -4.578125 C 1.4375 -5.3125 0.71875 -5.953125 0.578125 -5.953125 C 0.5 -5.953125 0.46875 -5.890625 0.46875 -5.859375 C 0.46875 -5.828125 0.46875 -5.8125 0.578125 -5.71875 C 1.6875 -4.65625 1.9375 -3.203125 1.9375 -1.984375 C 1.9375 0.296875 0.984375 1.375 0.59375 1.734375 C 0.484375 1.84375 0.46875 1.84375 0.46875 1.890625 C 0.46875 1.921875 0.5 1.984375 0.578125 1.984375 C 0.703125 1.984375 1.109375 1.578125 1.171875 1.515625 C 2.234375 0.390625 2.453125 -1.03125 2.453125 -1.984375 Z M 2.453125 -1.984375 "/>
</g>
<g id="glyph-5-12">
<path d="M 2.828125 -3.328125 C 2.828125 -3.453125 2.828125 -3.546875 2.71875 -3.546875 C 2.6875 -3.546875 2.65625 -3.546875 2.53125 -3.40625 C 2.515625 -3.40625 2.4375 -3.328125 2.421875 -3.328125 C 2.40625 -3.328125 2.390625 -3.328125 2.34375 -3.359375 C 2.21875 -3.453125 2 -3.546875 1.640625 -3.546875 C 0.53125 -3.546875 0.28125 -2.9375 0.28125 -2.5625 C 0.28125 -2.15625 0.578125 -1.921875 0.59375 -1.90625 C 0.90625 -1.671875 1.09375 -1.640625 1.625 -1.546875 C 2 -1.46875 2.609375 -1.359375 2.609375 -0.8125 C 2.609375 -0.515625 2.40625 -0.140625 1.671875 -0.140625 C 0.875 -0.140625 0.640625 -0.765625 0.546875 -1.1875 C 0.515625 -1.28125 0.5 -1.328125 0.40625 -1.328125 C 0.28125 -1.328125 0.28125 -1.265625 0.28125 -1.109375 L 0.28125 -0.125 C 0.28125 0 0.28125 0.078125 0.375 0.078125 C 0.421875 0.078125 0.4375 0.078125 0.578125 -0.078125 C 0.625 -0.125 0.703125 -0.21875 0.75 -0.265625 C 1.109375 0.0625 1.46875 0.078125 1.6875 0.078125 C 2.6875 0.078125 3.046875 -0.5 3.046875 -1.03125 C 3.046875 -1.40625 2.8125 -1.953125 1.859375 -2.140625 C 1.796875 -2.15625 1.359375 -2.234375 1.328125 -2.234375 C 1.078125 -2.28125 0.703125 -2.453125 0.703125 -2.765625 C 0.703125 -3.015625 0.875 -3.34375 1.640625 -3.34375 C 2.53125 -3.34375 2.5625 -2.6875 2.578125 -2.46875 C 2.59375 -2.40625 2.640625 -2.375 2.703125 -2.375 C 2.828125 -2.375 2.828125 -2.4375 2.828125 -2.59375 Z M 2.828125 -3.328125 "/>
</g>
<g id="glyph-5-13">
<path d="M 3.328125 -2.359375 C 3.328125 -3.140625 2.578125 -3.546875 1.859375 -3.546875 C 1.203125 -3.546875 0.609375 -3.28125 0.609375 -2.765625 C 0.609375 -2.53125 0.78125 -2.375 0.984375 -2.375 C 1.203125 -2.375 1.359375 -2.546875 1.359375 -2.75 C 1.359375 -2.9375 1.234375 -3.078125 1.0625 -3.125 C 1.359375 -3.3125 1.78125 -3.3125 1.84375 -3.3125 C 2.28125 -3.3125 2.734375 -3.015625 2.734375 -2.359375 L 2.734375 -2.109375 C 2.265625 -2.09375 1.734375 -2.0625 1.1875 -1.828125 C 0.484375 -1.53125 0.34375 -1.078125 0.34375 -0.8125 C 0.34375 -0.125 1.15625 0.078125 1.703125 0.078125 C 2.28125 0.078125 2.640625 -0.25 2.8125 -0.5625 C 2.84375 -0.265625 3.0625 0.046875 3.40625 0.046875 C 3.484375 0.046875 4.15625 0.015625 4.15625 -0.71875 L 4.15625 -1.15625 L 3.90625 -1.15625 L 3.90625 -0.71875 C 3.90625 -0.390625 3.796875 -0.265625 3.625 -0.265625 C 3.328125 -0.265625 3.328125 -0.625 3.328125 -0.71875 Z M 2.734375 -1.125 C 2.734375 -0.34375 2.078125 -0.140625 1.765625 -0.140625 C 1.34375 -0.140625 1 -0.421875 1 -0.796875 C 1 -1.328125 1.5 -1.859375 2.734375 -1.90625 Z M 2.734375 -1.125 "/>
</g>
<g id="glyph-5-14">
<path d="M 1.46875 -3.15625 L 2.65625 -3.15625 L 2.65625 -3.421875 L 1.46875 -3.421875 L 1.46875 -4.875 L 1.234375 -4.875 C 1.21875 -4.15625 0.890625 -3.40625 0.15625 -3.375 L 0.15625 -3.15625 L 0.875 -3.15625 L 0.875 -0.984375 C 0.875 -0.0625 1.59375 0.078125 1.953125 0.078125 C 2.484375 0.078125 2.796875 -0.390625 2.796875 -0.984375 L 2.796875 -1.4375 L 2.5625 -1.4375 L 2.5625 -1.015625 C 2.5625 -0.453125 2.3125 -0.171875 2.015625 -0.171875 C 1.46875 -0.171875 1.46875 -0.84375 1.46875 -0.96875 Z M 1.46875 -3.15625 "/>
</g>
<g id="glyph-5-15">
<path d="M 3.296875 -3.140625 C 3.34375 -3.21875 3.359375 -3.234375 3.359375 -3.296875 C 3.359375 -3.421875 3.265625 -3.421875 3.140625 -3.421875 L 0.4375 -3.421875 L 0.34375 -2.09375 L 0.59375 -2.09375 C 0.640625 -2.921875 0.8125 -3.203125 1.703125 -3.203125 L 2.609375 -3.203125 L 0.3125 -0.296875 C 0.25 -0.21875 0.234375 -0.203125 0.234375 -0.140625 C 0.234375 0 0.328125 0 0.453125 0 L 3.25 0 L 3.390625 -1.53125 L 3.140625 -1.53125 C 3.0625 -0.609375 2.90625 -0.25 1.9375 -0.25 L 0.984375 -0.25 Z M 3.296875 -3.140625 "/>
</g>
<g id="glyph-5-16">
<path d="M 2.65625 -3.40625 L 2.65625 -3.15625 C 3.1875 -3.15625 3.25 -3.09375 3.25 -2.703125 L 3.25 -1.328125 C 3.25 -0.640625 2.84375 -0.140625 2.25 -0.140625 C 1.5625 -0.140625 1.53125 -0.484375 1.53125 -0.875 L 1.53125 -3.5 L 0.328125 -3.40625 L 0.328125 -3.15625 C 0.921875 -3.15625 0.921875 -3.125 0.921875 -2.421875 L 0.921875 -1.234375 C 0.921875 -0.65625 0.921875 0.078125 2.203125 0.078125 C 2.9375 0.078125 3.234375 -0.484375 3.265625 -0.5625 L 3.28125 -0.5625 L 3.28125 0.078125 L 4.453125 0 L 4.453125 -0.265625 C 3.921875 -0.265625 3.859375 -0.3125 3.859375 -0.703125 L 3.859375 -3.5 Z M 2.65625 -3.40625 "/>
</g>
<g id="glyph-5-17">
<path d="M 6.203125 -2.40625 C 6.203125 -3.046875 5.921875 -3.5 5.0625 -3.5 C 4.328125 -3.5 3.953125 -3 3.828125 -2.765625 C 3.6875 -3.34375 3.234375 -3.5 2.71875 -3.5 C 1.953125 -3.5 1.59375 -2.953125 1.484375 -2.734375 L 1.46875 -2.734375 L 1.46875 -3.5 L 0.328125 -3.40625 L 0.328125 -3.15625 C 0.859375 -3.15625 0.921875 -3.09375 0.921875 -2.703125 L 0.921875 -0.625 C 0.921875 -0.265625 0.828125 -0.265625 0.328125 -0.265625 L 0.328125 0 C 0.671875 -0.03125 1.015625 -0.03125 1.234375 -0.03125 C 1.453125 -0.03125 1.796875 -0.03125 2.140625 0 L 2.140625 -0.265625 C 1.625 -0.265625 1.53125 -0.265625 1.53125 -0.625 L 1.53125 -2.0625 C 1.53125 -2.890625 2.15625 -3.28125 2.65625 -3.28125 C 3.171875 -3.28125 3.265625 -2.875 3.265625 -2.4375 L 3.265625 -0.625 C 3.265625 -0.265625 3.171875 -0.265625 2.65625 -0.265625 L 2.65625 0 C 3 -0.03125 3.34375 -0.03125 3.5625 -0.03125 C 3.796875 -0.03125 4.125 -0.03125 4.46875 0 L 4.46875 -0.265625 C 3.953125 -0.265625 3.859375 -0.265625 3.859375 -0.625 L 3.859375 -2.0625 C 3.859375 -2.890625 4.5 -3.28125 5 -3.28125 C 5.515625 -3.28125 5.59375 -2.875 5.59375 -2.4375 L 5.59375 -0.625 C 5.59375 -0.265625 5.5 -0.265625 5 -0.265625 L 5 0 C 5.328125 -0.03125 5.6875 -0.03125 5.890625 -0.03125 C 6.125 -0.03125 6.46875 -0.03125 6.796875 0 L 6.796875 -0.265625 C 6.296875 -0.265625 6.203125 -0.265625 6.203125 -0.625 Z M 6.203125 -2.40625 "/>
</g>
<g id="glyph-5-18">
<path d="M 3.796875 -5.515625 L 3.484375 -5.46875 C 3.4375 -5.46875 3.4375 -5.46875 3.40625 -5.484375 C 3.140625 -5.59375 2.796875 -5.59375 2.703125 -5.59375 C 1.84375 -5.59375 0.875 -5.171875 0.875 -4.296875 L 0.875 -3.421875 L 0.234375 -3.421875 L 0.234375 -3.15625 L 0.875 -3.15625 L 0.875 -0.625 C 0.875 -0.265625 0.78125 -0.265625 0.28125 -0.265625 L 0.28125 0 C 0.59375 -0.03125 1.03125 -0.03125 1.171875 -0.03125 C 1.328125 -0.03125 1.75 -0.03125 2.0625 0 L 2.0625 -0.265625 C 1.5625 -0.265625 1.453125 -0.265625 1.453125 -0.625 L 1.453125 -3.15625 L 3.21875 -3.15625 L 3.21875 -0.625 C 3.21875 -0.265625 3.125 -0.265625 2.609375 -0.265625 L 2.609375 0 C 2.921875 -0.03125 3.359375 -0.03125 3.5 -0.03125 C 3.65625 -0.03125 4.09375 -0.03125 4.390625 0 L 4.390625 -0.265625 C 3.890625 -0.265625 3.796875 -0.265625 3.796875 -0.625 Z M 1.4375 -3.421875 L 1.4375 -4.28125 C 1.4375 -5.015625 2.0625 -5.359375 2.6875 -5.359375 C 2.96875 -5.359375 3.109375 -5.328125 3.1875 -5.3125 C 3.078125 -5.234375 3.046875 -5.140625 3.046875 -5.015625 C 3.046875 -4.78125 3.203125 -4.703125 3.21875 -4.703125 L 3.21875 -3.421875 Z M 1.4375 -3.421875 "/>
</g>
<g id="glyph-5-19">
<path d="M 1.515625 -5.515625 L 0.328125 -5.421875 L 0.328125 -5.15625 C 0.875 -5.15625 0.9375 -5.109375 0.9375 -4.71875 L 0.9375 -0.625 C 0.9375 -0.265625 0.84375 -0.265625 0.328125 -0.265625 L 0.328125 0 C 0.640625 -0.03125 1.09375 -0.03125 1.21875 -0.03125 C 1.375 -0.03125 1.8125 -0.03125 2.125 0 L 2.125 -0.265625 C 1.609375 -0.265625 1.515625 -0.265625 1.515625 -0.625 Z M 1.515625 -5.515625 "/>
</g>
<g id="glyph-5-20">
<path d="M 1.609375 -2.96875 C 1.609375 -3.25 1.390625 -3.421875 1.171875 -3.421875 C 0.90625 -3.421875 0.734375 -3.203125 0.734375 -2.984375 C 0.734375 -2.71875 0.9375 -2.546875 1.171875 -2.546875 C 1.4375 -2.546875 1.609375 -2.75 1.609375 -2.96875 Z M 1.609375 -0.4375 C 1.609375 -0.703125 1.390625 -0.875 1.171875 -0.875 C 0.90625 -0.875 0.734375 -0.671875 0.734375 -0.4375 C 0.734375 -0.171875 0.9375 0 1.171875 0 C 1.4375 0 1.609375 -0.21875 1.609375 -0.4375 Z M 1.609375 -0.4375 "/>
</g>
<g id="glyph-5-21">
<path d="M 1.515625 -3.15625 L 2.46875 -3.15625 L 2.46875 -3.421875 L 1.5 -3.421875 L 1.5 -4.3125 C 1.5 -5.015625 1.875 -5.359375 2.234375 -5.359375 C 2.359375 -5.359375 2.421875 -5.328125 2.453125 -5.328125 C 2.3125 -5.25 2.28125 -5.125 2.28125 -5.015625 C 2.28125 -4.8125 2.421875 -4.65625 2.640625 -4.65625 C 2.84375 -4.65625 3 -4.8125 3 -5.015625 C 3 -5.359375 2.65625 -5.59375 2.234375 -5.59375 C 1.640625 -5.59375 0.9375 -5.15625 0.9375 -4.3125 L 0.9375 -3.421875 L 0.28125 -3.421875 L 0.28125 -3.15625 L 0.9375 -3.15625 L 0.9375 -0.625 C 0.9375 -0.265625 0.84375 -0.265625 0.328125 -0.265625 L 0.328125 0 C 0.640625 -0.03125 1.078125 -0.03125 1.265625 -0.03125 C 1.734375 -0.03125 1.75 -0.03125 2.265625 0 L 2.265625 -0.265625 L 2.109375 -0.265625 C 1.53125 -0.265625 1.515625 -0.34375 1.515625 -0.640625 Z M 1.515625 -3.15625 "/>
</g>
<g id="glyph-5-22">
<path d="M 1.484375 -0.125 C 1.484375 0.125 1.484375 0.765625 0.875 1.328125 C 0.859375 1.359375 0.828125 1.375 0.828125 1.421875 C 0.828125 1.5 0.90625 1.546875 0.9375 1.546875 C 1.046875 1.546875 1.703125 0.921875 1.703125 -0.03125 C 1.703125 -0.46875 1.546875 -0.875 1.171875 -0.875 C 0.90625 -0.875 0.734375 -0.671875 0.734375 -0.4375 C 0.734375 -0.203125 0.890625 0 1.171875 0 C 1.34375 0 1.453125 -0.09375 1.484375 -0.125 Z M 1.484375 -0.125 "/>
</g>
<g id="glyph-6-0">
<path d="M 1.28125 -1.328125 C 1.28125 -1.890625 1.578125 -2.421875 2.09375 -2.4375 C 2.046875 -2.375 2.03125 -2.3125 2.03125 -2.234375 C 2.03125 -2.078125 2.140625 -1.953125 2.296875 -1.953125 C 2.46875 -1.953125 2.578125 -2.078125 2.578125 -2.234375 C 2.578125 -2.46875 2.359375 -2.625 2.09375 -2.625 C 1.734375 -2.625 1.4375 -2.40625 1.25 -2.015625 L 1.25 -2.625 L 0.34375 -2.5625 L 0.34375 -2.328125 C 0.765625 -2.328125 0.8125 -2.28125 0.8125 -2 L 0.8125 -0.484375 C 0.8125 -0.234375 0.75 -0.234375 0.34375 -0.234375 L 0.34375 0 C 0.5 -0.015625 0.9375 -0.03125 1.0625 -0.03125 C 1.375 -0.03125 1.78125 0 1.875 0 L 1.875 -0.234375 L 1.734375 -0.234375 C 1.296875 -0.234375 1.28125 -0.296875 1.28125 -0.5 Z M 1.28125 -1.328125 "/>
</g>
<g id="glyph-6-1">
<path d="M 2.796875 -1.34375 C 2.921875 -1.34375 2.96875 -1.34375 2.96875 -1.484375 C 2.96875 -1.953125 2.71875 -2.65625 1.71875 -2.65625 C 0.890625 -2.65625 0.28125 -2.015625 0.28125 -1.296875 C 0.28125 -0.546875 0.96875 0.0625 1.8125 0.0625 C 2.671875 0.0625 2.96875 -0.578125 2.96875 -0.71875 C 2.96875 -0.75 2.953125 -0.8125 2.859375 -0.8125 C 2.78125 -0.8125 2.765625 -0.78125 2.75 -0.703125 C 2.5625 -0.265625 2.125 -0.15625 1.84375 -0.15625 C 1.515625 -0.15625 1.234375 -0.296875 1.078125 -0.515625 C 0.84375 -0.796875 0.84375 -1.1875 0.84375 -1.34375 Z M 0.859375 -1.53125 C 0.921875 -2.328125 1.46875 -2.46875 1.71875 -2.46875 C 2.484375 -2.46875 2.53125 -1.703125 2.53125 -1.53125 Z M 0.859375 -1.53125 "/>
</g>
<g id="glyph-6-2">
<path d="M 2.265625 -4.0625 L 2.265625 -3.828125 C 2.671875 -3.828125 2.734375 -3.796875 2.734375 -3.5 L 2.734375 -2.296875 C 2.46875 -2.53125 2.171875 -2.625 1.859375 -2.625 C 1.03125 -2.625 0.328125 -2.03125 0.328125 -1.28125 C 0.328125 -0.546875 0.984375 0.0625 1.78125 0.0625 C 2.140625 0.0625 2.453125 -0.078125 2.703125 -0.3125 L 2.703125 0.0625 L 3.671875 0 L 3.671875 -0.234375 C 3.25 -0.234375 3.203125 -0.28125 3.203125 -0.5625 L 3.203125 -4.125 Z M 2.703125 -0.765625 C 2.703125 -0.65625 2.703125 -0.625 2.609375 -0.515625 C 2.328125 -0.15625 1.9375 -0.125 1.828125 -0.125 C 1.578125 -0.125 1.3125 -0.21875 1.109375 -0.453125 C 0.921875 -0.6875 0.890625 -1.015625 0.890625 -1.28125 C 0.890625 -2.359375 1.6875 -2.4375 1.890625 -2.4375 C 2.09375 -2.4375 2.390625 -2.375 2.625 -2.109375 C 2.703125 -2 2.703125 -2 2.703125 -1.875 Z M 2.703125 -0.765625 "/>
</g>
<g id="glyph-6-3">
<path d="M 2.84375 -4.015625 C 2.59375 -3.796875 2.453125 -3.75 2.3125 -3.75 C 2.171875 -3.75 2.03125 -3.8125 1.890625 -3.875 C 1.703125 -3.953125 1.5625 -4.015625 1.40625 -4.015625 C 1.265625 -4.015625 1.125 -3.96875 0.96875 -3.828125 C 0.8125 -3.703125 0.953125 -3.828125 0.65625 -3.53125 L 0.796875 -3.40625 C 1.03125 -3.625 1.1875 -3.65625 1.328125 -3.65625 C 1.46875 -3.65625 1.59375 -3.609375 1.75 -3.546875 C 1.9375 -3.453125 2.078125 -3.40625 2.234375 -3.40625 C 2.359375 -3.40625 2.515625 -3.453125 2.671875 -3.578125 C 2.828125 -3.71875 2.671875 -3.59375 2.96875 -3.875 Z M 2.84375 -4.015625 "/>
</g>
</g>
</defs>
<g fill="rgb(33.332825%, 33.332825%, 33.332825%)" fill-opacity="1">
<use xlink:href="#glyph-0-0" x="12.730636" y="11.252853"/>
<use xlink:href="#glyph-0-1" x="16.514763" y="11.252853"/>
<use xlink:href="#glyph-0-2" x="21.244922" y="11.252853"/>
</g>
<g fill="rgb(33.332825%, 33.332825%, 33.332825%)" fill-opacity="1">
<use xlink:href="#glyph-0-3" x="28.269864" y="11.252853"/>
<use xlink:href="#glyph-0-4" x="32.594127" y="11.252853"/>
<use xlink:href="#glyph-0-5" x="37.45932" y="11.252853"/>
<use xlink:href="#glyph-0-6" x="42.865443" y="11.252853"/>
<use xlink:href="#glyph-0-7" x="46.703584" y="11.252853"/>
<use xlink:href="#glyph-0-8" x="50.487712" y="11.252853"/>
<use xlink:href="#glyph-0-1" x="54.50934" y="11.252853"/>
<use xlink:href="#glyph-0-9" x="59.239499" y="11.252853"/>
<use xlink:href="#glyph-0-5" x="61.942561" y="11.252853"/>
</g>
<g fill="rgb(33.332825%, 33.332825%, 33.332825%)" fill-opacity="1">
<use xlink:href="#glyph-0-7" x="67.078616" y="11.252853"/>
</g>
<g fill="rgb(33.332825%, 33.332825%, 33.332825%)" fill-opacity="1">
<use xlink:href="#glyph-0-7" x="74.111501" y="11.252853"/>
</g>
<g fill="rgb(33.332825%, 33.332825%, 33.332825%)" fill-opacity="1">
<use xlink:href="#glyph-0-10" x="77.617617" y="11.252853"/>
</g>
<g fill="rgb(33.332825%, 33.332825%, 33.332825%)" fill-opacity="1">
<use xlink:href="#glyph-0-11" x="82.760821" y="11.252853"/>
</g>
<g fill="rgb(33.332825%, 33.332825%, 33.332825%)" fill-opacity="1">
<use xlink:href="#glyph-0-12" x="88.437012" y="11.252853"/>
<use xlink:href="#glyph-0-6" x="92.893926" y="11.252853"/>
</g>
<path fill-rule="nonzero" fill="rgb(81.999207%, 90.046692%, 94.564819%)" fill-opacity="1" d="M 74.199219 98.257812 L 84.253906 41.21875 C 90.238281 42.273438 96.023438 44.269531 101.386719 47.121094 Z M 74.199219 98.257812 "/>
<path fill-rule="nonzero" fill="rgb(97.033691%, 88.633728%, 81.999207%)" fill-opacity="1" d="M 74.199219 98.257812 L 79.839844 66.261719 C 62.167969 63.144531 45.320312 74.945312 42.203125 92.613281 C 41.214844 98.230469 41.71875 104.011719 43.667969 109.367188 Z M 74.199219 98.257812 "/>
<path fill="none" stroke-width="1.19553" stroke-linecap="butt" stroke-linejoin="miter" stroke="rgb(33.332825%, 33.332825%, 33.332825%)" stroke-opacity="1" stroke-miterlimit="10" d="M -0.0000368818 -0.00190893 L 9.249965 52.452656 " transform="matrix(0.996621, 0, 0, -0.996621, 74.199256, 98.25591)"/>
<path fill-rule="nonzero" fill="rgb(33.332825%, 33.332825%, 33.332825%)" fill-opacity="1" stroke-width="0.9567" stroke-linecap="butt" stroke-linejoin="miter" stroke="rgb(33.332825%, 33.332825%, 33.332825%)" stroke-opacity="1" stroke-miterlimit="10" d="M 4.306344 0.00129152 L 1.54623 1.050931 L 2.47562 0.000895641 L 1.542724 -1.05112 Z M 4.306344 0.00129152 " transform="matrix(0.173043, -0.981473, -0.981473, -0.173043, 83.029521, 48.176002)"/>
<g fill="rgb(33.332825%, 33.332825%, 33.332825%)" fill-opacity="1">
<use xlink:href="#glyph-1-0" x="37.214634" y="29.274758"/>
</g>
<g fill="rgb(33.332825%, 33.332825%, 33.332825%)" fill-opacity="1">
<use xlink:href="#glyph-2-0" x="44.247519" y="29.274758"/>
</g>
<g fill="rgb(33.332825%, 33.332825%, 33.332825%)" fill-opacity="1">
<use xlink:href="#glyph-3-0" x="49.162132" y="30.268389"/>
</g>
<g fill="rgb(33.332825%, 33.332825%, 33.332825%)" fill-opacity="1">
<use xlink:href="#glyph-4-0" x="52.492841" y="31.415501"/>
</g>
<g fill="rgb(33.332825%, 33.332825%, 33.332825%)" fill-opacity="1">
<use xlink:href="#glyph-5-0" x="13.973423" y="36.721513"/>
<use xlink:href="#glyph-5-1" x="17.255541" y="36.721513"/>
<use xlink:href="#glyph-5-2" x="21.006307" y="36.721513"/>
<use xlink:href="#glyph-5-3" x="25.226515" y="36.721513"/>
<use xlink:href="#glyph-5-3" x="28.515783" y="36.721513"/>
<use xlink:href="#glyph-5-4" x="31.80505" y="36.721513"/>
<use xlink:href="#glyph-5-5" x="34.149081" y="36.721513"/>
<use xlink:href="#glyph-5-2" x="38.837935" y="36.721513"/>
<use xlink:href="#glyph-5-3" x="43.058143" y="36.721513"/>
</g>
<g fill="rgb(33.332825%, 33.332825%, 33.332825%)" fill-opacity="1">
<use xlink:href="#glyph-5-6" x="49.159294" y="36.721513"/>
</g>
<g fill="rgb(33.332825%, 33.332825%, 33.332825%)" fill-opacity="1">
<use xlink:href="#glyph-5-7" x="53.383473" y="36.721513"/>
<use xlink:href="#glyph-5-7" x="57.134239" y="36.721513"/>
<use xlink:href="#glyph-5-8" x="60.885005" y="36.721513"/>
<use xlink:href="#glyph-5-4" x="65.573859" y="36.721513"/>
<use xlink:href="#glyph-5-9" x="67.91789" y="36.721513"/>
<use xlink:href="#glyph-5-10" x="72.606744" y="36.721513"/>
<use xlink:href="#glyph-5-11" x="76.826952" y="36.721513"/>
</g>
<path fill="none" stroke-width="1.19553" stroke-linecap="butt" stroke-linejoin="miter" stroke="rgb(0%, 44.706726%, 69.802856%)" stroke-opacity="1" stroke-miterlimit="10" d="M -0.0000368818 -0.00190893 L 23.007383 43.273205 " transform="matrix(0.996621, 0, 0, -0.996621, 74.199256, 98.25591)"/>
<path fill-rule="nonzero" fill="rgb(0%, 44.706726%, 69.802856%)" fill-opacity="1" stroke-width="0.9567" stroke-linecap="butt" stroke-linejoin="miter" stroke="rgb(0%, 44.706726%, 69.802856%)" stroke-opacity="1" stroke-miterlimit="10" d="M 4.306163 0.000273297 L 1.544422 1.053327 L 2.477325 0.0000705309 L 1.544504 -1.050805 Z M 4.306163 0.000273297 " transform="matrix(0.467864, -0.879947, -0.879947, -0.467864, 96.083198, 57.097917)"/>
<g fill="rgb(0%, 44.706726%, 69.802856%)" fill-opacity="1">
<use xlink:href="#glyph-1-0" x="102.640838" y="50.107136"/>
</g>
<g fill="rgb(0%, 44.706726%, 69.802856%)" fill-opacity="1">
<use xlink:href="#glyph-2-0" x="109.673723" y="50.107136"/>
</g>
<g fill="rgb(0%, 44.706726%, 69.802856%)" fill-opacity="1">
<use xlink:href="#glyph-3-0" x="114.588336" y="51.100767"/>
</g>
<g fill="rgb(0%, 44.706726%, 69.802856%)" fill-opacity="1">
<use xlink:href="#glyph-4-1" x="117.920041" y="52.247878"/>
</g>
<g fill="rgb(0%, 44.706726%, 69.802856%)" fill-opacity="1">
<use xlink:href="#glyph-5-0" x="102.640838" y="57.553891"/>
<use xlink:href="#glyph-5-8" x="105.922957" y="57.553891"/>
</g>
<g fill="rgb(0%, 44.706726%, 69.802856%)" fill-opacity="1">
<use xlink:href="#glyph-5-7" x="110.842163" y="57.553891"/>
<use xlink:href="#glyph-5-3" x="114.592929" y="57.553891"/>
<use xlink:href="#glyph-5-12" x="117.882197" y="57.553891"/>
<use xlink:href="#glyph-5-2" x="121.211181" y="57.553891"/>
<use xlink:href="#glyph-5-9" x="125.431388" y="57.553891"/>
</g>
<g fill="rgb(0%, 44.706726%, 69.802856%)" fill-opacity="1">
<use xlink:href="#glyph-5-12" x="132.940069" y="57.553891"/>
<use xlink:href="#glyph-5-7" x="136.269053" y="57.553891"/>
<use xlink:href="#glyph-5-8" x="140.019819" y="57.553891"/>
<use xlink:href="#glyph-5-13" x="144.708673" y="57.553891"/>
<use xlink:href="#glyph-5-3" x="148.928881" y="57.553891"/>
<use xlink:href="#glyph-5-13" x="152.218149" y="57.553891"/>
</g>
<g fill="rgb(0%, 44.706726%, 69.802856%)" fill-opacity="1">
<use xlink:href="#glyph-5-14" x="156.430413" y="57.553891"/>
<use xlink:href="#glyph-5-4" x="159.712532" y="57.553891"/>
</g>
<g fill="rgb(0%, 44.706726%, 69.802856%)" fill-opacity="1">
<use xlink:href="#glyph-5-2" x="162.064505" y="57.553891"/>
</g>
<g fill="rgb(0%, 44.706726%, 69.802856%)" fill-opacity="1">
<use xlink:href="#glyph-5-9" x="166.27677" y="57.553891"/>
<use xlink:href="#glyph-5-11" x="170.965624" y="57.553891"/>
</g>
<path fill="none" stroke-width="1.19553" stroke-linecap="butt" stroke-linejoin="miter" stroke="rgb(83.529663%, 36.863708%, 0%)" stroke-opacity="1" stroke-miterlimit="10" d="M -0.0000368818 -0.00190893 L -42.056189 -15.307526 " transform="matrix(0.996621, 0, 0, -0.996621, 74.199256, 98.25591)"/>
<path fill-rule="nonzero" fill="rgb(83.529663%, 36.863708%, 0%)" fill-opacity="1" stroke-width="0.9567" stroke-linecap="butt" stroke-linejoin="miter" stroke="rgb(83.529663%, 36.863708%, 0%)" stroke-opacity="1" stroke-miterlimit="10" d="M 4.308393 0.000596858 L 1.54602 1.051884 L 2.476989 -0.000212189 L 1.544407 -1.049759 Z M 4.308393 0.000596858 " transform="matrix(-0.936505, 0.340854, 0.340854, 0.936505, 34.378379, 112.749656)"/>
<g fill="rgb(83.529663%, 36.863708%, 0%)" fill-opacity="1">
<use xlink:href="#glyph-1-0" x="19.244553" y="124.014587"/>
</g>
<g fill="rgb(83.529663%, 36.863708%, 0%)" fill-opacity="1">
<use xlink:href="#glyph-2-0" x="26.277438" y="124.014587"/>
</g>
<g fill="rgb(83.529663%, 36.863708%, 0%)" fill-opacity="1">
<use xlink:href="#glyph-3-0" x="31.192051" y="125.008219"/>
</g>
<g fill="rgb(83.529663%, 36.863708%, 0%)" fill-opacity="1">
<use xlink:href="#glyph-4-2" x="34.523756" y="126.15533"/>
</g>
<g fill="rgb(83.529663%, 36.863708%, 0%)" fill-opacity="1">
<use xlink:href="#glyph-5-0" x="7.829251" y="131.461343"/>
<use xlink:href="#glyph-5-12" x="11.11137" y="131.461343"/>
<use xlink:href="#glyph-5-8" x="14.440354" y="131.461343"/>
</g>
<g fill="rgb(83.529663%, 36.863708%, 0%)" fill-opacity="1">
<use xlink:href="#glyph-5-7" x="19.367504" y="131.461343"/>
<use xlink:href="#glyph-5-7" x="23.11827" y="131.461343"/>
<use xlink:href="#glyph-5-5" x="26.869036" y="131.461343"/>
</g>
<g fill="rgb(83.529663%, 36.863708%, 0%)" fill-opacity="1">
<use xlink:href="#glyph-5-1" x="34.369774" y="131.461343"/>
<use xlink:href="#glyph-5-13" x="38.12054" y="131.461343"/>
<use xlink:href="#glyph-5-8" x="42.340747" y="131.461343"/>
<use xlink:href="#glyph-5-11" x="47.029602" y="131.461343"/>
</g>
<path fill="none" stroke-width="1.19553" stroke-linecap="butt" stroke-linejoin="miter" stroke="rgb(0%, 61.959839%, 45.095825%)" stroke-opacity="1" stroke-miterlimit="10" d="M -0.0000368818 -0.00190893 L 48.264591 -8.511127 " transform="matrix(0.996621, 0, 0, -0.996621, 74.199256, 98.25591)"/>
<path fill-rule="nonzero" fill="rgb(0%, 61.959839%, 45.095825%)" fill-opacity="1" stroke-width="0.9567" stroke-linecap="butt" stroke-linejoin="miter" stroke="rgb(0%, 61.959839%, 45.095825%)" stroke-opacity="1" stroke-miterlimit="10" d="M 4.305616 0.00164873 L 1.545502 1.051289 L 2.474891 0.00125285 L 1.545856 -1.050083 Z M 4.305616 0.00164873 " transform="matrix(0.981473, 0.173043, 0.173043, -0.981473, 120.105901, 106.35031)"/>
<g fill="rgb(0%, 61.959839%, 45.095825%)" fill-opacity="1">
<use xlink:href="#glyph-1-0" x="115.844079" y="116.664504"/>
</g>
<g fill="rgb(0%, 61.959839%, 45.095825%)" fill-opacity="1">
<use xlink:href="#glyph-2-0" x="122.876963" y="116.664504"/>
</g>
<g fill="rgb(0%, 61.959839%, 45.095825%)" fill-opacity="1">
<use xlink:href="#glyph-3-0" x="127.792573" y="117.657139"/>
</g>
<g fill="rgb(0%, 61.959839%, 45.095825%)" fill-opacity="1">
<use xlink:href="#glyph-4-3" x="131.123282" y="118.804251"/>
</g>
<g fill="rgb(0%, 61.959839%, 45.095825%)" fill-opacity="1">
<use xlink:href="#glyph-5-0" x="95.396397" y="124.11126"/>
<use xlink:href="#glyph-5-3" x="98.678516" y="124.11126"/>
<use xlink:href="#glyph-5-7" x="101.967783" y="124.11126"/>
<use xlink:href="#glyph-5-12" x="105.718549" y="124.11126"/>
<use xlink:href="#glyph-5-14" x="109.047533" y="124.11126"/>
<use xlink:href="#glyph-5-3" x="112.329652" y="124.11126"/>
<use xlink:href="#glyph-5-4" x="115.618919" y="124.11126"/>
<use xlink:href="#glyph-5-1" x="117.96295" y="124.11126"/>
<use xlink:href="#glyph-5-14" x="121.713716" y="124.11126"/>
<use xlink:href="#glyph-5-7" x="124.995834" y="124.11126"/>
<use xlink:href="#glyph-5-5" x="128.746601" y="124.11126"/>
</g>
<g fill="rgb(0%, 61.959839%, 45.095825%)" fill-opacity="1">
<use xlink:href="#glyph-5-15" x="136.247338" y="124.11126"/>
<use xlink:href="#glyph-5-2" x="139.998104" y="124.11126"/>
<use xlink:href="#glyph-5-9" x="144.218312" y="124.11126"/>
<use xlink:href="#glyph-5-7" x="148.907167" y="124.11126"/>
<use xlink:href="#glyph-5-11" x="152.657933" y="124.11126"/>
</g>
<g fill="rgb(0%, 44.706726%, 69.802856%)" fill-opacity="1">
<use xlink:href="#glyph-5-3" x="110.412492" y="22.573475"/>
<use xlink:href="#glyph-5-7" x="113.701759" y="22.573475"/>
<use xlink:href="#glyph-5-5" x="117.452525" y="22.573475"/>
<use xlink:href="#glyph-5-16" x="122.14138" y="22.573475"/>
<use xlink:href="#glyph-5-9" x="126.830235" y="22.573475"/>
<use xlink:href="#glyph-5-5" x="131.51909" y="22.573475"/>
<use xlink:href="#glyph-5-13" x="136.207944" y="22.573475"/>
<use xlink:href="#glyph-5-9" x="140.428152" y="22.573475"/>
</g>
<g fill="rgb(0%, 44.706726%, 69.802856%)" fill-opacity="1">
<use xlink:href="#glyph-5-14" x="144.878711" y="22.573475"/>
</g>
<g fill="rgb(0%, 44.706726%, 69.802856%)" fill-opacity="1">
<use xlink:href="#glyph-5-12" x="110.112509" y="30.020231"/>
<use xlink:href="#glyph-5-4" x="113.441492" y="30.020231"/>
<use xlink:href="#glyph-5-17" x="115.785522" y="30.020231"/>
</g>
<g fill="rgb(0%, 44.706726%, 69.802856%)" fill-opacity="1">
<use xlink:href="#glyph-1-1" x="125.161643" y="30.020231"/>
</g>
<g fill="rgb(0%, 44.706726%, 69.802856%)" fill-opacity="1">
<use xlink:href="#glyph-2-1" x="134.069117" y="30.020231"/>
</g>
<g fill="rgb(0%, 44.706726%, 69.802856%)" fill-opacity="1">
<use xlink:href="#glyph-6-0" x="137.817588" y="31.42148"/>
<use xlink:href="#glyph-6-1" x="140.686078" y="31.42148"/>
<use xlink:href="#glyph-6-2" x="143.940608" y="31.42148"/>
</g>
<path fill="none" stroke-width="0.3985" stroke-linecap="butt" stroke-linejoin="miter" stroke="rgb(0%, 44.706726%, 69.802856%)" stroke-opacity="1" stroke-miterlimit="10" d="M 39.120416 68.600965 L 18.456852 53.604987 " transform="matrix(0.996621, 0, 0, -0.996621, 74.199256, 98.25591)"/>
<g fill="rgb(83.529663%, 36.863708%, 0%)" fill-opacity="1">
<use xlink:href="#glyph-5-1" x="5.771228" y="58.482742"/>
<use xlink:href="#glyph-5-2" x="9.521994" y="58.482742"/>
<use xlink:href="#glyph-5-9" x="13.742202" y="58.482742"/>
<use xlink:href="#glyph-5-18" x="18.431056" y="58.482742"/>
<use xlink:href="#glyph-5-4" x="23.119911" y="58.482742"/>
<use xlink:href="#glyph-5-1" x="25.463941" y="58.482742"/>
<use xlink:href="#glyph-5-14" x="29.214707" y="58.482742"/>
<use xlink:href="#glyph-5-4" x="32.496826" y="58.482742"/>
<use xlink:href="#glyph-5-9" x="34.840856" y="58.482742"/>
<use xlink:href="#glyph-5-10" x="39.529711" y="58.482742"/>
</g>
<g fill="rgb(83.529663%, 36.863708%, 0%)" fill-opacity="1">
<use xlink:href="#glyph-5-12" x="6.945248" y="65.929497"/>
<use xlink:href="#glyph-5-4" x="10.274232" y="65.929497"/>
<use xlink:href="#glyph-5-17" x="12.618262" y="65.929497"/>
</g>
<g fill="rgb(83.529663%, 36.863708%, 0%)" fill-opacity="1">
<use xlink:href="#glyph-1-2" x="21.994383" y="65.929497"/>
</g>
<g fill="rgb(83.529663%, 36.863708%, 0%)" fill-opacity="1">
<use xlink:href="#glyph-1-3" x="30.901856" y="65.929497"/>
</g>
<g fill="rgb(83.529663%, 36.863708%, 0%)" fill-opacity="1">
<use xlink:href="#glyph-2-2" x="37.466094" y="65.929497"/>
</g>
<g fill="rgb(0%, 61.959839%, 45.095825%)" fill-opacity="1">
<use xlink:href="#glyph-5-4" x="105.369587" y="80.760221"/>
<use xlink:href="#glyph-5-9" x="107.713617" y="80.760221"/>
<use xlink:href="#glyph-5-5" x="112.402472" y="80.760221"/>
<use xlink:href="#glyph-5-7" x="117.091327" y="80.760221"/>
<use xlink:href="#glyph-5-8" x="120.842093" y="80.760221"/>
</g>
<g fill="rgb(0%, 61.959839%, 45.095825%)" fill-opacity="1">
<use xlink:href="#glyph-5-7" x="125.769243" y="80.760221"/>
<use xlink:href="#glyph-5-9" x="129.520009" y="80.760221"/>
<use xlink:href="#glyph-5-5" x="134.208864" y="80.760221"/>
<use xlink:href="#glyph-5-7" x="138.897718" y="80.760221"/>
<use xlink:href="#glyph-5-9" x="142.648484" y="80.760221"/>
</g>
<g fill="rgb(0%, 61.959839%, 45.095825%)" fill-opacity="1">
<use xlink:href="#glyph-5-14" x="147.099044" y="80.760221"/>
</g>
<g fill="rgb(0%, 61.959839%, 45.095825%)" fill-opacity="1">
<use xlink:href="#glyph-1-4" x="111.291512" y="88.206976"/>
</g>
<g fill="rgb(0%, 61.959839%, 45.095825%)" fill-opacity="1">
<use xlink:href="#glyph-5-12" x="113.635542" y="88.206976"/>
<use xlink:href="#glyph-5-4" x="116.964526" y="88.206976"/>
<use xlink:href="#glyph-5-17" x="119.308556" y="88.206976"/>
</g>
<g fill="rgb(0%, 61.959839%, 45.095825%)" fill-opacity="1">
<use xlink:href="#glyph-1-4" x="126.341441" y="88.206976"/>
</g>
<g fill="rgb(0%, 61.959839%, 45.095825%)" fill-opacity="1">
<use xlink:href="#glyph-1-2" x="131.028707" y="88.206976"/>
</g>
<g fill="rgb(0%, 61.959839%, 45.095825%)" fill-opacity="1">
<use xlink:href="#glyph-2-3" x="139.93618" y="88.206976"/>
</g>
<g fill="rgb(33.332825%, 33.332825%, 33.332825%)" fill-opacity="1">
<use xlink:href="#glyph-0-0" x="221.784936" y="11.252853"/>
<use xlink:href="#glyph-0-13" x="225.569064" y="11.252853"/>
<use xlink:href="#glyph-0-2" x="230.975187" y="11.252853"/>
</g>
<g fill="rgb(33.332825%, 33.332825%, 33.332825%)" fill-opacity="1">
<use xlink:href="#glyph-0-14" x="238.000129" y="11.252853"/>
<use xlink:href="#glyph-0-8" x="242.865322" y="11.252853"/>
<use xlink:href="#glyph-0-1" x="246.88695" y="11.252853"/>
<use xlink:href="#glyph-0-15" x="251.617109" y="11.252853"/>
<use xlink:href="#glyph-0-9" x="257.023232" y="11.252853"/>
<use xlink:href="#glyph-0-12" x="259.726294" y="11.252853"/>
<use xlink:href="#glyph-0-5" x="264.183208" y="11.252853"/>
</g>
<g fill="rgb(33.332825%, 33.332825%, 33.332825%)" fill-opacity="1">
<use xlink:href="#glyph-0-7" x="269.319263" y="11.252853"/>
</g>
<g fill="rgb(33.332825%, 33.332825%, 33.332825%)" fill-opacity="1">
<use xlink:href="#glyph-0-6" x="276.352148" y="11.252853"/>
<use xlink:href="#glyph-0-16" x="280.190289" y="11.252853"/>
</g>
<g fill="rgb(33.332825%, 33.332825%, 33.332825%)" fill-opacity="1">
<use xlink:href="#glyph-0-1" x="285.588469" y="11.252853"/>
<use xlink:href="#glyph-0-11" x="290.318628" y="11.252853"/>
<use xlink:href="#glyph-0-9" x="295.724751" y="11.252853"/>
<use xlink:href="#glyph-0-5" x="298.427813" y="11.252853"/>
<use xlink:href="#glyph-0-14" x="303.833936" y="11.252853"/>
</g>
<g fill="rgb(33.332825%, 33.332825%, 33.332825%)" fill-opacity="1">
<use xlink:href="#glyph-0-0" x="311.947887" y="11.252853"/>
<use xlink:href="#glyph-0-17" x="315.732014" y="11.252853"/>
<use xlink:href="#glyph-0-8" x="323.374935" y="11.252853"/>
<use xlink:href="#glyph-0-1" x="327.396563" y="11.252853"/>
<use xlink:href="#glyph-0-15" x="332.126722" y="11.252853"/>
<use xlink:href="#glyph-0-18" x="337.532845" y="11.252853"/>
<use xlink:href="#glyph-0-2" x="342.938968" y="11.252853"/>
</g>
<path fill="none" stroke-width="1.19553" stroke-linecap="butt" stroke-linejoin="miter" stroke="rgb(33.332825%, 33.332825%, 33.332825%)" stroke-opacity="1" stroke-miterlimit="10" d="M 181.417583 -0.00190893 L 189.189936 44.076701 " transform="matrix(0.996621, 0, 0, -0.996621, 74.199256, 98.25591)"/>
<path fill-rule="nonzero" fill="rgb(33.332825%, 33.332825%, 33.332825%)" fill-opacity="1" stroke-width="0.9567" stroke-linecap="butt" stroke-linejoin="miter" stroke="rgb(33.332825%, 33.332825%, 33.332825%)" stroke-opacity="1" stroke-miterlimit="10" d="M 4.305918 -0.000409123 L 1.545124 1.053091 L 2.475194 -0.000805 L 1.546158 -1.052141 Z M 4.305918 -0.000409123 " transform="matrix(0.173043, -0.981473, -0.981473, -0.173043, 262.363863, 56.522946)"/>
<path fill="none" stroke-width="1.19553" stroke-linecap="butt" stroke-linejoin="miter" stroke="rgb(54.998779%, 75.115967%, 86.410522%)" stroke-opacity="1" stroke-dasharray="2.98883 2.98883" stroke-miterlimit="10" d="M 181.417583 -0.00190893 L 200.43496 35.763458 " transform="matrix(0.996621, 0, 0, -0.996621, 74.199256, 98.25591)"/>
<path fill-rule="nonzero" fill="rgb(54.998779%, 75.115967%, 86.410522%)" fill-opacity="1" stroke-width="0.9567" stroke-linecap="butt" stroke-linejoin="miter" stroke="rgb(54.998779%, 75.115967%, 86.410522%)" stroke-opacity="1" stroke-miterlimit="10" d="M 4.305824 -0.000956824 L 1.544082 1.052096 L 2.476986 -0.00115959 L 1.544165 -1.052035 Z M 4.305824 -0.000956824 " transform="matrix(0.467864, -0.879947, -0.879947, -0.467864, 272.9104, 64.581417)"/>
<path fill="none" stroke-width="1.19553" stroke-linecap="butt" stroke-linejoin="miter" stroke="rgb(92.588806%, 71.586609%, 54.998779%)" stroke-opacity="1" stroke-dasharray="2.98883 2.98883" stroke-miterlimit="10" d="M 181.417583 -0.00190893 L 146.020648 -12.88528 " transform="matrix(0.996621, 0, 0, -0.996621, 74.199256, 98.25591)"/>
<path fill-rule="nonzero" fill="rgb(92.588806%, 71.586609%, 54.998779%)" fill-opacity="1" stroke-width="0.9567" stroke-linecap="butt" stroke-linejoin="miter" stroke="rgb(92.588806%, 71.586609%, 54.998779%)" stroke-opacity="1" stroke-miterlimit="10" d="M 4.305731 -0.00079208 L 1.543358 1.050495 L 2.474327 -0.00160113 L 1.545428 -1.052489 Z M 4.305731 -0.00079208 " transform="matrix(-0.936505, 0.340854, 0.340854, 0.936505, 221.821672, 110.333895)"/>
<path fill="none" stroke-width="1.19553" stroke-linecap="butt" stroke-linejoin="miter" stroke="rgb(0%, 61.959839%, 45.095825%)" stroke-opacity="1" stroke-miterlimit="10" d="M 181.417583 -0.00190893 L 221.310175 -7.033478 " transform="matrix(0.996621, 0, 0, -0.996621, 74.199256, 98.25591)"/>
<path fill-rule="nonzero" fill="rgb(0%, 61.959839%, 45.095825%)" fill-opacity="1" stroke-width="0.9567" stroke-linecap="butt" stroke-linejoin="miter" stroke="rgb(0%, 61.959839%, 45.095825%)" stroke-opacity="1" stroke-miterlimit="10" d="M 4.307512 -0.00101354 L 1.542857 1.051806 L 2.476787 -0.00140942 L 1.543891 -1.053426 Z M 4.307512 -0.00101354 " transform="matrix(0.981473, 0.173043, 0.173043, -0.981473, 292.565439, 104.878619)"/>
<g fill="rgb(33.332825%, 33.332825%, 33.332825%)" fill-opacity="1">
<use xlink:href="#glyph-5-7" x="224.904361" y="124.76903"/>
<use xlink:href="#glyph-5-19" x="228.655127" y="124.76903"/>
<use xlink:href="#glyph-5-4" x="230.999158" y="124.76903"/>
<use xlink:href="#glyph-5-17" x="233.343188" y="124.76903"/>
<use xlink:href="#glyph-5-4" x="240.376073" y="124.76903"/>
<use xlink:href="#glyph-5-9" x="242.720103" y="124.76903"/>
<use xlink:href="#glyph-5-13" x="247.408958" y="124.76903"/>
<use xlink:href="#glyph-5-14" x="251.629165" y="124.76903"/>
<use xlink:href="#glyph-5-7" x="254.911284" y="124.76903"/>
</g>
<g fill="rgb(33.332825%, 33.332825%, 33.332825%)" fill-opacity="1">
<use xlink:href="#glyph-5-3" x="261.473933" y="124.76903"/>
<use xlink:href="#glyph-5-7" x="264.763201" y="124.76903"/>
<use xlink:href="#glyph-5-5" x="268.513967" y="124.76903"/>
<use xlink:href="#glyph-5-16" x="273.202822" y="124.76903"/>
<use xlink:href="#glyph-5-9" x="277.891676" y="124.76903"/>
<use xlink:href="#glyph-5-5" x="282.580531" y="124.76903"/>
<use xlink:href="#glyph-5-13" x="287.269386" y="124.76903"/>
<use xlink:href="#glyph-5-9" x="291.489593" y="124.76903"/>
</g>
<g fill="rgb(33.332825%, 33.332825%, 33.332825%)" fill-opacity="1">
<use xlink:href="#glyph-5-14" x="295.948096" y="124.76903"/>
</g>
<g fill="rgb(33.332825%, 33.332825%, 33.332825%)" fill-opacity="1">
<use xlink:href="#glyph-5-13" x="203.746089" y="132.215785"/>
<use xlink:href="#glyph-5-9" x="207.966296" y="132.215785"/>
<use xlink:href="#glyph-5-5" x="212.655151" y="132.215785"/>
</g>
<g fill="rgb(33.332825%, 33.332825%, 33.332825%)" fill-opacity="1">
<use xlink:href="#glyph-5-1" x="220.155888" y="132.215785"/>
<use xlink:href="#glyph-5-2" x="223.906655" y="132.215785"/>
<use xlink:href="#glyph-5-9" x="228.126862" y="132.215785"/>
<use xlink:href="#glyph-5-18" x="232.815717" y="132.215785"/>
<use xlink:href="#glyph-5-4" x="237.504571" y="132.215785"/>
<use xlink:href="#glyph-5-1" x="239.848602" y="132.215785"/>
<use xlink:href="#glyph-5-14" x="243.599368" y="132.215785"/>
<use xlink:href="#glyph-5-4" x="246.881486" y="132.215785"/>
<use xlink:href="#glyph-5-9" x="249.225517" y="132.215785"/>
<use xlink:href="#glyph-5-10" x="253.914371" y="132.215785"/>
<use xlink:href="#glyph-5-20" x="258.134579" y="132.215785"/>
</g>
<g fill="rgb(33.332825%, 33.332825%, 33.332825%)" fill-opacity="1">
<use xlink:href="#glyph-5-1" x="263.290492" y="132.215785"/>
<use xlink:href="#glyph-5-13" x="267.041258" y="132.215785"/>
<use xlink:href="#glyph-5-9" x="271.261466" y="132.215785"/>
<use xlink:href="#glyph-5-5" x="275.95032" y="132.215785"/>
<use xlink:href="#glyph-5-4" x="280.639175" y="132.215785"/>
<use xlink:href="#glyph-5-5" x="282.983205" y="132.215785"/>
<use xlink:href="#glyph-5-13" x="287.67206" y="132.215785"/>
<use xlink:href="#glyph-5-14" x="291.892267" y="132.215785"/>
<use xlink:href="#glyph-5-7" x="295.174386" y="132.215785"/>
</g>
<g fill="rgb(33.332825%, 33.332825%, 33.332825%)" fill-opacity="1">
<use xlink:href="#glyph-5-12" x="301.737035" y="132.215785"/>
<use xlink:href="#glyph-5-7" x="305.066019" y="132.215785"/>
<use xlink:href="#glyph-5-14" x="308.816785" y="132.215785"/>
</g>
<g fill="rgb(33.332825%, 33.332825%, 33.332825%)" fill-opacity="1">
<use xlink:href="#glyph-1-5" x="314.91873" y="132.215785"/>
</g>
<path fill="none" stroke-width="0.79701" stroke-linecap="butt" stroke-linejoin="miter" stroke="rgb(33.332825%, 33.332825%, 33.332825%)" stroke-opacity="1" stroke-miterlimit="10" d="M 255.119716 17.008688 L 274.297792 17.008688 " transform="matrix(0.996621, 0, 0, -0.996621, 74.199256, 98.25591)"/>
<path fill-rule="nonzero" fill="rgb(33.332825%, 33.332825%, 33.332825%)" fill-opacity="1" stroke-width="0.79701" stroke-linecap="butt" stroke-linejoin="miter" stroke="rgb(33.332825%, 33.332825%, 33.332825%)" stroke-opacity="1" stroke-miterlimit="10" d="M 4.536135 0.000447587 L 1.286876 1.231168 L 2.368656 0.000447587 L 1.286876 -1.230273 Z M 4.536135 0.000447587 " transform="matrix(0.996621, 0, 0, -0.996621, 345.408878, 81.305134)"/>
<path fill="none" stroke-width="1.19553" stroke-linecap="butt" stroke-linejoin="miter" stroke="rgb(73.33374%, 73.33374%, 73.33374%)" stroke-opacity="1" stroke-miterlimit="10" d="M 311.815172 -0.00190893 L 319.587525 44.076701 " transform="matrix(0.996621, 0, 0, -0.996621, 74.199256, 98.25591)"/>
<path fill-rule="nonzero" fill="rgb(73.33374%, 73.33374%, 73.33374%)" fill-opacity="1" stroke-width="0.9567" stroke-linecap="butt" stroke-linejoin="miter" stroke="rgb(73.33374%, 73.33374%, 73.33374%)" stroke-opacity="1" stroke-miterlimit="10" d="M 4.305604 0.00137407 L 1.54549 1.051014 L 2.474879 0.000978191 L 1.545843 -1.050357 Z M 4.305604 0.00137407 " transform="matrix(0.173043, -0.981473, -0.981473, -0.173043, 392.318792, 56.522946)"/>
<path fill="none" stroke-width="1.39478" stroke-linecap="butt" stroke-linejoin="miter" stroke="rgb(0%, 61.959839%, 45.095825%)" stroke-opacity="1" stroke-miterlimit="10" d="M 311.815172 -0.00190893 L 351.703845 -7.033478 " transform="matrix(0.996621, 0, 0, -0.996621, 74.199256, 98.25591)"/>
<path fill-rule="nonzero" fill="rgb(0%, 61.959839%, 45.095825%)" fill-opacity="1" stroke-width="0.9567" stroke-linecap="butt" stroke-linejoin="miter" stroke="rgb(0%, 61.959839%, 45.095825%)" stroke-opacity="1" stroke-miterlimit="10" d="M 4.305738 -0.0013262 L 1.544944 1.052174 L 2.475014 -0.00172207 L 1.545978 -1.053058 Z M 4.305738 -0.0013262 " transform="matrix(0.981473, 0.173043, 0.173043, -0.981473, 422.520358, 104.878619)"/>
<g fill="rgb(0%, 61.959839%, 45.095825%)" fill-opacity="1">
<use xlink:href="#glyph-2-4" x="413.065491" y="97.88417"/>
</g>
<g fill="rgb(0%, 61.959839%, 45.095825%)" fill-opacity="1">
<use xlink:href="#glyph-6-3" x="416.781892" y="99.170808"/>
</g>
<g fill="rgb(0%, 61.959839%, 45.095825%)" fill-opacity="1">
<use xlink:href="#glyph-3-1" x="417.080358" y="99.170808"/>
</g>
<g fill="rgb(0%, 61.959839%, 45.095825%)" fill-opacity="1">
<use xlink:href="#glyph-1-4" x="421.639425" y="97.88417"/>
<use xlink:href="#glyph-1-5" x="423.983455" y="97.88417"/>
</g>
<g fill="rgb(0%, 61.959839%, 45.095825%)" fill-opacity="1">
<use xlink:href="#glyph-1-4" x="429.456301" y="97.88417"/>
</g>
<g fill="rgb(0%, 61.959839%, 45.095825%)" fill-opacity="1">
<use xlink:href="#glyph-2-5" x="431.800331" y="97.88417"/>
</g>
<g fill="rgb(0%, 61.959839%, 45.095825%)" fill-opacity="1">
<use xlink:href="#glyph-2-6" x="435.551891" y="97.88417"/>
</g>
<g fill="rgb(33.332825%, 33.332825%, 33.332825%)" fill-opacity="1">
<use xlink:href="#glyph-5-12" x="357.893525" y="124.76903"/>
<use xlink:href="#glyph-5-13" x="361.222508" y="124.76903"/>
<use xlink:href="#glyph-5-17" x="365.442716" y="124.76903"/>
<use xlink:href="#glyph-5-8" x="372.475601" y="124.76903"/>
<use xlink:href="#glyph-5-19" x="377.164456" y="124.76903"/>
<use xlink:href="#glyph-5-7" x="379.508486" y="124.76903"/>
</g>
<g fill="rgb(33.332825%, 33.332825%, 33.332825%)" fill-opacity="1">
<use xlink:href="#glyph-5-2" x="386.071135" y="124.76903"/>
<use xlink:href="#glyph-5-9" x="390.291342" y="124.76903"/>
<use xlink:href="#glyph-5-7" x="394.980197" y="124.76903"/>
</g>
<g fill="rgb(33.332825%, 33.332825%, 33.332825%)" fill-opacity="1">
<use xlink:href="#glyph-5-10" x="401.542846" y="124.76903"/>
<use xlink:href="#glyph-5-3" x="405.763054" y="124.76903"/>
<use xlink:href="#glyph-5-13" x="409.052321" y="124.76903"/>
<use xlink:href="#glyph-5-5" x="413.272529" y="124.76903"/>
<use xlink:href="#glyph-5-4" x="417.961384" y="124.76903"/>
<use xlink:href="#glyph-5-7" x="420.305414" y="124.76903"/>
<use xlink:href="#glyph-5-9" x="424.05618" y="124.76903"/>
</g>
<g fill="rgb(33.332825%, 33.332825%, 33.332825%)" fill-opacity="1">
<use xlink:href="#glyph-5-14" x="428.514682" y="124.76903"/>
</g>
<g fill="rgb(33.332825%, 33.332825%, 33.332825%)" fill-opacity="1">
<use xlink:href="#glyph-5-21" x="367.346479" y="132.215785"/>
<use xlink:href="#glyph-5-3" x="369.925627" y="132.215785"/>
<use xlink:href="#glyph-5-2" x="373.214895" y="132.215785"/>
<use xlink:href="#glyph-5-17" x="377.435102" y="132.215785"/>
</g>
<g fill="rgb(33.332825%, 33.332825%, 33.332825%)" fill-opacity="1">
<use xlink:href="#glyph-1-5" x="387.27987" y="132.215785"/>
</g>
<g fill="rgb(33.332825%, 33.332825%, 33.332825%)" fill-opacity="1">
<use xlink:href="#glyph-5-22" x="392.752716" y="132.215785"/>
</g>
<g fill="rgb(33.332825%, 33.332825%, 33.332825%)" fill-opacity="1">
<use xlink:href="#glyph-5-3" x="397.908629" y="132.215785"/>
<use xlink:href="#glyph-5-7" x="401.197897" y="132.215785"/>
<use xlink:href="#glyph-5-12" x="404.948663" y="132.215785"/>
<use xlink:href="#glyph-5-1" x="408.277647" y="132.215785"/>
<use xlink:href="#glyph-5-13" x="412.028413" y="132.215785"/>
<use xlink:href="#glyph-5-19" x="416.24862" y="132.215785"/>
<use xlink:href="#glyph-5-7" x="418.59265" y="132.215785"/>
</g>
</svg>
