<?xml version="1.0" encoding="UTF-8"?>
<svg xmlns="http://www.w3.org/2000/svg" xmlns:xlink="http://www.w3.org/1999/xlink" width="367.605pt" height="178.133pt" viewBox="0 0 367.605 178.133">
<defs>
<g>
<g id="glyph-0-0">
<path d="M 1.640625 -6.1875 L 0.328125 -6.09375 L 0.328125 -5.8125 C 0.921875 -5.8125 1.015625 -5.75 1.015625 -5.3125 L 1.015625 -0.6875 C 1.015625 -0.28125 0.90625 -0.28125 0.328125 -0.28125 L 0.328125 0 C 0.734375 -0.015625 0.90625 -0.03125 1.328125 -0.03125 C 1.734375 -0.03125 1.890625 -0.015625 2.328125 0 L 2.328125 -0.28125 C 1.734375 -0.28125 1.640625 -0.28125 1.640625 -0.6875 Z M 1.640625 -6.1875 "/>
</g>
<g id="glyph-0-1">
<path d="M 3.5625 -2.046875 C 3.765625 -2.046875 3.8125 -2.046875 3.8125 -2.234375 C 3.8125 -3.15625 3.3125 -4 2.171875 -4 C 1.09375 -4 0.265625 -3.0625 0.265625 -1.96875 C 0.265625 -0.796875 1.203125 0.09375 2.28125 0.09375 C 3.375 0.09375 3.8125 -0.859375 3.8125 -1.0625 C 3.8125 -1.125 3.765625 -1.171875 3.6875 -1.171875 C 3.59375 -1.171875 3.5625 -1.109375 3.5625 -1.078125 C 3.25 -0.171875 2.46875 -0.15625 2.328125 -0.15625 C 1.90625 -0.15625 1.53125 -0.390625 1.328125 -0.703125 C 1.03125 -1.140625 1.03125 -1.671875 1.03125 -2.046875 Z M 1.03125 -2.25 C 1.109375 -3.625 1.921875 -3.78125 2.171875 -3.78125 C 2.65625 -3.78125 3.1875 -3.40625 3.203125 -2.25 Z M 1.03125 -2.25 "/>
</g>
<g id="glyph-0-2">
<path d="M 3.046875 -0.640625 C 3.09375 -0.265625 3.359375 0.046875 3.734375 0.046875 C 3.96875 0.046875 4.515625 -0.078125 4.515625 -0.796875 L 4.515625 -1.296875 L 4.28125 -1.296875 L 4.28125 -0.796875 C 4.28125 -0.703125 4.28125 -0.265625 3.953125 -0.265625 C 3.625 -0.265625 3.625 -0.6875 3.625 -0.828125 L 3.625 -2.390625 C 3.625 -2.90625 3.625 -3.203125 3.234375 -3.5625 C 2.90625 -3.859375 2.46875 -4 2.03125 -4 C 1.28125 -4 0.65625 -3.625 0.65625 -3.046875 C 0.65625 -2.78125 0.84375 -2.625 1.078125 -2.625 C 1.3125 -2.625 1.484375 -2.796875 1.484375 -3.03125 C 1.484375 -3.421875 1.09375 -3.46875 1.078125 -3.46875 C 1.328125 -3.6875 1.75 -3.78125 2 -3.78125 C 2.46875 -3.78125 2.96875 -3.4375 2.96875 -2.65625 L 2.96875 -2.359375 C 2.484375 -2.34375 1.8125 -2.296875 1.21875 -2 C 0.578125 -1.6875 0.390625 -1.234375 0.390625 -0.875 C 0.390625 -0.140625 1.25 0.09375 1.84375 0.09375 C 2.59375 0.09375 2.921875 -0.390625 3.046875 -0.640625 Z M 2.96875 -1.265625 C 2.96875 -0.390625 2.296875 -0.125 1.90625 -0.125 C 1.484375 -0.125 1.09375 -0.421875 1.09375 -0.875 C 1.09375 -1.46875 1.609375 -2.09375 2.96875 -2.140625 Z M 2.96875 -1.265625 "/>
</g>
<g id="glyph-0-3">
<path d="M 1.59375 -2.046875 C 1.59375 -2.40625 1.6875 -3.71875 2.703125 -3.71875 C 2.6875 -3.703125 2.546875 -3.59375 2.546875 -3.375 C 2.546875 -3.140625 2.734375 -2.984375 2.9375 -2.984375 C 3.125 -2.984375 3.328125 -3.125 3.328125 -3.390625 C 3.328125 -3.671875 3.0625 -3.9375 2.65625 -3.9375 C 2.125 -3.9375 1.75 -3.5625 1.546875 -3.015625 L 1.53125 -3.015625 L 1.53125 -3.9375 L 0.265625 -3.84375 L 0.265625 -3.5625 C 0.875 -3.5625 0.953125 -3.5 0.953125 -3.0625 L 0.953125 -0.6875 C 0.953125 -0.28125 0.859375 -0.28125 0.265625 -0.28125 L 0.265625 0 C 0.734375 -0.015625 0.859375 -0.03125 1.3125 -0.03125 C 1.671875 -0.03125 1.875 -0.015625 2.4375 0 L 2.4375 -0.28125 L 2.265625 -0.28125 C 1.609375 -0.28125 1.59375 -0.375 1.59375 -0.703125 Z M 1.59375 -2.046875 "/>
</g>
<g id="glyph-0-4">
<path d="M 1.65625 -2.3125 C 1.65625 -3.25 2.328125 -3.71875 2.890625 -3.71875 C 3.421875 -3.71875 3.53125 -3.28125 3.53125 -2.75 L 3.53125 -0.6875 C 3.53125 -0.28125 3.4375 -0.28125 2.84375 -0.28125 L 2.84375 0 C 3.265625 -0.015625 3.4375 -0.03125 3.859375 -0.03125 C 4.296875 -0.03125 4.40625 -0.015625 4.875 0 L 4.875 -0.28125 C 4.421875 -0.28125 4.203125 -0.28125 4.1875 -0.546875 L 4.1875 -2.265625 C 4.1875 -3 4.1875 -3.265625 3.9375 -3.578125 C 3.734375 -3.828125 3.40625 -3.9375 2.953125 -3.9375 C 2.125 -3.9375 1.734375 -3.328125 1.609375 -3.078125 L 1.609375 -3.9375 L 0.3125 -3.84375 L 0.3125 -3.5625 C 0.921875 -3.5625 1 -3.5 1 -3.0625 L 1 -0.6875 C 1 -0.28125 0.90625 -0.28125 0.3125 -0.28125 L 0.3125 0 C 0.734375 -0.015625 0.90625 -0.03125 1.328125 -0.03125 C 1.75 -0.03125 1.875 -0.015625 2.34375 0 L 2.34375 -0.28125 C 1.75 -0.28125 1.65625 -0.28125 1.65625 -0.6875 Z M 1.65625 -2.3125 "/>
</g>
<g id="glyph-0-5">
<path d="M 3.46875 -1.078125 C 3.46875 -0.90625 3.46875 -0.890625 3.34375 -0.703125 C 3.0625 -0.296875 2.65625 -0.125 2.296875 -0.125 C 1.90625 -0.125 1.546875 -0.34375 1.328125 -0.71875 C 1.09375 -1.09375 1.078125 -1.625 1.078125 -1.90625 C 1.078125 -2.328125 1.125 -2.796875 1.359375 -3.15625 C 1.546875 -3.4375 1.921875 -3.71875 2.390625 -3.71875 C 2.765625 -3.71875 3.125 -3.53125 3.359375 -3.1875 C 3.46875 -3.046875 3.46875 -3.046875 3.46875 -2.875 Z M 3.5 -3.421875 C 3.453125 -3.46875 3.046875 -3.9375 2.359375 -3.9375 C 1.265625 -3.9375 0.296875 -3.0625 0.296875 -1.921875 C 0.296875 -0.796875 1.203125 0.09375 2.25 0.09375 C 2.90625 0.09375 3.3125 -0.28125 3.46875 -0.46875 L 3.46875 0.09375 L 4.8125 0 L 4.8125 -0.28125 C 4.21875 -0.28125 4.125 -0.34375 4.125 -0.78125 L 4.125 -6.1875 L 2.8125 -6.09375 L 2.8125 -5.8125 C 3.421875 -5.8125 3.5 -5.75 3.5 -5.3125 Z M 3.5 -3.421875 "/>
</g>
<g id="glyph-0-6">
<path d="M 3.25 -3.5 C 3.0625 -3.46875 2.875 -3.34375 2.875 -3.09375 C 2.875 -2.859375 3.0625 -2.671875 3.296875 -2.671875 C 3.53125 -2.671875 3.71875 -2.828125 3.71875 -3.109375 C 3.71875 -3.65625 3.09375 -4 2.296875 -4 C 1.15625 -4 0.296875 -3.046875 0.296875 -1.921875 C 0.296875 -0.78125 1.234375 0.09375 2.28125 0.09375 C 3.53125 0.09375 3.8125 -0.984375 3.8125 -1.0625 C 3.8125 -1.171875 3.71875 -1.171875 3.6875 -1.171875 C 3.59375 -1.171875 3.59375 -1.15625 3.53125 -1 C 3.328125 -0.390625 2.828125 -0.15625 2.375 -0.15625 C 1.796875 -0.15625 1.078125 -0.609375 1.078125 -1.9375 C 1.078125 -3.328125 1.78125 -3.75 2.3125 -3.75 C 2.4375 -3.75 2.921875 -3.734375 3.25 -3.5 Z M 3.25 -3.5 "/>
</g>
<g id="glyph-0-7">
<path d="M 4.3125 -1.90625 C 4.3125 -3.0625 3.390625 -4 2.296875 -4 C 1.15625 -4 0.265625 -3.046875 0.265625 -1.90625 C 0.265625 -0.78125 1.1875 0.09375 2.28125 0.09375 C 3.421875 0.09375 4.3125 -0.796875 4.3125 -1.90625 Z M 2.296875 -0.15625 C 1.84375 -0.15625 1.46875 -0.375 1.265625 -0.71875 C 1.03125 -1.09375 1.03125 -1.5625 1.03125 -1.984375 C 1.03125 -2.3125 1.03125 -2.8125 1.25 -3.1875 C 1.515625 -3.640625 1.96875 -3.78125 2.28125 -3.78125 C 2.796875 -3.78125 3.15625 -3.484375 3.34375 -3.1875 C 3.546875 -2.8125 3.546875 -2.359375 3.546875 -1.984375 C 3.546875 -1.65625 3.546875 -1.140625 3.328125 -0.734375 C 3.078125 -0.328125 2.671875 -0.15625 2.296875 -0.15625 Z M 2.296875 -0.15625 "/>
</g>
<g id="glyph-0-8">
<path d="M 2.90625 -3.5625 L 2.90625 -3.84375 L 1.609375 -3.84375 L 1.609375 -5.484375 L 1.359375 -5.484375 C 1.34375 -4.734375 1.03125 -3.8125 0.171875 -3.796875 L 0.171875 -3.5625 L 0.953125 -3.5625 L 0.953125 -1.109375 C 0.953125 -0.109375 1.671875 0.09375 2.140625 0.09375 C 2.734375 0.09375 3.046875 -0.46875 3.046875 -1.109375 L 3.046875 -1.609375 L 2.796875 -1.609375 L 2.796875 -1.140625 C 2.796875 -0.46875 2.53125 -0.15625 2.203125 -0.15625 C 1.609375 -0.15625 1.609375 -0.9375 1.609375 -1.09375 L 1.609375 -3.5625 Z M 2.90625 -3.5625 "/>
</g>
<g id="glyph-0-9">
<path d="M 3.0625 -3.765625 C 3.0625 -3.921875 3.0625 -4 2.96875 -4 C 2.921875 -4 2.90625 -4 2.78125 -3.890625 C 2.765625 -3.875 2.6875 -3.796875 2.625 -3.75 C 2.359375 -3.9375 2.078125 -4 1.78125 -4 C 0.59375 -4 0.296875 -3.34375 0.296875 -2.890625 C 0.296875 -2.609375 0.421875 -2.375 0.640625 -2.171875 C 0.9375 -1.90625 1.28125 -1.84375 1.734375 -1.75 C 2.1875 -1.671875 2.34375 -1.640625 2.53125 -1.484375 C 2.625 -1.421875 2.84375 -1.25 2.84375 -0.90625 C 2.84375 -0.125 1.9375 -0.125 1.8125 -0.125 C 0.90625 -0.125 0.671875 -0.890625 0.578125 -1.359375 C 0.546875 -1.453125 0.53125 -1.5 0.421875 -1.5 C 0.296875 -1.5 0.296875 -1.4375 0.296875 -1.28125 L 0.296875 -0.140625 C 0.296875 0.015625 0.296875 0.09375 0.40625 0.09375 C 0.46875 0.09375 0.46875 0.09375 0.640625 -0.078125 C 0.671875 -0.140625 0.765625 -0.25 0.8125 -0.296875 C 1.1875 0.078125 1.59375 0.09375 1.8125 0.09375 C 2.921875 0.09375 3.296875 -0.546875 3.296875 -1.140625 C 3.296875 -1.546875 3.125 -1.78125 2.921875 -1.984375 C 2.625 -2.28125 2.296875 -2.34375 1.640625 -2.46875 C 1.40625 -2.515625 0.765625 -2.625 0.765625 -3.140625 C 0.765625 -3.421875 0.96875 -3.796875 1.78125 -3.796875 C 2.734375 -3.796875 2.796875 -3.0625 2.8125 -2.84375 C 2.828125 -2.734375 2.828125 -2.671875 2.9375 -2.671875 C 3.0625 -2.671875 3.0625 -2.734375 3.0625 -2.90625 Z M 3.0625 -3.765625 "/>
</g>
<g id="glyph-0-10">
<path d="M 2.671875 -3.5625 L 2.671875 -3.84375 L 1.609375 -3.84375 L 1.609375 -4.859375 C 1.609375 -5.671875 2.046875 -6.0625 2.4375 -6.0625 C 2.53125 -6.0625 2.609375 -6.046875 2.703125 -6.015625 C 2.609375 -5.984375 2.46875 -5.875 2.46875 -5.640625 C 2.46875 -5.421875 2.640625 -5.25 2.859375 -5.25 C 3.109375 -5.25 3.265625 -5.421875 3.265625 -5.65625 C 3.265625 -6 2.921875 -6.296875 2.4375 -6.296875 C 1.734375 -6.296875 1.015625 -5.765625 1.015625 -4.875 L 1.015625 -3.84375 L 0.296875 -3.84375 L 0.296875 -3.5625 L 1.015625 -3.5625 L 1.015625 -0.6875 C 1.015625 -0.28125 0.90625 -0.28125 0.328125 -0.28125 L 0.328125 0 C 0.796875 -0.015625 0.90625 -0.03125 1.359375 -0.03125 C 1.71875 -0.03125 1.9375 -0.015625 2.5 0 L 2.5 -0.28125 L 2.3125 -0.28125 C 1.671875 -0.28125 1.640625 -0.375 1.640625 -0.703125 L 1.640625 -3.5625 Z M 2.671875 -3.5625 "/>
</g>
<g id="glyph-0-11">
<path d="M 1.609375 -3 C 1.921875 -3.515625 2.40625 -3.6875 2.78125 -3.6875 C 3.484375 -3.6875 4.015625 -2.890625 4.015625 -1.921875 C 4.015625 -0.90625 3.40625 -0.125 2.6875 -0.125 C 2.28125 -0.125 1.9375 -0.359375 1.734375 -0.671875 C 1.609375 -0.84375 1.609375 -0.859375 1.609375 -1.03125 Z M 1.609375 -0.421875 C 1.84375 -0.203125 2.15625 0.09375 2.734375 0.09375 C 3.796875 0.09375 4.78125 -0.765625 4.78125 -1.921875 C 4.78125 -3.046875 3.90625 -3.9375 2.859375 -3.9375 C 2.375 -3.9375 1.921875 -3.75 1.59375 -3.375 L 1.59375 -3.9375 L 0.265625 -3.84375 L 0.265625 -3.5625 C 0.90625 -3.5625 0.953125 -3.515625 0.953125 -3.125 L 0.953125 1.046875 C 0.953125 1.453125 0.859375 1.453125 0.265625 1.453125 L 0.265625 1.734375 C 0.6875 1.71875 0.859375 1.703125 1.28125 1.703125 C 1.71875 1.703125 1.828125 1.71875 2.296875 1.734375 L 2.296875 1.453125 C 1.71875 1.453125 1.609375 1.453125 1.609375 1.046875 Z M 1.609375 -0.421875 "/>
</g>
<g id="glyph-1-0">
<path d="M 2.640625 1.984375 C 2.703125 1.984375 2.796875 1.984375 2.796875 1.890625 C 2.796875 1.859375 2.796875 1.84375 2.6875 1.75 C 1.609375 0.71875 1.328125 -0.75 1.328125 -1.984375 C 1.328125 -4.265625 2.28125 -5.34375 2.6875 -5.703125 C 2.796875 -5.8125 2.796875 -5.8125 2.796875 -5.859375 C 2.796875 -5.890625 2.765625 -5.953125 2.6875 -5.953125 C 2.5625 -5.953125 2.171875 -5.546875 2.109375 -5.484375 C 1.046875 -4.359375 0.8125 -2.9375 0.8125 -1.984375 C 0.8125 -0.203125 1.5625 1.21875 2.640625 1.984375 Z M 2.640625 1.984375 "/>
</g>
<g id="glyph-1-1">
<path d="M 2.609375 -5.421875 L 2.609375 -5.15625 C 3.15625 -5.15625 3.21875 -5.109375 3.21875 -4.71875 L 3.21875 -3.046875 C 2.9375 -3.34375 2.5625 -3.5 2.15625 -3.5 C 1.15625 -3.5 0.28125 -2.734375 0.28125 -1.703125 C 0.28125 -0.734375 1.078125 0.078125 2.078125 0.078125 C 2.546875 0.078125 2.921875 -0.140625 3.1875 -0.421875 L 3.1875 0.078125 L 4.390625 0 L 4.390625 -0.265625 C 3.859375 -0.265625 3.796875 -0.3125 3.796875 -0.703125 L 3.796875 -5.515625 Z M 3.1875 -0.984375 C 3.1875 -0.84375 3.1875 -0.8125 3.078125 -0.65625 C 2.84375 -0.328125 2.484375 -0.140625 2.109375 -0.140625 C 1.75 -0.140625 1.421875 -0.328125 1.234375 -0.625 C 1.03125 -0.9375 0.984375 -1.328125 0.984375 -1.703125 C 0.984375 -2.15625 1.0625 -2.484375 1.234375 -2.765625 C 1.421875 -3.0625 1.78125 -3.28125 2.1875 -3.28125 C 2.578125 -3.28125 2.953125 -3.09375 3.1875 -2.671875 Z M 3.1875 -0.984375 "/>
</g>
<g id="glyph-1-2">
<path d="M 3.328125 -2.359375 C 3.328125 -3.140625 2.578125 -3.546875 1.859375 -3.546875 C 1.203125 -3.546875 0.609375 -3.28125 0.609375 -2.765625 C 0.609375 -2.53125 0.78125 -2.375 0.984375 -2.375 C 1.203125 -2.375 1.359375 -2.546875 1.359375 -2.75 C 1.359375 -2.9375 1.234375 -3.078125 1.0625 -3.125 C 1.359375 -3.3125 1.78125 -3.3125 1.84375 -3.3125 C 2.28125 -3.3125 2.734375 -3.015625 2.734375 -2.359375 L 2.734375 -2.109375 C 2.265625 -2.09375 1.734375 -2.0625 1.1875 -1.828125 C 0.484375 -1.53125 0.34375 -1.078125 0.34375 -0.8125 C 0.34375 -0.125 1.15625 0.078125 1.703125 0.078125 C 2.28125 0.078125 2.640625 -0.25 2.8125 -0.5625 C 2.84375 -0.265625 3.0625 0.046875 3.40625 0.046875 C 3.484375 0.046875 4.15625 0.015625 4.15625 -0.71875 L 4.15625 -1.15625 L 3.90625 -1.15625 L 3.90625 -0.71875 C 3.90625 -0.390625 3.796875 -0.265625 3.625 -0.265625 C 3.328125 -0.265625 3.328125 -0.625 3.328125 -0.71875 Z M 2.734375 -1.125 C 2.734375 -0.34375 2.078125 -0.140625 1.765625 -0.140625 C 1.34375 -0.140625 1 -0.421875 1 -0.796875 C 1 -1.328125 1.5 -1.859375 2.734375 -1.90625 Z M 2.734375 -1.125 "/>
</g>
<g id="glyph-1-3">
<path d="M 1.46875 -3.15625 L 2.65625 -3.15625 L 2.65625 -3.421875 L 1.46875 -3.421875 L 1.46875 -4.875 L 1.234375 -4.875 C 1.21875 -4.15625 0.890625 -3.40625 0.15625 -3.375 L 0.15625 -3.15625 L 0.875 -3.15625 L 0.875 -0.984375 C 0.875 -0.0625 1.59375 0.078125 1.953125 0.078125 C 2.484375 0.078125 2.796875 -0.390625 2.796875 -0.984375 L 2.796875 -1.4375 L 2.5625 -1.4375 L 2.5625 -1.015625 C 2.5625 -0.453125 2.3125 -0.171875 2.015625 -0.171875 C 1.46875 -0.171875 1.46875 -0.84375 1.46875 -0.96875 Z M 1.46875 -3.15625 "/>
</g>
<g id="glyph-1-4">
<path d="M 2.328125 -1.453125 L 2.328125 -1.96875 L 0.09375 -1.96875 L 0.09375 -1.453125 Z M 2.328125 -1.453125 "/>
</g>
<g id="glyph-1-5">
<path d="M 1.453125 -1.8125 C 1.453125 -2.40625 1.703125 -3.265625 2.46875 -3.28125 C 2.421875 -3.25 2.34375 -3.1875 2.34375 -3 C 2.34375 -2.75 2.53125 -2.640625 2.6875 -2.640625 C 2.875 -2.640625 3.046875 -2.765625 3.046875 -3 C 3.046875 -3.28125 2.796875 -3.5 2.4375 -3.5 C 1.921875 -3.5 1.578125 -3.109375 1.40625 -2.671875 L 1.40625 -3.5 L 0.28125 -3.40625 L 0.28125 -3.15625 C 0.8125 -3.15625 0.875 -3.09375 0.875 -2.703125 L 0.875 -0.625 C 0.875 -0.265625 0.78125 -0.265625 0.28125 -0.265625 L 0.28125 0 C 0.59375 -0.03125 1.03125 -0.03125 1.21875 -0.03125 C 1.6875 -0.03125 1.703125 -0.03125 2.21875 0 L 2.21875 -0.265625 L 2.0625 -0.265625 C 1.46875 -0.265625 1.453125 -0.34375 1.453125 -0.640625 Z M 1.453125 -1.8125 "/>
</g>
<g id="glyph-1-6">
<path d="M 1.546875 -4.890625 C 1.546875 -5.125 1.359375 -5.328125 1.109375 -5.328125 C 0.875 -5.328125 0.671875 -5.15625 0.671875 -4.890625 C 0.671875 -4.625 0.890625 -4.453125 1.109375 -4.453125 C 1.375 -4.453125 1.546875 -4.6875 1.546875 -4.890625 Z M 0.359375 -3.40625 L 0.359375 -3.15625 C 0.859375 -3.15625 0.9375 -3.109375 0.9375 -2.71875 L 0.9375 -0.625 C 0.9375 -0.265625 0.84375 -0.265625 0.328125 -0.265625 L 0.328125 0 C 0.640625 -0.03125 1.09375 -0.03125 1.203125 -0.03125 C 1.3125 -0.03125 1.78125 -0.03125 2.0625 0 L 2.0625 -0.265625 C 1.546875 -0.265625 1.515625 -0.296875 1.515625 -0.609375 L 1.515625 -3.5 Z M 0.359375 -3.40625 "/>
</g>
<g id="glyph-1-7">
<path d="M 3.515625 -2.609375 C 3.703125 -3.046875 3.984375 -3.15625 4.265625 -3.15625 L 4.265625 -3.421875 C 4 -3.390625 3.984375 -3.390625 3.65625 -3.390625 C 3.578125 -3.390625 3.203125 -3.390625 2.953125 -3.421875 L 2.953125 -3.15625 C 3.234375 -3.140625 3.3125 -2.96875 3.3125 -2.828125 C 3.3125 -2.75 3.296875 -2.71875 3.265625 -2.640625 L 2.40625 -0.640625 L 1.46875 -2.796875 C 1.421875 -2.890625 1.421875 -2.9375 1.421875 -2.953125 C 1.421875 -3.15625 1.703125 -3.15625 1.84375 -3.15625 L 1.84375 -3.421875 C 1.5 -3.390625 1.125 -3.390625 0.96875 -3.390625 C 0.8125 -3.390625 0.421875 -3.390625 0.171875 -3.421875 L 0.171875 -3.15625 C 0.65625 -3.15625 0.703125 -3.109375 0.8125 -2.84375 L 2.015625 -0.09375 C 2.0625 0.03125 2.109375 0.078125 2.21875 0.078125 C 2.328125 0.078125 2.390625 0.015625 2.421875 -0.078125 Z M 3.515625 -2.609375 "/>
</g>
<g id="glyph-1-8">
<path d="M 3.28125 -1.8125 C 3.453125 -1.8125 3.5 -1.8125 3.5 -2 C 3.5 -2.703125 3.109375 -3.546875 2 -3.546875 C 1.015625 -3.546875 0.234375 -2.71875 0.234375 -1.734375 C 0.234375 -0.71875 1.09375 0.078125 2.09375 0.078125 C 3.109375 0.078125 3.5 -0.765625 3.5 -0.953125 C 3.5 -0.984375 3.484375 -1.0625 3.375 -1.0625 C 3.28125 -1.0625 3.265625 -1.015625 3.25 -0.953125 C 2.96875 -0.1875 2.28125 -0.171875 2.140625 -0.171875 C 1.78125 -0.171875 1.421875 -0.328125 1.1875 -0.703125 C 0.9375 -1.0625 0.9375 -1.578125 0.9375 -1.8125 Z M 0.953125 -2.015625 C 1.03125 -3.125 1.703125 -3.3125 2 -3.3125 C 2.921875 -3.3125 2.953125 -2.203125 2.953125 -2.015625 Z M 0.953125 -2.015625 "/>
</g>
<g id="glyph-1-9">
<path d="M 3.859375 -2.40625 C 3.859375 -3.078125 3.5625 -3.5 2.71875 -3.5 C 1.9375 -3.5 1.578125 -2.921875 1.484375 -2.734375 L 1.46875 -2.734375 L 1.46875 -3.5 L 0.328125 -3.40625 L 0.328125 -3.15625 C 0.859375 -3.15625 0.921875 -3.09375 0.921875 -2.703125 L 0.921875 -0.625 C 0.921875 -0.265625 0.828125 -0.265625 0.328125 -0.265625 L 0.328125 0 C 0.671875 -0.03125 1.015625 -0.03125 1.234375 -0.03125 C 1.453125 -0.03125 1.796875 -0.03125 2.140625 0 L 2.140625 -0.265625 C 1.625 -0.265625 1.53125 -0.265625 1.53125 -0.625 L 1.53125 -2.0625 C 1.53125 -2.890625 2.171875 -3.28125 2.65625 -3.28125 C 3.140625 -3.28125 3.25 -2.9375 3.25 -2.4375 L 3.25 -0.625 C 3.25 -0.265625 3.15625 -0.265625 2.65625 -0.265625 L 2.65625 0 C 3 -0.03125 3.34375 -0.03125 3.5625 -0.03125 C 3.78125 -0.03125 4.125 -0.03125 4.453125 0 L 4.453125 -0.265625 C 3.953125 -0.265625 3.859375 -0.265625 3.859375 -0.625 Z M 3.859375 -2.40625 "/>
</g>
<g id="glyph-1-10">
<path d="M 2.453125 -1.984375 C 2.453125 -2.734375 2.328125 -3.640625 1.828125 -4.578125 C 1.4375 -5.3125 0.71875 -5.953125 0.578125 -5.953125 C 0.5 -5.953125 0.46875 -5.890625 0.46875 -5.859375 C 0.46875 -5.828125 0.46875 -5.8125 0.578125 -5.71875 C 1.6875 -4.65625 1.9375 -3.203125 1.9375 -1.984375 C 1.9375 0.296875 0.984375 1.375 0.59375 1.734375 C 0.484375 1.84375 0.46875 1.84375 0.46875 1.890625 C 0.46875 1.921875 0.5 1.984375 0.578125 1.984375 C 0.703125 1.984375 1.109375 1.578125 1.171875 1.515625 C 2.234375 0.390625 2.453125 -1.03125 2.453125 -1.984375 Z M 2.453125 -1.984375 "/>
</g>
<g id="glyph-1-11">
<path d="M 6.203125 -2.40625 C 6.203125 -3.046875 5.921875 -3.5 5.0625 -3.5 C 4.328125 -3.5 3.953125 -3 3.828125 -2.765625 C 3.6875 -3.34375 3.234375 -3.5 2.71875 -3.5 C 1.953125 -3.5 1.59375 -2.953125 1.484375 -2.734375 L 1.46875 -2.734375 L 1.46875 -3.5 L 0.328125 -3.40625 L 0.328125 -3.15625 C 0.859375 -3.15625 0.921875 -3.09375 0.921875 -2.703125 L 0.921875 -0.625 C 0.921875 -0.265625 0.828125 -0.265625 0.328125 -0.265625 L 0.328125 0 C 0.671875 -0.03125 1.015625 -0.03125 1.234375 -0.03125 C 1.453125 -0.03125 1.796875 -0.03125 2.140625 0 L 2.140625 -0.265625 C 1.625 -0.265625 1.53125 -0.265625 1.53125 -0.625 L 1.53125 -2.0625 C 1.53125 -2.890625 2.15625 -3.28125 2.65625 -3.28125 C 3.171875 -3.28125 3.265625 -2.875 3.265625 -2.4375 L 3.265625 -0.625 C 3.265625 -0.265625 3.171875 -0.265625 2.65625 -0.265625 L 2.65625 0 C 3 -0.03125 3.34375 -0.03125 3.5625 -0.03125 C 3.796875 -0.03125 4.125 -0.03125 4.46875 0 L 4.46875 -0.265625 C 3.953125 -0.265625 3.859375 -0.265625 3.859375 -0.625 L 3.859375 -2.0625 C 3.859375 -2.890625 4.5 -3.28125 5 -3.28125 C 5.515625 -3.28125 5.59375 -2.875 5.59375 -2.4375 L 5.59375 -0.625 C 5.59375 -0.265625 5.5 -0.265625 5 -0.265625 L 5 0 C 5.328125 -0.03125 5.6875 -0.03125 5.890625 -0.03125 C 6.125 -0.03125 6.46875 -0.03125 6.796875 0 L 6.796875 -0.265625 C 6.296875 -0.265625 6.203125 -0.265625 6.203125 -0.625 Z M 6.203125 -2.40625 "/>
</g>
<g id="glyph-1-12">
<path d="M 3.96875 -1.6875 C 3.96875 -2.6875 3.15625 -3.546875 2.109375 -3.546875 C 1.0625 -3.546875 0.234375 -2.6875 0.234375 -1.6875 C 0.234375 -0.703125 1.09375 0.078125 2.109375 0.078125 C 3.125 0.078125 3.96875 -0.703125 3.96875 -1.6875 Z M 2.109375 -0.171875 C 1.671875 -0.171875 1.34375 -0.375 1.171875 -0.65625 C 0.96875 -0.96875 0.9375 -1.359375 0.9375 -1.765625 C 0.9375 -2.0625 0.9375 -2.546875 1.1875 -2.875 C 1.390625 -3.15625 1.734375 -3.3125 2.109375 -3.3125 C 2.515625 -3.3125 2.859375 -3.125 3.046875 -2.84375 C 3.25 -2.515625 3.265625 -2.078125 3.265625 -1.765625 C 3.265625 -1.390625 3.25 -0.953125 3.03125 -0.625 C 2.8125 -0.3125 2.453125 -0.171875 2.109375 -0.171875 Z M 2.109375 -0.171875 "/>
</g>
<g id="glyph-1-13">
<path d="M 1.515625 -5.515625 L 0.328125 -5.421875 L 0.328125 -5.15625 C 0.875 -5.15625 0.9375 -5.109375 0.9375 -4.71875 L 0.9375 -0.625 C 0.9375 -0.265625 0.84375 -0.265625 0.328125 -0.265625 L 0.328125 0 C 0.640625 -0.03125 1.09375 -0.03125 1.21875 -0.03125 C 1.375 -0.03125 1.8125 -0.03125 2.125 0 L 2.125 -0.265625 C 1.609375 -0.265625 1.515625 -0.265625 1.515625 -0.625 Z M 1.515625 -5.515625 "/>
</g>
<g id="glyph-1-14">
<path d="M 2.921875 -3.15625 C 2.703125 -3.078125 2.671875 -2.890625 2.671875 -2.796875 C 2.671875 -2.59375 2.8125 -2.421875 3.046875 -2.421875 C 3.25 -2.421875 3.40625 -2.578125 3.40625 -2.8125 C 3.40625 -3.296875 2.875 -3.546875 2.125 -3.546875 C 1.03125 -3.546875 0.28125 -2.65625 0.28125 -1.71875 C 0.28125 -0.703125 1.109375 0.078125 2.109375 0.078125 C 3.21875 0.078125 3.5 -0.859375 3.5 -0.953125 C 3.5 -1.046875 3.390625 -1.046875 3.375 -1.046875 C 3.3125 -1.046875 3.28125 -1.046875 3.25 -0.953125 C 3.203125 -0.796875 2.96875 -0.171875 2.1875 -0.171875 C 1.6875 -0.171875 0.984375 -0.546875 0.984375 -1.71875 C 0.984375 -2.859375 1.578125 -3.296875 2.15625 -3.296875 C 2.21875 -3.296875 2.640625 -3.296875 2.921875 -3.15625 Z M 2.921875 -3.15625 "/>
</g>
<g id="glyph-1-15">
<path d="M 2.75 -3.4375 C 2.671875 -3.4375 2.625 -3.4375 2.609375 -3.421875 C 2.59375 -3.421875 2.578125 -3.421875 2.46875 -3.421875 L 1.4375 -3.421875 L 1.4375 -4.28125 C 1.4375 -5.078125 2.171875 -5.359375 2.671875 -5.359375 C 2.90625 -5.359375 3.140625 -5.3125 3.34375 -5.15625 C 3.328125 -5.15625 3.015625 -5.09375 3.015625 -4.765625 C 3.015625 -4.515625 3.21875 -4.390625 3.390625 -4.390625 C 3.515625 -4.390625 3.78125 -4.453125 3.78125 -4.78125 C 3.78125 -5.203125 3.359375 -5.59375 2.6875 -5.59375 C 1.90625 -5.59375 0.875 -5.203125 0.875 -4.296875 L 0.875 -3.421875 L 0.234375 -3.421875 L 0.234375 -3.15625 L 0.875 -3.15625 L 0.875 -0.625 C 0.875 -0.265625 0.78125 -0.265625 0.28125 -0.265625 L 0.28125 0 C 0.59375 -0.03125 1.03125 -0.03125 1.171875 -0.03125 C 1.328125 -0.03125 1.75 -0.03125 2.0625 0 L 2.0625 -0.265625 C 1.5625 -0.265625 1.453125 -0.265625 1.453125 -0.625 L 1.453125 -3.15625 L 2.828125 -3.15625 C 3.15625 -3.15625 3.21875 -3.0625 3.21875 -2.734375 L 3.21875 -0.625 C 3.21875 -0.265625 3.125 -0.265625 2.609375 -0.265625 L 2.609375 0 C 2.921875 -0.03125 3.359375 -0.03125 3.5 -0.03125 C 3.65625 -0.03125 4.09375 -0.03125 4.390625 0 L 4.390625 -0.265625 C 3.890625 -0.265625 3.796875 -0.265625 3.796875 -0.625 L 3.796875 -3.515625 Z M 2.75 -3.4375 "/>
</g>
<g id="glyph-1-16">
<path d="M 2.828125 -3.328125 C 2.828125 -3.453125 2.828125 -3.546875 2.71875 -3.546875 C 2.6875 -3.546875 2.65625 -3.546875 2.53125 -3.40625 C 2.515625 -3.40625 2.4375 -3.328125 2.421875 -3.328125 C 2.40625 -3.328125 2.390625 -3.328125 2.34375 -3.359375 C 2.21875 -3.453125 2 -3.546875 1.640625 -3.546875 C 0.53125 -3.546875 0.28125 -2.9375 0.28125 -2.5625 C 0.28125 -2.15625 0.578125 -1.921875 0.59375 -1.90625 C 0.90625 -1.671875 1.09375 -1.640625 1.625 -1.546875 C 2 -1.46875 2.609375 -1.359375 2.609375 -0.8125 C 2.609375 -0.515625 2.40625 -0.140625 1.671875 -0.140625 C 0.875 -0.140625 0.640625 -0.765625 0.546875 -1.1875 C 0.515625 -1.28125 0.5 -1.328125 0.40625 -1.328125 C 0.28125 -1.328125 0.28125 -1.265625 0.28125 -1.109375 L 0.28125 -0.125 C 0.28125 0 0.28125 0.078125 0.375 0.078125 C 0.421875 0.078125 0.4375 0.078125 0.578125 -0.078125 C 0.625 -0.125 0.703125 -0.21875 0.75 -0.265625 C 1.109375 0.0625 1.46875 0.078125 1.6875 0.078125 C 2.6875 0.078125 3.046875 -0.5 3.046875 -1.03125 C 3.046875 -1.40625 2.8125 -1.953125 1.859375 -2.140625 C 1.796875 -2.15625 1.359375 -2.234375 1.328125 -2.234375 C 1.078125 -2.28125 0.703125 -2.453125 0.703125 -2.765625 C 0.703125 -3.015625 0.875 -3.34375 1.640625 -3.34375 C 2.53125 -3.34375 2.5625 -2.6875 2.578125 -2.46875 C 2.59375 -2.40625 2.640625 -2.375 2.703125 -2.375 C 2.828125 -2.375 2.828125 -2.4375 2.828125 -2.59375 Z M 2.828125 -3.328125 "/>
</g>
<g id="glyph-1-17">
<path d="M 3.703125 -5.625 C 3.734375 -5.71875 3.734375 -5.75 3.734375 -5.765625 C 3.734375 -5.875 3.65625 -5.953125 3.5625 -5.953125 C 3.421875 -5.953125 3.390625 -5.859375 3.359375 -5.765625 L 0.515625 1.65625 C 0.46875 1.75 0.46875 1.78125 0.46875 1.796875 C 0.46875 1.90625 0.546875 1.984375 0.65625 1.984375 C 0.78125 1.984375 0.8125 1.890625 0.84375 1.796875 Z M 3.703125 -5.625 "/>
</g>
<g id="glyph-1-18">
<path d="M 6.078125 -2.6875 C 6.078125 -4.28125 4.8125 -5.59375 3.28125 -5.59375 C 1.71875 -5.59375 0.46875 -4.28125 0.46875 -2.6875 C 0.46875 -1.078125 1.765625 0.171875 3.265625 0.171875 C 4.8125 0.171875 6.078125 -1.09375 6.078125 -2.6875 Z M 3.28125 -0.09375 C 2.40625 -0.09375 1.296875 -0.8125 1.296875 -2.8125 C 1.296875 -4.703125 2.453125 -5.34375 3.265625 -5.34375 C 4.125 -5.34375 5.25 -4.671875 5.25 -2.8125 C 5.25 -0.796875 4.109375 -0.09375 3.28125 -0.09375 Z M 3.28125 -0.09375 "/>
</g>
<g id="glyph-1-19">
<path d="M 0.359375 -5.421875 L 0.359375 -5.15625 L 0.546875 -5.15625 C 1.15625 -5.15625 1.171875 -5.078125 1.171875 -4.78125 L 1.171875 -0.640625 C 1.171875 -0.34375 1.15625 -0.265625 0.546875 -0.265625 L 0.359375 -0.265625 L 0.359375 0 L 3.375 0 C 4.8125 0 5.96875 -1.1875 5.96875 -2.65625 C 5.96875 -4.1875 4.796875 -5.421875 3.375 -5.421875 Z M 2.25 -0.265625 C 1.890625 -0.265625 1.875 -0.3125 1.875 -0.59375 L 1.875 -4.828125 C 1.875 -5.109375 1.890625 -5.15625 2.25 -5.15625 L 3.171875 -5.15625 C 3.78125 -5.15625 4.296875 -4.90625 4.65625 -4.515625 C 5.15625 -3.90625 5.15625 -3.0625 5.15625 -2.671875 C 5.15625 -2.265625 5.15625 -1.484375 4.65625 -0.890625 C 4.375 -0.578125 3.875 -0.265625 3.171875 -0.265625 Z M 2.25 -0.265625 "/>
</g>
<g id="glyph-2-0">
<path d="M 3.0625 -5.4375 L 3.0625 -5.03125 C 3.53125 -5.03125 3.59375 -5.03125 3.59375 -4.71875 L 3.59375 -3.234375 C 3.15625 -3.53125 2.75 -3.578125 2.453125 -3.578125 C 1.109375 -3.578125 0.328125 -2.78125 0.328125 -1.765625 C 0.328125 -0.71875 1.09375 0.0625 2.359375 0.0625 C 2.9375 0.0625 3.328125 -0.171875 3.546875 -0.328125 L 3.546875 0.0625 L 5.03125 0 L 5.03125 -0.40625 C 4.5625 -0.40625 4.515625 -0.40625 4.515625 -0.71875 L 4.515625 -5.515625 Z M 3.546875 -0.875 C 3.171875 -0.359375 2.703125 -0.28125 2.421875 -0.28125 C 1.390625 -0.28125 1.390625 -1.265625 1.390625 -1.734375 C 1.390625 -2.234375 1.390625 -3.25 2.53125 -3.25 C 2.890625 -3.25 3.265625 -3.09375 3.546875 -2.75 Z M 3.546875 -0.875 "/>
</g>
<g id="glyph-2-1">
<path d="M 3.90625 -1.6875 C 4.078125 -1.6875 4.171875 -1.6875 4.171875 -1.90625 C 4.171875 -2.25 4.09375 -2.78125 3.703125 -3.171875 C 3.25 -3.609375 2.546875 -3.609375 2.359375 -3.609375 C 0.9375 -3.609375 0.265625 -2.734375 0.265625 -1.796875 C 0.265625 -0.765625 1.0625 0.0625 2.46875 0.0625 C 3.875 0.0625 4.171875 -0.796875 4.171875 -0.90625 C 4.171875 -1.078125 4.015625 -1.078125 3.953125 -1.078125 C 3.8125 -1.078125 3.78125 -1.0625 3.71875 -0.921875 C 3.46875 -0.375 2.796875 -0.3125 2.578125 -0.3125 C 1.390625 -0.3125 1.359375 -1.234375 1.34375 -1.6875 Z M 1.34375 -2 C 1.34375 -2.3125 1.375 -3.28125 2.359375 -3.28125 C 3.34375 -3.28125 3.390625 -2.296875 3.390625 -2 Z M 1.34375 -2 "/>
</g>
<g id="glyph-2-2">
<path d="M 4.046875 -0.90625 C 4.046875 -1.0625 3.90625 -1.0625 3.8125 -1.0625 C 3.671875 -1.0625 3.640625 -1.0625 3.59375 -0.90625 C 3.359375 -0.390625 2.828125 -0.3125 2.578125 -0.3125 C 1.390625 -0.3125 1.390625 -1.453125 1.390625 -1.796875 C 1.390625 -2.265625 1.421875 -3.234375 2.484375 -3.234375 C 2.546875 -3.234375 2.984375 -3.21875 2.984375 -3.1875 C 2.984375 -3.1875 2.96875 -3.171875 2.953125 -3.140625 C 2.890625 -3.046875 2.859375 -2.921875 2.859375 -2.8125 C 2.859375 -2.5 3.109375 -2.28125 3.390625 -2.28125 C 3.6875 -2.28125 3.921875 -2.5 3.921875 -2.828125 C 3.921875 -3.609375 2.78125 -3.609375 2.453125 -3.609375 C 0.921875 -3.609375 0.328125 -2.65625 0.328125 -1.765625 C 0.328125 -0.78125 1.046875 0.0625 2.421875 0.0625 C 2.78125 0.0625 3.171875 -0.015625 3.5 -0.203125 C 3.921875 -0.46875 4.046875 -0.859375 4.046875 -0.90625 Z M 4.046875 -0.90625 "/>
</g>
<g id="glyph-2-3">
<path d="M 1.984375 -4.875 C 1.984375 -5.21875 1.703125 -5.515625 1.34375 -5.515625 C 1.015625 -5.515625 0.71875 -5.25 0.71875 -4.875 C 0.71875 -4.515625 1.015625 -4.25 1.34375 -4.25 C 1.703125 -4.25 1.984375 -4.546875 1.984375 -4.875 Z M 0.484375 -3.515625 L 0.484375 -3.109375 C 0.9375 -3.109375 0.984375 -3.109375 0.984375 -2.796875 L 0.984375 -0.40625 L 0.46875 -0.40625 L 0.46875 0 C 0.921875 -0.03125 1.015625 -0.03125 1.4375 -0.03125 C 1.765625 -0.03125 2 -0.03125 2.375 0 L 2.375 -0.40625 L 1.90625 -0.40625 L 1.90625 -3.578125 Z M 0.484375 -3.515625 "/>
</g>
<g id="glyph-2-4">
<path d="M 3.265625 -3.359375 C 3.265625 -3.515625 3.265625 -3.609375 3.09375 -3.609375 C 3.03125 -3.609375 3 -3.609375 2.734375 -3.484375 C 2.390625 -3.609375 2.03125 -3.609375 1.890625 -3.609375 C 1.625 -3.609375 0.328125 -3.609375 0.328125 -2.546875 C 0.328125 -2.1875 0.53125 -1.953125 0.734375 -1.8125 C 1.046875 -1.59375 1.390625 -1.53125 1.90625 -1.4375 C 2.296875 -1.375 2.890625 -1.28125 2.890625 -0.84375 C 2.890625 -0.296875 2.1875 -0.28125 1.9375 -0.28125 C 1.140625 -0.28125 0.90625 -0.734375 0.78125 -1.109375 C 0.734375 -1.234375 0.71875 -1.25 0.546875 -1.25 C 0.328125 -1.25 0.328125 -1.1875 0.328125 -1.015625 L 0.328125 -0.1875 C 0.328125 -0.046875 0.328125 0.0625 0.5 0.0625 C 0.578125 0.0625 0.59375 0.0625 0.75 -0.046875 L 0.953125 -0.1875 C 1.359375 0.0625 1.78125 0.0625 1.9375 0.0625 C 2.1875 0.0625 3.5 0.0625 3.5 -1.125 C 3.5 -1.46875 3.34375 -1.703125 3.15625 -1.875 C 2.8125 -2.203125 2.390625 -2.265625 2.09375 -2.3125 C 1.375 -2.421875 0.9375 -2.5 0.9375 -2.84375 C 0.9375 -3.3125 1.703125 -3.3125 1.875 -3.3125 C 2.765625 -3.3125 2.796875 -2.890625 2.8125 -2.671875 C 2.828125 -2.546875 2.9375 -2.546875 3.046875 -2.546875 C 3.25 -2.546875 3.265625 -2.59375 3.265625 -2.78125 Z M 3.265625 -3.359375 "/>
</g>
<g id="glyph-2-5">
<path d="M 4.59375 -1.734375 C 4.59375 -2.734375 3.875 -3.609375 2.421875 -3.609375 C 0.96875 -3.609375 0.265625 -2.71875 0.265625 -1.734375 C 0.265625 -0.78125 0.96875 0.0625 2.421875 0.0625 C 3.90625 0.0625 4.59375 -0.796875 4.59375 -1.734375 Z M 2.421875 -0.3125 C 1.34375 -0.3125 1.34375 -1.140625 1.34375 -1.828125 C 1.34375 -2.46875 1.34375 -3.28125 2.421875 -3.28125 C 3.515625 -3.28125 3.515625 -2.46875 3.515625 -1.828125 C 3.515625 -1.140625 3.515625 -0.3125 2.421875 -0.3125 Z M 2.421875 -0.3125 "/>
</g>
<g id="glyph-2-6">
<path d="M 4.640625 -2.40625 C 4.640625 -3.375 4.03125 -3.578125 3.328125 -3.578125 C 2.359375 -3.578125 1.9375 -2.9375 1.84375 -2.765625 L 1.828125 -2.765625 L 1.828125 -3.578125 L 0.4375 -3.515625 L 0.4375 -3.109375 C 0.90625 -3.109375 0.96875 -3.109375 0.96875 -2.796875 L 0.96875 -0.40625 L 0.4375 -0.40625 L 0.4375 0 C 0.875 -0.03125 1.15625 -0.03125 1.453125 -0.03125 C 1.765625 -0.03125 2.03125 -0.03125 2.453125 0 L 2.453125 -0.40625 L 1.9375 -0.40625 L 1.9375 -2.015625 C 1.9375 -2.890625 2.703125 -3.25 3.203125 -3.25 C 3.484375 -3.25 3.671875 -3.109375 3.671875 -2.5 L 3.671875 -0.40625 L 3.140625 -0.40625 L 3.140625 0 C 3.578125 -0.03125 3.84375 -0.03125 4.15625 -0.03125 C 4.453125 -0.03125 4.734375 -0.03125 5.15625 0 L 5.15625 -0.40625 L 4.640625 -0.40625 Z M 4.640625 -2.40625 "/>
</g>
<g id="glyph-2-7">
<path d="M 7.328125 -2.40625 C 7.328125 -3.359375 6.75 -3.578125 6.03125 -3.578125 C 5.1875 -3.578125 4.75 -3.09375 4.59375 -2.84375 C 4.390625 -3.46875 3.859375 -3.578125 3.328125 -3.578125 C 2.359375 -3.578125 1.9375 -2.9375 1.84375 -2.765625 L 1.828125 -2.765625 L 1.828125 -3.578125 L 0.4375 -3.515625 L 0.4375 -3.109375 C 0.90625 -3.109375 0.96875 -3.109375 0.96875 -2.796875 L 0.96875 -0.40625 L 0.4375 -0.40625 L 0.4375 0 C 0.875 -0.03125 1.15625 -0.03125 1.453125 -0.03125 C 1.765625 -0.03125 2.03125 -0.03125 2.453125 0 L 2.453125 -0.40625 L 1.9375 -0.40625 L 1.9375 -2.015625 C 1.9375 -2.890625 2.703125 -3.25 3.203125 -3.25 C 3.484375 -3.25 3.671875 -3.109375 3.671875 -2.5 L 3.671875 -0.40625 L 3.140625 -0.40625 L 3.140625 0 C 3.578125 -0.03125 3.84375 -0.03125 4.15625 -0.03125 C 4.453125 -0.03125 4.734375 -0.03125 5.15625 0 L 5.15625 -0.40625 L 4.640625 -0.40625 L 4.640625 -2.015625 C 4.640625 -2.890625 5.390625 -3.25 5.90625 -3.25 C 6.1875 -3.25 6.359375 -3.109375 6.359375 -2.5 L 6.359375 -0.40625 L 5.84375 -0.40625 L 5.84375 0 C 6.265625 -0.03125 6.546875 -0.03125 6.84375 -0.03125 C 7.15625 -0.03125 7.421875 -0.03125 7.859375 0 L 7.859375 -0.40625 L 7.328125 -0.40625 Z M 7.328125 -2.40625 "/>
</g>
<g id="glyph-2-8">
<path d="M 3.140625 -3.515625 L 3.140625 -3.109375 C 3.609375 -3.109375 3.671875 -3.109375 3.671875 -2.796875 L 3.671875 -1.28125 C 3.671875 -0.6875 3.25 -0.28125 2.609375 -0.28125 C 1.953125 -0.28125 1.9375 -0.453125 1.9375 -0.859375 L 1.9375 -3.578125 L 0.4375 -3.515625 L 0.4375 -3.109375 C 0.90625 -3.109375 0.96875 -3.109375 0.96875 -2.796875 L 0.96875 -0.96875 C 0.96875 -0.09375 1.71875 0.0625 2.5 0.0625 C 2.75 0.0625 3.28125 0.0625 3.71875 -0.5 L 3.71875 0.0625 L 5.15625 0 L 5.15625 -0.40625 C 4.6875 -0.40625 4.640625 -0.40625 4.640625 -0.71875 L 4.640625 -3.578125 Z M 3.140625 -3.515625 "/>
</g>
<g id="glyph-2-9">
<path d="M 1.90625 -5.515625 L 0.46875 -5.4375 L 0.46875 -5.03125 C 0.9375 -5.03125 0.984375 -5.03125 0.984375 -4.71875 L 0.984375 -0.40625 L 0.46875 -0.40625 L 0.46875 0 C 0.921875 -0.03125 1.015625 -0.03125 1.453125 -0.03125 C 1.890625 -0.03125 1.96875 -0.03125 2.4375 0 L 2.4375 -0.40625 L 1.90625 -0.40625 Z M 1.90625 -5.515625 "/>
</g>
<g id="glyph-3-0">
<path d="M 3.109375 -3.03125 C 3.046875 -3.15625 2.8125 -3.5 2.328125 -3.5 C 1.375 -3.5 0.34375 -2.390625 0.34375 -1.21875 C 0.34375 -0.390625 0.875 0.078125 1.484375 0.078125 C 2 0.078125 2.421875 -0.328125 2.578125 -0.484375 C 2.71875 0.0625 3.25 0.078125 3.34375 0.078125 C 3.71875 0.078125 3.890625 -0.21875 3.953125 -0.359375 C 4.125 -0.640625 4.234375 -1.109375 4.234375 -1.140625 C 4.234375 -1.1875 4.203125 -1.234375 4.109375 -1.234375 C 4.015625 -1.234375 4 -1.1875 3.9375 -0.984375 C 3.828125 -0.5625 3.6875 -0.140625 3.375 -0.140625 C 3.1875 -0.140625 3.125 -0.296875 3.125 -0.515625 C 3.125 -0.65625 3.1875 -0.921875 3.234375 -1.125 C 3.28125 -1.3125 3.40625 -1.796875 3.4375 -1.9375 L 3.59375 -2.546875 C 3.640625 -2.734375 3.71875 -3.0625 3.71875 -3.109375 C 3.71875 -3.28125 3.578125 -3.34375 3.46875 -3.34375 C 3.34375 -3.34375 3.15625 -3.265625 3.109375 -3.03125 Z M 2.578125 -0.859375 C 2.171875 -0.3125 1.765625 -0.140625 1.515625 -0.140625 C 1.140625 -0.140625 0.953125 -0.46875 0.953125 -0.890625 C 0.953125 -1.265625 1.171875 -2.109375 1.34375 -2.453125 C 1.578125 -2.9375 1.96875 -3.28125 2.328125 -3.28125 C 2.84375 -3.28125 3 -2.703125 3 -2.609375 C 3 -2.578125 2.796875 -1.796875 2.75 -1.59375 C 2.65625 -1.21875 2.65625 -1.203125 2.578125 -0.859375 Z M 2.578125 -0.859375 "/>
</g>
<g id="glyph-3-1">
<path d="M 3.984375 -3.171875 C 3.625 -3.078125 3.609375 -2.765625 3.609375 -2.734375 C 3.609375 -2.5625 3.75 -2.4375 3.921875 -2.4375 C 4.09375 -2.4375 4.359375 -2.578125 4.359375 -2.921875 C 4.359375 -3.375 3.859375 -3.5 3.578125 -3.5 C 3.203125 -3.5 2.890625 -3.234375 2.71875 -2.921875 C 2.546875 -3.34375 2.125 -3.5 1.796875 -3.5 C 0.9375 -3.5 0.453125 -2.515625 0.453125 -2.28125 C 0.453125 -2.21875 0.515625 -2.1875 0.578125 -2.1875 C 0.671875 -2.1875 0.6875 -2.21875 0.703125 -2.3125 C 0.890625 -2.890625 1.359375 -3.28125 1.78125 -3.28125 C 2.09375 -3.28125 2.234375 -3.0625 2.234375 -2.765625 C 2.234375 -2.609375 2.140625 -2.25 2.078125 -2 C 2.03125 -1.765625 1.84375 -1.0625 1.8125 -0.90625 C 1.703125 -0.46875 1.40625 -0.140625 1.0625 -0.140625 C 1.03125 -0.140625 0.8125 -0.140625 0.65625 -0.25 C 1.015625 -0.34375 1.015625 -0.671875 1.015625 -0.6875 C 1.015625 -0.859375 0.875 -0.96875 0.703125 -0.96875 C 0.484375 -0.96875 0.25 -0.796875 0.25 -0.484375 C 0.25 -0.125 0.640625 0.078125 1.046875 0.078125 C 1.46875 0.078125 1.765625 -0.234375 1.90625 -0.484375 C 2.078125 -0.109375 2.4375 0.078125 2.828125 0.078125 C 3.6875 0.078125 4.171875 -0.90625 4.171875 -1.140625 C 4.171875 -1.21875 4.109375 -1.234375 4.046875 -1.234375 C 3.953125 -1.234375 3.9375 -1.1875 3.90625 -1.109375 C 3.75 -0.578125 3.296875 -0.140625 2.84375 -0.140625 C 2.578125 -0.140625 2.390625 -0.3125 2.390625 -0.65625 C 2.390625 -0.8125 2.4375 -0.984375 2.546875 -1.4375 C 2.609375 -1.671875 2.78125 -2.375 2.8125 -2.53125 C 2.921875 -2.9375 3.203125 -3.28125 3.5625 -3.28125 C 3.609375 -3.28125 3.8125 -3.28125 3.984375 -3.171875 Z M 3.984375 -3.171875 "/>
</g>
<g id="glyph-4-0">
<path d="M 1.328125 -4.125 L 0.375 -4.0625 L 0.375 -3.828125 C 0.796875 -3.828125 0.84375 -3.796875 0.84375 -3.5 L 0.84375 -0.484375 C 0.84375 -0.234375 0.796875 -0.234375 0.375 -0.234375 L 0.375 0 C 0.5625 -0.015625 1.03125 -0.03125 1.078125 -0.03125 C 1.328125 -0.03125 1.546875 -0.015625 1.796875 0 L 1.796875 -0.234375 C 1.375 -0.234375 1.328125 -0.234375 1.328125 -0.484375 Z M 1.328125 -4.125 "/>
</g>
<g id="glyph-4-1">
<path d="M 2.796875 -1.34375 C 2.921875 -1.34375 2.96875 -1.34375 2.96875 -1.484375 C 2.96875 -1.953125 2.71875 -2.65625 1.71875 -2.65625 C 0.890625 -2.65625 0.28125 -2.015625 0.28125 -1.296875 C 0.28125 -0.546875 0.96875 0.0625 1.8125 0.0625 C 2.671875 0.0625 2.96875 -0.578125 2.96875 -0.71875 C 2.96875 -0.75 2.953125 -0.8125 2.859375 -0.8125 C 2.78125 -0.8125 2.765625 -0.78125 2.75 -0.703125 C 2.5625 -0.265625 2.125 -0.15625 1.84375 -0.15625 C 1.515625 -0.15625 1.234375 -0.296875 1.078125 -0.515625 C 0.84375 -0.796875 0.84375 -1.1875 0.84375 -1.34375 Z M 0.859375 -1.53125 C 0.921875 -2.328125 1.46875 -2.46875 1.71875 -2.46875 C 2.484375 -2.46875 2.53125 -1.703125 2.53125 -1.53125 Z M 0.859375 -1.53125 "/>
</g>
<g id="glyph-4-2">
<path d="M 2.828125 -1.78125 C 2.828125 -2.328125 2.265625 -2.65625 1.59375 -2.65625 C 1.3125 -2.65625 0.609375 -2.625 0.609375 -2.125 C 0.609375 -1.96875 0.71875 -1.828125 0.90625 -1.828125 C 1.078125 -1.828125 1.1875 -1.96875 1.1875 -2.125 C 1.1875 -2.21875 1.140625 -2.328125 1.03125 -2.375 C 1.21875 -2.46875 1.53125 -2.46875 1.578125 -2.46875 C 2 -2.46875 2.328125 -2.21875 2.328125 -1.765625 L 2.328125 -1.609375 C 2.0625 -1.59375 1.578125 -1.578125 1.15625 -1.421875 C 0.75 -1.296875 0.375 -1.03125 0.375 -0.625 C 0.375 -0.09375 1.015625 0.0625 1.46875 0.0625 C 1.96875 0.0625 2.28125 -0.1875 2.40625 -0.421875 C 2.453125 -0.109375 2.640625 0.03125 2.84375 0.03125 C 2.875 0.03125 3.515625 0.03125 3.515625 -0.53125 L 3.515625 -0.859375 L 3.296875 -0.859375 L 3.296875 -0.546875 C 3.296875 -0.484375 3.296875 -0.21875 3.0625 -0.21875 C 2.828125 -0.21875 2.828125 -0.484375 2.828125 -0.546875 Z M 2.328125 -0.84375 C 2.328125 -0.21875 1.71875 -0.125 1.53125 -0.125 C 1.203125 -0.125 0.90625 -0.328125 0.90625 -0.625 C 0.90625 -0.953125 1.21875 -1.390625 2.328125 -1.421875 Z M 2.328125 -0.84375 "/>
</g>
<g id="glyph-4-3">
<path d="M 1.28125 -1.328125 C 1.28125 -1.890625 1.578125 -2.421875 2.09375 -2.4375 C 2.046875 -2.375 2.03125 -2.3125 2.03125 -2.234375 C 2.03125 -2.078125 2.140625 -1.953125 2.296875 -1.953125 C 2.46875 -1.953125 2.578125 -2.078125 2.578125 -2.234375 C 2.578125 -2.46875 2.359375 -2.625 2.09375 -2.625 C 1.734375 -2.625 1.4375 -2.40625 1.25 -2.015625 L 1.25 -2.625 L 0.34375 -2.5625 L 0.34375 -2.328125 C 0.765625 -2.328125 0.8125 -2.28125 0.8125 -2 L 0.8125 -0.484375 C 0.8125 -0.234375 0.75 -0.234375 0.34375 -0.234375 L 0.34375 0 C 0.5 -0.015625 0.9375 -0.03125 1.0625 -0.03125 C 1.375 -0.03125 1.78125 0 1.875 0 L 1.875 -0.234375 L 1.734375 -0.234375 C 1.296875 -0.234375 1.28125 -0.296875 1.28125 -0.5 Z M 1.28125 -1.328125 "/>
</g>
<g id="glyph-4-4">
<path d="M 3.25 -1.796875 C 3.25 -2.375 2.921875 -2.625 2.328125 -2.625 C 1.796875 -2.625 1.46875 -2.34375 1.296875 -2.0625 L 1.296875 -2.625 L 0.375 -2.5625 L 0.375 -2.328125 C 0.796875 -2.328125 0.84375 -2.28125 0.84375 -2 L 0.84375 -0.484375 C 0.84375 -0.234375 0.78125 -0.234375 0.375 -0.234375 L 0.375 0 C 0.421875 0 0.828125 -0.03125 1.09375 -0.03125 C 1.359375 -0.03125 1.75 0 1.8125 0 L 1.8125 -0.234375 C 1.40625 -0.234375 1.34375 -0.234375 1.34375 -0.484375 L 1.34375 -1.53125 C 1.34375 -2.1875 1.90625 -2.4375 2.265625 -2.4375 C 2.671875 -2.4375 2.765625 -2.1875 2.765625 -1.8125 L 2.765625 -0.484375 C 2.765625 -0.234375 2.703125 -0.234375 2.296875 -0.234375 L 2.296875 0 C 2.328125 0 2.734375 -0.03125 3 -0.03125 C 3.28125 -0.03125 3.671875 0 3.734375 0 L 3.734375 -0.234375 C 3.3125 -0.234375 3.25 -0.234375 3.25 -0.484375 Z M 3.25 -1.796875 "/>
</g>
<g id="glyph-4-5">
<path d="M 2.40625 -2.484375 C 2.40625 -2.59375 2.40625 -2.65625 2.3125 -2.65625 C 2.28125 -2.65625 2.28125 -2.65625 2.1875 -2.578125 C 2.171875 -2.578125 2.171875 -2.5625 2.078125 -2.5 C 1.84375 -2.65625 1.546875 -2.65625 1.421875 -2.65625 C 0.5 -2.65625 0.3125 -2.1875 0.3125 -1.921875 C 0.3125 -1.328125 1.015625 -1.21875 1.46875 -1.15625 C 1.734375 -1.109375 2.25 -1.03125 2.25 -0.625 C 2.25 -0.40625 2.078125 -0.125 1.46875 -0.125 C 0.90625 -0.125 0.65625 -0.46875 0.546875 -0.90625 C 0.53125 -0.96875 0.515625 -1 0.421875 -1 C 0.3125 -1 0.3125 -0.953125 0.3125 -0.828125 L 0.3125 -0.109375 C 0.3125 0 0.3125 0.0625 0.40625 0.0625 C 0.453125 0.0625 0.453125 0.046875 0.5625 -0.046875 L 0.703125 -0.203125 C 1 0.0625 1.34375 0.0625 1.46875 0.0625 C 2.34375 0.0625 2.578125 -0.421875 2.578125 -0.765625 C 2.578125 -1 2.46875 -1.1875 2.328125 -1.296875 C 2.078125 -1.515625 1.84375 -1.5625 1.484375 -1.625 C 1.046875 -1.6875 0.640625 -1.765625 0.640625 -2.0625 C 0.640625 -2.234375 0.796875 -2.484375 1.421875 -2.484375 C 1.84375 -2.484375 2.15625 -2.328125 2.1875 -1.90625 C 2.203125 -1.828125 2.203125 -1.78125 2.296875 -1.78125 C 2.40625 -1.78125 2.40625 -1.828125 2.40625 -1.953125 Z M 2.40625 -2.484375 "/>
</g>
<g id="glyph-4-6">
<path d="M 1.328125 -2.328125 L 2.109375 -2.328125 L 2.109375 -2.5625 L 1.296875 -2.5625 L 1.296875 -3.21875 C 1.296875 -3.765625 1.640625 -4 1.890625 -4 C 1.96875 -4 2.03125 -3.984375 2.0625 -3.984375 C 2.015625 -3.953125 1.953125 -3.90625 1.953125 -3.75 C 1.953125 -3.59375 2.0625 -3.46875 2.234375 -3.46875 C 2.40625 -3.46875 2.515625 -3.59375 2.515625 -3.75 C 2.515625 -4.015625 2.25 -4.1875 1.90625 -4.1875 C 1.421875 -4.1875 0.859375 -3.859375 0.859375 -3.21875 L 0.859375 -2.5625 L 0.3125 -2.5625 L 0.3125 -2.328125 L 0.859375 -2.328125 L 0.859375 -0.484375 C 0.859375 -0.234375 0.796875 -0.234375 0.390625 -0.234375 L 0.390625 0 C 0.53125 -0.015625 0.96875 -0.03125 1.109375 -0.03125 C 1.421875 -0.03125 1.828125 0 1.90625 0 L 1.90625 -0.234375 L 1.78125 -0.234375 C 1.328125 -0.234375 1.328125 -0.296875 1.328125 -0.5 Z M 1.328125 -2.328125 "/>
</g>
<g id="glyph-5-0">
<path d="M 2.625 -2.90625 C 2.625 -3.03125 2.625 -3.09375 2.53125 -3.09375 C 2.5 -3.09375 2.484375 -3.09375 2.390625 -3.015625 C 2.375 -3 2.3125 -2.9375 2.265625 -2.90625 C 2.0625 -3.046875 1.796875 -3.09375 1.546875 -3.09375 C 0.546875 -3.09375 0.3125 -2.578125 0.3125 -2.234375 C 0.3125 -2 0.40625 -1.828125 0.578125 -1.6875 C 0.84375 -1.453125 1.109375 -1.40625 1.53125 -1.34375 C 1.875 -1.28125 2.4375 -1.171875 2.4375 -0.71875 C 2.4375 -0.4375 2.25 -0.125 1.59375 -0.125 C 0.921875 -0.125 0.6875 -0.5625 0.5625 -1.03125 C 0.53125 -1.125 0.53125 -1.15625 0.4375 -1.15625 C 0.3125 -1.15625 0.3125 -1.109375 0.3125 -0.96875 L 0.3125 -0.109375 C 0.3125 0 0.3125 0.0625 0.40625 0.0625 C 0.46875 0.0625 0.609375 -0.078125 0.75 -0.234375 C 1.046875 0.0625 1.421875 0.0625 1.59375 0.0625 C 2.484375 0.0625 2.828125 -0.421875 2.828125 -0.90625 C 2.828125 -1.171875 2.703125 -1.375 2.53125 -1.546875 C 2.265625 -1.796875 1.9375 -1.84375 1.703125 -1.890625 C 1.140625 -1.984375 0.6875 -2.0625 0.6875 -2.4375 C 0.6875 -2.65625 0.875 -2.921875 1.546875 -2.921875 C 2.34375 -2.921875 2.375 -2.359375 2.390625 -2.171875 C 2.40625 -2.09375 2.484375 -2.09375 2.515625 -2.09375 C 2.625 -2.09375 2.625 -2.140625 2.625 -2.265625 Z M 2.625 -2.90625 "/>
</g>
<g id="glyph-5-1">
<path d="M 1.390625 -2.734375 L 2.484375 -2.734375 L 2.484375 -2.984375 L 1.390625 -2.984375 L 1.390625 -4.265625 L 1.15625 -4.265625 C 1.15625 -3.640625 0.875 -2.953125 0.203125 -2.9375 L 0.203125 -2.734375 L 0.84375 -2.734375 L 0.84375 -0.875 C 0.84375 -0.09375 1.421875 0.0625 1.8125 0.0625 C 2.28125 0.0625 2.609375 -0.328125 2.609375 -0.875 L 2.609375 -1.25 L 2.359375 -1.25 L 2.359375 -0.875 C 2.359375 -0.40625 2.140625 -0.15625 1.875 -0.15625 C 1.390625 -0.15625 1.390625 -0.734375 1.390625 -0.859375 Z M 1.390625 -2.734375 "/>
</g>
<g id="glyph-5-2">
<path d="M 3.09375 -1.859375 C 3.09375 -2.234375 3.09375 -2.484375 2.78125 -2.75 C 2.484375 -2.984375 2.15625 -3.09375 1.75 -3.09375 C 1.09375 -3.09375 0.625 -2.84375 0.625 -2.421875 C 0.625 -2.203125 0.78125 -2.078125 0.953125 -2.078125 C 1.140625 -2.078125 1.28125 -2.21875 1.28125 -2.40625 C 1.28125 -2.53125 1.234375 -2.671875 1.046875 -2.71875 C 1.296875 -2.90625 1.6875 -2.90625 1.734375 -2.90625 C 2.125 -2.90625 2.546875 -2.640625 2.546875 -2.0625 L 2.546875 -1.84375 C 2.171875 -1.828125 1.703125 -1.8125 1.203125 -1.625 C 0.578125 -1.390625 0.375 -1.015625 0.375 -0.703125 C 0.375 -0.109375 1.109375 0.0625 1.59375 0.0625 C 2.15625 0.0625 2.484375 -0.25 2.625 -0.515625 C 2.65625 -0.234375 2.84375 0.03125 3.15625 0.03125 C 3.171875 0.03125 3.84375 0.03125 3.84375 -0.625 L 3.84375 -1 L 3.609375 -1 L 3.609375 -0.625 C 3.609375 -0.5625 3.609375 -0.234375 3.34375 -0.234375 C 3.09375 -0.234375 3.09375 -0.5625 3.09375 -0.640625 Z M 2.546875 -0.984375 C 2.546875 -0.3125 1.96875 -0.125 1.65625 -0.125 C 1.296875 -0.125 0.96875 -0.359375 0.96875 -0.703125 C 0.96875 -1.078125 1.296875 -1.609375 2.546875 -1.671875 Z M 2.546875 -0.984375 "/>
</g>
<g id="glyph-5-3">
<path d="M 3.046875 -1.578125 C 3.203125 -1.578125 3.25 -1.578125 3.25 -1.734375 C 3.25 -2.34375 2.90625 -3.09375 1.875 -3.09375 C 0.96875 -3.09375 0.265625 -2.375 0.265625 -1.515625 C 0.265625 -0.640625 1.046875 0.0625 1.96875 0.0625 C 2.90625 0.0625 3.25 -0.6875 3.25 -0.828125 C 3.25 -0.859375 3.234375 -0.921875 3.125 -0.921875 C 3.03125 -0.921875 3.03125 -0.890625 3 -0.8125 C 2.78125 -0.25 2.265625 -0.15625 2.015625 -0.15625 C 1.6875 -0.15625 1.375 -0.296875 1.171875 -0.5625 C 0.90625 -0.890625 0.90625 -1.3125 0.90625 -1.578125 Z M 0.90625 -1.765625 C 0.984375 -2.734375 1.609375 -2.90625 1.875 -2.90625 C 2.71875 -2.90625 2.75 -1.9375 2.765625 -1.765625 Z M 0.90625 -1.765625 "/>
</g>
<g id="glyph-5-4">
<path d="M 1.46875 -4.28125 C 1.46875 -4.484375 1.296875 -4.671875 1.0625 -4.671875 C 0.859375 -4.671875 0.671875 -4.515625 0.671875 -4.28125 C 0.671875 -4.03125 0.875 -3.875 1.0625 -3.875 C 1.28125 -3.875 1.46875 -4.046875 1.46875 -4.28125 Z M 0.40625 -2.984375 L 0.40625 -2.734375 C 0.84375 -2.734375 0.90625 -2.6875 0.90625 -2.359375 L 0.90625 -0.546875 C 0.90625 -0.25 0.84375 -0.25 0.390625 -0.25 L 0.390625 0 C 0.40625 0 0.890625 -0.03125 1.171875 -0.03125 C 1.40625 -0.03125 1.65625 -0.015625 1.90625 0 L 1.90625 -0.25 C 1.5 -0.25 1.421875 -0.25 1.421875 -0.546875 L 1.421875 -3.0625 Z M 0.40625 -2.984375 "/>
</g>
<g id="glyph-5-5">
<path d="M 3.578125 -2.109375 C 3.578125 -2.703125 3.28125 -3.0625 2.53125 -3.0625 C 1.96875 -3.0625 1.59375 -2.75 1.40625 -2.390625 L 1.390625 -2.390625 L 1.390625 -3.0625 L 0.375 -2.984375 L 0.375 -2.734375 C 0.84375 -2.734375 0.890625 -2.6875 0.890625 -2.34375 L 0.890625 -0.546875 C 0.890625 -0.25 0.828125 -0.25 0.375 -0.25 L 0.375 0 C 0.390625 0 0.875 -0.03125 1.171875 -0.03125 C 1.421875 -0.03125 1.90625 0 1.96875 0 L 1.96875 -0.25 C 1.515625 -0.25 1.4375 -0.25 1.4375 -0.546875 L 1.4375 -1.796875 C 1.4375 -2.53125 2.015625 -2.859375 2.484375 -2.859375 C 2.96875 -2.859375 3.03125 -2.484375 3.03125 -2.125 L 3.03125 -0.546875 C 3.03125 -0.25 2.953125 -0.25 2.5 -0.25 L 2.5 0 C 2.515625 0 3 -0.03125 3.296875 -0.03125 C 3.546875 -0.03125 4.03125 0 4.09375 0 L 4.09375 -0.25 C 3.640625 -0.25 3.578125 -0.25 3.578125 -0.546875 Z M 3.578125 -2.109375 "/>
</g>
<g id="glyph-5-6">
<path d="M 1.375 -1.578125 C 1.375 -2.171875 1.65625 -2.859375 2.3125 -2.859375 C 2.25 -2.8125 2.1875 -2.71875 2.1875 -2.609375 C 2.1875 -2.390625 2.375 -2.296875 2.5 -2.296875 C 2.671875 -2.296875 2.828125 -2.40625 2.828125 -2.609375 C 2.828125 -2.84375 2.609375 -3.0625 2.28125 -3.0625 C 1.921875 -3.0625 1.546875 -2.84375 1.34375 -2.3125 L 1.328125 -2.3125 L 1.328125 -3.0625 L 0.34375 -2.984375 L 0.34375 -2.734375 C 0.8125 -2.734375 0.859375 -2.6875 0.859375 -2.34375 L 0.859375 -0.546875 C 0.859375 -0.25 0.796875 -0.25 0.34375 -0.25 L 0.34375 0 C 0.375 0 0.84375 -0.03125 1.125 -0.03125 C 1.421875 -0.03125 1.734375 -0.015625 2.03125 0 L 2.03125 -0.25 L 1.890625 -0.25 C 1.375 -0.25 1.375 -0.328125 1.375 -0.5625 Z M 1.375 -1.578125 "/>
</g>
<g id="glyph-5-7">
<path d="M 2.703125 -2.765625 C 2.578125 -2.71875 2.5 -2.609375 2.5 -2.46875 C 2.5 -2.28125 2.640625 -2.140625 2.828125 -2.140625 C 3.015625 -2.140625 3.15625 -2.25 3.15625 -2.484375 C 3.15625 -3.09375 2.203125 -3.09375 2 -3.09375 C 0.96875 -3.09375 0.3125 -2.296875 0.3125 -1.5 C 0.3125 -0.625 1.0625 0.0625 1.96875 0.0625 C 3 0.0625 3.25 -0.75 3.25 -0.828125 C 3.25 -0.921875 3.15625 -0.921875 3.125 -0.921875 C 3.03125 -0.921875 3.03125 -0.890625 3 -0.796875 C 2.84375 -0.375 2.484375 -0.15625 2.046875 -0.15625 C 1.578125 -0.15625 0.953125 -0.5 0.953125 -1.5 C 0.953125 -2.390625 1.375 -2.875 2.03125 -2.875 C 2.109375 -2.875 2.453125 -2.875 2.703125 -2.765625 Z M 2.703125 -2.765625 "/>
</g>
<g id="glyph-5-8">
<path d="M 3.671875 -1.484375 C 3.671875 -2.34375 2.921875 -3.09375 1.96875 -3.09375 C 1.015625 -3.09375 0.265625 -2.34375 0.265625 -1.484375 C 0.265625 -0.625 1.03125 0.0625 1.96875 0.0625 C 2.90625 0.0625 3.671875 -0.625 3.671875 -1.484375 Z M 1.96875 -0.15625 C 1.71875 -0.15625 1.34375 -0.234375 1.109375 -0.578125 C 0.921875 -0.859375 0.90625 -1.21875 0.90625 -1.546875 C 0.90625 -1.84375 0.90625 -2.25 1.15625 -2.546875 C 1.328125 -2.75 1.609375 -2.90625 1.96875 -2.90625 C 2.375 -2.90625 2.671875 -2.703125 2.828125 -2.484375 C 3.015625 -2.21875 3.03125 -1.875 3.03125 -1.546875 C 3.03125 -1.203125 3.015625 -0.84375 2.8125 -0.5625 C 2.625 -0.296875 2.3125 -0.15625 1.96875 -0.15625 Z M 1.96875 -0.15625 "/>
</g>
<g id="glyph-5-9">
<path d="M 3.28125 -2.3125 C 3.484375 -2.734375 3.828125 -2.734375 3.9375 -2.734375 L 3.9375 -2.984375 C 3.765625 -2.96875 3.59375 -2.96875 3.40625 -2.96875 C 3.21875 -2.96875 2.96875 -2.96875 2.78125 -2.984375 L 2.78125 -2.734375 C 3.078125 -2.71875 3.078125 -2.5 3.078125 -2.484375 C 3.078125 -2.4375 3.0625 -2.375 3.015625 -2.28125 L 2.234375 -0.5625 L 1.375 -2.453125 C 1.375 -2.453125 1.328125 -2.53125 1.328125 -2.578125 C 1.328125 -2.734375 1.5625 -2.734375 1.6875 -2.734375 L 1.6875 -2.984375 C 1.671875 -2.984375 1.171875 -2.96875 0.890625 -2.96875 C 0.6875 -2.96875 0.421875 -2.96875 0.21875 -2.984375 L 0.21875 -2.734375 C 0.59375 -2.734375 0.6875 -2.71875 0.78125 -2.484375 L 1.875 -0.078125 C 1.921875 0 1.953125 0.0625 2.078125 0.0625 C 2.203125 0.0625 2.234375 0 2.265625 -0.0625 Z M 3.28125 -2.3125 "/>
</g>
<g id="glyph-5-10">
<path d="M 1.375 -4.8125 L 0.34375 -4.734375 L 0.34375 -4.484375 C 0.8125 -4.484375 0.859375 -4.4375 0.859375 -4.09375 L 0.859375 0 L 1.09375 0 L 1.34375 -0.421875 C 1.609375 -0.078125 1.984375 0.0625 2.359375 0.0625 C 3.265625 0.0625 4.046875 -0.625 4.046875 -1.5 C 4.046875 -2.34375 3.34375 -3.0625 2.421875 -3.0625 C 2.015625 -3.0625 1.625 -2.890625 1.375 -2.640625 Z M 1.40625 -2.328125 C 1.609375 -2.640625 1.984375 -2.859375 2.390625 -2.859375 C 2.78125 -2.859375 3.0625 -2.640625 3.203125 -2.4375 C 3.34375 -2.234375 3.421875 -1.96875 3.421875 -1.5 C 3.421875 -1.34375 3.421875 -0.828125 3.140625 -0.5 C 2.859375 -0.1875 2.515625 -0.125 2.3125 -0.125 C 1.765625 -0.125 1.484375 -0.5625 1.40625 -0.703125 Z M 1.40625 -2.328125 "/>
</g>
<g id="glyph-5-11">
<path d="M 1.421875 -4.8125 L 0.390625 -4.734375 L 0.390625 -4.484375 C 0.859375 -4.484375 0.90625 -4.4375 0.90625 -4.09375 L 0.90625 -0.546875 C 0.90625 -0.25 0.84375 -0.25 0.390625 -0.25 L 0.390625 0 C 0.40625 0 0.890625 -0.03125 1.171875 -0.03125 C 1.421875 -0.03125 1.6875 -0.015625 1.953125 0 L 1.953125 -0.25 C 1.5 -0.25 1.421875 -0.25 1.421875 -0.546875 Z M 1.421875 -4.8125 "/>
</g>
<g id="glyph-5-12">
<path d="M 1 -1.234375 C 1.109375 -1.171875 1.359375 -1.015625 1.75 -1.015625 C 2.46875 -1.015625 2.984375 -1.5 2.984375 -2.046875 C 2.984375 -2.3125 2.859375 -2.53125 2.703125 -2.703125 C 3.015625 -2.921875 3.28125 -2.9375 3.40625 -2.9375 C 3.375 -2.90625 3.34375 -2.875 3.34375 -2.765625 C 3.34375 -2.625 3.4375 -2.546875 3.5625 -2.546875 C 3.65625 -2.546875 3.78125 -2.609375 3.78125 -2.78125 C 3.78125 -2.9375 3.65625 -3.125 3.375 -3.125 C 3.265625 -3.125 2.890625 -3.109375 2.5625 -2.8125 C 2.359375 -2.96875 2.0625 -3.0625 1.765625 -3.0625 C 1.046875 -3.0625 0.53125 -2.578125 0.53125 -2.046875 C 0.53125 -1.765625 0.671875 -1.515625 0.859375 -1.34375 C 0.8125 -1.28125 0.65625 -1.046875 0.65625 -0.78125 C 0.65625 -0.6875 0.671875 -0.359375 0.9375 -0.15625 C 0.625 -0.0625 0.265625 0.171875 0.265625 0.53125 C 0.265625 1.046875 1.03125 1.421875 1.96875 1.421875 C 2.84375 1.421875 3.671875 1.078125 3.671875 0.515625 C 3.671875 0.3125 3.59375 -0.0625 3.203125 -0.265625 C 2.796875 -0.484375 2.390625 -0.484375 1.71875 -0.484375 C 1.5625 -0.484375 1.3125 -0.484375 1.25 -0.5 C 1.03125 -0.546875 0.90625 -0.75 0.90625 -0.953125 C 0.90625 -1.125 0.953125 -1.171875 1 -1.234375 Z M 1.765625 -1.234375 C 1.078125 -1.234375 1.078125 -1.890625 1.078125 -2.046875 C 1.078125 -2.15625 1.078125 -2.421875 1.21875 -2.609375 C 1.3125 -2.71875 1.5 -2.84375 1.75 -2.84375 C 2.4375 -2.84375 2.4375 -2.1875 2.4375 -2.046875 C 2.4375 -1.921875 2.4375 -1.65625 2.296875 -1.46875 C 2.203125 -1.359375 2.015625 -1.234375 1.765625 -1.234375 Z M 1.765625 -0.015625 C 2.375 -0.015625 3.25 -0.015625 3.25 0.53125 C 3.25 0.890625 2.703125 1.21875 1.96875 1.21875 C 1.234375 1.21875 0.6875 0.890625 0.6875 0.53125 C 0.6875 0.28125 0.921875 -0.015625 1.359375 -0.015625 Z M 1.765625 -0.015625 "/>
</g>
<g id="glyph-5-13">
<path d="M 1.875 -1.78125 C 1.875 -2.390625 2.296875 -2.90625 2.8125 -3.21875 C 2.9375 -3.3125 3.25 -3.53125 3.25 -3.953125 C 3.25 -4.3125 2.96875 -4.890625 1.796875 -4.890625 C 0.9375 -4.890625 0.484375 -4.4375 0.484375 -3.96875 C 0.484375 -3.671875 0.71875 -3.609375 0.8125 -3.609375 C 0.953125 -3.609375 1.140625 -3.71875 1.140625 -3.953125 C 1.140625 -3.984375 1.140625 -4.25 0.8125 -4.28125 C 0.9375 -4.46875 1.265625 -4.6875 1.78125 -4.6875 C 2.5625 -4.6875 2.609375 -4.296875 2.609375 -3.96875 C 2.609375 -3.609375 2.484375 -3.46875 2.359375 -3.375 C 1.90625 -2.953125 1.640625 -2.34375 1.640625 -1.8125 L 1.640625 -1.515625 C 1.640625 -1.375 1.640625 -1.34375 1.765625 -1.34375 C 1.875 -1.34375 1.875 -1.390625 1.875 -1.546875 Z M 2.15625 -0.390625 C 2.15625 -0.640625 1.96875 -0.796875 1.765625 -0.796875 C 1.515625 -0.796875 1.359375 -0.609375 1.359375 -0.40625 C 1.359375 -0.15625 1.546875 0 1.75 0 C 2 0 2.15625 -0.1875 2.15625 -0.390625 Z M 2.15625 -0.390625 "/>
</g>
<g id="glyph-5-14">
<path d="M 1.921875 1.09375 C 1.484375 1.09375 1.40625 1.09375 1.40625 0.796875 L 1.40625 -0.328125 C 1.4375 -0.296875 1.765625 0.0625 2.359375 0.0625 C 3.265625 0.0625 4.046875 -0.625 4.046875 -1.5 C 4.046875 -2.359375 3.34375 -3.0625 2.46875 -3.0625 C 2.0625 -3.0625 1.671875 -2.90625 1.375 -2.640625 L 1.375 -3.0625 L 0.34375 -2.984375 L 0.34375 -2.734375 C 0.828125 -2.734375 0.859375 -2.703125 0.859375 -2.40625 L 0.859375 0.796875 C 0.859375 1.09375 0.796875 1.09375 0.34375 1.09375 L 0.34375 1.34375 C 0.359375 1.34375 0.84375 1.3125 1.125 1.3125 C 1.390625 1.3125 1.859375 1.34375 1.921875 1.34375 Z M 1.40625 -2.3125 C 1.609375 -2.65625 2.015625 -2.84375 2.390625 -2.84375 C 2.96875 -2.84375 3.421875 -2.234375 3.421875 -1.5 C 3.421875 -0.703125 2.90625 -0.125 2.3125 -0.125 C 1.703125 -0.125 1.421875 -0.65625 1.40625 -0.703125 Z M 1.40625 -2.3125 "/>
</g>
<g id="glyph-5-15">
<path d="M 2.5 -2.984375 L 2.5 -2.734375 C 2.96875 -2.734375 3.03125 -2.6875 3.03125 -2.34375 L 3.03125 -1.15625 C 3.03125 -0.546875 2.625 -0.125 2.109375 -0.125 C 1.46875 -0.125 1.4375 -0.421875 1.4375 -0.78125 L 1.4375 -3.0625 L 0.375 -2.984375 L 0.375 -2.734375 C 0.890625 -2.734375 0.890625 -2.71875 0.890625 -2.09375 L 0.890625 -1.046875 C 0.890625 -0.578125 0.890625 0.0625 2.046875 0.0625 C 2.203125 0.0625 2.71875 0.0625 3.046875 -0.515625 L 3.046875 0.0625 L 4.09375 0 L 4.09375 -0.25 C 3.625 -0.25 3.578125 -0.296875 3.578125 -0.640625 L 3.578125 -3.0625 Z M 2.5 -2.984375 "/>
</g>
<g id="glyph-5-16">
<path d="M 2.171875 -1.25 L 2.171875 -1.734375 L 0.140625 -1.734375 L 0.140625 -1.25 Z M 2.171875 -1.25 "/>
</g>
<g id="glyph-5-17">
<path d="M 2.46875 -4.734375 L 2.46875 -4.484375 C 2.9375 -4.484375 2.984375 -4.4375 2.984375 -4.09375 L 2.984375 -2.65625 C 2.734375 -2.90625 2.40625 -3.0625 2.015625 -3.0625 C 1.09375 -3.0625 0.3125 -2.359375 0.3125 -1.484375 C 0.3125 -0.625 1.046875 0.0625 1.9375 0.0625 C 2.5 0.0625 2.84375 -0.234375 2.96875 -0.359375 L 2.96875 0.0625 L 4.03125 0 L 4.03125 -0.25 C 3.5625 -0.25 3.515625 -0.296875 3.515625 -0.640625 L 3.515625 -4.8125 Z M 2.96875 -0.734375 C 2.78125 -0.40625 2.421875 -0.125 1.984375 -0.125 C 1.59375 -0.125 1.3125 -0.359375 1.171875 -0.5625 C 1.03125 -0.765625 0.953125 -1.046875 0.953125 -1.484375 C 0.953125 -1.640625 0.953125 -2.171875 1.234375 -2.484375 C 1.515625 -2.796875 1.859375 -2.859375 2.046875 -2.859375 C 2.390625 -2.859375 2.6875 -2.71875 2.875 -2.46875 C 2.96875 -2.359375 2.96875 -2.34375 2.96875 -2.21875 Z M 2.96875 -0.734375 "/>
</g>
<g id="glyph-5-18">
<path d="M 4.859375 -2.3125 C 5 -2.65625 5.21875 -2.734375 5.4375 -2.734375 L 5.4375 -2.984375 C 5.25 -2.96875 5.140625 -2.96875 4.9375 -2.96875 C 4.734375 -2.96875 4.46875 -2.96875 4.265625 -2.984375 L 4.265625 -2.734375 C 4.5 -2.734375 4.625 -2.609375 4.625 -2.4375 C 4.625 -2.375 4.625 -2.359375 4.578125 -2.265625 L 3.90625 -0.546875 L 3.15625 -2.4375 C 3.140625 -2.46875 3.125 -2.53125 3.125 -2.5625 C 3.125 -2.71875 3.296875 -2.734375 3.5 -2.734375 L 3.5 -2.984375 C 3.25 -2.96875 3 -2.96875 2.75 -2.96875 C 2.546875 -2.96875 2.34375 -2.96875 2.140625 -2.984375 L 2.140625 -2.734375 C 2.296875 -2.734375 2.4375 -2.734375 2.53125 -2.6875 C 2.625 -2.609375 2.6875 -2.390625 2.6875 -2.375 C 2.6875 -2.359375 2.671875 -2.328125 2.65625 -2.296875 L 2.015625 -0.640625 L 1.3125 -2.4375 C 1.265625 -2.53125 1.265625 -2.546875 1.265625 -2.5625 C 1.265625 -2.734375 1.515625 -2.734375 1.640625 -2.734375 L 1.640625 -2.984375 C 1.625 -2.984375 1.140625 -2.96875 0.859375 -2.96875 C 0.640625 -2.96875 0.421875 -2.96875 0.203125 -2.984375 L 0.203125 -2.734375 C 0.484375 -2.734375 0.625 -2.734375 0.703125 -2.546875 L 1.671875 -0.09375 C 1.71875 0.015625 1.734375 0.0625 1.859375 0.0625 C 1.984375 0.0625 2 0.015625 2.046875 -0.078125 L 2.828125 -2.0625 L 3.59375 -0.09375 C 3.640625 0 3.65625 0.0625 3.78125 0.0625 C 3.90625 0.0625 3.9375 0.015625 3.96875 -0.09375 Z M 4.859375 -2.3125 "/>
</g>
<g id="glyph-5-19">
<path d="M 3.578125 -2.109375 C 3.578125 -2.703125 3.28125 -3.0625 2.53125 -3.0625 C 1.921875 -3.0625 1.578125 -2.6875 1.421875 -2.421875 L 1.421875 -4.8125 L 0.375 -4.734375 L 0.375 -4.484375 C 0.84375 -4.484375 0.890625 -4.4375 0.890625 -4.09375 L 0.890625 -0.546875 C 0.890625 -0.25 0.828125 -0.25 0.375 -0.25 L 0.375 0 C 0.390625 0 0.875 -0.03125 1.171875 -0.03125 C 1.421875 -0.03125 1.90625 0 1.96875 0 L 1.96875 -0.25 C 1.515625 -0.25 1.4375 -0.25 1.4375 -0.546875 L 1.4375 -1.796875 C 1.4375 -2.53125 2.015625 -2.859375 2.484375 -2.859375 C 2.96875 -2.859375 3.03125 -2.484375 3.03125 -2.125 L 3.03125 -0.546875 C 3.03125 -0.25 2.953125 -0.25 2.5 -0.25 L 2.5 0 C 2.515625 0 3 -0.03125 3.296875 -0.03125 C 3.546875 -0.03125 4.03125 0 4.09375 0 L 4.09375 -0.25 C 3.640625 -0.25 3.578125 -0.25 3.578125 -0.546875 Z M 3.578125 -2.109375 "/>
</g>
</g>
<clipPath id="clip-0">
<path clip-rule="nonzero" d="M 319 27 L 366.519531 27 L 366.519531 82 L 319 82 Z M 319 27 "/>
</clipPath>
</defs>
<path fill-rule="nonzero" fill="rgb(89.99939%, 94.468689%, 96.97876%)" fill-opacity="1" stroke-width="0.79701" stroke-linecap="butt" stroke-linejoin="miter" stroke="rgb(0%, 44.706726%, 69.802856%)" stroke-opacity="1" stroke-miterlimit="10" d="M 39.975723 52.441515 L -39.977945 52.441515 C -40.80225 52.441515 -41.469545 51.774221 -41.469545 50.94599 L -41.469545 22.754756 C -41.469545 21.930451 -40.80225 21.259232 -39.977945 21.259232 L 39.975723 21.259232 C 40.800028 21.259232 41.471248 21.930451 41.471248 22.754756 L 41.471248 50.94599 C 41.471248 51.774221 40.800028 52.441515 39.975723 52.441515 Z M 39.975723 52.441515 " transform="matrix(0.995156, 0, 0, -0.995156, 79.237434, 54.566417)"/>
<g fill="rgb(0%, 0%, 0%)" fill-opacity="1">
<use xlink:href="#glyph-0-0" x="44.174092" y="15.04378"/>
<use xlink:href="#glyph-0-1" x="46.7216" y="15.04378"/>
<use xlink:href="#glyph-0-2" x="50.801183" y="15.04378"/>
<use xlink:href="#glyph-0-3" x="55.386697" y="15.04378"/>
<use xlink:href="#glyph-0-4" x="58.973731" y="15.04378"/>
<use xlink:href="#glyph-0-1" x="64.068748" y="15.04378"/>
<use xlink:href="#glyph-0-5" x="68.14833" y="15.04378"/>
</g>
<g fill="rgb(0%, 0%, 0%)" fill-opacity="1">
<use xlink:href="#glyph-0-6" x="76.303925" y="15.04378"/>
<use xlink:href="#glyph-0-7" x="80.379938" y="15.04378"/>
</g>
<g fill="rgb(0%, 0%, 0%)" fill-opacity="1">
<use xlink:href="#glyph-0-4" x="84.956529" y="15.04378"/>
</g>
<g fill="rgb(0%, 0%, 0%)" fill-opacity="1">
<use xlink:href="#glyph-0-8" x="89.801702" y="15.04378"/>
<use xlink:href="#glyph-0-3" x="93.368214" y="15.04378"/>
<use xlink:href="#glyph-0-7" x="96.955248" y="15.04378"/>
<use xlink:href="#glyph-0-0" x="101.540762" y="15.04378"/>
<use xlink:href="#glyph-0-0" x="104.088271" y="15.04378"/>
<use xlink:href="#glyph-0-1" x="106.635779" y="15.04378"/>
<use xlink:href="#glyph-0-3" x="110.715361" y="15.04378"/>
</g>
<g fill="rgb(0%, 0%, 0%)" fill-opacity="1">
<use xlink:href="#glyph-1-0" x="54.888942" y="24.958523"/>
<use xlink:href="#glyph-1-1" x="58.166236" y="24.958523"/>
<use xlink:href="#glyph-1-2" x="62.848198" y="24.958523"/>
<use xlink:href="#glyph-1-3" x="67.062202" y="24.958523"/>
<use xlink:href="#glyph-1-2" x="70.339496" y="24.958523"/>
<use xlink:href="#glyph-1-4" x="74.5535" y="24.958523"/>
<use xlink:href="#glyph-1-1" x="77.362836" y="24.958523"/>
<use xlink:href="#glyph-1-5" x="82.044798" y="24.958523"/>
<use xlink:href="#glyph-1-6" x="85.329231" y="24.958523"/>
<use xlink:href="#glyph-1-7" x="87.669815" y="24.958523"/>
</g>
<g fill="rgb(0%, 0%, 0%)" fill-opacity="1">
<use xlink:href="#glyph-1-8" x="91.879854" y="24.958523"/>
<use xlink:href="#glyph-1-9" x="95.625106" y="24.958523"/>
<use xlink:href="#glyph-1-10" x="100.307068" y="24.958523"/>
</g>
<path fill-rule="nonzero" fill="rgb(89.99939%, 96.195984%, 94.509888%)" fill-opacity="1" stroke-width="0.79701" stroke-linecap="butt" stroke-linejoin="miter" stroke="rgb(0%, 61.959839%, 45.095825%)" stroke-opacity="1" stroke-miterlimit="10" d="M 35.442045 -21.25921 L -35.444267 -21.25921 C -36.268572 -21.25921 -36.939792 -21.93043 -36.939792 -22.754735 L -36.939792 -50.945969 C -36.939792 -51.774199 -36.268572 -52.441494 -35.444267 -52.441494 L 35.442045 -52.441494 C 36.270275 -52.441494 36.93757 -51.774199 36.93757 -50.945969 L 36.93757 -22.754735 C 36.93757 -21.93043 36.270275 -21.25921 35.442045 -21.25921 Z M 35.442045 -21.25921 " transform="matrix(0.995156, 0, 0, -0.995156, 79.237434, 54.566417)"/>
<g fill="rgb(0%, 0%, 0%)" fill-opacity="1">
<use xlink:href="#glyph-0-9" x="51.166061" y="88.387803"/>
<use xlink:href="#glyph-0-2" x="54.783434" y="88.387803"/>
<use xlink:href="#glyph-0-10" x="59.368948" y="88.387803"/>
<use xlink:href="#glyph-0-1" x="62.170761" y="88.387803"/>
</g>
<g fill="rgb(0%, 0%, 0%)" fill-opacity="1">
<use xlink:href="#glyph-0-6" x="69.310922" y="88.387803"/>
<use xlink:href="#glyph-0-7" x="73.386935" y="88.387803"/>
<use xlink:href="#glyph-0-4" x="77.97245" y="88.387803"/>
</g>
<g fill="rgb(0%, 0%, 0%)" fill-opacity="1">
<use xlink:href="#glyph-0-8" x="82.8087" y="88.387803"/>
<use xlink:href="#glyph-0-3" x="86.375211" y="88.387803"/>
<use xlink:href="#glyph-0-7" x="89.962245" y="88.387803"/>
<use xlink:href="#glyph-0-0" x="94.54776" y="88.387803"/>
<use xlink:href="#glyph-0-0" x="97.095268" y="88.387803"/>
<use xlink:href="#glyph-0-1" x="99.642776" y="88.387803"/>
<use xlink:href="#glyph-0-3" x="103.722358" y="88.387803"/>
</g>
<g fill="rgb(0%, 0%, 0%)" fill-opacity="1">
<use xlink:href="#glyph-1-0" x="48.685136" y="98.301552"/>
<use xlink:href="#glyph-1-11" x="51.962431" y="98.301552"/>
<use xlink:href="#glyph-1-12" x="58.984977" y="98.301552"/>
</g>
<g fill="rgb(0%, 0%, 0%)" fill-opacity="1">
<use xlink:href="#glyph-1-1" x="63.436926" y="98.301552"/>
</g>
<g fill="rgb(0%, 0%, 0%)" fill-opacity="1">
<use xlink:href="#glyph-1-8" x="68.110957" y="98.301552"/>
</g>
<g fill="rgb(0%, 0%, 0%)" fill-opacity="1">
<use xlink:href="#glyph-1-13" x="71.864141" y="98.301552"/>
<use xlink:href="#glyph-1-4" x="74.204726" y="98.301552"/>
<use xlink:href="#glyph-1-14" x="77.014061" y="98.301552"/>
<use xlink:href="#glyph-1-8" x="80.759314" y="98.301552"/>
<use xlink:href="#glyph-1-5" x="84.504567" y="98.301552"/>
<use xlink:href="#glyph-1-3" x="87.788999" y="98.301552"/>
<use xlink:href="#glyph-1-6" x="91.066293" y="98.301552"/>
<use xlink:href="#glyph-1-15" x="93.406878" y="98.301552"/>
<use xlink:href="#glyph-1-8" x="98.08884" y="98.301552"/>
<use xlink:href="#glyph-1-1" x="101.834093" y="98.301552"/>
<use xlink:href="#glyph-1-10" x="106.516055" y="98.301552"/>
</g>
<path fill-rule="nonzero" fill="rgb(98.353577%, 93.685913%, 89.99939%)" fill-opacity="1" stroke-width="0.79701" stroke-linecap="butt" stroke-linejoin="miter" stroke="rgb(83.529663%, 36.863708%, 0%)" stroke-opacity="1" stroke-miterlimit="10" d="M 188.429143 51.024496 L 112.047464 51.024496 C 111.223159 51.024496 110.551939 50.353276 110.551939 49.528971 L 110.551939 -49.528949 C 110.551939 -50.353254 111.223159 -51.024474 112.047464 -51.024474 L 188.429143 -51.024474 C 189.253448 -51.024474 189.924668 -50.353254 189.924668 -49.528949 L 189.924668 49.528971 C 189.924668 50.353276 189.253448 51.024496 188.429143 51.024496 Z M 188.429143 51.024496 " transform="matrix(0.995156, 0, 0, -0.995156, 79.237434, 54.566417)"/>
<g fill="rgb(83.529663%, 36.863708%, 0%)" fill-opacity="1">
<use xlink:href="#glyph-2-0" x="194.715385" y="14.660644"/>
<use xlink:href="#glyph-2-1" x="200.113562" y="14.660644"/>
<use xlink:href="#glyph-2-2" x="204.563924" y="14.660644"/>
<use xlink:href="#glyph-2-3" x="208.881831" y="14.660644"/>
<use xlink:href="#glyph-2-4" x="211.580919" y="14.660644"/>
<use xlink:href="#glyph-2-3" x="215.413418" y="14.660644"/>
<use xlink:href="#glyph-2-5" x="218.112506" y="14.660644"/>
<use xlink:href="#glyph-2-6" x="222.970547" y="14.660644"/>
</g>
<g fill="rgb(83.529663%, 36.863708%, 0%)" fill-opacity="1">
<use xlink:href="#glyph-2-7" x="231.604774" y="14.660644"/>
<use xlink:href="#glyph-2-5" x="239.701246" y="14.660644"/>
</g>
<g fill="rgb(83.529663%, 36.863708%, 0%)" fill-opacity="1">
<use xlink:href="#glyph-2-0" x="244.828958" y="14.660644"/>
<use xlink:href="#glyph-2-8" x="250.227134" y="14.660644"/>
<use xlink:href="#glyph-2-9" x="255.625311" y="14.660644"/>
<use xlink:href="#glyph-2-1" x="258.324399" y="14.660644"/>
</g>
<path fill="none" stroke-width="0.49814" stroke-linecap="butt" stroke-linejoin="miter" stroke="rgb(33.332825%, 33.332825%, 33.332825%)" stroke-opacity="1" stroke-miterlimit="10" d="M 110.155488 36.850373 L 121.491645 36.850373 " transform="matrix(0.995156, 0, 0, -0.995156, 79.237434, 54.566417)"/>
<path fill="none" stroke-width="0.49814" stroke-linecap="butt" stroke-linejoin="miter" stroke="rgb(33.332825%, 33.332825%, 33.332825%)" stroke-opacity="1" stroke-miterlimit="10" d="M 110.155488 -36.850352 L 121.491645 -36.850352 " transform="matrix(0.995156, 0, 0, -0.995156, 79.237434, 54.566417)"/>
<path fill="none" stroke-width="0.49814" stroke-linecap="butt" stroke-linejoin="miter" stroke="rgb(33.332825%, 33.332825%, 33.332825%)" stroke-opacity="1" stroke-miterlimit="10" d="M 178.984962 0.0000108753 L 190.32112 0.0000108753 " transform="matrix(0.995156, 0, 0, -0.995156, 79.237434, 54.566417)"/>
<path fill="none" stroke-width="1.0959" stroke-linecap="butt" stroke-linejoin="miter" stroke="rgb(33.332825%, 33.332825%, 33.332825%)" stroke-opacity="1" stroke-miterlimit="10" d="M 178.984962 0.0000108753 L 121.491645 36.850373 " transform="matrix(0.995156, 0, 0, -0.995156, 79.237434, 54.566417)"/>
<path fill="none" stroke-width="0.69739" stroke-linecap="butt" stroke-linejoin="miter" stroke="rgb(83.529663%, 36.863708%, 0%)" stroke-opacity="1" stroke-dasharray="2.98883 2.98883" stroke-miterlimit="10" d="M 154.836748 15.47732 C 134.711929 7.976144 123.838952 -11.190912 127.089069 -28.834966 " transform="matrix(0.995156, 0, 0, -0.995156, 79.237434, 54.566417)"/>
<path fill-rule="nonzero" fill="rgb(83.529663%, 36.863708%, 0%)" fill-opacity="1" stroke-width="0.69739" stroke-linecap="butt" stroke-linejoin="miter" stroke="rgb(83.529663%, 36.863708%, 0%)" stroke-opacity="1" stroke-miterlimit="10" d="M 4.676634 -0.0010176 L 1.124455 1.343805 L 2.305988 0.000574125 L 1.124595 -1.342487 Z M 4.676634 -0.0010176 " transform="matrix(0.180263, 0.978647, 0.978647, -0.180263, 205.325942, 81.17695)"/>
<path fill-rule="nonzero" fill="rgb(100%, 100%, 100%)" fill-opacity="1" stroke-width="0.69739" stroke-linecap="butt" stroke-linejoin="miter" stroke="rgb(33.332825%, 33.332825%, 33.332825%)" stroke-opacity="1" stroke-miterlimit="10" d="M 123.085302 36.850373 C 123.085302 37.729632 122.374829 38.44403 121.491645 38.44403 C 120.612386 38.44403 119.897989 37.729632 119.897989 36.850373 C 119.897989 35.971115 120.612386 35.256717 121.491645 35.256717 C 122.374829 35.256717 123.085302 35.971115 123.085302 36.850373 Z M 123.085302 36.850373 " transform="matrix(0.995156, 0, 0, -0.995156, 79.237434, 54.566417)"/>
<path fill-rule="nonzero" fill="rgb(100%, 100%, 100%)" fill-opacity="1" stroke-width="0.69739" stroke-linecap="butt" stroke-linejoin="miter" stroke="rgb(33.332825%, 33.332825%, 33.332825%)" stroke-opacity="1" stroke-miterlimit="10" d="M 123.085302 -36.850352 C 123.085302 -35.971093 122.374829 -35.256695 121.491645 -35.256695 C 120.612386 -35.256695 119.897989 -35.971093 119.897989 -36.850352 C 119.897989 -37.72961 120.612386 -38.444008 121.491645 -38.444008 C 122.374829 -38.444008 123.085302 -37.72961 123.085302 -36.850352 Z M 123.085302 -36.850352 " transform="matrix(0.995156, 0, 0, -0.995156, 79.237434, 54.566417)"/>
<path fill-rule="nonzero" fill="rgb(33.332825%, 33.332825%, 33.332825%)" fill-opacity="1" d="M 259.039062 54.566406 C 259.039062 53.636719 258.285156 52.882812 257.355469 52.882812 C 256.421875 52.882812 255.667969 53.636719 255.667969 54.566406 C 255.667969 55.496094 256.421875 56.25 257.355469 56.25 C 258.285156 56.25 259.039062 55.496094 259.039062 54.566406 Z M 259.039062 54.566406 "/>
<path fill-rule="nonzero" fill="rgb(89.99939%, 89.99939%, 89.99939%)" fill-opacity="1" d="M 362.65625 39.050781 L 332.582031 39.050781 C 331.761719 39.050781 331.09375 39.71875 331.09375 40.539062 L 331.09375 68.59375 C 331.09375 69.414062 331.761719 70.082031 332.582031 70.082031 L 362.65625 70.082031 C 363.476562 70.082031 364.140625 69.414062 364.140625 68.59375 L 364.140625 40.539062 C 364.140625 39.71875 363.476562 39.050781 362.65625 39.050781 Z M 362.65625 39.050781 "/>
<g clip-path="url(#clip-0)">
<path fill="none" stroke-width="0.79701" stroke-linecap="butt" stroke-linejoin="miter" stroke="rgb(33.332825%, 33.332825%, 33.332825%)" stroke-opacity="1" stroke-miterlimit="10" d="M 284.798258 15.591153 L 254.577664 15.591153 C 253.753358 15.591153 253.082139 14.919933 253.082139 14.095628 L 253.082139 -14.095606 C 253.082139 -14.919911 253.753358 -15.591131 254.577664 -15.591131 L 284.798258 -15.591131 C 285.622563 -15.591131 286.289858 -14.919911 286.289858 -14.095606 L 286.289858 14.095628 C 286.289858 14.919933 285.622563 15.591153 284.798258 15.591153 Z M 284.798258 15.591153 " transform="matrix(0.995156, 0, 0, -0.995156, 79.237434, 54.566417)"/>
</g>
<g fill="rgb(0%, 0%, 0%)" fill-opacity="1">
<use xlink:href="#glyph-0-11" x="337.298412" y="56.796563"/>
<use xlink:href="#glyph-0-0" x="342.393429" y="56.796563"/>
<use xlink:href="#glyph-0-2" x="344.940937" y="56.796563"/>
<use xlink:href="#glyph-0-4" x="349.526451" y="56.796563"/>
</g>
<g fill="rgb(0%, 0%, 0%)" fill-opacity="1">
<use xlink:href="#glyph-0-8" x="354.362701" y="56.796563"/>
</g>
<path fill="none" stroke-width="0.79701" stroke-linecap="butt" stroke-linejoin="miter" stroke="rgb(0%, 0%, 0%)" stroke-opacity="1" stroke-miterlimit="10" d="M 41.867699 36.850373 L 106.654154 36.850373 " transform="matrix(0.995156, 0, 0, -0.995156, 79.237434, 54.566417)"/>
<path fill-rule="nonzero" fill="rgb(0%, 0%, 0%)" fill-opacity="1" stroke-width="0.79701" stroke-linecap="butt" stroke-linejoin="miter" stroke="rgb(0%, 0%, 0%)" stroke-opacity="1" stroke-miterlimit="10" d="M 4.536317 -0.000546615 L 1.2862 1.231986 L 2.369572 -0.000546615 L 1.2862 -1.229154 Z M 4.536317 -0.000546615 " transform="matrix(0.995156, 0, 0, -0.995156, 183.216124, 17.893987)"/>
<g fill="rgb(0%, 0%, 0%)" fill-opacity="1">
<use xlink:href="#glyph-3-0" x="144.462971" y="12.793731"/>
</g>
<g fill="rgb(0%, 0%, 0%)" fill-opacity="1">
<use xlink:href="#glyph-4-0" x="148.939185" y="14.192921"/>
<use xlink:href="#glyph-4-1" x="151.031919" y="14.192921"/>
<use xlink:href="#glyph-4-2" x="154.281665" y="14.192921"/>
<use xlink:href="#glyph-4-3" x="157.916883" y="14.192921"/>
<use xlink:href="#glyph-4-4" x="160.781157" y="14.192921"/>
</g>
<path fill="none" stroke-width="0.79701" stroke-linecap="butt" stroke-linejoin="miter" stroke="rgb(0%, 0%, 0%)" stroke-opacity="1" stroke-miterlimit="10" d="M 37.337947 -36.850352 L 106.654154 -36.850352 " transform="matrix(0.995156, 0, 0, -0.995156, 79.237434, 54.566417)"/>
<path fill-rule="nonzero" fill="rgb(0%, 0%, 0%)" fill-opacity="1" stroke-width="0.79701" stroke-linecap="butt" stroke-linejoin="miter" stroke="rgb(0%, 0%, 0%)" stroke-opacity="1" stroke-miterlimit="10" d="M 4.536317 0.000568365 L 1.2862 1.229175 L 2.369572 0.000568365 L 1.2862 -1.231964 Z M 4.536317 0.000568365 " transform="matrix(0.995156, 0, 0, -0.995156, 183.216124, 91.238847)"/>
<g fill="rgb(0%, 0%, 0%)" fill-opacity="1">
<use xlink:href="#glyph-3-0" x="144.10173" y="86.137755"/>
</g>
<g fill="rgb(0%, 0%, 0%)" fill-opacity="1">
<use xlink:href="#glyph-4-5" x="148.577943" y="87.536945"/>
<use xlink:href="#glyph-4-2" x="151.480883" y="87.536945"/>
<use xlink:href="#glyph-4-6" x="155.116101" y="87.536945"/>
<use xlink:href="#glyph-4-1" x="157.402166" y="87.536945"/>
</g>
<path fill="none" stroke-width="0.79701" stroke-linecap="butt" stroke-linejoin="miter" stroke="rgb(0%, 0%, 0%)" stroke-opacity="1" stroke-miterlimit="10" d="M 190.32112 0.0000108753 L 249.188278 0.0000108753 " transform="matrix(0.995156, 0, 0, -0.995156, 79.237434, 54.566417)"/>
<path fill-rule="nonzero" fill="rgb(0%, 0%, 0%)" fill-opacity="1" stroke-width="0.79701" stroke-linecap="butt" stroke-linejoin="miter" stroke="rgb(0%, 0%, 0%)" stroke-opacity="1" stroke-miterlimit="10" d="M 4.535436 0.0000108753 L 1.285319 1.232543 L 2.368691 0.0000108753 L 1.285319 -1.232521 Z M 4.535436 0.0000108753 " transform="matrix(0.995156, 0, 0, -0.995156, 325.056844, 54.566417)"/>
<g fill="rgb(0%, 0%, 0%)" fill-opacity="1">
<use xlink:href="#glyph-1-2" x="284.786993" y="50.86543"/>
<use xlink:href="#glyph-1-14" x="289.000997" y="50.86543"/>
<use xlink:href="#glyph-1-3" x="292.74625" y="50.86543"/>
<use xlink:href="#glyph-1-6" x="296.023544" y="50.86543"/>
<use xlink:href="#glyph-1-12" x="298.364129" y="50.86543"/>
<use xlink:href="#glyph-1-9" x="302.578133" y="50.86543"/>
</g>
<g fill="rgb(0%, 0%, 0%)" fill-opacity="1">
<use xlink:href="#glyph-3-0" x="310.067844" y="50.86543"/>
</g>
<path fill="none" stroke-width="0.79701" stroke-linecap="butt" stroke-linejoin="miter" stroke="rgb(0%, 0%, 0%)" stroke-opacity="1" stroke-miterlimit="10" d="M 269.685998 -15.987582 L 269.685998 -106.300018 L -76.537838 -106.300018 " transform="matrix(0.995156, 0, 0, -0.995156, 79.237434, 54.566417)"/>
<g fill="rgb(0%, 0%, 0%)" fill-opacity="1">
<use xlink:href="#glyph-1-16" x="132.607673" y="169.999587"/>
<use xlink:href="#glyph-1-3" x="135.931763" y="169.999587"/>
<use xlink:href="#glyph-1-2" x="139.209057" y="169.999587"/>
<use xlink:href="#glyph-1-3" x="143.423061" y="169.999587"/>
<use xlink:href="#glyph-1-8" x="146.700355" y="169.999587"/>
</g>
<g fill="rgb(0%, 0%, 0%)" fill-opacity="1">
<use xlink:href="#glyph-1-17" x="153.253358" y="169.999587"/>
</g>
<g fill="rgb(0%, 0%, 0%)" fill-opacity="1">
<use xlink:href="#glyph-1-16" x="160.275111" y="169.999587"/>
<use xlink:href="#glyph-1-8" x="163.599201" y="169.999587"/>
<use xlink:href="#glyph-1-9" x="167.344454" y="169.999587"/>
<use xlink:href="#glyph-1-16" x="172.026416" y="169.999587"/>
<use xlink:href="#glyph-1-12" x="175.350506" y="169.999587"/>
<use xlink:href="#glyph-1-5" x="179.56451" y="169.999587"/>
</g>
<g fill="rgb(0%, 0%, 0%)" fill-opacity="1">
<use xlink:href="#glyph-1-16" x="185.656692" y="169.999587"/>
<use xlink:href="#glyph-1-3" x="188.980782" y="169.999587"/>
<use xlink:href="#glyph-1-5" x="192.258077" y="169.999587"/>
<use xlink:href="#glyph-1-8" x="195.542509" y="169.999587"/>
<use xlink:href="#glyph-1-2" x="199.287762" y="169.999587"/>
<use xlink:href="#glyph-1-11" x="203.501766" y="169.999587"/>
</g>
<g fill="rgb(0%, 0%, 0%)" fill-opacity="1">
<use xlink:href="#glyph-3-1" x="213.339993" y="169.999587"/>
</g>
<path fill="none" stroke-width="0.79701" stroke-linecap="butt" stroke-linejoin="miter" stroke="rgb(0%, 0%, 0%)" stroke-opacity="1" stroke-miterlimit="10" d="M -76.537838 -106.300018 L -76.537838 36.850373 L -45.36733 36.850373 " transform="matrix(0.995156, 0, 0, -0.995156, 79.237434, 54.566417)"/>
<path fill-rule="nonzero" fill="rgb(0%, 0%, 0%)" fill-opacity="1" stroke-width="0.79701" stroke-linecap="butt" stroke-linejoin="miter" stroke="rgb(0%, 0%, 0%)" stroke-opacity="1" stroke-miterlimit="10" d="M 4.534188 -0.000546615 L 1.287996 1.231986 L 2.371368 -0.000546615 L 1.287996 -1.229154 Z M 4.534188 -0.000546615 " transform="matrix(0.995156, 0, 0, -0.995156, 31.92918, 17.893987)"/>
<path fill="none" stroke-width="0.79701" stroke-linecap="butt" stroke-linejoin="miter" stroke="rgb(0%, 0%, 0%)" stroke-opacity="1" stroke-miterlimit="10" d="M -76.537838 -106.300018 L -76.537838 -36.850352 L -40.833652 -36.850352 " transform="matrix(0.995156, 0, 0, -0.995156, 79.237434, 54.566417)"/>
<path fill-rule="nonzero" fill="rgb(0%, 0%, 0%)" fill-opacity="1" stroke-width="0.79701" stroke-linecap="butt" stroke-linejoin="miter" stroke="rgb(0%, 0%, 0%)" stroke-opacity="1" stroke-miterlimit="10" d="M 4.535156 0.000568365 L 1.285039 1.229175 L 2.368411 0.000568365 L 1.285039 -1.231964 Z M 4.535156 0.000568365 " transform="matrix(0.995156, 0, 0, -0.995156, 36.439936, 91.238847)"/>
<path fill-rule="nonzero" fill="rgb(33.332825%, 33.332825%, 33.332825%)" fill-opacity="1" d="M 246.863281 160.351562 C 246.863281 159.695312 246.332031 159.164062 245.671875 159.164062 C 245.015625 159.164062 244.484375 159.695312 244.484375 160.351562 C 244.484375 161.007812 245.015625 161.542969 245.671875 161.542969 C 246.332031 161.542969 246.863281 161.007812 246.863281 160.351562 Z M 246.863281 160.351562 "/>
<path fill="none" stroke-width="0.79701" stroke-linecap="butt" stroke-linejoin="miter" stroke="rgb(33.332825%, 33.332825%, 33.332825%)" stroke-opacity="1" stroke-dasharray="2.98883 2.98883" stroke-miterlimit="10" d="M 167.244503 -106.300018 L 167.244503 -54.521883 " transform="matrix(0.995156, 0, 0, -0.995156, 79.237434, 54.566417)"/>
<path fill-rule="nonzero" fill="rgb(33.332825%, 33.332825%, 33.332825%)" fill-opacity="1" stroke-width="0.79701" stroke-linecap="butt" stroke-linejoin="miter" stroke="rgb(33.332825%, 33.332825%, 33.332825%)" stroke-opacity="1" stroke-miterlimit="10" d="M 4.534805 0.00148748 L 1.288613 1.230095 L 2.368061 0.00148748 L 1.288613 -1.231045 Z M 4.534805 0.00148748 " transform="matrix(0, -0.995156, -0.995156, 0, 245.673355, 110.985497)"/>
<g fill="rgb(33.332825%, 33.332825%, 33.332825%)" fill-opacity="1">
<use xlink:href="#glyph-5-0" x="253.405731" y="129.835073"/>
<use xlink:href="#glyph-5-1" x="256.546785" y="129.835073"/>
<use xlink:href="#glyph-5-2" x="259.64481" y="129.835073"/>
<use xlink:href="#glyph-5-1" x="263.597153" y="129.835073"/>
<use xlink:href="#glyph-5-3" x="266.695179" y="129.835073"/>
</g>
<g fill="rgb(33.332825%, 33.332825%, 33.332825%)" fill-opacity="1">
<use xlink:href="#glyph-5-4" x="272.891924" y="129.835073"/>
<use xlink:href="#glyph-5-5" x="275.136327" y="129.835073"/>
</g>
<g fill="rgb(33.332825%, 33.332825%, 33.332825%)" fill-opacity="1">
<use xlink:href="#glyph-5-6" x="253.405731" y="137.76647"/>
<use xlink:href="#glyph-5-3" x="256.503756" y="137.76647"/>
<use xlink:href="#glyph-5-7" x="260.028594" y="137.76647"/>
<use xlink:href="#glyph-5-8" x="263.553431" y="137.76647"/>
</g>
<g fill="rgb(33.332825%, 33.332825%, 33.332825%)" fill-opacity="1">
<use xlink:href="#glyph-5-9" x="267.290632" y="137.76647"/>
</g>
<g fill="rgb(33.332825%, 33.332825%, 33.332825%)" fill-opacity="1">
<use xlink:href="#glyph-5-3" x="271.247833" y="137.76647"/>
<use xlink:href="#glyph-5-6" x="274.77267" y="137.76647"/>
<use xlink:href="#glyph-5-2" x="277.870696" y="137.76647"/>
<use xlink:href="#glyph-5-10" x="281.823038" y="137.76647"/>
<use xlink:href="#glyph-5-11" x="286.202192" y="137.76647"/>
<use xlink:href="#glyph-5-3" x="288.446595" y="137.76647"/>
</g>
<g fill="rgb(33.332825%, 33.332825%, 33.332825%)" fill-opacity="1">
<use xlink:href="#glyph-5-6" x="294.643341" y="137.76647"/>
<use xlink:href="#glyph-5-3" x="297.741366" y="137.76647"/>
<use xlink:href="#glyph-5-12" x="301.266203" y="137.76647"/>
<use xlink:href="#glyph-5-4" x="305.218546" y="137.76647"/>
<use xlink:href="#glyph-5-8" x="307.462949" y="137.76647"/>
<use xlink:href="#glyph-5-5" x="311.415291" y="137.76647"/>
<use xlink:href="#glyph-5-13" x="315.794445" y="137.76647"/>
</g>
<path fill-rule="nonzero" fill="rgb(33.332825%, 33.332825%, 33.332825%)" fill-opacity="1" d="M 134.023438 160.351562 C 134.023438 159.695312 133.492188 159.164062 132.835938 159.164062 C 132.179688 159.164062 131.644531 159.695312 131.644531 160.351562 C 131.644531 161.007812 132.179688 161.542969 132.835938 161.542969 C 133.492188 161.542969 134.023438 161.007812 134.023438 160.351562 Z M 134.023438 160.351562 "/>
<path fill-rule="nonzero" fill="rgb(89.99939%, 89.99939%, 89.99939%)" fill-opacity="1" stroke-width="0.79701" stroke-linecap="butt" stroke-linejoin="miter" stroke="rgb(83.529663%, 36.863708%, 0%)" stroke-opacity="1" stroke-miterlimit="10" d="M 82.717904 -69.449655 L 25.000847 -69.449655 C 24.172617 -69.449655 23.505322 -70.11695 23.505322 -70.94518 L 23.505322 -84.962292 C 23.505322 -85.790522 24.172617 -86.457817 25.000847 -86.457817 L 82.717904 -86.457817 C 83.542209 -86.457817 84.213429 -85.790522 84.213429 -84.962292 L 84.213429 -70.94518 C 84.213429 -70.11695 83.542209 -69.449655 82.717904 -69.449655 Z M 82.717904 -69.449655 " transform="matrix(0.995156, 0, 0, -0.995156, 79.237434, 54.566417)"/>
<g fill="rgb(0%, 0%, 0%)" fill-opacity="1">
<use xlink:href="#glyph-1-18" x="107.14162" y="134.850662"/>
<use xlink:href="#glyph-1-18" x="113.696208" y="134.850662"/>
<use xlink:href="#glyph-1-19" x="120.250797" y="134.850662"/>
</g>
<g fill="rgb(0%, 0%, 0%)" fill-opacity="1">
<use xlink:href="#glyph-1-11" x="129.491783" y="134.850662"/>
<use xlink:href="#glyph-1-12" x="136.51433" y="134.850662"/>
<use xlink:href="#glyph-1-9" x="140.728334" y="134.850662"/>
<use xlink:href="#glyph-1-6" x="145.410296" y="134.850662"/>
<use xlink:href="#glyph-1-3" x="147.750881" y="134.850662"/>
<use xlink:href="#glyph-1-12" x="151.028175" y="134.850662"/>
<use xlink:href="#glyph-1-5" x="155.242179" y="134.850662"/>
</g>
<path fill="none" stroke-width="0.79701" stroke-linecap="butt" stroke-linejoin="miter" stroke="rgb(33.332825%, 33.332825%, 33.332825%)" stroke-opacity="1" stroke-miterlimit="10" d="M 53.859376 -106.300018 L 53.859376 -86.858193 " transform="matrix(0.995156, 0, 0, -0.995156, 79.237434, 54.566417)"/>
<path fill="none" stroke-width="0.79701" stroke-linecap="butt" stroke-linejoin="miter" stroke="rgb(83.529663%, 36.863708%, 0%)" stroke-opacity="1" stroke-dasharray="2.98883 2.98883" stroke-miterlimit="10" d="M 53.859376 -69.049278 L 53.859376 -61.96418 L 127.560101 -61.96418 L 127.560101 -54.521883 " transform="matrix(0.995156, 0, 0, -0.995156, 79.237434, 54.566417)"/>
<path fill-rule="nonzero" fill="rgb(83.529663%, 36.863708%, 0%)" fill-opacity="1" stroke-width="0.79701" stroke-linecap="butt" stroke-linejoin="miter" stroke="rgb(83.529663%, 36.863708%, 0%)" stroke-opacity="1" stroke-miterlimit="10" d="M 4.534805 0.000519376 L 1.288613 1.229126 L 2.368061 0.000519376 L 1.288613 -1.232013 Z M 4.534805 0.000519376 " transform="matrix(0, -0.995156, -0.995156, 0, 206.180204, 110.985497)"/>
<g fill="rgb(83.529663%, 36.863708%, 0%)" fill-opacity="1">
<use xlink:href="#glyph-5-4" x="165.957355" y="136.231939"/>
<use xlink:href="#glyph-5-5" x="168.201758" y="136.231939"/>
<use xlink:href="#glyph-5-14" x="172.580912" y="136.231939"/>
<use xlink:href="#glyph-5-15" x="176.960066" y="136.231939"/>
<use xlink:href="#glyph-5-1" x="181.339219" y="136.231939"/>
</g>
<g fill="rgb(83.529663%, 36.863708%, 0%)" fill-opacity="1">
<use xlink:href="#glyph-5-4" x="187.109154" y="136.231939"/>
<use xlink:href="#glyph-5-5" x="189.353557" y="136.231939"/>
<use xlink:href="#glyph-5-16" x="193.732711" y="136.231939"/>
<use xlink:href="#glyph-5-17" x="196.403925" y="136.231939"/>
<use xlink:href="#glyph-5-4" x="200.783079" y="136.231939"/>
<use xlink:href="#glyph-5-0" x="203.027482" y="136.231939"/>
<use xlink:href="#glyph-5-1" x="206.168536" y="136.231939"/>
<use xlink:href="#glyph-5-6" x="209.266561" y="136.231939"/>
<use xlink:href="#glyph-5-4" x="212.364587" y="136.231939"/>
<use xlink:href="#glyph-5-10" x="214.60899" y="136.231939"/>
<use xlink:href="#glyph-5-15" x="218.988144" y="136.231939"/>
<use xlink:href="#glyph-5-1" x="223.367298" y="136.231939"/>
<use xlink:href="#glyph-5-4" x="226.465324" y="136.231939"/>
<use xlink:href="#glyph-5-8" x="228.709727" y="136.231939"/>
<use xlink:href="#glyph-5-5" x="232.662069" y="136.231939"/>
<use xlink:href="#glyph-5-13" x="237.041223" y="136.231939"/>
</g>
<g fill="rgb(83.529663%, 36.863708%, 0%)" fill-opacity="1">
<use xlink:href="#glyph-5-6" x="287.256972" y="96.73418"/>
<use xlink:href="#glyph-5-3" x="290.354997" y="96.73418"/>
<use xlink:href="#glyph-5-9" x="293.879834" y="96.73418"/>
</g>
<g fill="rgb(83.529663%, 36.863708%, 0%)" fill-opacity="1">
<use xlink:href="#glyph-5-3" x="297.830095" y="96.73418"/>
<use xlink:href="#glyph-5-6" x="301.354932" y="96.73418"/>
<use xlink:href="#glyph-5-1" x="304.452958" y="96.73418"/>
</g>
<g fill="rgb(83.529663%, 36.863708%, 0%)" fill-opacity="1">
<use xlink:href="#glyph-5-18" x="310.222892" y="96.73418"/>
<use xlink:href="#glyph-5-19" x="315.88248" y="96.73418"/>
<use xlink:href="#glyph-5-4" x="320.261634" y="96.73418"/>
<use xlink:href="#glyph-5-11" x="322.506037" y="96.73418"/>
<use xlink:href="#glyph-5-3" x="324.75044" y="96.73418"/>
</g>
<g fill="rgb(83.529663%, 36.863708%, 0%)" fill-opacity="1">
<use xlink:href="#glyph-5-0" x="330.947185" y="96.73418"/>
<use xlink:href="#glyph-5-1" x="334.088239" y="96.73418"/>
<use xlink:href="#glyph-5-2" x="337.186265" y="96.73418"/>
<use xlink:href="#glyph-5-1" x="341.138607" y="96.73418"/>
<use xlink:href="#glyph-5-3" x="344.236633" y="96.73418"/>
</g>
<g fill="rgb(83.529663%, 36.863708%, 0%)" fill-opacity="1">
<use xlink:href="#glyph-5-4" x="350.433379" y="96.73418"/>
<use xlink:href="#glyph-5-0" x="352.677782" y="96.73418"/>
</g>
<g fill="rgb(83.529663%, 36.863708%, 0%)" fill-opacity="1">
<use xlink:href="#glyph-5-0" x="287.256972" y="104.665577"/>
<use xlink:href="#glyph-5-1" x="290.398025" y="104.665577"/>
<use xlink:href="#glyph-5-4" x="293.496051" y="104.665577"/>
<use xlink:href="#glyph-5-11" x="295.740454" y="104.665577"/>
<use xlink:href="#glyph-5-11" x="297.984857" y="104.665577"/>
</g>
<g fill="rgb(83.529663%, 36.863708%, 0%)" fill-opacity="1">
<use xlink:href="#glyph-5-6" x="302.901169" y="104.665577"/>
<use xlink:href="#glyph-5-3" x="305.999195" y="104.665577"/>
<use xlink:href="#glyph-5-7" x="309.524032" y="104.665577"/>
<use xlink:href="#glyph-5-8" x="313.048869" y="104.665577"/>
</g>
<g fill="rgb(83.529663%, 36.863708%, 0%)" fill-opacity="1">
<use xlink:href="#glyph-5-9" x="316.786071" y="104.665577"/>
</g>
<g fill="rgb(83.529663%, 36.863708%, 0%)" fill-opacity="1">
<use xlink:href="#glyph-5-3" x="320.743271" y="104.665577"/>
<use xlink:href="#glyph-5-6" x="324.268108" y="104.665577"/>
<use xlink:href="#glyph-5-2" x="327.366134" y="104.665577"/>
<use xlink:href="#glyph-5-10" x="331.318476" y="104.665577"/>
<use xlink:href="#glyph-5-11" x="335.69763" y="104.665577"/>
<use xlink:href="#glyph-5-3" x="337.942033" y="104.665577"/>
</g>
<path fill="none" stroke-width="0.49814" stroke-linecap="butt" stroke-linejoin="miter" stroke="rgb(83.529663%, 36.863708%, 0%)" stroke-opacity="1" stroke-miterlimit="10" d="M 205.51581 -43.939375 L 134.248748 -35.433332 " transform="matrix(0.995156, 0, 0, -0.995156, 79.237434, 54.566417)"/>
</svg>
