<?xml version="1.0" encoding="UTF-8"?>
<svg xmlns="http://www.w3.org/2000/svg" xmlns:xlink="http://www.w3.org/1999/xlink" width="448.881pt" height="78.81pt" viewBox="0 0 448.881 78.81">
<defs>
<g>
<g id="glyph-0-0">
<path d="M 1.484375 -3.171875 L 2.671875 -3.171875 L 2.671875 -3.421875 L 1.484375 -3.421875 L 1.484375 -4.890625 L 1.234375 -4.890625 C 1.21875 -4.171875 0.90625 -3.40625 0.15625 -3.390625 L 0.15625 -3.171875 L 0.875 -3.171875 L 0.875 -1 C 0.875 -0.0625 1.59375 0.078125 1.953125 0.078125 C 2.484375 0.078125 2.8125 -0.390625 2.8125 -1 L 2.8125 -1.4375 L 2.5625 -1.4375 L 2.5625 -1.015625 C 2.5625 -0.46875 2.3125 -0.171875 2.015625 -0.171875 C 1.484375 -0.171875 1.484375 -0.84375 1.484375 -0.984375 Z M 1.484375 -3.171875 "/>
</g>
<g id="glyph-0-1">
<path d="M 1.46875 -1.8125 C 1.46875 -2.40625 1.703125 -3.265625 2.46875 -3.28125 C 2.421875 -3.25 2.34375 -3.1875 2.34375 -3 C 2.34375 -2.765625 2.53125 -2.640625 2.703125 -2.640625 C 2.890625 -2.640625 3.046875 -2.78125 3.046875 -3 C 3.046875 -3.28125 2.796875 -3.5 2.453125 -3.5 C 1.9375 -3.5 1.578125 -3.125 1.421875 -2.671875 L 1.40625 -2.671875 L 1.40625 -3.5 L 0.28125 -3.421875 L 0.28125 -3.15625 C 0.8125 -3.15625 0.875 -3.109375 0.875 -2.71875 L 0.875 -0.625 C 0.875 -0.265625 0.78125 -0.265625 0.28125 -0.265625 L 0.28125 0 C 0.59375 -0.03125 1.03125 -0.03125 1.21875 -0.03125 C 1.6875 -0.03125 1.703125 -0.03125 2.21875 0 L 2.21875 -0.265625 L 2.0625 -0.265625 C 1.484375 -0.265625 1.46875 -0.34375 1.46875 -0.640625 Z M 1.46875 -1.8125 "/>
</g>
<g id="glyph-0-2">
<path d="M 3.34375 -2.375 C 3.34375 -3.15625 2.578125 -3.546875 1.859375 -3.546875 C 1.203125 -3.546875 0.609375 -3.296875 0.609375 -2.765625 C 0.609375 -2.53125 0.78125 -2.390625 0.984375 -2.390625 C 1.203125 -2.390625 1.359375 -2.546875 1.359375 -2.765625 C 1.359375 -2.953125 1.234375 -3.078125 1.0625 -3.125 C 1.359375 -3.328125 1.796875 -3.328125 1.84375 -3.328125 C 2.296875 -3.328125 2.734375 -3.015625 2.734375 -2.359375 L 2.734375 -2.109375 C 2.28125 -2.09375 1.734375 -2.0625 1.1875 -1.84375 C 0.484375 -1.53125 0.34375 -1.078125 0.34375 -0.8125 C 0.34375 -0.125 1.15625 0.078125 1.703125 0.078125 C 2.28125 0.078125 2.640625 -0.25 2.8125 -0.5625 C 2.859375 -0.265625 3.0625 0.046875 3.40625 0.046875 C 3.484375 0.046875 4.171875 0.015625 4.171875 -0.71875 L 4.171875 -1.15625 L 3.921875 -1.15625 L 3.921875 -0.71875 C 3.921875 -0.390625 3.796875 -0.265625 3.640625 -0.265625 C 3.34375 -0.265625 3.34375 -0.625 3.34375 -0.71875 Z M 2.734375 -1.125 C 2.734375 -0.34375 2.078125 -0.140625 1.765625 -0.140625 C 1.359375 -0.140625 1 -0.421875 1 -0.796875 C 1 -1.328125 1.5 -1.875 2.734375 -1.90625 Z M 2.734375 -1.125 "/>
</g>
<g id="glyph-0-3">
<path d="M 1.546875 -4.90625 C 1.546875 -5.125 1.375 -5.34375 1.109375 -5.34375 C 0.875 -5.34375 0.671875 -5.15625 0.671875 -4.90625 C 0.671875 -4.625 0.90625 -4.46875 1.109375 -4.46875 C 1.390625 -4.46875 1.546875 -4.6875 1.546875 -4.90625 Z M 0.359375 -3.421875 L 0.359375 -3.15625 C 0.859375 -3.15625 0.9375 -3.109375 0.9375 -2.71875 L 0.9375 -0.625 C 0.9375 -0.265625 0.84375 -0.265625 0.328125 -0.265625 L 0.328125 0 C 0.640625 -0.03125 1.09375 -0.03125 1.203125 -0.03125 C 1.3125 -0.03125 1.796875 -0.03125 2.0625 0 L 2.0625 -0.265625 C 1.546875 -0.265625 1.515625 -0.296875 1.515625 -0.609375 L 1.515625 -3.5 Z M 0.359375 -3.421875 "/>
</g>
<g id="glyph-0-4">
<path d="M 3.859375 -2.40625 C 3.859375 -3.078125 3.5625 -3.5 2.734375 -3.5 C 1.9375 -3.5 1.578125 -2.9375 1.484375 -2.75 L 1.484375 -3.5 L 0.328125 -3.421875 L 0.328125 -3.15625 C 0.859375 -3.15625 0.9375 -3.109375 0.9375 -2.71875 L 0.9375 -0.625 C 0.9375 -0.265625 0.828125 -0.265625 0.328125 -0.265625 L 0.328125 0 C 0.671875 -0.03125 1.015625 -0.03125 1.234375 -0.03125 C 1.46875 -0.03125 1.796875 -0.03125 2.140625 0 L 2.140625 -0.265625 C 1.625 -0.265625 1.53125 -0.265625 1.53125 -0.625 L 1.53125 -2.0625 C 1.53125 -2.890625 2.171875 -3.28125 2.65625 -3.28125 C 3.140625 -3.28125 3.265625 -2.9375 3.265625 -2.4375 L 3.265625 -0.625 C 3.265625 -0.265625 3.171875 -0.265625 2.65625 -0.265625 L 2.65625 0 C 3 -0.03125 3.34375 -0.03125 3.5625 -0.03125 C 3.796875 -0.03125 4.125 -0.03125 4.46875 0 L 4.46875 -0.265625 C 3.953125 -0.265625 3.859375 -0.265625 3.859375 -0.625 Z M 3.859375 -2.40625 "/>
</g>
<g id="glyph-0-5">
<path d="M 3.28125 -1.8125 C 3.453125 -1.8125 3.5 -1.8125 3.5 -2 C 3.5 -2.703125 3.125 -3.546875 2 -3.546875 C 1.015625 -3.546875 0.234375 -2.734375 0.234375 -1.734375 C 0.234375 -0.71875 1.09375 0.078125 2.09375 0.078125 C 3.109375 0.078125 3.5 -0.765625 3.5 -0.953125 C 3.5 -0.984375 3.484375 -1.0625 3.375 -1.0625 C 3.296875 -1.0625 3.28125 -1.015625 3.265625 -0.96875 C 2.96875 -0.1875 2.296875 -0.171875 2.140625 -0.171875 C 1.796875 -0.171875 1.421875 -0.328125 1.1875 -0.703125 C 0.953125 -1.0625 0.953125 -1.578125 0.953125 -1.8125 Z M 0.953125 -2.015625 C 1.03125 -3.140625 1.703125 -3.328125 2 -3.328125 C 2.921875 -3.328125 2.953125 -2.203125 2.96875 -2.015625 Z M 0.953125 -2.015625 "/>
</g>
<g id="glyph-0-6">
<path d="M 2.609375 -5.4375 L 2.609375 -5.171875 C 3.15625 -5.171875 3.21875 -5.109375 3.21875 -4.71875 L 3.21875 -3.046875 C 2.9375 -3.34375 2.5625 -3.5 2.15625 -3.5 C 1.15625 -3.5 0.28125 -2.734375 0.28125 -1.703125 C 0.28125 -0.734375 1.078125 0.078125 2.078125 0.078125 C 2.546875 0.078125 2.9375 -0.140625 3.203125 -0.421875 L 3.203125 0.078125 L 4.40625 0 L 4.40625 -0.265625 C 3.859375 -0.265625 3.796875 -0.3125 3.796875 -0.703125 L 3.796875 -5.515625 Z M 3.203125 -0.984375 C 3.203125 -0.84375 3.203125 -0.8125 3.078125 -0.65625 C 2.859375 -0.328125 2.484375 -0.140625 2.109375 -0.140625 C 1.75 -0.140625 1.4375 -0.328125 1.234375 -0.625 C 1.03125 -0.9375 0.984375 -1.328125 0.984375 -1.703125 C 0.984375 -2.15625 1.0625 -2.484375 1.234375 -2.765625 C 1.4375 -3.0625 1.796875 -3.28125 2.1875 -3.28125 C 2.578125 -3.28125 2.953125 -3.09375 3.203125 -2.6875 Z M 3.203125 -0.984375 "/>
</g>
<g id="glyph-0-7">
<path d="M 2.828125 -3.34375 C 2.828125 -3.46875 2.828125 -3.546875 2.734375 -3.546875 C 2.6875 -3.546875 2.671875 -3.546875 2.53125 -3.421875 C 2.515625 -3.40625 2.453125 -3.34375 2.421875 -3.34375 C 2.421875 -3.34375 2.40625 -3.34375 2.359375 -3.375 C 2.234375 -3.453125 2 -3.546875 1.640625 -3.546875 C 0.53125 -3.546875 0.28125 -2.9375 0.28125 -2.5625 C 0.28125 -2.15625 0.578125 -1.9375 0.59375 -1.90625 C 0.921875 -1.671875 1.09375 -1.640625 1.625 -1.546875 C 2 -1.46875 2.609375 -1.359375 2.609375 -0.8125 C 2.609375 -0.515625 2.40625 -0.140625 1.671875 -0.140625 C 0.875 -0.140625 0.640625 -0.765625 0.546875 -1.1875 C 0.515625 -1.28125 0.5 -1.328125 0.40625 -1.328125 C 0.28125 -1.328125 0.28125 -1.265625 0.28125 -1.109375 L 0.28125 -0.125 C 0.28125 0 0.28125 0.078125 0.375 0.078125 C 0.421875 0.078125 0.4375 0.078125 0.578125 -0.078125 C 0.625 -0.125 0.703125 -0.21875 0.75 -0.265625 C 1.109375 0.0625 1.484375 0.078125 1.6875 0.078125 C 2.703125 0.078125 3.046875 -0.5 3.046875 -1.03125 C 3.046875 -1.40625 2.8125 -1.96875 1.875 -2.140625 C 1.8125 -2.15625 1.359375 -2.234375 1.328125 -2.234375 C 1.078125 -2.296875 0.703125 -2.453125 0.703125 -2.78125 C 0.703125 -3.015625 0.875 -3.34375 1.640625 -3.34375 C 2.53125 -3.34375 2.5625 -2.703125 2.578125 -2.46875 C 2.59375 -2.40625 2.640625 -2.390625 2.703125 -2.390625 C 2.828125 -2.390625 2.828125 -2.4375 2.828125 -2.59375 Z M 2.828125 -3.34375 "/>
</g>
<g id="glyph-0-8">
<path d="M 2.65625 -3.421875 L 2.65625 -3.15625 C 3.203125 -3.15625 3.265625 -3.109375 3.265625 -2.71875 L 3.265625 -1.328125 C 3.265625 -0.640625 2.84375 -0.140625 2.25 -0.140625 C 1.5625 -0.140625 1.53125 -0.484375 1.53125 -0.875 L 1.53125 -3.5 L 0.328125 -3.421875 L 0.328125 -3.15625 C 0.9375 -3.15625 0.9375 -3.140625 0.9375 -2.421875 L 0.9375 -1.234375 C 0.9375 -0.65625 0.9375 0.078125 2.203125 0.078125 C 2.953125 0.078125 3.234375 -0.5 3.28125 -0.5625 L 3.28125 0.078125 L 4.46875 0 L 4.46875 -0.265625 C 3.921875 -0.265625 3.859375 -0.3125 3.859375 -0.703125 L 3.859375 -3.5 Z M 2.65625 -3.421875 "/>
</g>
<g id="glyph-0-9">
<path d="M 3.984375 -1.6875 C 3.984375 -2.6875 3.15625 -3.546875 2.109375 -3.546875 C 1.0625 -3.546875 0.234375 -2.6875 0.234375 -1.6875 C 0.234375 -0.703125 1.09375 0.078125 2.109375 0.078125 C 3.140625 0.078125 3.984375 -0.703125 3.984375 -1.6875 Z M 2.109375 -0.171875 C 1.671875 -0.171875 1.34375 -0.375 1.171875 -0.65625 C 0.96875 -0.984375 0.953125 -1.375 0.953125 -1.765625 C 0.953125 -2.0625 0.953125 -2.546875 1.1875 -2.890625 C 1.40625 -3.171875 1.734375 -3.328125 2.109375 -3.328125 C 2.515625 -3.328125 2.859375 -3.125 3.046875 -2.84375 C 3.265625 -2.515625 3.265625 -2.078125 3.265625 -1.765625 C 3.265625 -1.40625 3.25 -0.96875 3.03125 -0.625 C 2.8125 -0.3125 2.453125 -0.171875 2.109375 -0.171875 Z M 2.109375 -0.171875 "/>
</g>
<g id="glyph-0-10">
<path d="M 1.375 -0.546875 C 1.125 -0.578125 0.9375 -0.78125 0.9375 -1.078125 C 0.9375 -1.265625 0.984375 -1.34375 1.03125 -1.40625 C 1.375 -1.203125 1.671875 -1.171875 1.875 -1.171875 C 2.65625 -1.171875 3.234375 -1.71875 3.234375 -2.34375 C 3.234375 -2.640625 3.109375 -2.890625 2.90625 -3.109375 C 3.015625 -3.203125 3.28125 -3.359375 3.671875 -3.375 C 3.640625 -3.34375 3.609375 -3.3125 3.609375 -3.1875 C 3.609375 -3.03125 3.703125 -2.9375 3.84375 -2.9375 C 3.953125 -2.9375 4.09375 -3 4.09375 -3.1875 C 4.09375 -3.328125 4 -3.59375 3.640625 -3.59375 C 3.5 -3.59375 3.125 -3.5625 2.765625 -3.234375 C 2.5625 -3.375 2.25 -3.5 1.875 -3.5 C 1.09375 -3.5 0.515625 -2.953125 0.515625 -2.34375 C 0.515625 -1.96875 0.71875 -1.6875 0.875 -1.53125 C 0.703125 -1.328125 0.640625 -1.078125 0.640625 -0.875 C 0.640625 -0.5625 0.796875 -0.3125 0.984375 -0.171875 C 0.5625 -0.0625 0.234375 0.25 0.234375 0.609375 C 0.234375 1.1875 1.0625 1.625 2.109375 1.625 C 3.109375 1.625 3.984375 1.21875 3.984375 0.59375 C 3.984375 0.171875 3.71875 -0.171875 3.453125 -0.296875 C 2.984375 -0.546875 2.59375 -0.546875 1.828125 -0.546875 Z M 1.875 -1.40625 C 1.140625 -1.40625 1.140625 -2.15625 1.140625 -2.34375 C 1.140625 -2.625 1.171875 -2.84375 1.296875 -3 C 1.4375 -3.1875 1.65625 -3.28125 1.875 -3.28125 C 2.609375 -3.28125 2.609375 -2.515625 2.609375 -2.34375 C 2.609375 -2.046875 2.5625 -1.84375 2.453125 -1.671875 C 2.28125 -1.453125 2.015625 -1.40625 1.875 -1.40625 Z M 2.25 -0.03125 C 2.46875 -0.03125 3.5 -0.03125 3.5 0.609375 C 3.5 1.03125 2.890625 1.40625 2.109375 1.40625 C 1.3125 1.40625 0.703125 1.03125 0.703125 0.609375 C 0.703125 0.4375 0.828125 -0.03125 1.484375 -0.03125 Z M 2.25 -0.03125 "/>
</g>
<g id="glyph-0-11">
<path d="M 2.109375 -5.515625 L 0.984375 -4.453125 L 1.140625 -4.265625 L 2.109375 -5.046875 L 3.078125 -4.265625 L 3.234375 -4.453125 Z M 2.109375 -5.515625 "/>
</g>
<g id="glyph-0-12">
<path d="M 1.484375 -0.125 C 1.484375 0.125 1.484375 0.765625 0.875 1.34375 C 0.859375 1.359375 0.828125 1.375 0.828125 1.421875 C 0.828125 1.5 0.90625 1.546875 0.953125 1.546875 C 1.046875 1.546875 1.703125 0.921875 1.703125 -0.03125 C 1.703125 -0.46875 1.546875 -0.875 1.171875 -0.875 C 0.90625 -0.875 0.734375 -0.671875 0.734375 -0.453125 C 0.734375 -0.203125 0.90625 0 1.171875 0 C 1.359375 0 1.46875 -0.09375 1.484375 -0.125 Z M 1.484375 -0.125 "/>
</g>
<g id="glyph-0-13">
<path d="M 1.515625 -5.515625 L 0.328125 -5.4375 L 0.328125 -5.171875 C 0.875 -5.171875 0.9375 -5.109375 0.9375 -4.71875 L 0.9375 -0.625 C 0.9375 -0.265625 0.84375 -0.265625 0.328125 -0.265625 L 0.328125 0 C 0.640625 -0.03125 1.09375 -0.03125 1.21875 -0.03125 C 1.390625 -0.03125 1.8125 -0.03125 2.125 0 L 2.125 -0.265625 C 1.609375 -0.265625 1.515625 -0.265625 1.515625 -0.625 Z M 1.515625 -5.515625 "/>
</g>
<g id="glyph-0-14">
<path d="M 2.34375 -1.453125 L 2.34375 -1.96875 L 0.09375 -1.96875 L 0.09375 -1.453125 Z M 2.34375 -1.453125 "/>
</g>
<g id="glyph-0-15">
<path d="M 2.453125 -1.859375 C 2.671875 -2.140625 2.90625 -2.40625 3.140625 -2.671875 C 3.40625 -2.953125 3.6875 -3.15625 4.1875 -3.171875 L 4.1875 -3.421875 C 3.875 -3.40625 3.859375 -3.40625 3.5 -3.40625 C 3.453125 -3.40625 2.984375 -3.40625 2.75 -3.421875 L 2.75 -3.171875 C 2.890625 -3.15625 2.921875 -3.046875 2.921875 -2.953125 C 2.921875 -2.84375 2.890625 -2.75 2.796875 -2.640625 L 2.296875 -2.046875 L 1.65625 -2.796875 C 1.5625 -2.90625 1.5625 -2.96875 1.5625 -2.984375 C 1.5625 -3.03125 1.609375 -3.15625 1.8125 -3.171875 L 1.8125 -3.421875 C 1.5 -3.40625 1.046875 -3.40625 0.96875 -3.40625 C 0.8125 -3.40625 0.40625 -3.40625 0.171875 -3.421875 L 0.171875 -3.171875 C 0.71875 -3.171875 0.71875 -3.15625 1.140625 -2.671875 L 1.953125 -1.671875 L 1.234375 -0.828125 C 1.03125 -0.609375 0.734375 -0.28125 0.140625 -0.265625 L 0.140625 0 C 0.421875 -0.03125 0.484375 -0.03125 0.8125 -0.03125 C 0.828125 -0.03125 1.3125 -0.03125 1.578125 0 L 1.578125 -0.265625 C 1.46875 -0.28125 1.390625 -0.328125 1.390625 -0.484375 C 1.390625 -0.625 1.484375 -0.734375 1.5 -0.765625 C 1.703125 -1.015625 1.921875 -1.25 2.125 -1.484375 L 2.78125 -0.703125 C 2.9375 -0.515625 2.9375 -0.5 2.9375 -0.453125 C 2.9375 -0.375 2.875 -0.265625 2.6875 -0.265625 L 2.6875 0 C 3.03125 -0.03125 3.390625 -0.03125 3.546875 -0.03125 C 3.6875 -0.03125 4.09375 -0.03125 4.328125 0 L 4.328125 -0.265625 C 3.828125 -0.265625 3.75 -0.296875 3.546875 -0.546875 Z M 2.453125 -1.859375 "/>
</g>
<g id="glyph-0-16">
<path d="M 3.515625 -2.609375 C 3.71875 -3.046875 3.984375 -3.15625 4.28125 -3.171875 L 4.28125 -3.421875 C 4 -3.40625 3.984375 -3.40625 3.65625 -3.40625 C 3.59375 -3.40625 3.21875 -3.40625 2.96875 -3.421875 L 2.96875 -3.171875 C 3.25 -3.15625 3.3125 -2.96875 3.3125 -2.84375 C 3.3125 -2.765625 3.296875 -2.71875 3.265625 -2.640625 L 2.40625 -0.640625 L 1.46875 -2.796875 C 1.421875 -2.90625 1.421875 -2.953125 1.421875 -2.96875 C 1.421875 -3.171875 1.703125 -3.171875 1.84375 -3.171875 L 1.84375 -3.421875 C 1.5 -3.40625 1.125 -3.40625 0.984375 -3.40625 C 0.8125 -3.40625 0.421875 -3.40625 0.171875 -3.421875 L 0.171875 -3.171875 C 0.65625 -3.171875 0.703125 -3.125 0.8125 -2.84375 L 2.015625 -0.09375 C 2.0625 0.03125 2.109375 0.078125 2.234375 0.078125 C 2.34375 0.078125 2.390625 0.015625 2.4375 -0.078125 Z M 3.515625 -2.609375 "/>
</g>
<g id="glyph-0-17">
<path d="M 2.765625 -3.453125 C 2.671875 -3.4375 2.625 -3.4375 2.609375 -3.4375 C 2.59375 -3.421875 2.578125 -3.421875 2.46875 -3.421875 L 1.4375 -3.421875 L 1.4375 -4.296875 C 1.4375 -5.078125 2.171875 -5.375 2.671875 -5.375 C 2.90625 -5.375 3.15625 -5.328125 3.34375 -5.171875 C 3.328125 -5.171875 3.015625 -5.109375 3.015625 -4.78125 C 3.015625 -4.53125 3.234375 -4.390625 3.40625 -4.390625 C 3.515625 -4.390625 3.78125 -4.46875 3.78125 -4.796875 C 3.78125 -5.21875 3.375 -5.59375 2.703125 -5.59375 C 1.921875 -5.59375 0.875 -5.203125 0.875 -4.296875 L 0.875 -3.421875 L 0.234375 -3.421875 L 0.234375 -3.171875 L 0.875 -3.171875 L 0.875 -0.625 C 0.875 -0.265625 0.78125 -0.265625 0.28125 -0.265625 L 0.28125 0 C 0.59375 -0.03125 1.03125 -0.03125 1.171875 -0.03125 C 1.328125 -0.03125 1.75 -0.03125 2.0625 0 L 2.0625 -0.265625 C 1.5625 -0.265625 1.46875 -0.265625 1.46875 -0.625 L 1.46875 -3.171875 L 2.828125 -3.171875 C 3.171875 -3.171875 3.21875 -3.0625 3.21875 -2.734375 L 3.21875 -0.625 C 3.21875 -0.265625 3.125 -0.265625 2.609375 -0.265625 L 2.609375 0 C 2.921875 -0.03125 3.375 -0.03125 3.5 -0.03125 C 3.671875 -0.03125 4.09375 -0.03125 4.40625 0 L 4.40625 -0.265625 C 3.890625 -0.265625 3.796875 -0.265625 3.796875 -0.625 L 3.796875 -3.515625 Z M 2.765625 -3.453125 "/>
</g>
<g id="glyph-0-18">
<path d="M 1.46875 -5.515625 L 0.28125 -5.4375 L 0.28125 -5.171875 C 0.8125 -5.171875 0.875 -5.109375 0.875 -4.71875 L 0.875 0 L 1.125 0 L 1.421875 -0.5 C 1.609375 -0.21875 1.984375 0.078125 2.515625 0.078125 C 3.53125 0.078125 4.40625 -0.703125 4.40625 -1.71875 C 4.40625 -2.71875 3.59375 -3.5 2.609375 -3.5 C 1.984375 -3.5 1.59375 -3.171875 1.46875 -3.015625 Z M 1.484375 -2.515625 C 1.484375 -2.671875 1.484375 -2.6875 1.609375 -2.828125 C 1.84375 -3.125 2.21875 -3.28125 2.5625 -3.28125 C 2.984375 -3.28125 3.296875 -3.03125 3.453125 -2.796875 C 3.59375 -2.578125 3.703125 -2.3125 3.703125 -1.71875 C 3.703125 -1.546875 3.703125 -0.984375 3.40625 -0.609375 C 3.125 -0.25 2.75 -0.140625 2.484375 -0.140625 C 2.109375 -0.140625 1.796875 -0.34375 1.578125 -0.65625 C 1.484375 -0.796875 1.484375 -0.8125 1.484375 -0.96875 Z M 1.484375 -2.515625 "/>
</g>
<g id="glyph-0-19">
<path d="M 2.640625 1.984375 C 2.71875 1.984375 2.8125 1.984375 2.8125 1.890625 C 2.8125 1.859375 2.796875 1.859375 2.703125 1.75 C 1.609375 0.71875 1.34375 -0.75 1.34375 -1.984375 C 1.34375 -4.28125 2.28125 -5.359375 2.6875 -5.71875 C 2.796875 -5.828125 2.8125 -5.828125 2.8125 -5.875 C 2.8125 -5.90625 2.78125 -5.96875 2.703125 -5.96875 C 2.5625 -5.96875 2.171875 -5.5625 2.109375 -5.484375 C 1.046875 -4.375 0.8125 -2.9375 0.8125 -1.984375 C 0.8125 -0.203125 1.5625 1.21875 2.640625 1.984375 Z M 2.640625 1.984375 "/>
</g>
<g id="glyph-0-20">
<path d="M 2.453125 -1.984375 C 2.453125 -2.75 2.328125 -3.65625 1.84375 -4.59375 C 1.453125 -5.328125 0.71875 -5.96875 0.578125 -5.96875 C 0.5 -5.96875 0.484375 -5.90625 0.484375 -5.875 C 0.484375 -5.84375 0.484375 -5.828125 0.578125 -5.71875 C 1.6875 -4.671875 1.9375 -3.21875 1.9375 -1.984375 C 1.9375 0.296875 1 1.375 0.59375 1.734375 C 0.484375 1.84375 0.484375 1.859375 0.484375 1.890625 C 0.484375 1.9375 0.5 1.984375 0.578125 1.984375 C 0.703125 1.984375 1.109375 1.578125 1.171875 1.515625 C 2.234375 0.390625 2.453125 -1.03125 2.453125 -1.984375 Z M 2.453125 -1.984375 "/>
</g>
<g id="glyph-0-21">
<path d="M 5.8125 -2.640625 C 5.9375 -2.640625 6.09375 -2.640625 6.09375 -2.828125 C 6.09375 -3.015625 5.90625 -3.015625 5.78125 -3.015625 L 0.78125 -3.015625 C 0.65625 -3.015625 0.46875 -3.015625 0.46875 -2.828125 C 0.46875 -2.640625 0.625 -2.640625 0.75 -2.640625 Z M 5.78125 -0.96875 C 5.90625 -0.96875 6.09375 -0.96875 6.09375 -1.140625 C 6.09375 -1.328125 5.9375 -1.328125 5.8125 -1.328125 L 0.75 -1.328125 C 0.625 -1.328125 0.46875 -1.328125 0.46875 -1.140625 C 0.46875 -0.96875 0.65625 -0.96875 0.78125 -0.96875 Z M 5.78125 -0.96875 "/>
</g>
<g id="glyph-0-22">
<path d="M 3.46875 -1.8125 L 5.8125 -1.8125 C 5.921875 -1.8125 6.09375 -1.8125 6.09375 -1.984375 C 6.09375 -2.171875 5.921875 -2.171875 5.8125 -2.171875 L 3.46875 -2.171875 L 3.46875 -4.515625 C 3.46875 -4.625 3.46875 -4.796875 3.28125 -4.796875 C 3.109375 -4.796875 3.109375 -4.625 3.109375 -4.515625 L 3.109375 -2.171875 L 0.75 -2.171875 C 0.640625 -2.171875 0.46875 -2.171875 0.46875 -1.984375 C 0.46875 -1.8125 0.640625 -1.8125 0.75 -1.8125 L 3.109375 -1.8125 L 3.109375 0.546875 C 3.109375 0.65625 3.109375 0.828125 3.28125 0.828125 C 3.46875 0.828125 3.46875 0.65625 3.46875 0.546875 Z M 3.46875 -1.8125 "/>
</g>
<g id="glyph-0-23">
<path d="M 2.09375 1.28125 C 1.578125 1.28125 1.484375 1.28125 1.484375 0.921875 L 1.484375 -0.390625 C 1.859375 0.015625 2.265625 0.078125 2.515625 0.078125 C 3.53125 0.078125 4.40625 -0.703125 4.40625 -1.71875 C 4.40625 -2.71875 3.609375 -3.5 2.640625 -3.5 C 2.328125 -3.5 1.875 -3.421875 1.46875 -3.015625 L 1.46875 -3.5 L 0.28125 -3.421875 L 0.28125 -3.15625 C 0.84375 -3.15625 0.875 -3.109375 0.875 -2.78125 L 0.875 0.921875 C 0.875 1.28125 0.78125 1.28125 0.28125 1.28125 L 0.28125 1.546875 C 0.625 1.515625 0.96875 1.515625 1.1875 1.515625 C 1.421875 1.515625 1.75 1.515625 2.09375 1.546875 Z M 1.484375 -2.640625 C 1.671875 -2.96875 2.0625 -3.265625 2.5625 -3.265625 C 3.1875 -3.265625 3.703125 -2.578125 3.703125 -1.71875 C 3.703125 -0.796875 3.125 -0.140625 2.484375 -0.140625 C 2.203125 -0.140625 1.84375 -0.265625 1.578125 -0.65625 C 1.484375 -0.796875 1.484375 -0.796875 1.484375 -0.953125 Z M 1.484375 -2.640625 "/>
</g>
<g id="glyph-0-24">
<path d="M 2.015625 -5.25 C 1.953125 -5.40625 1.953125 -5.4375 1.71875 -5.4375 L 0.390625 -5.4375 L 0.390625 -5.171875 L 0.5625 -5.171875 C 1.171875 -5.171875 1.1875 -5.078125 1.1875 -4.78125 L 1.1875 -0.84375 C 1.1875 -0.640625 1.1875 -0.265625 0.390625 -0.265625 L 0.390625 0 C 0.75 -0.03125 1.125 -0.03125 1.328125 -0.03125 C 1.53125 -0.03125 1.90625 -0.03125 2.265625 0 L 2.265625 -0.265625 C 1.46875 -0.265625 1.46875 -0.640625 1.46875 -0.84375 L 1.46875 -5.078125 L 3.46875 -0.1875 C 3.515625 -0.09375 3.5625 0 3.671875 0 C 3.765625 0 3.8125 -0.09375 3.84375 -0.1875 L 5.875 -5.140625 L 5.890625 -5.140625 L 5.890625 -0.640625 C 5.890625 -0.34375 5.875 -0.265625 5.25 -0.265625 L 5.078125 -0.265625 L 5.078125 0 C 5.703125 -0.03125 5.71875 -0.03125 6.21875 -0.03125 C 6.703125 -0.03125 6.71875 -0.03125 7.34375 0 L 7.34375 -0.265625 L 7.171875 -0.265625 C 6.546875 -0.265625 6.53125 -0.34375 6.53125 -0.640625 L 6.53125 -4.78125 C 6.53125 -5.078125 6.546875 -5.171875 7.171875 -5.171875 L 7.34375 -5.171875 L 7.34375 -5.4375 L 6 -5.4375 C 5.78125 -5.4375 5.765625 -5.40625 5.703125 -5.265625 L 3.859375 -0.75 Z M 2.015625 -5.25 "/>
</g>
<g id="glyph-0-25">
<path d="M 1.890625 -4.78125 C 1.890625 -5.09375 1.90625 -5.171875 2.53125 -5.171875 L 2.734375 -5.171875 L 2.734375 -5.4375 C 2.09375 -5.40625 2.078125 -5.40625 1.515625 -5.40625 C 0.96875 -5.40625 0.953125 -5.40625 0.3125 -5.4375 L 0.3125 -5.171875 L 0.5 -5.171875 C 1.125 -5.171875 1.15625 -5.09375 1.15625 -4.78125 L 1.15625 -0.640625 C 1.15625 -0.34375 1.125 -0.265625 0.5 -0.265625 L 0.3125 -0.265625 L 0.3125 0 C 0.953125 -0.03125 0.96875 -0.03125 1.515625 -0.03125 C 2.078125 -0.03125 2.09375 -0.03125 2.734375 0 L 2.734375 -0.265625 L 2.53125 -0.265625 C 1.90625 -0.265625 1.890625 -0.34375 1.890625 -0.640625 Z M 1.890625 -4.78125 "/>
</g>
<g id="glyph-0-26">
<path d="M 1.90625 -2.484375 L 3.34375 -2.484375 C 4.328125 -2.484375 5.265625 -3.109375 5.265625 -3.9375 C 5.265625 -4.71875 4.4375 -5.4375 3.28125 -5.4375 L 0.359375 -5.4375 L 0.359375 -5.171875 L 0.546875 -5.171875 C 1.15625 -5.171875 1.171875 -5.078125 1.171875 -4.78125 L 1.171875 -0.640625 C 1.171875 -0.34375 1.15625 -0.265625 0.546875 -0.265625 L 0.359375 -0.265625 L 0.359375 0 C 1.046875 -0.03125 1.0625 -0.03125 1.53125 -0.03125 C 2.015625 -0.03125 2.03125 -0.03125 2.703125 0 L 2.703125 -0.265625 L 2.53125 -0.265625 C 1.921875 -0.265625 1.90625 -0.34375 1.90625 -0.640625 Z M 1.875 -2.71875 L 1.875 -4.84375 C 1.875 -5.109375 1.890625 -5.171875 2.265625 -5.171875 L 3.078125 -5.171875 C 4.453125 -5.171875 4.453125 -4.296875 4.453125 -3.9375 C 4.453125 -3.59375 4.453125 -2.71875 3.078125 -2.71875 Z M 1.875 -2.71875 "/>
</g>
<g id="glyph-0-27">
<path d="M 3.515625 -2.625 C 3.71875 -3.078125 4.015625 -3.15625 4.28125 -3.171875 L 4.28125 -3.421875 C 4 -3.40625 3.984375 -3.40625 3.65625 -3.40625 C 3.625 -3.40625 3.203125 -3.40625 2.96875 -3.421875 L 2.96875 -3.171875 C 3.203125 -3.15625 3.3125 -3.015625 3.3125 -2.84375 C 3.3125 -2.796875 3.296875 -2.734375 3.265625 -2.640625 L 2.40625 -0.71875 L 1.484375 -2.796875 C 1.4375 -2.921875 1.4375 -2.9375 1.4375 -2.96875 C 1.4375 -3.15625 1.671875 -3.171875 1.859375 -3.171875 L 1.859375 -3.421875 C 1.5 -3.40625 1.15625 -3.40625 0.984375 -3.40625 C 0.8125 -3.40625 0.421875 -3.40625 0.171875 -3.421875 L 0.171875 -3.171875 C 0.59375 -3.171875 0.703125 -3.15625 0.828125 -2.84375 L 2.09375 0 C 1.734375 0.84375 1.5 1.40625 0.9375 1.40625 C 0.734375 1.40625 0.609375 1.296875 0.609375 1.296875 C 0.671875 1.28125 0.84375 1.203125 0.84375 0.96875 C 0.84375 0.75 0.6875 0.625 0.515625 0.625 C 0.34375 0.625 0.171875 0.734375 0.171875 0.984375 C 0.171875 1.328125 0.515625 1.625 0.9375 1.625 C 1.640625 1.625 2.03125 0.765625 2.0625 0.6875 Z M 3.515625 -2.625 "/>
</g>
<g id="glyph-0-28">
<path d="M 2.921875 -3.15625 C 2.703125 -3.078125 2.671875 -2.90625 2.671875 -2.8125 C 2.671875 -2.59375 2.828125 -2.4375 3.046875 -2.4375 C 3.25 -2.4375 3.421875 -2.578125 3.421875 -2.8125 C 3.421875 -3.3125 2.875 -3.546875 2.125 -3.546875 C 1.03125 -3.546875 0.28125 -2.671875 0.28125 -1.71875 C 0.28125 -0.703125 1.109375 0.078125 2.109375 0.078125 C 3.234375 0.078125 3.5 -0.859375 3.5 -0.953125 C 3.5 -1.046875 3.40625 -1.046875 3.375 -1.046875 C 3.328125 -1.046875 3.28125 -1.046875 3.265625 -0.96875 C 3.203125 -0.796875 2.984375 -0.171875 2.1875 -0.171875 C 1.6875 -0.171875 0.984375 -0.546875 0.984375 -1.71875 C 0.984375 -2.875 1.578125 -3.296875 2.15625 -3.296875 C 2.234375 -3.296875 2.640625 -3.296875 2.921875 -3.15625 Z M 2.921875 -3.15625 "/>
</g>
<g id="glyph-0-29">
<path d="M 6.21875 -2.40625 C 6.21875 -3.046875 5.9375 -3.5 5.0625 -3.5 C 4.328125 -3.5 3.96875 -3 3.84375 -2.78125 C 3.703125 -3.34375 3.25 -3.5 2.734375 -3.5 C 1.953125 -3.5 1.59375 -2.953125 1.484375 -2.75 L 1.484375 -3.5 L 0.328125 -3.421875 L 0.328125 -3.15625 C 0.859375 -3.15625 0.9375 -3.109375 0.9375 -2.71875 L 0.9375 -0.625 C 0.9375 -0.265625 0.828125 -0.265625 0.328125 -0.265625 L 0.328125 0 C 0.671875 -0.03125 1.015625 -0.03125 1.234375 -0.03125 C 1.46875 -0.03125 1.796875 -0.03125 2.140625 0 L 2.140625 -0.265625 C 1.625 -0.265625 1.53125 -0.265625 1.53125 -0.625 L 1.53125 -2.0625 C 1.53125 -2.890625 2.15625 -3.28125 2.671875 -3.28125 C 3.1875 -3.28125 3.265625 -2.875 3.265625 -2.4375 L 3.265625 -0.625 C 3.265625 -0.265625 3.171875 -0.265625 2.671875 -0.265625 L 2.671875 0 C 3 -0.03125 3.359375 -0.03125 3.578125 -0.03125 C 3.796875 -0.03125 4.140625 -0.03125 4.484375 0 L 4.484375 -0.265625 C 3.96875 -0.265625 3.875 -0.265625 3.875 -0.625 L 3.875 -2.0625 C 3.875 -2.890625 4.5 -3.28125 5 -3.28125 C 5.515625 -3.28125 5.609375 -2.875 5.609375 -2.4375 L 5.609375 -0.625 C 5.609375 -0.265625 5.515625 -0.265625 5 -0.265625 L 5 0 C 5.34375 -0.03125 5.6875 -0.03125 5.90625 -0.03125 C 6.140625 -0.03125 6.46875 -0.03125 6.8125 0 L 6.8125 -0.265625 C 6.3125 -0.265625 6.21875 -0.265625 6.21875 -0.625 Z M 6.21875 -2.40625 "/>
</g>
<g id="glyph-0-30">
<path d="M 1.515625 -3.171875 L 2.46875 -3.171875 L 2.46875 -3.421875 L 1.5 -3.421875 L 1.5 -4.328125 C 1.5 -5.015625 1.890625 -5.375 2.234375 -5.375 C 2.359375 -5.375 2.4375 -5.34375 2.46875 -5.34375 C 2.328125 -5.265625 2.28125 -5.125 2.28125 -5.03125 C 2.28125 -4.8125 2.4375 -4.671875 2.640625 -4.671875 C 2.859375 -4.671875 3 -4.8125 3 -5.03125 C 3 -5.375 2.671875 -5.59375 2.25 -5.59375 C 1.640625 -5.59375 0.9375 -5.171875 0.9375 -4.3125 L 0.9375 -3.421875 L 0.28125 -3.421875 L 0.28125 -3.171875 L 0.9375 -3.171875 L 0.9375 -0.625 C 0.9375 -0.265625 0.84375 -0.265625 0.328125 -0.265625 L 0.328125 0 C 0.640625 -0.03125 1.078125 -0.03125 1.265625 -0.03125 C 1.734375 -0.03125 1.75 -0.03125 2.28125 0 L 2.28125 -0.265625 L 2.109375 -0.265625 C 1.53125 -0.265625 1.515625 -0.34375 1.515625 -0.640625 Z M 1.515625 -3.171875 "/>
</g>
<g id="glyph-0-31">
<path d="M 1.609375 -2.984375 C 1.609375 -3.25 1.40625 -3.421875 1.171875 -3.421875 C 0.90625 -3.421875 0.734375 -3.21875 0.734375 -2.984375 C 0.734375 -2.71875 0.953125 -2.546875 1.171875 -2.546875 C 1.4375 -2.546875 1.609375 -2.765625 1.609375 -2.984375 Z M 1.609375 -0.4375 C 1.609375 -0.703125 1.40625 -0.875 1.171875 -0.875 C 0.90625 -0.875 0.734375 -0.671875 0.734375 -0.453125 C 0.734375 -0.171875 0.953125 0 1.171875 0 C 1.4375 0 1.609375 -0.21875 1.609375 -0.4375 Z M 1.609375 -0.4375 "/>
</g>
<g id="glyph-0-32">
<path d="M 0.359375 -5.4375 L 0.359375 -5.171875 L 0.546875 -5.171875 C 1.15625 -5.171875 1.171875 -5.078125 1.171875 -4.78125 L 1.171875 -0.640625 C 1.171875 -0.34375 1.15625 -0.265625 0.546875 -0.265625 L 0.359375 -0.265625 L 0.359375 0 L 3.390625 0 C 4.8125 0 5.96875 -1.1875 5.96875 -2.671875 C 5.96875 -4.203125 4.8125 -5.4375 3.390625 -5.4375 Z M 2.265625 -0.265625 C 1.890625 -0.265625 1.875 -0.3125 1.875 -0.59375 L 1.875 -4.84375 C 1.875 -5.109375 1.890625 -5.171875 2.265625 -5.171875 L 3.171875 -5.171875 C 3.796875 -5.171875 4.3125 -4.921875 4.65625 -4.515625 C 5.171875 -3.90625 5.171875 -3.0625 5.171875 -2.671875 C 5.171875 -2.265625 5.171875 -1.484375 4.671875 -0.90625 C 4.390625 -0.578125 3.875 -0.265625 3.171875 -0.265625 Z M 2.265625 -0.265625 "/>
</g>
<g id="glyph-0-33">
<path d="M 1.859375 -3.3125 C 1.34375 -3.4375 0.96875 -3.84375 0.96875 -4.328125 C 0.96875 -4.859375 1.4375 -5.359375 2.125 -5.359375 C 3.5 -5.359375 3.6875 -4.078125 3.71875 -3.765625 C 3.734375 -3.6875 3.75 -3.625 3.84375 -3.625 C 3.984375 -3.625 3.984375 -3.6875 3.984375 -3.828125 L 3.984375 -5.390625 C 3.984375 -5.515625 3.984375 -5.59375 3.875 -5.59375 C 3.8125 -5.59375 3.796875 -5.578125 3.734375 -5.484375 L 3.453125 -5.046875 C 3.0625 -5.484375 2.546875 -5.59375 2.109375 -5.59375 C 1.171875 -5.59375 0.46875 -4.890625 0.46875 -4.078125 C 0.46875 -3.46875 0.8125 -3.140625 0.96875 -2.984375 C 1.25 -2.703125 1.515625 -2.625 2.375 -2.4375 C 3.046875 -2.28125 3.171875 -2.25 3.4375 -1.96875 C 3.515625 -1.890625 3.71875 -1.609375 3.71875 -1.21875 C 3.71875 -0.671875 3.296875 -0.09375 2.546875 -0.09375 C 1.671875 -0.09375 0.765625 -0.515625 0.71875 -1.625 C 0.703125 -1.75 0.703125 -1.8125 0.59375 -1.8125 C 0.46875 -1.8125 0.46875 -1.734375 0.46875 -1.59375 L 0.46875 -0.046875 C 0.46875 0.09375 0.46875 0.171875 0.578125 0.171875 C 0.640625 0.171875 0.640625 0.15625 0.703125 0.078125 C 0.734375 0.03125 0.765625 -0.046875 0.984375 -0.375 C 1.484375 0.0625 2.078125 0.171875 2.546875 0.171875 C 3.546875 0.171875 4.21875 -0.625 4.21875 -1.46875 C 4.21875 -2.15625 3.765625 -2.875 2.953125 -3.0625 Z M 1.859375 -3.3125 "/>
</g>
<g id="glyph-0-34">
<path d="M 3.359375 -5.5 C 3.328125 -5.609375 3.296875 -5.671875 3.171875 -5.671875 C 3.015625 -5.671875 3 -5.609375 2.953125 -5.5 L 1.1875 -0.8125 C 1.109375 -0.609375 0.9375 -0.265625 0.28125 -0.265625 L 0.28125 0 C 0.546875 -0.03125 0.96875 -0.03125 1.109375 -0.03125 C 1.359375 -0.03125 1.59375 -0.03125 1.984375 0 L 1.984375 -0.265625 C 1.640625 -0.265625 1.4375 -0.421875 1.4375 -0.65625 C 1.4375 -0.71875 1.4375 -0.734375 1.46875 -0.828125 L 1.84375 -1.828125 L 4.015625 -1.828125 L 4.453125 -0.640625 C 4.5 -0.546875 4.5 -0.515625 4.5 -0.5 C 4.5 -0.265625 4.078125 -0.265625 3.859375 -0.265625 L 3.859375 0 C 4.53125 -0.03125 4.546875 -0.03125 4.984375 -0.03125 C 5.4375 -0.03125 5.578125 -0.03125 6.03125 0 L 6.03125 -0.265625 L 5.90625 -0.265625 C 5.40625 -0.265625 5.328125 -0.328125 5.21875 -0.59375 Z M 2.921875 -4.6875 L 3.90625 -2.078125 L 1.9375 -2.078125 Z M 2.921875 -4.6875 "/>
</g>
<g id="glyph-0-35">
<path d="M 4.921875 -2.0625 L 4.671875 -2.0625 C 4.578125 -1.234375 4.46875 -0.265625 3 -0.265625 L 2.265625 -0.265625 C 1.90625 -0.265625 1.890625 -0.3125 1.890625 -0.59375 L 1.890625 -4.78125 C 1.890625 -5.0625 1.890625 -5.171875 2.625 -5.171875 L 2.890625 -5.171875 L 2.890625 -5.4375 C 2.53125 -5.40625 1.953125 -5.40625 1.578125 -5.40625 C 1.046875 -5.40625 1.03125 -5.40625 0.34375 -5.4375 L 0.34375 -5.171875 L 0.53125 -5.171875 C 1.140625 -5.171875 1.15625 -5.078125 1.15625 -4.78125 L 1.15625 -0.640625 C 1.15625 -0.34375 1.140625 -0.265625 0.53125 -0.265625 L 0.34375 -0.265625 L 0.34375 0 L 4.6875 0 Z M 4.921875 -2.0625 "/>
</g>
<g id="glyph-0-36">
<path d="M 3.765625 -2.703125 C 4.390625 -2.859375 5.15625 -3.3125 5.15625 -4 C 5.15625 -4.78125 4.140625 -5.4375 2.953125 -5.4375 L 0.359375 -5.4375 L 0.359375 -5.171875 L 0.546875 -5.171875 C 1.15625 -5.171875 1.171875 -5.078125 1.171875 -4.78125 L 1.171875 -0.640625 C 1.171875 -0.34375 1.15625 -0.265625 0.546875 -0.265625 L 0.359375 -0.265625 L 0.359375 0 C 1.046875 -0.03125 1.0625 -0.03125 1.515625 -0.03125 C 1.984375 -0.03125 2 -0.03125 2.6875 0 L 2.6875 -0.265625 L 2.5 -0.265625 C 1.890625 -0.265625 1.875 -0.34375 1.875 -0.640625 L 1.875 -2.609375 L 2.875 -2.609375 C 3.46875 -2.609375 3.734375 -2.3125 3.78125 -2.25 C 4.015625 -2 4.015625 -1.84375 4.015625 -1.296875 C 4.015625 -0.796875 4.015625 -0.46875 4.34375 -0.171875 C 4.6875 0.125 5.140625 0.171875 5.375 0.171875 C 6.03125 0.171875 6.1875 -0.484375 6.1875 -0.71875 C 6.1875 -0.765625 6.1875 -0.875 6.0625 -0.875 C 5.953125 -0.875 5.953125 -0.78125 5.9375 -0.734375 C 5.90625 -0.234375 5.625 -0.0625 5.40625 -0.0625 C 4.96875 -0.0625 4.921875 -0.421875 4.78125 -1.4375 C 4.71875 -1.890625 4.640625 -2.4375 3.765625 -2.703125 Z M 2.859375 -2.828125 L 1.875 -2.828125 L 1.875 -4.84375 C 1.875 -5.046875 1.890625 -5.140625 2.078125 -5.15625 C 2.140625 -5.171875 2.40625 -5.171875 2.5625 -5.171875 C 3.28125 -5.171875 4.328125 -5.171875 4.328125 -4 C 4.328125 -3.125 3.6875 -2.828125 2.859375 -2.828125 Z M 2.859375 -2.828125 "/>
</g>
<g id="glyph-0-37">
<path d="M 3.296875 -3.15625 C 3.359375 -3.21875 3.375 -3.234375 3.375 -3.296875 C 3.375 -3.421875 3.28125 -3.421875 3.15625 -3.421875 L 0.453125 -3.421875 L 0.34375 -2.09375 L 0.59375 -2.09375 C 0.640625 -2.921875 0.8125 -3.203125 1.703125 -3.203125 L 2.609375 -3.203125 L 0.3125 -0.296875 C 0.25 -0.21875 0.234375 -0.203125 0.234375 -0.140625 C 0.234375 0 0.328125 0 0.46875 0 L 3.25 0 L 3.390625 -1.53125 L 3.15625 -1.53125 C 3.0625 -0.609375 2.921875 -0.25 1.9375 -0.25 L 1 -0.25 Z M 3.296875 -3.15625 "/>
</g>
<g id="glyph-0-38">
<path d="M 1.609375 -0.4375 C 1.609375 -0.703125 1.40625 -0.875 1.171875 -0.875 C 0.90625 -0.875 0.734375 -0.671875 0.734375 -0.453125 C 0.734375 -0.171875 0.953125 0 1.171875 0 C 1.4375 0 1.609375 -0.21875 1.609375 -0.4375 Z M 1.609375 -0.4375 "/>
</g>
<g id="glyph-0-39">
<path d="M 5.25 -2.625 C 5.328125 -2.8125 5.453125 -3.15625 5.921875 -3.171875 L 5.921875 -3.421875 C 5.65625 -3.40625 5.640625 -3.40625 5.3125 -3.40625 C 5.046875 -3.40625 4.828125 -3.40625 4.578125 -3.421875 L 4.578125 -3.171875 C 4.9375 -3.15625 5.015625 -2.9375 5.015625 -2.796875 C 5.015625 -2.703125 5 -2.65625 4.984375 -2.59375 L 4.21875 -0.625 L 3.40625 -2.796875 C 3.359375 -2.890625 3.359375 -2.921875 3.359375 -2.953125 C 3.359375 -3.15625 3.625 -3.171875 3.8125 -3.171875 L 3.8125 -3.421875 C 3.5 -3.40625 3.078125 -3.40625 3 -3.40625 C 2.828125 -3.40625 2.5 -3.40625 2.265625 -3.421875 L 2.265625 -3.171875 C 2.75 -3.171875 2.765625 -3.125 2.90625 -2.703125 L 2.171875 -0.734375 L 1.390625 -2.796875 C 1.390625 -2.828125 1.359375 -2.921875 1.359375 -2.953125 C 1.359375 -3.171875 1.65625 -3.171875 1.796875 -3.171875 L 1.796875 -3.421875 C 1.453125 -3.40625 1.09375 -3.40625 0.953125 -3.40625 C 0.796875 -3.40625 0.390625 -3.40625 0.171875 -3.421875 L 0.171875 -3.171875 C 0.5625 -3.171875 0.640625 -3.140625 0.734375 -2.90625 L 1.796875 -0.109375 C 1.84375 0.015625 1.875 0.078125 2 0.078125 C 2.125 0.078125 2.15625 -0.015625 2.203125 -0.109375 L 3.046875 -2.34375 L 3.890625 -0.109375 C 3.921875 -0.015625 3.953125 0.078125 4.09375 0.078125 C 4.21875 0.078125 4.25 0 4.28125 -0.09375 Z M 5.25 -2.625 "/>
</g>
<g id="glyph-0-40">
<path d="M 2.390625 -2.15625 L 3.0625 -2.703125 C 3.59375 -3.125 3.921875 -3.15625 4.125 -3.171875 L 4.125 -3.421875 C 3.9375 -3.40625 3.828125 -3.40625 3.5 -3.40625 C 3.109375 -3.40625 3 -3.40625 2.640625 -3.421875 L 2.640625 -3.171875 C 2.796875 -3.15625 2.828125 -3.046875 2.828125 -3 C 2.828125 -2.84375 2.671875 -2.703125 2.609375 -2.65625 L 1.46875 -1.734375 L 1.46875 -5.515625 L 0.28125 -5.4375 L 0.28125 -5.171875 C 0.8125 -5.171875 0.875 -5.109375 0.875 -4.71875 L 0.875 -0.625 C 0.875 -0.265625 0.78125 -0.265625 0.28125 -0.265625 L 0.28125 0 C 0.59375 -0.03125 1.015625 -0.03125 1.15625 -0.03125 C 1.3125 -0.03125 1.71875 -0.03125 2.03125 0 L 2.03125 -0.265625 C 1.53125 -0.265625 1.4375 -0.265625 1.4375 -0.625 L 1.4375 -1.390625 L 1.96875 -1.828125 C 2 -1.828125 2.203125 -1.546875 2.328125 -1.390625 C 2.453125 -1.21875 2.578125 -1.0625 2.703125 -0.90625 C 2.8125 -0.75 2.984375 -0.546875 2.984375 -0.421875 C 2.984375 -0.28125 2.828125 -0.265625 2.734375 -0.265625 L 2.734375 0 C 3.078125 -0.03125 3.4375 -0.03125 3.578125 -0.03125 C 3.875 -0.03125 4.03125 -0.03125 4.3125 0 L 4.3125 -0.265625 C 3.984375 -0.265625 3.828125 -0.296875 3.546875 -0.671875 Z M 2.390625 -2.15625 "/>
</g>
<g id="glyph-1-0">
<path d="M 3.9375 -2.9375 C 3.984375 -3.046875 3.984375 -3.109375 3.984375 -3.109375 C 3.984375 -3.296875 3.828125 -3.359375 3.71875 -3.359375 C 3.546875 -3.359375 3.390625 -3.21875 3.359375 -3.046875 C 3.296875 -3.171875 3.0625 -3.5 2.578125 -3.5 C 1.640625 -3.5 0.609375 -2.453125 0.609375 -1.28125 C 0.609375 -0.421875 1.171875 0 1.75 0 C 2.125 0 2.453125 -0.203125 2.71875 -0.421875 L 2.53125 0.28125 C 2.453125 0.625 2.390625 0.84375 2.078125 1.109375 C 1.75 1.40625 1.453125 1.40625 1.25 1.40625 C 1.046875 1.40625 0.859375 1.390625 0.671875 1.359375 C 0.84375 1.25 0.921875 1.09375 0.921875 0.953125 C 0.921875 0.765625 0.78125 0.65625 0.609375 0.65625 C 0.40625 0.65625 0.171875 0.8125 0.171875 1.140625 C 0.171875 1.59375 0.78125 1.625 1.265625 1.625 C 2.390625 1.625 2.953125 1.015625 3.078125 0.53125 Z M 2.875 -1.046875 C 2.8125 -0.828125 2.640625 -0.671875 2.46875 -0.515625 C 2.40625 -0.46875 2.09375 -0.21875 1.78125 -0.21875 C 1.453125 -0.21875 1.21875 -0.484375 1.21875 -0.96875 C 1.21875 -1.296875 1.421875 -2.15625 1.640625 -2.5625 C 1.890625 -3.015625 2.265625 -3.28125 2.578125 -3.28125 C 3.125 -3.28125 3.265625 -2.703125 3.265625 -2.625 L 3.234375 -2.515625 Z M 2.875 -1.046875 "/>
</g>
<g id="glyph-1-1">
<path d="M 3.984375 -3.171875 C 3.640625 -3.078125 3.625 -2.78125 3.625 -2.75 C 3.625 -2.5625 3.75 -2.453125 3.921875 -2.453125 C 4.109375 -2.453125 4.375 -2.578125 4.375 -2.921875 C 4.375 -3.375 3.875 -3.5 3.578125 -3.5 C 3.203125 -3.5 2.90625 -3.25 2.71875 -2.9375 C 2.546875 -3.359375 2.125 -3.5 1.8125 -3.5 C 0.9375 -3.5 0.453125 -2.515625 0.453125 -2.296875 C 0.453125 -2.21875 0.515625 -2.1875 0.578125 -2.1875 C 0.671875 -2.1875 0.6875 -2.234375 0.703125 -2.328125 C 0.890625 -2.90625 1.375 -3.28125 1.78125 -3.28125 C 2.09375 -3.28125 2.25 -3.0625 2.25 -2.78125 C 2.25 -2.609375 2.140625 -2.25 2.078125 -2 C 2.03125 -1.765625 1.859375 -1.0625 1.8125 -0.90625 C 1.703125 -0.484375 1.421875 -0.140625 1.0625 -0.140625 C 1.03125 -0.140625 0.8125 -0.140625 0.65625 -0.25 C 1.015625 -0.34375 1.015625 -0.671875 1.015625 -0.6875 C 1.015625 -0.859375 0.875 -0.984375 0.703125 -0.984375 C 0.484375 -0.984375 0.25 -0.796875 0.25 -0.5 C 0.25 -0.125 0.640625 0.078125 1.046875 0.078125 C 1.46875 0.078125 1.765625 -0.234375 1.90625 -0.5 C 2.078125 -0.109375 2.453125 0.078125 2.828125 0.078125 C 3.703125 0.078125 4.171875 -0.921875 4.171875 -1.140625 C 4.171875 -1.21875 4.109375 -1.234375 4.0625 -1.234375 C 3.953125 -1.234375 3.9375 -1.1875 3.921875 -1.109375 C 3.765625 -0.578125 3.3125 -0.140625 2.84375 -0.140625 C 2.578125 -0.140625 2.390625 -0.3125 2.390625 -0.65625 C 2.390625 -0.8125 2.4375 -1 2.546875 -1.4375 C 2.609375 -1.671875 2.78125 -2.375 2.828125 -2.53125 C 2.9375 -2.9375 3.21875 -3.28125 3.578125 -3.28125 C 3.609375 -3.28125 3.8125 -3.28125 3.984375 -3.171875 Z M 3.984375 -3.171875 "/>
</g>
<g id="glyph-1-2">
<path d="M 1.46875 -0.953125 C 1.109375 -0.359375 0.78125 -0.28125 0.5 -0.265625 C 0.40625 -0.25 0.3125 -0.25 0.3125 -0.109375 C 0.3125 -0.09375 0.328125 0 0.421875 0 C 0.5 0 0.546875 -0.03125 1.109375 -0.03125 C 1.640625 -0.03125 1.828125 0 1.875 0 C 1.90625 0 2.03125 0 2.03125 -0.15625 C 2.03125 -0.25 1.921875 -0.265625 1.890625 -0.265625 C 1.71875 -0.265625 1.546875 -0.328125 1.546875 -0.515625 C 1.546875 -0.625 1.609375 -0.734375 1.765625 -0.96875 L 2.3125 -1.84375 L 4.484375 -1.84375 L 4.65625 -0.5 C 4.65625 -0.375 4.515625 -0.265625 4.140625 -0.265625 C 4.015625 -0.265625 3.90625 -0.265625 3.90625 -0.109375 C 3.90625 -0.109375 3.921875 0 4.046875 0 C 4.125 0 4.4375 -0.015625 4.5 -0.03125 L 5 -0.03125 C 5.71875 -0.03125 5.859375 0 5.921875 0 C 5.953125 0 6.078125 0 6.078125 -0.15625 C 6.078125 -0.265625 5.96875 -0.265625 5.84375 -0.265625 C 5.40625 -0.265625 5.40625 -0.328125 5.375 -0.53125 L 4.75 -5.453125 C 4.71875 -5.625 4.71875 -5.671875 4.578125 -5.671875 C 4.4375 -5.671875 4.390625 -5.59375 4.34375 -5.515625 Z M 2.46875 -2.09375 L 4.125 -4.71875 L 4.453125 -2.09375 Z M 2.46875 -2.09375 "/>
</g>
<g id="glyph-1-3">
<path d="M 1.9375 -5.28125 C 1.953125 -5.296875 1.96875 -5.40625 1.96875 -5.40625 C 1.96875 -5.453125 1.9375 -5.515625 1.84375 -5.515625 C 1.8125 -5.515625 1.5625 -5.5 1.390625 -5.484375 L 0.9375 -5.453125 C 0.765625 -5.4375 0.6875 -5.421875 0.6875 -5.28125 C 0.6875 -5.171875 0.796875 -5.171875 0.890625 -5.171875 C 1.265625 -5.171875 1.265625 -5.125 1.265625 -5.046875 C 1.265625 -5 1.1875 -4.6875 1.140625 -4.5 L 0.453125 -1.734375 C 0.390625 -1.46875 0.390625 -1.34375 0.390625 -1.203125 C 0.390625 -0.390625 0.890625 0.078125 1.5 0.078125 C 2.484375 0.078125 3.5 -1.046875 3.5 -2.203125 C 3.5 -2.984375 2.984375 -3.5 2.359375 -3.5 C 1.90625 -3.5 1.5625 -3.21875 1.390625 -3.0625 Z M 1.5 -0.140625 C 1.21875 -0.140625 0.9375 -0.359375 0.9375 -0.953125 C 0.9375 -1.15625 0.96875 -1.359375 1.0625 -1.734375 C 1.109375 -1.96875 1.171875 -2.1875 1.234375 -2.421875 C 1.265625 -2.5625 1.265625 -2.578125 1.375 -2.703125 C 1.640625 -3.03125 2 -3.28125 2.328125 -3.28125 C 2.734375 -3.28125 2.875 -2.890625 2.875 -2.53125 C 2.875 -2.25 2.703125 -1.390625 2.46875 -0.921875 C 2.265625 -0.5 1.875 -0.140625 1.5 -0.140625 Z M 1.5 -0.140625 "/>
</g>
<g id="glyph-1-4">
<path d="M 1.59375 -1.296875 C 1.609375 -1.421875 1.6875 -1.71875 1.71875 -1.84375 C 1.828125 -2.28125 1.828125 -2.28125 2.015625 -2.546875 C 2.28125 -2.9375 2.640625 -3.28125 3.1875 -3.28125 C 3.46875 -3.28125 3.640625 -3.125 3.640625 -2.75 C 3.640625 -2.3125 3.296875 -1.40625 3.15625 -1.015625 C 3.046875 -0.75 3.046875 -0.703125 3.046875 -0.59375 C 3.046875 -0.140625 3.421875 0.078125 3.765625 0.078125 C 4.546875 0.078125 4.875 -1.03125 4.875 -1.140625 C 4.875 -1.21875 4.796875 -1.234375 4.75 -1.234375 C 4.65625 -1.234375 4.640625 -1.1875 4.609375 -1.109375 C 4.421875 -0.453125 4.09375 -0.140625 3.78125 -0.140625 C 3.65625 -0.140625 3.59375 -0.21875 3.59375 -0.40625 C 3.59375 -0.59375 3.65625 -0.765625 3.734375 -0.96875 C 3.859375 -1.265625 4.203125 -2.171875 4.203125 -2.625 C 4.203125 -3.21875 3.796875 -3.5 3.21875 -3.5 C 2.578125 -3.5 2.15625 -3.125 1.9375 -2.8125 C 1.875 -3.25 1.53125 -3.5 1.125 -3.5 C 0.828125 -3.5 0.640625 -3.328125 0.515625 -3.078125 C 0.3125 -2.703125 0.234375 -2.3125 0.234375 -2.296875 C 0.234375 -2.21875 0.296875 -2.1875 0.359375 -2.1875 C 0.46875 -2.1875 0.46875 -2.21875 0.53125 -2.421875 C 0.625 -2.8125 0.765625 -3.28125 1.09375 -3.28125 C 1.296875 -3.28125 1.359375 -3.078125 1.359375 -2.90625 C 1.359375 -2.765625 1.3125 -2.609375 1.25 -2.359375 C 1.234375 -2.296875 1.109375 -1.828125 1.078125 -1.703125 L 0.78125 -0.515625 C 0.75 -0.390625 0.703125 -0.203125 0.703125 -0.171875 C 0.703125 0.015625 0.859375 0.078125 0.96875 0.078125 C 1.109375 0.078125 1.21875 -0.015625 1.28125 -0.109375 C 1.296875 -0.15625 1.375 -0.421875 1.40625 -0.59375 Z M 1.59375 -1.296875 "/>
</g>
<g id="glyph-1-5">
<path d="M 2.265625 -2.90625 L 3.171875 -2.90625 C 3 -2.171875 2.859375 -1.59375 2.859375 -1 C 2.859375 -0.953125 2.859375 -0.609375 2.953125 -0.3125 C 3.046875 0.015625 3.140625 0.078125 3.28125 0.078125 C 3.453125 0.078125 3.640625 -0.078125 3.640625 -0.265625 C 3.640625 -0.3125 3.625 -0.328125 3.59375 -0.40625 C 3.421875 -0.765625 3.3125 -1.15625 3.3125 -1.8125 C 3.3125 -1.984375 3.3125 -2.328125 3.421875 -2.90625 L 4.390625 -2.90625 C 4.515625 -2.90625 4.609375 -2.90625 4.6875 -2.96875 C 4.78125 -3.046875 4.796875 -3.15625 4.796875 -3.203125 C 4.796875 -3.421875 4.609375 -3.421875 4.46875 -3.421875 L 1.59375 -3.421875 C 1.4375 -3.421875 1.125 -3.421875 0.734375 -3.046875 C 0.453125 -2.765625 0.234375 -2.390625 0.234375 -2.34375 C 0.234375 -2.265625 0.28125 -2.25 0.34375 -2.25 C 0.421875 -2.25 0.453125 -2.265625 0.5 -2.328125 C 0.875 -2.90625 1.359375 -2.90625 1.53125 -2.90625 L 2 -2.90625 C 1.765625 -2.0625 1.34375 -1.09375 1.046875 -0.515625 C 1 -0.390625 0.921875 -0.234375 0.921875 -0.171875 C 0.921875 0 1.046875 0.078125 1.171875 0.078125 C 1.484375 0.078125 1.5625 -0.21875 1.71875 -0.875 Z M 2.265625 -2.90625 "/>
</g>
<g id="glyph-1-6">
<path d="M 1.15625 -0.6875 C 1.4375 -0.984375 1.53125 -1.078125 2.234375 -1.65625 C 2.3125 -1.71875 2.875 -2.1875 3.078125 -2.390625 C 3.59375 -2.890625 3.890625 -3.328125 3.890625 -3.40625 C 3.890625 -3.484375 3.828125 -3.5 3.78125 -3.5 C 3.703125 -3.5 3.6875 -3.484375 3.609375 -3.375 C 3.359375 -3 3.1875 -2.9375 3.046875 -2.9375 C 2.890625 -2.9375 2.796875 -3 2.640625 -3.171875 C 2.4375 -3.359375 2.28125 -3.5 2.015625 -3.5 C 1.390625 -3.5 0.984375 -2.796875 0.984375 -2.578125 C 0.984375 -2.5625 0.984375 -2.484375 1.109375 -2.484375 C 1.1875 -2.484375 1.203125 -2.515625 1.234375 -2.59375 C 1.34375 -2.828125 1.6875 -2.90625 1.921875 -2.90625 C 2.109375 -2.90625 2.296875 -2.859375 2.484375 -2.8125 C 2.828125 -2.71875 2.890625 -2.71875 3.078125 -2.71875 C 2.90625 -2.546875 2.6875 -2.328125 2.078125 -1.828125 C 1.734375 -1.546875 1.40625 -1.265625 1.1875 -1.0625 C 0.609375 -0.484375 0.34375 -0.09375 0.34375 -0.015625 C 0.34375 0.0625 0.40625 0.078125 0.46875 0.078125 C 0.546875 0.078125 0.5625 0.0625 0.609375 0 C 0.765625 -0.234375 1.015625 -0.484375 1.3125 -0.484375 C 1.5 -0.484375 1.578125 -0.40625 1.71875 -0.265625 C 1.984375 -0.015625 2.125 0.078125 2.359375 0.078125 C 3.1875 0.078125 3.6875 -0.90625 3.6875 -1.15625 C 3.6875 -1.21875 3.625 -1.25 3.5625 -1.25 C 3.46875 -1.25 3.453125 -1.203125 3.421875 -1.125 C 3.28125 -0.734375 2.84375 -0.515625 2.4375 -0.515625 C 2.296875 -0.515625 2.109375 -0.5625 1.875 -0.625 C 1.546875 -0.703125 1.46875 -0.703125 1.34375 -0.703125 C 1.265625 -0.703125 1.21875 -0.703125 1.15625 -0.6875 Z M 1.15625 -0.6875 "/>
</g>
<g id="glyph-1-7">
<path d="M 1.921875 -2.8125 C 1.96875 -2.953125 2.03125 -3.21875 2.03125 -3.265625 C 2.03125 -3.421875 1.90625 -3.5 1.765625 -3.5 C 1.5 -3.5 1.4375 -3.25 1.40625 -3.140625 L 0.296875 1.28125 C 0.265625 1.40625 0.265625 1.453125 0.265625 1.46875 C 0.265625 1.65625 0.421875 1.703125 0.515625 1.703125 C 0.5625 1.703125 0.734375 1.703125 0.84375 1.5 C 0.859375 1.4375 1.09375 0.484375 1.25 -0.15625 C 1.390625 -0.046875 1.65625 0.078125 2.0625 0.078125 C 2.71875 0.078125 3.15625 -0.453125 3.171875 -0.484375 C 3.3125 0.0625 3.859375 0.078125 3.953125 0.078125 C 4.3125 0.078125 4.5 -0.21875 4.5625 -0.359375 C 4.71875 -0.640625 4.828125 -1.109375 4.828125 -1.140625 C 4.828125 -1.1875 4.796875 -1.234375 4.703125 -1.234375 C 4.609375 -1.234375 4.59375 -1.1875 4.546875 -1 C 4.4375 -0.5625 4.28125 -0.140625 3.984375 -0.140625 C 3.796875 -0.140625 3.71875 -0.296875 3.71875 -0.515625 C 3.71875 -0.65625 3.8125 -1 3.859375 -1.21875 L 4.078125 -2.03125 C 4.125 -2.25 4.15625 -2.40625 4.21875 -2.640625 C 4.265625 -2.828125 4.34375 -3.140625 4.34375 -3.1875 C 4.34375 -3.375 4.1875 -3.421875 4.09375 -3.421875 C 3.8125 -3.421875 3.765625 -3.234375 3.671875 -2.875 L 3.5 -2.21875 L 3.265625 -1.21875 L 3.1875 -0.90625 C 3.171875 -0.84375 2.953125 -0.546875 2.765625 -0.390625 C 2.625 -0.296875 2.40625 -0.140625 2.109375 -0.140625 C 1.734375 -0.140625 1.484375 -0.34375 1.484375 -0.828125 C 1.484375 -1.046875 1.546875 -1.28125 1.59375 -1.46875 Z M 1.921875 -2.8125 "/>
</g>
<g id="glyph-2-0">
<path d="M 0.953125 -1.734375 C 1.171875 -1.828125 1.34375 -1.984375 1.34375 -2.0625 C 1.34375 -2.125 1.28125 -2.125 1.25 -2.125 C 0.921875 -2.125 0.15625 -1.734375 0.15625 -1.015625 C 0.15625 -0.40625 0.921875 0.171875 1.890625 0.171875 C 3.328125 0.171875 4.84375 -0.734375 4.84375 -1.828125 C 4.84375 -2.5625 4.09375 -2.921875 3.359375 -3.1875 C 3.015625 -3.328125 2.28125 -3.609375 2.28125 -4.234375 C 2.28125 -4.5625 2.453125 -4.828125 2.609375 -4.9375 C 2.828125 -5.078125 3.1875 -5.140625 3.4375 -5.140625 C 3.546875 -5.140625 3.890625 -5.125 4.265625 -4.984375 C 4.4375 -4.921875 4.65625 -4.828125 4.65625 -4.46875 C 4.65625 -4.359375 4.640625 -4.328125 4.625 -4.25 C 4.625 -4.21875 4.609375 -4.1875 4.609375 -4.171875 C 4.609375 -4.140625 4.640625 -4.109375 4.6875 -4.109375 C 4.796875 -4.109375 5.015625 -4.21875 5.15625 -4.3125 C 5.25 -4.390625 5.359375 -4.484375 5.359375 -4.8125 C 5.359375 -5.234375 5.109375 -5.34375 4.90625 -5.4375 C 4.5 -5.59375 4.125 -5.59375 4 -5.59375 C 2.859375 -5.59375 1.5625 -4.796875 1.5625 -3.890625 C 1.5625 -3.1875 2.359375 -2.875 2.765625 -2.734375 C 3.359375 -2.5 4.140625 -2.171875 4.140625 -1.46875 C 4.140625 -1.1875 4 -0.75 3.609375 -0.546875 C 3.15625 -0.3125 2.5625 -0.296875 2.453125 -0.296875 C 1.578125 -0.296875 0.859375 -0.8125 0.859375 -1.359375 C 0.859375 -1.484375 0.890625 -1.625 0.953125 -1.734375 Z M 0.953125 -1.734375 "/>
</g>
<g id="glyph-2-1">
<path d="M 5.6875 -4.9375 C 5.796875 -4.984375 5.859375 -5.03125 5.859375 -5.140625 C 5.859375 -5.234375 5.78125 -5.328125 5.671875 -5.328125 C 5.671875 -5.328125 5.625 -5.328125 5.53125 -5.265625 L 0.859375 -3.015625 C 0.765625 -2.96875 0.703125 -2.921875 0.703125 -2.828125 C 0.703125 -2.71875 0.765625 -2.671875 0.859375 -2.625 L 5.53125 -0.375 C 5.640625 -0.328125 5.65625 -0.328125 5.671875 -0.328125 C 5.78125 -0.328125 5.859375 -0.40625 5.859375 -0.515625 C 5.859375 -0.609375 5.796875 -0.65625 5.6875 -0.703125 L 1.296875 -2.828125 Z M 5.5625 1.359375 C 5.6875 1.359375 5.859375 1.359375 5.859375 1.171875 C 5.859375 0.984375 5.671875 0.984375 5.546875 0.984375 L 1.015625 0.984375 C 0.875 0.984375 0.703125 0.984375 0.703125 1.171875 C 0.703125 1.359375 0.875 1.359375 1 1.359375 Z M 5.5625 1.359375 "/>
</g>
<g id="glyph-2-2">
<path d="M 3.25 -4.953125 C 4.5625 -4.953125 5.5 -3.96875 5.5 -2.828125 C 5.5 -1.6875 4.5625 -0.6875 3.25 -0.6875 L 1 -0.6875 C 0.875 -0.6875 0.703125 -0.6875 0.703125 -0.515625 C 0.703125 -0.328125 0.875 -0.328125 1 -0.328125 L 3.28125 -0.328125 C 4.703125 -0.328125 5.859375 -1.4375 5.859375 -2.828125 C 5.859375 -4.21875 4.703125 -5.328125 3.28125 -5.328125 L 1 -5.328125 C 0.875 -5.328125 0.703125 -5.328125 0.703125 -5.140625 C 0.703125 -4.953125 0.875 -4.953125 1 -4.953125 Z M 5.375 1.359375 C 5.5 1.359375 5.671875 1.359375 5.671875 1.171875 C 5.671875 0.984375 5.5 0.984375 5.375 0.984375 L 1 0.984375 C 0.875 0.984375 0.703125 0.984375 0.703125 1.171875 C 0.703125 1.359375 0.875 1.359375 1 1.359375 Z M 5.375 1.359375 "/>
</g>
<g id="glyph-2-3">
<path d="M 5.6875 -2.625 C 5.796875 -2.671875 5.859375 -2.71875 5.859375 -2.828125 C 5.859375 -2.921875 5.796875 -2.96875 5.6875 -3.015625 L 1.046875 -5.265625 C 0.9375 -5.328125 0.90625 -5.328125 0.875 -5.328125 C 0.78125 -5.328125 0.703125 -5.234375 0.703125 -5.140625 C 0.703125 -5.03125 0.765625 -4.984375 0.859375 -4.9375 L 5.25 -2.828125 L 0.90625 -0.71875 C 0.765625 -0.65625 0.703125 -0.625 0.703125 -0.515625 C 0.703125 -0.40625 0.78125 -0.328125 0.875 -0.328125 C 0.90625 -0.328125 0.921875 -0.328125 1.03125 -0.375 Z M 5.5625 1.359375 C 5.6875 1.359375 5.859375 1.359375 5.859375 1.171875 C 5.859375 0.984375 5.671875 0.984375 5.546875 0.984375 L 1.015625 0.984375 C 0.875 0.984375 0.703125 0.984375 0.703125 1.171875 C 0.703125 1.359375 0.875 1.359375 1 1.359375 Z M 5.5625 1.359375 "/>
</g>
<g id="glyph-3-0">
<path d="M 2.890625 -0.84375 C 2.8125 -1.4375 2.5 -2.625 1.59375 -2.625 C 0.765625 -2.625 0.28125 -1.8125 0.28125 -1.5625 C 0.28125 -1.484375 0.359375 -1.484375 0.375 -1.484375 C 0.46875 -1.484375 0.46875 -1.515625 0.5 -1.59375 C 0.625 -1.953125 1.09375 -2.140625 1.515625 -2.140625 C 2.46875 -2.140625 2.671875 -1.28125 2.671875 -0.53125 C 2.671875 -0.390625 2.671875 -0.25 2.625 -0.140625 C 2.484375 0.359375 2.328125 0.96875 2.328125 1.140625 C 2.328125 1.171875 2.34375 1.28125 2.4375 1.28125 C 2.546875 1.28125 2.609375 1.109375 2.65625 0.953125 C 2.65625 0.9375 2.8125 0.421875 2.875 -0.09375 C 2.890625 -0.328125 3.3125 -1.390625 3.796875 -2.3125 C 3.890625 -2.453125 3.890625 -2.46875 3.890625 -2.484375 C 3.890625 -2.546875 3.84375 -2.578125 3.78125 -2.578125 C 3.765625 -2.578125 3.71875 -2.578125 3.6875 -2.546875 C 3.671875 -2.515625 3.203125 -1.6875 2.890625 -0.84375 Z M 2.890625 -0.84375 "/>
</g>
<g id="glyph-3-1">
<path d="M 1.796875 -3.96875 C 1.796875 -3.984375 1.8125 -4.015625 1.8125 -4.046875 C 1.8125 -4.140625 1.6875 -4.140625 1.625 -4.140625 L 0.953125 -4.078125 C 0.84375 -4.078125 0.765625 -4.078125 0.765625 -3.921875 C 0.765625 -3.84375 0.84375 -3.84375 0.9375 -3.84375 C 1.109375 -3.84375 1.15625 -3.8125 1.234375 -3.796875 C 1.234375 -3.71875 1.234375 -3.71875 1.21875 -3.609375 L 0.484375 -0.71875 C 0.46875 -0.65625 0.453125 -0.59375 0.453125 -0.515625 C 0.453125 -0.15625 0.78125 0.0625 1.125 0.0625 C 1.375 0.0625 1.515625 -0.09375 1.59375 -0.234375 C 1.765625 -0.5 1.84375 -0.828125 1.84375 -0.859375 C 1.84375 -0.875 1.828125 -0.9375 1.71875 -0.9375 C 1.640625 -0.9375 1.625 -0.90625 1.59375 -0.8125 C 1.5 -0.375 1.359375 -0.140625 1.140625 -0.140625 C 0.921875 -0.140625 0.921875 -0.375 0.921875 -0.4375 C 0.921875 -0.53125 0.9375 -0.578125 0.953125 -0.640625 Z M 1.796875 -3.96875 "/>
</g>
<g id="glyph-3-2">
<path d="M 0.578125 0.71875 C 0.53125 0.875 0.53125 0.921875 0.28125 0.921875 C 0.203125 0.921875 0.15625 0.921875 0.140625 0.953125 C 0.125 0.984375 0.09375 1.0625 0.09375 1.078125 C 0.109375 1.09375 0.109375 1.15625 0.203125 1.15625 C 0.359375 1.15625 0.5625 1.140625 0.734375 1.140625 C 0.84375 1.140625 0.953125 1.140625 1.0625 1.140625 C 1.15625 1.140625 1.28125 1.15625 1.390625 1.15625 C 1.421875 1.15625 1.46875 1.15625 1.484375 1.109375 C 1.5 1.09375 1.515625 1.03125 1.515625 1 C 1.5 0.921875 1.4375 0.921875 1.34375 0.921875 C 1.203125 0.921875 1.046875 0.921875 1.046875 0.84375 C 1.046875 0.8125 1.09375 0.65625 1.109375 0.578125 L 1.328125 -0.296875 C 1.46875 -0.078125 1.6875 0.0625 1.984375 0.0625 C 2.765625 0.0625 3.578125 -0.765625 3.578125 -1.625 C 3.578125 -2.234375 3.140625 -2.625 2.609375 -2.625 C 2.125 -2.625 1.75 -2.25 1.71875 -2.203125 C 1.625 -2.5625 1.25 -2.625 1.078125 -2.625 C 0.796875 -2.625 0.65625 -2.4375 0.578125 -2.296875 C 0.4375 -2.046875 0.359375 -1.75 0.359375 -1.71875 C 0.359375 -1.65625 0.421875 -1.625 0.46875 -1.625 C 0.5625 -1.625 0.578125 -1.671875 0.609375 -1.765625 C 0.734375 -2.265625 0.875 -2.4375 1.0625 -2.4375 C 1.265625 -2.4375 1.265625 -2.1875 1.265625 -2.125 C 1.265625 -2.03125 1.265625 -2.015625 1.25 -1.953125 Z M 1.703125 -1.796875 C 1.734375 -1.890625 1.734375 -1.90625 1.84375 -2.03125 C 2.03125 -2.25 2.3125 -2.4375 2.59375 -2.4375 C 2.890625 -2.4375 3.0625 -2.21875 3.0625 -1.84375 C 3.0625 -1.640625 2.953125 -0.984375 2.71875 -0.625 C 2.515625 -0.3125 2.234375 -0.140625 1.984375 -0.140625 C 1.53125 -0.140625 1.421875 -0.609375 1.421875 -0.65625 C 1.421875 -0.6875 1.421875 -0.71875 1.4375 -0.734375 Z M 1.703125 -1.796875 "/>
</g>
<g id="glyph-3-3">
<path d="M 2.078125 -3.71875 C 2.078125 -3.875 1.96875 -3.96875 1.828125 -3.96875 C 1.671875 -3.96875 1.5 -3.8125 1.5 -3.640625 C 1.5 -3.484375 1.609375 -3.390625 1.734375 -3.390625 C 1.921875 -3.390625 2.078125 -3.578125 2.078125 -3.71875 Z M 1.71875 -1.640625 C 1.75 -1.703125 1.796875 -1.84375 1.828125 -1.890625 C 1.84375 -1.953125 1.859375 -2.015625 1.859375 -2.109375 C 1.859375 -2.453125 1.5625 -2.625 1.265625 -2.625 C 0.65625 -2.625 0.359375 -1.84375 0.359375 -1.71875 C 0.359375 -1.6875 0.390625 -1.625 0.46875 -1.625 C 0.5625 -1.625 0.578125 -1.671875 0.59375 -1.71875 C 0.765625 -2.296875 1.078125 -2.4375 1.234375 -2.4375 C 1.359375 -2.4375 1.40625 -2.359375 1.40625 -2.21875 C 1.40625 -2.09375 1.359375 -2.015625 1.359375 -1.96875 L 1.046875 -1.203125 C 0.96875 -1.03125 0.96875 -1.015625 0.890625 -0.8125 C 0.8125 -0.640625 0.78125 -0.5625 0.78125 -0.453125 C 0.78125 -0.15625 1.0625 0.0625 1.390625 0.0625 C 2 0.0625 2.296875 -0.734375 2.296875 -0.859375 C 2.296875 -0.875 2.28125 -0.9375 2.171875 -0.9375 C 2.09375 -0.9375 2.09375 -0.90625 2.046875 -0.796875 C 1.953125 -0.5 1.71875 -0.140625 1.40625 -0.140625 C 1.296875 -0.140625 1.25 -0.203125 1.25 -0.359375 C 1.25 -0.46875 1.28125 -0.5625 1.359375 -0.75 Z M 1.71875 -1.640625 "/>
</g>
<g id="glyph-4-0">
<path d="M 3.03125 -3.828125 L 4.9375 -3.828125 C 5.03125 -3.828125 5.1875 -3.828125 5.1875 -3.984375 C 5.1875 -4.140625 5.03125 -4.140625 4.9375 -4.140625 L 0.796875 -4.140625 C 0.703125 -4.140625 0.5625 -4.140625 0.5625 -3.984375 C 0.5625 -3.828125 0.703125 -3.828125 0.796875 -3.828125 L 2.71875 -3.828125 L 2.71875 -0.25 C 2.71875 -0.15625 2.71875 0 2.875 0 C 3.03125 0 3.03125 -0.15625 3.03125 -0.25 Z M 3.03125 -3.828125 "/>
</g>
<g id="glyph-5-0">
<path d="M 5.203125 -1.796875 C 5.203125 -2.40625 4.84375 -2.625 4.25 -2.625 C 3.703125 -2.625 3.375 -2.3125 3.234375 -2.09375 C 3.109375 -2.625 2.5 -2.625 2.328125 -2.625 C 1.78125 -2.625 1.453125 -2.328125 1.3125 -2.078125 L 1.296875 -2.078125 L 1.296875 -2.625 L 0.375 -2.5625 L 0.375 -2.328125 C 0.796875 -2.328125 0.84375 -2.296875 0.84375 -2 L 0.84375 -0.484375 C 0.84375 -0.234375 0.78125 -0.234375 0.375 -0.234375 L 0.375 0 C 0.421875 0 0.828125 -0.03125 1.09375 -0.03125 C 1.359375 -0.03125 1.75 0 1.8125 0 L 1.8125 -0.234375 C 1.40625 -0.234375 1.34375 -0.234375 1.34375 -0.484375 L 1.34375 -1.546875 C 1.34375 -2.203125 1.90625 -2.4375 2.28125 -2.4375 C 2.6875 -2.4375 2.78125 -2.1875 2.78125 -1.8125 L 2.78125 -0.484375 C 2.78125 -0.234375 2.71875 -0.234375 2.296875 -0.234375 L 2.296875 0 C 2.34375 0 2.75 -0.03125 3.015625 -0.03125 C 3.28125 -0.03125 3.6875 0 3.75 0 L 3.75 -0.234375 C 3.328125 -0.234375 3.265625 -0.234375 3.265625 -0.484375 L 3.265625 -1.546875 C 3.265625 -2.203125 3.84375 -2.4375 4.203125 -2.4375 C 4.609375 -2.4375 4.703125 -2.1875 4.703125 -1.8125 L 4.703125 -0.484375 C 4.703125 -0.234375 4.640625 -0.234375 4.234375 -0.234375 L 4.234375 0 C 4.28125 0 4.671875 -0.03125 4.953125 -0.03125 C 5.21875 -0.03125 5.609375 0 5.671875 0 L 5.671875 -0.234375 C 5.265625 -0.234375 5.203125 -0.234375 5.203125 -0.484375 Z M 5.203125 -1.796875 "/>
</g>
<g id="glyph-5-1">
<path d="M 2.828125 -1.78125 C 2.828125 -2.328125 2.265625 -2.65625 1.59375 -2.65625 C 1.3125 -2.65625 0.609375 -2.625 0.609375 -2.125 C 0.609375 -1.96875 0.71875 -1.84375 0.90625 -1.84375 C 1.078125 -1.84375 1.1875 -1.96875 1.1875 -2.125 C 1.1875 -2.234375 1.140625 -2.328125 1.03125 -2.375 C 1.234375 -2.46875 1.53125 -2.46875 1.59375 -2.46875 C 2.015625 -2.46875 2.34375 -2.21875 2.34375 -1.765625 L 2.34375 -1.609375 C 2.0625 -1.59375 1.59375 -1.59375 1.15625 -1.4375 C 0.765625 -1.296875 0.375 -1.03125 0.375 -0.625 C 0.375 -0.09375 1.015625 0.0625 1.484375 0.0625 C 1.984375 0.0625 2.28125 -0.1875 2.40625 -0.421875 C 2.453125 -0.109375 2.65625 0.03125 2.859375 0.03125 C 2.890625 0.03125 3.515625 0.03125 3.515625 -0.53125 L 3.515625 -0.859375 L 3.296875 -0.859375 L 3.296875 -0.546875 C 3.296875 -0.484375 3.296875 -0.21875 3.0625 -0.21875 C 2.828125 -0.21875 2.828125 -0.484375 2.828125 -0.546875 Z M 2.34375 -0.84375 C 2.34375 -0.234375 1.71875 -0.125 1.53125 -0.125 C 1.21875 -0.125 0.90625 -0.328125 0.90625 -0.625 C 0.90625 -0.96875 1.234375 -1.390625 2.34375 -1.4375 Z M 2.34375 -0.84375 "/>
</g>
<g id="glyph-5-2">
<path d="M 2.125 -1.390625 L 2.703125 -2.015625 C 3.015625 -2.3125 3.34375 -2.34375 3.515625 -2.34375 L 3.515625 -2.578125 C 3.4375 -2.5625 3.171875 -2.546875 2.984375 -2.546875 C 2.765625 -2.546875 2.40625 -2.5625 2.359375 -2.578125 L 2.359375 -2.34375 C 2.4375 -2.328125 2.484375 -2.28125 2.484375 -2.203125 C 2.484375 -2.109375 2.4375 -2.0625 2.265625 -1.859375 L 1.96875 -1.5625 L 1.453125 -2.109375 C 1.390625 -2.171875 1.390625 -2.1875 1.390625 -2.21875 C 1.390625 -2.3125 1.484375 -2.34375 1.546875 -2.34375 L 1.546875 -2.578125 C 1.40625 -2.5625 1 -2.546875 0.859375 -2.546875 C 0.734375 -2.546875 0.375 -2.5625 0.25 -2.578125 L 0.25 -2.34375 C 0.578125 -2.34375 0.703125 -2.328125 0.84375 -2.171875 L 1.625 -1.3125 C 1.671875 -1.28125 1.671875 -1.265625 1.671875 -1.265625 C 1.671875 -1.234375 1.140625 -0.6875 1.078125 -0.625 C 0.921875 -0.46875 0.703125 -0.234375 0.203125 -0.234375 L 0.203125 0 C 0.28125 0 0.546875 -0.03125 0.734375 -0.03125 C 0.828125 -0.03125 1.234375 -0.015625 1.359375 0 L 1.359375 -0.234375 C 1.28125 -0.234375 1.234375 -0.28125 1.234375 -0.359375 C 1.234375 -0.46875 1.3125 -0.546875 1.34375 -0.578125 C 1.5 -0.765625 1.671875 -0.9375 1.828125 -1.09375 L 2.359375 -0.53125 C 2.484375 -0.390625 2.484375 -0.375 2.484375 -0.359375 C 2.484375 -0.296875 2.421875 -0.234375 2.328125 -0.234375 L 2.328125 0 C 2.515625 -0.015625 2.96875 -0.03125 3.015625 -0.03125 C 3.234375 -0.03125 3.546875 0 3.625 0 L 3.625 -0.234375 C 3.328125 -0.234375 3.1875 -0.234375 3.015625 -0.40625 Z M 2.125 -1.390625 "/>
</g>
</g>
<clipPath id="clip-0">
<path clip-rule="nonzero" d="M 0.480469 7 L 91 7 L 91 78.621094 L 0.480469 78.621094 Z M 0.480469 7 "/>
</clipPath>
<clipPath id="clip-1">
<path clip-rule="nonzero" d="M 83 7 L 183 7 L 183 78.621094 L 83 78.621094 Z M 83 7 "/>
</clipPath>
<clipPath id="clip-2">
<path clip-rule="nonzero" d="M 174 7 L 274 7 L 274 78.621094 L 174 78.621094 Z M 174 7 "/>
</clipPath>
<clipPath id="clip-3">
<path clip-rule="nonzero" d="M 266 7 L 366 7 L 366 78.621094 L 266 78.621094 Z M 266 7 "/>
</clipPath>
<clipPath id="clip-4">
<path clip-rule="nonzero" d="M 357 7 L 448.28125 7 L 448.28125 78.621094 L 357 78.621094 Z M 357 7 "/>
</clipPath>
</defs>
<path fill-rule="nonzero" fill="rgb(91.999817%, 95.574951%, 97.584534%)" fill-opacity="1" d="M 77.539062 18.265625 L 4.851562 18.265625 C 3.753906 18.265625 2.867188 19.15625 2.867188 20.253906 L 2.867188 74.246094 C 2.867188 75.347656 3.753906 76.234375 4.851562 76.234375 L 77.539062 76.234375 C 78.636719 76.234375 79.523438 75.347656 79.523438 74.246094 L 79.523438 20.253906 C 79.523438 19.15625 78.636719 18.265625 77.539062 18.265625 Z M 77.539062 18.265625 "/>
<g clip-path="url(#clip-0)">
<path fill="none" stroke-width="0.79701" stroke-linecap="butt" stroke-linejoin="miter" stroke="rgb(0%, 44.706726%, 69.802856%)" stroke-opacity="1" stroke-miterlimit="10" d="M 36.431403 29.054339 L -36.431336 29.054339 C -37.531639 29.054339 -38.420495 28.161567 -38.420495 27.061264 L -38.420495 -27.061091 C -38.420495 -28.165309 -37.531639 -29.054166 -36.431336 -29.054166 L 36.431403 -29.054166 C 37.531706 -29.054166 38.420563 -28.165309 38.420563 -27.061091 L 38.420563 27.061264 C 38.420563 28.161567 37.531706 29.054339 36.431403 29.054339 Z M 36.431403 29.054339 " transform="matrix(0.997595, 0, 0, -0.997595, 41.195279, 47.250087)"/>
</g>
<g fill="rgb(0%, 0%, 0%)" fill-opacity="1">
<use xlink:href="#glyph-0-0" x="28.04997" y="39.491791"/>
<use xlink:href="#glyph-0-1" x="31.335295" y="39.491791"/>
<use xlink:href="#glyph-0-2" x="34.627776" y="39.491791"/>
<use xlink:href="#glyph-0-3" x="38.852106" y="39.491791"/>
<use xlink:href="#glyph-0-4" x="41.198426" y="39.491791"/>
<use xlink:href="#glyph-0-5" x="45.89186" y="39.491791"/>
<use xlink:href="#glyph-0-6" x="49.64629" y="39.491791"/>
</g>
<g fill="rgb(0%, 0%, 0%)" fill-opacity="1">
<use xlink:href="#glyph-0-7" x="24.033653" y="48.934027"/>
<use xlink:href="#glyph-0-8" x="27.365889" y="48.934027"/>
<use xlink:href="#glyph-0-1" x="32.059323" y="48.934027"/>
<use xlink:href="#glyph-0-1" x="35.351804" y="48.934027"/>
<use xlink:href="#glyph-0-9" x="38.644285" y="48.934027"/>
<use xlink:href="#glyph-0-10" x="42.868615" y="48.934027"/>
<use xlink:href="#glyph-0-2" x="47.092944" y="48.934027"/>
<use xlink:href="#glyph-0-0" x="51.317274" y="48.934027"/>
<use xlink:href="#glyph-0-5" x="54.602599" y="48.934027"/>
</g>
<g fill="rgb(0%, 0%, 0%)" fill-opacity="1">
<use xlink:href="#glyph-0-11" x="25.198844" y="58.375265"/>
</g>
<g fill="rgb(0%, 0%, 0%)" fill-opacity="1">
<use xlink:href="#glyph-1-0" x="24.922947" y="58.375265"/>
</g>
<g fill="rgb(0%, 0%, 0%)" fill-opacity="1">
<use xlink:href="#glyph-0-12" x="29.229171" y="58.375265"/>
</g>
<g fill="rgb(0%, 0%, 0%)" fill-opacity="1">
<use xlink:href="#glyph-0-7" x="34.390121" y="58.375265"/>
<use xlink:href="#glyph-0-5" x="37.722356" y="58.375265"/>
<use xlink:href="#glyph-0-0" x="41.476786" y="58.375265"/>
</g>
<g fill="rgb(0%, 0%, 0%)" fill-opacity="1">
<use xlink:href="#glyph-0-11" x="49.490281" y="56.366109"/>
</g>
<g fill="rgb(0%, 0%, 0%)" fill-opacity="1">
<use xlink:href="#glyph-2-0" x="47.579886" y="58.375265"/>
</g>
<g fill="rgb(0%, 0%, 0%)" fill-opacity="1">
<use xlink:href="#glyph-3-0" x="52.695553" y="59.369867"/>
</g>
<path fill-rule="nonzero" fill="rgb(91.999817%, 95.574951%, 97.584534%)" fill-opacity="1" d="M 169.132812 18.265625 L 96.449219 18.265625 C 95.347656 18.265625 94.460938 19.15625 94.460938 20.253906 L 94.460938 74.246094 C 94.460938 75.347656 95.347656 76.234375 96.449219 76.234375 L 169.132812 76.234375 C 170.230469 76.234375 171.121094 75.347656 171.121094 74.246094 L 171.121094 20.253906 C 171.121094 19.15625 170.230469 18.265625 169.132812 18.265625 Z M 169.132812 18.265625 "/>
<g clip-path="url(#clip-1)">
<path fill="none" stroke-width="0.79701" stroke-linecap="butt" stroke-linejoin="miter" stroke="rgb(0%, 44.706726%, 69.802856%)" stroke-opacity="1" stroke-miterlimit="10" d="M 128.245973 29.054339 L 55.387149 29.054339 C 54.282931 29.054339 53.394075 28.161567 53.394075 27.061264 L 53.394075 -27.061091 C 53.394075 -28.165309 54.282931 -29.054166 55.387149 -29.054166 L 128.245973 -29.054166 C 129.346276 -29.054166 130.239048 -28.165309 130.239048 -27.061091 L 130.239048 27.061264 C 130.239048 28.161567 129.346276 29.054339 128.245973 29.054339 Z M 128.245973 29.054339 " transform="matrix(0.997595, 0, 0, -0.997595, 41.195279, 47.250087)"/>
</g>
<g fill="rgb(0%, 0%, 0%)" fill-opacity="1">
<use xlink:href="#glyph-0-13" x="102.627175" y="35.075438"/>
<use xlink:href="#glyph-0-3" x="104.973495" y="35.075438"/>
<use xlink:href="#glyph-0-4" x="107.319815" y="35.075438"/>
<use xlink:href="#glyph-0-5" x="112.01325" y="35.075438"/>
<use xlink:href="#glyph-0-2" x="115.767679" y="35.075438"/>
<use xlink:href="#glyph-0-1" x="119.992009" y="35.075438"/>
<use xlink:href="#glyph-0-14" x="123.28449" y="35.075438"/>
<use xlink:href="#glyph-0-1" x="126.10071" y="35.075438"/>
<use xlink:href="#glyph-0-5" x="129.393191" y="35.075438"/>
<use xlink:href="#glyph-0-13" x="133.14762" y="35.075438"/>
<use xlink:href="#glyph-0-2" x="135.49394" y="35.075438"/>
<use xlink:href="#glyph-0-15" x="139.71827" y="35.075438"/>
<use xlink:href="#glyph-0-2" x="144.177152" y="35.075438"/>
<use xlink:href="#glyph-0-0" x="148.401482" y="35.075438"/>
<use xlink:href="#glyph-0-3" x="151.686807" y="35.075438"/>
<use xlink:href="#glyph-0-9" x="154.033127" y="35.075438"/>
<use xlink:href="#glyph-0-4" x="158.257457" y="35.075438"/>
</g>
<g fill="rgb(0%, 0%, 0%)" fill-opacity="1">
<use xlink:href="#glyph-0-16" x="105.419443" y="44.516676"/>
</g>
<g fill="rgb(0%, 0%, 0%)" fill-opacity="1">
<use xlink:href="#glyph-0-5" x="109.639798" y="44.516676"/>
<use xlink:href="#glyph-0-1" x="113.394227" y="44.516676"/>
<use xlink:href="#glyph-0-3" x="116.686708" y="44.516676"/>
<use xlink:href="#glyph-0-17" x="119.033028" y="44.516676"/>
<use xlink:href="#glyph-0-5" x="123.726463" y="44.516676"/>
</g>
<g fill="rgb(0%, 0%, 0%)" fill-opacity="1">
<use xlink:href="#glyph-0-1" x="127.488844" y="44.516676"/>
</g>
<g fill="rgb(0%, 0%, 0%)" fill-opacity="1">
<use xlink:href="#glyph-0-18" x="133.595954" y="44.516676"/>
</g>
<g fill="rgb(0%, 0%, 0%)" fill-opacity="1">
<use xlink:href="#glyph-0-9" x="138.519966" y="44.516676"/>
<use xlink:href="#glyph-0-8" x="142.744296" y="44.516676"/>
<use xlink:href="#glyph-0-4" x="147.43773" y="44.516676"/>
<use xlink:href="#glyph-0-6" x="152.131165" y="44.516676"/>
<use xlink:href="#glyph-0-7" x="156.8246" y="44.516676"/>
</g>
<g fill="rgb(0%, 0%, 0%)" fill-opacity="1">
<use xlink:href="#glyph-0-11" x="102.285998" y="53.958913"/>
</g>
<g fill="rgb(0%, 0%, 0%)" fill-opacity="1">
<use xlink:href="#glyph-1-0" x="102.0101" y="53.958913"/>
</g>
<g fill="rgb(0%, 0%, 0%)" fill-opacity="1">
<use xlink:href="#glyph-3-1" x="106.315284" y="51.152678"/>
</g>
<g fill="rgb(0%, 0%, 0%)" fill-opacity="1">
<use xlink:href="#glyph-0-19" x="109.207311" y="53.958913"/>
</g>
<g fill="rgb(0%, 0%, 0%)" fill-opacity="1">
<use xlink:href="#glyph-1-1" x="112.492636" y="53.958913"/>
</g>
<g fill="rgb(0%, 0%, 0%)" fill-opacity="1">
<use xlink:href="#glyph-0-20" x="117.248088" y="53.958913"/>
</g>
<g fill="rgb(0%, 0%, 0%)" fill-opacity="1">
<use xlink:href="#glyph-0-21" x="123.515012" y="53.958913"/>
</g>
<g fill="rgb(0%, 0%, 0%)" fill-opacity="1">
<use xlink:href="#glyph-1-2" x="133.067261" y="53.958913"/>
</g>
<g fill="rgb(0%, 0%, 0%)" fill-opacity="1">
<use xlink:href="#glyph-4-0" x="138.124596" y="51.152678"/>
</g>
<g fill="rgb(0%, 0%, 0%)" fill-opacity="1">
<use xlink:href="#glyph-1-1" x="144.363554" y="53.958913"/>
</g>
<g fill="rgb(0%, 0%, 0%)" fill-opacity="1">
<use xlink:href="#glyph-0-22" x="151.249856" y="53.958913"/>
</g>
<g fill="rgb(0%, 0%, 0%)" fill-opacity="1">
<use xlink:href="#glyph-1-3" x="159.951355" y="53.958913"/>
</g>
<g fill="rgb(0%, 0%, 0%)" fill-opacity="1">
<use xlink:href="#glyph-0-11" x="118.757288" y="63.400151"/>
</g>
<g fill="rgb(0%, 0%, 0%)" fill-opacity="1">
<use xlink:href="#glyph-1-0" x="118.48139" y="63.400151"/>
</g>
<g fill="rgb(0%, 0%, 0%)" fill-opacity="1">
<use xlink:href="#glyph-3-1" x="122.787571" y="60.593916"/>
</g>
<g fill="rgb(0%, 0%, 0%)" fill-opacity="1">
<use xlink:href="#glyph-2-1" x="130.948895" y="63.400151"/>
</g>
<g fill="rgb(0%, 0%, 0%)" fill-opacity="1">
<use xlink:href="#glyph-0-11" x="143.061344" y="63.400151"/>
</g>
<g fill="rgb(0%, 0%, 0%)" fill-opacity="1">
<use xlink:href="#glyph-1-0" x="142.785447" y="63.400151"/>
</g>
<path fill-rule="nonzero" fill="rgb(91.999817%, 95.574951%, 97.584534%)" fill-opacity="1" d="M 260.726562 18.265625 L 188.042969 18.265625 C 186.945312 18.265625 186.054688 19.15625 186.054688 20.253906 L 186.054688 74.246094 C 186.054688 75.347656 186.945312 76.234375 188.042969 76.234375 L 260.726562 76.234375 C 261.824219 76.234375 262.714844 75.347656 262.714844 74.246094 L 262.714844 20.253906 C 262.714844 19.15625 261.824219 18.265625 260.726562 18.265625 Z M 260.726562 18.265625 "/>
<g clip-path="url(#clip-2)">
<path fill="none" stroke-width="0.79701" stroke-linecap="butt" stroke-linejoin="miter" stroke="rgb(0%, 44.706726%, 69.802856%)" stroke-opacity="1" stroke-miterlimit="10" d="M 220.060543 29.054339 L 147.201719 29.054339 C 146.101417 29.054339 145.208645 28.161567 145.208645 27.061264 L 145.208645 -27.061091 C 145.208645 -28.165309 146.101417 -29.054166 147.201719 -29.054166 L 220.060543 -29.054166 C 221.160846 -29.054166 222.053618 -28.165309 222.053618 -27.061091 L 222.053618 27.061264 C 222.053618 28.161567 221.160846 29.054339 220.060543 29.054339 Z M 220.060543 29.054339 " transform="matrix(0.997595, 0, 0, -0.997595, 41.195279, 47.250087)"/>
</g>
<g fill="rgb(0%, 0%, 0%)" fill-opacity="1">
<use xlink:href="#glyph-0-23" x="194.296174" y="39.530697"/>
<use xlink:href="#glyph-0-3" x="198.989609" y="39.530697"/>
<use xlink:href="#glyph-0-16" x="201.335928" y="39.530697"/>
</g>
<g fill="rgb(0%, 0%, 0%)" fill-opacity="1">
<use xlink:href="#glyph-0-9" x="205.556283" y="39.530697"/>
<use xlink:href="#glyph-0-0" x="209.780613" y="39.530697"/>
<use xlink:href="#glyph-0-14" x="213.065938" y="39.530697"/>
<use xlink:href="#glyph-0-23" x="215.882157" y="39.530697"/>
</g>
<g fill="rgb(0%, 0%, 0%)" fill-opacity="1">
<use xlink:href="#glyph-0-9" x="220.81412" y="39.530697"/>
<use xlink:href="#glyph-0-3" x="225.03845" y="39.530697"/>
<use xlink:href="#glyph-0-4" x="227.38477" y="39.530697"/>
</g>
<g fill="rgb(0%, 0%, 0%)" fill-opacity="1">
<use xlink:href="#glyph-0-0" x="231.839677" y="39.530697"/>
</g>
<g fill="rgb(0%, 0%, 0%)" fill-opacity="1">
<use xlink:href="#glyph-0-24" x="237.939631" y="39.530697"/>
</g>
<g fill="rgb(0%, 0%, 0%)" fill-opacity="1">
<use xlink:href="#glyph-0-25" x="245.683043" y="39.530697"/>
<use xlink:href="#glyph-0-26" x="248.72507" y="39.530697"/>
</g>
<g fill="rgb(0%, 0%, 0%)" fill-opacity="1">
<use xlink:href="#glyph-0-19" x="198.966913" y="48.972933"/>
</g>
<g fill="rgb(0%, 0%, 0%)" fill-opacity="1">
<use xlink:href="#glyph-1-4" x="202.252238" y="48.972933"/>
</g>
<g fill="rgb(0%, 0%, 0%)" fill-opacity="1">
<use xlink:href="#glyph-3-2" x="207.378634" y="49.966538"/>
</g>
<g fill="rgb(0%, 0%, 0%)" fill-opacity="1">
<use xlink:href="#glyph-0-23" x="214.522411" y="48.972933"/>
<use xlink:href="#glyph-0-3" x="219.215846" y="48.972933"/>
<use xlink:href="#glyph-0-16" x="221.562166" y="48.972933"/>
</g>
<g fill="rgb(0%, 0%, 0%)" fill-opacity="1">
<use xlink:href="#glyph-0-9" x="225.78252" y="48.972933"/>
<use xlink:href="#glyph-0-0" x="230.00685" y="48.972933"/>
<use xlink:href="#glyph-0-7" x="233.292175" y="48.972933"/>
</g>
<g fill="rgb(0%, 0%, 0%)" fill-opacity="1">
<use xlink:href="#glyph-1-5" x="239.446991" y="48.972933"/>
</g>
<g fill="rgb(0%, 0%, 0%)" fill-opacity="1">
<use xlink:href="#glyph-3-3" x="244.294634" y="50.185011"/>
</g>
<g fill="rgb(0%, 0%, 0%)" fill-opacity="1">
<use xlink:href="#glyph-0-12" x="247.44903" y="48.972933"/>
</g>
<g fill="rgb(0%, 0%, 0%)" fill-opacity="1">
<use xlink:href="#glyph-0-18" x="205.935114" y="58.414172"/>
<use xlink:href="#glyph-0-3" x="210.628549" y="58.414172"/>
<use xlink:href="#glyph-0-4" x="212.974869" y="58.414172"/>
<use xlink:href="#glyph-0-2" x="217.668303" y="58.414172"/>
<use xlink:href="#glyph-0-1" x="221.892633" y="58.414172"/>
<use xlink:href="#glyph-0-27" x="225.185114" y="58.414172"/>
</g>
<g fill="rgb(0%, 0%, 0%)" fill-opacity="1">
<use xlink:href="#glyph-1-6" x="232.458626" y="58.414172"/>
</g>
<g fill="rgb(0%, 0%, 0%)" fill-opacity="1">
<use xlink:href="#glyph-3-3" x="236.388695" y="59.626249"/>
</g>
<g fill="rgb(0%, 0%, 0%)" fill-opacity="1">
<use xlink:href="#glyph-0-20" x="239.542092" y="58.414172"/>
</g>
<path fill-rule="nonzero" fill="rgb(91.999817%, 95.574951%, 97.584534%)" fill-opacity="1" d="M 352.320312 18.265625 L 279.636719 18.265625 C 278.539062 18.265625 277.648438 19.15625 277.648438 20.253906 L 277.648438 74.246094 C 277.648438 75.347656 278.539062 76.234375 279.636719 76.234375 L 352.320312 76.234375 C 353.417969 76.234375 354.308594 75.347656 354.308594 74.246094 L 354.308594 20.253906 C 354.308594 19.15625 353.417969 18.265625 352.320312 18.265625 Z M 352.320312 18.265625 "/>
<g clip-path="url(#clip-3)">
<path fill="none" stroke-width="0.79701" stroke-linecap="butt" stroke-linejoin="miter" stroke="rgb(0%, 44.706726%, 69.802856%)" stroke-opacity="1" stroke-miterlimit="10" d="M 311.875113 29.054339 L 239.016289 29.054339 C 237.915987 29.054339 237.023214 28.161567 237.023214 27.061264 L 237.023214 -27.061091 C 237.023214 -28.165309 237.915987 -29.054166 239.016289 -29.054166 L 311.875113 -29.054166 C 312.975416 -29.054166 313.868188 -28.165309 313.868188 -27.061091 L 313.868188 27.061264 C 313.868188 28.161567 312.975416 29.054339 311.875113 29.054339 Z M 311.875113 29.054339 " transform="matrix(0.997595, 0, 0, -0.997595, 41.195279, 47.250087)"/>
</g>
<g fill="rgb(0%, 0%, 0%)" fill-opacity="1">
<use xlink:href="#glyph-0-28" x="293.536918" y="38.900217"/>
<use xlink:href="#glyph-0-9" x="297.291348" y="38.900217"/>
<use xlink:href="#glyph-0-4" x="301.515678" y="38.900217"/>
<use xlink:href="#glyph-0-7" x="306.209113" y="38.900217"/>
<use xlink:href="#glyph-0-5" x="309.541348" y="38.900217"/>
<use xlink:href="#glyph-0-1" x="313.295778" y="38.900217"/>
<use xlink:href="#glyph-0-16" x="316.588258" y="38.900217"/>
</g>
<g fill="rgb(0%, 0%, 0%)" fill-opacity="1">
<use xlink:href="#glyph-0-2" x="320.578036" y="38.900217"/>
<use xlink:href="#glyph-0-0" x="324.802366" y="38.900217"/>
<use xlink:href="#glyph-0-3" x="328.087691" y="38.900217"/>
<use xlink:href="#glyph-0-16" x="330.43401" y="38.900217"/>
</g>
<g fill="rgb(0%, 0%, 0%)" fill-opacity="1">
<use xlink:href="#glyph-0-5" x="334.654365" y="38.900217"/>
</g>
<g fill="rgb(0%, 0%, 0%)" fill-opacity="1">
<use xlink:href="#glyph-0-6" x="288.495073" y="48.342453"/>
<use xlink:href="#glyph-0-9" x="293.188508" y="48.342453"/>
<use xlink:href="#glyph-0-29" x="297.412838" y="48.342453"/>
<use xlink:href="#glyph-0-3" x="304.452593" y="48.342453"/>
<use xlink:href="#glyph-0-4" x="306.798912" y="48.342453"/>
<use xlink:href="#glyph-0-2" x="311.492347" y="48.342453"/>
<use xlink:href="#glyph-0-0" x="315.716677" y="48.342453"/>
<use xlink:href="#glyph-0-3" x="319.002002" y="48.342453"/>
<use xlink:href="#glyph-0-4" x="321.348322" y="48.342453"/>
<use xlink:href="#glyph-0-10" x="326.041757" y="48.342453"/>
</g>
<g fill="rgb(0%, 0%, 0%)" fill-opacity="1">
<use xlink:href="#glyph-0-7" x="333.080716" y="48.342453"/>
<use xlink:href="#glyph-0-5" x="336.412952" y="48.342453"/>
<use xlink:href="#glyph-0-0" x="340.167381" y="48.342453"/>
</g>
<g fill="rgb(0%, 0%, 0%)" fill-opacity="1">
<use xlink:href="#glyph-0-30" x="292.367737" y="57.783692"/>
<use xlink:href="#glyph-0-9" x="294.949404" y="57.783692"/>
<use xlink:href="#glyph-0-1" x="299.173734" y="57.783692"/>
</g>
<g fill="rgb(0%, 0%, 0%)" fill-opacity="1">
<use xlink:href="#glyph-0-11" x="307.191998" y="55.774535"/>
</g>
<g fill="rgb(0%, 0%, 0%)" fill-opacity="1">
<use xlink:href="#glyph-2-0" x="305.281603" y="57.783692"/>
</g>
<g fill="rgb(0%, 0%, 0%)" fill-opacity="1">
<use xlink:href="#glyph-3-1" x="310.979866" y="54.978455"/>
</g>
<g fill="rgb(0%, 0%, 0%)" fill-opacity="1">
<use xlink:href="#glyph-3-0" x="310.39727" y="59.771898"/>
</g>
<g fill="rgb(0%, 0%, 0%)" fill-opacity="1">
<use xlink:href="#glyph-2-2" x="319.146178" y="57.783692"/>
</g>
<g fill="rgb(0%, 0%, 0%)" fill-opacity="1">
<use xlink:href="#glyph-0-11" x="331.604143" y="55.774535"/>
</g>
<g fill="rgb(0%, 0%, 0%)" fill-opacity="1">
<use xlink:href="#glyph-2-0" x="329.693749" y="57.783692"/>
</g>
<g fill="rgb(0%, 0%, 0%)" fill-opacity="1">
<use xlink:href="#glyph-3-0" x="334.809416" y="58.778294"/>
</g>
<path fill-rule="nonzero" fill="rgb(98.353577%, 93.685913%, 89.99939%)" fill-opacity="1" d="M 443.914062 18.265625 L 371.230469 18.265625 C 370.132812 18.265625 369.242188 19.15625 369.242188 20.253906 L 369.242188 74.246094 C 369.242188 75.347656 370.132812 76.234375 371.230469 76.234375 L 443.914062 76.234375 C 445.011719 76.234375 445.902344 75.347656 445.902344 74.246094 L 445.902344 20.253906 C 445.902344 19.15625 445.011719 18.265625 443.914062 18.265625 Z M 443.914062 18.265625 "/>
<g clip-path="url(#clip-4)">
<path fill="none" stroke-width="0.79701" stroke-linecap="butt" stroke-linejoin="miter" stroke="rgb(83.529663%, 36.863708%, 0%)" stroke-opacity="1" stroke-miterlimit="10" d="M 403.689683 29.054339 L 330.830859 29.054339 C 329.730556 29.054339 328.837784 28.161567 328.837784 27.061264 L 328.837784 -27.061091 C 328.837784 -28.165309 329.730556 -29.054166 330.830859 -29.054166 L 403.689683 -29.054166 C 404.789985 -29.054166 405.682758 -28.165309 405.682758 -27.061091 L 405.682758 27.061264 C 405.682758 28.161567 404.789985 29.054339 403.689683 29.054339 Z M 403.689683 29.054339 " transform="matrix(0.997595, 0, 0, -0.997595, 41.195279, 47.250087)"/>
</g>
<g fill="rgb(0%, 0%, 0%)" fill-opacity="1">
<use xlink:href="#glyph-0-8" x="383.863154" y="35.075438"/>
<use xlink:href="#glyph-0-23" x="388.556589" y="35.075438"/>
<use xlink:href="#glyph-0-23" x="393.250024" y="35.075438"/>
</g>
<g fill="rgb(0%, 0%, 0%)" fill-opacity="1">
<use xlink:href="#glyph-0-5" x="398.174035" y="35.075438"/>
<use xlink:href="#glyph-0-1" x="401.928465" y="35.075438"/>
<use xlink:href="#glyph-0-14" x="405.220946" y="35.075438"/>
<use xlink:href="#glyph-0-18" x="408.037166" y="35.075438"/>
</g>
<g fill="rgb(0%, 0%, 0%)" fill-opacity="1">
<use xlink:href="#glyph-0-9" x="412.969129" y="35.075438"/>
<use xlink:href="#glyph-0-8" x="417.193459" y="35.075438"/>
<use xlink:href="#glyph-0-4" x="421.886893" y="35.075438"/>
<use xlink:href="#glyph-0-6" x="426.580328" y="35.075438"/>
</g>
<g fill="rgb(0%, 0%, 0%)" fill-opacity="1">
<use xlink:href="#glyph-0-5" x="392.056401" y="44.516676"/>
<use xlink:href="#glyph-0-7" x="395.810831" y="44.516676"/>
<use xlink:href="#glyph-0-0" x="399.143066" y="44.516676"/>
<use xlink:href="#glyph-0-3" x="402.428391" y="44.516676"/>
<use xlink:href="#glyph-0-29" x="404.774711" y="44.516676"/>
<use xlink:href="#glyph-0-2" x="411.814466" y="44.516676"/>
<use xlink:href="#glyph-0-0" x="416.038796" y="44.516676"/>
<use xlink:href="#glyph-0-5" x="419.324121" y="44.516676"/>
</g>
<path fill="none" stroke-width="0.398" stroke-linecap="butt" stroke-linejoin="miter" stroke="rgb(0%, 0%, 0%)" stroke-opacity="1" stroke-miterlimit="10" d="M 0.000752918 -0.00101191 L 5.095036 -0.00101191 " transform="matrix(0.997595, 0, 0, -0.997595, 392.819561, 49.143522)"/>
<g fill="rgb(0%, 0%, 0%)" fill-opacity="1">
<use xlink:href="#glyph-1-7" x="392.819561" y="53.958913"/>
</g>
<g fill="rgb(0%, 0%, 0%)" fill-opacity="1">
<use xlink:href="#glyph-2-3" x="403.109657" y="53.958913"/>
</g>
<g fill="rgb(0%, 0%, 0%)" fill-opacity="1">
<use xlink:href="#glyph-1-7" x="414.888167" y="53.958913"/>
</g>
<g fill="rgb(0%, 0%, 0%)" fill-opacity="1">
<use xlink:href="#glyph-0-31" x="419.970402" y="53.958913"/>
</g>
<g fill="rgb(0%, 0%, 0%)" fill-opacity="1">
<use xlink:href="#glyph-0-28" x="372.787855" y="63.400151"/>
<use xlink:href="#glyph-0-5" x="376.542285" y="63.400151"/>
<use xlink:href="#glyph-0-1" x="380.296715" y="63.400151"/>
<use xlink:href="#glyph-0-0" x="383.589195" y="63.400151"/>
<use xlink:href="#glyph-0-3" x="386.87452" y="63.400151"/>
<use xlink:href="#glyph-0-30" x="389.22084" y="63.400151"/>
<use xlink:href="#glyph-0-27" x="391.802508" y="63.400151"/>
</g>
<g fill="rgb(0%, 0%, 0%)" fill-opacity="1">
<use xlink:href="#glyph-0-3" x="399.07602" y="63.400151"/>
<use xlink:href="#glyph-0-30" x="401.422339" y="63.400151"/>
</g>
<path fill="none" stroke-width="0.398" stroke-linecap="butt" stroke-linejoin="miter" stroke="rgb(0%, 0%, 0%)" stroke-opacity="1" stroke-miterlimit="10" d="M -0.00049502 -0.000180085 L 5.093788 -0.000180085 " transform="matrix(0.997595, 0, 0, -0.997595, 406.820806, 58.585758)"/>
<g fill="rgb(0%, 0%, 0%)" fill-opacity="1">
<use xlink:href="#glyph-1-7" x="406.820806" y="63.400151"/>
</g>
<g fill="rgb(0%, 0%, 0%)" fill-opacity="1">
<use xlink:href="#glyph-2-1" x="414.328076" y="63.400151"/>
</g>
<g fill="rgb(0%, 0%, 0%)" fill-opacity="1">
<use xlink:href="#glyph-1-7" x="423.32376" y="63.400151"/>
</g>
<g fill="rgb(0%, 0%, 0%)" fill-opacity="1">
<use xlink:href="#glyph-5-0" x="428.406766" y="64.393756"/>
<use xlink:href="#glyph-5-1" x="434.369989" y="64.393756"/>
<use xlink:href="#glyph-5-2" x="438.014115" y="64.393756"/>
</g>
<path fill="none" stroke-width="0.79701" stroke-linecap="butt" stroke-linejoin="miter" stroke="rgb(33.332825%, 33.332825%, 33.332825%)" stroke-opacity="1" stroke-miterlimit="10" d="M 38.819961 0.000086791 L 49.49407 0.000086791 " transform="matrix(0.997595, 0, 0, -0.997595, 41.195279, 47.250087)"/>
<path fill-rule="nonzero" fill="rgb(33.332825%, 33.332825%, 33.332825%)" fill-opacity="1" stroke-width="0.79701" stroke-linecap="butt" stroke-linejoin="miter" stroke="rgb(33.332825%, 33.332825%, 33.332825%)" stroke-opacity="1" stroke-miterlimit="10" d="M 4.534243 0.000086791 L 1.288155 1.229606 L 2.368879 0.000086791 L 1.288155 -1.229433 Z M 4.534243 0.000086791 " transform="matrix(0.997595, 0, 0, -0.997595, 88.40635, 47.250087)"/>
<path fill="none" stroke-width="0.79701" stroke-linecap="butt" stroke-linejoin="miter" stroke="rgb(33.332825%, 33.332825%, 33.332825%)" stroke-opacity="1" stroke-miterlimit="10" d="M 130.63453 0.000086791 L 141.30864 0.000086791 " transform="matrix(0.997595, 0, 0, -0.997595, 41.195279, 47.250087)"/>
<path fill-rule="nonzero" fill="rgb(33.332825%, 33.332825%, 33.332825%)" fill-opacity="1" stroke-width="0.79701" stroke-linecap="butt" stroke-linejoin="miter" stroke="rgb(33.332825%, 33.332825%, 33.332825%)" stroke-opacity="1" stroke-miterlimit="10" d="M 4.533723 0.000086791 L 1.287635 1.229606 L 2.368359 0.000086791 L 1.287635 -1.229433 Z M 4.533723 0.000086791 " transform="matrix(0.997595, 0, 0, -0.997595, 180.000618, 47.250087)"/>
<path fill="none" stroke-width="0.79701" stroke-linecap="butt" stroke-linejoin="miter" stroke="rgb(33.332825%, 33.332825%, 33.332825%)" stroke-opacity="1" stroke-miterlimit="10" d="M 222.4491 0.000086791 L 233.127125 0.000086791 " transform="matrix(0.997595, 0, 0, -0.997595, 41.195279, 47.250087)"/>
<path fill-rule="nonzero" fill="rgb(33.332825%, 33.332825%, 33.332825%)" fill-opacity="1" stroke-width="0.79701" stroke-linecap="butt" stroke-linejoin="miter" stroke="rgb(33.332825%, 33.332825%, 33.332825%)" stroke-opacity="1" stroke-miterlimit="10" d="M 4.533173 0.000086791 L 1.287085 1.229606 L 2.371724 0.000086791 L 1.287085 -1.229433 Z M 4.533173 0.000086791 " transform="matrix(0.997595, 0, 0, -0.997595, 271.594917, 47.250087)"/>
<path fill="none" stroke-width="0.79701" stroke-linecap="butt" stroke-linejoin="miter" stroke="rgb(33.332825%, 33.332825%, 33.332825%)" stroke-opacity="1" stroke-miterlimit="10" d="M 314.267586 0.000086791 L 324.941695 0.000086791 " transform="matrix(0.997595, 0, 0, -0.997595, 41.195279, 47.250087)"/>
<path fill-rule="nonzero" fill="rgb(33.332825%, 33.332825%, 33.332825%)" fill-opacity="1" stroke-width="0.79701" stroke-linecap="butt" stroke-linejoin="miter" stroke="rgb(33.332825%, 33.332825%, 33.332825%)" stroke-opacity="1" stroke-miterlimit="10" d="M 4.532653 0.000086791 L 1.286564 1.229606 L 2.371204 0.000086791 L 1.286564 -1.229433 Z M 4.532653 0.000086791 " transform="matrix(0.997595, 0, 0, -0.997595, 363.189186, 47.250087)"/>
<g fill="rgb(33.332825%, 33.332825%, 33.332825%)" fill-opacity="1">
<use xlink:href="#glyph-0-32" x="8.02425" y="10.82191"/>
<use xlink:href="#glyph-0-5" x="14.47325" y="10.82191"/>
<use xlink:href="#glyph-0-5" x="18.22768" y="10.82191"/>
<use xlink:href="#glyph-0-23" x="21.98211" y="10.82191"/>
</g>
<g fill="rgb(33.332825%, 33.332825%, 33.332825%)" fill-opacity="1">
<use xlink:href="#glyph-0-25" x="29.490174" y="10.82191"/>
<use xlink:href="#glyph-0-33" x="32.532201" y="10.82191"/>
</g>
<g fill="rgb(33.332825%, 33.332825%, 33.332825%)" fill-opacity="1">
<use xlink:href="#glyph-0-7" x="40.040265" y="10.82191"/>
<use xlink:href="#glyph-0-8" x="43.3725" y="10.82191"/>
<use xlink:href="#glyph-0-1" x="48.065935" y="10.82191"/>
<use xlink:href="#glyph-0-1" x="51.358416" y="10.82191"/>
<use xlink:href="#glyph-0-9" x="54.650897" y="10.82191"/>
<use xlink:href="#glyph-0-10" x="58.875227" y="10.82191"/>
<use xlink:href="#glyph-0-2" x="63.099556" y="10.82191"/>
<use xlink:href="#glyph-0-0" x="67.323886" y="10.82191"/>
<use xlink:href="#glyph-0-5" x="70.609211" y="10.82191"/>
</g>
<g fill="rgb(33.332825%, 33.332825%, 33.332825%)" fill-opacity="1">
<use xlink:href="#glyph-0-34" x="109.512575" y="12.368182"/>
<use xlink:href="#glyph-0-8" x="115.839927" y="12.368182"/>
<use xlink:href="#glyph-0-0" x="120.533361" y="12.368182"/>
<use xlink:href="#glyph-0-9" x="123.818686" y="12.368182"/>
<use xlink:href="#glyph-0-14" x="128.043016" y="12.368182"/>
<use xlink:href="#glyph-0-35" x="130.859236" y="12.368182"/>
<use xlink:href="#glyph-0-3" x="136.135474" y="12.368182"/>
<use xlink:href="#glyph-0-36" x="138.481794" y="12.368182"/>
<use xlink:href="#glyph-0-26" x="144.696242" y="12.368182"/>
</g>
<g fill="rgb(33.332825%, 33.332825%, 33.332825%)" fill-opacity="1">
<use xlink:href="#glyph-0-34" x="149.733952" y="12.368182"/>
</g>
<g fill="rgb(33.332825%, 33.332825%, 33.332825%)" fill-opacity="1">
<use xlink:href="#glyph-0-7" x="184.226451" y="10.82191"/>
<use xlink:href="#glyph-0-3" x="187.558686" y="10.82191"/>
<use xlink:href="#glyph-0-37" x="189.905006" y="10.82191"/>
<use xlink:href="#glyph-0-5" x="193.659436" y="10.82191"/>
</g>
<g fill="rgb(33.332825%, 33.332825%, 33.332825%)" fill-opacity="1">
<use xlink:href="#glyph-0-3" x="200.228495" y="10.82191"/>
<use xlink:href="#glyph-0-4" x="202.574815" y="10.82191"/>
<use xlink:href="#glyph-0-6" x="207.26825" y="10.82191"/>
<use xlink:href="#glyph-0-5" x="211.961685" y="10.82191"/>
<use xlink:href="#glyph-0-23" x="215.716114" y="10.82191"/>
<use xlink:href="#glyph-0-38" x="220.409549" y="10.82191"/>
</g>
<g fill="rgb(33.332825%, 33.332825%, 33.332825%)" fill-opacity="1">
<use xlink:href="#glyph-0-9" x="225.57845" y="10.82191"/>
</g>
<g fill="rgb(33.332825%, 33.332825%, 33.332825%)" fill-opacity="1">
<use xlink:href="#glyph-0-30" x="229.794829" y="10.82191"/>
</g>
<g fill="rgb(33.332825%, 33.332825%, 33.332825%)" fill-opacity="1">
<use xlink:href="#glyph-0-4" x="235.199077" y="10.82191"/>
<use xlink:href="#glyph-0-5" x="239.892511" y="10.82191"/>
<use xlink:href="#glyph-0-0" x="243.646941" y="10.82191"/>
</g>
<g fill="rgb(33.332825%, 33.332825%, 33.332825%)" fill-opacity="1">
<use xlink:href="#glyph-0-39" x="246.693738" y="10.82191"/>
</g>
<g fill="rgb(33.332825%, 33.332825%, 33.332825%)" fill-opacity="1">
<use xlink:href="#glyph-0-9" x="252.564706" y="10.82191"/>
<use xlink:href="#glyph-0-1" x="256.789036" y="10.82191"/>
</g>
<g fill="rgb(33.332825%, 33.332825%, 33.332825%)" fill-opacity="1">
<use xlink:href="#glyph-0-40" x="260.073566" y="10.82191"/>
</g>
<g fill="rgb(33.332825%, 33.332825%, 33.332825%)" fill-opacity="1">
<use xlink:href="#glyph-0-9" x="278.185927" y="10.82191"/>
<use xlink:href="#glyph-0-8" x="282.410257" y="10.82191"/>
<use xlink:href="#glyph-0-0" x="287.103692" y="10.82191"/>
<use xlink:href="#glyph-0-5" x="290.389017" y="10.82191"/>
<use xlink:href="#glyph-0-1" x="294.143447" y="10.82191"/>
</g>
<g fill="rgb(33.332825%, 33.332825%, 33.332825%)" fill-opacity="1">
<use xlink:href="#glyph-0-2" x="300.250557" y="10.82191"/>
<use xlink:href="#glyph-0-23" x="304.474887" y="10.82191"/>
<use xlink:href="#glyph-0-23" x="309.168322" y="10.82191"/>
<use xlink:href="#glyph-0-1" x="313.861756" y="10.82191"/>
<use xlink:href="#glyph-0-9" x="317.154237" y="10.82191"/>
</g>
<g fill="rgb(33.332825%, 33.332825%, 33.332825%)" fill-opacity="1">
<use xlink:href="#glyph-0-15" x="321.14799" y="10.82191"/>
</g>
<g fill="rgb(33.332825%, 33.332825%, 33.332825%)" fill-opacity="1">
<use xlink:href="#glyph-0-3" x="325.598921" y="10.82191"/>
</g>
<g fill="rgb(33.332825%, 33.332825%, 33.332825%)" fill-opacity="1">
<use xlink:href="#glyph-0-29" x="327.953192" y="10.82191"/>
<use xlink:href="#glyph-0-2" x="334.992947" y="10.82191"/>
<use xlink:href="#glyph-0-0" x="339.217277" y="10.82191"/>
<use xlink:href="#glyph-0-3" x="342.502602" y="10.82191"/>
<use xlink:href="#glyph-0-9" x="344.848921" y="10.82191"/>
<use xlink:href="#glyph-0-4" x="349.073251" y="10.82191"/>
</g>
<g fill="rgb(83.529663%, 36.863708%, 0%)" fill-opacity="1">
<use xlink:href="#glyph-0-7" x="380.886331" y="10.82191"/>
<use xlink:href="#glyph-0-2" x="384.218566" y="10.82191"/>
<use xlink:href="#glyph-0-30" x="388.442896" y="10.82191"/>
<use xlink:href="#glyph-0-5" x="391.024563" y="10.82191"/>
<use xlink:href="#glyph-0-0" x="394.778993" y="10.82191"/>
</g>
<g fill="rgb(83.529663%, 36.863708%, 0%)" fill-opacity="1">
<use xlink:href="#glyph-0-27" x="397.82579" y="10.82191"/>
</g>
<g fill="rgb(83.529663%, 36.863708%, 0%)" fill-opacity="1">
<use xlink:href="#glyph-0-6" x="405.107253" y="10.82191"/>
<use xlink:href="#glyph-0-5" x="409.800688" y="10.82191"/>
<use xlink:href="#glyph-0-28" x="413.555118" y="10.82191"/>
<use xlink:href="#glyph-0-3" x="417.309548" y="10.82191"/>
<use xlink:href="#glyph-0-7" x="419.655867" y="10.82191"/>
<use xlink:href="#glyph-0-3" x="422.988103" y="10.82191"/>
<use xlink:href="#glyph-0-9" x="425.334423" y="10.82191"/>
<use xlink:href="#glyph-0-4" x="429.558752" y="10.82191"/>
</g>
</svg>
