<?xml version="1.0" encoding="UTF-8"?>
<svg xmlns="http://www.w3.org/2000/svg" xmlns:xlink="http://www.w3.org/1999/xlink" width="327.531875pt" height="165.568pt" viewBox="0 0 327.531875 165.568">
<defs>
<g>
<g id="glyph-0-0">
<path d="M 1.453125 -5.34375 L 1.453125 -4.015625 L 2.390625 -4.015625 L 2.390625 -3.71875 L 1.453125 -3.71875 L 1.453125 -1.109375 C 1.453125 -0.847656 1.488281 -0.671875 1.5625 -0.578125 C 1.632812 -0.484375 1.726562 -0.4375 1.84375 -0.4375 C 1.9375 -0.4375 2.03125 -0.46875 2.125 -0.53125 C 2.21875 -0.59375 2.289062 -0.679688 2.34375 -0.796875 L 2.515625 -0.796875 C 2.410156 -0.515625 2.265625 -0.300781 2.078125 -0.15625 C 1.890625 -0.0078125 1.695312 0.0625 1.5 0.0625 C 1.363281 0.0625 1.226562 0.0234375 1.09375 -0.046875 C 0.96875 -0.117188 0.875 -0.222656 0.8125 -0.359375 C 0.75 -0.503906 0.71875 -0.722656 0.71875 -1.015625 L 0.71875 -3.71875 L 0.09375 -3.71875 L 0.09375 -3.859375 C 0.25 -3.921875 0.410156 -4.023438 0.578125 -4.171875 C 0.742188 -4.328125 0.894531 -4.515625 1.03125 -4.734375 C 1.09375 -4.835938 1.1875 -5.039062 1.3125 -5.34375 Z M 1.453125 -5.34375 "/>
</g>
<g id="glyph-0-1">
<path d="M 1.296875 -6.234375 C 1.421875 -6.234375 1.523438 -6.191406 1.609375 -6.109375 C 1.703125 -6.023438 1.75 -5.921875 1.75 -5.796875 C 1.75 -5.671875 1.703125 -5.5625 1.609375 -5.46875 C 1.523438 -5.382812 1.421875 -5.34375 1.296875 -5.34375 C 1.179688 -5.34375 1.078125 -5.382812 0.984375 -5.46875 C 0.898438 -5.5625 0.859375 -5.671875 0.859375 -5.796875 C 0.859375 -5.921875 0.898438 -6.023438 0.984375 -6.109375 C 1.066406 -6.191406 1.171875 -6.234375 1.296875 -6.234375 Z M 1.671875 -4.140625 L 1.671875 -0.90625 C 1.671875 -0.65625 1.6875 -0.488281 1.71875 -0.40625 C 1.757812 -0.320312 1.8125 -0.257812 1.875 -0.21875 C 1.945312 -0.175781 2.082031 -0.15625 2.28125 -0.15625 L 2.28125 0 L 0.328125 0 L 0.328125 -0.15625 C 0.523438 -0.15625 0.65625 -0.171875 0.71875 -0.203125 C 0.789062 -0.242188 0.84375 -0.304688 0.875 -0.390625 C 0.914062 -0.484375 0.9375 -0.65625 0.9375 -0.90625 L 0.9375 -2.453125 C 0.9375 -2.890625 0.925781 -3.171875 0.90625 -3.296875 C 0.882812 -3.390625 0.847656 -3.453125 0.796875 -3.484375 C 0.753906 -3.523438 0.695312 -3.546875 0.625 -3.546875 C 0.539062 -3.546875 0.441406 -3.523438 0.328125 -3.484375 L 0.265625 -3.640625 L 1.46875 -4.140625 Z M 1.671875 -4.140625 "/>
</g>
<g id="glyph-0-2">
<path d="M 1.46875 -3.28125 C 1.757812 -3.570312 1.929688 -3.738281 1.984375 -3.78125 C 2.117188 -3.894531 2.257812 -3.984375 2.40625 -4.046875 C 2.5625 -4.109375 2.71875 -4.140625 2.875 -4.140625 C 3.125 -4.140625 3.335938 -4.066406 3.515625 -3.921875 C 3.703125 -3.773438 3.820312 -3.5625 3.875 -3.28125 C 4.175781 -3.632812 4.429688 -3.863281 4.640625 -3.96875 C 4.847656 -4.082031 5.0625 -4.140625 5.28125 -4.140625 C 5.5 -4.140625 5.691406 -4.082031 5.859375 -3.96875 C 6.023438 -3.863281 6.15625 -3.6875 6.25 -3.4375 C 6.3125 -3.269531 6.34375 -3.003906 6.34375 -2.640625 L 6.34375 -0.90625 C 6.34375 -0.65625 6.363281 -0.484375 6.40625 -0.390625 C 6.425781 -0.328125 6.476562 -0.269531 6.5625 -0.21875 C 6.644531 -0.175781 6.773438 -0.15625 6.953125 -0.15625 L 6.953125 0 L 4.96875 0 L 4.96875 -0.15625 L 5.046875 -0.15625 C 5.222656 -0.15625 5.359375 -0.191406 5.453125 -0.265625 C 5.515625 -0.304688 5.5625 -0.378906 5.59375 -0.484375 C 5.601562 -0.535156 5.609375 -0.675781 5.609375 -0.90625 L 5.609375 -2.640625 C 5.609375 -2.960938 5.570312 -3.191406 5.5 -3.328125 C 5.382812 -3.515625 5.203125 -3.609375 4.953125 -3.609375 C 4.796875 -3.609375 4.640625 -3.566406 4.484375 -3.484375 C 4.328125 -3.410156 4.132812 -3.269531 3.90625 -3.0625 L 3.90625 -0.90625 C 3.90625 -0.632812 3.921875 -0.460938 3.953125 -0.390625 C 3.984375 -0.328125 4.039062 -0.269531 4.125 -0.21875 C 4.21875 -0.175781 4.363281 -0.15625 4.5625 -0.15625 L 4.5625 0 L 2.53125 0 L 2.53125 -0.15625 C 2.757812 -0.15625 2.914062 -0.179688 3 -0.234375 C 3.082031 -0.285156 3.140625 -0.363281 3.171875 -0.46875 C 3.179688 -0.519531 3.1875 -0.664062 3.1875 -0.90625 L 3.1875 -2.640625 C 3.1875 -2.960938 3.140625 -3.195312 3.046875 -3.34375 C 2.910156 -3.53125 2.726562 -3.625 2.5 -3.625 C 2.34375 -3.625 2.1875 -3.582031 2.03125 -3.5 C 1.789062 -3.363281 1.601562 -3.21875 1.46875 -3.0625 L 1.46875 -0.90625 C 1.46875 -0.644531 1.484375 -0.472656 1.515625 -0.390625 C 1.554688 -0.316406 1.613281 -0.257812 1.6875 -0.21875 C 1.757812 -0.175781 1.90625 -0.15625 2.125 -0.15625 L 2.125 0 L 0.140625 0 L 0.140625 -0.15625 C 0.328125 -0.15625 0.457031 -0.175781 0.53125 -0.21875 C 0.601562 -0.257812 0.65625 -0.320312 0.6875 -0.40625 C 0.726562 -0.488281 0.75 -0.65625 0.75 -0.90625 L 0.75 -2.4375 C 0.75 -2.882812 0.734375 -3.171875 0.703125 -3.296875 C 0.691406 -3.390625 0.660156 -3.453125 0.609375 -3.484375 C 0.566406 -3.523438 0.507812 -3.546875 0.4375 -3.546875 C 0.351562 -3.546875 0.253906 -3.523438 0.140625 -3.484375 L 0.078125 -3.640625 L 1.28125 -4.140625 L 1.46875 -4.140625 Z M 1.46875 -3.28125 "/>
</g>
<g id="glyph-0-3">
<path d="M 0.953125 -2.5 C 0.953125 -1.90625 1.097656 -1.4375 1.390625 -1.09375 C 1.679688 -0.757812 2.023438 -0.59375 2.421875 -0.59375 C 2.679688 -0.59375 2.910156 -0.664062 3.109375 -0.8125 C 3.304688 -0.957031 3.46875 -1.203125 3.59375 -1.546875 L 3.734375 -1.46875 C 3.671875 -1.0625 3.488281 -0.691406 3.1875 -0.359375 C 2.894531 -0.0351562 2.53125 0.125 2.09375 0.125 C 1.601562 0.125 1.1875 -0.0625 0.84375 -0.4375 C 0.5 -0.8125 0.328125 -1.316406 0.328125 -1.953125 C 0.328125 -2.640625 0.503906 -3.175781 0.859375 -3.5625 C 1.210938 -3.945312 1.65625 -4.140625 2.1875 -4.140625 C 2.632812 -4.140625 3.003906 -3.988281 3.296875 -3.6875 C 3.585938 -3.394531 3.734375 -3 3.734375 -2.5 Z M 0.953125 -2.765625 L 2.8125 -2.765625 C 2.800781 -3.015625 2.769531 -3.191406 2.71875 -3.296875 C 2.644531 -3.460938 2.535156 -3.59375 2.390625 -3.6875 C 2.253906 -3.78125 2.101562 -3.828125 1.9375 -3.828125 C 1.695312 -3.828125 1.476562 -3.734375 1.28125 -3.546875 C 1.09375 -3.359375 0.984375 -3.097656 0.953125 -2.765625 Z M 0.953125 -2.765625 "/>
</g>
<g id="glyph-0-4">
</g>
<g id="glyph-0-5">
<path d="M 2.875 -4.140625 L 2.875 -2.765625 L 2.734375 -2.765625 C 2.617188 -3.191406 2.472656 -3.484375 2.296875 -3.640625 C 2.128906 -3.796875 1.910156 -3.875 1.640625 -3.875 C 1.429688 -3.875 1.265625 -3.816406 1.140625 -3.703125 C 1.015625 -3.597656 0.953125 -3.484375 0.953125 -3.359375 C 0.953125 -3.191406 1 -3.050781 1.09375 -2.9375 C 1.1875 -2.8125 1.375 -2.679688 1.65625 -2.546875 L 2.296875 -2.234375 C 2.890625 -1.953125 3.1875 -1.570312 3.1875 -1.09375 C 3.1875 -0.726562 3.046875 -0.429688 2.765625 -0.203125 C 2.484375 0.0117188 2.175781 0.125 1.84375 0.125 C 1.59375 0.125 1.3125 0.078125 1 -0.015625 C 0.894531 -0.0351562 0.816406 -0.046875 0.765625 -0.046875 C 0.691406 -0.046875 0.632812 -0.0078125 0.59375 0.0625 L 0.453125 0.0625 L 0.453125 -1.375 L 0.59375 -1.375 C 0.675781 -0.96875 0.832031 -0.660156 1.0625 -0.453125 C 1.300781 -0.242188 1.5625 -0.140625 1.84375 -0.140625 C 2.050781 -0.140625 2.21875 -0.195312 2.34375 -0.3125 C 2.46875 -0.425781 2.53125 -0.566406 2.53125 -0.734375 C 2.53125 -0.941406 2.457031 -1.113281 2.3125 -1.25 C 2.175781 -1.382812 1.894531 -1.554688 1.46875 -1.765625 C 1.039062 -1.984375 0.765625 -2.175781 0.640625 -2.34375 C 0.503906 -2.507812 0.4375 -2.71875 0.4375 -2.96875 C 0.4375 -3.300781 0.550781 -3.578125 0.78125 -3.796875 C 1.007812 -4.023438 1.300781 -4.140625 1.65625 -4.140625 C 1.8125 -4.140625 2.003906 -4.101562 2.234375 -4.03125 C 2.378906 -3.988281 2.476562 -3.96875 2.53125 -3.96875 C 2.570312 -3.96875 2.609375 -3.976562 2.640625 -4 C 2.671875 -4.019531 2.703125 -4.066406 2.734375 -4.140625 Z M 2.875 -4.140625 "/>
</g>
<g id="glyph-0-6">
<path d="M -0.015625 -3.625 L 1.234375 -4.125 L 1.390625 -4.125 L 1.390625 -3.1875 C 1.597656 -3.539062 1.804688 -3.785156 2.015625 -3.921875 C 2.222656 -4.066406 2.445312 -4.140625 2.6875 -4.140625 C 3.082031 -4.140625 3.414062 -3.976562 3.6875 -3.65625 C 4.019531 -3.269531 4.1875 -2.769531 4.1875 -2.15625 C 4.1875 -1.457031 3.988281 -0.882812 3.59375 -0.4375 C 3.257812 -0.0625 2.84375 0.125 2.34375 0.125 C 2.132812 0.125 1.953125 0.09375 1.796875 0.03125 C 1.671875 -0.0078125 1.535156 -0.0976562 1.390625 -0.234375 L 1.390625 0.984375 C 1.390625 1.265625 1.40625 1.441406 1.4375 1.515625 C 1.476562 1.585938 1.539062 1.644531 1.625 1.6875 C 1.707031 1.738281 1.859375 1.765625 2.078125 1.765625 L 2.078125 1.921875 L -0.03125 1.921875 L -0.03125 1.765625 L 0.078125 1.765625 C 0.234375 1.765625 0.367188 1.734375 0.484375 1.671875 C 0.546875 1.640625 0.59375 1.585938 0.625 1.515625 C 0.65625 1.441406 0.671875 1.257812 0.671875 0.96875 L 0.671875 -2.828125 C 0.671875 -3.085938 0.65625 -3.253906 0.625 -3.328125 C 0.601562 -3.398438 0.566406 -3.453125 0.515625 -3.484375 C 0.460938 -3.523438 0.394531 -3.546875 0.3125 -3.546875 C 0.238281 -3.546875 0.148438 -3.523438 0.046875 -3.484375 Z M 1.390625 -2.921875 L 1.390625 -1.421875 C 1.390625 -1.097656 1.40625 -0.882812 1.4375 -0.78125 C 1.476562 -0.613281 1.578125 -0.460938 1.734375 -0.328125 C 1.890625 -0.203125 2.09375 -0.140625 2.34375 -0.140625 C 2.632812 -0.140625 2.867188 -0.253906 3.046875 -0.484375 C 3.285156 -0.785156 3.40625 -1.203125 3.40625 -1.734375 C 3.40625 -2.347656 3.269531 -2.820312 3 -3.15625 C 2.8125 -3.382812 2.585938 -3.5 2.328125 -3.5 C 2.191406 -3.5 2.054688 -3.460938 1.921875 -3.390625 C 1.816406 -3.335938 1.640625 -3.179688 1.390625 -2.921875 Z M 1.390625 -2.921875 "/>
</g>
<g id="glyph-1-0">
<path d="M 0.5625 -0.734375 C 0.5625 -0.816406 0.566406 -0.898438 0.578125 -0.984375 L 1.234375 -3.5625 L 0.296875 -3.5625 C 0.234375 -3.5625 0.203125 -3.597656 0.203125 -3.671875 C 0.222656 -3.804688 0.257812 -3.875 0.3125 -3.875 L 1.3125 -3.875 L 1.671875 -5.34375 C 1.691406 -5.414062 1.738281 -5.476562 1.8125 -5.53125 C 1.882812 -5.59375 1.960938 -5.625 2.046875 -5.625 C 2.117188 -5.625 2.179688 -5.597656 2.234375 -5.546875 C 2.285156 -5.503906 2.3125 -5.445312 2.3125 -5.375 C 2.3125 -5.351562 2.3125 -5.335938 2.3125 -5.328125 C 2.3125 -5.316406 2.3125 -5.304688 2.3125 -5.296875 L 1.953125 -3.875 L 2.875 -3.875 C 2.9375 -3.875 2.96875 -3.832031 2.96875 -3.75 C 2.96875 -3.738281 2.960938 -3.710938 2.953125 -3.671875 C 2.941406 -3.640625 2.925781 -3.613281 2.90625 -3.59375 C 2.894531 -3.570312 2.875 -3.5625 2.84375 -3.5625 L 1.875 -3.5625 L 1.21875 -0.953125 C 1.175781 -0.785156 1.15625 -0.640625 1.15625 -0.515625 C 1.15625 -0.265625 1.242188 -0.140625 1.421875 -0.140625 C 1.679688 -0.140625 1.910156 -0.257812 2.109375 -0.5 C 2.316406 -0.75 2.476562 -1.023438 2.59375 -1.328125 C 2.613281 -1.359375 2.632812 -1.375 2.65625 -1.375 L 2.765625 -1.375 C 2.785156 -1.375 2.800781 -1.363281 2.8125 -1.34375 C 2.832031 -1.332031 2.84375 -1.316406 2.84375 -1.296875 C 2.84375 -1.285156 2.84375 -1.273438 2.84375 -1.265625 C 2.707031 -0.898438 2.515625 -0.582031 2.265625 -0.3125 C 2.015625 -0.0390625 1.726562 0.09375 1.40625 0.09375 C 1.164062 0.09375 0.960938 0.0195312 0.796875 -0.125 C 0.640625 -0.28125 0.5625 -0.484375 0.5625 -0.734375 Z M 0.5625 -0.734375 "/>
</g>
<g id="glyph-2-0">
<path d="M -4.140625 -2.875 L -2.765625 -2.875 L -2.765625 -2.734375 C -3.191406 -2.617188 -3.484375 -2.472656 -3.640625 -2.296875 C -3.796875 -2.128906 -3.875 -1.910156 -3.875 -1.640625 C -3.875 -1.429688 -3.816406 -1.265625 -3.703125 -1.140625 C -3.597656 -1.015625 -3.484375 -0.953125 -3.359375 -0.953125 C -3.191406 -0.953125 -3.050781 -1 -2.9375 -1.09375 C -2.8125 -1.1875 -2.679688 -1.375 -2.546875 -1.65625 L -2.234375 -2.296875 C -1.953125 -2.890625 -1.570312 -3.1875 -1.09375 -3.1875 C -0.726562 -3.1875 -0.429688 -3.046875 -0.203125 -2.765625 C 0.0117188 -2.484375 0.125 -2.175781 0.125 -1.84375 C 0.125 -1.59375 0.078125 -1.3125 -0.015625 -1 C -0.0351562 -0.894531 -0.046875 -0.816406 -0.046875 -0.765625 C -0.046875 -0.691406 -0.0078125 -0.632812 0.0625 -0.59375 L 0.0625 -0.453125 L -1.375 -0.453125 L -1.375 -0.59375 C -0.96875 -0.675781 -0.660156 -0.832031 -0.453125 -1.0625 C -0.242188 -1.300781 -0.140625 -1.5625 -0.140625 -1.84375 C -0.140625 -2.050781 -0.195312 -2.21875 -0.3125 -2.34375 C -0.425781 -2.46875 -0.566406 -2.53125 -0.734375 -2.53125 C -0.941406 -2.53125 -1.113281 -2.457031 -1.25 -2.3125 C -1.382812 -2.175781 -1.554688 -1.894531 -1.765625 -1.46875 C -1.984375 -1.039062 -2.175781 -0.765625 -2.34375 -0.640625 C -2.507812 -0.503906 -2.71875 -0.4375 -2.96875 -0.4375 C -3.300781 -0.4375 -3.578125 -0.550781 -3.796875 -0.78125 C -4.023438 -1.007812 -4.140625 -1.300781 -4.140625 -1.65625 C -4.140625 -1.8125 -4.101562 -2.003906 -4.03125 -2.234375 C -3.988281 -2.378906 -3.96875 -2.476562 -3.96875 -2.53125 C -3.96875 -2.570312 -3.976562 -2.609375 -4 -2.640625 C -4.019531 -2.671875 -4.066406 -2.703125 -4.140625 -2.734375 Z M -4.140625 -2.875 "/>
</g>
<g id="glyph-2-1">
<path d="M -5.34375 -1.453125 L -4.015625 -1.453125 L -4.015625 -2.390625 L -3.71875 -2.390625 L -3.71875 -1.453125 L -1.109375 -1.453125 C -0.847656 -1.453125 -0.671875 -1.488281 -0.578125 -1.5625 C -0.484375 -1.632812 -0.4375 -1.726562 -0.4375 -1.84375 C -0.4375 -1.9375 -0.46875 -2.03125 -0.53125 -2.125 C -0.59375 -2.21875 -0.679688 -2.289062 -0.796875 -2.34375 L -0.796875 -2.515625 C -0.515625 -2.410156 -0.300781 -2.265625 -0.15625 -2.078125 C -0.0078125 -1.890625 0.0625 -1.695312 0.0625 -1.5 C 0.0625 -1.363281 0.0234375 -1.226562 -0.046875 -1.09375 C -0.117188 -0.96875 -0.222656 -0.875 -0.359375 -0.8125 C -0.503906 -0.75 -0.722656 -0.71875 -1.015625 -0.71875 L -3.71875 -0.71875 L -3.71875 -0.09375 L -3.859375 -0.09375 C -3.921875 -0.25 -4.023438 -0.410156 -4.171875 -0.578125 C -4.328125 -0.742188 -4.515625 -0.894531 -4.734375 -1.03125 C -4.835938 -1.09375 -5.039062 -1.1875 -5.34375 -1.3125 Z M -5.34375 -1.453125 "/>
</g>
<g id="glyph-2-2">
<path d="M -0.578125 -2.5625 C -0.253906 -2.144531 -0.0703125 -1.882812 -0.03125 -1.78125 C 0.0390625 -1.625 0.078125 -1.457031 0.078125 -1.28125 C 0.078125 -1 -0.015625 -0.765625 -0.203125 -0.578125 C -0.390625 -0.398438 -0.640625 -0.3125 -0.953125 -0.3125 C -1.148438 -0.3125 -1.316406 -0.359375 -1.453125 -0.453125 C -1.660156 -0.566406 -1.847656 -0.769531 -2.015625 -1.0625 C -2.191406 -1.363281 -2.40625 -1.863281 -2.65625 -2.5625 L -2.828125 -2.5625 C -3.222656 -2.5625 -3.492188 -2.492188 -3.640625 -2.359375 C -3.796875 -2.234375 -3.875 -2.050781 -3.875 -1.8125 C -3.875 -1.625 -3.820312 -1.476562 -3.71875 -1.375 C -3.625 -1.257812 -3.507812 -1.203125 -3.375 -1.203125 L -3.125 -1.21875 C -2.988281 -1.21875 -2.882812 -1.179688 -2.8125 -1.109375 C -2.738281 -1.046875 -2.703125 -0.957031 -2.703125 -0.84375 C -2.703125 -0.738281 -2.738281 -0.648438 -2.8125 -0.578125 C -2.894531 -0.503906 -3 -0.46875 -3.125 -0.46875 C -3.375 -0.46875 -3.601562 -0.597656 -3.8125 -0.859375 C -4.03125 -1.117188 -4.140625 -1.476562 -4.140625 -1.9375 C -4.140625 -2.300781 -4.078125 -2.597656 -3.953125 -2.828125 C -3.867188 -2.992188 -3.726562 -3.117188 -3.53125 -3.203125 C -3.40625 -3.253906 -3.148438 -3.28125 -2.765625 -3.28125 L -1.390625 -3.28125 C -1.015625 -3.28125 -0.78125 -3.285156 -0.6875 -3.296875 C -0.601562 -3.316406 -0.546875 -3.34375 -0.515625 -3.375 C -0.484375 -3.40625 -0.46875 -3.441406 -0.46875 -3.484375 C -0.46875 -3.535156 -0.476562 -3.578125 -0.5 -3.609375 C -0.539062 -3.671875 -0.648438 -3.789062 -0.828125 -3.96875 L -0.578125 -3.96875 C -0.140625 -3.644531 0.078125 -3.332031 0.078125 -3.03125 C 0.078125 -2.882812 0.0273438 -2.769531 -0.0625 -2.6875 C -0.164062 -2.601562 -0.335938 -2.5625 -0.578125 -2.5625 Z M -0.859375 -2.5625 L -2.390625 -2.5625 C -2.210938 -2.113281 -2.085938 -1.828125 -2.015625 -1.703125 C -1.890625 -1.472656 -1.753906 -1.304688 -1.609375 -1.203125 C -1.472656 -1.109375 -1.320312 -1.0625 -1.15625 -1.0625 C -0.945312 -1.0625 -0.769531 -1.125 -0.625 -1.25 C -0.488281 -1.375 -0.421875 -1.519531 -0.421875 -1.6875 C -0.421875 -1.90625 -0.566406 -2.195312 -0.859375 -2.5625 Z M -0.859375 -2.5625 "/>
</g>
<g id="glyph-2-3">
<path d="M -2.5 -0.953125 C -1.90625 -0.953125 -1.4375 -1.097656 -1.09375 -1.390625 C -0.757812 -1.679688 -0.59375 -2.023438 -0.59375 -2.421875 C -0.59375 -2.679688 -0.664062 -2.910156 -0.8125 -3.109375 C -0.957031 -3.304688 -1.203125 -3.46875 -1.546875 -3.59375 L -1.46875 -3.734375 C -1.0625 -3.671875 -0.691406 -3.488281 -0.359375 -3.1875 C -0.0351562 -2.894531 0.125 -2.53125 0.125 -2.09375 C 0.125 -1.601562 -0.0625 -1.1875 -0.4375 -0.84375 C -0.8125 -0.5 -1.316406 -0.328125 -1.953125 -0.328125 C -2.640625 -0.328125 -3.175781 -0.503906 -3.5625 -0.859375 C -3.945312 -1.210938 -4.140625 -1.65625 -4.140625 -2.1875 C -4.140625 -2.632812 -3.988281 -3.003906 -3.6875 -3.296875 C -3.394531 -3.585938 -3 -3.734375 -2.5 -3.734375 Z M -2.765625 -0.953125 L -2.765625 -2.8125 C -3.015625 -2.800781 -3.191406 -2.769531 -3.296875 -2.71875 C -3.460938 -2.644531 -3.59375 -2.535156 -3.6875 -2.390625 C -3.78125 -2.253906 -3.828125 -2.101562 -3.828125 -1.9375 C -3.828125 -1.695312 -3.734375 -1.476562 -3.546875 -1.28125 C -3.359375 -1.09375 -3.097656 -0.984375 -2.765625 -0.953125 Z M -2.765625 -0.953125 "/>
</g>
<g id="glyph-3-0">
<path d="M 2.5625 -3.671875 L 2.5625 -2.453125 L 2.421875 -2.453125 C 2.328125 -2.835938 2.203125 -3.097656 2.046875 -3.234375 C 1.890625 -3.378906 1.691406 -3.453125 1.453125 -3.453125 C 1.273438 -3.453125 1.128906 -3.398438 1.015625 -3.296875 C 0.898438 -3.203125 0.84375 -3.097656 0.84375 -2.984375 C 0.84375 -2.835938 0.882812 -2.710938 0.96875 -2.609375 C 1.050781 -2.503906 1.21875 -2.390625 1.46875 -2.265625 L 2.03125 -2 C 2.5625 -1.738281 2.828125 -1.394531 2.828125 -0.96875 C 2.828125 -0.644531 2.703125 -0.382812 2.453125 -0.1875 C 2.210938 0.0078125 1.941406 0.109375 1.640625 0.109375 C 1.421875 0.109375 1.171875 0.0703125 0.890625 0 C 0.796875 -0.03125 0.722656 -0.046875 0.671875 -0.046875 C 0.609375 -0.046875 0.5625 -0.0117188 0.53125 0.046875 L 0.40625 0.046875 L 0.40625 -1.21875 L 0.53125 -1.21875 C 0.601562 -0.851562 0.742188 -0.578125 0.953125 -0.390625 C 1.160156 -0.210938 1.390625 -0.125 1.640625 -0.125 C 1.816406 -0.125 1.960938 -0.175781 2.078125 -0.28125 C 2.191406 -0.382812 2.25 -0.507812 2.25 -0.65625 C 2.25 -0.832031 2.1875 -0.984375 2.0625 -1.109375 C 1.9375 -1.234375 1.679688 -1.390625 1.296875 -1.578125 C 0.921875 -1.765625 0.675781 -1.929688 0.5625 -2.078125 C 0.445312 -2.222656 0.390625 -2.410156 0.390625 -2.640625 C 0.390625 -2.929688 0.488281 -3.175781 0.6875 -3.375 C 0.894531 -3.570312 1.15625 -3.671875 1.46875 -3.671875 C 1.613281 -3.671875 1.785156 -3.644531 1.984375 -3.59375 C 2.117188 -3.550781 2.207031 -3.53125 2.25 -3.53125 C 2.289062 -3.53125 2.320312 -3.535156 2.34375 -3.546875 C 2.363281 -3.566406 2.390625 -3.609375 2.421875 -3.671875 Z M 2.5625 -3.671875 "/>
</g>
<g id="glyph-3-1">
<path d="M 1.3125 -2.921875 C 1.570312 -3.179688 1.722656 -3.328125 1.765625 -3.359375 C 1.890625 -3.460938 2.015625 -3.539062 2.140625 -3.59375 C 2.273438 -3.644531 2.410156 -3.671875 2.546875 -3.671875 C 2.773438 -3.671875 2.96875 -3.601562 3.125 -3.46875 C 3.289062 -3.34375 3.398438 -3.160156 3.453125 -2.921875 C 3.722656 -3.234375 3.945312 -3.4375 4.125 -3.53125 C 4.3125 -3.625 4.503906 -3.671875 4.703125 -3.671875 C 4.890625 -3.671875 5.054688 -3.625 5.203125 -3.53125 C 5.347656 -3.4375 5.460938 -3.273438 5.546875 -3.046875 C 5.609375 -2.898438 5.640625 -2.664062 5.640625 -2.34375 L 5.640625 -0.8125 C 5.640625 -0.582031 5.65625 -0.425781 5.6875 -0.34375 C 5.71875 -0.289062 5.765625 -0.242188 5.828125 -0.203125 C 5.898438 -0.160156 6.015625 -0.140625 6.171875 -0.140625 L 6.171875 0 L 4.40625 0 L 4.40625 -0.140625 L 4.484375 -0.140625 C 4.640625 -0.140625 4.757812 -0.171875 4.84375 -0.234375 C 4.90625 -0.273438 4.945312 -0.335938 4.96875 -0.421875 C 4.976562 -0.472656 4.984375 -0.601562 4.984375 -0.8125 L 4.984375 -2.34375 C 4.984375 -2.632812 4.953125 -2.835938 4.890625 -2.953125 C 4.785156 -3.117188 4.617188 -3.203125 4.390625 -3.203125 C 4.253906 -3.203125 4.117188 -3.164062 3.984375 -3.09375 C 3.847656 -3.03125 3.679688 -2.90625 3.484375 -2.71875 L 3.46875 -2.671875 L 3.484375 -2.515625 L 3.484375 -0.8125 C 3.484375 -0.5625 3.492188 -0.40625 3.515625 -0.34375 C 3.546875 -0.289062 3.597656 -0.242188 3.671875 -0.203125 C 3.742188 -0.160156 3.875 -0.140625 4.0625 -0.140625 L 4.0625 0 L 2.25 0 L 2.25 -0.140625 C 2.445312 -0.140625 2.582031 -0.160156 2.65625 -0.203125 C 2.726562 -0.253906 2.78125 -0.328125 2.8125 -0.421875 C 2.820312 -0.460938 2.828125 -0.59375 2.828125 -0.8125 L 2.828125 -2.34375 C 2.828125 -2.632812 2.785156 -2.84375 2.703125 -2.96875 C 2.585938 -3.132812 2.425781 -3.21875 2.21875 -3.21875 C 2.082031 -3.21875 1.945312 -3.179688 1.8125 -3.109375 C 1.59375 -2.992188 1.425781 -2.863281 1.3125 -2.71875 L 1.3125 -0.8125 C 1.3125 -0.570312 1.328125 -0.414062 1.359375 -0.34375 C 1.390625 -0.28125 1.4375 -0.226562 1.5 -0.1875 C 1.5625 -0.15625 1.691406 -0.140625 1.890625 -0.140625 L 1.890625 0 L 0.125 0 L 0.125 -0.140625 C 0.289062 -0.140625 0.40625 -0.15625 0.46875 -0.1875 C 0.53125 -0.226562 0.578125 -0.285156 0.609375 -0.359375 C 0.648438 -0.429688 0.671875 -0.582031 0.671875 -0.8125 L 0.671875 -2.171875 C 0.671875 -2.566406 0.65625 -2.820312 0.625 -2.9375 C 0.613281 -3.019531 0.585938 -3.078125 0.546875 -3.109375 C 0.503906 -3.140625 0.453125 -3.15625 0.390625 -3.15625 C 0.316406 -3.15625 0.226562 -3.132812 0.125 -3.09375 L 0.0625 -3.234375 L 1.140625 -3.671875 L 1.3125 -3.671875 Z M 1.3125 -2.921875 "/>
</g>
<g id="glyph-3-2">
<path d="M 2.265625 -0.515625 C 1.898438 -0.234375 1.671875 -0.0664062 1.578125 -0.015625 C 1.441406 0.046875 1.296875 0.078125 1.140625 0.078125 C 0.890625 0.078125 0.679688 -0.00390625 0.515625 -0.171875 C 0.359375 -0.347656 0.28125 -0.570312 0.28125 -0.84375 C 0.28125 -1.019531 0.320312 -1.171875 0.40625 -1.296875 C 0.507812 -1.472656 0.691406 -1.640625 0.953125 -1.796875 C 1.222656 -1.953125 1.660156 -2.140625 2.265625 -2.359375 L 2.265625 -2.5 C 2.265625 -2.863281 2.207031 -3.109375 2.09375 -3.234375 C 1.988281 -3.367188 1.828125 -3.4375 1.609375 -3.4375 C 1.441406 -3.4375 1.3125 -3.394531 1.21875 -3.3125 C 1.125 -3.21875 1.078125 -3.113281 1.078125 -3 L 1.078125 -2.78125 C 1.078125 -2.65625 1.046875 -2.5625 0.984375 -2.5 C 0.921875 -2.4375 0.84375 -2.40625 0.75 -2.40625 C 0.65625 -2.40625 0.578125 -2.4375 0.515625 -2.5 C 0.453125 -2.570312 0.421875 -2.664062 0.421875 -2.78125 C 0.421875 -3 0.535156 -3.203125 0.765625 -3.390625 C 0.992188 -3.578125 1.316406 -3.671875 1.734375 -3.671875 C 2.046875 -3.671875 2.300781 -3.617188 2.5 -3.515625 C 2.65625 -3.429688 2.769531 -3.304688 2.84375 -3.140625 C 2.894531 -3.023438 2.921875 -2.796875 2.921875 -2.453125 L 2.921875 -1.234375 C 2.921875 -0.898438 2.925781 -0.691406 2.9375 -0.609375 C 2.945312 -0.535156 2.96875 -0.484375 3 -0.453125 C 3.03125 -0.429688 3.066406 -0.421875 3.109375 -0.421875 C 3.148438 -0.421875 3.1875 -0.429688 3.21875 -0.453125 C 3.269531 -0.484375 3.375 -0.578125 3.53125 -0.734375 L 3.53125 -0.515625 C 3.238281 -0.128906 2.957031 0.0625 2.6875 0.0625 C 2.5625 0.0625 2.460938 0.0195312 2.390625 -0.0625 C 2.316406 -0.144531 2.273438 -0.296875 2.265625 -0.515625 Z M 2.265625 -0.765625 L 2.265625 -2.125 C 1.878906 -1.96875 1.628906 -1.859375 1.515625 -1.796875 C 1.304688 -1.679688 1.15625 -1.5625 1.0625 -1.4375 C 0.976562 -1.3125 0.9375 -1.175781 0.9375 -1.03125 C 0.9375 -0.84375 0.992188 -0.6875 1.109375 -0.5625 C 1.222656 -0.4375 1.351562 -0.375 1.5 -0.375 C 1.695312 -0.375 1.953125 -0.503906 2.265625 -0.765625 Z M 2.265625 -0.765625 "/>
</g>
<g id="glyph-3-3">
<path d="M 1.484375 -5.546875 L 1.484375 -0.8125 C 1.484375 -0.582031 1.5 -0.429688 1.53125 -0.359375 C 1.5625 -0.285156 1.609375 -0.226562 1.671875 -0.1875 C 1.742188 -0.15625 1.867188 -0.140625 2.046875 -0.140625 L 2.046875 0 L 0.296875 0 L 0.296875 -0.140625 C 0.460938 -0.140625 0.578125 -0.15625 0.640625 -0.1875 C 0.703125 -0.21875 0.75 -0.269531 0.78125 -0.34375 C 0.8125 -0.425781 0.828125 -0.582031 0.828125 -0.8125 L 0.828125 -4.046875 C 0.828125 -4.453125 0.816406 -4.703125 0.796875 -4.796875 C 0.785156 -4.890625 0.757812 -4.953125 0.71875 -4.984375 C 0.675781 -5.015625 0.625 -5.03125 0.5625 -5.03125 C 0.488281 -5.03125 0.398438 -5.007812 0.296875 -4.96875 L 0.234375 -5.109375 L 1.296875 -5.546875 Z M 1.484375 -5.546875 "/>
</g>
<g id="glyph-3-4">
</g>
<g id="glyph-3-5">
<path d="M 0.84375 -2.21875 C 0.84375 -1.695312 0.972656 -1.285156 1.234375 -0.984375 C 1.492188 -0.679688 1.800781 -0.53125 2.15625 -0.53125 C 2.382812 -0.53125 2.582031 -0.59375 2.75 -0.71875 C 2.925781 -0.84375 3.078125 -1.0625 3.203125 -1.375 L 3.3125 -1.296875 C 3.257812 -0.941406 3.101562 -0.617188 2.84375 -0.328125 C 2.582031 -0.0351562 2.253906 0.109375 1.859375 0.109375 C 1.429688 0.109375 1.0625 -0.0546875 0.75 -0.390625 C 0.445312 -0.722656 0.296875 -1.171875 0.296875 -1.734375 C 0.296875 -2.347656 0.453125 -2.828125 0.765625 -3.171875 C 1.078125 -3.515625 1.472656 -3.6875 1.953125 -3.6875 C 2.347656 -3.6875 2.671875 -3.550781 2.921875 -3.28125 C 3.179688 -3.019531 3.3125 -2.664062 3.3125 -2.21875 Z M 0.84375 -2.453125 L 2.5 -2.453125 C 2.488281 -2.679688 2.460938 -2.84375 2.421875 -2.9375 C 2.359375 -3.082031 2.257812 -3.195312 2.125 -3.28125 C 2 -3.363281 1.867188 -3.40625 1.734375 -3.40625 C 1.515625 -3.40625 1.316406 -3.320312 1.140625 -3.15625 C 0.972656 -2.988281 0.875 -2.753906 0.84375 -2.453125 Z M 0.84375 -2.453125 "/>
</g>
<g id="glyph-3-6">
<path d="M 1.296875 -3.671875 L 1.296875 -2.875 C 1.597656 -3.40625 1.90625 -3.671875 2.21875 -3.671875 C 2.351562 -3.671875 2.46875 -3.628906 2.5625 -3.546875 C 2.65625 -3.460938 2.703125 -3.363281 2.703125 -3.25 C 2.703125 -3.144531 2.664062 -3.054688 2.59375 -2.984375 C 2.53125 -2.910156 2.453125 -2.875 2.359375 -2.875 C 2.273438 -2.875 2.175781 -2.921875 2.0625 -3.015625 C 1.945312 -3.109375 1.863281 -3.15625 1.8125 -3.15625 C 1.757812 -3.15625 1.707031 -3.128906 1.65625 -3.078125 C 1.539062 -2.960938 1.421875 -2.785156 1.296875 -2.546875 L 1.296875 -0.828125 C 1.296875 -0.628906 1.320312 -0.484375 1.375 -0.390625 C 1.40625 -0.316406 1.460938 -0.253906 1.546875 -0.203125 C 1.628906 -0.160156 1.753906 -0.140625 1.921875 -0.140625 L 1.921875 0 L 0.09375 0 L 0.09375 -0.140625 C 0.269531 -0.140625 0.40625 -0.164062 0.5 -0.21875 C 0.5625 -0.257812 0.601562 -0.328125 0.625 -0.421875 C 0.644531 -0.460938 0.65625 -0.585938 0.65625 -0.796875 L 0.65625 -2.1875 C 0.65625 -2.601562 0.644531 -2.847656 0.625 -2.921875 C 0.601562 -3.003906 0.570312 -3.0625 0.53125 -3.09375 C 0.488281 -3.132812 0.429688 -3.15625 0.359375 -3.15625 C 0.273438 -3.15625 0.1875 -3.132812 0.09375 -3.09375 L 0.046875 -3.234375 L 1.125 -3.671875 Z M 1.296875 -3.671875 "/>
</g>
<g id="glyph-3-7">
<path d="M 2 -3.671875 C 2.539062 -3.671875 2.972656 -3.46875 3.296875 -3.0625 C 3.578125 -2.707031 3.71875 -2.304688 3.71875 -1.859375 C 3.71875 -1.535156 3.640625 -1.207031 3.484375 -0.875 C 3.328125 -0.550781 3.113281 -0.304688 2.84375 -0.140625 C 2.582031 0.0234375 2.285156 0.109375 1.953125 0.109375 C 1.410156 0.109375 0.984375 -0.101562 0.671875 -0.53125 C 0.398438 -0.894531 0.265625 -1.300781 0.265625 -1.75 C 0.265625 -2.070312 0.34375 -2.394531 0.5 -2.71875 C 0.664062 -3.050781 0.878906 -3.289062 1.140625 -3.4375 C 1.410156 -3.59375 1.695312 -3.671875 2 -3.671875 Z M 1.875 -3.421875 C 1.738281 -3.421875 1.597656 -3.378906 1.453125 -3.296875 C 1.316406 -3.210938 1.207031 -3.066406 1.125 -2.859375 C 1.039062 -2.660156 1 -2.398438 1 -2.078125 C 1 -1.554688 1.097656 -1.109375 1.296875 -0.734375 C 1.503906 -0.359375 1.78125 -0.171875 2.125 -0.171875 C 2.375 -0.171875 2.578125 -0.273438 2.734375 -0.484375 C 2.898438 -0.691406 2.984375 -1.046875 2.984375 -1.546875 C 2.984375 -2.179688 2.847656 -2.679688 2.578125 -3.046875 C 2.390625 -3.296875 2.15625 -3.421875 1.875 -3.421875 Z M 1.875 -3.421875 "/>
</g>
<g id="glyph-3-8">
<path d="M 1.640625 -3.296875 L 1.640625 -0.9375 C 1.640625 -0.601562 1.675781 -0.394531 1.75 -0.3125 C 1.851562 -0.195312 1.984375 -0.140625 2.140625 -0.140625 L 2.46875 -0.140625 L 2.46875 0 L 0.328125 0 L 0.328125 -0.140625 L 0.484375 -0.140625 C 0.585938 -0.140625 0.679688 -0.164062 0.765625 -0.21875 C 0.859375 -0.269531 0.921875 -0.335938 0.953125 -0.421875 C 0.984375 -0.515625 1 -0.6875 1 -0.9375 L 1 -3.296875 L 0.3125 -3.296875 L 0.3125 -3.578125 L 1 -3.578125 L 1 -3.8125 C 1 -4.164062 1.054688 -4.460938 1.171875 -4.703125 C 1.285156 -4.953125 1.457031 -5.148438 1.6875 -5.296875 C 1.925781 -5.453125 2.191406 -5.53125 2.484375 -5.53125 C 2.765625 -5.53125 3.019531 -5.441406 3.25 -5.265625 C 3.394531 -5.148438 3.46875 -5.019531 3.46875 -4.875 C 3.46875 -4.800781 3.429688 -4.726562 3.359375 -4.65625 C 3.296875 -4.582031 3.226562 -4.546875 3.15625 -4.546875 C 3.09375 -4.546875 3.023438 -4.566406 2.953125 -4.609375 C 2.890625 -4.660156 2.8125 -4.753906 2.71875 -4.890625 C 2.625 -5.035156 2.535156 -5.132812 2.453125 -5.1875 C 2.367188 -5.226562 2.28125 -5.25 2.1875 -5.25 C 2.0625 -5.25 1.957031 -5.21875 1.875 -5.15625 C 1.789062 -5.09375 1.726562 -4.992188 1.6875 -4.859375 C 1.65625 -4.722656 1.640625 -4.378906 1.640625 -3.828125 L 1.640625 -3.578125 L 2.5625 -3.578125 L 2.5625 -3.296875 Z M 1.640625 -3.296875 "/>
</g>
<g id="glyph-3-9">
<path d="M 0.328125 -2.078125 L 2.34375 -2.078125 L 2.34375 -1.5 L 0.328125 -1.5 Z M 0.328125 -2.078125 "/>
</g>
<g id="glyph-3-10">
<path d="M 2.765625 -0.40625 C 2.597656 -0.21875 2.429688 -0.0820312 2.265625 0 C 2.097656 0.0703125 1.914062 0.109375 1.71875 0.109375 C 1.332031 0.109375 0.992188 -0.0507812 0.703125 -0.375 C 0.410156 -0.707031 0.265625 -1.128906 0.265625 -1.640625 C 0.265625 -2.148438 0.425781 -2.617188 0.75 -3.046875 C 1.070312 -3.472656 1.488281 -3.6875 2 -3.6875 C 2.3125 -3.6875 2.566406 -3.582031 2.765625 -3.375 L 2.765625 -4.03125 C 2.765625 -4.445312 2.753906 -4.703125 2.734375 -4.796875 C 2.722656 -4.890625 2.695312 -4.953125 2.65625 -4.984375 C 2.613281 -5.015625 2.5625 -5.03125 2.5 -5.03125 C 2.425781 -5.03125 2.332031 -5.007812 2.21875 -4.96875 L 2.171875 -5.109375 L 3.234375 -5.546875 L 3.421875 -5.546875 L 3.421875 -1.421875 C 3.421875 -0.992188 3.425781 -0.734375 3.4375 -0.640625 C 3.457031 -0.554688 3.488281 -0.492188 3.53125 -0.453125 C 3.582031 -0.421875 3.632812 -0.40625 3.6875 -0.40625 C 3.757812 -0.40625 3.851562 -0.425781 3.96875 -0.46875 L 4.015625 -0.328125 L 2.953125 0.109375 L 2.765625 0.109375 Z M 2.765625 -0.671875 L 2.765625 -2.515625 C 2.753906 -2.691406 2.707031 -2.851562 2.625 -3 C 2.550781 -3.144531 2.445312 -3.253906 2.3125 -3.328125 C 2.1875 -3.398438 2.066406 -3.4375 1.953125 -3.4375 C 1.722656 -3.4375 1.515625 -3.332031 1.328125 -3.125 C 1.097656 -2.851562 0.984375 -2.460938 0.984375 -1.953125 C 0.984375 -1.421875 1.097656 -1.015625 1.328125 -0.734375 C 1.554688 -0.453125 1.804688 -0.3125 2.078125 -0.3125 C 2.316406 -0.3125 2.546875 -0.429688 2.765625 -0.671875 Z M 2.765625 -0.671875 "/>
</g>
<g id="glyph-3-11">
<path d="M 1.15625 -5.546875 C 1.269531 -5.546875 1.363281 -5.503906 1.4375 -5.421875 C 1.507812 -5.347656 1.546875 -5.257812 1.546875 -5.15625 C 1.546875 -5.039062 1.507812 -4.941406 1.4375 -4.859375 C 1.363281 -4.785156 1.269531 -4.75 1.15625 -4.75 C 1.050781 -4.75 0.957031 -4.785156 0.875 -4.859375 C 0.800781 -4.941406 0.765625 -5.039062 0.765625 -5.15625 C 0.765625 -5.257812 0.800781 -5.347656 0.875 -5.421875 C 0.945312 -5.503906 1.039062 -5.546875 1.15625 -5.546875 Z M 1.484375 -3.671875 L 1.484375 -0.8125 C 1.484375 -0.582031 1.5 -0.429688 1.53125 -0.359375 C 1.5625 -0.285156 1.609375 -0.226562 1.671875 -0.1875 C 1.734375 -0.15625 1.847656 -0.140625 2.015625 -0.140625 L 2.015625 0 L 0.28125 0 L 0.28125 -0.140625 C 0.457031 -0.140625 0.578125 -0.15625 0.640625 -0.1875 C 0.703125 -0.21875 0.75 -0.269531 0.78125 -0.34375 C 0.8125 -0.425781 0.828125 -0.582031 0.828125 -0.8125 L 0.828125 -2.1875 C 0.828125 -2.570312 0.816406 -2.820312 0.796875 -2.9375 C 0.773438 -3.019531 0.742188 -3.078125 0.703125 -3.109375 C 0.671875 -3.140625 0.617188 -3.15625 0.546875 -3.15625 C 0.472656 -3.15625 0.382812 -3.132812 0.28125 -3.09375 L 0.234375 -3.234375 L 1.3125 -3.671875 Z M 1.484375 -3.671875 "/>
</g>
<g id="glyph-3-12">
<path d="M 1.28125 -4.75 L 1.28125 -3.578125 L 2.125 -3.578125 L 2.125 -3.296875 L 1.28125 -3.296875 L 1.28125 -0.984375 C 1.28125 -0.753906 1.3125 -0.597656 1.375 -0.515625 C 1.445312 -0.429688 1.535156 -0.390625 1.640625 -0.390625 C 1.722656 -0.390625 1.804688 -0.414062 1.890625 -0.46875 C 1.972656 -0.519531 2.035156 -0.597656 2.078125 -0.703125 L 2.234375 -0.703125 C 2.140625 -0.453125 2.007812 -0.257812 1.84375 -0.125 C 1.675781 0 1.503906 0.0625 1.328125 0.0625 C 1.210938 0.0625 1.097656 0.0273438 0.984375 -0.03125 C 0.867188 -0.101562 0.78125 -0.203125 0.71875 -0.328125 C 0.664062 -0.453125 0.640625 -0.640625 0.640625 -0.890625 L 0.640625 -3.296875 L 0.078125 -3.296875 L 0.078125 -3.421875 C 0.222656 -3.484375 0.367188 -3.582031 0.515625 -3.71875 C 0.660156 -3.851562 0.796875 -4.015625 0.921875 -4.203125 C 0.972656 -4.296875 1.054688 -4.476562 1.171875 -4.75 Z M 1.28125 -4.75 "/>
</g>
<g id="glyph-3-13">
<path d="M 1.234375 -2.953125 C 1.578125 -3.429688 1.945312 -3.671875 2.34375 -3.671875 C 2.707031 -3.671875 3.023438 -3.515625 3.296875 -3.203125 C 3.578125 -2.890625 3.71875 -2.460938 3.71875 -1.921875 C 3.71875 -1.285156 3.503906 -0.773438 3.078125 -0.390625 C 2.722656 -0.0546875 2.320312 0.109375 1.875 0.109375 C 1.664062 0.109375 1.453125 0.0703125 1.234375 0 C 1.023438 -0.0703125 0.804688 -0.1875 0.578125 -0.34375 L 0.578125 -4.046875 C 0.578125 -4.453125 0.566406 -4.703125 0.546875 -4.796875 C 0.535156 -4.890625 0.507812 -4.953125 0.46875 -4.984375 C 0.425781 -5.015625 0.375 -5.03125 0.3125 -5.03125 C 0.238281 -5.03125 0.144531 -5.007812 0.03125 -4.96875 L -0.015625 -5.109375 L 1.046875 -5.546875 L 1.234375 -5.546875 Z M 1.234375 -2.703125 L 1.234375 -0.5625 C 1.359375 -0.4375 1.492188 -0.335938 1.640625 -0.265625 C 1.785156 -0.203125 1.929688 -0.171875 2.078125 -0.171875 C 2.304688 -0.171875 2.523438 -0.300781 2.734375 -0.5625 C 2.941406 -0.820312 3.046875 -1.203125 3.046875 -1.703125 C 3.046875 -2.160156 2.941406 -2.507812 2.734375 -2.75 C 2.523438 -3 2.289062 -3.125 2.03125 -3.125 C 1.894531 -3.125 1.757812 -3.085938 1.625 -3.015625 C 1.519531 -2.960938 1.390625 -2.859375 1.234375 -2.703125 Z M 1.234375 -2.703125 "/>
</g>
<g id="glyph-3-14">
<path d="M 3.375 -3.578125 L 3.375 -1.40625 C 3.375 -0.988281 3.382812 -0.734375 3.40625 -0.640625 C 3.425781 -0.554688 3.457031 -0.492188 3.5 -0.453125 C 3.539062 -0.421875 3.59375 -0.40625 3.65625 -0.40625 C 3.738281 -0.40625 3.828125 -0.425781 3.921875 -0.46875 L 3.984375 -0.328125 L 2.90625 0.109375 L 2.734375 0.109375 L 2.734375 -0.640625 C 2.429688 -0.304688 2.195312 -0.0976562 2.03125 -0.015625 C 1.875 0.0664062 1.707031 0.109375 1.53125 0.109375 C 1.320312 0.109375 1.144531 0.0507812 1 -0.0625 C 0.851562 -0.175781 0.75 -0.320312 0.6875 -0.5 C 0.632812 -0.6875 0.609375 -0.945312 0.609375 -1.28125 L 0.609375 -2.875 C 0.609375 -3.039062 0.585938 -3.15625 0.546875 -3.21875 C 0.515625 -3.289062 0.460938 -3.34375 0.390625 -3.375 C 0.316406 -3.414062 0.1875 -3.429688 0 -3.421875 L 0 -3.578125 L 1.265625 -3.578125 L 1.265625 -1.1875 C 1.265625 -0.851562 1.320312 -0.632812 1.4375 -0.53125 C 1.550781 -0.425781 1.691406 -0.375 1.859375 -0.375 C 1.960938 -0.375 2.082031 -0.40625 2.21875 -0.46875 C 2.363281 -0.539062 2.535156 -0.675781 2.734375 -0.875 L 2.734375 -2.90625 C 2.734375 -3.101562 2.695312 -3.238281 2.625 -3.3125 C 2.550781 -3.382812 2.394531 -3.421875 2.15625 -3.421875 L 2.15625 -3.578125 Z M 3.375 -3.578125 "/>
</g>
<g id="glyph-3-15">
<path d="M 1.296875 -2.921875 C 1.710938 -3.421875 2.109375 -3.671875 2.484375 -3.671875 C 2.679688 -3.671875 2.847656 -3.625 2.984375 -3.53125 C 3.128906 -3.4375 3.242188 -3.273438 3.328125 -3.046875 C 3.378906 -2.890625 3.40625 -2.648438 3.40625 -2.328125 L 3.40625 -0.8125 C 3.40625 -0.582031 3.425781 -0.425781 3.46875 -0.34375 C 3.5 -0.28125 3.546875 -0.226562 3.609375 -0.1875 C 3.671875 -0.15625 3.785156 -0.140625 3.953125 -0.140625 L 3.953125 0 L 2.1875 0 L 2.1875 -0.140625 L 2.265625 -0.140625 C 2.429688 -0.140625 2.546875 -0.164062 2.609375 -0.21875 C 2.679688 -0.269531 2.726562 -0.34375 2.75 -0.4375 C 2.757812 -0.476562 2.765625 -0.601562 2.765625 -0.8125 L 2.765625 -2.265625 C 2.765625 -2.585938 2.722656 -2.820312 2.640625 -2.96875 C 2.554688 -3.125 2.414062 -3.203125 2.21875 -3.203125 C 1.90625 -3.203125 1.597656 -3.03125 1.296875 -2.6875 L 1.296875 -0.8125 C 1.296875 -0.5625 1.304688 -0.410156 1.328125 -0.359375 C 1.367188 -0.285156 1.421875 -0.226562 1.484375 -0.1875 C 1.546875 -0.15625 1.675781 -0.140625 1.875 -0.140625 L 1.875 0 L 0.109375 0 L 0.109375 -0.140625 L 0.1875 -0.140625 C 0.363281 -0.140625 0.484375 -0.1875 0.546875 -0.28125 C 0.609375 -0.375 0.640625 -0.550781 0.640625 -0.8125 L 0.640625 -2.125 C 0.640625 -2.5625 0.628906 -2.828125 0.609375 -2.921875 C 0.597656 -3.015625 0.570312 -3.078125 0.53125 -3.109375 C 0.488281 -3.140625 0.429688 -3.15625 0.359375 -3.15625 C 0.285156 -3.15625 0.203125 -3.132812 0.109375 -3.09375 L 0.046875 -3.234375 L 1.125 -3.671875 L 1.296875 -3.671875 Z M 1.296875 -2.921875 "/>
</g>
<g id="glyph-3-16">
<path d="M 1.125 -3.6875 C 1.25 -3.6875 1.351562 -3.640625 1.4375 -3.546875 C 1.519531 -3.460938 1.5625 -3.363281 1.5625 -3.25 C 1.5625 -3.125 1.519531 -3.019531 1.4375 -2.9375 C 1.351562 -2.851562 1.25 -2.8125 1.125 -2.8125 C 1.007812 -2.8125 0.90625 -2.851562 0.8125 -2.9375 C 0.726562 -3.019531 0.6875 -3.125 0.6875 -3.25 C 0.6875 -3.363281 0.726562 -3.460938 0.8125 -3.546875 C 0.90625 -3.640625 1.007812 -3.6875 1.125 -3.6875 Z M 1.125 -0.765625 C 1.238281 -0.765625 1.335938 -0.71875 1.421875 -0.625 C 1.515625 -0.539062 1.5625 -0.441406 1.5625 -0.328125 C 1.5625 -0.203125 1.515625 -0.0976562 1.421875 -0.015625 C 1.335938 0.0664062 1.238281 0.109375 1.125 0.109375 C 1 0.109375 0.894531 0.0664062 0.8125 -0.015625 C 0.726562 -0.0976562 0.6875 -0.203125 0.6875 -0.328125 C 0.6875 -0.441406 0.726562 -0.539062 0.8125 -0.625 C 0.894531 -0.71875 1 -0.765625 1.125 -0.765625 Z M 1.125 -0.765625 "/>
</g>
<g id="glyph-3-17">
<path d="M 1.296875 -5.546875 L 1.296875 -2.9375 C 1.585938 -3.25 1.816406 -3.445312 1.984375 -3.53125 C 2.148438 -3.625 2.316406 -3.671875 2.484375 -3.671875 C 2.691406 -3.671875 2.867188 -3.613281 3.015625 -3.5 C 3.160156 -3.394531 3.269531 -3.222656 3.34375 -2.984375 C 3.382812 -2.816406 3.40625 -2.507812 3.40625 -2.0625 L 3.40625 -0.8125 C 3.40625 -0.582031 3.425781 -0.425781 3.46875 -0.34375 C 3.488281 -0.28125 3.53125 -0.226562 3.59375 -0.1875 C 3.65625 -0.15625 3.769531 -0.140625 3.9375 -0.140625 L 3.9375 0 L 2.1875 0 L 2.1875 -0.140625 L 2.265625 -0.140625 C 2.429688 -0.140625 2.546875 -0.164062 2.609375 -0.21875 C 2.679688 -0.269531 2.726562 -0.34375 2.75 -0.4375 C 2.757812 -0.476562 2.765625 -0.601562 2.765625 -0.8125 L 2.765625 -2.0625 C 2.765625 -2.457031 2.742188 -2.710938 2.703125 -2.828125 C 2.660156 -2.953125 2.59375 -3.046875 2.5 -3.109375 C 2.414062 -3.171875 2.3125 -3.203125 2.1875 -3.203125 C 2.0625 -3.203125 1.929688 -3.164062 1.796875 -3.09375 C 1.660156 -3.03125 1.492188 -2.894531 1.296875 -2.6875 L 1.296875 -0.8125 C 1.296875 -0.5625 1.304688 -0.40625 1.328125 -0.34375 C 1.359375 -0.289062 1.410156 -0.242188 1.484375 -0.203125 C 1.566406 -0.160156 1.695312 -0.140625 1.875 -0.140625 L 1.875 0 L 0.109375 0 L 0.109375 -0.140625 C 0.265625 -0.140625 0.390625 -0.164062 0.484375 -0.21875 C 0.535156 -0.238281 0.578125 -0.285156 0.609375 -0.359375 C 0.640625 -0.429688 0.65625 -0.582031 0.65625 -0.8125 L 0.65625 -4.03125 C 0.65625 -4.445312 0.644531 -4.703125 0.625 -4.796875 C 0.601562 -4.890625 0.570312 -4.953125 0.53125 -4.984375 C 0.488281 -5.015625 0.4375 -5.03125 0.375 -5.03125 C 0.3125 -5.03125 0.222656 -5.007812 0.109375 -4.96875 L 0.046875 -5.109375 L 1.125 -5.546875 Z M 1.296875 -5.546875 "/>
</g>
<g id="glyph-3-18">
<path d="M 0.109375 -3.578125 L 1.78125 -3.578125 L 1.78125 -3.421875 C 1.675781 -3.421875 1.601562 -3.398438 1.5625 -3.359375 C 1.519531 -3.328125 1.5 -3.285156 1.5 -3.234375 C 1.5 -3.171875 1.546875 -3.070312 1.640625 -2.9375 C 1.660156 -2.894531 1.703125 -2.832031 1.765625 -2.75 L 2.015625 -2.34375 L 2.3125 -2.75 C 2.5 -3 2.59375 -3.160156 2.59375 -3.234375 C 2.59375 -3.285156 2.566406 -3.328125 2.515625 -3.359375 C 2.472656 -3.398438 2.40625 -3.421875 2.3125 -3.421875 L 2.3125 -3.578125 L 3.515625 -3.578125 L 3.515625 -3.421875 C 3.390625 -3.421875 3.28125 -3.390625 3.1875 -3.328125 C 3.0625 -3.234375 2.882812 -3.039062 2.65625 -2.75 L 2.171875 -2.09375 L 3.0625 -0.8125 C 3.28125 -0.5 3.4375 -0.3125 3.53125 -0.25 C 3.625 -0.1875 3.742188 -0.148438 3.890625 -0.140625 L 3.890625 0 L 2.203125 0 L 2.203125 -0.140625 C 2.328125 -0.140625 2.421875 -0.164062 2.484375 -0.21875 C 2.535156 -0.25 2.5625 -0.296875 2.5625 -0.359375 C 2.5625 -0.421875 2.476562 -0.570312 2.3125 -0.8125 L 1.78125 -1.578125 L 1.21875 -0.8125 C 1.039062 -0.570312 0.953125 -0.429688 0.953125 -0.390625 C 0.953125 -0.328125 0.976562 -0.269531 1.03125 -0.21875 C 1.09375 -0.164062 1.179688 -0.140625 1.296875 -0.140625 L 1.296875 0 L 0.125 0 L 0.125 -0.140625 C 0.21875 -0.148438 0.300781 -0.179688 0.375 -0.234375 C 0.476562 -0.304688 0.644531 -0.5 0.875 -0.8125 L 1.625 -1.8125 L 0.953125 -2.796875 C 0.753906 -3.078125 0.601562 -3.25 0.5 -3.3125 C 0.394531 -3.382812 0.265625 -3.421875 0.109375 -3.421875 Z M 0.109375 -3.578125 "/>
</g>
<g id="glyph-3-19">
<path d="M 0 -3.21875 L 1.09375 -3.65625 L 1.234375 -3.65625 L 1.234375 -2.828125 C 1.421875 -3.140625 1.609375 -3.359375 1.796875 -3.484375 C 1.984375 -3.609375 2.175781 -3.671875 2.375 -3.671875 C 2.738281 -3.671875 3.039062 -3.53125 3.28125 -3.25 C 3.570312 -2.90625 3.71875 -2.460938 3.71875 -1.921875 C 3.71875 -1.296875 3.539062 -0.785156 3.1875 -0.390625 C 2.894531 -0.0546875 2.53125 0.109375 2.09375 0.109375 C 1.894531 0.109375 1.726562 0.0820312 1.59375 0.03125 C 1.488281 -0.0078125 1.367188 -0.0859375 1.234375 -0.203125 L 1.234375 0.875 C 1.234375 1.125 1.25 1.28125 1.28125 1.34375 C 1.3125 1.414062 1.363281 1.46875 1.4375 1.5 C 1.507812 1.539062 1.644531 1.5625 1.84375 1.5625 L 1.84375 1.703125 L -0.03125 1.703125 L -0.03125 1.5625 L 0.0625 1.5625 C 0.207031 1.5625 0.332031 1.535156 0.4375 1.484375 C 0.488281 1.453125 0.523438 1.40625 0.546875 1.34375 C 0.578125 1.28125 0.59375 1.117188 0.59375 0.859375 L 0.59375 -2.515625 C 0.59375 -2.742188 0.582031 -2.890625 0.5625 -2.953125 C 0.539062 -3.015625 0.503906 -3.0625 0.453125 -3.09375 C 0.410156 -3.125 0.351562 -3.140625 0.28125 -3.140625 C 0.21875 -3.140625 0.132812 -3.125 0.03125 -3.09375 Z M 1.234375 -2.59375 L 1.234375 -1.265625 C 1.234375 -0.972656 1.25 -0.78125 1.28125 -0.6875 C 1.3125 -0.539062 1.394531 -0.410156 1.53125 -0.296875 C 1.675781 -0.179688 1.859375 -0.125 2.078125 -0.125 C 2.335938 -0.125 2.546875 -0.222656 2.703125 -0.421875 C 2.921875 -0.691406 3.03125 -1.066406 3.03125 -1.546875 C 3.03125 -2.085938 2.910156 -2.507812 2.671875 -2.8125 C 2.503906 -3.007812 2.304688 -3.109375 2.078125 -3.109375 C 1.953125 -3.109375 1.828125 -3.078125 1.703125 -3.015625 C 1.609375 -2.972656 1.453125 -2.832031 1.234375 -2.59375 Z M 1.234375 -2.59375 "/>
</g>
<g id="glyph-3-20">
<path d="M 0.0625 -3.578125 L 1.75 -3.578125 L 1.75 -3.421875 L 1.640625 -3.421875 C 1.535156 -3.421875 1.457031 -3.394531 1.40625 -3.34375 C 1.351562 -3.300781 1.328125 -3.238281 1.328125 -3.15625 C 1.328125 -3.0625 1.351562 -2.953125 1.40625 -2.828125 L 2.234375 -0.859375 L 3.078125 -2.90625 C 3.128906 -3.050781 3.15625 -3.160156 3.15625 -3.234375 C 3.15625 -3.273438 3.144531 -3.304688 3.125 -3.328125 C 3.101562 -3.367188 3.066406 -3.394531 3.015625 -3.40625 C 2.972656 -3.414062 2.882812 -3.421875 2.75 -3.421875 L 2.75 -3.578125 L 3.921875 -3.578125 L 3.921875 -3.421875 C 3.785156 -3.410156 3.691406 -3.382812 3.640625 -3.34375 C 3.546875 -3.269531 3.460938 -3.140625 3.390625 -2.953125 L 2.125 0.109375 L 1.96875 0.109375 L 0.6875 -2.90625 C 0.632812 -3.039062 0.582031 -3.140625 0.53125 -3.203125 C 0.476562 -3.265625 0.410156 -3.316406 0.328125 -3.359375 C 0.285156 -3.378906 0.195312 -3.398438 0.0625 -3.421875 Z M 0.0625 -3.578125 "/>
</g>
<g id="glyph-3-21">
<path d="M 1.203125 -1.296875 C 0.984375 -1.410156 0.816406 -1.5625 0.703125 -1.75 C 0.585938 -1.9375 0.53125 -2.144531 0.53125 -2.375 C 0.53125 -2.726562 0.660156 -3.03125 0.921875 -3.28125 C 1.191406 -3.539062 1.535156 -3.671875 1.953125 -3.671875 C 2.285156 -3.671875 2.578125 -3.585938 2.828125 -3.421875 L 3.59375 -3.421875 C 3.707031 -3.421875 3.769531 -3.414062 3.78125 -3.40625 C 3.800781 -3.40625 3.816406 -3.398438 3.828125 -3.390625 C 3.835938 -3.359375 3.84375 -3.316406 3.84375 -3.265625 C 3.84375 -3.191406 3.835938 -3.144531 3.828125 -3.125 C 3.816406 -3.101562 3.800781 -3.085938 3.78125 -3.078125 C 3.769531 -3.078125 3.707031 -3.078125 3.59375 -3.078125 L 3.125 -3.078125 C 3.269531 -2.890625 3.34375 -2.648438 3.34375 -2.359375 C 3.34375 -2.023438 3.210938 -1.738281 2.953125 -1.5 C 2.703125 -1.269531 2.363281 -1.15625 1.9375 -1.15625 C 1.757812 -1.15625 1.578125 -1.179688 1.390625 -1.234375 C 1.273438 -1.128906 1.195312 -1.039062 1.15625 -0.96875 C 1.125 -0.894531 1.109375 -0.832031 1.109375 -0.78125 C 1.109375 -0.738281 1.128906 -0.695312 1.171875 -0.65625 C 1.210938 -0.613281 1.296875 -0.582031 1.421875 -0.5625 C 1.492188 -0.550781 1.675781 -0.539062 1.96875 -0.53125 C 2.5 -0.519531 2.84375 -0.503906 3 -0.484375 C 3.25 -0.441406 3.441406 -0.347656 3.578125 -0.203125 C 3.722656 -0.0664062 3.796875 0.109375 3.796875 0.328125 C 3.796875 0.617188 3.660156 0.894531 3.390625 1.15625 C 2.984375 1.53125 2.453125 1.71875 1.796875 1.71875 C 1.296875 1.71875 0.875 1.609375 0.53125 1.390625 C 0.332031 1.253906 0.234375 1.117188 0.234375 0.984375 C 0.234375 0.921875 0.25 0.859375 0.28125 0.796875 C 0.320312 0.691406 0.410156 0.554688 0.546875 0.390625 C 0.566406 0.367188 0.703125 0.226562 0.953125 -0.03125 C 0.816406 -0.113281 0.71875 -0.1875 0.65625 -0.25 C 0.601562 -0.3125 0.578125 -0.382812 0.578125 -0.46875 C 0.578125 -0.550781 0.613281 -0.65625 0.6875 -0.78125 C 0.757812 -0.90625 0.929688 -1.078125 1.203125 -1.296875 Z M 1.890625 -3.484375 C 1.691406 -3.484375 1.523438 -3.40625 1.390625 -3.25 C 1.265625 -3.101562 1.203125 -2.867188 1.203125 -2.546875 C 1.203125 -2.140625 1.289062 -1.820312 1.46875 -1.59375 C 1.601562 -1.425781 1.773438 -1.34375 1.984375 -1.34375 C 2.179688 -1.34375 2.34375 -1.414062 2.46875 -1.5625 C 2.59375 -1.707031 2.65625 -1.941406 2.65625 -2.265625 C 2.65625 -2.671875 2.566406 -2.992188 2.390625 -3.234375 C 2.253906 -3.398438 2.085938 -3.484375 1.890625 -3.484375 Z M 1.171875 0 C 1.046875 0.132812 0.953125 0.257812 0.890625 0.375 C 0.828125 0.488281 0.796875 0.59375 0.796875 0.6875 C 0.796875 0.8125 0.867188 0.921875 1.015625 1.015625 C 1.273438 1.171875 1.648438 1.25 2.140625 1.25 C 2.609375 1.25 2.953125 1.164062 3.171875 1 C 3.398438 0.84375 3.515625 0.671875 3.515625 0.484375 C 3.515625 0.347656 3.445312 0.25 3.3125 0.1875 C 3.175781 0.132812 2.910156 0.101562 2.515625 0.09375 C 1.929688 0.0703125 1.484375 0.0390625 1.171875 0 Z M 1.171875 0 "/>
</g>
<g id="glyph-3-22">
<path d="M 1.15625 -5.546875 C 1.269531 -5.546875 1.363281 -5.503906 1.4375 -5.421875 C 1.519531 -5.347656 1.5625 -5.253906 1.5625 -5.140625 C 1.5625 -5.035156 1.519531 -4.941406 1.4375 -4.859375 C 1.363281 -4.785156 1.269531 -4.75 1.15625 -4.75 C 1.039062 -4.75 0.941406 -4.785156 0.859375 -4.859375 C 0.785156 -4.941406 0.75 -5.035156 0.75 -5.140625 C 0.75 -5.253906 0.785156 -5.347656 0.859375 -5.421875 C 0.941406 -5.503906 1.039062 -5.546875 1.15625 -5.546875 Z M 1.484375 -3.671875 L 1.484375 -0.078125 C 1.484375 0.523438 1.351562 0.972656 1.09375 1.265625 C 0.832031 1.566406 0.492188 1.71875 0.078125 1.71875 C -0.148438 1.71875 -0.320312 1.675781 -0.4375 1.59375 C -0.550781 1.507812 -0.609375 1.421875 -0.609375 1.328125 C -0.609375 1.234375 -0.578125 1.15625 -0.515625 1.09375 C -0.453125 1.03125 -0.378906 1 -0.296875 1 C -0.222656 1 -0.148438 1.015625 -0.078125 1.046875 C -0.0351562 1.066406 0.046875 1.132812 0.171875 1.25 C 0.296875 1.363281 0.398438 1.421875 0.484375 1.421875 C 0.546875 1.421875 0.609375 1.394531 0.671875 1.34375 C 0.734375 1.289062 0.773438 1.207031 0.796875 1.09375 C 0.828125 0.988281 0.84375 0.742188 0.84375 0.359375 L 0.84375 -2.171875 C 0.84375 -2.566406 0.832031 -2.820312 0.8125 -2.9375 C 0.789062 -3.019531 0.757812 -3.078125 0.71875 -3.109375 C 0.6875 -3.140625 0.632812 -3.15625 0.5625 -3.15625 C 0.488281 -3.15625 0.398438 -3.132812 0.296875 -3.09375 L 0.25 -3.234375 L 1.328125 -3.671875 Z M 1.484375 -3.671875 "/>
</g>
<g id="glyph-3-23">
<path d="M 3.28125 -1.359375 C 3.1875 -0.890625 3 -0.523438 2.71875 -0.265625 C 2.4375 -0.015625 2.125 0.109375 1.78125 0.109375 C 1.375 0.109375 1.019531 -0.0546875 0.71875 -0.390625 C 0.414062 -0.734375 0.265625 -1.195312 0.265625 -1.78125 C 0.265625 -2.34375 0.429688 -2.796875 0.765625 -3.140625 C 1.109375 -3.492188 1.515625 -3.671875 1.984375 -3.671875 C 2.328125 -3.671875 2.613281 -3.578125 2.84375 -3.390625 C 3.070312 -3.210938 3.1875 -3.019531 3.1875 -2.8125 C 3.1875 -2.71875 3.148438 -2.640625 3.078125 -2.578125 C 3.015625 -2.515625 2.925781 -2.484375 2.8125 -2.484375 C 2.664062 -2.484375 2.550781 -2.535156 2.46875 -2.640625 C 2.425781 -2.691406 2.394531 -2.789062 2.375 -2.9375 C 2.363281 -3.09375 2.3125 -3.210938 2.21875 -3.296875 C 2.132812 -3.378906 2.007812 -3.421875 1.84375 -3.421875 C 1.582031 -3.421875 1.375 -3.320312 1.21875 -3.125 C 1.007812 -2.875 0.90625 -2.535156 0.90625 -2.109375 C 0.90625 -1.691406 1.007812 -1.316406 1.21875 -0.984375 C 1.425781 -0.660156 1.707031 -0.5 2.0625 -0.5 C 2.320312 -0.5 2.550781 -0.585938 2.75 -0.765625 C 2.894531 -0.878906 3.035156 -1.09375 3.171875 -1.40625 Z M 3.28125 -1.359375 "/>
</g>
<g id="glyph-3-24">
<path d="M 0.046875 -3.578125 L 1.71875 -3.578125 L 1.71875 -3.421875 L 1.625 -3.421875 C 1.507812 -3.421875 1.421875 -3.394531 1.359375 -3.34375 C 1.304688 -3.300781 1.28125 -3.238281 1.28125 -3.15625 C 1.28125 -3.0625 1.320312 -2.921875 1.40625 -2.734375 L 2.28125 -0.9375 L 3.078125 -2.90625 C 3.117188 -3.019531 3.140625 -3.128906 3.140625 -3.234375 C 3.140625 -3.273438 3.128906 -3.304688 3.109375 -3.328125 C 3.085938 -3.359375 3.054688 -3.378906 3.015625 -3.390625 C 2.972656 -3.410156 2.894531 -3.421875 2.78125 -3.421875 L 2.78125 -3.578125 L 3.953125 -3.578125 L 3.953125 -3.421875 C 3.847656 -3.410156 3.769531 -3.390625 3.71875 -3.359375 C 3.664062 -3.328125 3.609375 -3.269531 3.546875 -3.1875 C 3.523438 -3.15625 3.484375 -3.054688 3.421875 -2.890625 L 1.96875 0.671875 C 1.820312 1.015625 1.632812 1.273438 1.40625 1.453125 C 1.1875 1.628906 0.96875 1.71875 0.75 1.71875 C 0.601562 1.71875 0.476562 1.671875 0.375 1.578125 C 0.28125 1.492188 0.234375 1.394531 0.234375 1.28125 C 0.234375 1.175781 0.265625 1.085938 0.328125 1.015625 C 0.398438 0.953125 0.5 0.921875 0.625 0.921875 C 0.71875 0.921875 0.835938 0.953125 0.984375 1.015625 C 1.085938 1.046875 1.148438 1.0625 1.171875 1.0625 C 1.253906 1.0625 1.34375 1.019531 1.4375 0.9375 C 1.53125 0.863281 1.625 0.710938 1.71875 0.484375 L 1.96875 -0.140625 L 0.6875 -2.828125 C 0.644531 -2.910156 0.582031 -3.015625 0.5 -3.140625 C 0.425781 -3.222656 0.367188 -3.28125 0.328125 -3.3125 C 0.273438 -3.351562 0.179688 -3.390625 0.046875 -3.421875 Z M 0.046875 -3.578125 "/>
</g>
</g>
<clipPath id="clip-0">
<path clip-rule="nonzero" d="M 0.191406 0 L 326.871094 0 L 326.871094 165.136719 L 0.191406 165.136719 Z M 0.191406 0 "/>
</clipPath>
<clipPath id="clip-1">
<path clip-rule="nonzero" d="M 13.769531 35 L 324 35 L 324 96 L 13.769531 96 Z M 13.769531 35 "/>
</clipPath>
<clipPath id="clip-2">
<path clip-rule="nonzero" d="M 13.769531 48 L 325 48 L 325 86 L 13.769531 86 Z M 13.769531 48 "/>
</clipPath>
<clipPath id="clip-3">
<path clip-rule="nonzero" d="M 13.769531 55 L 325 55 L 325 115 L 13.769531 115 Z M 13.769531 55 "/>
</clipPath>
</defs>
<g clip-path="url(#clip-0)">
<path fill-rule="nonzero" fill="rgb(100%, 100%, 100%)" fill-opacity="1" d="M 0.191406 165.136719 L 326.871094 165.136719 L 326.871094 0 L 0.191406 0 Z M 0.191406 165.136719 "/>
</g>
<path fill-rule="nonzero" fill="rgb(100%, 100%, 100%)" fill-opacity="1" d="M 13.769531 150.734375 L 325.4375 150.734375 L 325.4375 1.4375 L 13.769531 1.4375 Z M 13.769531 150.734375 "/>
<g clip-path="url(#clip-1)">
<path fill-rule="nonzero" fill="rgb(0%, 44.7052%, 69.802856%)" fill-opacity="0.12" d="M 13.769531 74.007812 L 13.769531 95.171875 L 14.546875 94.792969 L 15.324219 94.410156 L 16.101562 94.03125 L 16.878906 93.648438 L 17.65625 93.269531 L 18.433594 92.886719 L 19.988281 92.128906 L 20.765625 91.746094 L 21.542969 91.371094 L 23.875 90.234375 L 24.652344 89.859375 L 25.425781 89.484375 L 26.980469 88.734375 L 30.089844 87.25 L 30.867188 86.882812 L 31.644531 86.511719 L 32.421875 86.148438 L 33.199219 85.78125 L 34.753906 85.054688 L 37.085938 83.976562 L 38.640625 83.265625 L 40.972656 82.210938 L 41.75 81.863281 L 44.082031 80.832031 L 44.859375 80.492188 L 46.414062 79.820312 L 47.96875 79.15625 L 49.523438 78.5 L 51.078125 77.851562 L 51.855469 77.535156 L 52.632812 77.214844 L 53.40625 76.902344 L 54.183594 76.589844 L 55.738281 75.972656 L 56.515625 75.667969 L 57.292969 75.367188 L 58.847656 74.773438 L 59.625 74.480469 L 61.179688 73.902344 L 61.957031 73.617188 L 62.734375 73.335938 L 63.511719 73.058594 L 65.066406 72.511719 L 65.84375 72.242188 L 66.621094 71.976562 L 68.175781 71.453125 L 69.730469 70.945312 L 70.507812 70.695312 L 71.285156 70.449219 L 72.839844 69.964844 L 74.394531 69.496094 L 75.949219 69.042969 L 76.726562 68.820312 L 77.503906 68.601562 L 78.28125 68.386719 L 79.835938 67.964844 L 80.609375 67.761719 L 82.164062 67.363281 L 83.71875 66.980469 L 85.273438 66.613281 L 86.828125 66.261719 L 87.605469 66.089844 L 89.160156 65.761719 L 89.9375 65.601562 L 90.714844 65.445312 L 92.269531 65.148438 L 93.046875 65.003906 L 93.824219 64.863281 L 94.601562 64.726562 L 96.15625 64.46875 L 96.933594 64.34375 L 97.710938 64.222656 L 99.265625 63.996094 L 100.042969 63.886719 L 100.820312 63.78125 L 102.375 63.585938 L 103.152344 63.492188 L 103.929688 63.402344 L 105.484375 63.238281 L 106.261719 63.160156 L 107.039062 63.089844 L 107.8125 63.019531 L 109.367188 62.894531 L 110.144531 62.835938 L 111.699219 62.734375 L 112.476562 62.6875 L 114.03125 62.609375 L 115.585938 62.546875 L 116.363281 62.519531 L 117.140625 62.496094 L 118.695312 62.464844 L 119.472656 62.453125 L 120.25 62.445312 L 121.804688 62.445312 L 122.582031 62.449219 L 123.359375 62.457031 L 124.914062 62.480469 L 125.691406 62.5 L 126.46875 62.523438 L 128.023438 62.578125 L 129.578125 62.648438 L 130.355469 62.6875 L 132.6875 62.828125 L 133.464844 62.882812 L 135.019531 63 L 135.792969 63.066406 L 136.570312 63.132812 L 137.347656 63.203125 L 138.902344 63.351562 L 140.457031 63.515625 L 141.234375 63.601562 L 142.011719 63.691406 L 143.566406 63.878906 L 144.34375 63.976562 L 145.121094 64.078125 L 146.675781 64.289062 L 147.453125 64.398438 L 149.007812 64.625 L 149.785156 64.742188 L 151.339844 64.984375 L 152.117188 65.109375 L 152.894531 65.238281 L 155.226562 65.636719 L 156.003906 65.773438 L 156.78125 65.914062 L 157.558594 66.058594 L 158.335938 66.199219 L 159.890625 66.496094 L 162.222656 66.953125 L 162.996094 67.109375 L 165.328125 67.589844 L 166.882812 67.917969 L 168.4375 68.253906 L 170.769531 68.769531 L 173.101562 69.296875 L 176.210938 70.015625 L 178.542969 70.566406 L 180.097656 70.941406 L 180.875 71.125 L 181.652344 71.3125 L 182.429688 71.503906 L 183.207031 71.691406 L 183.984375 71.882812 L 184.761719 72.070312 L 190.203125 73.410156 L 190.976562 73.601562 L 196.417969 74.941406 L 197.195312 75.128906 L 198.75 75.511719 L 201.859375 76.261719 L 202.636719 76.445312 L 203.414062 76.632812 L 205.746094 77.183594 L 208.855469 77.902344 L 211.1875 78.429688 L 212.742188 78.773438 L 215.074219 79.277344 L 216.628906 79.605469 L 217.40625 79.765625 L 218.179688 79.925781 L 218.957031 80.085938 L 219.734375 80.242188 L 222.066406 80.699219 L 222.84375 80.847656 L 224.398438 81.136719 L 225.953125 81.417969 L 226.730469 81.554688 L 228.285156 81.820312 L 229.839844 82.078125 L 230.617188 82.203125 L 232.171875 82.445312 L 232.949219 82.5625 L 234.503906 82.789062 L 235.28125 82.898438 L 236.835938 83.109375 L 238.390625 83.304688 L 239.945312 83.492188 L 240.722656 83.582031 L 241.5 83.664062 L 242.277344 83.75 L 243.054688 83.828125 L 244.609375 83.976562 L 245.386719 84.046875 L 246.160156 84.113281 L 247.714844 84.238281 L 249.269531 84.347656 L 250.824219 84.441406 L 251.601562 84.484375 L 253.15625 84.5625 L 253.933594 84.59375 L 255.488281 84.648438 L 257.042969 84.6875 L 257.820312 84.703125 L 259.375 84.71875 L 260.152344 84.722656 L 260.929688 84.722656 L 261.707031 84.71875 L 262.484375 84.710938 L 263.261719 84.699219 L 264.039062 84.683594 L 264.816406 84.664062 L 266.371094 84.617188 L 267.148438 84.585938 L 267.925781 84.550781 L 268.703125 84.511719 L 269.480469 84.46875 L 271.035156 84.375 L 271.8125 84.320312 L 272.589844 84.261719 L 273.363281 84.199219 L 274.140625 84.132812 L 275.695312 83.992188 L 276.472656 83.914062 L 277.25 83.832031 L 278.027344 83.746094 L 278.804688 83.65625 L 279.582031 83.5625 L 281.136719 83.367188 L 281.914062 83.261719 L 282.691406 83.152344 L 283.46875 83.039062 L 284.246094 82.921875 L 285.023438 82.800781 L 285.800781 82.675781 L 286.578125 82.546875 L 287.355469 82.414062 L 288.132812 82.277344 L 288.910156 82.136719 L 289.6875 81.992188 L 290.464844 81.84375 L 291.242188 81.691406 L 292.019531 81.535156 L 292.796875 81.375 L 293.574219 81.210938 L 295.128906 80.875 L 295.90625 80.699219 L 296.683594 80.519531 L 297.460938 80.335938 L 299.015625 79.960938 L 300.570312 79.570312 L 301.34375 79.367188 L 302.121094 79.164062 L 303.675781 78.742188 L 304.453125 78.527344 L 306.007812 78.082031 L 307.5625 77.628906 L 308.339844 77.394531 L 309.894531 76.917969 L 311.449219 76.425781 L 312.226562 76.175781 L 313.003906 75.921875 L 314.558594 75.40625 L 316.113281 74.875 L 316.890625 74.605469 L 318.445312 74.058594 L 320 73.496094 L 320.777344 73.210938 L 322.332031 72.632812 L 323.109375 72.339844 L 323.886719 72.042969 L 323.886719 35.757812 L 323.109375 36.09375 L 322.332031 36.421875 L 321.554688 36.753906 L 320 37.402344 L 319.222656 37.71875 L 318.445312 38.039062 L 317.667969 38.351562 L 316.113281 38.96875 L 315.335938 39.273438 L 314.558594 39.574219 L 313.003906 40.167969 L 312.226562 40.460938 L 310.671875 41.03125 L 309.117188 41.59375 L 308.339844 41.867188 L 306.785156 42.40625 L 306.007812 42.671875 L 304.453125 43.1875 L 303.675781 43.441406 L 302.898438 43.691406 L 302.121094 43.9375 L 301.34375 44.179688 L 300.570312 44.421875 L 299.792969 44.65625 L 298.238281 45.117188 L 297.460938 45.339844 L 295.90625 45.777344 L 295.128906 45.992188 L 293.574219 46.40625 L 292.019531 46.804688 L 291.242188 47 L 289.6875 47.375 L 288.910156 47.558594 L 287.355469 47.910156 L 286.578125 48.082031 L 285.023438 48.410156 L 284.246094 48.570312 L 282.691406 48.875 L 281.136719 49.164062 L 280.359375 49.304688 L 278.804688 49.570312 L 277.25 49.820312 L 276.472656 49.941406 L 274.917969 50.167969 L 273.363281 50.378906 L 272.589844 50.476562 L 271.8125 50.574219 L 270.257812 50.753906 L 268.703125 50.917969 L 267.148438 51.066406 L 265.59375 51.199219 L 264.039062 51.316406 L 263.261719 51.371094 L 261.707031 51.464844 L 260.929688 51.507812 L 260.152344 51.546875 L 258.597656 51.609375 L 257.820312 51.636719 L 257.042969 51.660156 L 256.265625 51.679688 L 254.710938 51.710938 L 253.933594 51.71875 L 252.378906 51.726562 L 250.824219 51.71875 L 250.046875 51.710938 L 249.269531 51.699219 L 248.492188 51.683594 L 247.714844 51.664062 L 246.160156 51.617188 L 245.386719 51.589844 L 243.054688 51.484375 L 241.5 51.398438 L 239.167969 51.246094 L 237.613281 51.128906 L 236.835938 51.066406 L 235.28125 50.933594 L 234.503906 50.859375 L 233.726562 50.789062 L 232.171875 50.632812 L 231.394531 50.550781 L 229.839844 50.378906 L 229.0625 50.289062 L 227.507812 50.101562 L 225.953125 49.90625 L 225.175781 49.804688 L 222.84375 49.488281 L 222.066406 49.375 L 221.289062 49.265625 L 220.511719 49.148438 L 219.734375 49.035156 L 218.957031 48.914062 L 218.179688 48.796875 L 217.40625 48.671875 L 216.628906 48.550781 L 215.851562 48.425781 L 213.519531 48.039062 L 211.964844 47.773438 L 209.632812 47.363281 L 208.855469 47.222656 L 208.078125 47.085938 L 207.300781 46.941406 L 206.523438 46.800781 L 204.191406 46.367188 L 203.414062 46.21875 L 202.636719 46.074219 L 201.082031 45.777344 L 200.304688 45.625 L 199.527344 45.476562 L 198.75 45.324219 L 197.972656 45.175781 L 195.640625 44.71875 L 194.863281 44.5625 L 193.308594 44.257812 L 192.53125 44.101562 L 190.976562 43.796875 L 190.203125 43.640625 L 189.425781 43.488281 L 188.648438 43.332031 L 185.539062 42.722656 L 184.761719 42.566406 L 183.984375 42.417969 L 182.429688 42.113281 L 181.652344 41.964844 L 180.875 41.8125 L 178.542969 41.367188 L 176.988281 41.078125 L 176.210938 40.929688 L 175.433594 40.789062 L 174.65625 40.644531 L 172.324219 40.222656 L 170.769531 39.949219 L 169.992188 39.816406 L 169.214844 39.679688 L 168.4375 39.546875 L 166.105469 39.160156 L 164.550781 38.910156 L 162.996094 38.667969 L 162.222656 38.550781 L 161.445312 38.433594 L 159.113281 38.09375 L 158.335938 37.988281 L 157.558594 37.878906 L 155.226562 37.574219 L 154.449219 37.476562 L 152.894531 37.289062 L 152.117188 37.199219 L 150.5625 37.027344 L 149.785156 36.945312 L 148.230469 36.789062 L 147.453125 36.714844 L 145.898438 36.574219 L 145.121094 36.507812 L 143.566406 36.382812 L 142.011719 36.273438 L 140.457031 36.171875 L 138.902344 36.085938 L 138.125 36.046875 L 137.347656 36.011719 L 135.792969 35.949219 L 135.019531 35.925781 L 134.242188 35.902344 L 133.464844 35.882812 L 132.6875 35.867188 L 131.132812 35.84375 L 129.578125 35.835938 L 128.800781 35.835938 L 127.246094 35.851562 L 126.46875 35.863281 L 125.691406 35.878906 L 124.914062 35.898438 L 123.359375 35.945312 L 122.582031 35.976562 L 121.027344 36.046875 L 119.472656 36.132812 L 117.917969 36.234375 L 116.363281 36.351562 L 114.808594 36.484375 L 114.03125 36.554688 L 112.476562 36.710938 L 111.699219 36.792969 L 110.144531 36.972656 L 109.367188 37.066406 L 107.8125 37.269531 L 107.039062 37.375 L 105.484375 37.601562 L 104.707031 37.71875 L 103.152344 37.96875 L 102.375 38.097656 L 100.820312 38.371094 L 99.265625 38.660156 L 97.710938 38.964844 L 96.15625 39.285156 L 95.378906 39.449219 L 93.824219 39.792969 L 92.269531 40.152344 L 90.714844 40.527344 L 89.160156 40.917969 L 87.605469 41.324219 L 86.050781 41.746094 L 85.273438 41.960938 L 83.71875 42.40625 L 82.941406 42.632812 L 82.164062 42.863281 L 81.386719 43.097656 L 80.609375 43.335938 L 79.835938 43.578125 L 79.058594 43.824219 L 78.28125 44.074219 L 77.503906 44.328125 L 75.949219 44.84375 L 74.394531 45.375 L 73.617188 45.644531 L 72.839844 45.917969 L 72.0625 46.195312 L 71.285156 46.476562 L 70.507812 46.761719 L 68.953125 47.339844 L 67.398438 47.933594 L 65.84375 48.535156 L 64.289062 49.152344 L 61.957031 50.101562 L 60.402344 50.75 L 59.625 51.078125 L 58.070312 51.742188 L 57.292969 52.078125 L 56.515625 52.417969 L 54.960938 53.105469 L 54.183594 53.453125 L 53.40625 53.804688 L 52.632812 54.15625 L 51.078125 54.867188 L 50.300781 55.226562 L 48.746094 55.953125 L 47.96875 56.320312 L 46.414062 57.0625 L 44.082031 58.1875 L 43.304688 58.570312 L 42.527344 58.949219 L 41.75 59.335938 L 40.972656 59.71875 L 40.195312 60.105469 L 38.640625 60.886719 L 36.308594 62.070312 L 33.976562 63.265625 L 32.421875 64.070312 L 29.3125 65.695312 L 26.203125 67.335938 L 25.425781 67.75 L 24.652344 68.164062 L 22.320312 69.40625 L 20.765625 70.242188 L 19.988281 70.65625 L 17.65625 71.910156 L 16.878906 72.332031 L 14.546875 73.585938 Z M 13.769531 74.007812 "/>
</g>
<g fill="rgb(0%, 0%, 0%)" fill-opacity="1">
<use xlink:href="#glyph-0-0" x="150.153331" y="160.958028"/>
</g>
<g fill="rgb(0%, 0%, 0%)" fill-opacity="1">
<use xlink:href="#glyph-0-1" x="152.647311" y="160.958028"/>
</g>
<g fill="rgb(0%, 0%, 0%)" fill-opacity="1">
<use xlink:href="#glyph-0-2" x="155.141292" y="160.958028"/>
</g>
<g fill="rgb(0%, 0%, 0%)" fill-opacity="1">
<use xlink:href="#glyph-0-3" x="162.123563" y="160.958028"/>
</g>
<g fill="rgb(0%, 0%, 0%)" fill-opacity="1">
<use xlink:href="#glyph-0-4" x="166.107796" y="160.958028"/>
</g>
<g fill="rgb(0%, 0%, 0%)" fill-opacity="1">
<use xlink:href="#glyph-0-5" x="168.35194" y="160.958028"/>
</g>
<g fill="rgb(0%, 0%, 0%)" fill-opacity="1">
<use xlink:href="#glyph-0-0" x="171.845267" y="160.958028"/>
</g>
<g fill="rgb(0%, 0%, 0%)" fill-opacity="1">
<use xlink:href="#glyph-0-3" x="174.339248" y="160.958028"/>
</g>
<g fill="rgb(0%, 0%, 0%)" fill-opacity="1">
<use xlink:href="#glyph-0-6" x="178.323481" y="160.958028"/>
</g>
<g fill="rgb(0%, 0%, 0%)" fill-opacity="1">
<use xlink:href="#glyph-0-4" x="182.81177" y="160.958028"/>
</g>
<g fill="rgb(0%, 0%, 0%)" fill-opacity="1">
<use xlink:href="#glyph-1-0" x="185.055915" y="160.958028"/>
</g>
<g fill="rgb(0%, 0%, 0%)" fill-opacity="1">
<use xlink:href="#glyph-2-0" x="7.86272" y="84.314008"/>
<use xlink:href="#glyph-2-1" x="7.86272" y="80.822119"/>
<use xlink:href="#glyph-2-2" x="7.86272" y="78.32663"/>
<use xlink:href="#glyph-2-1" x="7.86272" y="74.341029"/>
<use xlink:href="#glyph-2-3" x="7.86272" y="71.845541"/>
</g>
<path fill="none" stroke-width="0.7" stroke-linecap="square" stroke-linejoin="miter" stroke="rgb(0%, 0%, 0%)" stroke-opacity="1" stroke-miterlimit="10" d="M 13.612223 14.440329 L 13.612223 164.126749 " transform="matrix(0.997398, 0, 0, -0.997398, 0.192733, 165.137124)"/>
<path fill="none" stroke-width="0.7" stroke-linecap="square" stroke-linejoin="miter" stroke="rgb(0%, 0%, 0%)" stroke-opacity="1" stroke-miterlimit="10" d="M 13.612223 14.440329 L 326.093396 14.440329 " transform="matrix(0.997398, 0, 0, -0.997398, 0.192733, 165.137124)"/>
<g clip-path="url(#clip-2)">
<path fill="none" stroke-width="1.4" stroke-linecap="square" stroke-linejoin="round" stroke="rgb(0%, 44.7052%, 69.802856%)" stroke-opacity="1" stroke-miterlimit="10" d="M 13.612223 80.757444 L 32.313235 90.26265 L 42.445071 95.150369 L 51.018162 99.03548 L 58.807966 102.313542 L 65.822314 105.019804 L 72.836662 107.475413 L 79.071638 109.421885 L 85.302697 111.137286 L 91.537673 112.613785 L 97.772649 113.839632 L 104.007625 114.810909 L 110.238685 115.531535 L 116.473661 116.001508 L 122.708637 116.228661 L 128.943613 116.212996 L 135.178589 115.974093 L 141.409648 115.523702 L 148.423996 114.787411 L 155.438344 113.827882 L 163.228148 112.539373 L 172.580612 110.753475 L 184.271191 108.270451 L 211.545295 102.372289 L 220.893842 100.625556 L 228.687562 99.38796 L 235.70191 98.479345 L 242.716258 97.797884 L 248.947318 97.402324 L 255.182294 97.226084 L 261.41727 97.276998 L 267.652246 97.566814 L 273.883305 98.103367 L 280.118281 98.894488 L 286.353257 99.936262 L 292.588233 101.228688 L 298.823209 102.771766 L 305.054268 104.553747 L 311.289244 106.562882 L 317.52422 108.787421 L 324.538568 111.528931 " transform="matrix(0.997398, 0, 0, -0.997398, 0.192733, 165.137124)"/>
</g>
<g clip-path="url(#clip-3)">
<path fill="none" stroke-width="1.4" stroke-linecap="butt" stroke-linejoin="round" stroke="rgb(83.528137%, 36.862183%, 0%)" stroke-opacity="1" stroke-dasharray="5.18 2.24" stroke-miterlimit="10" d="M 13.612223 82.11645 L 18.288455 84.713051 L 22.185315 86.65169 L 26.078259 88.359259 L 29.975119 89.84359 L 34.651351 91.351421 L 40.106955 92.824003 L 58.807966 97.543316 L 64.26357 99.274383 L 71.277918 101.76524 L 81.405837 105.387949 L 86.082069 106.805701 L 89.978929 107.75348 L 93.096417 108.321365 L 96.213905 108.697343 L 99.331393 108.877499 L 102.448881 108.854001 L 105.566369 108.642513 L 109.459313 108.133375 L 113.356173 107.393168 L 118.811777 106.096825 L 135.178589 101.945397 L 140.630276 100.860542 L 147.644624 99.709108 L 157.77646 98.075952 L 162.452692 97.100758 L 166.345636 96.082483 L 170.242496 94.840971 L 174.139356 93.352723 L 178.036215 91.625572 L 182.712447 89.263957 L 188.168051 86.213048 L 202.972203 77.686954 L 207.648435 75.341005 L 211.545295 73.609937 L 215.442155 72.098191 L 219.335098 70.794016 L 224.01133 69.470258 L 230.246306 67.974177 L 241.936886 65.236584 L 247.388574 63.689589 L 252.844178 61.895859 L 259.079154 59.585158 L 271.549106 54.873678 L 276.221421 53.408929 L 280.118281 52.429818 L 284.015141 51.713109 L 287.132629 51.341047 L 291.029489 51.129559 L 294.926349 51.184389 L 298.823209 51.462457 L 303.495524 52.014675 L 321.42108 54.450702 L 324.538568 54.673939 " transform="matrix(0.997398, 0, 0, -0.997398, 0.192733, 165.137124)"/>
</g>
<path fill="none" stroke-width="0.6" stroke-linecap="round" stroke-linejoin="round" stroke="rgb(53.33252%, 53.33252%, 53.33252%)" stroke-opacity="1" stroke-miterlimit="10" d="M 65.446335 58.104743 C 65.767484 70.923258 66.092548 83.74569 66.417613 96.564205 " transform="matrix(0.997398, 0, 0, -0.997398, 0.192733, 165.137124)"/>
<g fill="rgb(19.999695%, 19.999695%, 19.999695%)" fill-opacity="1">
<use xlink:href="#glyph-3-0" x="47.881968" y="116.717335"/>
<use xlink:href="#glyph-3-1" x="50.985869" y="116.717335"/>
<use xlink:href="#glyph-3-2" x="57.193672" y="116.717335"/>
<use xlink:href="#glyph-3-3" x="60.736428" y="116.717335"/>
<use xlink:href="#glyph-3-3" x="62.95464" y="116.717335"/>
<use xlink:href="#glyph-3-4" x="65.172853" y="116.717335"/>
<use xlink:href="#glyph-3-5" x="67.167648" y="116.717335"/>
<use xlink:href="#glyph-3-6" x="70.710404" y="116.717335"/>
<use xlink:href="#glyph-3-6" x="73.367471" y="116.717335"/>
<use xlink:href="#glyph-3-7" x="76.024538" y="116.717335"/>
<use xlink:href="#glyph-3-6" x="80.014129" y="116.717335"/>
</g>
<path fill="none" stroke-width="0.6" stroke-linecap="round" stroke-linejoin="round" stroke="rgb(53.33252%, 53.33252%, 53.33252%)" stroke-opacity="1" stroke-miterlimit="10" d="M 235.263269 43.116519 C 220.513947 56.655659 205.764626 70.1948 191.015305 83.730024 " transform="matrix(0.997398, 0, 0, -0.997398, 0.192733, 165.137124)"/>
<g fill="rgb(19.999695%, 19.999695%, 19.999695%)" fill-opacity="1">
<use xlink:href="#glyph-3-7" x="199.838915" y="131.023674"/>
<use xlink:href="#glyph-3-8" x="203.828505" y="131.023674"/>
</g>
<g fill="rgb(19.999695%, 19.999695%, 19.999695%)" fill-opacity="1">
<use xlink:href="#glyph-3-8" x="206.345313" y="131.023674"/>
<use xlink:href="#glyph-3-9" x="209.00238" y="131.023674"/>
<use xlink:href="#glyph-3-10" x="211.659448" y="131.023674"/>
<use xlink:href="#glyph-3-11" x="215.649038" y="131.023674"/>
<use xlink:href="#glyph-3-0" x="217.86725" y="131.023674"/>
<use xlink:href="#glyph-3-12" x="220.971152" y="131.023674"/>
<use xlink:href="#glyph-3-6" x="223.189364" y="131.023674"/>
<use xlink:href="#glyph-3-11" x="225.846431" y="131.023674"/>
<use xlink:href="#glyph-3-13" x="228.064643" y="131.023674"/>
<use xlink:href="#glyph-3-14" x="232.054234" y="131.023674"/>
<use xlink:href="#glyph-3-12" x="236.043824" y="131.023674"/>
<use xlink:href="#glyph-3-11" x="238.262036" y="131.023674"/>
<use xlink:href="#glyph-3-7" x="240.480248" y="131.023674"/>
<use xlink:href="#glyph-3-15" x="244.469839" y="131.023674"/>
<use xlink:href="#glyph-3-16" x="248.459429" y="131.023674"/>
</g>
<g fill="rgb(19.999695%, 19.999695%, 19.999695%)" fill-opacity="1">
<use xlink:href="#glyph-3-0" x="199.838915" y="139.39558"/>
<use xlink:href="#glyph-3-12" x="202.942816" y="139.39558"/>
<use xlink:href="#glyph-3-2" x="205.161028" y="139.39558"/>
<use xlink:href="#glyph-3-12" x="208.703785" y="139.39558"/>
<use xlink:href="#glyph-3-5" x="210.921997" y="139.39558"/>
<use xlink:href="#glyph-3-0" x="214.464753" y="139.39558"/>
<use xlink:href="#glyph-3-4" x="217.568654" y="139.39558"/>
<use xlink:href="#glyph-3-12" x="219.56345" y="139.39558"/>
<use xlink:href="#glyph-3-17" x="221.781662" y="139.39558"/>
<use xlink:href="#glyph-3-5" x="225.771252" y="139.39558"/>
<use xlink:href="#glyph-3-4" x="229.314008" y="139.39558"/>
<use xlink:href="#glyph-3-5" x="231.308804" y="139.39558"/>
<use xlink:href="#glyph-3-18" x="234.85156" y="139.39558"/>
<use xlink:href="#glyph-3-19" x="238.84115" y="139.39558"/>
<use xlink:href="#glyph-3-5" x="242.830741" y="139.39558"/>
<use xlink:href="#glyph-3-6" x="246.373497" y="139.39558"/>
<use xlink:href="#glyph-3-12" x="249.030564" y="139.39558"/>
<use xlink:href="#glyph-3-4" x="251.248776" y="139.39558"/>
<use xlink:href="#glyph-3-15" x="253.243571" y="139.39558"/>
<use xlink:href="#glyph-3-5" x="257.233162" y="139.39558"/>
<use xlink:href="#glyph-3-20" x="260.775918" y="139.39558"/>
<use xlink:href="#glyph-3-5" x="264.765508" y="139.39558"/>
<use xlink:href="#glyph-3-6" x="268.308265" y="139.39558"/>
<use xlink:href="#glyph-3-4" x="270.965332" y="139.39558"/>
<use xlink:href="#glyph-3-20" x="272.960127" y="139.39558"/>
<use xlink:href="#glyph-3-11" x="276.949717" y="139.39558"/>
<use xlink:href="#glyph-3-0" x="279.16793" y="139.39558"/>
<use xlink:href="#glyph-3-11" x="282.271831" y="139.39558"/>
<use xlink:href="#glyph-3-12" x="284.490043" y="139.39558"/>
<use xlink:href="#glyph-3-5" x="286.708255" y="139.39558"/>
<use xlink:href="#glyph-3-10" x="290.251012" y="139.39558"/>
</g>
<g fill="rgb(0%, 44.7052%, 69.802856%)" fill-opacity="1">
<use xlink:href="#glyph-3-12" x="244.02534" y="44.783312"/>
<use xlink:href="#glyph-3-6" x="246.243552" y="44.783312"/>
<use xlink:href="#glyph-3-2" x="248.900619" y="44.783312"/>
<use xlink:href="#glyph-3-11" x="252.443376" y="44.783312"/>
<use xlink:href="#glyph-3-15" x="254.661588" y="44.783312"/>
<use xlink:href="#glyph-3-11" x="258.651178" y="44.783312"/>
<use xlink:href="#glyph-3-15" x="260.86939" y="44.783312"/>
<use xlink:href="#glyph-3-21" x="264.858981" y="44.783312"/>
<use xlink:href="#glyph-3-4" x="268.848571" y="44.783312"/>
<use xlink:href="#glyph-3-10" x="270.843366" y="44.783312"/>
<use xlink:href="#glyph-3-11" x="274.832957" y="44.783312"/>
<use xlink:href="#glyph-3-0" x="277.051169" y="44.783312"/>
<use xlink:href="#glyph-3-12" x="280.15507" y="44.783312"/>
<use xlink:href="#glyph-3-6" x="282.373283" y="44.783312"/>
<use xlink:href="#glyph-3-11" x="285.03035" y="44.783312"/>
<use xlink:href="#glyph-3-13" x="287.248562" y="44.783312"/>
<use xlink:href="#glyph-3-14" x="291.238152" y="44.783312"/>
<use xlink:href="#glyph-3-12" x="295.227743" y="44.783312"/>
<use xlink:href="#glyph-3-11" x="297.445955" y="44.783312"/>
<use xlink:href="#glyph-3-7" x="299.664167" y="44.783312"/>
<use xlink:href="#glyph-3-15" x="303.653758" y="44.783312"/>
</g>
<path fill-rule="nonzero" fill="rgb(83.528137%, 36.862183%, 0%)" fill-opacity="1" stroke-width="0.4" stroke-linecap="butt" stroke-linejoin="round" stroke="rgb(100%, 100%, 100%)" stroke-opacity="1" stroke-miterlimit="10" d="M 132.840473 100.222162 C 133.435772 100.222162 134.007572 100.457149 134.430548 100.880124 C 134.853524 101.3031 135.08851 101.874901 135.08851 102.4702 C 135.08851 103.069416 134.853524 103.641216 134.430548 104.064192 C 134.007572 104.483251 133.435772 104.722154 132.840473 104.722154 C 132.241257 104.722154 131.669456 104.483251 131.246481 104.064192 C 130.827421 103.641216 130.588518 103.069416 130.588518 102.4702 C 130.588518 101.874901 130.827421 101.3031 131.246481 100.880124 C 131.669456 100.457149 132.241257 100.222162 132.840473 100.222162 Z M 132.840473 100.222162 " transform="matrix(0.997398, 0, 0, -0.997398, 0.192733, 165.137124)"/>
<path fill="none" stroke-width="1.4" stroke-linecap="square" stroke-linejoin="round" stroke="rgb(0%, 44.7052%, 69.802856%)" stroke-opacity="1" stroke-miterlimit="10" d="M 20.810644 154.128072 L 40.01296 154.128072 " transform="matrix(0.997398, 0, 0, -0.997398, 0.192733, 165.137124)"/>
<g fill="rgb(0%, 0%, 0%)" fill-opacity="1">
<use xlink:href="#glyph-3-5" x="46.483825" y="14.202942"/>
<use xlink:href="#glyph-3-18" x="50.026581" y="14.202942"/>
<use xlink:href="#glyph-3-19" x="54.016172" y="14.202942"/>
<use xlink:href="#glyph-3-5" x="58.005762" y="14.202942"/>
<use xlink:href="#glyph-3-6" x="61.548518" y="14.202942"/>
<use xlink:href="#glyph-3-12" x="64.205585" y="14.202942"/>
<use xlink:href="#glyph-3-4" x="66.423798" y="14.202942"/>
<use xlink:href="#glyph-3-12" x="68.418593" y="14.202942"/>
<use xlink:href="#glyph-3-6" x="70.636805" y="14.202942"/>
<use xlink:href="#glyph-3-2" x="73.293872" y="14.202942"/>
<use xlink:href="#glyph-3-22" x="76.836628" y="14.202942"/>
<use xlink:href="#glyph-3-5" x="79.054841" y="14.202942"/>
<use xlink:href="#glyph-3-23" x="82.597597" y="14.202942"/>
<use xlink:href="#glyph-3-12" x="86.140353" y="14.202942"/>
<use xlink:href="#glyph-3-7" x="88.358565" y="14.202942"/>
<use xlink:href="#glyph-3-6" x="92.348156" y="14.202942"/>
<use xlink:href="#glyph-3-24" x="95.005223" y="14.202942"/>
</g>
<path fill="none" stroke-width="1.4" stroke-linecap="butt" stroke-linejoin="round" stroke="rgb(83.528137%, 36.862183%, 0%)" stroke-opacity="1" stroke-dasharray="5.18 2.24" stroke-miterlimit="10" d="M 20.810644 142.793889 L 40.01296 142.793889 " transform="matrix(0.997398, 0, 0, -0.997398, 0.192733, 165.137124)"/>
<g fill="rgb(0%, 0%, 0%)" fill-opacity="1">
<use xlink:href="#glyph-3-13" x="46.483825" y="25.50782"/>
<use xlink:href="#glyph-3-5" x="50.473415" y="25.50782"/>
<use xlink:href="#glyph-3-17" x="54.016172" y="25.50782"/>
<use xlink:href="#glyph-3-2" x="58.005762" y="25.50782"/>
<use xlink:href="#glyph-3-20" x="61.548518" y="25.50782"/>
<use xlink:href="#glyph-3-11" x="65.538109" y="25.50782"/>
<use xlink:href="#glyph-3-7" x="67.756321" y="25.50782"/>
<use xlink:href="#glyph-3-6" x="71.745911" y="25.50782"/>
</g>
<g fill="rgb(0%, 0%, 0%)" fill-opacity="1">
<use xlink:href="#glyph-3-9" x="74.247135" y="25.50782"/>
<use xlink:href="#glyph-3-23" x="76.904202" y="25.50782"/>
<use xlink:href="#glyph-3-3" x="80.446958" y="25.50782"/>
<use xlink:href="#glyph-3-7" x="82.665171" y="25.50782"/>
<use xlink:href="#glyph-3-15" x="86.654761" y="25.50782"/>
<use xlink:href="#glyph-3-11" x="90.644351" y="25.50782"/>
<use xlink:href="#glyph-3-15" x="92.862564" y="25.50782"/>
<use xlink:href="#glyph-3-21" x="96.852154" y="25.50782"/>
<use xlink:href="#glyph-3-4" x="100.841744" y="25.50782"/>
<use xlink:href="#glyph-3-6" x="102.836539" y="25.50782"/>
<use xlink:href="#glyph-3-7" x="105.493607" y="25.50782"/>
<use xlink:href="#glyph-3-3" x="109.483197" y="25.50782"/>
<use xlink:href="#glyph-3-3" x="111.701409" y="25.50782"/>
<use xlink:href="#glyph-3-7" x="113.919621" y="25.50782"/>
<use xlink:href="#glyph-3-14" x="117.909212" y="25.50782"/>
<use xlink:href="#glyph-3-12" x="121.898802" y="25.50782"/>
</g>
</svg>
