<?xml version="1.0" encoding="UTF-8"?>
<svg xmlns="http://www.w3.org/2000/svg" xmlns:xlink="http://www.w3.org/1999/xlink" width="375.171pt" height="86.62pt" viewBox="0 0 375.171 86.62">
<defs>
<g>
<g id="glyph-0-0">
<path d="M 2.5 -5.0625 C 2.5 -5.265625 2.46875 -5.28125 2.265625 -5.28125 C 1.9375 -4.953125 1.515625 -4.765625 0.765625 -4.765625 L 0.765625 -4.515625 C 0.96875 -4.515625 1.40625 -4.515625 1.859375 -4.71875 L 1.859375 -0.65625 C 1.859375 -0.359375 1.84375 -0.265625 1.09375 -0.265625 L 0.8125 -0.265625 L 0.8125 0 C 1.140625 -0.03125 1.8125 -0.03125 2.171875 -0.03125 C 2.53125 -0.03125 3.21875 -0.03125 3.546875 0 L 3.546875 -0.265625 L 3.265625 -0.265625 C 2.515625 -0.265625 2.5 -0.359375 2.5 -0.65625 Z M 2.5 -5.0625 "/>
</g>
<g id="glyph-0-1">
<path d="M 1.609375 -2.96875 C 1.609375 -3.25 1.390625 -3.421875 1.171875 -3.421875 C 0.90625 -3.421875 0.734375 -3.203125 0.734375 -2.984375 C 0.734375 -2.71875 0.9375 -2.546875 1.171875 -2.546875 C 1.4375 -2.546875 1.609375 -2.75 1.609375 -2.96875 Z M 1.609375 -0.4375 C 1.609375 -0.703125 1.390625 -0.875 1.171875 -0.875 C 0.90625 -0.875 0.734375 -0.671875 0.734375 -0.4375 C 0.734375 -0.171875 0.9375 0 1.171875 0 C 1.4375 0 1.609375 -0.21875 1.609375 -0.4375 Z M 1.609375 -0.4375 "/>
</g>
<g id="glyph-0-2">
<path d="M 2.234375 -1.625 C 2.359375 -1.734375 2.703125 -2 2.828125 -2.109375 C 3.3125 -2.5625 3.78125 -3 3.78125 -3.71875 C 3.78125 -4.671875 3 -5.28125 2 -5.28125 C 1.046875 -5.28125 0.421875 -4.5625 0.421875 -3.84375 C 0.421875 -3.453125 0.734375 -3.40625 0.84375 -3.40625 C 1.015625 -3.40625 1.25 -3.53125 1.25 -3.828125 C 1.25 -4.234375 0.859375 -4.234375 0.765625 -4.234375 C 0.984375 -4.8125 1.53125 -5.015625 1.90625 -5.015625 C 2.65625 -5.015625 3.03125 -4.390625 3.03125 -3.71875 C 3.03125 -2.890625 2.453125 -2.296875 1.515625 -1.328125 L 0.515625 -0.296875 C 0.421875 -0.21875 0.421875 -0.203125 0.421875 0 L 3.5625 0 L 3.78125 -1.421875 L 3.546875 -1.421875 C 3.515625 -1.265625 3.453125 -0.859375 3.359375 -0.71875 C 3.3125 -0.65625 2.703125 -0.65625 2.578125 -0.65625 L 1.171875 -0.65625 Z M 2.234375 -1.625 "/>
</g>
<g id="glyph-0-3">
<path d="M 2.015625 -2.65625 C 2.640625 -2.65625 3.03125 -2.1875 3.03125 -1.359375 C 3.03125 -0.359375 2.46875 -0.078125 2.046875 -0.078125 C 1.609375 -0.078125 1.015625 -0.234375 0.734375 -0.65625 C 1.03125 -0.65625 1.21875 -0.828125 1.21875 -1.09375 C 1.21875 -1.34375 1.046875 -1.53125 0.78125 -1.53125 C 0.578125 -1.53125 0.34375 -1.390625 0.34375 -1.078125 C 0.34375 -0.328125 1.15625 0.171875 2.0625 0.171875 C 3.125 0.171875 3.859375 -0.5625 3.859375 -1.359375 C 3.859375 -2.015625 3.328125 -2.625 2.53125 -2.796875 C 3.15625 -3.015625 3.625 -3.5625 3.625 -4.1875 C 3.625 -4.828125 2.90625 -5.28125 2.078125 -5.28125 C 1.234375 -5.28125 0.59375 -4.8125 0.59375 -4.21875 C 0.59375 -3.921875 0.78125 -3.796875 0.984375 -3.796875 C 1.234375 -3.796875 1.390625 -3.96875 1.390625 -4.203125 C 1.390625 -4.5 1.140625 -4.609375 0.96875 -4.609375 C 1.296875 -5.046875 1.90625 -5.078125 2.0625 -5.078125 C 2.265625 -5.078125 2.859375 -5.015625 2.859375 -4.1875 C 2.859375 -3.640625 2.640625 -3.296875 2.53125 -3.171875 C 2.28125 -2.921875 2.109375 -2.90625 1.625 -2.875 C 1.46875 -2.875 1.40625 -2.859375 1.40625 -2.765625 C 1.40625 -2.65625 1.46875 -2.65625 1.609375 -2.65625 Z M 2.015625 -2.65625 "/>
</g>
<g id="glyph-0-4">
<path d="M 3.125 -5.140625 C 3.125 -5.296875 3.125 -5.359375 2.953125 -5.359375 C 2.859375 -5.359375 2.84375 -5.34375 2.765625 -5.234375 L 0.234375 -1.5625 L 0.234375 -1.296875 L 2.46875 -1.296875 L 2.46875 -0.640625 C 2.46875 -0.34375 2.453125 -0.265625 1.84375 -0.265625 L 1.65625 -0.265625 L 1.65625 0 C 2.328125 -0.03125 2.34375 -0.03125 2.796875 -0.03125 C 3.25 -0.03125 3.265625 -0.03125 3.9375 0 L 3.9375 -0.265625 L 3.765625 -0.265625 C 3.15625 -0.265625 3.125 -0.34375 3.125 -0.640625 L 3.125 -1.296875 L 3.96875 -1.296875 L 3.96875 -1.5625 L 3.125 -1.5625 Z M 2.53125 -4.5 L 2.53125 -1.5625 L 0.515625 -1.5625 Z M 2.53125 -4.5 "/>
</g>
<g id="glyph-0-5">
<path d="M 1.109375 -4.453125 C 1.21875 -4.421875 1.53125 -4.34375 1.859375 -4.34375 C 2.859375 -4.34375 3.453125 -5.046875 3.453125 -5.171875 C 3.453125 -5.25 3.40625 -5.28125 3.359375 -5.28125 C 3.34375 -5.28125 3.328125 -5.28125 3.265625 -5.234375 C 2.953125 -5.125 2.59375 -5.03125 2.15625 -5.03125 C 1.6875 -5.03125 1.296875 -5.140625 1.0625 -5.234375 C 0.96875 -5.28125 0.953125 -5.28125 0.953125 -5.28125 C 0.84375 -5.28125 0.84375 -5.1875 0.84375 -5.046875 L 0.84375 -2.71875 C 0.84375 -2.578125 0.84375 -2.484375 0.96875 -2.484375 C 1.046875 -2.484375 1.0625 -2.515625 1.109375 -2.578125 C 1.203125 -2.703125 1.5 -3.109375 2.171875 -3.109375 C 2.625 -3.109375 2.828125 -2.734375 2.90625 -2.59375 C 3.046875 -2.296875 3.0625 -1.9375 3.0625 -1.625 C 3.0625 -1.328125 3.046875 -0.90625 2.828125 -0.5625 C 2.671875 -0.3125 2.359375 -0.078125 1.9375 -0.078125 C 1.421875 -0.078125 0.90625 -0.390625 0.734375 -0.90625 C 0.75 -0.90625 0.796875 -0.90625 0.8125 -0.90625 C 1.03125 -0.90625 1.203125 -1.046875 1.203125 -1.296875 C 1.203125 -1.59375 0.96875 -1.6875 0.8125 -1.6875 C 0.671875 -1.6875 0.421875 -1.609375 0.421875 -1.265625 C 0.421875 -0.5625 1.046875 0.171875 1.953125 0.171875 C 2.9375 0.171875 3.78125 -0.609375 3.78125 -1.59375 C 3.78125 -2.515625 3.125 -3.328125 2.1875 -3.328125 C 1.78125 -3.328125 1.40625 -3.203125 1.109375 -2.921875 Z M 1.109375 -4.453125 "/>
</g>
<g id="glyph-0-6">
<path d="M 1.09375 -2.625 C 1.09375 -3.28125 1.15625 -3.859375 1.4375 -4.34375 C 1.671875 -4.75 2.078125 -5.078125 2.578125 -5.078125 C 2.734375 -5.078125 3.109375 -5.046875 3.28125 -4.765625 C 2.921875 -4.75 2.890625 -4.484375 2.890625 -4.390625 C 2.890625 -4.15625 3.078125 -4.03125 3.265625 -4.03125 C 3.40625 -4.03125 3.640625 -4.109375 3.640625 -4.40625 C 3.640625 -4.890625 3.28125 -5.28125 2.578125 -5.28125 C 1.46875 -5.28125 0.34375 -4.234375 0.34375 -2.515625 C 0.34375 -0.359375 1.34375 0.171875 2.125 0.171875 C 2.5 0.171875 2.90625 0.0625 3.265625 -0.28125 C 3.59375 -0.59375 3.859375 -0.921875 3.859375 -1.609375 C 3.859375 -2.65625 3.078125 -3.375 2.1875 -3.375 C 1.625 -3.375 1.28125 -3.015625 1.09375 -2.625 Z M 2.125 -0.078125 C 1.703125 -0.078125 1.4375 -0.359375 1.3125 -0.59375 C 1.140625 -0.9375 1.125 -1.484375 1.125 -1.78125 C 1.125 -2.578125 1.546875 -3.15625 2.15625 -3.15625 C 2.5625 -3.15625 2.796875 -2.953125 2.9375 -2.671875 C 3.109375 -2.375 3.109375 -2.03125 3.109375 -1.625 C 3.109375 -1.21875 3.109375 -0.859375 2.953125 -0.578125 C 2.75 -0.21875 2.46875 -0.078125 2.125 -0.078125 Z M 2.125 -0.078125 "/>
</g>
<g id="glyph-0-7">
<path d="M 4.015625 -4.828125 C 4.09375 -4.921875 4.09375 -4.9375 4.09375 -5.109375 L 2.078125 -5.109375 C 1.875 -5.109375 1.625 -5.125 1.421875 -5.140625 C 1.015625 -5.171875 1.015625 -5.234375 0.984375 -5.359375 L 0.734375 -5.359375 L 0.46875 -3.6875 L 0.71875 -3.6875 C 0.734375 -3.8125 0.8125 -4.359375 0.921875 -4.421875 C 1.015625 -4.453125 1.609375 -4.453125 1.734375 -4.453125 L 3.40625 -4.453125 L 2.59375 -3.359375 C 1.6875 -2.15625 1.5 -0.90625 1.5 -0.28125 C 1.5 -0.203125 1.5 0.171875 1.875 0.171875 C 2.25 0.171875 2.25 -0.1875 2.25 -0.28125 L 2.25 -0.671875 C 2.25 -1.8125 2.4375 -2.75 2.828125 -3.265625 Z M 4.015625 -4.828125 "/>
</g>
<g id="glyph-1-0">
<path d="M 2.234375 -6 C 2.234375 -6.359375 2.265625 -6.46875 3.046875 -6.46875 L 3.296875 -6.46875 L 3.296875 -6.78125 C 2.953125 -6.75 2.171875 -6.75 1.796875 -6.75 C 1.40625 -6.75 0.625 -6.75 0.28125 -6.78125 L 0.28125 -6.46875 L 0.53125 -6.46875 C 1.3125 -6.46875 1.34375 -6.359375 1.34375 -6 L 1.34375 -0.78125 C 1.34375 -0.421875 1.3125 -0.3125 0.53125 -0.3125 L 0.28125 -0.3125 L 0.28125 0 C 0.625 -0.03125 1.40625 -0.03125 1.78125 -0.03125 C 2.171875 -0.03125 2.953125 -0.03125 3.296875 0 L 3.296875 -0.3125 L 3.046875 -0.3125 C 2.265625 -0.3125 2.234375 -0.421875 2.234375 -0.78125 Z M 2.234375 -6 "/>
</g>
<g id="glyph-1-1">
<path d="M 1.09375 -3.40625 L 1.09375 -0.75 C 1.09375 -0.3125 0.984375 -0.3125 0.3125 -0.3125 L 0.3125 0 C 0.671875 -0.015625 1.171875 -0.03125 1.4375 -0.03125 C 1.703125 -0.03125 2.21875 -0.015625 2.546875 0 L 2.546875 -0.3125 C 1.890625 -0.3125 1.78125 -0.3125 1.78125 -0.75 L 1.78125 -2.578125 C 1.78125 -3.609375 2.484375 -4.171875 3.109375 -4.171875 C 3.734375 -4.171875 3.84375 -3.625 3.84375 -3.0625 L 3.84375 -0.75 C 3.84375 -0.3125 3.734375 -0.3125 3.078125 -0.3125 L 3.078125 0 C 3.421875 -0.015625 3.921875 -0.03125 4.203125 -0.03125 C 4.453125 -0.03125 4.96875 -0.015625 5.3125 0 L 5.3125 -0.3125 C 4.796875 -0.3125 4.546875 -0.3125 4.53125 -0.609375 L 4.53125 -2.5 C 4.53125 -3.359375 4.53125 -3.65625 4.234375 -4.015625 C 4.09375 -4.1875 3.765625 -4.390625 3.1875 -4.390625 C 2.453125 -4.390625 2 -3.953125 1.71875 -3.34375 L 1.71875 -4.390625 L 0.3125 -4.28125 L 0.3125 -3.96875 C 1.015625 -3.96875 1.09375 -3.90625 1.09375 -3.40625 Z M 1.09375 -3.40625 "/>
</g>
<g id="glyph-1-2">
<path d="M 1.75 -4.390625 L 0.359375 -4.28125 L 0.359375 -3.96875 C 1.015625 -3.96875 1.09375 -3.90625 1.09375 -3.421875 L 1.09375 -0.75 C 1.09375 -0.3125 0.984375 -0.3125 0.328125 -0.3125 L 0.328125 0 C 0.640625 -0.015625 1.1875 -0.03125 1.421875 -0.03125 C 1.765625 -0.03125 2.109375 -0.015625 2.453125 0 L 2.453125 -0.3125 C 1.796875 -0.3125 1.75 -0.359375 1.75 -0.75 Z M 1.796875 -6.109375 C 1.796875 -6.421875 1.546875 -6.640625 1.265625 -6.640625 C 0.96875 -6.640625 0.75 -6.375 0.75 -6.109375 C 0.75 -5.84375 0.96875 -5.59375 1.265625 -5.59375 C 1.546875 -5.59375 1.796875 -5.796875 1.796875 -6.109375 Z M 1.796875 -6.109375 "/>
</g>
<g id="glyph-1-3">
<path d="M 1.71875 -3.96875 L 3.140625 -3.96875 L 3.140625 -4.28125 L 1.71875 -4.28125 L 1.71875 -6.109375 L 1.46875 -6.109375 C 1.453125 -5.28125 1.15625 -4.234375 0.1875 -4.1875 L 0.1875 -3.96875 L 1.03125 -3.96875 L 1.03125 -1.234375 C 1.03125 -0.015625 1.953125 0.109375 2.3125 0.109375 C 3.015625 0.109375 3.296875 -0.59375 3.296875 -1.234375 L 3.296875 -1.796875 L 3.046875 -1.796875 L 3.046875 -1.25 C 3.046875 -0.515625 2.75 -0.140625 2.375 -0.140625 C 1.71875 -0.140625 1.71875 -1.046875 1.71875 -1.203125 Z M 1.71875 -3.96875 "/>
</g>
<g id="glyph-1-4">
<path d="M 3.296875 -0.75 C 3.34375 -0.359375 3.609375 0.0625 4.078125 0.0625 C 4.28125 0.0625 4.890625 -0.078125 4.890625 -0.890625 L 4.890625 -1.4375 L 4.640625 -1.4375 L 4.640625 -0.890625 C 4.640625 -0.3125 4.390625 -0.25 4.28125 -0.25 C 3.953125 -0.25 3.921875 -0.6875 3.921875 -0.75 L 3.921875 -2.734375 C 3.921875 -3.140625 3.921875 -3.53125 3.5625 -3.90625 C 3.171875 -4.28125 2.671875 -4.4375 2.203125 -4.4375 C 1.390625 -4.4375 0.703125 -3.984375 0.703125 -3.328125 C 0.703125 -3.03125 0.90625 -2.859375 1.15625 -2.859375 C 1.4375 -2.859375 1.625 -3.0625 1.625 -3.3125 C 1.625 -3.4375 1.5625 -3.765625 1.109375 -3.765625 C 1.375 -4.125 1.859375 -4.234375 2.1875 -4.234375 C 2.671875 -4.234375 3.234375 -3.84375 3.234375 -2.953125 L 3.234375 -2.59375 C 2.734375 -2.5625 2.03125 -2.53125 1.40625 -2.234375 C 0.671875 -1.890625 0.421875 -1.375 0.421875 -0.9375 C 0.421875 -0.140625 1.375 0.109375 2 0.109375 C 2.65625 0.109375 3.109375 -0.28125 3.296875 -0.75 Z M 3.234375 -2.375 L 3.234375 -1.390625 C 3.234375 -0.453125 2.515625 -0.109375 2.078125 -0.109375 C 1.59375 -0.109375 1.1875 -0.453125 1.1875 -0.953125 C 1.1875 -1.5 1.59375 -2.328125 3.234375 -2.375 Z M 3.234375 -2.375 "/>
</g>
<g id="glyph-1-5">
<path d="M 1.75 -6.890625 L 0.328125 -6.78125 L 0.328125 -6.46875 C 1.015625 -6.46875 1.09375 -6.40625 1.09375 -5.90625 L 1.09375 -0.75 C 1.09375 -0.3125 0.984375 -0.3125 0.328125 -0.3125 L 0.328125 0 C 0.65625 -0.015625 1.1875 -0.03125 1.421875 -0.03125 C 1.671875 -0.03125 2.15625 -0.015625 2.53125 0 L 2.53125 -0.3125 C 1.859375 -0.3125 1.75 -0.3125 1.75 -0.75 Z M 1.75 -6.890625 "/>
</g>
<g id="glyph-1-6">
<path d="M 3.875 -3.984375 C 3.953125 -4.09375 3.953125 -4.109375 3.953125 -4.140625 C 3.953125 -4.28125 3.875 -4.28125 3.703125 -4.28125 L 0.53125 -4.28125 L 0.421875 -2.671875 L 0.671875 -2.671875 C 0.71875 -3.6875 0.90625 -4.0625 2 -4.0625 L 3.140625 -4.0625 L 0.359375 -0.3125 C 0.28125 -0.203125 0.28125 -0.1875 0.28125 -0.140625 C 0.28125 0 0.34375 0 0.53125 0 L 3.8125 0 L 3.984375 -1.859375 L 3.734375 -1.859375 C 3.640625 -0.6875 3.4375 -0.25 2.28125 -0.25 L 1.109375 -0.25 Z M 3.875 -3.984375 "/>
</g>
<g id="glyph-1-7">
<path d="M 1.109375 -2.5 C 1.171875 -3.984375 2 -4.234375 2.34375 -4.234375 C 3.359375 -4.234375 3.46875 -2.890625 3.46875 -2.5 Z M 1.09375 -2.296875 L 3.875 -2.296875 C 4.09375 -2.296875 4.125 -2.296875 4.125 -2.5 C 4.125 -3.484375 3.578125 -4.4375 2.34375 -4.4375 C 1.1875 -4.4375 0.28125 -3.421875 0.28125 -2.1875 C 0.28125 -0.859375 1.3125 0.109375 2.453125 0.109375 C 3.671875 0.109375 4.125 -0.984375 4.125 -1.1875 C 4.125 -1.28125 4.03125 -1.296875 3.984375 -1.296875 C 3.90625 -1.296875 3.875 -1.234375 3.859375 -1.15625 C 3.515625 -0.140625 2.625 -0.140625 2.515625 -0.140625 C 2.03125 -0.140625 1.625 -0.4375 1.40625 -0.796875 C 1.09375 -1.28125 1.09375 -1.9375 1.09375 -2.296875 Z M 1.09375 -2.296875 "/>
</g>
<g id="glyph-1-8">
<path d="M 1.15625 -2.15625 C 1.15625 -3.78125 1.96875 -4.203125 2.5 -4.203125 C 2.59375 -4.203125 3.21875 -4.1875 3.5625 -3.828125 C 3.15625 -3.796875 3.09375 -3.5 3.09375 -3.375 C 3.09375 -3.109375 3.28125 -2.921875 3.546875 -2.921875 C 3.8125 -2.921875 4.015625 -3.078125 4.015625 -3.390625 C 4.015625 -4.0625 3.25 -4.4375 2.484375 -4.4375 C 1.25 -4.4375 0.34375 -3.375 0.34375 -2.140625 C 0.34375 -0.875 1.3125 0.109375 2.46875 0.109375 C 3.796875 0.109375 4.125 -1.078125 4.125 -1.1875 C 4.125 -1.28125 4.015625 -1.28125 3.984375 -1.28125 C 3.90625 -1.28125 3.875 -1.234375 3.859375 -1.1875 C 3.578125 -0.265625 2.921875 -0.140625 2.5625 -0.140625 C 2.03125 -0.140625 1.15625 -0.5625 1.15625 -2.15625 Z M 1.15625 -2.15625 "/>
</g>
<g id="glyph-1-9">
<path d="M 4.671875 -2.125 C 4.671875 -3.390625 3.6875 -4.4375 2.484375 -4.4375 C 1.234375 -4.4375 0.28125 -3.359375 0.28125 -2.125 C 0.28125 -0.84375 1.3125 0.109375 2.46875 0.109375 C 3.671875 0.109375 4.671875 -0.859375 4.671875 -2.125 Z M 2.484375 -0.140625 C 2.046875 -0.140625 1.625 -0.34375 1.34375 -0.796875 C 1.09375 -1.234375 1.09375 -1.84375 1.09375 -2.203125 C 1.09375 -2.59375 1.09375 -3.125 1.34375 -3.5625 C 1.609375 -4.015625 2.078125 -4.234375 2.46875 -4.234375 C 2.90625 -4.234375 3.328125 -4.015625 3.59375 -3.578125 C 3.84375 -3.15625 3.84375 -2.578125 3.84375 -2.203125 C 3.84375 -1.84375 3.84375 -1.3125 3.625 -0.875 C 3.40625 -0.421875 2.96875 -0.140625 2.484375 -0.140625 Z M 2.484375 -0.140625 "/>
</g>
<g id="glyph-1-10">
<path d="M 1.65625 -3.296875 L 1.65625 -4.390625 L 0.28125 -4.28125 L 0.28125 -3.96875 C 0.96875 -3.96875 1.046875 -3.90625 1.046875 -3.40625 L 1.046875 -0.75 C 1.046875 -0.3125 0.9375 -0.3125 0.28125 -0.3125 L 0.28125 0 C 0.671875 -0.015625 1.125 -0.03125 1.40625 -0.03125 C 1.8125 -0.03125 2.265625 -0.03125 2.671875 0 L 2.671875 -0.3125 L 2.453125 -0.3125 C 1.71875 -0.3125 1.703125 -0.421875 1.703125 -0.78125 L 1.703125 -2.296875 C 1.703125 -3.28125 2.125 -4.171875 2.875 -4.171875 C 2.953125 -4.171875 2.96875 -4.171875 2.984375 -4.15625 C 2.953125 -4.140625 2.765625 -4.03125 2.765625 -3.765625 C 2.765625 -3.5 2.96875 -3.34375 3.1875 -3.34375 C 3.359375 -3.34375 3.609375 -3.46875 3.609375 -3.78125 C 3.609375 -4.09375 3.296875 -4.390625 2.875 -4.390625 C 2.15625 -4.390625 1.796875 -3.71875 1.65625 -3.296875 Z M 1.65625 -3.296875 "/>
</g>
<g id="glyph-1-11">
<path d="M 1.703125 -3.734375 L 1.703125 -4.390625 L 0.28125 -4.28125 L 0.28125 -3.96875 C 0.984375 -3.96875 1.046875 -3.90625 1.046875 -3.46875 L 1.046875 1.171875 C 1.046875 1.625 0.9375 1.625 0.28125 1.625 L 0.28125 1.921875 C 0.609375 1.921875 1.125 1.890625 1.390625 1.890625 C 1.65625 1.890625 2.15625 1.921875 2.515625 1.921875 L 2.515625 1.625 C 1.84375 1.625 1.734375 1.625 1.734375 1.171875 L 1.734375 -0.578125 C 1.78125 -0.421875 2.203125 0.109375 2.953125 0.109375 C 4.140625 0.109375 5.171875 -0.859375 5.171875 -2.140625 C 5.171875 -3.40625 4.203125 -4.390625 3.09375 -4.390625 C 2.328125 -4.390625 1.90625 -3.953125 1.703125 -3.734375 Z M 1.734375 -1.125 L 1.734375 -3.34375 C 2.03125 -3.84375 2.515625 -4.140625 3.015625 -4.140625 C 3.734375 -4.140625 4.34375 -3.265625 4.34375 -2.140625 C 4.34375 -0.9375 3.65625 -0.109375 2.921875 -0.109375 C 2.515625 -0.109375 2.140625 -0.3125 1.875 -0.71875 C 1.734375 -0.921875 1.734375 -0.9375 1.734375 -1.125 Z M 1.734375 -1.125 "/>
</g>
<g id="glyph-1-12">
<path d="M 1.09375 -3.40625 L 1.09375 -0.75 C 1.09375 -0.3125 0.984375 -0.3125 0.3125 -0.3125 L 0.3125 0 C 0.671875 -0.015625 1.171875 -0.03125 1.4375 -0.03125 C 1.703125 -0.03125 2.21875 -0.015625 2.546875 0 L 2.546875 -0.3125 C 1.890625 -0.3125 1.78125 -0.3125 1.78125 -0.75 L 1.78125 -2.578125 C 1.78125 -3.609375 2.484375 -4.171875 3.109375 -4.171875 C 3.734375 -4.171875 3.84375 -3.625 3.84375 -3.0625 L 3.84375 -0.75 C 3.84375 -0.3125 3.734375 -0.3125 3.078125 -0.3125 L 3.078125 0 C 3.421875 -0.015625 3.921875 -0.03125 4.203125 -0.03125 C 4.453125 -0.03125 4.96875 -0.015625 5.3125 0 L 5.3125 -0.3125 C 4.640625 -0.3125 4.53125 -0.3125 4.53125 -0.75 L 4.53125 -2.578125 C 4.53125 -3.609375 5.234375 -4.171875 5.875 -4.171875 C 6.5 -4.171875 6.609375 -3.625 6.609375 -3.0625 L 6.609375 -0.75 C 6.609375 -0.3125 6.5 -0.3125 5.828125 -0.3125 L 5.828125 0 C 6.1875 -0.015625 6.6875 -0.03125 6.953125 -0.03125 C 7.21875 -0.03125 7.734375 -0.015625 8.0625 0 L 8.0625 -0.3125 C 7.546875 -0.3125 7.296875 -0.3125 7.296875 -0.609375 L 7.296875 -2.5 C 7.296875 -3.359375 7.296875 -3.65625 6.984375 -4.015625 C 6.84375 -4.1875 6.515625 -4.390625 5.9375 -4.390625 C 5.109375 -4.390625 4.671875 -3.796875 4.5 -3.40625 C 4.359375 -4.28125 3.625 -4.390625 3.1875 -4.390625 C 2.453125 -4.390625 2 -3.953125 1.71875 -3.34375 L 1.71875 -4.390625 L 0.3125 -4.28125 L 0.3125 -3.96875 C 1.015625 -3.96875 1.09375 -3.90625 1.09375 -3.40625 Z M 1.09375 -3.40625 "/>
</g>
<g id="glyph-1-13">
<path d="M 2.0625 -1.921875 C 2.28125 -1.890625 3.09375 -1.71875 3.09375 -1.015625 C 3.09375 -0.5 2.75 -0.109375 1.96875 -0.109375 C 1.140625 -0.109375 0.78125 -0.671875 0.59375 -1.515625 C 0.5625 -1.640625 0.5625 -1.6875 0.453125 -1.6875 C 0.328125 -1.6875 0.328125 -1.625 0.328125 -1.4375 L 0.328125 -0.125 C 0.328125 0.046875 0.328125 0.109375 0.4375 0.109375 C 0.484375 0.109375 0.5 0.09375 0.6875 -0.09375 C 0.703125 -0.109375 0.703125 -0.125 0.890625 -0.3125 C 1.3125 0.09375 1.765625 0.109375 1.96875 0.109375 C 3.109375 0.109375 3.578125 -0.5625 3.578125 -1.265625 C 3.578125 -1.796875 3.28125 -2.09375 3.15625 -2.21875 C 2.828125 -2.53125 2.4375 -2.609375 2.03125 -2.6875 C 1.46875 -2.796875 0.796875 -2.921875 0.796875 -3.5 C 0.796875 -3.84375 1.0625 -4.25 1.921875 -4.25 C 3 -4.25 3.0625 -3.359375 3.078125 -3.0625 C 3.078125 -2.96875 3.171875 -2.96875 3.1875 -2.96875 C 3.328125 -2.96875 3.328125 -3.015625 3.328125 -3.203125 L 3.328125 -4.203125 C 3.328125 -4.375 3.328125 -4.4375 3.21875 -4.4375 C 3.171875 -4.4375 3.140625 -4.4375 3.015625 -4.328125 C 2.984375 -4.28125 2.890625 -4.203125 2.84375 -4.171875 C 2.46875 -4.4375 2.0625 -4.4375 1.921875 -4.4375 C 0.703125 -4.4375 0.328125 -3.78125 0.328125 -3.21875 C 0.328125 -2.875 0.484375 -2.59375 0.75 -2.375 C 1.078125 -2.125 1.34375 -2.0625 2.0625 -1.921875 Z M 2.0625 -1.921875 "/>
</g>
<g id="glyph-1-14">
<path d="M 3.765625 -0.546875 L 3.765625 0.109375 L 5.234375 0 L 5.234375 -0.3125 C 4.53125 -0.3125 4.453125 -0.375 4.453125 -0.859375 L 4.453125 -6.890625 L 3.03125 -6.78125 L 3.03125 -6.46875 C 3.71875 -6.46875 3.796875 -6.40625 3.796875 -5.90625 L 3.796875 -3.765625 C 3.515625 -4.125 3.078125 -4.390625 2.546875 -4.390625 C 1.375 -4.390625 0.34375 -3.40625 0.34375 -2.140625 C 0.34375 -0.875 1.3125 0.109375 2.4375 0.109375 C 3.078125 0.109375 3.515625 -0.234375 3.765625 -0.546875 Z M 3.765625 -3.203125 L 3.765625 -1.171875 C 3.765625 -0.984375 3.765625 -0.96875 3.65625 -0.796875 C 3.359375 -0.328125 2.921875 -0.109375 2.484375 -0.109375 C 2.046875 -0.109375 1.6875 -0.359375 1.453125 -0.75 C 1.1875 -1.15625 1.15625 -1.71875 1.15625 -2.125 C 1.15625 -2.484375 1.1875 -3.078125 1.46875 -3.53125 C 1.671875 -3.84375 2.046875 -4.171875 2.59375 -4.171875 C 2.9375 -4.171875 3.359375 -4.015625 3.65625 -3.578125 C 3.765625 -3.40625 3.765625 -3.390625 3.765625 -3.203125 Z M 3.765625 -3.203125 "/>
</g>
<g id="glyph-1-15">
<path d="M 4.125 -3.296875 C 4.21875 -3.53125 4.390625 -3.953125 5.046875 -3.96875 L 5.046875 -4.28125 C 4.8125 -4.25 4.53125 -4.25 4.296875 -4.25 C 4.0625 -4.25 3.609375 -4.265625 3.4375 -4.28125 L 3.4375 -3.96875 C 3.796875 -3.953125 3.90625 -3.734375 3.90625 -3.546875 C 3.90625 -3.453125 3.890625 -3.40625 3.84375 -3.296875 L 2.84375 -0.78125 L 1.71875 -3.546875 C 1.671875 -3.671875 1.671875 -3.6875 1.671875 -3.703125 C 1.671875 -3.96875 2.046875 -3.96875 2.234375 -3.96875 L 2.234375 -4.28125 C 1.9375 -4.265625 1.375 -4.25 1.15625 -4.25 C 0.890625 -4.25 0.484375 -4.25 0.1875 -4.28125 L 0.1875 -3.96875 C 0.8125 -3.96875 0.859375 -3.90625 0.984375 -3.609375 L 2.40625 -0.078125 C 2.46875 0.0625 2.484375 0.109375 2.625 0.109375 C 2.75 0.109375 2.78125 0.015625 2.828125 -0.078125 Z M 4.125 -3.296875 "/>
</g>
<g id="glyph-1-16">
<path d="M 2.203125 -1.703125 C 1.34375 -1.703125 1.34375 -2.703125 1.34375 -2.921875 C 1.34375 -3.1875 1.34375 -3.515625 1.5 -3.765625 C 1.578125 -3.875 1.8125 -4.15625 2.203125 -4.15625 C 3.0625 -4.15625 3.0625 -3.171875 3.0625 -2.9375 C 3.0625 -2.671875 3.0625 -2.34375 2.90625 -2.109375 C 2.828125 -1.984375 2.59375 -1.703125 2.203125 -1.703125 Z M 1.046875 -1.3125 C 1.046875 -1.359375 1.046875 -1.59375 1.21875 -1.78125 C 1.609375 -1.515625 2.015625 -1.484375 2.203125 -1.484375 C 3.125 -1.484375 3.8125 -2.15625 3.8125 -2.921875 C 3.8125 -3.296875 3.65625 -3.65625 3.40625 -3.890625 C 3.765625 -4.234375 4.125 -4.28125 4.296875 -4.28125 C 4.3125 -4.28125 4.359375 -4.28125 4.390625 -4.265625 C 4.28125 -4.234375 4.234375 -4.125 4.234375 -4 C 4.234375 -3.828125 4.359375 -3.703125 4.53125 -3.703125 C 4.625 -3.703125 4.8125 -3.78125 4.8125 -4.015625 C 4.8125 -4.171875 4.6875 -4.5 4.3125 -4.5 C 4.109375 -4.5 3.671875 -4.4375 3.25 -4.03125 C 2.84375 -4.359375 2.421875 -4.390625 2.203125 -4.390625 C 1.28125 -4.390625 0.59375 -3.703125 0.59375 -2.9375 C 0.59375 -2.5 0.8125 -2.125 1.0625 -1.921875 C 0.9375 -1.765625 0.75 -1.4375 0.75 -1.09375 C 0.75 -0.78125 0.890625 -0.40625 1.1875 -0.203125 C 0.59375 -0.046875 0.28125 0.390625 0.28125 0.78125 C 0.28125 1.5 1.265625 2.046875 2.46875 2.046875 C 3.640625 2.046875 4.671875 1.53125 4.671875 0.765625 C 4.671875 0.421875 4.53125 -0.09375 4.03125 -0.359375 C 3.5 -0.640625 2.921875 -0.640625 2.328125 -0.640625 C 2.078125 -0.640625 1.640625 -0.640625 1.578125 -0.65625 C 1.265625 -0.6875 1.046875 -1 1.046875 -1.3125 Z M 2.484375 1.8125 C 1.484375 1.8125 0.796875 1.3125 0.796875 0.78125 C 0.796875 0.328125 1.171875 -0.046875 1.609375 -0.0625 L 2.1875 -0.0625 C 3.046875 -0.0625 4.15625 -0.0625 4.15625 0.78125 C 4.15625 1.3125 3.453125 1.8125 2.484375 1.8125 Z M 2.484375 1.8125 "/>
</g>
<g id="glyph-1-17">
<path d="M 0.5625 -3.390625 C 0.5625 -1.34375 2.15625 0.21875 4.015625 0.21875 C 5.625 0.21875 6.59375 -1.15625 6.59375 -2.3125 C 6.59375 -2.40625 6.59375 -2.484375 6.46875 -2.484375 C 6.359375 -2.484375 6.359375 -2.421875 6.34375 -2.328125 C 6.265625 -0.90625 5.203125 -0.09375 4.125 -0.09375 C 3.515625 -0.09375 1.578125 -0.421875 1.578125 -3.390625 C 1.578125 -6.34375 3.515625 -6.6875 4.125 -6.6875 C 5.203125 -6.6875 6.078125 -5.78125 6.28125 -4.328125 C 6.296875 -4.203125 6.296875 -4.171875 6.4375 -4.171875 C 6.59375 -4.171875 6.59375 -4.203125 6.59375 -4.40625 L 6.59375 -6.75 C 6.59375 -6.921875 6.59375 -7 6.484375 -7 C 6.453125 -7 6.40625 -7 6.328125 -6.875 L 5.828125 -6.140625 C 5.46875 -6.5 4.953125 -7 4.015625 -7 C 2.15625 -7 0.5625 -5.421875 0.5625 -3.390625 Z M 0.5625 -3.390625 "/>
</g>
<g id="glyph-1-18">
<path d="M 3.28125 2.375 C 3.28125 2.34375 3.28125 2.328125 3.109375 2.15625 C 1.875 0.90625 1.5625 -0.96875 1.5625 -2.484375 C 1.5625 -4.203125 1.9375 -5.9375 3.15625 -7.171875 C 3.28125 -7.296875 3.28125 -7.3125 3.28125 -7.34375 C 3.28125 -7.40625 3.25 -7.4375 3.1875 -7.4375 C 3.078125 -7.4375 2.1875 -6.765625 1.609375 -5.5 C 1.09375 -4.421875 0.984375 -3.3125 0.984375 -2.484375 C 0.984375 -1.703125 1.09375 -0.5 1.640625 0.609375 C 2.234375 1.828125 3.078125 2.484375 3.1875 2.484375 C 3.25 2.484375 3.28125 2.453125 3.28125 2.375 Z M 3.28125 2.375 "/>
</g>
<g id="glyph-1-19">
<path d="M 2.875 -2.484375 C 2.875 -3.25 2.765625 -4.453125 2.21875 -5.578125 C 1.625 -6.796875 0.765625 -7.4375 0.671875 -7.4375 C 0.609375 -7.4375 0.5625 -7.40625 0.5625 -7.34375 C 0.5625 -7.3125 0.5625 -7.296875 0.75 -7.109375 C 1.71875 -6.125 2.296875 -4.546875 2.296875 -2.484375 C 2.296875 -0.78125 1.921875 0.96875 0.6875 2.21875 C 0.5625 2.328125 0.5625 2.34375 0.5625 2.375 C 0.5625 2.4375 0.609375 2.484375 0.671875 2.484375 C 0.765625 2.484375 1.65625 1.8125 2.25 0.546875 C 2.75 -0.546875 2.875 -1.640625 2.875 -2.484375 Z M 2.875 -2.484375 "/>
</g>
<g id="glyph-1-20">
<path d="M 1.703125 -3.734375 L 1.703125 -6.890625 L 0.28125 -6.78125 L 0.28125 -6.46875 C 0.96875 -6.46875 1.046875 -6.40625 1.046875 -5.90625 L 1.046875 0 L 1.296875 0 C 1.3125 -0.015625 1.390625 -0.15625 1.65625 -0.609375 C 1.8125 -0.390625 2.21875 0.109375 2.953125 0.109375 C 4.140625 0.109375 5.171875 -0.859375 5.171875 -2.140625 C 5.171875 -3.40625 4.203125 -4.390625 3.0625 -4.390625 C 2.296875 -4.390625 1.859375 -3.921875 1.703125 -3.734375 Z M 1.734375 -1.125 L 1.734375 -3.171875 C 1.734375 -3.359375 1.734375 -3.375 1.84375 -3.53125 C 2.234375 -4.09375 2.78125 -4.171875 3.015625 -4.171875 C 3.46875 -4.171875 3.8125 -3.90625 4.0625 -3.53125 C 4.3125 -3.125 4.34375 -2.5625 4.34375 -2.15625 C 4.34375 -1.78125 4.328125 -1.1875 4.03125 -0.75 C 3.828125 -0.4375 3.453125 -0.109375 2.921875 -0.109375 C 2.46875 -0.109375 2.109375 -0.34375 1.875 -0.71875 C 1.734375 -0.921875 1.734375 -0.953125 1.734375 -1.125 Z M 1.734375 -1.125 "/>
</g>
<g id="glyph-1-21">
<path d="M 4.125 -3.328125 C 4.375 -3.953125 4.875 -3.96875 5.046875 -3.96875 L 5.046875 -4.28125 C 4.8125 -4.25 4.53125 -4.25 4.296875 -4.25 C 4.125 -4.25 3.65625 -4.265625 3.4375 -4.28125 L 3.4375 -3.96875 C 3.734375 -3.953125 3.90625 -3.796875 3.90625 -3.546875 C 3.90625 -3.4375 3.890625 -3.421875 3.84375 -3.296875 L 2.84375 -0.859375 L 1.734375 -3.53125 C 1.703125 -3.625 1.671875 -3.671875 1.671875 -3.703125 C 1.671875 -3.96875 2.046875 -3.96875 2.234375 -3.96875 L 2.234375 -4.28125 C 1.96875 -4.265625 1.3125 -4.25 1.15625 -4.25 C 0.890625 -4.25 0.484375 -4.25 0.1875 -4.28125 L 0.1875 -3.96875 C 0.671875 -3.96875 0.859375 -3.96875 0.984375 -3.625 L 2.484375 0 C 2.4375 0.125 2.296875 0.453125 2.234375 0.578125 C 2.015625 1.125 1.734375 1.8125 1.09375 1.8125 C 1.046875 1.8125 0.828125 1.8125 0.640625 1.640625 C 0.9375 1.59375 1.015625 1.375 1.015625 1.21875 C 1.015625 0.96875 0.828125 0.796875 0.609375 0.796875 C 0.40625 0.796875 0.1875 0.9375 0.1875 1.234375 C 0.1875 1.671875 0.609375 2.03125 1.09375 2.03125 C 1.71875 2.03125 2.140625 1.46875 2.375 0.90625 Z M 4.125 -3.328125 "/>
</g>
<g id="glyph-1-22">
<path d="M 3.875 -0.78125 L 3.875 0.109375 L 5.3125 0 L 5.3125 -0.3125 C 4.609375 -0.3125 4.53125 -0.375 4.53125 -0.859375 L 4.53125 -4.390625 L 3.078125 -4.28125 L 3.078125 -3.96875 C 3.765625 -3.96875 3.84375 -3.90625 3.84375 -3.40625 L 3.84375 -1.640625 C 3.84375 -0.78125 3.375 -0.109375 2.65625 -0.109375 C 1.8125 -0.109375 1.78125 -0.578125 1.78125 -1.09375 L 1.78125 -4.390625 L 0.3125 -4.28125 L 0.3125 -3.96875 C 1.09375 -3.96875 1.09375 -3.9375 1.09375 -3.0625 L 1.09375 -1.5625 C 1.09375 -0.796875 1.09375 0.109375 2.59375 0.109375 C 3.15625 0.109375 3.59375 -0.171875 3.875 -0.78125 Z M 3.875 -0.78125 "/>
</g>
<g id="glyph-1-23">
<path d="M 6.609375 -6.71875 L 0.546875 -6.71875 L 0.359375 -4.484375 L 0.609375 -4.484375 C 0.75 -6.078125 0.890625 -6.40625 2.390625 -6.40625 C 2.5625 -6.40625 2.828125 -6.40625 2.921875 -6.390625 C 3.140625 -6.34375 3.140625 -6.234375 3.140625 -6.015625 L 3.140625 -0.78125 C 3.140625 -0.453125 3.140625 -0.3125 2.09375 -0.3125 L 1.703125 -0.3125 L 1.703125 0 C 2.109375 -0.03125 3.109375 -0.03125 3.578125 -0.03125 C 4.03125 -0.03125 5.046875 -0.03125 5.453125 0 L 5.453125 -0.3125 L 5.0625 -0.3125 C 4.015625 -0.3125 4.015625 -0.453125 4.015625 -0.78125 L 4.015625 -6.015625 C 4.015625 -6.21875 4.015625 -6.34375 4.203125 -6.390625 C 4.3125 -6.40625 4.578125 -6.40625 4.765625 -6.40625 C 6.265625 -6.40625 6.40625 -6.078125 6.546875 -4.484375 L 6.796875 -4.484375 Z M 6.609375 -6.71875 "/>
</g>
<g id="glyph-1-24">
<path d="M 0.34375 -6.78125 L 0.34375 -6.46875 L 0.578125 -6.46875 C 1.34375 -6.46875 1.375 -6.359375 1.375 -6 L 1.375 -0.78125 C 1.375 -0.421875 1.34375 -0.3125 0.578125 -0.3125 L 0.34375 -0.3125 L 0.34375 0 L 3.984375 0 C 5.640625 0 7.015625 -1.46875 7.015625 -3.328125 C 7.015625 -5.21875 5.671875 -6.78125 3.984375 -6.78125 Z M 2.703125 -0.3125 C 2.25 -0.3125 2.21875 -0.375 2.21875 -0.703125 L 2.21875 -6.078125 C 2.21875 -6.40625 2.25 -6.46875 2.703125 -6.46875 L 3.703125 -6.46875 C 4.3125 -6.46875 5 -6.25 5.5 -5.546875 C 5.9375 -4.953125 6.015625 -4.109375 6.015625 -3.328125 C 6.015625 -2.234375 5.828125 -1.640625 5.484375 -1.15625 C 5.28125 -0.890625 4.71875 -0.3125 3.703125 -0.3125 Z M 2.703125 -0.3125 "/>
</g>
<g id="glyph-1-25">
<path d="M 4.0625 -2.28125 L 6.828125 -2.28125 C 6.96875 -2.28125 7.15625 -2.28125 7.15625 -2.484375 C 7.15625 -2.671875 6.96875 -2.671875 6.828125 -2.671875 L 4.0625 -2.671875 L 4.0625 -5.453125 C 4.0625 -5.59375 4.0625 -5.78125 3.859375 -5.78125 C 3.65625 -5.78125 3.65625 -5.59375 3.65625 -5.453125 L 3.65625 -2.671875 L 0.890625 -2.671875 C 0.75 -2.671875 0.5625 -2.671875 0.5625 -2.484375 C 0.5625 -2.28125 0.75 -2.28125 0.890625 -2.28125 L 3.65625 -2.28125 L 3.65625 0.5 C 3.65625 0.640625 3.65625 0.828125 3.859375 0.828125 C 4.0625 0.828125 4.0625 0.640625 4.0625 0.5 Z M 4.0625 -2.28125 "/>
</g>
<g id="glyph-1-26">
<path d="M 5.78125 -2.296875 C 5.78125 -0.890625 4.8125 -0.09375 3.875 -0.09375 C 3.40625 -0.09375 2.234375 -0.34375 2.234375 -2.21875 L 2.234375 -6 C 2.234375 -6.359375 2.25 -6.46875 3.015625 -6.46875 L 3.25 -6.46875 L 3.25 -6.78125 C 2.90625 -6.75 2.171875 -6.75 1.796875 -6.75 C 1.421875 -6.75 0.671875 -6.75 0.328125 -6.78125 L 0.328125 -6.46875 L 0.5625 -6.46875 C 1.328125 -6.46875 1.34375 -6.359375 1.34375 -6 L 1.34375 -2.265625 C 1.34375 -0.859375 2.5 0.21875 3.84375 0.21875 C 4.984375 0.21875 5.890625 -0.703125 6.046875 -1.828125 C 6.078125 -2.03125 6.078125 -2.125 6.078125 -2.515625 L 6.078125 -5.6875 C 6.078125 -6.015625 6.078125 -6.46875 7.109375 -6.46875 L 7.109375 -6.78125 C 6.75 -6.765625 6.265625 -6.75 5.9375 -6.75 C 5.59375 -6.75 5.109375 -6.765625 4.75 -6.78125 L 4.75 -6.46875 C 5.78125 -6.46875 5.78125 -6 5.78125 -5.734375 Z M 5.78125 -2.296875 "/>
</g>
<g id="glyph-1-27">
<path d="M 1.90625 -3.75 C 1.90625 -4.03125 1.671875 -4.28125 1.375 -4.28125 C 1.09375 -4.28125 0.859375 -4.03125 0.859375 -3.75 C 0.859375 -3.46875 1.09375 -3.21875 1.375 -3.21875 C 1.671875 -3.21875 1.90625 -3.46875 1.90625 -3.75 Z M 1.90625 -0.53125 C 1.90625 -0.8125 1.671875 -1.046875 1.375 -1.046875 C 1.09375 -1.046875 0.859375 -0.8125 0.859375 -0.53125 C 0.859375 -0.234375 1.09375 0 1.375 0 C 1.671875 0 1.90625 -0.234375 1.90625 -0.53125 Z M 1.90625 -0.53125 "/>
</g>
<g id="glyph-1-28">
<path d="M 1.09375 -0.75 C 1.09375 -0.3125 0.984375 -0.3125 0.3125 -0.3125 L 0.3125 0 C 0.671875 -0.015625 1.171875 -0.03125 1.4375 -0.03125 C 1.703125 -0.03125 2.21875 -0.015625 2.546875 0 L 2.546875 -0.3125 C 1.890625 -0.3125 1.78125 -0.3125 1.78125 -0.75 L 1.78125 -2.578125 C 1.78125 -3.609375 2.484375 -4.171875 3.109375 -4.171875 C 3.734375 -4.171875 3.84375 -3.625 3.84375 -3.0625 L 3.84375 -0.75 C 3.84375 -0.3125 3.734375 -0.3125 3.078125 -0.3125 L 3.078125 0 C 3.421875 -0.015625 3.921875 -0.03125 4.203125 -0.03125 C 4.453125 -0.03125 4.96875 -0.015625 5.3125 0 L 5.3125 -0.3125 C 4.796875 -0.3125 4.546875 -0.3125 4.53125 -0.609375 L 4.53125 -2.5 C 4.53125 -3.359375 4.53125 -3.65625 4.234375 -4.015625 C 4.09375 -4.1875 3.765625 -4.390625 3.1875 -4.390625 C 2.34375 -4.390625 1.921875 -3.796875 1.75 -3.40625 L 1.75 -6.890625 L 0.3125 -6.78125 L 0.3125 -6.46875 C 1.015625 -6.46875 1.09375 -6.40625 1.09375 -5.90625 Z M 1.09375 -0.75 "/>
</g>
<g id="glyph-2-0">
<path d="M 4.515625 -4.953125 C 4.515625 -5.609375 4.328125 -7 3.328125 -7 C 1.9375 -7 0.421875 -4.203125 0.421875 -1.921875 C 0.421875 -0.984375 0.703125 0.109375 1.609375 0.109375 C 3 0.109375 4.515625 -2.734375 4.515625 -4.953125 Z M 1.46875 -3.609375 C 1.640625 -4.234375 1.828125 -5.03125 2.234375 -5.734375 C 2.5 -6.21875 2.875 -6.78125 3.3125 -6.78125 C 3.796875 -6.78125 3.859375 -6.140625 3.859375 -5.578125 C 3.859375 -5.09375 3.78125 -4.578125 3.546875 -3.609375 Z M 3.453125 -3.28125 C 3.34375 -2.828125 3.140625 -1.984375 2.765625 -1.265625 C 2.40625 -0.59375 2.03125 -0.109375 1.609375 -0.109375 C 1.28125 -0.109375 1.078125 -0.390625 1.078125 -1.3125 C 1.078125 -1.734375 1.125 -2.3125 1.390625 -3.28125 Z M 3.453125 -3.28125 "/>
</g>
<g id="glyph-2-1">
<path d="M 4.328125 -6.640625 C 4.328125 -6.671875 4.359375 -6.78125 4.359375 -6.78125 C 4.359375 -6.796875 4.359375 -6.890625 4.25 -6.890625 C 4.140625 -6.890625 4.140625 -6.859375 4.09375 -6.6875 L 3.515625 -4.390625 C 1.9375 -4.34375 0.484375 -3.03125 0.484375 -1.671875 C 0.484375 -0.734375 1.1875 0.046875 2.390625 0.125 C 2.3125 0.421875 2.25 0.75 2.15625 1.046875 C 2.046875 1.515625 1.9375 1.890625 1.9375 1.921875 C 1.9375 2.03125 2.015625 2.03125 2.0625 2.03125 C 2.109375 2.03125 2.140625 2.03125 2.15625 2 C 2.1875 1.96875 2.25 1.734375 2.265625 1.59375 L 2.65625 0.125 C 4.25 0.0625 5.6875 -1.265625 5.6875 -2.59375 C 5.6875 -3.390625 5.15625 -4.296875 3.78125 -4.390625 Z M 2.4375 -0.09375 C 1.84375 -0.125 1.125 -0.46875 1.125 -1.46875 C 1.125 -2.65625 1.984375 -4.046875 3.46875 -4.171875 Z M 3.71875 -4.171875 C 4.46875 -4.140625 5.046875 -3.6875 5.046875 -2.8125 C 5.046875 -1.640625 4.1875 -0.21875 2.703125 -0.09375 Z M 3.71875 -4.171875 "/>
</g>
<g id="glyph-2-2">
<path d="M 3.875 -3.703125 C 3.609375 -3.703125 3.40625 -3.484375 3.40625 -3.265625 C 3.40625 -3.125 3.5 -2.96875 3.703125 -2.96875 C 3.921875 -2.96875 4.171875 -3.140625 4.171875 -3.53125 C 4.171875 -3.984375 3.734375 -4.390625 2.984375 -4.390625 C 1.671875 -4.390625 1.3125 -3.375 1.3125 -2.9375 C 1.3125 -2.15625 2.046875 -2.015625 2.328125 -1.953125 C 2.84375 -1.859375 3.359375 -1.75 3.359375 -1.203125 C 3.359375 -0.9375 3.140625 -0.109375 1.9375 -0.109375 C 1.8125 -0.109375 1.046875 -0.109375 0.8125 -0.640625 C 1.1875 -0.578125 1.4375 -0.890625 1.4375 -1.15625 C 1.4375 -1.390625 1.28125 -1.515625 1.078125 -1.515625 C 0.8125 -1.515625 0.515625 -1.296875 0.515625 -0.859375 C 0.515625 -0.28125 1.078125 0.109375 1.9375 0.109375 C 3.546875 0.109375 3.921875 -1.09375 3.921875 -1.53125 C 3.921875 -1.890625 3.734375 -2.140625 3.625 -2.265625 C 3.359375 -2.546875 3.0625 -2.59375 2.625 -2.671875 C 2.265625 -2.765625 1.875 -2.828125 1.875 -3.28125 C 1.875 -3.5625 2.109375 -4.171875 2.984375 -4.171875 C 3.234375 -4.171875 3.734375 -4.09375 3.875 -3.703125 Z M 3.875 -3.703125 "/>
</g>
<g id="glyph-2-3">
<path d="M 2.015625 -0.015625 C 2.015625 -0.671875 1.765625 -1.046875 1.375 -1.046875 C 1.046875 -1.046875 0.859375 -0.796875 0.859375 -0.53125 C 0.859375 -0.265625 1.046875 0 1.375 0 C 1.5 0 1.625 -0.046875 1.71875 -0.125 C 1.75 -0.15625 1.765625 -0.15625 1.78125 -0.15625 C 1.78125 -0.15625 1.796875 -0.15625 1.796875 -0.015625 C 1.796875 0.71875 1.453125 1.3125 1.125 1.640625 C 1.015625 1.75 1.015625 1.78125 1.015625 1.8125 C 1.015625 1.875 1.0625 1.921875 1.109375 1.921875 C 1.21875 1.921875 2.015625 1.15625 2.015625 -0.015625 Z M 2.015625 -0.015625 "/>
</g>
<g id="glyph-2-4">
<path d="M 3.703125 -3.75 C 3.515625 -4.125 3.234375 -4.390625 2.78125 -4.390625 C 1.625 -4.390625 0.390625 -2.921875 0.390625 -1.484375 C 0.390625 -0.546875 0.9375 0.109375 1.71875 0.109375 C 1.921875 0.109375 2.40625 0.0625 3 -0.640625 C 3.078125 -0.21875 3.4375 0.109375 3.90625 0.109375 C 4.25 0.109375 4.484375 -0.125 4.640625 -0.4375 C 4.8125 -0.796875 4.9375 -1.40625 4.9375 -1.421875 C 4.9375 -1.515625 4.859375 -1.515625 4.828125 -1.515625 C 4.71875 -1.515625 4.71875 -1.484375 4.6875 -1.34375 C 4.515625 -0.6875 4.328125 -0.109375 3.921875 -0.109375 C 3.65625 -0.109375 3.625 -0.359375 3.625 -0.5625 C 3.625 -0.78125 3.65625 -0.859375 3.765625 -1.296875 C 3.875 -1.71875 3.890625 -1.8125 3.984375 -2.1875 L 4.328125 -3.578125 C 4.40625 -3.859375 4.40625 -3.875 4.40625 -3.921875 C 4.40625 -4.09375 4.28125 -4.1875 4.125 -4.1875 C 3.875 -4.1875 3.734375 -3.96875 3.703125 -3.75 Z M 3.0625 -1.1875 C 3 -1 3 -0.984375 2.859375 -0.8125 C 2.421875 -0.265625 2.015625 -0.109375 1.734375 -0.109375 C 1.234375 -0.109375 1.09375 -0.65625 1.09375 -1.046875 C 1.09375 -1.53125 1.421875 -2.765625 1.640625 -3.21875 C 1.953125 -3.796875 2.40625 -4.171875 2.796875 -4.171875 C 3.4375 -4.171875 3.578125 -3.359375 3.578125 -3.296875 C 3.578125 -3.234375 3.5625 -3.171875 3.546875 -3.125 Z M 3.0625 -1.1875 "/>
</g>
<g id="glyph-2-5">
<path d="M 0.875 -0.578125 C 0.84375 -0.4375 0.78125 -0.203125 0.78125 -0.15625 C 0.78125 0.015625 0.921875 0.109375 1.078125 0.109375 C 1.1875 0.109375 1.375 0.03125 1.4375 -0.171875 C 1.453125 -0.203125 1.796875 -1.5625 1.828125 -1.734375 C 1.921875 -2.0625 2.09375 -2.765625 2.15625 -3.03125 C 2.1875 -3.15625 2.46875 -3.625 2.703125 -3.84375 C 2.78125 -3.90625 3.078125 -4.171875 3.5 -4.171875 C 3.765625 -4.171875 3.90625 -4.046875 3.921875 -4.046875 C 3.625 -4 3.40625 -3.765625 3.40625 -3.5 C 3.40625 -3.34375 3.515625 -3.15625 3.78125 -3.15625 C 4.046875 -3.15625 4.328125 -3.390625 4.328125 -3.734375 C 4.328125 -4.09375 4.015625 -4.390625 3.5 -4.390625 C 2.859375 -4.390625 2.421875 -3.90625 2.234375 -3.625 C 2.15625 -4.0625 1.796875 -4.390625 1.328125 -4.390625 C 0.875 -4.390625 0.6875 -4 0.59375 -3.8125 C 0.421875 -3.484375 0.28125 -2.890625 0.28125 -2.859375 C 0.28125 -2.765625 0.390625 -2.765625 0.40625 -2.765625 C 0.5 -2.765625 0.515625 -2.765625 0.578125 -2.984375 C 0.75 -3.6875 0.9375 -4.171875 1.296875 -4.171875 C 1.46875 -4.171875 1.609375 -4.09375 1.609375 -3.703125 C 1.609375 -3.5 1.578125 -3.390625 1.453125 -2.875 Z M 0.875 -0.578125 "/>
</g>
<g id="glyph-2-6">
<path d="M 2.625 -3.703125 L 3.75 -3.703125 C 3.421875 -2.234375 3.328125 -1.8125 3.328125 -1.140625 C 3.328125 -0.984375 3.328125 -0.71875 3.40625 -0.390625 C 3.515625 0.046875 3.625 0.109375 3.765625 0.109375 C 3.96875 0.109375 4.171875 -0.0625 4.171875 -0.265625 C 4.171875 -0.328125 4.171875 -0.34375 4.125 -0.484375 C 3.828125 -1.203125 3.828125 -1.84375 3.828125 -2.125 C 3.828125 -2.65625 3.90625 -3.1875 4.015625 -3.703125 L 5.140625 -3.703125 C 5.265625 -3.703125 5.625 -3.703125 5.625 -4.03125 C 5.625 -4.28125 5.421875 -4.28125 5.234375 -4.28125 L 1.90625 -4.28125 C 1.6875 -4.28125 1.3125 -4.28125 0.875 -3.8125 C 0.53125 -3.421875 0.265625 -2.96875 0.265625 -2.921875 C 0.265625 -2.90625 0.265625 -2.8125 0.390625 -2.8125 C 0.46875 -2.8125 0.484375 -2.859375 0.546875 -2.9375 C 1.03125 -3.703125 1.609375 -3.703125 1.8125 -3.703125 L 2.375 -3.703125 C 2.046875 -2.5 1.515625 -1.296875 1.09375 -0.390625 C 1.015625 -0.25 1.015625 -0.234375 1.015625 -0.15625 C 1.015625 0.03125 1.1875 0.109375 1.3125 0.109375 C 1.609375 0.109375 1.6875 -0.171875 1.8125 -0.53125 C 1.9375 -0.984375 1.9375 -1.015625 2.078125 -1.515625 Z M 2.625 -3.703125 "/>
</g>
<g id="glyph-2-7">
<path d="M 2.625 -4.328125 C 1.375 -4.03125 0.421875 -2.75 0.421875 -1.546875 C 0.421875 -0.59375 1.046875 0.125 1.984375 0.125 C 3.140625 0.125 3.96875 -1.4375 3.96875 -2.8125 C 3.96875 -3.703125 3.578125 -4.203125 3.234375 -4.65625 C 2.875 -5.09375 2.296875 -5.84375 2.296875 -6.28125 C 2.296875 -6.5 2.484375 -6.734375 2.84375 -6.734375 C 3.140625 -6.734375 3.328125 -6.609375 3.546875 -6.46875 C 3.734375 -6.34375 3.9375 -6.21875 4.09375 -6.21875 C 4.328125 -6.21875 4.484375 -6.453125 4.484375 -6.625 C 4.484375 -6.84375 4.328125 -6.859375 3.96875 -6.9375 C 3.453125 -7.046875 3.3125 -7.046875 3.15625 -7.046875 C 2.375 -7.046875 2.03125 -6.625 2.03125 -6.03125 C 2.03125 -5.5 2.3125 -4.9375 2.625 -4.328125 Z M 2.734375 -4.125 C 2.984375 -3.65625 3.28125 -3.125 3.28125 -2.40625 C 3.28125 -1.75 2.90625 -0.09375 1.984375 -0.09375 C 1.4375 -0.09375 1.03125 -0.515625 1.03125 -1.265625 C 1.03125 -1.890625 1.40625 -3.765625 2.734375 -4.125 Z M 2.734375 -4.125 "/>
</g>
<g id="glyph-2-8">
<path d="M 0.40625 -2.515625 C 0.796875 -3.65625 1.875 -3.671875 1.984375 -3.671875 C 3.484375 -3.671875 3.59375 -1.9375 3.59375 -1.15625 C 3.59375 -0.546875 3.546875 -0.375 3.46875 -0.171875 C 3.25 0.546875 2.953125 1.703125 2.953125 1.953125 C 2.953125 2.0625 3 2.140625 3.078125 2.140625 C 3.21875 2.140625 3.296875 1.921875 3.40625 1.53125 C 3.625 0.703125 3.734375 0.140625 3.765625 -0.171875 C 3.796875 -0.296875 3.8125 -0.421875 3.84375 -0.5625 C 4.171875 -1.53125 4.796875 -3.015625 5.203125 -3.796875 C 5.265625 -3.921875 5.390625 -4.140625 5.390625 -4.171875 C 5.390625 -4.28125 5.28125 -4.28125 5.265625 -4.28125 C 5.234375 -4.28125 5.171875 -4.28125 5.15625 -4.203125 C 4.640625 -3.265625 4.234375 -2.265625 3.84375 -1.265625 C 3.828125 -1.578125 3.8125 -2.328125 3.4375 -3.296875 C 3.1875 -3.90625 2.796875 -4.390625 2.109375 -4.390625 C 0.875 -4.390625 0.171875 -2.875 0.171875 -2.5625 C 0.171875 -2.46875 0.265625 -2.46875 0.359375 -2.46875 Z M 0.40625 -2.515625 "/>
</g>
<g id="glyph-2-9">
<path d="M 6.234375 -5.640625 C 6.71875 -6.421875 7.140625 -6.453125 7.5 -6.46875 C 7.625 -6.484375 7.625 -6.640625 7.625 -6.65625 C 7.625 -6.734375 7.578125 -6.78125 7.5 -6.78125 C 7.25 -6.78125 6.953125 -6.75 6.6875 -6.75 C 6.359375 -6.75 6.015625 -6.78125 5.703125 -6.78125 C 5.640625 -6.78125 5.515625 -6.78125 5.515625 -6.59375 C 5.515625 -6.484375 5.609375 -6.46875 5.671875 -6.46875 C 5.9375 -6.453125 6.125 -6.34375 6.125 -6.140625 C 6.125 -6 5.984375 -5.78125 5.984375 -5.765625 L 2.9375 -0.921875 L 2.265625 -6.171875 C 2.265625 -6.34375 2.484375 -6.46875 2.953125 -6.46875 C 3.078125 -6.46875 3.1875 -6.46875 3.1875 -6.671875 C 3.1875 -6.75 3.109375 -6.78125 3.0625 -6.78125 C 2.65625 -6.78125 2.234375 -6.75 1.828125 -6.75 C 1.640625 -6.75 1.453125 -6.75 1.28125 -6.75 C 1.09375 -6.75 0.90625 -6.78125 0.75 -6.78125 C 0.671875 -6.78125 0.5625 -6.78125 0.5625 -6.59375 C 0.5625 -6.46875 0.640625 -6.46875 0.796875 -6.46875 C 1.359375 -6.46875 1.375 -6.375 1.40625 -6.125 L 2.1875 -0.015625 C 2.21875 0.1875 2.25 0.21875 2.375 0.21875 C 2.546875 0.21875 2.578125 0.171875 2.65625 0.046875 Z M 6.234375 -5.640625 "/>
</g>
<g id="glyph-2-10">
<path d="M 4.734375 -2.34375 C 4.734375 -3.90625 3.8125 -4.390625 3.078125 -4.390625 C 1.71875 -4.390625 0.40625 -2.96875 0.40625 -1.5625 C 0.40625 -0.640625 1 0.109375 2.015625 0.109375 C 2.640625 0.109375 3.359375 -0.125 4.109375 -0.71875 C 4.234375 -0.203125 4.5625 0.109375 5.015625 0.109375 C 5.53125 0.109375 5.84375 -0.4375 5.84375 -0.59375 C 5.84375 -0.671875 5.78125 -0.6875 5.71875 -0.6875 C 5.65625 -0.6875 5.625 -0.671875 5.59375 -0.59375 C 5.421875 -0.109375 5.0625 -0.109375 5.046875 -0.109375 C 4.734375 -0.109375 4.734375 -0.890625 4.734375 -1.125 C 4.734375 -1.328125 4.734375 -1.34375 4.828125 -1.46875 C 5.765625 -2.640625 5.96875 -3.796875 5.96875 -3.796875 C 5.96875 -3.8125 5.96875 -3.90625 5.859375 -3.90625 C 5.75 -3.90625 5.75 -3.875 5.703125 -3.6875 C 5.53125 -3.0625 5.203125 -2.3125 4.734375 -1.71875 Z M 4.0625 -0.984375 C 3.1875 -0.21875 2.4375 -0.109375 2.03125 -0.109375 C 1.4375 -0.109375 1.140625 -0.5625 1.140625 -1.1875 C 1.140625 -1.671875 1.40625 -2.75 1.71875 -3.25 C 2.1875 -3.984375 2.71875 -4.171875 3.0625 -4.171875 C 4.046875 -4.171875 4.046875 -2.875 4.046875 -2.09375 C 4.046875 -1.71875 4.046875 -1.15625 4.0625 -0.984375 Z M 4.0625 -0.984375 "/>
</g>
<g id="glyph-2-11">
<path d="M 4.53125 -2.265625 C 4.6875 -2.34375 4.6875 -2.421875 4.6875 -2.484375 C 4.6875 -2.546875 4.6875 -2.609375 4.53125 -2.703125 L 0.65625 -4.9375 C 0.53125 -5.015625 0.484375 -5.015625 0.453125 -5.015625 C 0.265625 -5.015625 0.265625 -4.796875 0.265625 -4.65625 L 0.265625 -0.3125 C 0.265625 -0.15625 0.265625 0.046875 0.453125 0.046875 C 0.484375 0.046875 0.515625 0.046875 0.640625 -0.015625 Z M 4.09375 -2.484375 L 0.65625 -0.5 L 0.65625 -4.46875 Z M 4.09375 -2.484375 "/>
</g>
<g id="glyph-3-0">
<path d="M 7.3125 -3.734375 C 7.359375 -3.859375 7.40625 -3.9375 7.984375 -3.9375 L 7.984375 -4.40625 C 7.765625 -4.390625 7.46875 -4.375 7.21875 -4.375 C 6.953125 -4.375 6.484375 -4.390625 6.265625 -4.40625 L 6.265625 -3.9375 C 6.359375 -3.9375 6.84375 -3.921875 6.84375 -3.8125 C 6.84375 -3.796875 6.8125 -3.734375 6.8125 -3.703125 L 5.765625 -1.15625 L 4.640625 -3.9375 L 5.1875 -3.9375 L 5.1875 -4.40625 C 4.875 -4.390625 4.359375 -4.375 4.0625 -4.375 C 3.640625 -4.375 3.21875 -4.390625 3.0625 -4.40625 L 3.0625 -3.9375 L 3.65625 -3.9375 C 3.859375 -3.4375 3.859375 -3.421875 3.859375 -3.40625 C 3.859375 -3.375 3.828125 -3.3125 3.8125 -3.28125 L 3.03125 -1.375 L 2 -3.9375 L 2.546875 -3.9375 L 2.546875 -4.40625 C 2.140625 -4.390625 1.734375 -4.375 1.328125 -4.375 C 1.015625 -4.375 0.578125 -4.390625 0.25 -4.40625 L 0.25 -3.9375 L 0.828125 -3.9375 L 2.34375 -0.234375 C 2.421875 -0.0625 2.453125 0.046875 2.703125 0.046875 C 2.953125 0.046875 3 -0.0625 3.0625 -0.234375 L 4.125 -2.796875 L 5.171875 -0.234375 C 5.234375 -0.0625 5.28125 0.046875 5.53125 0.046875 C 5.78125 0.046875 5.8125 -0.0625 5.890625 -0.234375 Z M 7.3125 -3.734375 "/>
</g>
<g id="glyph-3-1">
<path d="M 1.125 -0.46875 L 0.453125 -0.46875 L 0.453125 0 C 0.71875 -0.015625 1.3125 -0.03125 1.703125 -0.03125 C 2.078125 -0.03125 2.671875 -0.015625 2.953125 0 L 2.953125 -0.46875 L 2.265625 -0.46875 L 2.265625 -2.546875 C 2.265625 -3.625 3.109375 -4.109375 3.734375 -4.109375 C 4.078125 -4.109375 4.28125 -3.90625 4.28125 -3.140625 L 4.28125 -0.46875 L 3.609375 -0.46875 L 3.609375 0 C 3.875 -0.015625 4.46875 -0.03125 4.859375 -0.03125 C 5.234375 -0.03125 5.828125 -0.015625 6.109375 0 L 6.109375 -0.46875 L 5.421875 -0.46875 L 5.421875 -3.03125 C 5.421875 -4.078125 4.875 -4.46875 3.890625 -4.46875 C 2.9375 -4.46875 2.4375 -3.890625 2.203125 -3.5 L 2.203125 -6.890625 L 0.453125 -6.8125 L 0.453125 -6.34375 C 1.0625 -6.34375 1.125 -6.34375 1.125 -5.953125 Z M 1.125 -0.46875 "/>
</g>
<g id="glyph-3-2">
<path d="M 2.21875 -4.46875 L 0.5 -4.390625 L 0.5 -3.921875 C 1.078125 -3.921875 1.15625 -3.921875 1.15625 -3.53125 L 1.15625 -0.46875 L 0.46875 -0.46875 L 0.46875 0 C 0.78125 -0.015625 1.265625 -0.03125 1.671875 -0.03125 C 1.96875 -0.03125 2.484375 -0.015625 2.84375 0 L 2.84375 -0.46875 L 2.21875 -0.46875 Z M 2.328125 -6.125 C 2.328125 -6.5625 1.96875 -6.890625 1.546875 -6.890625 C 1.125 -6.890625 0.78125 -6.546875 0.78125 -6.125 C 0.78125 -5.6875 1.125 -5.34375 1.546875 -5.34375 C 1.96875 -5.34375 2.328125 -5.6875 2.328125 -6.125 Z M 2.328125 -6.125 "/>
</g>
<g id="glyph-3-3">
<path d="M 2.21875 -6.890625 L 0.46875 -6.8125 L 0.46875 -6.34375 C 1.078125 -6.34375 1.15625 -6.34375 1.15625 -5.953125 L 1.15625 -0.46875 L 0.46875 -0.46875 L 0.46875 0 C 0.78125 -0.015625 1.265625 -0.03125 1.6875 -0.03125 C 2.109375 -0.03125 2.5625 -0.015625 2.90625 0 L 2.90625 -0.46875 L 2.21875 -0.46875 Z M 2.21875 -6.890625 "/>
</g>
<g id="glyph-3-4">
<path d="M 4.578125 -2.15625 C 4.796875 -2.15625 4.90625 -2.15625 4.90625 -2.4375 C 4.90625 -2.734375 4.84375 -3.46875 4.34375 -3.953125 C 3.984375 -4.3125 3.453125 -4.5 2.765625 -4.5 C 1.1875 -4.5 0.3125 -3.46875 0.3125 -2.234375 C 0.3125 -0.90625 1.3125 0.0625 2.90625 0.0625 C 4.46875 0.0625 4.90625 -0.984375 4.90625 -1.15625 C 4.90625 -1.34375 4.71875 -1.34375 4.65625 -1.34375 C 4.5 -1.34375 4.46875 -1.296875 4.421875 -1.125 C 4.203125 -0.65625 3.640625 -0.34375 3 -0.34375 C 1.59375 -0.34375 1.59375 -1.65625 1.59375 -2.15625 Z M 1.59375 -2.484375 C 1.609375 -2.875 1.625 -3.296875 1.828125 -3.625 C 2.078125 -4.015625 2.484375 -4.140625 2.765625 -4.140625 C 3.921875 -4.140625 3.953125 -2.84375 3.953125 -2.484375 Z M 1.59375 -2.484375 "/>
</g>
<g id="glyph-3-5">
<path d="M 4.140625 -0.421875 L 4.140625 0.0625 L 5.96875 0 L 5.96875 -0.46875 C 5.34375 -0.46875 5.28125 -0.46875 5.28125 -0.859375 L 5.28125 -6.890625 L 3.515625 -6.8125 L 3.515625 -6.34375 C 4.140625 -6.34375 4.203125 -6.34375 4.203125 -5.953125 L 4.203125 -4.015625 C 3.703125 -4.40625 3.1875 -4.46875 2.875 -4.46875 C 1.421875 -4.46875 0.375 -3.59375 0.375 -2.1875 C 0.375 -0.890625 1.296875 0.0625 2.765625 0.0625 C 3.359375 0.0625 3.84375 -0.171875 4.140625 -0.421875 Z M 4.140625 -3.5 L 4.140625 -1.015625 C 4.015625 -0.84375 3.609375 -0.296875 2.859375 -0.296875 C 1.640625 -0.296875 1.640625 -1.5 1.640625 -2.1875 C 1.640625 -2.671875 1.640625 -3.203125 1.90625 -3.59375 C 2.1875 -4.015625 2.65625 -4.109375 2.96875 -4.109375 C 3.53125 -4.109375 3.921875 -3.796875 4.140625 -3.5 Z M 4.140625 -3.5 "/>
</g>
<g id="glyph-3-6">
<path d="M 5.375 -2.15625 C 5.375 -3.5 4.46875 -4.5 2.84375 -4.5 C 1.21875 -4.5 0.3125 -3.484375 0.3125 -2.15625 C 0.3125 -0.9375 1.1875 0.0625 2.84375 0.0625 C 4.515625 0.0625 5.375 -0.9375 5.375 -2.15625 Z M 2.84375 -0.34375 C 1.59375 -0.34375 1.59375 -1.40625 1.59375 -2.265625 C 1.59375 -2.71875 1.59375 -3.21875 1.75 -3.5625 C 1.9375 -3.921875 2.359375 -4.140625 2.84375 -4.140625 C 3.265625 -4.140625 3.6875 -3.984375 3.90625 -3.625 C 4.109375 -3.296875 4.109375 -2.75 4.109375 -2.265625 C 4.109375 -1.40625 4.109375 -0.34375 2.84375 -0.34375 Z M 2.84375 -0.34375 "/>
</g>
<g id="glyph-3-7">
<path d="M 1.125 -3.53125 L 1.125 -0.46875 L 0.453125 -0.46875 L 0.453125 0 C 0.71875 -0.015625 1.3125 -0.03125 1.703125 -0.03125 C 2.078125 -0.03125 2.671875 -0.015625 2.953125 0 L 2.953125 -0.46875 L 2.265625 -0.46875 L 2.265625 -2.546875 C 2.265625 -3.625 3.109375 -4.109375 3.734375 -4.109375 C 4.078125 -4.109375 4.28125 -3.90625 4.28125 -3.140625 L 4.28125 -0.46875 L 3.609375 -0.46875 L 3.609375 0 C 3.875 -0.015625 4.46875 -0.03125 4.859375 -0.03125 C 5.234375 -0.03125 5.828125 -0.015625 6.109375 0 L 6.109375 -0.46875 L 5.421875 -0.46875 L 5.421875 -3.03125 C 5.421875 -4.078125 4.875 -4.46875 3.890625 -4.46875 C 2.9375 -4.46875 2.40625 -3.90625 2.15625 -3.390625 L 2.15625 -4.46875 L 0.453125 -4.390625 L 0.453125 -3.921875 C 1.0625 -3.921875 1.125 -3.921875 1.125 -3.53125 Z M 1.125 -3.53125 "/>
</g>
<g id="glyph-4-0">
<path d="M 2.8125 -6.125 C 2.8125 -6.515625 3.0625 -7.15625 4.140625 -7.21875 C 4.203125 -7.234375 4.234375 -7.265625 4.234375 -7.328125 C 4.234375 -7.4375 4.15625 -7.4375 4.046875 -7.4375 C 3.0625 -7.4375 2.15625 -6.9375 2.140625 -6.203125 L 2.140625 -3.9375 C 2.140625 -3.546875 2.140625 -3.234375 1.75 -2.90625 C 1.40625 -2.625 1.015625 -2.59375 0.796875 -2.59375 C 0.75 -2.578125 0.71875 -2.546875 0.71875 -2.484375 C 0.71875 -2.375 0.78125 -2.375 0.875 -2.375 C 1.53125 -2.328125 2 -1.96875 2.109375 -1.484375 C 2.140625 -1.375 2.140625 -1.359375 2.140625 -1 L 2.140625 0.96875 C 2.140625 1.375 2.140625 1.703125 2.625 2.078125 C 3 2.375 3.65625 2.484375 4.046875 2.484375 C 4.15625 2.484375 4.234375 2.484375 4.234375 2.375 C 4.234375 2.265625 4.171875 2.265625 4.078125 2.265625 C 3.453125 2.21875 2.96875 1.90625 2.84375 1.40625 C 2.8125 1.3125 2.8125 1.296875 2.8125 0.9375 L 2.8125 -1.15625 C 2.8125 -1.609375 2.734375 -1.78125 2.40625 -2.09375 C 2.203125 -2.296875 1.921875 -2.40625 1.640625 -2.484375 C 2.453125 -2.703125 2.8125 -3.171875 2.8125 -3.734375 Z M 2.8125 -6.125 "/>
</g>
<g id="glyph-4-1">
<path d="M 2.140625 1.15625 C 2.140625 1.5625 1.890625 2.1875 0.796875 2.265625 C 0.75 2.265625 0.71875 2.3125 0.71875 2.375 C 0.71875 2.484375 0.828125 2.484375 0.90625 2.484375 C 1.875 2.484375 2.796875 2 2.8125 1.234375 L 2.8125 -1.015625 C 2.8125 -1.40625 2.8125 -1.71875 3.203125 -2.046875 C 3.546875 -2.34375 3.921875 -2.359375 4.140625 -2.375 C 4.203125 -2.375 4.234375 -2.421875 4.234375 -2.484375 C 4.234375 -2.578125 4.171875 -2.578125 4.078125 -2.59375 C 3.421875 -2.625 2.953125 -2.984375 2.84375 -3.46875 C 2.8125 -3.578125 2.8125 -3.609375 2.8125 -3.953125 L 2.8125 -5.921875 C 2.8125 -6.34375 2.8125 -6.65625 2.328125 -7.03125 C 1.9375 -7.34375 1.25 -7.4375 0.90625 -7.4375 C 0.828125 -7.4375 0.71875 -7.4375 0.71875 -7.328125 C 0.71875 -7.234375 0.78125 -7.234375 0.875 -7.21875 C 1.5 -7.1875 1.984375 -6.859375 2.109375 -6.359375 C 2.140625 -6.265625 2.140625 -6.25 2.140625 -5.890625 L 2.140625 -3.8125 C 2.140625 -3.359375 2.21875 -3.1875 2.546875 -2.875 C 2.75 -2.65625 3.03125 -2.5625 3.3125 -2.484375 C 2.5 -2.25 2.140625 -1.796875 2.140625 -1.21875 Z M 2.140625 1.15625 "/>
</g>
<g id="glyph-4-2">
<path d="M 9.015625 -2.28125 C 9.1875 -2.28125 9.359375 -2.28125 9.359375 -2.484375 C 9.359375 -2.671875 9.1875 -2.671875 9.015625 -2.671875 L 1.640625 -2.671875 C 2.1875 -3.09375 2.453125 -3.5 2.53125 -3.625 C 2.96875 -4.3125 3.0625 -4.9375 3.0625 -4.953125 C 3.0625 -5.0625 2.9375 -5.0625 2.859375 -5.0625 C 2.6875 -5.0625 2.671875 -5.046875 2.640625 -4.875 C 2.40625 -3.90625 1.828125 -3.078125 0.703125 -2.609375 C 0.59375 -2.5625 0.5625 -2.546875 0.5625 -2.484375 C 0.5625 -2.40625 0.609375 -2.390625 0.703125 -2.34375 C 1.734375 -1.921875 2.40625 -1.15625 2.65625 -0.046875 C 2.671875 0.078125 2.6875 0.109375 2.859375 0.109375 C 2.9375 0.109375 3.0625 0.109375 3.0625 -0.015625 C 3.0625 -0.03125 2.96875 -0.65625 2.546875 -1.3125 C 2.34375 -1.625 2.0625 -1.96875 1.640625 -2.28125 Z M 9.015625 -2.28125 "/>
</g>
<g id="glyph-4-3">
<path d="M 6.53125 -2.28125 C 6.703125 -2.28125 6.890625 -2.28125 6.890625 -2.484375 C 6.890625 -2.671875 6.703125 -2.671875 6.53125 -2.671875 L 1.171875 -2.671875 C 1 -2.671875 0.828125 -2.671875 0.828125 -2.484375 C 0.828125 -2.28125 1 -2.28125 1.171875 -2.28125 Z M 6.53125 -2.28125 "/>
</g>
<g id="glyph-4-4">
<path d="M 7.734375 -6.5625 C 7.765625 -6.59375 7.78125 -6.65625 7.78125 -6.703125 C 7.78125 -6.765625 7.78125 -6.78125 7.546875 -6.78125 L 0.703125 -6.78125 C 0.46875 -6.78125 0.46875 -6.765625 0.46875 -6.703125 C 0.46875 -6.65625 0.5 -6.59375 0.515625 -6.5625 L 3.859375 0.140625 C 3.921875 0.265625 3.953125 0.328125 4.125 0.328125 C 4.296875 0.328125 4.328125 0.265625 4.390625 0.140625 Z M 1.703125 -6.0625 L 7.140625 -6.0625 L 4.421875 -0.609375 Z M 1.703125 -6.0625 "/>
</g>
<g id="glyph-4-5">
<path d="M 1.578125 -7.078125 C 1.578125 -7.265625 1.578125 -7.4375 1.375 -7.4375 C 1.1875 -7.4375 1.1875 -7.265625 1.1875 -7.078125 L 1.1875 2.125 C 1.1875 2.296875 1.1875 2.484375 1.375 2.484375 C 1.578125 2.484375 1.578125 2.296875 1.578125 2.125 Z M 1.578125 -7.078125 "/>
</g>
<g id="glyph-5-0">
<path d="M 1.703125 -2.734375 L 2.421875 -2.734375 C 2.546875 -2.734375 2.640625 -2.734375 2.640625 -2.890625 C 2.640625 -2.984375 2.546875 -2.984375 2.421875 -2.984375 L 1.765625 -2.984375 L 2.03125 -4.015625 C 2.03125 -4.046875 2.046875 -4.09375 2.046875 -4.109375 C 2.046875 -4.234375 1.953125 -4.34375 1.8125 -4.34375 C 1.640625 -4.34375 1.53125 -4.21875 1.484375 -4.03125 C 1.4375 -3.859375 1.53125 -4.203125 1.21875 -2.984375 L 0.515625 -2.984375 C 0.375 -2.984375 0.296875 -2.984375 0.296875 -2.84375 C 0.296875 -2.734375 0.375 -2.734375 0.5 -2.734375 L 1.15625 -2.734375 L 0.75 -1.109375 C 0.703125 -0.921875 0.640625 -0.6875 0.640625 -0.59375 C 0.640625 -0.1875 0.984375 0.0625 1.390625 0.0625 C 2.15625 0.0625 2.59375 -0.90625 2.59375 -0.984375 C 2.59375 -1.078125 2.5 -1.078125 2.484375 -1.078125 C 2.40625 -1.078125 2.390625 -1.0625 2.34375 -0.953125 C 2.140625 -0.515625 1.796875 -0.125 1.40625 -0.125 C 1.265625 -0.125 1.171875 -0.21875 1.171875 -0.46875 C 1.171875 -0.53125 1.1875 -0.6875 1.203125 -0.75 Z M 1.703125 -2.734375 "/>
</g>
<g id="glyph-5-1">
<path d="M 3.546875 -3.375 C 3.546875 -4.109375 3.265625 -4.890625 2.59375 -4.890625 C 1.546875 -4.890625 0.4375 -3.03125 0.4375 -1.4375 C 0.4375 -0.609375 0.75 0.0625 1.390625 0.0625 C 2.453125 0.0625 3.546875 -1.828125 3.546875 -3.375 Z M 1.21875 -2.53125 C 1.578125 -4.03125 2.171875 -4.6875 2.578125 -4.6875 C 3.03125 -4.6875 3.03125 -3.921875 3.03125 -3.78125 C 3.03125 -3.515625 2.96875 -3.109375 2.828125 -2.53125 Z M 2.765625 -2.28125 C 2.5625 -1.53125 2.40625 -1.15625 2.203125 -0.8125 C 1.984375 -0.453125 1.703125 -0.125 1.40625 -0.125 C 1.015625 -0.125 0.953125 -0.65625 0.953125 -1.03125 C 0.953125 -1.484375 1.09375 -2.03125 1.15625 -2.28125 Z M 2.765625 -2.28125 "/>
</g>
<g id="glyph-5-2">
<path d="M 3.40625 -4.71875 C 3.40625 -4.8125 3.328125 -4.8125 3.296875 -4.8125 C 3.1875 -4.8125 3.1875 -4.78125 3.15625 -4.65625 L 2.765625 -3.078125 C 1.53125 -3.015625 0.484375 -2.140625 0.484375 -1.203125 C 0.484375 -0.421875 1.203125 0.046875 1.96875 0.078125 C 1.921875 0.296875 1.859375 0.515625 1.8125 0.734375 C 1.734375 1.046875 1.671875 1.3125 1.671875 1.328125 C 1.671875 1.421875 1.75 1.421875 1.78125 1.421875 C 1.875 1.421875 1.890625 1.390625 1.921875 1.25 L 2.21875 0.078125 C 3.40625 0.03125 4.484375 -0.84375 4.484375 -1.78125 C 4.484375 -2.515625 3.84375 -3.03125 3 -3.0625 Z M 2.015625 -0.125 C 1.484375 -0.140625 0.984375 -0.4375 0.984375 -1.09375 C 0.984375 -1.78125 1.515625 -2.765625 2.703125 -2.875 Z M 2.953125 -2.875 C 3.484375 -2.84375 3.984375 -2.5625 3.984375 -1.90625 C 3.984375 -1.140625 3.390625 -0.21875 2.265625 -0.125 Z M 2.953125 -2.875 "/>
</g>
<g id="glyph-6-0">
<path d="M 3.21875 -1.5625 L 5.328125 -1.5625 C 5.421875 -1.5625 5.59375 -1.5625 5.59375 -1.734375 C 5.59375 -1.90625 5.4375 -1.90625 5.328125 -1.90625 L 3.21875 -1.90625 L 3.21875 -4.03125 C 3.21875 -4.125 3.21875 -4.296875 3.046875 -4.296875 C 2.875 -4.296875 2.875 -4.140625 2.875 -4.03125 L 2.875 -1.90625 L 0.75 -1.90625 C 0.65625 -1.90625 0.484375 -1.90625 0.484375 -1.734375 C 0.484375 -1.5625 0.640625 -1.5625 0.75 -1.5625 L 2.875 -1.5625 L 2.875 0.5625 C 2.875 0.65625 2.875 0.8125 3.03125 0.8125 C 3.21875 0.8125 3.21875 0.65625 3.21875 0.5625 Z M 3.21875 -1.5625 "/>
</g>
<g id="glyph-6-1">
<path d="M 2.328125 -4.40625 C 2.328125 -4.59375 2.3125 -4.609375 2.109375 -4.609375 C 1.671875 -4.171875 1.046875 -4.15625 0.75 -4.15625 L 0.75 -3.90625 C 0.921875 -3.90625 1.375 -3.90625 1.765625 -4.109375 L 1.765625 -0.5625 C 1.765625 -0.34375 1.765625 -0.25 1.0625 -0.25 L 0.8125 -0.25 L 0.8125 0 C 0.921875 0 1.78125 -0.03125 2.046875 -0.03125 C 2.25 -0.03125 3.125 0 3.28125 0 L 3.28125 -0.25 L 3.015625 -0.25 C 2.328125 -0.25 2.328125 -0.34375 2.328125 -0.5625 Z M 2.328125 -4.40625 "/>
</g>
<g id="glyph-6-2">
<path d="M 5.171875 -4.6875 L 0.484375 -4.6875 L 0.328125 -3.09375 L 0.5625 -3.09375 C 0.671875 -4.296875 0.875 -4.4375 1.9375 -4.4375 C 2.078125 -4.4375 2.28125 -4.4375 2.34375 -4.4375 C 2.5 -4.40625 2.5 -4.328125 2.5 -4.171875 L 2.5 -0.5625 C 2.5 -0.34375 2.5 -0.25 1.78125 -0.25 L 1.484375 -0.25 L 1.484375 0 C 1.828125 -0.03125 2.46875 -0.03125 2.828125 -0.03125 C 3.1875 -0.03125 3.828125 -0.03125 4.171875 0 L 4.171875 -0.25 L 3.875 -0.25 C 3.15625 -0.25 3.15625 -0.34375 3.15625 -0.5625 L 3.15625 -4.171875 C 3.15625 -4.328125 3.15625 -4.40625 3.3125 -4.4375 C 3.375 -4.4375 3.578125 -4.4375 3.71875 -4.4375 C 4.109375 -4.4375 4.40625 -4.4375 4.640625 -4.296875 C 4.953125 -4.109375 5.015625 -3.671875 5.015625 -3.640625 L 5.078125 -3.09375 L 5.3125 -3.09375 Z M 5.171875 -4.6875 "/>
</g>
<g id="glyph-6-3">
<path d="M 0.40625 -4.734375 L 0.40625 -4.484375 L 0.5625 -4.484375 C 1.109375 -4.484375 1.109375 -4.421875 1.109375 -4.171875 L 1.109375 -0.5625 C 1.109375 -0.328125 1.109375 -0.25 0.5625 -0.25 L 0.40625 -0.25 L 0.40625 0 L 3.140625 0 C 4.40625 0 5.46875 -1.03125 5.46875 -2.328125 C 5.46875 -3.65625 4.421875 -4.734375 3.140625 -4.734375 Z M 2.078125 -0.25 C 1.75 -0.25 1.75 -0.3125 1.75 -0.515625 L 1.75 -4.21875 C 1.75 -4.4375 1.75 -4.484375 2.078125 -4.484375 L 2.9375 -4.484375 C 3.53125 -4.484375 4.046875 -4.25 4.359375 -3.84375 C 4.640625 -3.46875 4.765625 -2.9375 4.765625 -2.328125 C 4.765625 -1.53125 4.5625 -1.109375 4.3125 -0.8125 C 4 -0.46875 3.5 -0.25 2.953125 -0.25 Z M 2.078125 -0.25 "/>
</g>
<g id="glyph-6-4">
<path d="M 3.5 -1.265625 L 3.265625 -1.265625 C 3.25 -1.109375 3.171875 -0.703125 3.09375 -0.625 C 3.03125 -0.59375 2.5 -0.59375 2.40625 -0.59375 L 1.125 -0.59375 C 1.859375 -1.234375 2.09375 -1.421875 2.515625 -1.75 C 3.03125 -2.171875 3.5 -2.59375 3.5 -3.25 C 3.5 -4.09375 2.765625 -4.609375 1.875 -4.609375 C 1.015625 -4.609375 0.4375 -4 0.4375 -3.359375 C 0.4375 -3.015625 0.734375 -2.96875 0.8125 -2.96875 C 0.96875 -2.96875 1.171875 -3.09375 1.171875 -3.34375 C 1.171875 -3.46875 1.125 -3.71875 0.765625 -3.71875 C 0.984375 -4.203125 1.453125 -4.359375 1.78125 -4.359375 C 2.46875 -4.359375 2.828125 -3.8125 2.828125 -3.25 C 2.828125 -2.65625 2.40625 -2.171875 2.171875 -1.921875 L 0.5 -0.265625 C 0.4375 -0.203125 0.4375 -0.1875 0.4375 0 L 3.296875 0 Z M 3.5 -1.265625 "/>
</g>
<g id="glyph-7-0">
<path d="M 4.171875 5.296875 L 0.65625 9.65625 C 0.578125 9.75 0.5625 9.765625 0.5625 9.8125 C 0.5625 9.921875 0.65625 9.921875 0.828125 9.921875 L 9.0625 9.921875 L 9.90625 7.453125 L 9.65625 7.453125 C 9.421875 8.203125 8.75 8.796875 7.90625 9.09375 C 7.75 9.140625 7.0625 9.375 5.609375 9.375 L 1.390625 9.375 L 4.828125 5.125 C 4.90625 5.03125 4.921875 5 4.921875 4.953125 C 4.921875 4.921875 4.90625 4.90625 4.859375 4.828125 L 1.625 0.390625 L 5.5625 0.390625 C 6.6875 0.390625 8.96875 0.46875 9.65625 2.328125 L 9.90625 2.328125 L 9.0625 0 L 0.828125 0 C 0.5625 0 0.5625 0.015625 0.5625 0.3125 Z M 4.171875 5.296875 "/>
</g>
</g>
</defs>
<g fill="rgb(0%, 0%, 0%)" fill-opacity="1">
<use xlink:href="#glyph-0-0" x="9.719793" y="10.856373"/>
<use xlink:href="#glyph-0-1" x="13.935811" y="10.856373"/>
</g>
<g fill="rgb(0%, 0%, 0%)" fill-opacity="1">
<use xlink:href="#glyph-1-0" x="21.237058" y="10.856373"/>
<use xlink:href="#glyph-1-1" x="24.818839" y="10.856373"/>
<use xlink:href="#glyph-1-2" x="30.329883" y="10.856373"/>
<use xlink:href="#glyph-1-3" x="33.085405" y="10.856373"/>
<use xlink:href="#glyph-1-2" x="36.942937" y="10.856373"/>
<use xlink:href="#glyph-1-4" x="39.698459" y="10.856373"/>
<use xlink:href="#glyph-1-5" x="44.658001" y="10.856373"/>
<use xlink:href="#glyph-1-2" x="47.413523" y="10.856373"/>
<use xlink:href="#glyph-1-6" x="50.169045" y="10.856373"/>
<use xlink:href="#glyph-1-7" x="54.577087" y="10.856373"/>
</g>
<g fill="rgb(0%, 0%, 0%)" fill-opacity="1">
<use xlink:href="#glyph-1-4" x="62.288184" y="10.856373"/>
<use xlink:href="#glyph-1-8" x="67.247726" y="10.856373"/>
<use xlink:href="#glyph-1-3" x="71.655768" y="10.856373"/>
<use xlink:href="#glyph-1-9" x="75.5133" y="10.856373"/>
<use xlink:href="#glyph-1-10" x="80.472842" y="10.856373"/>
</g>
<g fill="rgb(0%, 0%, 0%)" fill-opacity="1">
<use xlink:href="#glyph-1-11" x="87.671123" y="10.856373"/>
<use xlink:href="#glyph-1-4" x="93.182166" y="10.856373"/>
<use xlink:href="#glyph-1-10" x="98.141709" y="10.856373"/>
<use xlink:href="#glyph-1-4" x="102.027015" y="10.856373"/>
<use xlink:href="#glyph-1-12" x="106.986557" y="10.856373"/>
<use xlink:href="#glyph-1-7" x="115.252131" y="10.856373"/>
<use xlink:href="#glyph-1-3" x="119.660172" y="10.856373"/>
<use xlink:href="#glyph-1-7" x="123.517705" y="10.856373"/>
<use xlink:href="#glyph-1-10" x="127.925746" y="10.856373"/>
<use xlink:href="#glyph-1-13" x="131.811052" y="10.856373"/>
</g>
<g fill="rgb(0%, 0%, 0%)" fill-opacity="1">
<use xlink:href="#glyph-2-0" x="139.026194" y="10.856373"/>
</g>
<g fill="rgb(0%, 0%, 0%)" fill-opacity="1">
<use xlink:href="#glyph-1-4" x="147.263003" y="10.856373"/>
<use xlink:href="#glyph-1-1" x="152.222545" y="10.856373"/>
<use xlink:href="#glyph-1-14" x="157.733589" y="10.856373"/>
</g>
<g fill="rgb(0%, 0%, 0%)" fill-opacity="1">
<use xlink:href="#glyph-1-8" x="166.547688" y="10.856373"/>
<use xlink:href="#glyph-1-10" x="170.955729" y="10.856373"/>
<use xlink:href="#glyph-1-2" x="174.841035" y="10.856373"/>
<use xlink:href="#glyph-1-3" x="177.596557" y="10.856373"/>
<use xlink:href="#glyph-1-2" x="181.454089" y="10.856373"/>
<use xlink:href="#glyph-1-8" x="184.209611" y="10.856373"/>
</g>
<g fill="rgb(0%, 0%, 0%)" fill-opacity="1">
<use xlink:href="#glyph-1-11" x="191.930627" y="10.856373"/>
<use xlink:href="#glyph-1-4" x="197.441671" y="10.856373"/>
<use xlink:href="#glyph-1-10" x="202.401213" y="10.856373"/>
<use xlink:href="#glyph-1-4" x="206.286519" y="10.856373"/>
<use xlink:href="#glyph-1-12" x="211.246062" y="10.856373"/>
<use xlink:href="#glyph-1-7" x="219.511635" y="10.856373"/>
<use xlink:href="#glyph-1-3" x="223.919677" y="10.856373"/>
<use xlink:href="#glyph-1-7" x="227.777209" y="10.856373"/>
<use xlink:href="#glyph-1-10" x="232.18525" y="10.856373"/>
<use xlink:href="#glyph-1-13" x="236.070556" y="10.856373"/>
</g>
<g fill="rgb(0%, 0%, 0%)" fill-opacity="1">
<use xlink:href="#glyph-2-1" x="243.285699" y="10.856373"/>
</g>
<g fill="rgb(0%, 0%, 0%)" fill-opacity="1">
<use xlink:href="#glyph-0-2" x="9.719793" y="22.759156"/>
<use xlink:href="#glyph-0-1" x="13.935811" y="22.759156"/>
</g>
<g fill="rgb(0%, 0%, 0%)" fill-opacity="1">
<use xlink:href="#glyph-3-0" x="21.237058" y="22.759156"/>
<use xlink:href="#glyph-3-1" x="29.47585" y="22.759156"/>
<use xlink:href="#glyph-3-2" x="35.813153" y="22.759156"/>
<use xlink:href="#glyph-3-3" x="38.981309" y="22.759156"/>
<use xlink:href="#glyph-3-4" x="42.149465" y="22.759156"/>
</g>
<g fill="rgb(0%, 0%, 0%)" fill-opacity="1">
<use xlink:href="#glyph-1-1" x="50.68087" y="22.759156"/>
<use xlink:href="#glyph-1-9" x="56.191914" y="22.759156"/>
<use xlink:href="#glyph-1-3" x="61.151456" y="22.759156"/>
</g>
<g fill="rgb(0%, 0%, 0%)" fill-opacity="1">
<use xlink:href="#glyph-1-8" x="68.321963" y="22.759156"/>
<use xlink:href="#glyph-1-9" x="72.730005" y="22.759156"/>
<use xlink:href="#glyph-1-1" x="77.689547" y="22.759156"/>
</g>
<g fill="rgb(0%, 0%, 0%)" fill-opacity="1">
<use xlink:href="#glyph-1-15" x="82.922856" y="22.759156"/>
</g>
<g fill="rgb(0%, 0%, 0%)" fill-opacity="1">
<use xlink:href="#glyph-1-7" x="87.880415" y="22.759156"/>
<use xlink:href="#glyph-1-10" x="92.288457" y="22.759156"/>
<use xlink:href="#glyph-1-16" x="96.173762" y="22.759156"/>
<use xlink:href="#glyph-1-7" x="101.133305" y="22.759156"/>
<use xlink:href="#glyph-1-14" x="105.541346" y="22.759156"/>
</g>
<g fill="rgb(0%, 0%, 0%)" fill-opacity="1">
<use xlink:href="#glyph-3-5" x="114.355446" y="22.759156"/>
<use xlink:href="#glyph-3-6" x="120.692749" y="22.759156"/>
</g>
<g fill="rgb(0%, 0%, 0%)" fill-opacity="1">
<use xlink:href="#glyph-0-3" x="9.719793" y="34.661939"/>
<use xlink:href="#glyph-0-1" x="13.935811" y="34.661939"/>
</g>
<g fill="rgb(0%, 0%, 0%)" fill-opacity="1">
<use xlink:href="#glyph-1-17" x="36.115685" y="34.661939"/>
<use xlink:href="#glyph-1-9" x="43.279249" y="34.661939"/>
<use xlink:href="#glyph-1-5" x="48.238791" y="34.661939"/>
<use xlink:href="#glyph-1-5" x="50.994313" y="34.661939"/>
<use xlink:href="#glyph-1-7" x="53.749835" y="34.661939"/>
<use xlink:href="#glyph-1-8" x="58.157876" y="34.661939"/>
<use xlink:href="#glyph-1-3" x="62.565918" y="34.661939"/>
</g>
<g fill="rgb(0%, 0%, 0%)" fill-opacity="1">
<use xlink:href="#glyph-1-3" x="69.726506" y="34.661939"/>
<use xlink:href="#glyph-1-10" x="73.584038" y="34.661939"/>
<use xlink:href="#glyph-1-4" x="77.469343" y="34.661939"/>
<use xlink:href="#glyph-1-1" x="82.428886" y="34.661939"/>
<use xlink:href="#glyph-1-13" x="87.93993" y="34.661939"/>
<use xlink:href="#glyph-1-2" x="91.852017" y="34.661939"/>
<use xlink:href="#glyph-1-3" x="94.607539" y="34.661939"/>
<use xlink:href="#glyph-1-2" x="98.465071" y="34.661939"/>
<use xlink:href="#glyph-1-9" x="101.220593" y="34.661939"/>
<use xlink:href="#glyph-1-1" x="106.180136" y="34.661939"/>
<use xlink:href="#glyph-1-13" x="111.691179" y="34.661939"/>
</g>
<g fill="rgb(0%, 0%, 0%)" fill-opacity="1">
<use xlink:href="#glyph-4-0" x="118.916241" y="34.661939"/>
</g>
<g fill="rgb(0%, 0%, 0%)" fill-opacity="1">
<use xlink:href="#glyph-1-18" x="123.875783" y="34.661939"/>
</g>
<g fill="rgb(0%, 0%, 0%)" fill-opacity="1">
<use xlink:href="#glyph-2-2" x="127.733316" y="34.661939"/>
</g>
<g fill="rgb(0%, 0%, 0%)" fill-opacity="1">
<use xlink:href="#glyph-5-0" x="132.379687" y="36.150409"/>
</g>
<g fill="rgb(0%, 0%, 0%)" fill-opacity="1">
<use xlink:href="#glyph-2-3" x="135.871369" y="34.661939"/>
</g>
<g fill="rgb(0%, 0%, 0%)" fill-opacity="1">
<use xlink:href="#glyph-2-4" x="140.283378" y="34.661939"/>
</g>
<g fill="rgb(0%, 0%, 0%)" fill-opacity="1">
<use xlink:href="#glyph-5-0" x="145.523027" y="36.150409"/>
</g>
<g fill="rgb(0%, 0%, 0%)" fill-opacity="1">
<use xlink:href="#glyph-2-3" x="149.015705" y="34.661939"/>
</g>
<g fill="rgb(0%, 0%, 0%)" fill-opacity="1">
<use xlink:href="#glyph-2-5" x="153.427714" y="34.661939"/>
</g>
<g fill="rgb(0%, 0%, 0%)" fill-opacity="1">
<use xlink:href="#glyph-5-0" x="157.899731" y="36.150409"/>
</g>
<g fill="rgb(0%, 0%, 0%)" fill-opacity="1">
<use xlink:href="#glyph-2-3" x="161.391413" y="34.661939"/>
</g>
<g fill="rgb(0%, 0%, 0%)" fill-opacity="1">
<use xlink:href="#glyph-2-2" x="165.803422" y="34.661939"/>
</g>
<g fill="rgb(0%, 0%, 0%)" fill-opacity="1">
<use xlink:href="#glyph-5-0" x="170.449674" y="36.150409"/>
</g>
<g fill="rgb(0%, 0%, 0%)" fill-opacity="1">
<use xlink:href="#glyph-6-0" x="173.44642" y="36.150409"/>
<use xlink:href="#glyph-6-1" x="179.535729" y="36.150409"/>
</g>
<g fill="rgb(0%, 0%, 0%)" fill-opacity="1">
<use xlink:href="#glyph-1-19" x="183.985294" y="34.661939"/>
</g>
<g fill="rgb(0%, 0%, 0%)" fill-opacity="1">
<use xlink:href="#glyph-4-1" x="187.842826" y="34.661939"/>
</g>
<g fill="rgb(0%, 0%, 0%)" fill-opacity="1">
<use xlink:href="#glyph-1-20" x="196.105424" y="34.661939"/>
</g>
<g fill="rgb(0%, 0%, 0%)" fill-opacity="1">
<use xlink:href="#glyph-1-21" x="201.348653" y="34.661939"/>
</g>
<g fill="rgb(0%, 0%, 0%)" fill-opacity="1">
<use xlink:href="#glyph-1-10" x="209.887001" y="34.661939"/>
<use xlink:href="#glyph-1-22" x="213.772307" y="34.661939"/>
<use xlink:href="#glyph-1-1" x="219.283351" y="34.661939"/>
<use xlink:href="#glyph-1-1" x="224.794394" y="34.661939"/>
<use xlink:href="#glyph-1-2" x="230.305438" y="34.661939"/>
<use xlink:href="#glyph-1-1" x="233.06096" y="34.661939"/>
<use xlink:href="#glyph-1-16" x="238.572004" y="34.661939"/>
</g>
<g fill="rgb(0%, 0%, 0%)" fill-opacity="1">
<use xlink:href="#glyph-2-6" x="246.834602" y="34.661939"/>
</g>
<g fill="rgb(0%, 0%, 0%)" fill-opacity="1">
<use xlink:href="#glyph-5-1" x="252.487775" y="36.150409"/>
</g>
<g fill="rgb(0%, 0%, 0%)" fill-opacity="1">
<use xlink:href="#glyph-0-4" x="9.719793" y="46.564722"/>
<use xlink:href="#glyph-0-1" x="13.935811" y="46.564722"/>
</g>
<g fill="rgb(0%, 0%, 0%)" fill-opacity="1">
<use xlink:href="#glyph-1-17" x="36.115685" y="46.564722"/>
<use xlink:href="#glyph-1-9" x="43.279249" y="46.564722"/>
<use xlink:href="#glyph-1-12" x="48.238791" y="46.564722"/>
<use xlink:href="#glyph-1-11" x="56.504365" y="46.564722"/>
<use xlink:href="#glyph-1-22" x="62.015409" y="46.564722"/>
<use xlink:href="#glyph-1-3" x="67.526452" y="46.564722"/>
<use xlink:href="#glyph-1-7" x="71.383985" y="46.564722"/>
</g>
<g fill="rgb(0%, 0%, 0%)" fill-opacity="1">
<use xlink:href="#glyph-1-23" x="79.095081" y="46.564722"/>
<use xlink:href="#glyph-1-24" x="86.258645" y="46.564722"/>
</g>
<g fill="rgb(0%, 0%, 0%)" fill-opacity="1">
<use xlink:href="#glyph-1-4" x="97.148808" y="46.564722"/>
<use xlink:href="#glyph-1-14" x="102.108351" y="46.564722"/>
<use xlink:href="#glyph-1-15" x="107.619395" y="46.564722"/>
</g>
<g fill="rgb(0%, 0%, 0%)" fill-opacity="1">
<use xlink:href="#glyph-1-4" x="112.299219" y="46.564722"/>
<use xlink:href="#glyph-1-1" x="117.258762" y="46.564722"/>
</g>
<g fill="rgb(0%, 0%, 0%)" fill-opacity="1">
<use xlink:href="#glyph-1-3" x="122.492071" y="46.564722"/>
<use xlink:href="#glyph-1-4" x="126.349603" y="46.564722"/>
<use xlink:href="#glyph-1-16" x="131.309146" y="46.564722"/>
<use xlink:href="#glyph-1-7" x="136.268689" y="46.564722"/>
<use xlink:href="#glyph-1-13" x="140.67673" y="46.564722"/>
</g>
<g fill="rgb(0%, 0%, 0%)" fill-opacity="1">
<use xlink:href="#glyph-2-7" x="147.901792" y="46.564722"/>
</g>
<g fill="rgb(0%, 0%, 0%)" fill-opacity="1">
<use xlink:href="#glyph-6-2" x="152.682618" y="42.965511"/>
<use xlink:href="#glyph-6-3" x="158.344912" y="42.965511"/>
</g>
<g fill="rgb(0%, 0%, 0%)" fill-opacity="1">
<use xlink:href="#glyph-5-0" x="152.307265" y="49.016964"/>
</g>
<g fill="rgb(0%, 0%, 0%)" fill-opacity="1">
<use xlink:href="#glyph-4-2" x="167.568315" y="46.564722"/>
</g>
<g fill="rgb(0%, 0%, 0%)" fill-opacity="1">
<use xlink:href="#glyph-2-5" x="180.244906" y="46.564722"/>
</g>
<g fill="rgb(0%, 0%, 0%)" fill-opacity="1">
<use xlink:href="#glyph-5-0" x="184.718079" y="48.053192"/>
</g>
<g fill="rgb(0%, 0%, 0%)" fill-opacity="1">
<use xlink:href="#glyph-1-25" x="190.414091" y="46.564722"/>
</g>
<g fill="rgb(0%, 0%, 0%)" fill-opacity="1">
<use xlink:href="#glyph-2-8" x="200.331192" y="46.564722"/>
</g>
<g fill="rgb(0%, 0%, 0%)" fill-opacity="1">
<use xlink:href="#glyph-2-9" x="206.021772" y="46.564722"/>
</g>
<g fill="rgb(0%, 0%, 0%)" fill-opacity="1">
<use xlink:href="#glyph-5-2" x="211.806244" y="48.053192"/>
</g>
<g fill="rgb(0%, 0%, 0%)" fill-opacity="1">
<use xlink:href="#glyph-1-18" x="217.071147" y="46.564722"/>
</g>
<g fill="rgb(0%, 0%, 0%)" fill-opacity="1">
<use xlink:href="#glyph-2-2" x="220.928679" y="46.564722"/>
</g>
<g fill="rgb(0%, 0%, 0%)" fill-opacity="1">
<use xlink:href="#glyph-5-0" x="225.578824" y="48.053192"/>
</g>
<g fill="rgb(0%, 0%, 0%)" fill-opacity="1">
<use xlink:href="#glyph-6-0" x="228.57557" y="48.053192"/>
<use xlink:href="#glyph-6-1" x="234.664879" y="48.053192"/>
</g>
<g fill="rgb(0%, 0%, 0%)" fill-opacity="1">
<use xlink:href="#glyph-1-19" x="239.114444" y="46.564722"/>
</g>
<g fill="rgb(0%, 0%, 0%)" fill-opacity="1">
<use xlink:href="#glyph-4-3" x="245.174013" y="46.564722"/>
</g>
<g fill="rgb(0%, 0%, 0%)" fill-opacity="1">
<use xlink:href="#glyph-2-9" x="255.091114" y="46.564722"/>
</g>
<g fill="rgb(0%, 0%, 0%)" fill-opacity="1">
<use xlink:href="#glyph-5-2" x="260.880954" y="48.053192"/>
</g>
<g fill="rgb(0%, 0%, 0%)" fill-opacity="1">
<use xlink:href="#glyph-1-18" x="266.145857" y="46.564722"/>
</g>
<g fill="rgb(0%, 0%, 0%)" fill-opacity="1">
<use xlink:href="#glyph-2-2" x="270.00339" y="46.564722"/>
</g>
<g fill="rgb(0%, 0%, 0%)" fill-opacity="1">
<use xlink:href="#glyph-5-0" x="274.653534" y="48.053192"/>
</g>
<g fill="rgb(0%, 0%, 0%)" fill-opacity="1">
<use xlink:href="#glyph-1-19" x="278.145217" y="46.564722"/>
</g>
<g fill="rgb(0%, 0%, 0%)" fill-opacity="1">
<use xlink:href="#glyph-0-5" x="9.719793" y="58.4685"/>
<use xlink:href="#glyph-0-1" x="13.935811" y="58.4685"/>
</g>
<g fill="rgb(0%, 0%, 0%)" fill-opacity="1">
<use xlink:href="#glyph-1-26" x="36.115685" y="58.4685"/>
<use xlink:href="#glyph-1-11" x="43.554999" y="58.4685"/>
</g>
<g fill="rgb(0%, 0%, 0%)" fill-opacity="1">
<use xlink:href="#glyph-1-14" x="49.343777" y="58.4685"/>
<use xlink:href="#glyph-1-4" x="54.854821" y="58.4685"/>
<use xlink:href="#glyph-1-3" x="59.814364" y="58.4685"/>
<use xlink:href="#glyph-1-7" x="63.671896" y="58.4685"/>
</g>
<g fill="rgb(0%, 0%, 0%)" fill-opacity="1">
<use xlink:href="#glyph-1-8" x="71.382993" y="58.4685"/>
<use xlink:href="#glyph-1-10" x="75.791034" y="58.4685"/>
<use xlink:href="#glyph-1-2" x="79.67634" y="58.4685"/>
<use xlink:href="#glyph-1-3" x="82.431862" y="58.4685"/>
<use xlink:href="#glyph-1-2" x="86.289394" y="58.4685"/>
<use xlink:href="#glyph-1-8" x="89.044916" y="58.4685"/>
<use xlink:href="#glyph-1-27" x="93.452957" y="58.4685"/>
</g>
<g fill="rgb(0%, 0%, 0%)" fill-opacity="1">
<use xlink:href="#glyph-2-1" x="100.612553" y="58.4685"/>
</g>
<g fill="rgb(0%, 0%, 0%)" fill-opacity="1">
<use xlink:href="#glyph-4-2" x="109.27985" y="58.4685"/>
</g>
<g fill="rgb(0%, 0%, 0%)" fill-opacity="1">
<use xlink:href="#glyph-2-1" x="121.956441" y="58.4685"/>
</g>
<g fill="rgb(0%, 0%, 0%)" fill-opacity="1">
<use xlink:href="#glyph-4-3" x="130.068268" y="58.4685"/>
</g>
<g fill="rgb(0%, 0%, 0%)" fill-opacity="1">
<use xlink:href="#glyph-2-10" x="139.995289" y="58.4685"/>
</g>
<g fill="rgb(0%, 0%, 0%)" fill-opacity="1">
<use xlink:href="#glyph-5-2" x="146.336459" y="59.955974"/>
</g>
<g fill="rgb(0%, 0%, 0%)" fill-opacity="1">
<use xlink:href="#glyph-4-4" x="151.601362" y="58.4685"/>
</g>
<g fill="rgb(0%, 0%, 0%)" fill-opacity="1">
<use xlink:href="#glyph-5-2" x="159.8671" y="59.955974"/>
</g>
<g fill="rgb(0%, 0%, 0%)" fill-opacity="1">
<use xlink:href="#glyph-7-0" x="166.785748" y="51.029136"/>
</g>
<g fill="rgb(0%, 0%, 0%)" fill-opacity="1">
<use xlink:href="#glyph-5-0" x="177.255816" y="61.443449"/>
</g>
<g fill="rgb(0%, 0%, 0%)" fill-opacity="1">
<use xlink:href="#glyph-1-18" x="180.748494" y="58.4685"/>
</g>
<g fill="rgb(0%, 0%, 0%)" fill-opacity="1">
<use xlink:href="#glyph-2-7" x="184.606026" y="58.4685"/>
</g>
<g fill="rgb(0%, 0%, 0%)" fill-opacity="1">
<use xlink:href="#glyph-6-2" x="189.389586" y="54.868294"/>
<use xlink:href="#glyph-6-3" x="195.051879" y="54.868294"/>
</g>
<g fill="rgb(0%, 0%, 0%)" fill-opacity="1">
<use xlink:href="#glyph-5-0" x="189.014232" y="60.920742"/>
</g>
<g fill="rgb(0%, 0%, 0%)" fill-opacity="1">
<use xlink:href="#glyph-1-19" x="201.520368" y="58.4685"/>
</g>
<g fill="rgb(0%, 0%, 0%)" fill-opacity="1">
<use xlink:href="#glyph-6-4" x="205.377447" y="54.868294"/>
</g>
<g fill="rgb(0%, 0%, 0%)" fill-opacity="1">
<use xlink:href="#glyph-2-11" x="229.008777" y="58.4685"/>
</g>
<g fill="rgb(0%, 0%, 0%)" fill-opacity="1">
<use xlink:href="#glyph-1-20" x="237.271375" y="58.4685"/>
</g>
<g fill="rgb(0%, 0%, 0%)" fill-opacity="1">
<use xlink:href="#glyph-1-9" x="243.060153" y="58.4685"/>
</g>
<g fill="rgb(0%, 0%, 0%)" fill-opacity="1">
<use xlink:href="#glyph-1-9" x="248.29743" y="58.4685"/>
<use xlink:href="#glyph-1-3" x="253.256973" y="58.4685"/>
<use xlink:href="#glyph-1-13" x="257.114505" y="58.4685"/>
<use xlink:href="#glyph-1-3" x="261.026592" y="58.4685"/>
<use xlink:href="#glyph-1-10" x="264.884124" y="58.4685"/>
<use xlink:href="#glyph-1-4" x="268.76943" y="58.4685"/>
<use xlink:href="#glyph-1-11" x="273.728973" y="58.4685"/>
</g>
<g fill="rgb(0%, 0%, 0%)" fill-opacity="1">
<use xlink:href="#glyph-1-3" x="282.543072" y="58.4685"/>
<use xlink:href="#glyph-1-4" x="286.400604" y="58.4685"/>
<use xlink:href="#glyph-1-10" x="291.360147" y="58.4685"/>
<use xlink:href="#glyph-1-16" x="295.245452" y="58.4685"/>
<use xlink:href="#glyph-1-7" x="300.204995" y="58.4685"/>
<use xlink:href="#glyph-1-3" x="304.613036" y="58.4685"/>
</g>
<g fill="rgb(0%, 0%, 0%)" fill-opacity="1">
<use xlink:href="#glyph-1-28" x="311.773624" y="58.4685"/>
<use xlink:href="#glyph-1-7" x="317.284668" y="58.4685"/>
<use xlink:href="#glyph-1-5" x="321.692709" y="58.4685"/>
<use xlink:href="#glyph-1-14" x="324.448231" y="58.4685"/>
</g>
<g fill="rgb(0%, 0%, 0%)" fill-opacity="1">
<use xlink:href="#glyph-1-8" x="333.272249" y="58.4685"/>
<use xlink:href="#glyph-1-9" x="337.680291" y="58.4685"/>
<use xlink:href="#glyph-1-1" x="342.639833" y="58.4685"/>
<use xlink:href="#glyph-1-13" x="348.150877" y="58.4685"/>
<use xlink:href="#glyph-1-3" x="352.062964" y="58.4685"/>
<use xlink:href="#glyph-1-4" x="355.920496" y="58.4685"/>
<use xlink:href="#glyph-1-1" x="360.880039" y="58.4685"/>
</g>
<g fill="rgb(0%, 0%, 0%)" fill-opacity="1">
<use xlink:href="#glyph-1-3" x="366.113348" y="58.4685"/>
</g>
<g fill="rgb(0%, 0%, 0%)" fill-opacity="1">
<use xlink:href="#glyph-0-6" x="9.719793" y="70.371283"/>
<use xlink:href="#glyph-0-1" x="13.935811" y="70.371283"/>
</g>
<g fill="rgb(0%, 0%, 0%)" fill-opacity="1">
<use xlink:href="#glyph-1-26" x="36.115685" y="70.371283"/>
<use xlink:href="#glyph-1-11" x="43.554999" y="70.371283"/>
</g>
<g fill="rgb(0%, 0%, 0%)" fill-opacity="1">
<use xlink:href="#glyph-1-14" x="49.343777" y="70.371283"/>
<use xlink:href="#glyph-1-4" x="54.854821" y="70.371283"/>
<use xlink:href="#glyph-1-3" x="59.814364" y="70.371283"/>
<use xlink:href="#glyph-1-7" x="63.671896" y="70.371283"/>
</g>
<g fill="rgb(0%, 0%, 0%)" fill-opacity="1">
<use xlink:href="#glyph-1-4" x="71.382993" y="70.371283"/>
<use xlink:href="#glyph-1-8" x="76.342535" y="70.371283"/>
<use xlink:href="#glyph-1-3" x="80.750577" y="70.371283"/>
<use xlink:href="#glyph-1-9" x="84.608109" y="70.371283"/>
<use xlink:href="#glyph-1-10" x="89.567652" y="70.371283"/>
<use xlink:href="#glyph-1-27" x="93.452957" y="70.371283"/>
</g>
<g fill="rgb(0%, 0%, 0%)" fill-opacity="1">
<use xlink:href="#glyph-2-0" x="100.612553" y="70.371283"/>
</g>
<g fill="rgb(0%, 0%, 0%)" fill-opacity="1">
<use xlink:href="#glyph-4-2" x="108.303812" y="70.371283"/>
</g>
<g fill="rgb(0%, 0%, 0%)" fill-opacity="1">
<use xlink:href="#glyph-2-0" x="120.980403" y="70.371283"/>
</g>
<g fill="rgb(0%, 0%, 0%)" fill-opacity="1">
<use xlink:href="#glyph-1-25" x="128.116192" y="70.371283"/>
</g>
<g fill="rgb(0%, 0%, 0%)" fill-opacity="1">
<use xlink:href="#glyph-2-10" x="138.033294" y="70.371283"/>
</g>
<g fill="rgb(0%, 0%, 0%)" fill-opacity="1">
<use xlink:href="#glyph-5-1" x="144.380041" y="71.858757"/>
</g>
<g fill="rgb(0%, 0%, 0%)" fill-opacity="1">
<use xlink:href="#glyph-7-0" x="150.520105" y="62.931919"/>
</g>
<g fill="rgb(0%, 0%, 0%)" fill-opacity="1">
<use xlink:href="#glyph-5-0" x="160.991169" y="73.347227"/>
</g>
<g fill="rgb(0%, 0%, 0%)" fill-opacity="1">
<use xlink:href="#glyph-2-7" x="166.136596" y="70.371283"/>
</g>
<g fill="rgb(0%, 0%, 0%)" fill-opacity="1">
<use xlink:href="#glyph-6-2" x="170.920609" y="66.771077"/>
<use xlink:href="#glyph-6-3" x="176.582902" y="66.771077"/>
</g>
<g fill="rgb(0%, 0%, 0%)" fill-opacity="1">
<use xlink:href="#glyph-5-0" x="170.545255" y="72.823525"/>
</g>
<g fill="rgb(0%, 0%, 0%)" fill-opacity="1">
<use xlink:href="#glyph-4-4" x="184.70414" y="70.371283"/>
</g>
<g fill="rgb(0%, 0%, 0%)" fill-opacity="1">
<use xlink:href="#glyph-5-1" x="192.969879" y="71.858757"/>
</g>
<g fill="rgb(0%, 0%, 0%)" fill-opacity="1">
<use xlink:href="#glyph-1-5" x="199.110938" y="70.371283"/>
<use xlink:href="#glyph-1-9" x="201.86646" y="70.371283"/>
<use xlink:href="#glyph-1-16" x="206.826003" y="70.371283"/>
</g>
<g fill="rgb(0%, 0%, 0%)" fill-opacity="1">
<use xlink:href="#glyph-2-6" x="213.570981" y="70.371283"/>
</g>
<g fill="rgb(0%, 0%, 0%)" fill-opacity="1">
<use xlink:href="#glyph-5-1" x="219.229678" y="71.858757"/>
</g>
<g fill="rgb(0%, 0%, 0%)" fill-opacity="1">
<use xlink:href="#glyph-1-18" x="223.717988" y="70.371283"/>
</g>
<g fill="rgb(0%, 0%, 0%)" fill-opacity="1">
<use xlink:href="#glyph-2-4" x="227.57552" y="70.371283"/>
</g>
<g fill="rgb(0%, 0%, 0%)" fill-opacity="1">
<use xlink:href="#glyph-5-0" x="232.818066" y="71.858757"/>
</g>
<g fill="rgb(0%, 0%, 0%)" fill-opacity="1">
<use xlink:href="#glyph-4-5" x="239.065658" y="70.371283"/>
</g>
<g fill="rgb(0%, 0%, 0%)" fill-opacity="1">
<use xlink:href="#glyph-2-2" x="244.578685" y="70.371283"/>
</g>
<g fill="rgb(0%, 0%, 0%)" fill-opacity="1">
<use xlink:href="#glyph-5-0" x="249.226084" y="71.858757"/>
</g>
<g fill="rgb(0%, 0%, 0%)" fill-opacity="1">
<use xlink:href="#glyph-1-19" x="252.718762" y="70.371283"/>
</g>
<g fill="rgb(0%, 0%, 0%)" fill-opacity="1">
<use xlink:href="#glyph-0-7" x="9.719793" y="82.274066"/>
<use xlink:href="#glyph-0-1" x="13.935811" y="82.274066"/>
</g>
<g fill="rgb(0%, 0%, 0%)" fill-opacity="1">
<use xlink:href="#glyph-3-4" x="21.237058" y="82.274066"/>
<use xlink:href="#glyph-3-7" x="26.465407" y="82.274066"/>
<use xlink:href="#glyph-3-5" x="32.802711" y="82.274066"/>
</g>
<g fill="rgb(0%, 0%, 0%)" fill-opacity="1">
<use xlink:href="#glyph-3-0" x="42.44307" y="82.274066"/>
<use xlink:href="#glyph-3-1" x="50.681862" y="82.274066"/>
<use xlink:href="#glyph-3-2" x="57.019165" y="82.274066"/>
<use xlink:href="#glyph-3-3" x="60.187321" y="82.274066"/>
<use xlink:href="#glyph-3-4" x="63.355477" y="82.274066"/>
</g>
</svg>
