<?xml version="1.0" encoding="UTF-8"?>
<svg xmlns="http://www.w3.org/2000/svg" xmlns:xlink="http://www.w3.org/1999/xlink" width="375.171pt" height="74.664pt" viewBox="0 0 375.171 74.664">
<defs>
<g>
<g id="glyph-0-0">
<path d="M 2.5 -5.0625 C 2.5 -5.265625 2.46875 -5.28125 2.265625 -5.28125 C 1.9375 -4.953125 1.515625 -4.765625 0.765625 -4.765625 L 0.765625 -4.515625 C 0.96875 -4.515625 1.40625 -4.515625 1.859375 -4.71875 L 1.859375 -0.65625 C 1.859375 -0.359375 1.84375 -0.265625 1.09375 -0.265625 L 0.8125 -0.265625 L 0.8125 0 C 1.140625 -0.03125 1.8125 -0.03125 2.171875 -0.03125 C 2.53125 -0.03125 3.21875 -0.03125 3.546875 0 L 3.546875 -0.265625 L 3.265625 -0.265625 C 2.515625 -0.265625 2.5 -0.359375 2.5 -0.65625 Z M 2.5 -5.0625 "/>
</g>
<g id="glyph-0-1">
<path d="M 1.609375 -2.96875 C 1.609375 -3.25 1.390625 -3.421875 1.171875 -3.421875 C 0.90625 -3.421875 0.734375 -3.203125 0.734375 -2.984375 C 0.734375 -2.71875 0.9375 -2.546875 1.171875 -2.546875 C 1.4375 -2.546875 1.609375 -2.75 1.609375 -2.96875 Z M 1.609375 -0.4375 C 1.609375 -0.703125 1.390625 -0.875 1.171875 -0.875 C 0.90625 -0.875 0.734375 -0.671875 0.734375 -0.4375 C 0.734375 -0.171875 0.9375 0 1.171875 0 C 1.4375 0 1.609375 -0.21875 1.609375 -0.4375 Z M 1.609375 -0.4375 "/>
</g>
<g id="glyph-0-2">
<path d="M 2.234375 -1.625 C 2.359375 -1.734375 2.703125 -2 2.828125 -2.109375 C 3.3125 -2.5625 3.78125 -3 3.78125 -3.71875 C 3.78125 -4.671875 3 -5.28125 2 -5.28125 C 1.046875 -5.28125 0.421875 -4.5625 0.421875 -3.84375 C 0.421875 -3.453125 0.734375 -3.40625 0.84375 -3.40625 C 1.015625 -3.40625 1.25 -3.53125 1.25 -3.828125 C 1.25 -4.234375 0.859375 -4.234375 0.765625 -4.234375 C 0.984375 -4.8125 1.53125 -5.015625 1.90625 -5.015625 C 2.65625 -5.015625 3.03125 -4.390625 3.03125 -3.71875 C 3.03125 -2.890625 2.453125 -2.296875 1.515625 -1.328125 L 0.515625 -0.296875 C 0.421875 -0.21875 0.421875 -0.203125 0.421875 0 L 3.5625 0 L 3.78125 -1.421875 L 3.546875 -1.421875 C 3.515625 -1.265625 3.453125 -0.859375 3.359375 -0.71875 C 3.3125 -0.65625 2.703125 -0.65625 2.578125 -0.65625 L 1.171875 -0.65625 Z M 2.234375 -1.625 "/>
</g>
<g id="glyph-0-3">
<path d="M 2.015625 -2.65625 C 2.640625 -2.65625 3.03125 -2.1875 3.03125 -1.359375 C 3.03125 -0.359375 2.46875 -0.078125 2.046875 -0.078125 C 1.609375 -0.078125 1.015625 -0.234375 0.734375 -0.65625 C 1.03125 -0.65625 1.21875 -0.828125 1.21875 -1.09375 C 1.21875 -1.34375 1.046875 -1.53125 0.78125 -1.53125 C 0.578125 -1.53125 0.34375 -1.390625 0.34375 -1.078125 C 0.34375 -0.328125 1.15625 0.171875 2.0625 0.171875 C 3.125 0.171875 3.859375 -0.5625 3.859375 -1.359375 C 3.859375 -2.015625 3.328125 -2.625 2.53125 -2.796875 C 3.15625 -3.015625 3.625 -3.5625 3.625 -4.1875 C 3.625 -4.828125 2.90625 -5.28125 2.078125 -5.28125 C 1.234375 -5.28125 0.59375 -4.8125 0.59375 -4.21875 C 0.59375 -3.921875 0.78125 -3.796875 0.984375 -3.796875 C 1.234375 -3.796875 1.390625 -3.96875 1.390625 -4.203125 C 1.390625 -4.5 1.140625 -4.609375 0.96875 -4.609375 C 1.296875 -5.046875 1.90625 -5.078125 2.0625 -5.078125 C 2.265625 -5.078125 2.859375 -5.015625 2.859375 -4.1875 C 2.859375 -3.640625 2.640625 -3.296875 2.53125 -3.171875 C 2.28125 -2.921875 2.109375 -2.90625 1.625 -2.875 C 1.46875 -2.875 1.40625 -2.859375 1.40625 -2.765625 C 1.40625 -2.65625 1.46875 -2.65625 1.609375 -2.65625 Z M 2.015625 -2.65625 "/>
</g>
<g id="glyph-0-4">
<path d="M 3.125 -5.140625 C 3.125 -5.296875 3.125 -5.359375 2.953125 -5.359375 C 2.859375 -5.359375 2.84375 -5.34375 2.765625 -5.234375 L 0.234375 -1.5625 L 0.234375 -1.296875 L 2.46875 -1.296875 L 2.46875 -0.640625 C 2.46875 -0.34375 2.453125 -0.265625 1.84375 -0.265625 L 1.65625 -0.265625 L 1.65625 0 C 2.328125 -0.03125 2.34375 -0.03125 2.796875 -0.03125 C 3.25 -0.03125 3.265625 -0.03125 3.9375 0 L 3.9375 -0.265625 L 3.765625 -0.265625 C 3.15625 -0.265625 3.125 -0.34375 3.125 -0.640625 L 3.125 -1.296875 L 3.96875 -1.296875 L 3.96875 -1.5625 L 3.125 -1.5625 Z M 2.53125 -4.5 L 2.53125 -1.5625 L 0.515625 -1.5625 Z M 2.53125 -4.5 "/>
</g>
<g id="glyph-0-5">
<path d="M 1.109375 -4.453125 C 1.21875 -4.421875 1.53125 -4.34375 1.859375 -4.34375 C 2.859375 -4.34375 3.453125 -5.046875 3.453125 -5.171875 C 3.453125 -5.25 3.40625 -5.28125 3.359375 -5.28125 C 3.34375 -5.28125 3.328125 -5.28125 3.265625 -5.234375 C 2.953125 -5.125 2.59375 -5.03125 2.15625 -5.03125 C 1.6875 -5.03125 1.296875 -5.140625 1.0625 -5.234375 C 0.96875 -5.28125 0.953125 -5.28125 0.953125 -5.28125 C 0.84375 -5.28125 0.84375 -5.1875 0.84375 -5.046875 L 0.84375 -2.71875 C 0.84375 -2.578125 0.84375 -2.484375 0.96875 -2.484375 C 1.046875 -2.484375 1.0625 -2.515625 1.109375 -2.578125 C 1.203125 -2.703125 1.5 -3.109375 2.171875 -3.109375 C 2.625 -3.109375 2.828125 -2.734375 2.90625 -2.59375 C 3.046875 -2.296875 3.0625 -1.9375 3.0625 -1.625 C 3.0625 -1.328125 3.046875 -0.90625 2.828125 -0.5625 C 2.671875 -0.3125 2.359375 -0.078125 1.9375 -0.078125 C 1.421875 -0.078125 0.90625 -0.390625 0.734375 -0.90625 C 0.75 -0.90625 0.796875 -0.90625 0.8125 -0.90625 C 1.03125 -0.90625 1.203125 -1.046875 1.203125 -1.296875 C 1.203125 -1.59375 0.96875 -1.6875 0.8125 -1.6875 C 0.671875 -1.6875 0.421875 -1.609375 0.421875 -1.265625 C 0.421875 -0.5625 1.046875 0.171875 1.953125 0.171875 C 2.9375 0.171875 3.78125 -0.609375 3.78125 -1.59375 C 3.78125 -2.515625 3.125 -3.328125 2.1875 -3.328125 C 1.78125 -3.328125 1.40625 -3.203125 1.109375 -2.921875 Z M 1.109375 -4.453125 "/>
</g>
<g id="glyph-0-6">
<path d="M 1.09375 -2.625 C 1.09375 -3.28125 1.15625 -3.859375 1.4375 -4.34375 C 1.671875 -4.75 2.078125 -5.078125 2.578125 -5.078125 C 2.734375 -5.078125 3.109375 -5.046875 3.28125 -4.765625 C 2.921875 -4.75 2.890625 -4.484375 2.890625 -4.390625 C 2.890625 -4.15625 3.078125 -4.03125 3.265625 -4.03125 C 3.40625 -4.03125 3.640625 -4.109375 3.640625 -4.40625 C 3.640625 -4.890625 3.28125 -5.28125 2.578125 -5.28125 C 1.46875 -5.28125 0.34375 -4.234375 0.34375 -2.515625 C 0.34375 -0.359375 1.34375 0.171875 2.125 0.171875 C 2.5 0.171875 2.90625 0.0625 3.265625 -0.28125 C 3.59375 -0.59375 3.859375 -0.921875 3.859375 -1.609375 C 3.859375 -2.65625 3.078125 -3.375 2.1875 -3.375 C 1.625 -3.375 1.28125 -3.015625 1.09375 -2.625 Z M 2.125 -0.078125 C 1.703125 -0.078125 1.4375 -0.359375 1.3125 -0.59375 C 1.140625 -0.9375 1.125 -1.484375 1.125 -1.78125 C 1.125 -2.578125 1.546875 -3.15625 2.15625 -3.15625 C 2.5625 -3.15625 2.796875 -2.953125 2.9375 -2.671875 C 3.109375 -2.375 3.109375 -2.03125 3.109375 -1.625 C 3.109375 -1.21875 3.109375 -0.859375 2.953125 -0.578125 C 2.75 -0.21875 2.46875 -0.078125 2.125 -0.078125 Z M 2.125 -0.078125 "/>
</g>
<g id="glyph-1-0">
<path d="M 1.65625 -3.296875 L 1.65625 -4.390625 L 0.28125 -4.28125 L 0.28125 -3.96875 C 0.96875 -3.96875 1.046875 -3.90625 1.046875 -3.40625 L 1.046875 -0.75 C 1.046875 -0.3125 0.9375 -0.3125 0.28125 -0.3125 L 0.28125 0 C 0.671875 -0.015625 1.125 -0.03125 1.40625 -0.03125 C 1.8125 -0.03125 2.265625 -0.03125 2.671875 0 L 2.671875 -0.3125 L 2.453125 -0.3125 C 1.71875 -0.3125 1.703125 -0.421875 1.703125 -0.78125 L 1.703125 -2.296875 C 1.703125 -3.28125 2.125 -4.171875 2.875 -4.171875 C 2.953125 -4.171875 2.96875 -4.171875 2.984375 -4.15625 C 2.953125 -4.140625 2.765625 -4.03125 2.765625 -3.765625 C 2.765625 -3.5 2.96875 -3.34375 3.1875 -3.34375 C 3.359375 -3.34375 3.609375 -3.46875 3.609375 -3.78125 C 3.609375 -4.09375 3.296875 -4.390625 2.875 -4.390625 C 2.15625 -4.390625 1.796875 -3.71875 1.65625 -3.296875 Z M 1.65625 -3.296875 "/>
</g>
<g id="glyph-1-1">
<path d="M 3.875 -0.78125 L 3.875 0.109375 L 5.3125 0 L 5.3125 -0.3125 C 4.609375 -0.3125 4.53125 -0.375 4.53125 -0.859375 L 4.53125 -4.390625 L 3.078125 -4.28125 L 3.078125 -3.96875 C 3.765625 -3.96875 3.84375 -3.90625 3.84375 -3.40625 L 3.84375 -1.640625 C 3.84375 -0.78125 3.375 -0.109375 2.65625 -0.109375 C 1.8125 -0.109375 1.78125 -0.578125 1.78125 -1.09375 L 1.78125 -4.390625 L 0.3125 -4.28125 L 0.3125 -3.96875 C 1.09375 -3.96875 1.09375 -3.9375 1.09375 -3.0625 L 1.09375 -1.5625 C 1.09375 -0.796875 1.09375 0.109375 2.59375 0.109375 C 3.15625 0.109375 3.59375 -0.171875 3.875 -0.78125 Z M 3.875 -0.78125 "/>
</g>
<g id="glyph-1-2">
<path d="M 1.09375 -3.40625 L 1.09375 -0.75 C 1.09375 -0.3125 0.984375 -0.3125 0.3125 -0.3125 L 0.3125 0 C 0.671875 -0.015625 1.171875 -0.03125 1.4375 -0.03125 C 1.703125 -0.03125 2.21875 -0.015625 2.546875 0 L 2.546875 -0.3125 C 1.890625 -0.3125 1.78125 -0.3125 1.78125 -0.75 L 1.78125 -2.578125 C 1.78125 -3.609375 2.484375 -4.171875 3.109375 -4.171875 C 3.734375 -4.171875 3.84375 -3.625 3.84375 -3.0625 L 3.84375 -0.75 C 3.84375 -0.3125 3.734375 -0.3125 3.078125 -0.3125 L 3.078125 0 C 3.421875 -0.015625 3.921875 -0.03125 4.203125 -0.03125 C 4.453125 -0.03125 4.96875 -0.015625 5.3125 0 L 5.3125 -0.3125 C 4.796875 -0.3125 4.546875 -0.3125 4.53125 -0.609375 L 4.53125 -2.5 C 4.53125 -3.359375 4.53125 -3.65625 4.234375 -4.015625 C 4.09375 -4.1875 3.765625 -4.390625 3.1875 -4.390625 C 2.453125 -4.390625 2 -3.953125 1.71875 -3.34375 L 1.71875 -4.390625 L 0.3125 -4.28125 L 0.3125 -3.96875 C 1.015625 -3.96875 1.09375 -3.90625 1.09375 -3.40625 Z M 1.09375 -3.40625 "/>
</g>
<g id="glyph-1-3">
<path d="M 3.296875 -0.75 C 3.34375 -0.359375 3.609375 0.0625 4.078125 0.0625 C 4.28125 0.0625 4.890625 -0.078125 4.890625 -0.890625 L 4.890625 -1.4375 L 4.640625 -1.4375 L 4.640625 -0.890625 C 4.640625 -0.3125 4.390625 -0.25 4.28125 -0.25 C 3.953125 -0.25 3.921875 -0.6875 3.921875 -0.75 L 3.921875 -2.734375 C 3.921875 -3.140625 3.921875 -3.53125 3.5625 -3.90625 C 3.171875 -4.28125 2.671875 -4.4375 2.203125 -4.4375 C 1.390625 -4.4375 0.703125 -3.984375 0.703125 -3.328125 C 0.703125 -3.03125 0.90625 -2.859375 1.15625 -2.859375 C 1.4375 -2.859375 1.625 -3.0625 1.625 -3.3125 C 1.625 -3.4375 1.5625 -3.765625 1.109375 -3.765625 C 1.375 -4.125 1.859375 -4.234375 2.1875 -4.234375 C 2.671875 -4.234375 3.234375 -3.84375 3.234375 -2.953125 L 3.234375 -2.59375 C 2.734375 -2.5625 2.03125 -2.53125 1.40625 -2.234375 C 0.671875 -1.890625 0.421875 -1.375 0.421875 -0.9375 C 0.421875 -0.140625 1.375 0.109375 2 0.109375 C 2.65625 0.109375 3.109375 -0.28125 3.296875 -0.75 Z M 3.234375 -2.375 L 3.234375 -1.390625 C 3.234375 -0.453125 2.515625 -0.109375 2.078125 -0.109375 C 1.59375 -0.109375 1.1875 -0.453125 1.1875 -0.953125 C 1.1875 -1.5 1.59375 -2.328125 3.234375 -2.375 Z M 3.234375 -2.375 "/>
</g>
<g id="glyph-1-4">
<path d="M 1.703125 -3.734375 L 1.703125 -6.890625 L 0.28125 -6.78125 L 0.28125 -6.46875 C 0.96875 -6.46875 1.046875 -6.40625 1.046875 -5.90625 L 1.046875 0 L 1.296875 0 C 1.3125 -0.015625 1.390625 -0.15625 1.65625 -0.609375 C 1.8125 -0.390625 2.21875 0.109375 2.953125 0.109375 C 4.140625 0.109375 5.171875 -0.859375 5.171875 -2.140625 C 5.171875 -3.40625 4.203125 -4.390625 3.0625 -4.390625 C 2.296875 -4.390625 1.859375 -3.921875 1.703125 -3.734375 Z M 1.734375 -1.125 L 1.734375 -3.171875 C 1.734375 -3.359375 1.734375 -3.375 1.84375 -3.53125 C 2.234375 -4.09375 2.78125 -4.171875 3.015625 -4.171875 C 3.46875 -4.171875 3.8125 -3.90625 4.0625 -3.53125 C 4.3125 -3.125 4.34375 -2.5625 4.34375 -2.15625 C 4.34375 -1.78125 4.328125 -1.1875 4.03125 -0.75 C 3.828125 -0.4375 3.453125 -0.109375 2.921875 -0.109375 C 2.46875 -0.109375 2.109375 -0.34375 1.875 -0.71875 C 1.734375 -0.921875 1.734375 -0.953125 1.734375 -1.125 Z M 1.734375 -1.125 "/>
</g>
<g id="glyph-1-5">
<path d="M 2.0625 -1.921875 C 2.28125 -1.890625 3.09375 -1.71875 3.09375 -1.015625 C 3.09375 -0.5 2.75 -0.109375 1.96875 -0.109375 C 1.140625 -0.109375 0.78125 -0.671875 0.59375 -1.515625 C 0.5625 -1.640625 0.5625 -1.6875 0.453125 -1.6875 C 0.328125 -1.6875 0.328125 -1.625 0.328125 -1.4375 L 0.328125 -0.125 C 0.328125 0.046875 0.328125 0.109375 0.4375 0.109375 C 0.484375 0.109375 0.5 0.09375 0.6875 -0.09375 C 0.703125 -0.109375 0.703125 -0.125 0.890625 -0.3125 C 1.3125 0.09375 1.765625 0.109375 1.96875 0.109375 C 3.109375 0.109375 3.578125 -0.5625 3.578125 -1.265625 C 3.578125 -1.796875 3.28125 -2.09375 3.15625 -2.21875 C 2.828125 -2.53125 2.4375 -2.609375 2.03125 -2.6875 C 1.46875 -2.796875 0.796875 -2.921875 0.796875 -3.5 C 0.796875 -3.84375 1.0625 -4.25 1.921875 -4.25 C 3 -4.25 3.0625 -3.359375 3.078125 -3.0625 C 3.078125 -2.96875 3.171875 -2.96875 3.1875 -2.96875 C 3.328125 -2.96875 3.328125 -3.015625 3.328125 -3.203125 L 3.328125 -4.203125 C 3.328125 -4.375 3.328125 -4.4375 3.21875 -4.4375 C 3.171875 -4.4375 3.140625 -4.4375 3.015625 -4.328125 C 2.984375 -4.28125 2.890625 -4.203125 2.84375 -4.171875 C 2.46875 -4.4375 2.0625 -4.4375 1.921875 -4.4375 C 0.703125 -4.4375 0.328125 -3.78125 0.328125 -3.21875 C 0.328125 -2.875 0.484375 -2.59375 0.75 -2.375 C 1.078125 -2.125 1.34375 -2.0625 2.0625 -1.921875 Z M 2.0625 -1.921875 "/>
</g>
<g id="glyph-1-6">
<path d="M 1.109375 -2.5 C 1.171875 -3.984375 2 -4.234375 2.34375 -4.234375 C 3.359375 -4.234375 3.46875 -2.890625 3.46875 -2.5 Z M 1.09375 -2.296875 L 3.875 -2.296875 C 4.09375 -2.296875 4.125 -2.296875 4.125 -2.5 C 4.125 -3.484375 3.578125 -4.4375 2.34375 -4.4375 C 1.1875 -4.4375 0.28125 -3.421875 0.28125 -2.1875 C 0.28125 -0.859375 1.3125 0.109375 2.453125 0.109375 C 3.671875 0.109375 4.125 -0.984375 4.125 -1.1875 C 4.125 -1.28125 4.03125 -1.296875 3.984375 -1.296875 C 3.90625 -1.296875 3.875 -1.234375 3.859375 -1.15625 C 3.515625 -0.140625 2.625 -0.140625 2.515625 -0.140625 C 2.03125 -0.140625 1.625 -0.4375 1.40625 -0.796875 C 1.09375 -1.28125 1.09375 -1.9375 1.09375 -2.296875 Z M 1.09375 -2.296875 "/>
</g>
<g id="glyph-1-7">
<path d="M 1.703125 -3.734375 L 1.703125 -4.390625 L 0.28125 -4.28125 L 0.28125 -3.96875 C 0.984375 -3.96875 1.046875 -3.90625 1.046875 -3.46875 L 1.046875 1.171875 C 1.046875 1.625 0.9375 1.625 0.28125 1.625 L 0.28125 1.921875 C 0.609375 1.921875 1.125 1.890625 1.390625 1.890625 C 1.65625 1.890625 2.15625 1.921875 2.515625 1.921875 L 2.515625 1.625 C 1.84375 1.625 1.734375 1.625 1.734375 1.171875 L 1.734375 -0.578125 C 1.78125 -0.421875 2.203125 0.109375 2.953125 0.109375 C 4.140625 0.109375 5.171875 -0.859375 5.171875 -2.140625 C 5.171875 -3.40625 4.203125 -4.390625 3.09375 -4.390625 C 2.328125 -4.390625 1.90625 -3.953125 1.703125 -3.734375 Z M 1.734375 -1.125 L 1.734375 -3.34375 C 2.03125 -3.84375 2.515625 -4.140625 3.015625 -4.140625 C 3.734375 -4.140625 4.34375 -3.265625 4.34375 -2.140625 C 4.34375 -0.9375 3.65625 -0.109375 2.921875 -0.109375 C 2.515625 -0.109375 2.140625 -0.3125 1.875 -0.71875 C 1.734375 -0.921875 1.734375 -0.9375 1.734375 -1.125 Z M 1.734375 -1.125 "/>
</g>
<g id="glyph-1-8">
<path d="M 4.671875 -2.125 C 4.671875 -3.390625 3.6875 -4.4375 2.484375 -4.4375 C 1.234375 -4.4375 0.28125 -3.359375 0.28125 -2.125 C 0.28125 -0.84375 1.3125 0.109375 2.46875 0.109375 C 3.671875 0.109375 4.671875 -0.859375 4.671875 -2.125 Z M 2.484375 -0.140625 C 2.046875 -0.140625 1.625 -0.34375 1.34375 -0.796875 C 1.09375 -1.234375 1.09375 -1.84375 1.09375 -2.203125 C 1.09375 -2.59375 1.09375 -3.125 1.34375 -3.5625 C 1.609375 -4.015625 2.078125 -4.234375 2.46875 -4.234375 C 2.90625 -4.234375 3.328125 -4.015625 3.59375 -3.578125 C 3.84375 -3.15625 3.84375 -2.578125 3.84375 -2.203125 C 3.84375 -1.84375 3.84375 -1.3125 3.625 -0.875 C 3.40625 -0.421875 2.96875 -0.140625 2.484375 -0.140625 Z M 2.484375 -0.140625 "/>
</g>
<g id="glyph-1-9">
<path d="M 1.75 -6.890625 L 0.328125 -6.78125 L 0.328125 -6.46875 C 1.015625 -6.46875 1.09375 -6.40625 1.09375 -5.90625 L 1.09375 -0.75 C 1.09375 -0.3125 0.984375 -0.3125 0.328125 -0.3125 L 0.328125 0 C 0.65625 -0.015625 1.1875 -0.03125 1.421875 -0.03125 C 1.671875 -0.03125 2.15625 -0.015625 2.53125 0 L 2.53125 -0.3125 C 1.859375 -0.3125 1.75 -0.3125 1.75 -0.75 Z M 1.75 -6.890625 "/>
</g>
<g id="glyph-1-10">
<path d="M 1.75 -4.390625 L 0.359375 -4.28125 L 0.359375 -3.96875 C 1.015625 -3.96875 1.09375 -3.90625 1.09375 -3.421875 L 1.09375 -0.75 C 1.09375 -0.3125 0.984375 -0.3125 0.328125 -0.3125 L 0.328125 0 C 0.640625 -0.015625 1.1875 -0.03125 1.421875 -0.03125 C 1.765625 -0.03125 2.109375 -0.015625 2.453125 0 L 2.453125 -0.3125 C 1.796875 -0.3125 1.75 -0.359375 1.75 -0.75 Z M 1.796875 -6.109375 C 1.796875 -6.421875 1.546875 -6.640625 1.265625 -6.640625 C 0.96875 -6.640625 0.75 -6.375 0.75 -6.109375 C 0.75 -5.84375 0.96875 -5.59375 1.265625 -5.59375 C 1.546875 -5.59375 1.796875 -5.796875 1.796875 -6.109375 Z M 1.796875 -6.109375 "/>
</g>
<g id="glyph-1-11">
<path d="M 1.15625 -2.15625 C 1.15625 -3.78125 1.96875 -4.203125 2.5 -4.203125 C 2.59375 -4.203125 3.21875 -4.1875 3.5625 -3.828125 C 3.15625 -3.796875 3.09375 -3.5 3.09375 -3.375 C 3.09375 -3.109375 3.28125 -2.921875 3.546875 -2.921875 C 3.8125 -2.921875 4.015625 -3.078125 4.015625 -3.390625 C 4.015625 -4.0625 3.25 -4.4375 2.484375 -4.4375 C 1.25 -4.4375 0.34375 -3.375 0.34375 -2.140625 C 0.34375 -0.875 1.3125 0.109375 2.46875 0.109375 C 3.796875 0.109375 4.125 -1.078125 4.125 -1.1875 C 4.125 -1.28125 4.015625 -1.28125 3.984375 -1.28125 C 3.90625 -1.28125 3.875 -1.234375 3.859375 -1.1875 C 3.578125 -0.265625 2.921875 -0.140625 2.5625 -0.140625 C 2.03125 -0.140625 1.15625 -0.5625 1.15625 -2.15625 Z M 1.15625 -2.15625 "/>
</g>
<g id="glyph-1-12">
<path d="M 4.125 -3.328125 C 4.375 -3.953125 4.875 -3.96875 5.046875 -3.96875 L 5.046875 -4.28125 C 4.8125 -4.25 4.53125 -4.25 4.296875 -4.25 C 4.125 -4.25 3.65625 -4.265625 3.4375 -4.28125 L 3.4375 -3.96875 C 3.734375 -3.953125 3.90625 -3.796875 3.90625 -3.546875 C 3.90625 -3.4375 3.890625 -3.421875 3.84375 -3.296875 L 2.84375 -0.859375 L 1.734375 -3.53125 C 1.703125 -3.625 1.671875 -3.671875 1.671875 -3.703125 C 1.671875 -3.96875 2.046875 -3.96875 2.234375 -3.96875 L 2.234375 -4.28125 C 1.96875 -4.265625 1.3125 -4.25 1.15625 -4.25 C 0.890625 -4.25 0.484375 -4.25 0.1875 -4.28125 L 0.1875 -3.96875 C 0.671875 -3.96875 0.859375 -3.96875 0.984375 -3.625 L 2.484375 0 C 2.4375 0.125 2.296875 0.453125 2.234375 0.578125 C 2.015625 1.125 1.734375 1.8125 1.09375 1.8125 C 1.046875 1.8125 0.828125 1.8125 0.640625 1.640625 C 0.9375 1.59375 1.015625 1.375 1.015625 1.21875 C 1.015625 0.96875 0.828125 0.796875 0.609375 0.796875 C 0.40625 0.796875 0.1875 0.9375 0.1875 1.234375 C 0.1875 1.671875 0.609375 2.03125 1.09375 2.03125 C 1.71875 2.03125 2.140625 1.46875 2.375 0.90625 Z M 4.125 -3.328125 "/>
</g>
<g id="glyph-1-13">
<path d="M 1.90625 -3.75 C 1.90625 -4.03125 1.671875 -4.28125 1.375 -4.28125 C 1.09375 -4.28125 0.859375 -4.03125 0.859375 -3.75 C 0.859375 -3.46875 1.09375 -3.21875 1.375 -3.21875 C 1.671875 -3.21875 1.90625 -3.46875 1.90625 -3.75 Z M 1.71875 -0.109375 C 1.71875 0.171875 1.71875 0.9375 1.078125 1.671875 C 1.015625 1.75 1.015625 1.78125 1.015625 1.8125 C 1.015625 1.875 1.0625 1.921875 1.109375 1.921875 C 1.21875 1.921875 1.9375 1.125 1.9375 -0.03125 C 1.9375 -0.3125 1.921875 -1.046875 1.375 -1.046875 C 1.03125 -1.046875 0.859375 -0.78125 0.859375 -0.53125 C 0.859375 -0.265625 1.015625 0 1.375 0 C 1.421875 0 1.453125 0 1.453125 -0.015625 C 1.53125 -0.015625 1.640625 -0.046875 1.71875 -0.109375 Z M 1.71875 -0.109375 "/>
</g>
<g id="glyph-1-14">
<path d="M 1.71875 -3.96875 L 3.140625 -3.96875 L 3.140625 -4.28125 L 1.71875 -4.28125 L 1.71875 -6.109375 L 1.46875 -6.109375 C 1.453125 -5.28125 1.15625 -4.234375 0.1875 -4.1875 L 0.1875 -3.96875 L 1.03125 -3.96875 L 1.03125 -1.234375 C 1.03125 -0.015625 1.953125 0.109375 2.3125 0.109375 C 3.015625 0.109375 3.296875 -0.59375 3.296875 -1.234375 L 3.296875 -1.796875 L 3.046875 -1.796875 L 3.046875 -1.25 C 3.046875 -0.515625 2.75 -0.140625 2.375 -0.140625 C 1.71875 -0.140625 1.71875 -1.046875 1.71875 -1.203125 Z M 1.71875 -3.96875 "/>
</g>
<g id="glyph-1-15">
<path d="M 3.28125 -3.96875 C 3.734375 -3.96875 3.796875 -3.84375 3.796875 -3.4375 L 3.796875 -0.75 C 3.796875 -0.3125 3.6875 -0.3125 3.03125 -0.3125 L 3.03125 0 C 3.359375 -0.015625 3.875 -0.03125 4.125 -0.03125 C 4.375 -0.03125 4.859375 -0.015625 5.234375 0 L 5.234375 -0.3125 C 4.5625 -0.3125 4.453125 -0.3125 4.453125 -0.75 L 4.453125 -4.390625 L 3.203125 -4.3125 C 3.046875 -4.296875 3.03125 -4.28125 3.03125 -4.28125 C 3 -4.28125 2.984375 -4.28125 2.84375 -4.28125 L 1.671875 -4.28125 L 1.671875 -5.390625 C 1.671875 -6.375 2.53125 -6.78125 3.140625 -6.78125 C 3.4375 -6.78125 3.796875 -6.671875 4 -6.453125 C 3.59375 -6.421875 3.53125 -6.15625 3.53125 -6 C 3.53125 -5.671875 3.796875 -5.53125 3.984375 -5.53125 C 4.203125 -5.53125 4.4375 -5.6875 4.4375 -6 C 4.4375 -6.578125 3.890625 -7 3.15625 -7 C 2.234375 -7 1.046875 -6.484375 1.046875 -5.40625 L 1.046875 -4.28125 L 0.265625 -4.28125 L 0.265625 -3.96875 L 1.046875 -3.96875 L 1.046875 -0.75 C 1.046875 -0.3125 0.9375 -0.3125 0.28125 -0.3125 L 0.28125 0 C 0.609375 -0.015625 1.125 -0.03125 1.375 -0.03125 C 1.625 -0.03125 2.109375 -0.015625 2.484375 0 L 2.484375 -0.3125 C 1.8125 -0.3125 1.703125 -0.3125 1.703125 -0.75 L 1.703125 -3.96875 Z M 3.28125 -3.96875 "/>
</g>
<g id="glyph-1-16">
<path d="M 2.484375 -6.890625 L 1.15625 -5.53125 L 1.328125 -5.359375 L 2.484375 -6.375 L 3.625 -5.359375 L 3.796875 -5.53125 Z M 2.484375 -6.890625 "/>
</g>
<g id="glyph-1-17">
<path d="M 6.8125 -3.25 C 6.96875 -3.25 7.15625 -3.25 7.15625 -3.4375 C 7.15625 -3.640625 6.96875 -3.640625 6.828125 -3.640625 L 0.890625 -3.640625 C 0.75 -3.640625 0.5625 -3.640625 0.5625 -3.4375 C 0.5625 -3.25 0.75 -3.25 0.890625 -3.25 Z M 6.828125 -1.3125 C 6.96875 -1.3125 7.15625 -1.3125 7.15625 -1.515625 C 7.15625 -1.71875 6.96875 -1.71875 6.8125 -1.71875 L 0.890625 -1.71875 C 0.75 -1.71875 0.5625 -1.71875 0.5625 -1.515625 C 0.5625 -1.3125 0.75 -1.3125 0.890625 -1.3125 Z M 6.828125 -1.3125 "/>
</g>
<g id="glyph-1-18">
<path d="M 2.921875 -6.34375 C 2.921875 -6.59375 2.921875 -6.609375 2.6875 -6.609375 C 2.078125 -5.96875 1.203125 -5.96875 0.890625 -5.96875 L 0.890625 -5.671875 C 1.078125 -5.671875 1.671875 -5.671875 2.1875 -5.921875 L 2.1875 -0.78125 C 2.1875 -0.421875 2.15625 -0.3125 1.265625 -0.3125 L 0.9375 -0.3125 L 0.9375 0 C 1.296875 -0.03125 2.15625 -0.03125 2.546875 -0.03125 C 2.953125 -0.03125 3.8125 -0.03125 4.15625 0 L 4.15625 -0.3125 L 3.84375 -0.3125 C 2.953125 -0.3125 2.921875 -0.421875 2.921875 -0.78125 Z M 2.921875 -6.34375 "/>
</g>
<g id="glyph-1-19">
<path d="M 1.265625 -0.765625 L 2.3125 -1.78125 C 3.859375 -3.15625 4.453125 -3.6875 4.453125 -4.6875 C 4.453125 -5.8125 3.5625 -6.609375 2.34375 -6.609375 C 1.234375 -6.609375 0.5 -5.6875 0.5 -4.8125 C 0.5 -4.25 0.984375 -4.25 1.015625 -4.25 C 1.1875 -4.25 1.53125 -4.375 1.53125 -4.78125 C 1.53125 -5.046875 1.359375 -5.296875 1.015625 -5.296875 C 0.9375 -5.296875 0.90625 -5.296875 0.890625 -5.28125 C 1.109375 -5.9375 1.640625 -6.296875 2.21875 -6.296875 C 3.125 -6.296875 3.546875 -5.5 3.546875 -4.6875 C 3.546875 -3.890625 3.0625 -3.109375 2.515625 -2.484375 L 0.609375 -0.359375 C 0.5 -0.265625 0.5 -0.234375 0.5 0 L 4.171875 0 L 4.453125 -1.71875 L 4.203125 -1.71875 C 4.15625 -1.421875 4.09375 -0.984375 3.984375 -0.84375 C 3.921875 -0.765625 3.265625 -0.765625 3.046875 -0.765625 Z M 1.265625 -0.765625 "/>
</g>
<g id="glyph-1-20">
<path d="M 1.09375 -0.75 C 1.09375 -0.3125 0.984375 -0.3125 0.3125 -0.3125 L 0.3125 0 C 0.671875 -0.015625 1.171875 -0.03125 1.4375 -0.03125 C 1.703125 -0.03125 2.21875 -0.015625 2.546875 0 L 2.546875 -0.3125 C 1.890625 -0.3125 1.78125 -0.3125 1.78125 -0.75 L 1.78125 -2.578125 C 1.78125 -3.609375 2.484375 -4.171875 3.109375 -4.171875 C 3.734375 -4.171875 3.84375 -3.625 3.84375 -3.0625 L 3.84375 -0.75 C 3.84375 -0.3125 3.734375 -0.3125 3.078125 -0.3125 L 3.078125 0 C 3.421875 -0.015625 3.921875 -0.03125 4.203125 -0.03125 C 4.453125 -0.03125 4.96875 -0.015625 5.3125 0 L 5.3125 -0.3125 C 4.796875 -0.3125 4.546875 -0.3125 4.53125 -0.609375 L 4.53125 -2.5 C 4.53125 -3.359375 4.53125 -3.65625 4.234375 -4.015625 C 4.09375 -4.1875 3.765625 -4.390625 3.1875 -4.390625 C 2.34375 -4.390625 1.921875 -3.796875 1.75 -3.40625 L 1.75 -6.890625 L 0.3125 -6.78125 L 0.3125 -6.46875 C 1.015625 -6.46875 1.09375 -6.40625 1.09375 -5.90625 Z M 1.09375 -0.75 "/>
</g>
<g id="glyph-1-21">
<path d="M 2.203125 -1.703125 C 1.34375 -1.703125 1.34375 -2.703125 1.34375 -2.921875 C 1.34375 -3.1875 1.34375 -3.515625 1.5 -3.765625 C 1.578125 -3.875 1.8125 -4.15625 2.203125 -4.15625 C 3.0625 -4.15625 3.0625 -3.171875 3.0625 -2.9375 C 3.0625 -2.671875 3.0625 -2.34375 2.90625 -2.109375 C 2.828125 -1.984375 2.59375 -1.703125 2.203125 -1.703125 Z M 1.046875 -1.3125 C 1.046875 -1.359375 1.046875 -1.59375 1.21875 -1.78125 C 1.609375 -1.515625 2.015625 -1.484375 2.203125 -1.484375 C 3.125 -1.484375 3.8125 -2.15625 3.8125 -2.921875 C 3.8125 -3.296875 3.65625 -3.65625 3.40625 -3.890625 C 3.765625 -4.234375 4.125 -4.28125 4.296875 -4.28125 C 4.3125 -4.28125 4.359375 -4.28125 4.390625 -4.265625 C 4.28125 -4.234375 4.234375 -4.125 4.234375 -4 C 4.234375 -3.828125 4.359375 -3.703125 4.53125 -3.703125 C 4.625 -3.703125 4.8125 -3.78125 4.8125 -4.015625 C 4.8125 -4.171875 4.6875 -4.5 4.3125 -4.5 C 4.109375 -4.5 3.671875 -4.4375 3.25 -4.03125 C 2.84375 -4.359375 2.421875 -4.390625 2.203125 -4.390625 C 1.28125 -4.390625 0.59375 -3.703125 0.59375 -2.9375 C 0.59375 -2.5 0.8125 -2.125 1.0625 -1.921875 C 0.9375 -1.765625 0.75 -1.4375 0.75 -1.09375 C 0.75 -0.78125 0.890625 -0.40625 1.1875 -0.203125 C 0.59375 -0.046875 0.28125 0.390625 0.28125 0.78125 C 0.28125 1.5 1.265625 2.046875 2.46875 2.046875 C 3.640625 2.046875 4.671875 1.53125 4.671875 0.765625 C 4.671875 0.421875 4.53125 -0.09375 4.03125 -0.359375 C 3.5 -0.640625 2.921875 -0.640625 2.328125 -0.640625 C 2.078125 -0.640625 1.640625 -0.640625 1.578125 -0.65625 C 1.265625 -0.6875 1.046875 -1 1.046875 -1.3125 Z M 2.484375 1.8125 C 1.484375 1.8125 0.796875 1.3125 0.796875 0.78125 C 0.796875 0.328125 1.171875 -0.046875 1.609375 -0.0625 L 2.1875 -0.0625 C 3.046875 -0.0625 4.15625 -0.0625 4.15625 0.78125 C 4.15625 1.3125 3.453125 1.8125 2.484375 1.8125 Z M 2.484375 1.8125 "/>
</g>
<g id="glyph-1-22">
<path d="M 2.84375 -2.328125 C 3.140625 -2.703125 3.515625 -3.1875 3.765625 -3.453125 C 4.0625 -3.8125 4.46875 -3.953125 4.9375 -3.96875 L 4.9375 -4.28125 C 4.6875 -4.25 4.390625 -4.25 4.125 -4.25 C 3.828125 -4.25 3.296875 -4.265625 3.171875 -4.28125 L 3.171875 -3.96875 C 3.390625 -3.953125 3.46875 -3.8125 3.46875 -3.65625 C 3.46875 -3.5 3.359375 -3.375 3.3125 -3.3125 L 2.703125 -2.546875 L 1.921875 -3.546875 C 1.828125 -3.640625 1.828125 -3.65625 1.828125 -3.71875 C 1.828125 -3.875 1.984375 -3.953125 2.1875 -3.96875 L 2.1875 -4.28125 C 1.921875 -4.265625 1.265625 -4.25 1.109375 -4.25 C 0.90625 -4.25 0.4375 -4.25 0.171875 -4.28125 L 0.171875 -3.96875 C 0.859375 -3.96875 0.875 -3.953125 1.34375 -3.359375 L 2.328125 -2.078125 L 1.390625 -0.90625 C 0.90625 -0.328125 0.328125 -0.3125 0.125 -0.3125 L 0.125 0 C 0.375 -0.015625 0.6875 -0.03125 0.9375 -0.03125 C 1.234375 -0.03125 1.640625 -0.015625 1.890625 0 L 1.890625 -0.3125 C 1.671875 -0.34375 1.59375 -0.46875 1.59375 -0.609375 C 1.59375 -0.828125 1.890625 -1.15625 2.484375 -1.875 L 3.25 -0.890625 C 3.328125 -0.78125 3.453125 -0.609375 3.453125 -0.5625 C 3.453125 -0.46875 3.359375 -0.3125 3.09375 -0.3125 L 3.09375 0 C 3.390625 -0.015625 3.953125 -0.03125 4.171875 -0.03125 C 4.4375 -0.03125 4.828125 -0.015625 5.125 0 L 5.125 -0.3125 C 4.578125 -0.3125 4.40625 -0.328125 4.171875 -0.609375 Z M 2.84375 -2.328125 "/>
</g>
<g id="glyph-1-23">
<path d="M 3.765625 -0.546875 L 3.765625 0.109375 L 5.234375 0 L 5.234375 -0.3125 C 4.53125 -0.3125 4.453125 -0.375 4.453125 -0.859375 L 4.453125 -6.890625 L 3.03125 -6.78125 L 3.03125 -6.46875 C 3.71875 -6.46875 3.796875 -6.40625 3.796875 -5.90625 L 3.796875 -3.765625 C 3.515625 -4.125 3.078125 -4.390625 2.546875 -4.390625 C 1.375 -4.390625 0.34375 -3.40625 0.34375 -2.140625 C 0.34375 -0.875 1.3125 0.109375 2.4375 0.109375 C 3.078125 0.109375 3.515625 -0.234375 3.765625 -0.546875 Z M 3.765625 -3.203125 L 3.765625 -1.171875 C 3.765625 -0.984375 3.765625 -0.96875 3.65625 -0.796875 C 3.359375 -0.328125 2.921875 -0.109375 2.484375 -0.109375 C 2.046875 -0.109375 1.6875 -0.359375 1.453125 -0.75 C 1.1875 -1.15625 1.15625 -1.71875 1.15625 -2.125 C 1.15625 -2.484375 1.1875 -3.078125 1.46875 -3.53125 C 1.671875 -3.84375 2.046875 -4.171875 2.59375 -4.171875 C 2.9375 -4.171875 3.359375 -4.015625 3.65625 -3.578125 C 3.765625 -3.40625 3.765625 -3.390625 3.765625 -3.203125 Z M 3.765625 -3.203125 "/>
</g>
<g id="glyph-1-24">
<path d="M 2.25 -3.140625 L 3.921875 -3.140625 C 5.125 -3.140625 6.1875 -3.9375 6.1875 -4.9375 C 6.1875 -5.90625 5.203125 -6.78125 3.84375 -6.78125 L 0.34375 -6.78125 L 0.34375 -6.46875 L 0.578125 -6.46875 C 1.34375 -6.46875 1.375 -6.359375 1.375 -6 L 1.375 -0.78125 C 1.375 -0.421875 1.34375 -0.3125 0.578125 -0.3125 L 0.34375 -0.3125 L 0.34375 0 C 0.6875 -0.03125 1.421875 -0.03125 1.8125 -0.03125 C 2.1875 -0.03125 2.921875 -0.03125 3.28125 0 L 3.28125 -0.3125 L 3.03125 -0.3125 C 2.265625 -0.3125 2.25 -0.421875 2.25 -0.78125 Z M 2.21875 -3.390625 L 2.21875 -6.078125 C 2.21875 -6.40625 2.25 -6.46875 2.703125 -6.46875 L 3.59375 -6.46875 C 5.171875 -6.46875 5.171875 -5.421875 5.171875 -4.9375 C 5.171875 -4.46875 5.171875 -3.390625 3.59375 -3.390625 Z M 2.21875 -3.390625 "/>
</g>
<g id="glyph-1-25">
<path d="M 4.125 -3.296875 C 4.21875 -3.53125 4.390625 -3.953125 5.046875 -3.96875 L 5.046875 -4.28125 C 4.8125 -4.25 4.53125 -4.25 4.296875 -4.25 C 4.0625 -4.25 3.609375 -4.265625 3.4375 -4.28125 L 3.4375 -3.96875 C 3.796875 -3.953125 3.90625 -3.734375 3.90625 -3.546875 C 3.90625 -3.453125 3.890625 -3.40625 3.84375 -3.296875 L 2.84375 -0.78125 L 1.71875 -3.546875 C 1.671875 -3.671875 1.671875 -3.6875 1.671875 -3.703125 C 1.671875 -3.96875 2.046875 -3.96875 2.234375 -3.96875 L 2.234375 -4.28125 C 1.9375 -4.265625 1.375 -4.25 1.15625 -4.25 C 0.890625 -4.25 0.484375 -4.25 0.1875 -4.28125 L 0.1875 -3.96875 C 0.8125 -3.96875 0.859375 -3.90625 0.984375 -3.609375 L 2.40625 -0.078125 C 2.46875 0.0625 2.484375 0.109375 2.625 0.109375 C 2.75 0.109375 2.78125 0.015625 2.828125 -0.078125 Z M 4.125 -3.296875 "/>
</g>
<g id="glyph-1-26">
<path d="M 3.953125 -6.90625 C 3.90625 -7.03125 3.875 -7.109375 3.71875 -7.109375 C 3.5625 -7.109375 3.53125 -7.046875 3.484375 -6.90625 L 1.421875 -0.96875 C 1.25 -0.46875 0.859375 -0.3125 0.3125 -0.3125 L 0.3125 0 C 0.546875 -0.015625 0.96875 -0.03125 1.328125 -0.03125 C 1.640625 -0.03125 2.15625 -0.015625 2.46875 0 L 2.46875 -0.3125 C 1.96875 -0.3125 1.71875 -0.5625 1.71875 -0.8125 C 1.71875 -0.84375 1.734375 -0.9375 1.75 -0.96875 L 2.203125 -2.265625 L 4.65625 -2.265625 L 5.171875 -0.75 C 5.1875 -0.703125 5.203125 -0.640625 5.203125 -0.609375 C 5.203125 -0.3125 4.65625 -0.3125 4.390625 -0.3125 L 4.390625 0 C 4.75 -0.03125 5.4375 -0.03125 5.8125 -0.03125 C 6.234375 -0.03125 6.703125 -0.015625 7.109375 0 L 7.109375 -0.3125 L 6.9375 -0.3125 C 6.34375 -0.3125 6.203125 -0.375 6.09375 -0.703125 Z M 3.421875 -5.796875 L 4.546875 -2.5625 L 2.3125 -2.5625 Z M 3.421875 -5.796875 "/>
</g>
<g id="glyph-1-27">
<path d="M 2.015625 -0.015625 C 2.015625 -0.640625 1.78125 -1.046875 1.375 -1.046875 C 1.03125 -1.046875 0.859375 -0.78125 0.859375 -0.53125 C 0.859375 -0.265625 1.015625 0 1.375 0 C 1.53125 0 1.65625 -0.0625 1.75 -0.140625 L 1.78125 -0.15625 C 1.78125 -0.15625 1.796875 -0.15625 1.796875 -0.015625 C 1.796875 0.625 1.515625 1.234375 1.078125 1.703125 C 1.015625 1.75 1.015625 1.765625 1.015625 1.8125 C 1.015625 1.875 1.0625 1.921875 1.109375 1.921875 C 1.234375 1.921875 2.015625 1.125 2.015625 -0.015625 Z M 2.015625 -0.015625 "/>
</g>
<g id="glyph-1-28">
<path d="M 0.34375 -6.78125 L 0.34375 -6.46875 L 0.578125 -6.46875 C 1.34375 -6.46875 1.375 -6.359375 1.375 -6 L 1.375 -0.78125 C 1.375 -0.421875 1.34375 -0.3125 0.578125 -0.3125 L 0.34375 -0.3125 L 0.34375 0 L 3.984375 0 C 5.640625 0 7.015625 -1.46875 7.015625 -3.328125 C 7.015625 -5.21875 5.671875 -6.78125 3.984375 -6.78125 Z M 2.703125 -0.3125 C 2.25 -0.3125 2.21875 -0.375 2.21875 -0.703125 L 2.21875 -6.078125 C 2.21875 -6.40625 2.25 -6.46875 2.703125 -6.46875 L 3.703125 -6.46875 C 4.3125 -6.46875 5 -6.25 5.5 -5.546875 C 5.9375 -4.953125 6.015625 -4.109375 6.015625 -3.328125 C 6.015625 -2.234375 5.828125 -1.640625 5.484375 -1.15625 C 5.28125 -0.890625 4.71875 -0.3125 3.703125 -0.3125 Z M 2.703125 -0.3125 "/>
</g>
<g id="glyph-1-29">
<path d="M 2.21875 -3.5 L 2.21875 -6.078125 C 2.21875 -6.296875 2.21875 -6.421875 2.4375 -6.453125 C 2.546875 -6.46875 2.828125 -6.46875 3.03125 -6.46875 C 3.921875 -6.46875 5.03125 -6.421875 5.03125 -4.984375 C 5.03125 -4.3125 4.796875 -3.5 3.328125 -3.5 Z M 4.3125 -3.375 C 5.28125 -3.609375 6.046875 -4.21875 6.046875 -4.984375 C 6.046875 -5.9375 4.921875 -6.78125 3.46875 -6.78125 L 0.34375 -6.78125 L 0.34375 -6.46875 L 0.578125 -6.46875 C 1.34375 -6.46875 1.375 -6.359375 1.375 -6 L 1.375 -0.78125 C 1.375 -0.421875 1.34375 -0.3125 0.578125 -0.3125 L 0.34375 -0.3125 L 0.34375 0 C 0.703125 -0.03125 1.40625 -0.03125 1.796875 -0.03125 C 2.1875 -0.03125 2.890625 -0.03125 3.25 0 L 3.25 -0.3125 L 3 -0.3125 C 2.25 -0.3125 2.21875 -0.421875 2.21875 -0.78125 L 2.21875 -3.28125 L 3.359375 -3.28125 C 3.515625 -3.28125 3.9375 -3.28125 4.28125 -2.953125 C 4.65625 -2.59375 4.65625 -2.28125 4.65625 -1.625 C 4.65625 -0.96875 4.65625 -0.578125 5.0625 -0.203125 C 5.484375 0.15625 6.015625 0.21875 6.3125 0.21875 C 7.09375 0.21875 7.265625 -0.59375 7.265625 -0.875 C 7.265625 -0.9375 7.265625 -1.046875 7.140625 -1.046875 C 7.03125 -1.046875 7.03125 -0.953125 7.015625 -0.890625 C 6.953125 -0.171875 6.609375 0 6.359375 0 C 5.875 0 5.796875 -0.5 5.65625 -1.421875 L 5.53125 -2.21875 C 5.34375 -2.859375 4.859375 -3.1875 4.3125 -3.375 Z M 4.3125 -3.375 "/>
</g>
<g id="glyph-2-0">
<path d="M 2.03125 0 C 4.328125 0 7.59375 -1.765625 7.59375 -4.46875 C 7.59375 -5.359375 7.1875 -5.90625 6.703125 -6.21875 C 5.84375 -6.78125 4.9375 -6.78125 3.984375 -6.78125 C 3.140625 -6.78125 2.546875 -6.78125 1.71875 -6.421875 C 0.390625 -5.828125 0.203125 -5.015625 0.203125 -4.9375 C 0.203125 -4.875 0.25 -4.859375 0.3125 -4.859375 C 0.46875 -4.859375 0.6875 -4.984375 0.78125 -5.046875 C 0.984375 -5.171875 1.015625 -5.234375 1.078125 -5.421875 C 1.203125 -5.828125 1.484375 -6.171875 2.734375 -6.234375 C 2.578125 -4.15625 2.078125 -2.265625 1.375 -0.53125 C 1.015625 -0.390625 0.78125 -0.171875 0.78125 -0.0625 C 0.78125 -0.015625 0.78125 0 1 0 Z M 2.078125 -0.546875 C 3.203125 -3.3125 3.40625 -5.046875 3.546875 -6.234375 C 4.21875 -6.234375 6.75 -6.234375 6.75 -4.046875 C 6.75 -2.109375 5.015625 -0.546875 2.609375 -0.546875 Z M 2.078125 -0.546875 "/>
</g>
<g id="glyph-3-0">
<path d="M 0.453125 1.203125 C 0.359375 1.546875 0.34375 1.625 -0.09375 1.625 C -0.203125 1.625 -0.3125 1.625 -0.3125 1.8125 C -0.3125 1.890625 -0.265625 1.921875 -0.1875 1.921875 C 0.078125 1.921875 0.359375 1.890625 0.640625 1.890625 C 0.96875 1.890625 1.3125 1.921875 1.625 1.921875 C 1.671875 1.921875 1.8125 1.921875 1.8125 1.71875 C 1.8125 1.625 1.703125 1.625 1.5625 1.625 C 1.078125 1.625 1.078125 1.546875 1.078125 1.453125 C 1.078125 1.34375 1.484375 -0.28125 1.5625 -0.53125 C 1.6875 -0.234375 1.96875 0.109375 2.46875 0.109375 C 3.625 0.109375 4.859375 -1.34375 4.859375 -2.796875 C 4.859375 -3.734375 4.296875 -4.390625 3.546875 -4.390625 C 3.046875 -4.390625 2.5625 -4.03125 2.25 -3.640625 C 2.140625 -4.171875 1.71875 -4.390625 1.34375 -4.390625 C 0.890625 -4.390625 0.703125 -4 0.609375 -3.8125 C 0.4375 -3.484375 0.3125 -2.890625 0.3125 -2.859375 C 0.3125 -2.765625 0.40625 -2.765625 0.421875 -2.765625 C 0.53125 -2.765625 0.53125 -2.765625 0.59375 -2.984375 C 0.765625 -3.6875 0.96875 -4.171875 1.3125 -4.171875 C 1.484375 -4.171875 1.625 -4.09375 1.625 -3.703125 C 1.625 -3.484375 1.59375 -3.375 1.5625 -3.203125 Z M 2.1875 -3.09375 C 2.265625 -3.359375 2.53125 -3.640625 2.703125 -3.796875 C 3.0625 -4.09375 3.34375 -4.171875 3.515625 -4.171875 C 3.90625 -4.171875 4.140625 -3.8125 4.140625 -3.234375 C 4.140625 -2.65625 3.8125 -1.515625 3.640625 -1.125 C 3.296875 -0.4375 2.828125 -0.109375 2.453125 -0.109375 C 1.8125 -0.109375 1.671875 -0.9375 1.671875 -0.984375 C 1.671875 -1.015625 1.671875 -1.03125 1.703125 -1.15625 Z M 2.1875 -3.09375 "/>
</g>
<g id="glyph-3-1">
<path d="M 2.8125 -6.203125 C 2.8125 -6.40625 2.671875 -6.5625 2.453125 -6.5625 C 2.1875 -6.5625 1.921875 -6.296875 1.921875 -6.03125 C 1.921875 -5.84375 2.046875 -5.671875 2.296875 -5.671875 C 2.515625 -5.671875 2.8125 -5.90625 2.8125 -6.203125 Z M 2.0625 -2.46875 C 2.1875 -2.765625 2.1875 -2.78125 2.28125 -3.046875 C 2.359375 -3.25 2.40625 -3.390625 2.40625 -3.578125 C 2.40625 -4.015625 2.09375 -4.390625 1.59375 -4.390625 C 0.671875 -4.390625 0.28125 -2.953125 0.28125 -2.859375 C 0.28125 -2.765625 0.390625 -2.765625 0.40625 -2.765625 C 0.5 -2.765625 0.515625 -2.78125 0.5625 -2.9375 C 0.828125 -3.875 1.234375 -4.171875 1.5625 -4.171875 C 1.640625 -4.171875 1.8125 -4.171875 1.8125 -3.84375 C 1.8125 -3.640625 1.75 -3.4375 1.703125 -3.328125 C 1.625 -3.078125 1.1875 -1.921875 1.015625 -1.5 C 0.921875 -1.234375 0.796875 -0.90625 0.796875 -0.703125 C 0.796875 -0.234375 1.125 0.109375 1.609375 0.109375 C 2.546875 0.109375 2.90625 -1.328125 2.90625 -1.421875 C 2.90625 -1.515625 2.8125 -1.515625 2.78125 -1.515625 C 2.6875 -1.515625 2.6875 -1.484375 2.640625 -1.34375 C 2.453125 -0.71875 2.140625 -0.109375 1.625 -0.109375 C 1.453125 -0.109375 1.390625 -0.203125 1.390625 -0.4375 C 1.390625 -0.6875 1.453125 -0.828125 1.671875 -1.421875 Z M 2.0625 -2.46875 "/>
</g>
<g id="glyph-3-2">
<path d="M 2.015625 -0.015625 C 2.015625 -0.671875 1.765625 -1.046875 1.375 -1.046875 C 1.046875 -1.046875 0.859375 -0.796875 0.859375 -0.53125 C 0.859375 -0.265625 1.046875 0 1.375 0 C 1.5 0 1.625 -0.046875 1.71875 -0.125 C 1.75 -0.15625 1.765625 -0.15625 1.78125 -0.15625 C 1.78125 -0.15625 1.796875 -0.15625 1.796875 -0.015625 C 1.796875 0.71875 1.453125 1.3125 1.125 1.640625 C 1.015625 1.75 1.015625 1.78125 1.015625 1.8125 C 1.015625 1.875 1.0625 1.921875 1.109375 1.921875 C 1.21875 1.921875 2.015625 1.15625 2.015625 -0.015625 Z M 2.015625 -0.015625 "/>
</g>
<g id="glyph-3-3">
<path d="M 1.90625 -0.53125 C 1.90625 -0.8125 1.671875 -1.046875 1.375 -1.046875 C 1.09375 -1.046875 0.859375 -0.8125 0.859375 -0.53125 C 0.859375 -0.234375 1.09375 0 1.375 0 C 1.671875 0 1.90625 -0.234375 1.90625 -0.53125 Z M 1.90625 -0.53125 "/>
</g>
<g id="glyph-3-4">
<path d="M 7.5 -5.734375 C 7.59375 -6.125 7.78125 -6.4375 8.578125 -6.46875 C 8.625 -6.46875 8.734375 -6.484375 8.734375 -6.671875 C 8.734375 -6.671875 8.734375 -6.78125 8.609375 -6.78125 C 8.28125 -6.78125 7.9375 -6.75 7.609375 -6.75 C 7.265625 -6.75 6.921875 -6.78125 6.59375 -6.78125 C 6.53125 -6.78125 6.421875 -6.78125 6.421875 -6.578125 C 6.421875 -6.46875 6.515625 -6.46875 6.59375 -6.46875 C 7.15625 -6.453125 7.265625 -6.25 7.265625 -6.03125 C 7.265625 -6 7.25 -5.859375 7.25 -5.828125 L 6.125 -1.40625 L 3.9375 -6.59375 C 3.859375 -6.765625 3.84375 -6.78125 3.625 -6.78125 L 2.296875 -6.78125 C 2.09375 -6.78125 2 -6.78125 2 -6.578125 C 2 -6.46875 2.09375 -6.46875 2.28125 -6.46875 C 2.328125 -6.46875 2.953125 -6.46875 2.953125 -6.375 L 1.625 -1.046875 C 1.53125 -0.65625 1.359375 -0.34375 0.5625 -0.3125 C 0.5 -0.3125 0.390625 -0.296875 0.390625 -0.109375 C 0.390625 -0.046875 0.4375 0 0.515625 0 C 0.828125 0 1.1875 -0.03125 1.515625 -0.03125 C 1.84375 -0.03125 2.203125 0 2.53125 0 C 2.578125 0 2.703125 0 2.703125 -0.203125 C 2.703125 -0.296875 2.625 -0.3125 2.515625 -0.3125 C 1.9375 -0.328125 1.859375 -0.546875 1.859375 -0.75 C 1.859375 -0.8125 1.859375 -0.859375 1.890625 -0.96875 L 3.203125 -6.21875 C 3.25 -6.15625 3.25 -6.125 3.296875 -6.03125 L 5.765625 -0.1875 C 5.828125 -0.015625 5.859375 0 5.953125 0 C 6.0625 0 6.0625 -0.03125 6.109375 -0.203125 Z M 7.5 -5.734375 "/>
</g>
<g id="glyph-3-5">
<path d="M 4.53125 -2.265625 C 4.6875 -2.34375 4.6875 -2.421875 4.6875 -2.484375 C 4.6875 -2.546875 4.6875 -2.609375 4.53125 -2.703125 L 0.65625 -4.9375 C 0.53125 -5.015625 0.484375 -5.015625 0.453125 -5.015625 C 0.265625 -5.015625 0.265625 -4.796875 0.265625 -4.65625 L 0.265625 -0.3125 C 0.265625 -0.15625 0.265625 0.046875 0.453125 0.046875 C 0.484375 0.046875 0.515625 0.046875 0.640625 -0.015625 Z M 4.09375 -2.484375 L 0.65625 -0.5 L 0.65625 -4.46875 Z M 4.09375 -2.484375 "/>
</g>
<g id="glyph-4-0">
<path d="M 3.78125 -4.625 C 3.796875 -4.703125 3.796875 -4.71875 3.796875 -4.734375 C 3.796875 -4.8125 3.703125 -4.8125 3.6875 -4.8125 C 3.578125 -4.8125 3.578125 -4.78125 3.546875 -4.65625 L 2.421875 -0.140625 C 1.84375 -0.203125 1.546875 -0.453125 1.546875 -0.921875 C 1.546875 -1.015625 1.546875 -1.21875 1.890625 -2.078125 C 1.9375 -2.234375 1.984375 -2.34375 1.984375 -2.46875 C 1.984375 -2.828125 1.6875 -3.0625 1.328125 -3.0625 C 0.640625 -3.0625 0.328125 -2.109375 0.328125 -2 C 0.328125 -1.90625 0.421875 -1.90625 0.4375 -1.90625 C 0.546875 -1.90625 0.546875 -1.9375 0.5625 -2.015625 C 0.734375 -2.59375 1.046875 -2.859375 1.3125 -2.859375 C 1.421875 -2.859375 1.484375 -2.78125 1.484375 -2.625 C 1.484375 -2.46875 1.421875 -2.328125 1.359375 -2.125 C 1 -1.25 1 -1.09375 1 -0.96875 C 1 -0.171875 1.84375 0.03125 2.359375 0.0625 C 2.3125 0.234375 2.046875 1.296875 2.046875 1.328125 C 2.046875 1.421875 2.140625 1.421875 2.171875 1.421875 C 2.265625 1.421875 2.28125 1.375 2.296875 1.265625 L 2.609375 0.0625 C 2.875 0.0625 3.515625 0.0625 4.234375 -0.65625 C 4.421875 -0.859375 4.609375 -1.09375 4.734375 -1.40625 C 4.828125 -1.625 4.984375 -2.203125 4.984375 -2.515625 C 4.984375 -3.0625 4.65625 -3.0625 4.640625 -3.0625 C 4.453125 -3.0625 4.265625 -2.875 4.265625 -2.703125 C 4.265625 -2.578125 4.328125 -2.53125 4.359375 -2.5 C 4.46875 -2.40625 4.640625 -2.234375 4.640625 -1.921875 C 4.640625 -1.34375 3.84375 -0.125 2.65625 -0.125 Z M 3.78125 -4.625 "/>
</g>
<g id="glyph-5-0">
<path d="M 1.15625 -4.40625 L 0.421875 -4.40625 L 0.421875 -3.9375 L 1.15625 -3.9375 L 1.15625 -0.46875 L 0.46875 -0.46875 L 0.46875 0 C 0.828125 -0.015625 1.265625 -0.03125 1.71875 -0.03125 C 2.109375 -0.03125 2.734375 -0.03125 3.09375 0 L 3.09375 -0.46875 L 2.234375 -0.46875 L 2.234375 -3.9375 L 3.375 -3.9375 L 3.375 -4.40625 L 2.171875 -4.40625 L 2.171875 -5.40625 C 2.171875 -6.5 2.921875 -6.59375 3.171875 -6.59375 C 3.21875 -6.59375 3.28125 -6.59375 3.34375 -6.5625 C 3.1875 -6.453125 3.109375 -6.265625 3.109375 -6.078125 C 3.109375 -5.65625 3.46875 -5.46875 3.71875 -5.46875 C 4.015625 -5.46875 4.328125 -5.671875 4.328125 -6.078125 C 4.328125 -6.5 3.984375 -6.9375 3.203125 -6.9375 C 2.234375 -6.9375 1.15625 -6.53125 1.15625 -5.40625 Z M 1.15625 -4.40625 "/>
</g>
<g id="glyph-5-1">
<path d="M 5.375 -2.15625 C 5.375 -3.5 4.46875 -4.5 2.84375 -4.5 C 1.21875 -4.5 0.3125 -3.484375 0.3125 -2.15625 C 0.3125 -0.9375 1.1875 0.0625 2.84375 0.0625 C 4.515625 0.0625 5.375 -0.9375 5.375 -2.15625 Z M 2.84375 -0.34375 C 1.59375 -0.34375 1.59375 -1.40625 1.59375 -2.265625 C 1.59375 -2.71875 1.59375 -3.21875 1.75 -3.5625 C 1.9375 -3.921875 2.359375 -4.140625 2.84375 -4.140625 C 3.265625 -4.140625 3.6875 -3.984375 3.90625 -3.625 C 4.109375 -3.296875 4.109375 -2.75 4.109375 -2.265625 C 4.109375 -1.40625 4.109375 -0.34375 2.84375 -0.34375 Z M 2.84375 -0.34375 "/>
</g>
<g id="glyph-5-2">
<path d="M 2.015625 -3.34375 L 2.015625 -4.46875 L 0.359375 -4.390625 L 0.359375 -3.921875 C 0.984375 -3.921875 1.046875 -3.921875 1.046875 -3.53125 L 1.046875 -0.46875 L 0.359375 -0.46875 L 0.359375 0 C 0.71875 -0.015625 1.15625 -0.03125 1.625 -0.03125 C 2 -0.03125 2.625 -0.03125 2.984375 0 L 2.984375 -0.46875 L 2.125 -0.46875 L 2.125 -2.203125 C 2.125 -2.890625 2.375 -4.109375 3.359375 -4.109375 C 3.359375 -4.09375 3.171875 -3.9375 3.171875 -3.65625 C 3.171875 -3.25 3.5 -3.046875 3.78125 -3.046875 C 4.0625 -3.046875 4.390625 -3.25 4.390625 -3.65625 C 4.390625 -4.171875 3.84375 -4.46875 3.328125 -4.46875 C 2.640625 -4.46875 2.25 -3.96875 2.015625 -3.34375 Z M 2.015625 -3.34375 "/>
</g>
<g id="glyph-5-3">
<path d="M 4.140625 -0.421875 L 4.140625 0.0625 L 5.96875 0 L 5.96875 -0.46875 C 5.34375 -0.46875 5.28125 -0.46875 5.28125 -0.859375 L 5.28125 -6.890625 L 3.515625 -6.8125 L 3.515625 -6.34375 C 4.140625 -6.34375 4.203125 -6.34375 4.203125 -5.953125 L 4.203125 -4.015625 C 3.703125 -4.40625 3.1875 -4.46875 2.875 -4.46875 C 1.421875 -4.46875 0.375 -3.59375 0.375 -2.1875 C 0.375 -0.890625 1.296875 0.0625 2.765625 0.0625 C 3.359375 0.0625 3.84375 -0.171875 4.140625 -0.421875 Z M 4.140625 -3.5 L 4.140625 -1.015625 C 4.015625 -0.84375 3.609375 -0.296875 2.859375 -0.296875 C 1.640625 -0.296875 1.640625 -1.5 1.640625 -2.1875 C 1.640625 -2.671875 1.640625 -3.203125 1.90625 -3.59375 C 2.1875 -4.015625 2.65625 -4.109375 2.96875 -4.109375 C 3.53125 -4.109375 3.921875 -3.796875 4.140625 -3.5 Z M 4.140625 -3.5 "/>
</g>
<g id="glyph-5-4">
<path d="M 4.578125 -2.15625 C 4.796875 -2.15625 4.90625 -2.15625 4.90625 -2.4375 C 4.90625 -2.734375 4.84375 -3.46875 4.34375 -3.953125 C 3.984375 -4.3125 3.453125 -4.5 2.765625 -4.5 C 1.1875 -4.5 0.3125 -3.46875 0.3125 -2.234375 C 0.3125 -0.90625 1.3125 0.0625 2.90625 0.0625 C 4.46875 0.0625 4.90625 -0.984375 4.90625 -1.15625 C 4.90625 -1.34375 4.71875 -1.34375 4.65625 -1.34375 C 4.5 -1.34375 4.46875 -1.296875 4.421875 -1.125 C 4.203125 -0.65625 3.640625 -0.34375 3 -0.34375 C 1.59375 -0.34375 1.59375 -1.65625 1.59375 -2.15625 Z M 1.59375 -2.484375 C 1.609375 -2.875 1.625 -3.296875 1.828125 -3.625 C 2.078125 -4.015625 2.484375 -4.140625 2.765625 -4.140625 C 3.921875 -4.140625 3.953125 -2.84375 3.953125 -2.484375 Z M 1.59375 -2.484375 "/>
</g>
<g id="glyph-5-5">
<path d="M 1.125 -3.53125 L 1.125 -0.46875 L 0.453125 -0.46875 L 0.453125 0 C 0.71875 -0.015625 1.3125 -0.03125 1.703125 -0.03125 C 2.078125 -0.03125 2.671875 -0.015625 2.953125 0 L 2.953125 -0.46875 L 2.265625 -0.46875 L 2.265625 -2.546875 C 2.265625 -3.625 3.109375 -4.109375 3.734375 -4.109375 C 4.078125 -4.109375 4.28125 -3.90625 4.28125 -3.140625 L 4.28125 -0.46875 L 3.609375 -0.46875 L 3.609375 0 C 3.875 -0.015625 4.46875 -0.03125 4.859375 -0.03125 C 5.234375 -0.03125 5.828125 -0.015625 6.109375 0 L 6.109375 -0.46875 L 5.421875 -0.46875 L 5.421875 -3.03125 C 5.421875 -4.078125 4.875 -4.46875 3.890625 -4.46875 C 2.9375 -4.46875 2.40625 -3.90625 2.15625 -3.390625 L 2.15625 -4.46875 L 0.453125 -4.390625 L 0.453125 -3.921875 C 1.0625 -3.921875 1.125 -3.921875 1.125 -3.53125 Z M 1.125 -3.53125 "/>
</g>
<g id="glyph-6-0">
<path d="M 5.703125 -2.109375 C 5.703125 -2.703125 5.40625 -3.0625 4.65625 -3.0625 C 4.109375 -3.0625 3.734375 -2.765625 3.546875 -2.421875 C 3.40625 -2.90625 3.03125 -3.0625 2.53125 -3.0625 C 1.96875 -3.0625 1.59375 -2.75 1.40625 -2.390625 L 1.390625 -2.390625 L 1.390625 -3.0625 L 0.375 -2.984375 L 0.375 -2.734375 C 0.84375 -2.734375 0.890625 -2.6875 0.890625 -2.34375 L 0.890625 -0.546875 C 0.890625 -0.25 0.828125 -0.25 0.375 -0.25 L 0.375 0 C 0.390625 0 0.875 -0.03125 1.171875 -0.03125 C 1.421875 -0.03125 1.90625 0 1.96875 0 L 1.96875 -0.25 C 1.515625 -0.25 1.4375 -0.25 1.4375 -0.546875 L 1.4375 -1.796875 C 1.4375 -2.53125 2.015625 -2.859375 2.484375 -2.859375 C 2.96875 -2.859375 3.03125 -2.484375 3.03125 -2.125 L 3.03125 -0.546875 C 3.03125 -0.25 2.953125 -0.25 2.5 -0.25 L 2.5 0 C 2.515625 0 3 -0.03125 3.296875 -0.03125 C 3.546875 -0.03125 4.03125 0 4.09375 0 L 4.09375 -0.25 C 3.640625 -0.25 3.578125 -0.25 3.578125 -0.546875 L 3.578125 -1.796875 C 3.578125 -2.53125 4.15625 -2.859375 4.609375 -2.859375 C 5.09375 -2.859375 5.15625 -2.484375 5.15625 -2.125 L 5.15625 -0.546875 C 5.15625 -0.25 5.078125 -0.25 4.640625 -0.25 L 4.640625 0 C 4.640625 0 5.140625 -0.03125 5.421875 -0.03125 C 5.6875 -0.03125 6.15625 0 6.21875 0 L 6.21875 -0.25 C 5.765625 -0.25 5.703125 -0.25 5.703125 -0.546875 Z M 5.703125 -2.109375 "/>
</g>
<g id="glyph-6-1">
<path d="M 3.09375 -1.859375 C 3.09375 -2.234375 3.09375 -2.484375 2.78125 -2.75 C 2.484375 -2.984375 2.15625 -3.09375 1.75 -3.09375 C 1.09375 -3.09375 0.625 -2.84375 0.625 -2.421875 C 0.625 -2.203125 0.78125 -2.078125 0.953125 -2.078125 C 1.140625 -2.078125 1.28125 -2.21875 1.28125 -2.40625 C 1.28125 -2.53125 1.234375 -2.671875 1.046875 -2.71875 C 1.296875 -2.90625 1.6875 -2.90625 1.734375 -2.90625 C 2.125 -2.90625 2.546875 -2.640625 2.546875 -2.0625 L 2.546875 -1.84375 C 2.171875 -1.828125 1.703125 -1.8125 1.203125 -1.625 C 0.578125 -1.390625 0.375 -1.015625 0.375 -0.703125 C 0.375 -0.109375 1.109375 0.0625 1.59375 0.0625 C 2.15625 0.0625 2.484375 -0.25 2.625 -0.515625 C 2.65625 -0.234375 2.84375 0.03125 3.15625 0.03125 C 3.171875 0.03125 3.84375 0.03125 3.84375 -0.625 L 3.84375 -1 L 3.609375 -1 L 3.609375 -0.625 C 3.609375 -0.5625 3.609375 -0.234375 3.34375 -0.234375 C 3.09375 -0.234375 3.09375 -0.5625 3.09375 -0.640625 Z M 2.546875 -0.984375 C 2.546875 -0.3125 1.96875 -0.125 1.65625 -0.125 C 1.296875 -0.125 0.96875 -0.359375 0.96875 -0.703125 C 0.96875 -1.078125 1.296875 -1.609375 2.546875 -1.671875 Z M 2.546875 -0.984375 "/>
</g>
<g id="glyph-6-2">
<path d="M 2.359375 -1.546875 C 2.34375 -1.5625 2.296875 -1.609375 2.296875 -1.625 C 2.296875 -1.640625 2.75 -2.140625 2.8125 -2.203125 C 3.0625 -2.46875 3.296875 -2.734375 3.84375 -2.734375 L 3.84375 -2.984375 C 3.65625 -2.96875 3.453125 -2.96875 3.265625 -2.96875 C 3.0625 -2.96875 2.78125 -2.96875 2.578125 -2.984375 L 2.578125 -2.734375 C 2.703125 -2.71875 2.71875 -2.640625 2.71875 -2.578125 C 2.71875 -2.5625 2.71875 -2.46875 2.609375 -2.34375 L 2.125 -1.796875 L 1.546875 -2.453125 C 1.484375 -2.53125 1.484375 -2.5625 1.484375 -2.59375 C 1.484375 -2.703125 1.578125 -2.734375 1.671875 -2.734375 L 1.671875 -2.984375 C 1.40625 -2.96875 1.140625 -2.96875 0.890625 -2.96875 C 0.6875 -2.96875 0.421875 -2.96875 0.21875 -2.984375 L 0.21875 -2.734375 C 0.53125 -2.734375 0.71875 -2.734375 0.890625 -2.53125 L 1.765625 -1.53125 C 1.765625 -1.53125 1.8125 -1.46875 1.8125 -1.46875 C 1.8125 -1.4375 1.296875 -0.875 1.234375 -0.796875 C 0.96875 -0.515625 0.734375 -0.265625 0.1875 -0.25 L 0.1875 0 C 0.390625 -0.015625 0.546875 -0.03125 0.75 -0.03125 C 0.96875 -0.03125 1.234375 -0.015625 1.453125 0 L 1.453125 -0.25 C 1.359375 -0.265625 1.3125 -0.3125 1.3125 -0.40625 C 1.3125 -0.546875 1.390625 -0.625 1.5 -0.75 L 1.984375 -1.28125 L 2.59375 -0.59375 C 2.71875 -0.453125 2.71875 -0.4375 2.71875 -0.390625 C 2.71875 -0.25 2.5625 -0.25 2.53125 -0.25 L 2.53125 0 C 2.59375 0 3.09375 -0.03125 3.3125 -0.03125 C 3.53125 -0.03125 3.765625 -0.015625 3.984375 0 L 3.984375 -0.25 C 3.515625 -0.25 3.46875 -0.296875 3.296875 -0.46875 Z M 2.359375 -1.546875 "/>
</g>
</g>
</defs>
<g fill="rgb(0%, 0%, 0%)" fill-opacity="1">
<use xlink:href="#glyph-0-0" x="9.739834" y="10.854155"/>
<use xlink:href="#glyph-0-1" x="13.955378" y="10.854155"/>
</g>
<g fill="rgb(0%, 0%, 0%)" fill-opacity="1">
<use xlink:href="#glyph-1-0" x="21.255801" y="10.854155"/>
<use xlink:href="#glyph-1-1" x="25.140669" y="10.854155"/>
<use xlink:href="#glyph-1-2" x="30.651092" y="10.854155"/>
</g>
<g fill="rgb(0%, 0%, 0%)" fill-opacity="1">
<use xlink:href="#glyph-1-3" x="39.464198" y="10.854155"/>
</g>
<g fill="rgb(0%, 0%, 0%)" fill-opacity="1">
<use xlink:href="#glyph-1-4" x="47.735783" y="10.854155"/>
</g>
<g fill="rgb(0%, 0%, 0%)" fill-opacity="1">
<use xlink:href="#glyph-1-3" x="53.236287" y="10.854155"/>
<use xlink:href="#glyph-1-5" x="58.195271" y="10.854155"/>
</g>
<g fill="rgb(0%, 0%, 0%)" fill-opacity="1">
<use xlink:href="#glyph-1-6" x="62.116836" y="10.854155"/>
</g>
<g fill="rgb(0%, 0%, 0%)" fill-opacity="1">
<use xlink:href="#glyph-1-7" x="69.827064" y="10.854155"/>
</g>
<g fill="rgb(0%, 0%, 0%)" fill-opacity="1">
<use xlink:href="#glyph-1-8" x="75.615189" y="10.854155"/>
<use xlink:href="#glyph-1-9" x="80.574173" y="10.854155"/>
<use xlink:href="#glyph-1-10" x="83.329385" y="10.854155"/>
<use xlink:href="#glyph-1-11" x="86.084596" y="10.854155"/>
<use xlink:href="#glyph-1-12" x="90.492141" y="10.854155"/>
<use xlink:href="#glyph-1-13" x="95.726844" y="10.854155"/>
</g>
<g fill="rgb(0%, 0%, 0%)" fill-opacity="1">
<use xlink:href="#glyph-1-11" x="101.784739" y="10.854155"/>
<use xlink:href="#glyph-1-8" x="106.192283" y="10.854155"/>
<use xlink:href="#glyph-1-9" x="111.151267" y="10.854155"/>
<use xlink:href="#glyph-1-9" x="113.906478" y="10.854155"/>
<use xlink:href="#glyph-1-6" x="116.66169" y="10.854155"/>
<use xlink:href="#glyph-1-11" x="121.069235" y="10.854155"/>
<use xlink:href="#glyph-1-14" x="125.476779" y="10.854155"/>
</g>
<g fill="rgb(0%, 0%, 0%)" fill-opacity="1">
<use xlink:href="#glyph-2-0" x="132.63656" y="10.854155"/>
</g>
<g fill="rgb(0%, 0%, 0%)" fill-opacity="1">
<use xlink:href="#glyph-1-13" x="140.564983" y="10.854155"/>
</g>
<g fill="rgb(0%, 0%, 0%)" fill-opacity="1">
<use xlink:href="#glyph-1-15" x="146.622878" y="10.854155"/>
<use xlink:href="#glyph-1-14" x="152.133301" y="10.854155"/>
</g>
<g fill="rgb(0%, 0%, 0%)" fill-opacity="1">
<use xlink:href="#glyph-1-16" x="160.146027" y="10.854155"/>
</g>
<g fill="rgb(0%, 0%, 0%)" fill-opacity="1">
<use xlink:href="#glyph-3-0" x="159.303" y="10.854155"/>
</g>
<g fill="rgb(0%, 0%, 0%)" fill-opacity="1">
<use xlink:href="#glyph-4-0" x="164.290332" y="12.341461"/>
</g>
<g fill="rgb(0%, 0%, 0%)" fill-opacity="1">
<use xlink:href="#glyph-1-14" x="173.589484" y="10.854155"/>
<use xlink:href="#glyph-1-8" x="177.446582" y="10.854155"/>
</g>
<g fill="rgb(0%, 0%, 0%)" fill-opacity="1">
<use xlink:href="#glyph-2-0" x="185.708249" y="10.854155"/>
</g>
<g fill="rgb(0%, 0%, 0%)" fill-opacity="1">
<use xlink:href="#glyph-0-2" x="9.739834" y="22.755596"/>
<use xlink:href="#glyph-0-1" x="13.955378" y="22.755596"/>
</g>
<g fill="rgb(0%, 0%, 0%)" fill-opacity="1">
<use xlink:href="#glyph-5-0" x="21.255801" y="22.755596"/>
<use xlink:href="#glyph-5-1" x="24.740975" y="22.755596"/>
<use xlink:href="#glyph-5-2" x="30.443806" y="22.755596"/>
</g>
<g fill="rgb(0%, 0%, 0%)" fill-opacity="1">
<use xlink:href="#glyph-3-1" x="38.443639" y="22.755596"/>
</g>
<g fill="rgb(0%, 0%, 0%)" fill-opacity="1">
<use xlink:href="#glyph-1-17" x="44.617574" y="22.755596"/>
</g>
<g fill="rgb(0%, 0%, 0%)" fill-opacity="1">
<use xlink:href="#glyph-1-18" x="55.088964" y="22.755596"/>
</g>
<g fill="rgb(0%, 0%, 0%)" fill-opacity="1">
<use xlink:href="#glyph-3-2" x="60.047948" y="22.755596"/>
</g>
<g fill="rgb(0%, 0%, 0%)" fill-opacity="1">
<use xlink:href="#glyph-1-19" x="64.449542" y="22.755596"/>
</g>
<g fill="rgb(0%, 0%, 0%)" fill-opacity="1">
<use xlink:href="#glyph-3-2" x="69.408525" y="22.755596"/>
</g>
<g fill="rgb(0%, 0%, 0%)" fill-opacity="1">
<use xlink:href="#glyph-3-3" x="73.820037" y="22.755596"/>
</g>
<g fill="rgb(0%, 0%, 0%)" fill-opacity="1">
<use xlink:href="#glyph-3-3" x="78.231549" y="22.755596"/>
</g>
<g fill="rgb(0%, 0%, 0%)" fill-opacity="1">
<use xlink:href="#glyph-3-3" x="82.633143" y="22.755596"/>
</g>
<g fill="rgb(0%, 0%, 0%)" fill-opacity="1">
<use xlink:href="#glyph-3-2" x="87.044655" y="22.755596"/>
</g>
<g fill="rgb(0%, 0%, 0%)" fill-opacity="1">
<use xlink:href="#glyph-3-4" x="91.456167" y="22.755596"/>
</g>
<g fill="rgb(0%, 0%, 0%)" fill-opacity="1">
<use xlink:href="#glyph-6-0" x="99.422249" y="24.243899"/>
<use xlink:href="#glyph-6-1" x="105.937839" y="24.243899"/>
<use xlink:href="#glyph-6-2" x="109.891625" y="24.243899"/>
</g>
<g fill="rgb(0%, 0%, 0%)" fill-opacity="1">
<use xlink:href="#glyph-5-3" x="117.860275" y="22.755596"/>
<use xlink:href="#glyph-5-1" x="124.196864" y="22.755596"/>
</g>
<g fill="rgb(0%, 0%, 0%)" fill-opacity="1">
<use xlink:href="#glyph-0-3" x="9.739834" y="34.657038"/>
<use xlink:href="#glyph-0-1" x="13.955378" y="34.657038"/>
</g>
<g fill="rgb(0%, 0%, 0%)" fill-opacity="1">
<use xlink:href="#glyph-1-7" x="36.132752" y="34.657038"/>
<use xlink:href="#glyph-1-9" x="41.643175" y="34.657038"/>
<use xlink:href="#glyph-1-3" x="44.398387" y="34.657038"/>
<use xlink:href="#glyph-1-2" x="49.35737" y="34.657038"/>
</g>
<g fill="rgb(0%, 0%, 0%)" fill-opacity="1">
<use xlink:href="#glyph-1-14" x="58.170476" y="34.657038"/>
<use xlink:href="#glyph-1-20" x="62.027574" y="34.657038"/>
<use xlink:href="#glyph-1-0" x="67.537997" y="34.657038"/>
<use xlink:href="#glyph-1-8" x="71.422864" y="34.657038"/>
<use xlink:href="#glyph-1-1" x="76.381848" y="34.657038"/>
<use xlink:href="#glyph-1-21" x="81.892271" y="34.657038"/>
<use xlink:href="#glyph-1-20" x="86.851255" y="34.657038"/>
</g>
<g fill="rgb(0%, 0%, 0%)" fill-opacity="1">
<use xlink:href="#glyph-1-16" x="96.507388" y="34.657038"/>
</g>
<g fill="rgb(0%, 0%, 0%)" fill-opacity="1">
<use xlink:href="#glyph-3-0" x="95.664361" y="34.657038"/>
</g>
<g fill="rgb(0%, 0%, 0%)" fill-opacity="1">
<use xlink:href="#glyph-4-0" x="100.658685" y="36.14534"/>
</g>
<g fill="rgb(0%, 0%, 0%)" fill-opacity="1">
<use xlink:href="#glyph-1-13" x="106.651715" y="34.657038"/>
</g>
<g fill="rgb(0%, 0%, 0%)" fill-opacity="1">
<use xlink:href="#glyph-1-6" x="112.70961" y="34.657038"/>
<use xlink:href="#glyph-1-22" x="117.117154" y="34.657038"/>
<use xlink:href="#glyph-1-6" x="122.351858" y="34.657038"/>
<use xlink:href="#glyph-1-11" x="126.759402" y="34.657038"/>
<use xlink:href="#glyph-1-1" x="131.166947" y="34.657038"/>
<use xlink:href="#glyph-1-14" x="136.67737" y="34.657038"/>
<use xlink:href="#glyph-1-6" x="140.534468" y="34.657038"/>
</g>
<g fill="rgb(0%, 0%, 0%)" fill-opacity="1">
<use xlink:href="#glyph-1-14" x="148.254614" y="34.657038"/>
<use xlink:href="#glyph-1-20" x="152.111711" y="34.657038"/>
<use xlink:href="#glyph-1-6" x="157.622134" y="34.657038"/>
</g>
<g fill="rgb(0%, 0%, 0%)" fill-opacity="1">
<use xlink:href="#glyph-1-15" x="165.332362" y="34.657038"/>
<use xlink:href="#glyph-1-0" x="170.842785" y="34.657038"/>
<use xlink:href="#glyph-1-5" x="174.727653" y="34.657038"/>
<use xlink:href="#glyph-1-14" x="178.639299" y="34.657038"/>
</g>
<g fill="rgb(0%, 0%, 0%)" fill-opacity="1">
<use xlink:href="#glyph-1-7" x="185.79908" y="34.657038"/>
<use xlink:href="#glyph-1-9" x="191.309502" y="34.657038"/>
<use xlink:href="#glyph-1-3" x="194.064714" y="34.657038"/>
<use xlink:href="#glyph-1-2" x="199.023698" y="34.657038"/>
<use xlink:href="#glyph-1-2" x="204.53412" y="34.657038"/>
<use xlink:href="#glyph-1-6" x="210.044543" y="34.657038"/>
<use xlink:href="#glyph-1-23" x="214.452088" y="34.657038"/>
</g>
<g fill="rgb(0%, 0%, 0%)" fill-opacity="1">
<use xlink:href="#glyph-1-3" x="223.275112" y="34.657038"/>
<use xlink:href="#glyph-1-11" x="228.234096" y="34.657038"/>
<use xlink:href="#glyph-1-14" x="232.64164" y="34.657038"/>
<use xlink:href="#glyph-1-10" x="236.498738" y="34.657038"/>
<use xlink:href="#glyph-1-8" x="239.253949" y="34.657038"/>
<use xlink:href="#glyph-1-2" x="244.212933" y="34.657038"/>
</g>
<g fill="rgb(0%, 0%, 0%)" fill-opacity="1">
<use xlink:href="#glyph-1-3" x="253.026039" y="34.657038"/>
<use xlink:href="#glyph-1-2" x="257.985023" y="34.657038"/>
<use xlink:href="#glyph-1-23" x="263.495446" y="34.657038"/>
</g>
<g fill="rgb(0%, 0%, 0%)" fill-opacity="1">
<use xlink:href="#glyph-1-0" x="272.308552" y="34.657038"/>
<use xlink:href="#glyph-1-6" x="276.19342" y="34.657038"/>
<use xlink:href="#glyph-1-7" x="280.600964" y="34.657038"/>
<use xlink:href="#glyph-1-9" x="286.111387" y="34.657038"/>
<use xlink:href="#glyph-1-3" x="288.866598" y="34.657038"/>
<use xlink:href="#glyph-1-2" x="293.825582" y="34.657038"/>
</g>
<g fill="rgb(0%, 0%, 0%)" fill-opacity="1">
<use xlink:href="#glyph-3-5" x="305.891782" y="34.657038"/>
</g>
<g fill="rgb(0%, 0%, 0%)" fill-opacity="1">
<use xlink:href="#glyph-1-24" x="314.163367" y="34.657038"/>
<use xlink:href="#glyph-1-9" x="320.913535" y="34.657038"/>
<use xlink:href="#glyph-1-3" x="323.668747" y="34.657038"/>
<use xlink:href="#glyph-1-2" x="328.62773" y="34.657038"/>
</g>
<g fill="rgb(0%, 0%, 0%)" fill-opacity="1">
<use xlink:href="#glyph-1-3" x="337.440836" y="34.657038"/>
<use xlink:href="#glyph-1-2" x="342.39982" y="34.657038"/>
<use xlink:href="#glyph-1-23" x="347.910243" y="34.657038"/>
</g>
<g fill="rgb(0%, 0%, 0%)" fill-opacity="1">
<use xlink:href="#glyph-1-3" x="356.723349" y="34.657038"/>
<use xlink:href="#glyph-1-11" x="361.682333" y="34.657038"/>
<use xlink:href="#glyph-1-14" x="366.089877" y="34.657038"/>
</g>
<g fill="rgb(0%, 0%, 0%)" fill-opacity="1">
<use xlink:href="#glyph-0-4" x="9.739834" y="46.559475"/>
<use xlink:href="#glyph-0-1" x="13.955378" y="46.559475"/>
</g>
<g fill="rgb(0%, 0%, 0%)" fill-opacity="1">
<use xlink:href="#glyph-1-3" x="36.132752" y="46.559475"/>
<use xlink:href="#glyph-1-23" x="41.091736" y="46.559475"/>
<use xlink:href="#glyph-1-23" x="46.602159" y="46.559475"/>
</g>
<g fill="rgb(0%, 0%, 0%)" fill-opacity="1">
<use xlink:href="#glyph-1-14" x="55.415265" y="46.559475"/>
<use xlink:href="#glyph-1-20" x="59.272362" y="46.559475"/>
<use xlink:href="#glyph-1-6" x="64.782785" y="46.559475"/>
</g>
<g fill="rgb(0%, 0%, 0%)" fill-opacity="1">
<use xlink:href="#glyph-1-8" x="72.502931" y="46.559475"/>
<use xlink:href="#glyph-1-4" x="77.461915" y="46.559475"/>
<use xlink:href="#glyph-1-5" x="82.972338" y="46.559475"/>
<use xlink:href="#glyph-1-6" x="86.883984" y="46.559475"/>
<use xlink:href="#glyph-1-0" x="91.291529" y="46.559475"/>
<use xlink:href="#glyph-1-25" x="95.176397" y="46.559475"/>
</g>
<g fill="rgb(0%, 0%, 0%)" fill-opacity="1">
<use xlink:href="#glyph-1-6" x="100.133397" y="46.559475"/>
<use xlink:href="#glyph-1-23" x="104.540942" y="46.559475"/>
</g>
<g fill="rgb(0%, 0%, 0%)" fill-opacity="1">
<use xlink:href="#glyph-1-14" x="113.354048" y="46.559475"/>
<use xlink:href="#glyph-1-0" x="117.211145" y="46.559475"/>
<use xlink:href="#glyph-1-3" x="121.096013" y="46.559475"/>
<use xlink:href="#glyph-1-2" x="126.054997" y="46.559475"/>
<use xlink:href="#glyph-1-5" x="131.56542" y="46.559475"/>
<use xlink:href="#glyph-1-10" x="135.477066" y="46.559475"/>
<use xlink:href="#glyph-1-14" x="138.232278" y="46.559475"/>
<use xlink:href="#glyph-1-10" x="142.089375" y="46.559475"/>
<use xlink:href="#glyph-1-8" x="144.844586" y="46.559475"/>
<use xlink:href="#glyph-1-2" x="149.80357" y="46.559475"/>
<use xlink:href="#glyph-1-5" x="155.313993" y="46.559475"/>
</g>
<g fill="rgb(0%, 0%, 0%)" fill-opacity="1">
<use xlink:href="#glyph-1-14" x="162.528323" y="46.559475"/>
<use xlink:href="#glyph-1-8" x="166.38542" y="46.559475"/>
</g>
<g fill="rgb(0%, 0%, 0%)" fill-opacity="1">
<use xlink:href="#glyph-2-0" x="174.657005" y="46.559475"/>
</g>
<g fill="rgb(0%, 0%, 0%)" fill-opacity="1">
<use xlink:href="#glyph-3-5" x="255.095689" y="46.559475"/>
</g>
<g fill="rgb(0%, 0%, 0%)" fill-opacity="1">
<use xlink:href="#glyph-1-26" x="263.357356" y="46.559475"/>
<use xlink:href="#glyph-1-21" x="270.795832" y="46.559475"/>
<use xlink:href="#glyph-1-21" x="275.754816" y="46.559475"/>
<use xlink:href="#glyph-1-0" x="280.713799" y="46.559475"/>
<use xlink:href="#glyph-1-6" x="284.598667" y="46.559475"/>
<use xlink:href="#glyph-1-21" x="289.006212" y="46.559475"/>
<use xlink:href="#glyph-1-3" x="293.965196" y="46.559475"/>
<use xlink:href="#glyph-1-14" x="298.92418" y="46.559475"/>
<use xlink:href="#glyph-1-6" x="302.781277" y="46.559475"/>
<use xlink:href="#glyph-1-27" x="307.188822" y="46.559475"/>
</g>
<g fill="rgb(0%, 0%, 0%)" fill-opacity="1">
<use xlink:href="#glyph-1-3" x="313.256634" y="46.559475"/>
<use xlink:href="#glyph-1-5" x="318.215618" y="46.559475"/>
</g>
<g fill="rgb(0%, 0%, 0%)" fill-opacity="1">
<use xlink:href="#glyph-1-10" x="325.429948" y="46.559475"/>
<use xlink:href="#glyph-1-2" x="328.185159" y="46.559475"/>
</g>
<g fill="rgb(0%, 0%, 0%)" fill-opacity="1">
<use xlink:href="#glyph-1-28" x="336.998265" y="46.559475"/>
</g>
<g fill="rgb(0%, 0%, 0%)" fill-opacity="1">
<use xlink:href="#glyph-1-26" x="344.296898" y="46.559475"/>
<use xlink:href="#glyph-1-21" x="351.735373" y="46.559475"/>
<use xlink:href="#glyph-1-21" x="356.694357" y="46.559475"/>
<use xlink:href="#glyph-1-6" x="361.653341" y="46.559475"/>
<use xlink:href="#glyph-1-0" x="366.060886" y="46.559475"/>
</g>
<g fill="rgb(0%, 0%, 0%)" fill-opacity="1">
<use xlink:href="#glyph-0-5" x="9.739834" y="58.460916"/>
<use xlink:href="#glyph-0-1" x="13.955378" y="58.460916"/>
</g>
<g fill="rgb(0%, 0%, 0%)" fill-opacity="1">
<use xlink:href="#glyph-1-0" x="36.132752" y="58.460916"/>
<use xlink:href="#glyph-1-6" x="40.01762" y="58.460916"/>
<use xlink:href="#glyph-1-15" x="44.425165" y="58.460916"/>
<use xlink:href="#glyph-1-14" x="49.935588" y="58.460916"/>
</g>
<g fill="rgb(0%, 0%, 0%)" fill-opacity="1">
<use xlink:href="#glyph-1-16" x="57.938396" y="58.460916"/>
</g>
<g fill="rgb(0%, 0%, 0%)" fill-opacity="1">
<use xlink:href="#glyph-3-0" x="57.095369" y="58.460916"/>
</g>
<g fill="rgb(0%, 0%, 0%)" fill-opacity="1">
<use xlink:href="#glyph-4-0" x="62.088258" y="59.948223"/>
</g>
<g fill="rgb(0%, 0%, 0%)" fill-opacity="1">
<use xlink:href="#glyph-1-8" x="71.38741" y="58.460916"/>
<use xlink:href="#glyph-1-2" x="76.346394" y="58.460916"/>
</g>
<g fill="rgb(0%, 0%, 0%)" fill-opacity="1">
<use xlink:href="#glyph-2-0" x="85.1595" y="58.460916"/>
</g>
<g fill="rgb(0%, 0%, 0%)" fill-opacity="1">
<use xlink:href="#glyph-3-5" x="329.006617" y="58.460916"/>
</g>
<g fill="rgb(0%, 0%, 0%)" fill-opacity="1">
<use xlink:href="#glyph-1-29" x="337.278202" y="58.460916"/>
<use xlink:href="#glyph-1-6" x="344.578818" y="58.460916"/>
<use xlink:href="#glyph-1-14" x="348.986363" y="58.460916"/>
<use xlink:href="#glyph-1-0" x="352.84346" y="58.460916"/>
<use xlink:href="#glyph-1-3" x="356.728328" y="58.460916"/>
<use xlink:href="#glyph-1-10" x="361.687312" y="58.460916"/>
<use xlink:href="#glyph-1-2" x="364.442524" y="58.460916"/>
</g>
<g fill="rgb(0%, 0%, 0%)" fill-opacity="1">
<use xlink:href="#glyph-0-6" x="9.739834" y="70.362358"/>
<use xlink:href="#glyph-0-1" x="13.955378" y="70.362358"/>
</g>
<g fill="rgb(0%, 0%, 0%)" fill-opacity="1">
<use xlink:href="#glyph-5-4" x="21.255801" y="70.362358"/>
<use xlink:href="#glyph-5-5" x="26.483562" y="70.362358"/>
<use xlink:href="#glyph-5-3" x="32.820151" y="70.362358"/>
</g>
<g fill="rgb(0%, 0%, 0%)" fill-opacity="1">
<use xlink:href="#glyph-5-0" x="42.459424" y="70.362358"/>
<use xlink:href="#glyph-5-1" x="45.944598" y="70.362358"/>
<use xlink:href="#glyph-5-2" x="51.647429" y="70.362358"/>
</g>
</svg>
